<svg width="37" height="29" viewBox="0 0 37 29" fill="none" xmlns="http://www.w3.org/2000/svg">
<path d="M9.46052 10.8429C11.0136 8.8108 12.5231 6.8513 14.0182 4.90632C15.0632 3.54193 16.1083 2.17753 17.1534 0.827658C18.0243 -0.304497 19.0113 -0.260952 19.8821 0.871202C22.3497 4.108 24.8172 7.33029 27.2847 10.5526C27.3428 10.6251 27.4008 10.7122 27.4879 10.8284C27.7056 10.6687 27.8798 10.5671 28.0395 10.4219C30.1441 8.63662 32.2488 6.86581 34.3534 5.08049C35.1082 4.44184 35.7323 4.31121 36.3129 4.70311C36.9951 5.15307 37.0532 5.80623 36.9225 6.561C36.0371 11.438 35.1227 16.3004 34.3679 21.1919C34.1937 22.3386 34.5131 23.5869 34.6437 24.7771C34.7163 25.4738 34.8904 26.156 34.9921 26.8527C35.1662 27.9703 34.5711 28.7106 33.439 28.7106C23.4673 28.7106 13.5101 28.7106 3.53848 28.7106C2.40633 28.7106 1.81122 27.9703 1.9854 26.8527C2.14506 25.8802 2.24667 24.8787 2.49342 23.9207C2.98692 22.0628 2.4789 20.2775 2.15958 18.4777C1.46287 14.428 0.751641 10.3784 0.0404159 6.34328C-0.0902173 5.61754 0.0839603 5.03695 0.737126 4.67408C1.39029 4.31121 1.9854 4.51442 2.53696 4.97889C4.64161 6.76421 6.74625 8.54953 8.83638 10.3349C9.01056 10.48 9.19925 10.6251 9.46052 10.8429ZM3.50945 9.5946C4.17713 13.3539 4.80127 16.8955 5.42541 20.4517C14.1633 20.4517 22.8286 20.4517 31.552 20.4517C32.1762 16.881 32.8148 13.3249 33.468 9.60911C33.1051 9.89941 32.9019 10.0446 32.6987 10.2187C31.3198 11.3944 29.9264 12.5701 28.5475 13.7313C27.4879 14.6167 26.7622 14.5441 25.9203 13.47C23.6124 10.4655 21.2901 7.44641 18.9822 4.44184C18.8226 4.23864 18.6629 4.04994 18.4597 3.81771C18.2565 4.07897 18.0968 4.26766 17.9517 4.45636C15.6293 7.48995 13.3069 10.5235 10.9701 13.5426C10.2153 14.5151 9.446 14.6167 8.50254 13.8184C7.22524 12.7298 5.93342 11.6267 4.64161 10.5381C4.32228 10.2623 3.98844 9.9865 3.50945 9.5946ZM5.07705 25.7931C14.0472 25.7931 22.9303 25.7931 31.9004 25.7931C31.7698 24.9948 31.6536 24.2545 31.523 23.4998C22.7851 23.4998 14.1198 23.4998 5.42541 23.4998C5.30929 24.2836 5.19317 25.0093 5.07705 25.7931Z" fill="#FF7600"/>
<path d="M18.4015 17.534C17.5742 16.6921 16.7178 15.8357 15.8905 14.9648C15.7889 14.8487 15.7744 14.5149 15.876 14.3697C16.7033 13.0053 17.5597 11.67 18.4886 10.204C19.4611 11.7425 20.4046 13.2231 21.3045 14.6455C20.332 15.618 19.4031 16.5324 18.4015 17.534Z" fill="#FF7600"/>
</svg>
