<svg width="399" height="331" viewBox="0 0 399 331" fill="none" xmlns="http://www.w3.org/2000/svg">
<g clip-path="url(#clip0)">
<path d="M193.099 248.303L195.802 252.417L172.9 259.722C172.9 259.722 171.406 258.232 176.954 255.325C183.568 251.991 193.099 248.303 193.099 248.303Z" fill="#88BDDA"/>
<path d="M197.153 248.303L194.45 252.417L217.352 259.722C217.352 259.722 218.845 258.232 213.298 255.325C206.683 251.991 197.153 248.303 197.153 248.303Z" fill="#88BDDA"/>
<path d="M197.509 236.033H192.743V252.984H197.509V236.033Z" fill="#88BDDA"/>
<path d="M192.814 249.225L195.162 253.197L175.603 260.147C175.603 260.147 174.322 258.729 179.088 255.963C184.635 252.7 192.814 249.225 192.814 249.225Z" fill="#ACD5F4"/>
<path d="M197.437 249.225L195.09 253.197L214.649 260.147C214.649 260.147 215.929 258.729 211.164 255.963C205.617 252.7 197.437 249.225 197.437 249.225Z" fill="#ACD5F4"/>
<path d="M177.736 261.708C177.736 262.63 177.025 263.339 176.101 263.339C175.176 263.339 174.465 262.63 174.465 261.708C174.465 260.786 175.176 260.076 176.101 260.076C177.025 260.076 177.736 260.786 177.736 261.708Z" fill="#001F46"/>
<path d="M215.716 261.708C215.716 262.63 215.005 263.339 214.08 263.339C213.156 263.339 212.444 262.63 212.444 261.708C212.444 260.786 213.156 260.076 214.08 260.076C214.934 260.076 215.716 260.786 215.716 261.708Z" fill="#001F46"/>
<path d="M173.753 261.708C173.753 262.63 173.042 263.339 172.118 263.339C171.193 263.339 170.482 262.63 170.482 261.708C170.482 260.786 171.193 260.076 172.118 260.076C172.971 260.076 173.753 260.786 173.753 261.708Z" fill="#367082"/>
<path d="M219.699 261.708C219.699 262.63 218.988 263.339 218.063 263.339C217.139 263.339 216.427 262.63 216.427 261.708C216.427 260.786 217.139 260.076 218.063 260.076C218.988 260.076 219.699 260.786 219.699 261.708Z" fill="#367082"/>
<path d="M196.797 229.792H193.312V235.892H196.797V229.792Z" fill="#00939B"/>
<path d="M199.429 226.601C199.429 228.445 197.935 230.005 196.015 230.005H194.095C192.245 230.005 190.681 228.516 190.681 226.601C190.681 224.757 192.174 223.196 194.095 223.196H196.015C197.935 223.196 199.429 224.686 199.429 226.601Z" fill="#00939B"/>
<path d="M221.051 223.48C221.122 223.054 221.193 220.572 221.193 220.147C221.193 217.381 219.415 215.182 217.21 215.182H172.901C170.696 215.182 168.918 217.381 168.918 220.147C168.918 220.572 168.989 223.054 169.06 223.48H221.051Z" fill="#82D8DC"/>
<path d="M168.561 224.828C168.561 225.679 169.059 226.317 169.628 226.317H220.481C221.121 226.317 221.548 225.608 221.548 224.828C221.548 223.976 221.05 223.338 220.481 223.338H169.628C169.059 223.267 168.561 223.976 168.561 224.828Z" fill="#00939B"/>
<path d="M185.631 214.827C185.631 214.827 213.084 214.898 223.753 215.04C231.079 215.182 231.79 204.685 228.874 203.125C220.055 198.373 192.672 195.891 192.672 195.891L174.038 212.983C173.967 212.983 175.034 212.983 185.631 214.827Z" fill="#194866"/>
<path d="M154.052 267.169C153.626 267.665 153.91 269.013 153.91 269.013C153.91 269.013 161.307 269.864 163.654 269.297C164.294 269.155 165.29 268.587 166.286 268.091C166.428 268.02 166.712 267.453 166.926 267.311C167.21 267.098 167.352 267.453 167.637 267.24C168.277 266.814 168.775 266.531 168.775 266.46C169.415 263.055 168.561 261.708 168.561 261.708C168.561 261.708 162.232 259.651 161.094 261.069C158.32 264.545 154.977 266.105 154.052 267.169Z" fill="#161711"/>
<path d="M223.184 263.552L223.682 269.155L229.301 269.722C229.301 269.722 229.656 269.013 230.154 269.013C230.581 269.084 231.007 269.864 231.505 269.935C232.714 270.077 233.995 270.148 234.493 270.219C235.559 270.289 245.73 271.282 245.73 271.282C245.73 271.282 246.086 270.148 245.801 269.722C245.659 269.509 244.734 269.084 244.165 268.8C241.32 267.736 233.355 264.403 232.145 261.495C230.794 257.949 223.184 263.552 223.184 263.552Z" fill="#161711"/>
<path d="M171.762 204.685C171.762 204.685 169.913 221.92 170.197 230.998C170.411 237.877 170.411 250.998 168.775 262.275C168.704 262.984 159.884 262.417 159.884 262.417C159.884 262.417 156.755 219.721 155.759 212.7C154.835 205.678 157.609 200.643 171.762 204.685Z" fill="#194866"/>
<path d="M227.096 208.87C227.096 208.87 224.251 213.338 216.498 214.402C213.653 214.756 221.05 264.403 221.05 264.403L232.572 260.715L230.367 205.891L227.096 208.87Z" fill="#163F59"/>
<path d="M195.446 214.402C195.446 214.402 180.439 216.529 170.411 217.593C166.712 217.948 163.583 207.735 163.156 207.239C160.453 204.402 157.822 204.756 157.893 204.685C160.098 202.345 171.335 200.146 183.071 197.451C194.806 194.685 196.584 196.458 196.584 196.458L195.446 214.402Z" fill="#163F59"/>
<path d="M170.126 214.26L168.988 247.807L167.779 255.537L167.708 247.807L167.921 242.913L165.29 235.395L163.867 217.948L165.93 218.728L165.645 211.068L170.126 214.26Z" fill="#163F59"/>
<path d="M226.74 204.685L229.585 205.465L230.581 245.75L224.678 260.147L227.522 250.36L226.384 230.076C226.384 230.076 222.33 239.863 222.33 239.367C222.33 238.87 225.744 218.09 225.744 218.09C225.744 218.09 221.904 221.281 222.33 221.139C222.615 220.998 224.535 206.6 226.74 204.685Z" fill="#194866"/>
<path d="M182.999 197.451C171.264 200.217 160.027 202.345 157.822 204.685C157.751 204.756 160.382 204.402 163.085 207.238C163.227 207.38 163.867 210.643 164.365 211.848C162.445 208.373 190.112 198.728 196.015 196.174C194.948 195.82 191.676 195.394 182.999 197.451Z" fill="#194866"/>
<path d="M180.368 157.592C180.368 157.592 169.628 159.365 168.419 161.635C161.094 175.252 155.973 188.089 154.621 192.061C153.555 195.111 150.852 206.316 157.68 207.168C158.889 207.309 163.654 206.175 163.654 206.175L166.997 205.04L165.574 202.345L165.503 200.217C165.503 200.217 169.771 189.862 175.034 180.146C180.368 170.429 180.368 157.592 180.368 157.592Z" fill="#B7FBFE"/>
<path d="M166.143 204.189C166.143 204.189 172.615 207.168 174.963 210.501C177.31 213.834 178.092 212.487 178.092 212.487L188.263 203.834C188.334 203.905 178.661 200.359 166.143 204.189Z" fill="#E9F6FF"/>
<path d="M214.649 197.593L224.606 200.926C224.606 200.926 220.623 200.784 217.138 203.55C214.72 205.536 209.813 211.707 209.813 211.707C209.813 211.707 199.144 206.246 197.153 204.543C195.161 202.912 209.813 197.593 214.649 197.593Z" fill="#E9F6FF"/>
<path d="M208.39 158.869C208.39 158.869 216.783 159.01 218.561 166.103C221.975 180.075 221.477 182.628 222.188 195.962C222.259 197.238 222.117 200.714 214.222 200.926C211.022 200.997 211.164 195.04 211.164 195.04C211.164 195.04 209.102 189.224 206.897 179.366C204.692 169.507 208.39 158.869 208.39 158.869Z" fill="#B7FBFE"/>
<path d="M214.649 160.358L199.002 153.833L185.275 152.911L170.34 159.862C170.34 159.862 167.921 160.216 168.846 171.989C169.771 184.259 172.758 199.579 172.758 199.579L211.52 200.784C211.52 200.784 210.524 178.444 212.302 168.514C212.942 165.039 212.942 162.415 214.649 160.358Z" fill="#E9F6FF"/>
<path d="M214.72 192.983L195.802 200.714C195.802 200.714 209.244 202.628 217.636 200.926C223.255 199.721 215.005 192.699 214.72 192.983Z" fill="#E9D6B8"/>
<path d="M163.796 196.813L183.426 197.806C183.426 197.806 164.579 206.458 163.939 204.969C160.382 196.6 163.796 196.813 163.796 196.813Z" fill="#E9D6B8"/>
<path d="M174.607 196.245C175.745 195.678 175.674 195.678 175.674 195.678C175.674 195.678 176.741 196.884 178.234 197.167C179.017 197.309 181.435 197.309 181.435 197.309L185.062 197.38L186.769 197.309C186.769 197.309 187.694 197.167 187.978 197.38C188.689 197.877 188.049 198.231 188.049 198.231L181.577 199.153L187.765 199.933C187.765 199.933 188.547 200.146 188.547 200.572C188.547 200.997 188.334 200.926 188.334 200.926L181.079 201.706L184.28 202.487C184.28 202.487 185.062 202.699 185.062 203.125C185.133 203.55 185.133 203.692 185.133 203.692L178.519 203.054C178.519 202.983 173.469 196.813 174.607 196.245Z" fill="#E9D6B8"/>
<path d="M181.719 200.217L186.058 200.997C186.058 200.997 187.053 201.068 187.48 201.352C187.978 201.706 187.694 202.132 187.694 202.132L181.008 201.565L181.719 200.217Z" fill="#E9D6B8"/>
<path d="M161.663 206.387C161.663 206.387 155.333 209.863 155.688 197.238C155.759 195.111 164.01 195.749 164.01 195.749L173.682 196.245L176.67 203.55L161.663 206.387Z" fill="#B7FBFE"/>
<path d="M164.65 201.068L175.105 199.721L173.682 196.245L164.01 195.749C164.01 195.749 163.014 195.394 159.031 196.884C152.986 200.714 164.65 201.068 164.65 201.068Z" fill="#E9F6FF"/>
<path d="M220.126 200.643C220.126 200.643 221.975 198.089 221.904 197.309C221.121 192.628 215.645 191.706 215.645 191.706L201.136 195.607L204.479 202.912L220.126 200.643Z" fill="#B7FBFE"/>
<path d="M183.497 156.245C183.497 156.245 199.287 151.422 199.642 156.386C199.998 161.351 197.153 182.628 195.659 185.961C194.166 189.295 188.974 183.337 186.484 172.486C183.995 161.706 183.497 156.245 183.497 156.245Z" fill="#00C6CE"/>
<path d="M185.56 158.088L188.974 172.344L189.329 184.33L182.502 165.394L184.351 163.55L181.506 163.408C181.506 163.408 181.648 156.599 183.497 154.471C185.347 152.344 188.618 152.556 186.982 153.975C185.347 155.393 185.56 158.088 185.56 158.088Z" fill="#B7FBFE"/>
<path d="M198.504 153.904C198.504 153.904 200.994 153.762 201.847 155.89C202.701 158.018 203.341 163.053 203.341 163.053L200.851 164.188L202.843 166.032L195.375 186.6C195.375 186.6 195.873 170.004 196.513 166.67C197.153 163.337 198.504 153.904 198.504 153.904Z" fill="#B7FBFE"/>
<path d="M198.22 158.089C197.935 160.145 196.228 161.989 194.45 162.06C192.743 162.06 191.036 162.06 189.329 162.06C187.551 161.989 185.844 160.145 185.56 158.089C185.133 154.613 184.706 151.209 184.28 147.734C183.995 145.677 185.204 141.492 187.978 140.287C190.467 139.223 193.312 139.223 195.802 140.287C198.504 141.492 199.784 145.677 199.5 147.734C199.073 151.209 198.647 154.613 198.22 158.089Z" fill="#E2C59C"/>
<path d="M191.108 133.762C189.685 133.762 188.405 134.471 187.694 135.606H186.271C184.493 135.606 183.071 137.024 183.071 138.797V146.599H185.275V143.407C185.275 142.202 186.271 141.209 187.48 141.209H188.76H186.698H188.049C190.325 141.209 192.174 139.365 192.174 137.095V133.762H191.108Z" fill="#163F59"/>
<path d="M187.125 149.507C187.125 150.571 186.271 151.422 185.204 151.422H185.062C183.995 151.422 183.142 150.571 183.142 149.507V147.166C183.142 146.102 183.995 145.251 185.062 145.251H185.204C185.987 145.251 186.698 145.748 186.982 146.386" fill="#E2C59C"/>
<path d="M189.401 136.882V133.762H190.681H194.095H196.157C198.433 133.762 200.282 135.606 200.282 137.875V140.996H199.002H195.588H193.455C191.179 140.925 189.401 139.152 189.401 136.882Z" fill="#163F59"/>
<path d="M199.642 152.485C199.642 154.117 198.362 156.883 196.299 157.734C193.526 158.869 190.183 158.869 187.338 157.734C185.275 156.883 184.066 154.117 183.995 152.485C183.995 147.875 183.995 143.265 183.995 138.655C183.995 137.024 185.631 135.677 187.622 135.606C190.396 135.606 193.17 135.606 195.873 135.606C197.864 135.677 199.5 137.024 199.5 138.655C199.642 143.265 199.642 147.875 199.642 152.485Z" fill="#E9D6B8"/>
<path d="M193.455 133.762C194.877 133.762 196.157 134.471 196.868 135.606H198.291C200.069 135.606 201.491 137.024 201.491 138.797V146.599H199.287V143.407C199.287 142.202 198.291 141.209 197.082 141.209H197.864H194.237C191.961 141.209 190.112 139.365 190.112 137.095V133.762H193.455Z" fill="#163F59"/>
<path d="M197.437 147.166C197.437 146.102 198.291 145.251 199.358 145.251H199.5C200.567 145.251 201.42 146.102 201.42 147.166V149.507C201.42 150.571 200.567 151.422 199.5 151.422H199.358C198.575 151.422 197.864 150.925 197.58 150.287" fill="#E9D6B8"/>
<path d="M190.041 137.663C190.112 137.379 190.112 137.166 190.112 136.882V133.762H188.832H187.196C184.92 133.762 183.071 135.606 183.071 137.875V140.996H183.924H184.351H185.987C186.271 140.996 186.556 140.996 186.84 140.925C187.196 139.294 188.405 138.017 190.041 137.663Z" fill="#163F59"/>
<path d="M209.03 203.621V202.345H170.411V203.55C170.411 203.55 170.411 203.55 170.411 203.621L170.553 203.834C171.193 204.898 172.402 205.111 173.753 205.111H205.759C207.11 205.111 208.319 204.898 208.959 203.834L209.03 203.621Z" fill="#B6C2C9"/>
<path d="M202.487 202.628H176.883V203.48H202.487V202.628Z" fill="#879BA6"/>
<path d="M208.959 202.487L209.03 177.238C209.03 176.6 208.462 176.032 207.821 176.032H171.691C171.051 176.032 170.482 176.6 170.482 177.238L170.411 202.487H208.959Z" fill="#D7DFE2"/>
<path d="M192.103 189.295C192.103 190.571 191.036 191.635 189.756 191.635C188.476 191.635 187.409 190.571 187.409 189.295C187.409 188.018 188.476 186.954 189.756 186.954C191.036 186.954 192.103 187.947 192.103 189.295Z" fill="#B6C2C9"/>
<path d="M167.068 17.0926C167.068 24.7523 160.88 30.9227 153.199 30.9227C145.518 30.9227 139.33 24.7523 139.33 17.0926C139.33 9.43284 145.518 3.2625 153.199 3.2625C160.88 3.19158 167.068 9.43284 167.068 17.0926Z" fill="#82D8DC"/>
<path d="M153.199 31.0645C156.115 31.0645 158.889 30.4971 161.307 29.5042L160.738 23.4048C160.667 22.6246 159.671 22.1281 158.391 21.9863C154.906 21.4898 151.492 21.4898 148.078 21.9863C146.798 22.1991 145.802 22.6955 145.731 23.4048L145.162 29.5042C147.58 30.4971 150.283 31.0645 153.199 31.0645Z" fill="white"/>
<path d="M153.27 31.0645L150.781 21.6317C149.927 21.7026 149.074 21.7736 148.291 21.9154C148.078 22.8374 147.722 24.4687 147.722 24.4687C147.722 24.4687 148.86 24.8942 148.932 25.107C149.003 25.3197 148.078 26.1708 148.078 26.1708L149.429 30.7099C150.567 30.9227 151.919 31.0645 153.27 31.0645C153.199 31.0645 153.199 31.0645 153.27 31.0645Z" fill="#D1ECFB"/>
<path d="M158.604 24.4687C158.604 24.4687 158.249 22.8374 158.035 21.9154C157.182 21.7736 156.328 21.7026 155.546 21.6317L153.057 31.0645C153.128 31.0645 153.199 31.0645 153.27 31.0645C154.55 31.0645 155.759 30.9227 156.968 30.7809L158.32 26.1708C158.32 26.1708 157.395 25.3197 157.466 25.107C157.466 24.8233 158.604 24.4687 158.604 24.4687Z" fill="#D1ECFB"/>
<path d="M154.906 30.9936C154.977 30.9936 155.048 30.9936 155.119 30.9936C155.546 29.4333 155.973 27.4474 156.328 25.3197C156.542 24.0431 156.613 22.8374 156.613 21.6317C154.337 21.4189 152.061 21.4189 149.785 21.6317C149.785 22.7665 149.856 24.0431 150.07 25.3197C150.425 27.4474 150.852 29.3624 151.279 30.9936C151.35 30.9936 151.421 30.9936 151.492 30.9936C151.705 30.9936 151.919 30.9936 152.061 30.9936C152.417 30.9936 152.772 30.9936 153.128 30.9936C153.483 30.9936 153.839 30.9936 154.195 30.9936C154.479 30.9936 154.693 30.9936 154.906 30.9936Z" fill="#0063CB"/>
<path d="M155.262 23.0502C155.262 24.2559 154.266 25.2488 153.057 25.2488C151.848 25.2488 150.852 24.2559 150.852 23.0502V19.7877C150.852 18.582 151.848 17.5891 153.057 17.5891C154.266 17.5891 155.262 18.582 155.262 19.7877V23.0502Z" fill="#F2EFDC"/>
<path d="M153.057 17.5891C151.848 17.5891 150.852 18.582 150.852 19.7877V21.0643L154.55 24.7523C155.048 24.3268 155.333 23.7594 155.333 23.1211V19.8586C155.262 18.582 154.266 17.5891 153.057 17.5891Z" fill="#C0BEAE"/>
<path d="M160.24 18.0855C160.525 18.9366 159.813 19.7168 158.533 19.7877C154.906 20.0005 151.207 20.0005 147.58 19.7877C146.371 19.7168 145.589 18.9366 145.873 18.0855C146.727 15.5323 147.58 12.979 148.363 10.4258C148.647 9.57472 149.429 8.93641 150.07 9.00733C152.061 9.14918 152.488 8.15625 154.479 8.0144C155.119 8.0144 157.395 9.29103 157.68 10.4258C158.604 13.05 159.387 15.6032 160.24 18.0855Z" fill="#2C5871"/>
<path d="M156.684 9.07826C155.902 8.43995 154.977 8.0144 154.55 8.0144C152.559 8.15625 152.132 9.07826 150.141 9.00733C149.927 9.00733 149.714 9.07826 149.501 9.14918C149.074 12.2698 148.718 15.3904 148.291 18.5111C148.22 18.9366 148.22 19.3622 148.291 19.7877C151.492 19.9296 154.693 19.9296 157.822 19.7877C157.893 19.3622 157.893 18.9366 157.822 18.5111C157.466 15.3904 157.111 12.2698 156.684 9.07826Z" fill="#0E303F"/>
<path d="M156.826 16.0997C156.186 19.8586 154.55 21.5608 152.772 21.5608C150.994 21.5608 149.429 19.7877 148.718 16.0997C148.078 12.1989 150.283 9.64564 152.772 9.78748C155.262 9.64564 157.537 12.1989 156.826 16.0997Z" fill="#F2EFDC"/>
<path d="M148.86 10.9223C148.078 12.057 147.651 13.3337 147.794 14.4684C149.145 14.3975 150.354 13.5464 151.065 12.3407C151.919 11.206 152.132 9.78749 151.634 8.51086C150.639 8.86548 149.643 9.78749 148.86 10.9223Z" fill="#2C5871"/>
<path d="M152.843 9.78748C152.772 9.78748 152.63 9.78748 152.559 9.78748V21.5608C152.63 21.5608 152.772 21.5608 152.843 21.5608C154.621 21.5608 156.186 19.7877 156.897 16.0997C157.537 12.1989 155.262 9.64564 152.843 9.78748Z" fill="#DCDAC8"/>
<path d="M152.914 14.0429C154.764 14.823 156.755 14.823 158.533 13.7592C158.462 10.9932 157.253 8.93638 155.333 8.29807C153.555 7.37607 151.279 7.87253 149.216 9.71654C149.714 11.7733 151.136 13.2627 152.914 14.0429Z" fill="#2C5871"/>
<path d="M153.199 28.0857L153.27 25.3907L152.061 23.9722L150.781 21.9863L150.994 24.6814L152.132 25.2488L153.199 28.0857Z" fill="#1D7074"/>
<path d="M150.781 21.5608L152.061 23.9722L150.567 25.1779L150.354 21.7026L150.781 21.0643V21.5608Z" fill="#00939B"/>
<path d="M153.057 27.3056L153.199 25.3197L153.981 23.8303L155.19 21.9154L154.977 24.5396L153.341 25.3907L153.057 27.3056Z" fill="#1D7074"/>
<path d="M155.262 21.5608L153.981 23.9013L155.475 25.1779L155.688 21.7026L155.262 21.0643V21.5608Z" fill="#00939B"/>
<path d="M167.068 50.2848C167.068 57.9445 160.88 64.1149 153.199 64.1149C145.518 64.1149 139.33 57.8736 139.33 50.2848C139.33 42.625 145.518 36.4547 153.199 36.4547C160.88 36.3838 167.068 42.625 167.068 50.2848Z" fill="#82D8DC"/>
<path d="M153.199 65.1787C156.755 65.1787 160.098 64.5404 163.085 63.4056L162.374 56.4551C162.303 55.604 161.022 54.8948 159.458 54.8239C155.262 53.9728 151.065 53.9728 146.869 54.8239C145.304 54.9657 144.095 55.604 143.953 56.4551L143.242 63.4056C146.229 64.5404 149.572 65.1787 153.199 65.1787Z" fill="#7EB3FF"/>
<path d="M155.902 55.604C155.902 57.0225 154.764 58.2282 153.27 58.2282C151.848 58.2282 150.638 57.0934 150.638 55.604V52.9089C150.638 51.4905 151.776 50.2848 153.27 50.2848C154.693 50.2848 155.902 51.4195 155.902 52.9089V55.604Z" fill="#DCDAC8"/>
<path d="M155.048 57.2353C155.119 57.3062 155.119 57.3062 155.19 57.3771C155.617 56.8806 155.902 56.3133 155.902 55.604V52.9089C155.902 51.4905 154.764 50.2848 153.27 50.2848C151.848 50.2848 150.71 51.4195 150.638 52.838L155.048 57.2353Z" fill="#C0BEAE"/>
<path d="M149.429 49.0791C149.643 50.1429 149.501 50.8521 149.216 50.9231C148.932 50.994 148.576 50.4975 148.22 49.4337C147.936 48.3698 147.936 47.3769 148.363 47.306C148.789 47.1641 149.287 48.0152 149.429 49.0791Z" fill="#DCDAC8"/>
<path d="M156.826 49.2209C156.755 50.2848 156.897 50.994 157.182 51.0649C157.466 51.1358 157.822 50.5685 158.035 49.5046C158.249 48.4408 158.106 47.4478 157.68 47.3769C157.253 47.306 156.897 48.1571 156.826 49.2209Z" fill="#DCDAC8"/>
<path d="M153.199 42.1286C150.567 41.9158 148.078 44.9655 148.86 49.5755C149.074 50.9231 149.429 52.0579 149.785 53.0508C150.141 53.5473 150.567 53.6182 151.208 52.0579C151.421 51.7032 152.274 51.3486 153.057 51.3486C153.128 51.3486 153.128 51.3486 153.199 51.3486C154.052 51.3486 154.906 51.7032 155.048 52.0579C155.688 53.6182 156.186 53.5473 156.471 53.0508C156.897 52.1288 157.182 50.994 157.395 49.5755C158.249 45.0364 155.83 41.9867 153.199 42.1286Z" fill="#F2EFDC"/>
<path d="M153.27 42.1286V51.3486C154.052 51.3486 154.906 51.7032 155.119 52.0579C155.759 53.6182 156.257 53.5472 156.542 53.0508C156.968 52.1288 157.253 50.994 157.466 49.5755C158.249 45.1073 155.902 42.0576 153.27 42.1286Z" fill="#DCDAC8"/>
<path d="M157.609 49.4337C157.609 49.6465 157.537 49.8592 157.537 50.072C157.324 50.994 156.968 51.7742 156.613 52.4125C156.257 52.7671 155.83 52.838 155.19 51.7032C154.977 51.4195 154.124 51.2068 153.341 51.2068C153.27 51.2068 153.27 51.2068 153.199 51.2068C152.417 51.2068 151.563 51.4195 151.35 51.7032C150.71 52.7671 150.283 52.7671 149.927 52.4125C149.501 51.7742 149.216 50.994 149.003 50.072C148.932 49.8592 148.932 49.6465 148.932 49.4337C148.718 50.0011 148.647 50.7103 148.86 51.4905C149.572 54.1146 149.572 55.4622 153.341 55.3913C157.324 55.3203 157.04 54.1856 157.822 51.4905C157.822 50.7103 157.822 50.0011 157.609 49.4337Z" fill="#2C5871"/>
<path d="M157.466 50.0011C157.253 50.9231 156.897 51.7032 156.542 52.3415C156.186 52.6962 155.759 52.7671 155.119 51.6323C154.906 51.4195 154.195 51.2068 153.412 51.1358V55.3203C157.182 55.1785 156.897 54.0437 157.609 51.4195C157.822 50.6394 157.751 50.0011 157.537 49.3628C157.537 49.5755 157.537 49.7883 157.466 50.0011Z" fill="#0E303F"/>
<path d="M154.124 52.1997H152.203C152.203 52.1997 151.848 53.0508 151.919 53.1926C151.99 53.4054 152.203 53.4054 152.417 53.0508C152.488 52.9089 152.559 52.838 152.63 52.7671C152.701 52.7671 152.772 52.7671 152.843 52.7671H153.555C153.626 52.7671 153.697 52.7671 153.768 52.7671C153.839 52.838 153.91 52.9799 153.981 53.0508C154.195 53.4054 154.408 53.4054 154.479 53.1926C154.479 53.0508 154.195 52.3416 154.124 52.1997Z" fill="#F2EFDC"/>
<path d="M146.798 63.7602C146.656 61.8453 146.229 60.1431 145.518 58.9374C145.66 59.7176 145.731 60.4978 145.731 61.3488C145.731 62.129 145.66 62.8382 145.589 63.5475C146.016 63.6184 146.442 63.6893 146.798 63.7602Z" fill="#8FC4D7"/>
<path d="M148.932 54.4692C147.722 54.6111 146.513 54.7529 145.304 55.0366C143.74 55.1785 142.53 55.8168 142.459 56.5969L141.962 62.8382C144.451 63.6184 147.225 64.0439 150.141 64.1148L148.932 54.4692Z" fill="white"/>
<path d="M150.994 65.4624L149.287 54.5402C148.434 54.6111 147.936 54.682 147.082 54.8239C146.869 55.7459 146.229 57.4481 146.229 57.4481C146.229 57.4481 148.647 58.0154 148.718 58.2282C148.789 58.441 146.584 59.1502 146.584 59.1502L147.509 64.895C148.789 65.1078 147.58 65.6043 148.932 65.6043C148.932 65.6752 150.354 65.817 150.994 65.4624Z" fill="#D1ECFB"/>
<path d="M150.852 65.7461L149.501 54.3274C148.647 54.3983 147.936 54.6111 147.082 54.753C146.869 55.675 146.371 57.3062 146.371 57.3062C146.371 57.3062 148.789 57.8736 148.86 58.0864C148.932 58.2991 146.727 59.363 146.727 59.363L147.651 64.8241C148.932 65.0369 147.722 65.5333 149.074 65.5333C149.145 65.4624 150.283 66.1716 150.852 65.7461Z" fill="white"/>
<path d="M157.609 54.2565C158.818 54.3274 160.027 54.4693 161.236 54.682C162.801 54.753 164.01 55.3913 164.081 56.1714L164.792 62.4127C162.303 63.2638 159.529 63.7602 156.613 63.973L157.609 54.2565Z" fill="white"/>
<path d="M155.688 65.1787L157.395 54.2565C158.249 54.3274 158.747 54.3983 159.6 54.5402C159.813 55.4622 160.453 57.1644 160.453 57.1644C160.453 57.1644 158.035 57.7317 157.964 57.9445C157.893 58.1573 160.098 58.8665 160.098 58.8665L159.173 64.6113C157.893 64.8241 159.102 65.3206 157.751 65.3206C157.751 65.3915 156.257 65.5333 155.688 65.1787Z" fill="#D1ECFB"/>
<path d="M155.759 65.4624L157.111 54.0437C157.964 54.1146 158.675 54.3274 159.529 54.4692C159.742 55.3913 160.24 57.0225 160.24 57.0225C160.24 57.0225 157.822 57.5899 157.751 57.8027C157.68 58.0154 159.885 59.0793 159.885 59.0793L158.96 64.5404C157.68 64.7532 158.889 65.2496 157.537 65.2496C157.466 65.1787 156.399 65.8879 155.759 65.4624Z" fill="white"/>
<path d="M153.199 97.5198C160.859 97.5198 167.068 91.3279 167.068 83.6898C167.068 76.0516 160.859 69.8597 153.199 69.8597C145.539 69.8597 139.33 76.0516 139.33 83.6898C139.33 91.3279 145.539 97.5198 153.199 97.5198Z" fill="#82D8DC"/>
<path d="M148.078 83.5479C148.078 84.0444 148.434 84.4699 148.86 84.4699H149.074C149.501 84.4699 149.856 84.0444 149.856 83.5479V81.4202C149.856 80.9237 149.501 80.4982 149.074 80.4982H148.86C148.434 80.4982 148.078 80.9237 148.078 81.4202V83.5479Z" fill="white"/>
<path d="M142.459 93.7609L144.878 88.6544L153.697 87.0941L161.947 88.5126L164.934 92.4134L162.374 95.3212L154.266 98.9383L143.668 95.9595L142.459 93.7609Z" fill="white"/>
<path d="M150.212 88.6544L152.274 98.4419L155.333 98.8674L155.475 95.7468L155.688 91.5623L156.755 87.5196L150.212 88.6544Z" fill="#00C6CE"/>
<path d="M156.755 87.165L155.048 92.768L154.479 99.0801L156.328 99.0092L157.822 93.619L156.399 92.0587L158.533 91.1367L157.466 87.7324L156.755 87.165Z" fill="#D1ECFB"/>
<path d="M152.559 91.3495L151.848 89.5764L152.559 88.9381H153.981L154.693 89.5764L153.981 91.3495H152.559Z" fill="#0063CB"/>
<path d="M152.559 91.3495L151.848 99.1511L152.559 101.988H153.981L154.693 99.1511L153.981 91.3495H152.559Z" fill="#0063CB"/>
<path d="M150.496 87.5905L151.634 93.2644L152.061 99.3639L149.785 99.1511L148.789 93.3354L150.283 92.0587L148.434 90.4275L149.287 88.0161L150.496 87.5905Z" fill="#D1ECFB"/>
<path d="M157.324 85.8884C157.537 87.9452 155.546 89.7892 152.843 89.7892C150.141 89.7892 148.149 87.9452 148.363 85.8884C148.505 84.1153 148.647 82.3422 148.789 80.5691C149.003 78.5123 150.781 77.0229 152.772 77.0229C154.764 77.0229 156.542 78.5123 156.755 80.5691C157.04 82.3422 157.182 84.1153 157.324 85.8884Z" fill="#F2EFDC"/>
<path d="M157.324 85.8884C157.182 84.1153 157.04 82.3422 156.897 80.5691C156.684 78.5123 154.906 77.0229 152.914 77.0229V89.7892C155.546 89.7892 157.537 87.9452 157.324 85.8884Z" fill="#DCDAC8"/>
<path d="M154.337 89.1509C154.337 89.7182 153.697 90.2147 152.914 90.2147C152.132 90.2147 151.492 89.7182 151.492 89.1509C151.492 88.5835 152.132 88.087 152.914 88.087C153.697 88.087 154.337 88.5835 154.337 89.1509Z" fill="#F2EFDC"/>
<path d="M154.337 88.9381C154.337 89.4346 153.839 89.7892 153.199 89.7892C152.559 89.7892 152.061 89.4346 152.061 88.9381C152.061 88.4416 152.559 88.087 153.199 88.087C153.839 88.087 154.337 88.5126 154.337 88.9381Z" fill="#DCDAC8"/>
<path d="M153.199 82.555C152.132 82.8387 151.35 84.1862 151.35 85.8175C151.35 86.0302 151.35 86.1721 151.35 86.3849H153.128V82.555H153.199Z" fill="#DCDAC8"/>
<path d="M157.182 80.4273H156.968C156.542 80.4273 156.186 80.8528 156.186 81.3493C156.186 81.3493 156.897 82.4841 156.897 82.9805V84.4699H156.968H157.182C157.609 84.4699 157.964 84.0444 157.964 83.5479V81.4202C157.964 80.8528 157.609 80.4273 157.182 80.4273Z" fill="white"/>
<path d="M187.409 17.0217H172.118V18.8657H187.409V17.0217Z" fill="#82D8DC"/>
<path d="M204.55 17.0217H189.614V18.8657H204.55V17.0217Z" fill="#82D8DC"/>
<path d="M200.78 21.0643H172.118V22.9083H200.78V21.0643Z" fill="#82D8DC"/>
<path d="M221.833 17.0217H206.897V18.8657H221.833V17.0217Z" fill="#82D8DC"/>
<path d="M219.841 21.0643H202.843V22.9083H219.841V21.0643Z" fill="#82D8DC"/>
<path d="M196.797 10.0002H172.118V12.7663H196.797V10.0002Z" fill="#82D8DC"/>
<path d="M216.641 10.0002H198.86V12.7663H216.641V10.0002Z" fill="#82D8DC"/>
<path d="M187.409 49.6465H172.118V51.4905H187.409V49.6465Z" fill="#82D8DC"/>
<path d="M204.55 49.6465H189.614V51.4905H204.55V49.6465Z" fill="#82D8DC"/>
<path d="M200.78 53.6891H172.118V55.5331H200.78V53.6891Z" fill="#82D8DC"/>
<path d="M221.833 49.6465H206.897V51.4905H221.833V49.6465Z" fill="#82D8DC"/>
<path d="M219.841 53.6891H202.843V55.5331H219.841V53.6891Z" fill="#82D8DC"/>
<path d="M196.797 42.6251H172.118V45.3911H196.797V42.6251Z" fill="#82D8DC"/>
<path d="M216.641 42.6251H198.86V45.3911H216.641V42.6251Z" fill="#82D8DC"/>
<path d="M187.409 115.747H172.118V117.591H187.409V115.747Z" fill="#82D8DC"/>
<path d="M204.55 115.747H189.614V117.591H204.55V115.747Z" fill="#82D8DC"/>
<path d="M200.78 119.79H172.118V121.634H200.78V119.79Z" fill="#82D8DC"/>
<path d="M221.833 115.747H206.897V117.591H221.833V115.747Z" fill="#82D8DC"/>
<path d="M219.841 119.79H202.843V121.634H219.841V119.79Z" fill="#82D8DC"/>
<path d="M196.797 108.726H172.118V111.492H196.797V108.726Z" fill="#82D8DC"/>
<path d="M216.641 108.726H198.86V111.492H216.641V108.726Z" fill="#82D8DC"/>
<path d="M185.489 84.399H172.118V86.243H185.489V84.399Z" fill="#82D8DC"/>
<path d="M200.567 84.399H187.48V86.243H200.567V84.399Z" fill="#82D8DC"/>
<path d="M197.224 88.4417H172.118V90.2857H197.224V88.4417Z" fill="#82D8DC"/>
<path d="M215.716 84.399H202.629V86.243H215.716V84.399Z" fill="#82D8DC"/>
<path d="M214.009 88.4417H199.073V90.2857H214.009V88.4417Z" fill="#82D8DC"/>
<path d="M193.739 77.3776H172.118V80.1436H193.739V77.3776Z" fill="#82D8DC"/>
<path d="M211.235 77.3776H195.588V80.1436H211.235V77.3776Z" fill="#82D8DC"/>
<path d="M167.068 115.96C167.068 123.549 160.88 129.719 153.27 129.719C145.66 129.719 139.472 123.549 139.472 115.96C139.472 108.371 145.66 102.201 153.27 102.201C160.88 102.201 167.068 108.371 167.068 115.96Z" fill="#82D8DC"/>
<path d="M157.964 117.166C157.964 117.875 157.609 118.442 157.111 118.442C156.613 118.442 156.257 117.875 156.257 117.166V115.889C156.257 115.18 156.613 114.612 157.111 114.612C157.609 114.612 157.964 115.18 157.964 115.889V117.166Z" fill="#2C5871"/>
<path d="M153.341 129.719C157.182 129.719 160.667 128.159 163.227 125.606C161.591 123.832 157.822 122.627 153.341 122.627C148.932 122.627 145.091 123.832 143.455 125.606C145.873 128.088 149.429 129.719 153.341 129.719Z" fill="#82D8DC"/>
<path d="M156.328 123.336C156.471 125.038 155.119 126.457 153.27 126.457C151.492 126.457 150.07 124.967 150.212 123.336C150.283 122.272 150.354 121.137 150.425 120.074C150.567 118.371 151.848 117.166 153.27 117.166C154.693 117.166 155.973 118.442 156.115 120.074C156.257 121.137 156.257 122.272 156.328 123.336Z" fill="#2C5871"/>
<path d="M156.328 121.35C156.471 123.052 155.119 124.471 153.27 124.471C151.492 124.471 150.07 122.981 150.212 121.35C150.283 120.286 150.354 119.152 150.425 118.088C150.567 116.386 151.848 115.18 153.27 115.18C154.693 115.18 155.973 116.456 156.115 118.088C156.257 119.152 156.257 120.286 156.328 121.35Z" fill="#0E303F"/>
<path d="M156.186 120.074C156.044 118.442 154.835 117.166 153.341 117.166C153.341 117.237 153.341 117.307 153.341 117.378V125.96C153.341 126.173 153.341 126.386 153.412 126.528C155.19 126.528 156.542 125.038 156.399 123.407C156.257 122.272 156.257 121.137 156.186 120.074Z" fill="#0E303F"/>
<path d="M150.07 117.166C150.07 117.875 149.714 118.442 149.216 118.442C148.718 118.442 148.363 117.875 148.363 117.166V115.889C148.363 115.18 148.718 114.612 149.216 114.612C149.714 114.612 150.07 115.18 150.07 115.889V117.166Z" fill="#2C5871"/>
<path d="M148.789 116.669C148.789 117.166 149.145 117.52 149.572 117.52C149.998 117.52 150.354 117.166 150.354 116.669V114.471C150.354 113.974 149.998 113.619 149.572 113.619C149.145 113.619 148.789 113.974 148.789 114.471V116.669Z" fill="#0E303F"/>
<path d="M156.328 116.669C156.328 117.166 156.684 117.52 157.111 117.52C157.537 117.52 157.893 117.166 157.893 116.669V114.471C157.893 113.974 157.537 113.619 157.111 113.619C156.684 113.619 156.328 113.974 156.328 114.471V116.669Z" fill="#0E303F"/>
<path d="M158.462 112.697C158.462 115.747 156.115 118.229 153.27 118.229C150.425 118.229 148.078 115.747 148.078 112.697C148.078 109.648 150.425 107.165 153.27 107.165C156.186 107.165 158.462 109.648 158.462 112.697Z" fill="#0E303F"/>
<path d="M157.609 119.152C157.751 121.492 155.83 123.549 153.341 123.549C150.781 123.549 148.86 121.492 149.074 119.152C149.145 117.591 149.287 116.102 149.358 114.541C149.501 112.201 151.35 110.428 153.341 110.428C155.404 110.428 157.182 112.201 157.324 114.541C157.395 116.102 157.537 117.591 157.609 119.152Z" fill="#2C5871"/>
<path d="M157.324 114.541C157.182 112.201 155.404 110.428 153.341 110.428C153.341 110.499 153.341 110.57 153.341 110.712V122.698C153.341 122.981 153.341 123.265 153.412 123.549C155.902 123.478 157.822 121.492 157.609 119.152C157.537 117.591 157.395 116.102 157.324 114.541Z" fill="#24495D"/>
<path d="M157.04 122.698C158.249 122.84 159.458 122.981 160.596 123.265C162.089 123.407 163.298 124.045 163.37 124.825L163.867 130.996C161.378 131.776 158.604 132.201 155.759 132.272L157.04 122.698Z" fill="white"/>
<path d="M155.048 133.55L156.755 122.699C157.609 122.77 158.106 122.841 158.96 122.982C159.173 123.904 159.813 125.607 159.813 125.607C159.813 125.607 157.395 126.174 157.324 126.387C157.253 126.599 159.458 127.309 159.458 127.309L158.533 133.054C157.324 133.266 158.462 133.763 157.111 133.763C157.04 133.763 155.617 133.976 155.048 133.55Z" fill="#A6DAE9"/>
<path d="M155.12 133.904L156.471 122.556C157.324 122.627 158.036 122.84 158.818 122.91C159.031 123.832 159.529 125.393 159.529 125.393C159.529 125.393 157.111 125.96 157.04 126.173C156.969 126.386 159.174 127.45 159.174 127.45L158.249 132.84C157.04 133.053 158.178 133.549 156.826 133.549C156.826 133.549 155.688 134.258 155.12 133.904Z" fill="white"/>
<path d="M149.714 122.699C148.505 122.841 147.296 122.982 146.158 123.266C144.664 123.408 143.455 124.046 143.384 124.826L142.886 130.997C145.375 131.777 148.149 132.202 150.994 132.273L149.714 122.699Z" fill="white"/>
<path d="M151.705 133.549L149.998 122.698C149.145 122.769 148.647 122.84 147.794 122.981C147.58 123.903 146.94 125.606 146.94 125.606C146.94 125.606 149.358 126.173 149.429 126.386C149.501 126.598 147.296 127.308 147.296 127.308L148.22 133.053C149.429 133.265 148.291 133.762 149.643 133.762C149.714 133.762 151.136 133.975 151.705 133.549Z" fill="#A6DAE9"/>
<path d="M151.634 133.904L150.283 122.556C149.429 122.627 148.718 122.84 147.936 122.91C147.722 123.832 147.225 125.393 147.225 125.393C147.225 125.393 149.643 125.96 149.714 126.173C149.785 126.386 147.58 127.45 147.58 127.45L148.505 132.84C149.714 133.053 148.576 133.549 149.927 133.549C149.927 133.549 151.065 134.258 151.634 133.904Z" fill="white"/>
<path d="M337.336 281.637L337.763 286.673L338.688 290.857L340.395 291.992L341.675 292.347L342.031 293.056L346.44 295.964C347.649 296.46 349.285 296.744 351.348 296.247C352.059 296.106 351.063 294.191 350.85 293.907C349.427 292.276 347.365 290.503 347.365 290.503L343.951 286.247L340.039 280.928L337.336 281.637Z" fill="#161711"/>
<path d="M297.934 276.176L299.072 278.162L299.641 280.432L299.57 284.049L297.579 284.332L296.085 284.049L295.089 284.758C295.089 284.758 289.542 285.893 287.408 285.964C283.923 286.105 282.074 285.751 281.363 285.042C281.007 284.687 282.572 283.907 283.141 283.836C286.199 283.339 289.471 281.354 289.471 281.354L292.031 278.517L292.529 276.46L297.934 276.176Z" fill="#161711"/>
<path d="M313.51 166.387L345.373 286.105L337.265 286.602L321.76 248.516L318.062 237.026L299.641 191.99L296.085 167.238L313.51 166.387Z" fill="#1D7074"/>
<path d="M299.499 276.531L297.223 230.501L299.214 209.437L301.633 180.5L297.934 161.138L285.274 163.124L283.852 194.33L284.634 223.976L285.274 235.111L290.04 279.013L299.499 276.531Z" fill="#1D7074"/>
<path d="M318.56 180.217L323.112 178.018L323.681 177.522L323.112 176.458L322.116 176.529L322.472 173.692L317.849 172.628L315.573 171.422L317.351 179.295" fill="#E9D6B8"/>
<path d="M332.713 152.556L315.715 171.067C315.715 171.067 316.142 173.904 317.493 172.486C317.635 172.344 316.924 171.706 317.92 171.209C321.974 169.294 331.362 166.528 334.918 163.408C339.612 159.365 343.097 154.4 343.097 154.4L332.713 152.556Z" fill="#E9D6B8"/>
<path d="M264.791 116.244C264.791 116.244 257.465 114.4 249.002 103.123C246.157 99.2929 247.437 103.336 247.721 107.946C248.006 112.556 255.901 120.286 265.075 123.336C274.25 126.457 264.791 116.244 264.791 116.244Z" fill="#E9D6B8"/>
<path d="M249.571 106.031C249.571 106.031 251.278 101.208 250.637 99.9312C249.926 98.6546 247.152 94.2573 247.152 94.2573L246.37 93.1935C246.37 93.1935 244.805 93.5481 246.655 96.456C248.575 99.4348 246.868 98.5128 246.868 98.5128L244.165 96.5269L240.68 94.3992L239.258 93.2644C239.258 93.2644 238.475 92.5552 238.191 92.5552C237.266 92.5552 237.622 93.3353 237.622 93.3353L242.814 98.3709L236.84 95.1084C236.84 95.1084 235.986 94.8247 235.702 95.1793C235.417 95.534 235.702 95.6758 235.702 95.6758L241.605 101.066L238.333 99.7894C238.333 99.7894 237.551 99.5766 237.195 99.9312C236.84 100.357 236.768 100.428 236.768 100.428L248.646 107.236L249.571 106.031Z" fill="#E9D6B8"/>
<path d="M251.494 104.855L246.21 108.331L248.991 112.534L254.275 109.058L251.494 104.855Z" fill="#E7F5FE"/>
<path d="M323.899 161.979L319.337 166.354L323.281 170.444L327.843 166.069L323.899 161.979Z" fill="#E7F5FE"/>
<path d="M241.889 99.222L237.551 97.2361C237.551 97.2361 236.626 96.6688 236.057 96.6688C235.417 96.6688 235.417 97.3071 235.417 97.3071L241.605 100.995L241.889 99.222Z" fill="#E9D6B8"/>
<path d="M301.988 109.293C301.988 109.293 302.557 113.194 287.692 127.946C279.371 136.173 274.392 141.492 269.485 139.861C261.092 137.095 245.659 114.045 245.659 114.045L253.482 105.747C253.482 105.747 266 120.499 271.619 120.357C272.97 120.357 281.505 113.549 289.613 103.548C293.027 99.2929 301.064 108.158 301.988 109.293Z" fill="#D1DBEA"/>
<path d="M283.212 195.962L287.195 203.621L288.759 183.692L293.951 201.848L323.894 197.806C323.894 197.806 317.991 168.372 315.146 156.315L324.748 126.031C324.748 126.031 332.927 104.683 319.556 103.69C306.184 102.697 290.822 101.846 290.822 101.846C290.822 101.846 275.104 156.954 283.212 195.962Z" fill="#DBE7F3"/>
<path d="M303.197 107.662C303.197 107.662 293.809 129.01 299.57 150.854C299.997 152.556 302.273 153.62 302.273 153.62L304.833 150.783C304.904 150.783 301.846 125.676 303.197 107.662Z" fill="#00939B"/>
<path d="M303.695 107.094L304.406 111.634L312.443 104.825L312.514 103.69L303.695 107.094Z" fill="#D1DBEA"/>
<path d="M302.273 102.768L299.712 111.066L302.699 107.733L302.273 102.768Z" fill="#D1DBEA"/>
<path d="M323.681 125.393L331.078 150.996L320.622 164.472C320.622 164.472 324.748 170.571 326.455 169.862C338.332 164.897 347.72 147.946 347.72 147.946L336.981 113.123C336.981 113.123 332.5 105.676 321.689 103.903C313.866 102.626 323.183 123.265 323.681 125.393Z" fill="#DBE7F3"/>
<path d="M313.795 98.3709C313.439 99.7185 312.799 101.846 312.159 103.052C311.163 104.967 303.482 107.024 302.273 107.236C301.064 107.449 302.913 101.421 302.984 100.002C303.055 98.9383 303.695 99.2929 302.984 97.7326L313.795 98.3709Z" fill="#E9D6B8"/>
<path d="M302.486 102.272L300.21 108.655L297.223 132.982L293.027 113.832L296.512 110.499L294.663 107.449L298.788 102.414L302.486 102.272Z" fill="#E7F5FE"/>
<path d="M288.902 169.223L292.813 180.997L315.999 186.458C315.999 186.458 318.062 168.372 315.217 156.315L324.819 126.031C324.819 126.031 332.998 104.683 319.627 103.69C317.778 103.548 315.857 103.406 313.937 103.265C311.234 103.052 306.184 110.783 304.975 113.052C303.695 115.463 295.232 137.024 295.232 137.024L288.902 169.223Z" fill="url(#paint0_linear)"/>
<path d="M313.083 102.839L318.204 103.123L313.937 110.428L308.887 113.407V119.151L295.658 137.946L304.335 113.194L313.083 102.839Z" fill="#D1DBEA"/>
<path d="M313.083 102.839L318.204 103.123L313.937 110.073L308.887 112.981L308.958 118.442L295.801 136.386L304.335 112.697L313.083 102.839Z" fill="#E7F5FE"/>
<path d="M302.344 107.236L303.695 107.094L303.553 110.428L302.557 111.35L301.206 110.782L302.344 107.236Z" fill="#00939B"/>
<path d="M297.01 171.28L309.029 171.706L311.234 185.11H303.268C303.268 185.11 299.072 185.11 298.361 181.564C297.65 178.018 297.01 171.28 297.01 171.28Z" fill="#E7F5FE"/>
<path d="M281.078 182.273L283.994 182.628L284.776 171.848L280.651 171.422C280.58 174.968 280.722 178.585 281.078 182.273Z" fill="#E7F5FE"/>
<path d="M293.311 141.918C293.311 141.918 288.404 153.904 288.475 172.77C288.475 172.77 291.675 159.932 292.813 156.244C296.654 143.833 300.281 141.634 305.189 136.457C311.376 129.932 298.148 130.712 293.311 141.918Z" fill="#D1DBEA"/>
<path d="M312.159 124.684C312.586 122.981 314.364 120.925 315.857 121.066L316.284 121.137C317.778 121.279 318.56 122.769 318.204 124.471" stroke="#1B5E8F" stroke-width="1.7562" stroke-miterlimit="10"/>
<path d="M311.732 112.839L310.381 118.159C309.527 121.492 306.256 123.903 303.126 123.62L299.855 123.265C296.725 122.981 294.876 120.003 295.729 116.669L297.081 111.35" stroke="#1B5E8F" stroke-width="1.784" stroke-miterlimit="10"/>
<path d="M302.984 101.421C301.277 101.279 299.428 102.626 299.001 104.399L296.014 116.031" stroke="#1B5E8F" stroke-width="1.1893" stroke-miterlimit="10"/>
<path d="M302.984 101.421C302.557 101.35 302.059 101.421 301.633 101.562" stroke="#1B5E8F" stroke-width="1.784" stroke-miterlimit="10"/>
<path d="M311.305 102.272C313.012 102.414 314.079 104.045 313.581 105.889L310.523 117.52" stroke="#1B5E8F" stroke-width="1.1893" stroke-miterlimit="10"/>
<path d="M311.305 102.272C311.732 102.343 312.159 102.484 312.443 102.697" stroke="#1B5E8F" stroke-width="1.784" stroke-miterlimit="10"/>
<path d="M301.064 95.463C300.779 96.6687 301.561 97.8035 302.771 98.0872L312.443 100.215C313.652 100.499 314.79 99.7184 315.075 98.5127L318.204 84.2571C318.489 83.0514 317.706 81.9166 316.497 81.633L306.825 79.5762C305.615 79.2925 304.477 80.0726 304.193 81.2783L301.064 95.463Z" fill="#E9D6B8"/>
<path d="M303.482 84.1862C303.482 84.1862 302.486 82.5549 302.415 81.6329C302.415 81.2074 303.126 79.6471 304.335 79.2215C305.544 78.8669 306.184 80.2145 306.184 80.2145C306.184 80.2145 304.264 80.7819 304.122 81.1365C303.98 81.4202 303.482 84.1862 303.482 84.1862Z" fill="#163F59"/>
<path d="M317.706 90.853C317.706 90.853 320.338 85.6756 320.48 84.0444C320.551 82.3422 320.622 81.2074 318.702 80.64C315.786 79.718 315.644 80.3563 314.435 79.1506C313.226 77.9449 311.092 75.2498 310.238 74.8243C308.816 74.1151 306.398 74.1151 305.758 76.8811C305.26 78.9379 303.837 79.1506 303.837 79.2215C303.909 79.5052 304.406 79.8599 305.189 80.4982C307.607 82.4131 309.101 83.0514 311.305 82.9096C313.51 82.8387 317.564 82.484 317.706 84.1153C317.849 85.7465 316.64 90.3566 316.711 90.7112C316.782 91.1367 317.28 91.0658 317.706 90.853Z" fill="#194866"/>
<path d="M313.724 94.541C313.652 94.9666 313.866 95.3212 314.292 95.3921L316.355 95.8176C316.782 95.8886 317.137 95.6758 317.209 95.2503L318.062 91.4204C318.133 90.9948 317.92 90.6402 317.493 90.5693L315.43 90.1438C315.004 90.0728 314.648 90.2856 314.577 90.7111L313.724 94.541Z" fill="#E9D6B8"/>
<path d="M301.277 91.775C301.206 92.2005 301.419 92.5552 301.846 92.6261L303.909 93.0516C304.335 93.1225 304.691 92.9098 304.762 92.4842L305.615 88.6544C305.687 88.2288 305.473 87.8742 305.046 87.8033L302.984 87.3778C302.557 87.3068 302.202 87.5196 302.13 87.9451L301.277 91.775Z" fill="#E9D6B8"/>
<path d="M316.497 91.9169C316.497 91.9169 315.288 97.5198 314.861 99.4348C314.506 101.137 313.012 104.683 303.411 102.626C297.721 101.421 298.859 97.3071 299.143 95.8886C299.357 94.8247 301.206 91.9878 301.988 91.4913L301.49 93.8318C301.49 93.8318 303.197 91.846 305.829 92.4133C310.167 93.3353 310.594 96.1014 312.514 96.456C314.008 96.8106 315.644 94.612 316.497 91.9169Z" fill="#194866"/>
<path d="M306.825 96.5269L303.837 95.8886C303.411 95.8176 303.197 95.3921 303.268 95.0375L303.34 94.6119L307.749 95.6049L307.678 96.0304C307.607 96.3141 307.18 96.5978 306.825 96.5269Z" fill="#E9D6B8"/>
<path d="M310.2 123.441L309.735 126.599L320.079 128.115L320.544 124.957L310.2 123.441Z" fill="#E7F5FE"/>
<path d="M312.586 123.549L311.661 126.173L309.385 132.982C308.674 135.819 305.9 137.875 303.197 137.663L302.415 137.592C299.712 137.308 298.148 134.826 298.859 131.989L301.49 123.194" stroke="#1B5E8F" stroke-width="1.784" stroke-miterlimit="10"/>
<path d="M54.6936 245.112C53.4845 245.112 51.5642 244.828 49.8572 243.339C47.439 241.211 46.3722 237.452 46.7278 232.204C46.9412 228.657 48.3636 225.04 49.8572 221.21C52.3465 214.756 55.1914 207.451 53.6979 197.806L56.4717 197.38C58.1075 207.735 54.9781 215.749 52.4176 222.203C50.9241 225.962 49.6438 229.225 49.4305 232.416C49.146 236.672 49.8572 239.792 51.5642 241.282C53.2 242.7 55.1914 242.346 55.2626 242.346L55.8315 245.112C55.9027 245.041 55.4048 245.112 54.6936 245.112Z" fill="#00939B"/>
<path d="M76.1727 267.24L78.8754 271.353L56.0449 278.729C56.0449 278.729 54.5513 277.24 60.0989 274.332C66.6423 270.928 76.1727 267.24 76.1727 267.24Z" fill="#88BDDA"/>
<path d="M80.2267 267.24L77.5241 271.353L100.426 278.658C100.426 278.658 101.919 277.169 96.3717 274.261C89.7572 270.928 80.2267 267.24 80.2267 267.24Z" fill="#88BDDA"/>
<path d="M80.5823 254.97H75.8171V271.921H80.5823V254.97Z" fill="#88BDDA"/>
<path d="M75.8882 268.162L78.2353 272.134L58.6765 279.084C58.6765 279.084 57.3963 277.665 62.1615 274.899C67.7091 271.637 75.8882 268.162 75.8882 268.162Z" fill="#ACD5F4"/>
<path d="M80.5112 268.162L78.1642 272.134L97.723 279.084C97.723 279.084 99.0032 277.665 94.238 274.899C88.6904 271.637 80.5112 268.162 80.5112 268.162Z" fill="#ACD5F4"/>
<path d="M60.8102 280.644C60.8102 281.566 60.0989 282.276 59.1743 282.276C58.2497 282.276 57.5385 281.566 57.5385 280.644C57.5385 279.722 58.2497 279.013 59.1743 279.013C60.0989 279.013 60.8102 279.722 60.8102 280.644Z" fill="#001F46"/>
<path d="M98.7898 280.644C98.7898 281.566 98.0786 282.276 97.154 282.276C96.2294 282.276 95.5182 281.566 95.5182 280.644C95.5182 279.722 96.2294 279.013 97.154 279.013C98.0786 279.013 98.7898 279.722 98.7898 280.644Z" fill="#001F46"/>
<path d="M56.8273 280.644C56.8273 281.566 56.116 282.276 55.1914 282.276C54.2668 282.276 53.5556 281.566 53.5556 280.644C53.5556 279.722 54.2668 279.013 55.1914 279.013C56.0449 279.013 56.8273 279.722 56.8273 280.644Z" fill="#367082"/>
<path d="M102.773 280.644C102.773 281.566 102.061 282.276 101.137 282.276C100.212 282.276 99.5011 281.566 99.5011 280.644C99.5011 279.722 100.212 279.013 101.137 279.013C102.061 279.013 102.773 279.722 102.773 280.644Z" fill="#367082"/>
<path d="M79.8711 248.729H76.3861V254.828H79.8711V248.729Z" fill="#00939B"/>
<path d="M82.5027 245.466C82.5027 247.31 81.0091 248.871 79.0888 248.871H77.1685C75.3193 248.871 73.7545 247.381 73.7545 245.466C73.7545 243.622 75.2481 242.062 77.1685 242.062H79.0888C81.0091 242.133 82.5027 243.622 82.5027 245.466Z" fill="#00939B"/>
<path d="M104.124 242.417C104.195 241.991 104.266 239.509 104.266 239.083C104.266 236.317 102.488 234.118 100.283 234.118H55.9738C53.769 234.118 51.9909 236.317 51.9909 239.083C51.9909 239.509 52.062 241.991 52.1332 242.417H104.124Z" fill="#82D8DC"/>
<path d="M51.6353 243.764C51.6353 244.615 52.1331 245.253 52.7021 245.253H103.555C104.195 245.253 104.622 244.544 104.622 243.764C104.622 242.913 104.124 242.275 103.555 242.275H52.7021C52.1331 242.204 51.6353 242.913 51.6353 243.764Z" fill="#00939B"/>
<path d="M54.1246 216.884C55.1914 216.955 62.1615 217.097 63.3706 217.097C70.9807 217.168 77.524 215.749 77.8797 213.905C79.3732 206.175 79.4444 198.16 78.093 190.43C77.7374 188.586 71.123 187.167 63.3706 187.238C62.1615 187.238 55.0492 187.38 53.9824 187.451C56.2583 197.167 56.3294 207.238 54.1246 216.884Z" fill="#82D8DC"/>
<path d="M53.0578 187.451C52.2043 187.451 51.6353 187.876 51.7064 188.373C53.8401 197.451 53.9112 206.884 51.9198 216.033C51.7775 216.529 52.4176 216.955 53.2 216.955C54.0535 216.955 54.8358 216.6 54.9069 216.104C56.8984 206.955 56.8273 197.522 54.6936 188.373C54.6936 187.805 53.9112 187.451 53.0578 187.451Z" fill="#00939B"/>
<path d="M52.7021 216.884C52.9155 216.955 54.4091 217.026 54.6936 217.026C56.3294 217.026 58.0364 215.607 58.392 213.763C59.7433 206.104 59.7433 198.302 58.3209 190.642C57.9652 188.798 56.2583 187.38 54.5513 187.38C54.2668 187.38 52.7733 187.451 52.4888 187.522C54.8358 197.167 54.9069 207.238 52.7021 216.884Z" fill="#00939B"/>
<path d="M98.7898 194.756C98.7898 194.756 98.861 196.671 108.249 196.671C117.637 196.671 131.435 194.401 131.435 194.401L109.743 192.345C109.743 192.345 101.421 191.99 98.7898 194.756Z" fill="#E2C59C"/>
<path d="M124.038 195.111C128.519 195.252 130.368 197.522 132.075 198.302C133.853 199.082 135.56 200.146 135.56 200.146C134.636 198.231 133.213 198.089 132.502 197.451C131.791 196.813 132.004 197.096 133.569 197.026C134.494 196.955 135.987 198.657 137.125 199.508C138.121 200.288 138.69 200.359 138.69 200.359C138.69 200.359 137.552 198.728 136.129 197.38C134.422 195.749 132.218 194.401 131.72 194.189C130.795 193.763 127.808 193.621 125.674 193.834C123.327 194.118 120.838 194.969 124.038 195.111Z" fill="#E2C59C"/>
<path d="M131.506 194.33C131.506 194.33 134.92 195.323 135.489 195.749C135.916 196.104 137.552 197.948 137.552 197.948C137.552 197.948 136.272 197.735 135.56 196.955C134.849 196.316 131.506 194.33 131.506 194.33Z" fill="#E2C59C"/>
<path d="M103.057 190.855C103.057 190.855 94.3802 191.068 94.8069 196.245C95.0203 199.153 97.0118 200.217 99.5722 200.146C104.409 199.933 109.956 199.437 109.956 199.437L112.659 191.564L103.057 190.855Z" fill="#D9E6F9"/>
<path d="M101.208 191.493L93.669 164.897C93.669 164.897 92.531 160.996 90.4684 161.635C87.4813 162.557 88.8326 165.748 89.046 167.663C89.4727 171.493 89.046 173.124 91.4642 182.415C92.9578 188.16 94.1668 194.685 95.5182 198.515C96.4428 201.139 98.292 197.522 100.924 196.529C105.831 194.827 101.208 191.493 101.208 191.493Z" fill="#D9E6F9"/>
<path d="M86.5567 156.315C85.2765 162.131 79.3733 165.748 73.4701 164.401C67.5668 163.053 63.7973 157.308 65.0775 151.493C66.3577 145.677 72.261 142.06 78.1642 143.407C84.1385 144.755 87.8369 150.5 86.5567 156.315Z" fill="#282723"/>
<path d="M96.6562 150.358C95.6604 154.826 91.2508 157.592 86.7701 156.599L85.6321 152.344C81.1513 151.351 78.3775 146.954 79.3733 142.485L80.0845 139.436C81.0802 134.967 85.4898 132.201 89.9706 133.194L91.962 133.62C96.4428 134.613 99.2166 139.01 98.2209 143.478L96.6562 150.358Z" fill="#282723"/>
<path d="M96.0872 137.804C95.9449 138.514 95.6604 139.294 95.3759 140.003C93.3845 144.968 89.4016 148.23 85.8454 147.946C85.2053 150.287 84.2807 152.273 83.285 153.904C82.2182 155.819 79.3021 157.45 79.3021 157.45C77.8797 160.925 91.8909 172.557 92.4599 172.273C93.7401 171.635 91.4642 163.266 89.1882 160.642C88.1214 159.436 87.0545 158.018 86.9834 157.167C86.9123 154.33 87.8369 153.691 89.1882 152.344C91.6064 150.5 94.3802 151.138 94.3802 151.138C94.6647 151.209 94.9492 151.138 95.1626 150.996C95.4471 150.5 95.6604 149.932 95.8027 149.365L97.2963 142.698C97.723 140.996 97.2251 139.152 96.0872 137.804Z" fill="#E9D6B8"/>
<path d="M81.6492 211.849C81.6492 211.849 85.2053 215.111 86.2011 215.395C87.5524 215.749 91.3219 214.189 91.3219 214.189C91.3219 214.189 90.2551 197.451 90.6818 190.784C91.0374 184.117 92.6021 182.202 92.4599 180.146C92.1754 176.883 94.8069 175.181 94.0246 172.699C93.2422 170.216 91.2508 161.209 91.1086 162.486C89.9706 173.124 85.8455 164.897 85.0631 163.621C84.6364 162.911 81.6492 211.849 81.6492 211.849Z" fill="#82D8DC"/>
<path d="M89.1171 159.578C89.1171 159.578 93.8823 163.053 93.8112 164.613C93.7401 166.245 96.2294 170.926 95.2337 178.018C94.0957 186.103 93.669 191.564 93.8823 196.742C94.0957 201.919 96.5139 206.387 96.585 212.771C96.6561 217.735 95.5182 218.232 95.5182 218.232C95.5182 218.232 93.3134 219.083 91.4642 217.31C89.615 215.607 89.9706 198.515 90.1839 194.259C90.4684 189.933 91.8198 179.862 92.1043 176.883C92.4599 173.195 91.8909 169.649 91.7486 168.585C91.1085 164.968 90.3262 162.699 89.7572 161.351C89.6861 161.138 88.4059 160.145 88.3347 159.933C87.9791 159.223 88.6904 159.152 89.1171 159.578Z" fill="white"/>
<path d="M83.4272 170.926C82.0759 176.954 75.9593 180.713 69.7716 179.366C63.5839 178.018 59.6722 171.99 61.0235 165.89C62.3748 159.862 68.4914 156.032 74.6791 157.45C80.8668 158.869 84.7786 164.826 83.4272 170.926Z" fill="#282723"/>
<path d="M107.04 269.155L104.906 285.609L114.224 289.864L119.344 290.928L110.17 284.12L113.228 269.297L107.04 269.155Z" fill="#E9D6B8"/>
<path d="M104.337 288.091L106.329 288.588L107.68 287.382L115.077 290.999L121.62 292.489C121.62 292.489 121.691 291.992 121.478 291.708C120.625 290.645 116.073 288.375 116.073 288.375C116.073 288.375 116.002 289.864 115.361 289.935C114.721 290.006 109.032 287.098 107.68 286.318C105.404 284.971 104.978 284.049 104.835 284.191C104.409 284.403 104.337 288.091 104.337 288.091Z" fill="#161711"/>
<path d="M129.444 246.317L136.841 260.289L147.082 259.793L152.132 258.374L140.824 256.53L134.707 244.615L129.444 246.317Z" fill="#E9D6B8"/>
<path d="M137.481 262.772L139.543 262.275L140.183 260.573L149.358 260.431L154.835 259.225C154.835 259.225 154.195 258.516 153.768 258.374C152.559 257.878 148.22 257.665 148.22 257.665C148.22 257.665 148.647 258.871 148.078 259.225C147.509 259.58 141.25 259.793 139.686 259.651C137.054 259.438 136.272 258.871 136.201 259.084C135.845 259.509 137.481 262.772 137.481 262.772Z" fill="#161711"/>
<path d="M75.6037 204.472L81.0802 206.884L83.4984 214.047L118.918 208.231C118.918 208.231 122.545 207.097 124.821 212.771C128.093 220.856 136.414 245.963 136.414 245.963L131.151 251.424L114.65 223.054C114.65 223.054 80.7957 238.87 69.6294 235.466C65.362 234.189 62.0904 226.601 62.6594 219.012C63.1572 213.054 64.3663 207.593 64.3663 207.593L75.6037 204.472Z" fill="#194866"/>
<path d="M80.369 235.253L107.467 233.338L105.12 274.97L113.086 275.254L118.989 226.459C118.989 226.459 117.424 219.225 112.232 220.288C107.04 221.423 94.5225 230.927 80.369 235.253Z" fill="#163F59"/>
<path d="M68.7759 244.19C68.7759 244.19 80.938 227.239 83.5695 218.161C86.6278 207.309 84.6364 194.472 84.9208 190.075C85.4187 182.061 85.2765 166.528 85.4187 164.613C85.561 162.699 84.0674 160.713 84.0674 160.713C84.0674 160.713 82.5738 155.819 79.8 156.174C77.3818 156.528 73.6834 159.791 71.4075 161.351C69.1315 162.84 69.416 191.21 69.2738 192.628C68.8471 197.806 65.5754 202.77 63.4417 207.806C58.392 219.65 58.392 232.913 58.392 232.913C58.392 232.913 60.4545 242.416 68.7759 244.19Z" fill="white"/>
<path d="M76.9551 199.082C76.9551 199.082 77.2396 201.139 88.4059 199.933C99.5722 198.728 115.575 194.401 115.575 194.401L89.6861 195.04C89.6861 195.04 79.8 195.678 76.9551 199.082Z" fill="#E9D6B8"/>
<path d="M106.898 196.104C112.232 195.678 114.65 197.877 116.855 198.444C118.989 199.011 121.194 200.004 121.194 200.004C119.842 198.018 118.135 198.089 117.211 197.522C116.286 196.955 116.571 197.238 118.42 196.955C119.487 196.813 121.478 198.373 122.972 199.224C124.181 199.933 124.963 199.933 124.963 199.933C124.963 199.933 123.47 198.302 121.62 197.026C119.344 195.536 116.642 194.33 116.002 194.118C114.864 193.834 111.307 193.976 108.747 194.472C105.902 195.111 103.057 196.387 106.898 196.104Z" fill="#E9D6B8"/>
<path d="M115.717 194.26C115.717 194.26 119.842 194.898 120.625 195.323C121.122 195.607 123.398 197.451 123.398 197.451C123.398 197.451 121.834 197.38 120.909 196.671C119.913 195.962 115.717 194.26 115.717 194.26Z" fill="#E9D6B8"/>
<path d="M85.2765 199.579L71.123 194.543C71.123 194.543 72.1187 202.699 72.4032 205.82C72.7588 208.941 71.9053 213.551 74.5369 213.834C77.1684 214.189 78.4487 213.693 76.0305 215.466C73.5412 217.239 74.3946 218.728 75.5326 219.863C76.6706 220.998 72.9011 233.764 72.9011 233.764C72.9011 233.764 73.2567 233.977 74.3946 234.615C77.8797 229.083 82.2182 222.842 83.5695 218.09C85.3476 211.99 85.4187 205.111 85.2765 199.579Z" fill="#D9E6F9"/>
<path d="M81.5069 194.259L80.2979 168.018C80.2979 168.018 78.8754 162.557 76.8128 161.28C74.3946 159.791 70.9807 162.557 70.9807 162.557C70.9807 162.557 69.2738 166.67 70.4117 185.961C71.1941 198.87 72.4032 205.607 78.5198 204.614C84.2807 203.763 90.7529 202.487 90.7529 202.487L93.0289 193.692L81.5069 194.259Z" fill="white"/>
<path d="M103.626 200.997V199.862H149.856V200.997L149.714 201.21C149.145 202.203 148.078 202.345 146.869 202.345H106.684C105.475 202.345 104.409 202.203 103.84 201.21L103.626 200.997Z" fill="#D0DEE6"/>
<path d="M114.792 201.21L114.65 201.423C114.437 201.706 114.224 201.848 113.939 201.99H106.898C105.689 201.99 104.693 201.848 104.124 201.068L103.982 200.926V200.359H114.721V201.21H114.792Z" fill="#B6C2C9"/>
<path d="M144.166 200.146H121.051V200.926H144.166V200.146Z" fill="#B6C2C9"/>
<path d="M115.077 199.792L121.051 177.167C121.194 176.6 121.834 176.103 122.403 176.103H154.835C155.404 176.103 155.759 176.6 155.617 177.167L149.643 199.792H115.077Z" fill="#D7DFE2"/>
<path d="M133.356 187.947C133.071 189.082 133.711 190.075 134.92 190.075C136.058 190.075 137.267 189.153 137.552 187.947C137.836 186.813 137.196 185.82 135.987 185.82C134.849 185.891 133.711 186.813 133.356 187.947Z" fill="#B6C2C9"/>
<path d="M256.612 293.269H262.088L252.984 205.182H244.948L256.612 293.269Z" fill="#82D8DC"/>
<path d="M245.517 209.224L249.002 235.892L253.198 207.168L252.985 205.182H246.014L245.517 209.224Z" fill="#00939B"/>
<path d="M149.145 293.269H154.621L145.518 205.182H137.481L149.145 293.269Z" fill="#82D8DC"/>
<path d="M138.05 209.224L141.535 235.892L145.731 207.168L145.518 205.182H138.548L138.05 209.224Z" fill="#00939B"/>
<path d="M91.0374 293.269H85.561L94.6647 205.182H102.702L91.0374 293.269Z" fill="#82D8DC"/>
<path d="M102.133 209.224L91.393 236.459L94.4513 207.168L94.6647 205.182H101.706L102.133 209.224Z" fill="#00939B"/>
<path d="M153.555 202.345H86.9123V207.522H153.555V202.345Z" fill="#00939B"/>
<path d="M259.599 202.345H150.496V207.522H259.599V202.345Z" fill="#82D8DC"/>
<path d="M81.5781 154.4C81.5781 154.4 85.2053 159.152 85.8454 163.55C86.4856 167.947 84.7075 191.848 84.7075 191.848L83.4273 170.855L84.423 167.663L82.7872 167.309C82.7872 167.309 81.2936 159.152 80.1556 157.805C79.0176 156.528 78.8754 156.032 78.8754 156.032L81.5781 154.4Z" fill="#D9E6F9"/>
<path d="M87.4813 158.514C87.4813 158.514 91.7487 167.663 91.8909 172.911C92.0331 178.16 90.2551 191.423 90.2551 191.423C90.2551 191.423 92.7444 173.904 93.3845 173.904C94.0246 173.904 92.7444 171.28 92.7444 171.28L93.7401 170.429C93.7401 170.429 92.6021 162.273 90.7529 160.287C88.9749 158.372 87.4813 158.514 87.4813 158.514Z" fill="#D9E6F9"/>
<path d="M303.055 0.0709229H238.262V73.3349H303.055V0.0709229Z" stroke="#C1E3FE" stroke-width="0.1096" stroke-miterlimit="10"/>
<path d="M238.262 62.9091H303.126" stroke="#C1E3FE" stroke-width="0.1096" stroke-miterlimit="10"/>
<path d="M238.262 52.4125H303.126" stroke="#C1E3FE" stroke-width="0.1096" stroke-miterlimit="10"/>
<path d="M238.262 41.9158H303.126" stroke="#C1E3FE" stroke-width="0.1096" stroke-miterlimit="10"/>
<path d="M238.262 31.4901H303.126" stroke="#C1E3FE" stroke-width="0.1096" stroke-miterlimit="10"/>
<path d="M238.262 20.9933H303.126" stroke="#C1E3FE" stroke-width="0.1096" stroke-miterlimit="10"/>
<path d="M238.262 10.5676H303.126" stroke="#C1E3FE" stroke-width="0.1096" stroke-miterlimit="10"/>
<path d="M281.505 0.0709229V73.3349" stroke="#C1E3FE" stroke-width="0.1096" stroke-miterlimit="10"/>
<path d="M259.883 0.0709229V73.3349" stroke="#C1E3FE" stroke-width="0.1096" stroke-miterlimit="10"/>
<path d="M238.262 0.0709229L234.919 3.40433" stroke="#C1E3FE" stroke-width="0.1096" stroke-miterlimit="10"/>
<path d="M238.262 10.5676L234.919 13.901" stroke="#C1E3FE" stroke-width="0.1096" stroke-miterlimit="10"/>
<path d="M238.262 20.9933L234.919 24.3267" stroke="#C1E3FE" stroke-width="0.1096" stroke-miterlimit="10"/>
<path d="M238.262 31.4901L234.919 34.8234" stroke="#C1E3FE" stroke-width="0.1096" stroke-miterlimit="10"/>
<path d="M238.262 41.9158L234.919 45.3201" stroke="#C1E3FE" stroke-width="0.1096" stroke-miterlimit="10"/>
<path d="M238.262 52.4125L234.919 55.7459" stroke="#C1E3FE" stroke-width="0.1096" stroke-miterlimit="10"/>
<path d="M238.262 62.9091L234.919 66.2426" stroke="#C1E3FE" stroke-width="0.1096" stroke-miterlimit="10"/>
<path d="M231.932 66.5273L231.576 66.7401L231.505 66.5273L231.932 66.3145H232.145V68.2295H231.861V66.5273H231.932Z" fill="#C1E3FE"/>
<path d="M234.208 67.1646C234.208 67.8029 233.995 68.1575 233.568 68.1575C233.212 68.1575 232.928 67.8029 232.928 67.1646C232.928 66.5262 233.212 66.1716 233.568 66.1716C233.924 66.2426 234.208 66.5972 234.208 67.1646ZM233.141 67.2355C233.141 67.7319 233.283 68.0156 233.497 68.0156C233.781 68.0156 233.852 67.7319 233.852 67.2355C233.852 66.739 233.71 66.4553 233.497 66.4553C233.283 66.4553 233.141 66.739 233.141 67.2355Z" fill="#C1E3FE"/>
<path d="M231.434 57.8027V57.6608L231.648 57.448C232.145 56.9516 232.359 56.7388 232.359 56.4551C232.359 56.2423 232.288 56.1005 232.003 56.1005C231.861 56.1005 231.719 56.1714 231.576 56.2423L231.505 56.0296C231.648 55.8877 231.79 55.8168 232.074 55.8168C232.501 55.8168 232.643 56.1005 232.643 56.3842C232.643 56.7388 232.359 57.0225 232.003 57.3771L231.861 57.519H232.714V57.7317H231.434V57.8027Z" fill="#C1E3FE"/>
<path d="M234.208 56.8097C234.208 57.448 233.995 57.8027 233.568 57.8027C233.212 57.8027 232.928 57.448 232.928 56.8097C232.928 56.1714 233.212 55.8168 233.568 55.8168C233.924 55.8168 234.208 56.1714 234.208 56.8097ZM233.141 56.8097C233.141 57.3062 233.283 57.5899 233.497 57.5899C233.781 57.5899 233.852 57.3062 233.852 56.8097C233.852 56.3133 233.71 56.0296 233.497 56.0296C233.283 56.0296 233.141 56.3133 233.141 56.8097Z" fill="#C1E3FE"/>
<path d="M231.434 47.0934C231.505 47.1643 231.648 47.2352 231.861 47.2352C232.217 47.2352 232.288 47.0224 232.288 46.8806C232.288 46.5969 232.074 46.526 231.79 46.526H231.648V46.3132H231.79C232.003 46.3132 232.217 46.2423 232.217 45.9586C232.217 45.8167 232.145 45.6749 231.861 45.6749C231.719 45.6749 231.576 45.7458 231.505 45.8167L231.434 45.604C231.505 45.5331 231.719 45.4621 231.932 45.4621C232.288 45.4621 232.501 45.6749 232.501 45.8877C232.501 46.1004 232.359 46.2423 232.145 46.3132C232.359 46.3841 232.572 46.526 232.572 46.8097C232.572 47.0934 232.359 47.3771 231.861 47.3771C231.648 47.3771 231.434 47.3061 231.363 47.2352L231.434 47.0934Z" fill="#C1E3FE"/>
<path d="M234.208 46.384C234.208 47.0223 233.995 47.3769 233.568 47.3769C233.212 47.3769 232.928 47.0223 232.928 46.384C232.928 45.7457 233.212 45.3911 233.568 45.3911C233.924 45.462 234.208 45.8166 234.208 46.384ZM233.141 46.4549C233.141 46.9514 233.283 47.2351 233.497 47.2351C233.781 47.2351 233.852 46.9514 233.852 46.4549C233.852 45.9584 233.71 45.6747 233.497 45.6747C233.283 45.6747 233.141 45.9584 233.141 46.4549Z" fill="#C1E3FE"/>
<path d="M232.217 37.0231V36.5267H231.363V36.3848L232.217 35.1791H232.501V36.3848H232.786V36.5976H232.501V37.094H232.217V37.0231ZM232.217 36.3139V35.6756C232.217 35.6046 232.217 35.4628 232.217 35.3919C232.145 35.5337 232.145 35.6046 232.074 35.6756L231.576 36.3139H232.217Z" fill="#C1E3FE"/>
<path d="M234.208 36.0292C234.208 36.6675 233.995 37.0221 233.568 37.0221C233.212 37.0221 232.928 36.6675 232.928 36.0292C232.928 35.3908 233.212 35.0362 233.568 35.0362C233.924 35.0362 234.208 35.3908 234.208 36.0292ZM233.141 36.0292C233.141 36.5256 233.283 36.8093 233.497 36.8093C233.781 36.8093 233.852 36.5256 233.852 36.0292C233.852 35.5327 233.71 35.249 233.497 35.249C233.283 35.249 233.141 35.5327 233.141 36.0292Z" fill="#C1E3FE"/>
<path d="M232.572 24.8942H231.861L231.79 25.3906C231.861 25.3906 231.861 25.3906 231.932 25.3906C232.074 25.3906 232.217 25.3906 232.359 25.4616C232.501 25.5325 232.643 25.7452 232.643 25.958C232.643 26.3126 232.359 26.5963 231.932 26.5963C231.719 26.5963 231.576 26.5254 231.434 26.4545L231.505 26.2417C231.576 26.3126 231.719 26.3126 231.932 26.3126C232.145 26.3126 232.359 26.1708 232.359 25.8871C232.359 25.6743 232.217 25.4616 231.79 25.4616C231.648 25.4616 231.576 25.4616 231.505 25.4616L231.648 24.5396H232.572V24.8942Z" fill="#C1E3FE"/>
<path d="M234.208 25.6034C234.208 26.2417 233.995 26.5963 233.568 26.5963C233.212 26.5963 232.928 26.2417 232.928 25.6034C232.928 24.9651 233.212 24.6105 233.568 24.6105C233.924 24.6814 234.208 25.036 234.208 25.6034ZM233.141 25.6743C233.141 26.1708 233.283 26.4545 233.497 26.4545C233.781 26.4545 233.852 26.1708 233.852 25.6743C233.852 25.1779 233.71 24.8942 233.497 24.8942C233.283 24.8942 233.141 25.1779 233.141 25.6743Z" fill="#C1E3FE"/>
<path d="M232.501 14.4686C232.43 14.4686 232.359 14.4686 232.288 14.4686C231.861 14.5395 231.648 14.8232 231.648 15.1778C231.719 15.036 231.932 14.965 232.074 14.965C232.43 14.965 232.643 15.1778 232.643 15.6033C232.643 15.958 232.43 16.2417 232.003 16.2417C231.576 16.2417 231.363 15.958 231.363 15.4615C231.363 15.1069 231.505 14.8232 231.719 14.6104C231.861 14.4686 232.074 14.3267 232.359 14.3267C232.43 14.3267 232.501 14.3267 232.572 14.3267V14.4686H232.501ZM232.43 15.6033C232.43 15.3196 232.288 15.1778 232.003 15.1778C231.861 15.1778 231.719 15.2487 231.648 15.3906C231.648 15.3906 231.648 15.4615 231.648 15.5324C231.648 15.8161 231.79 16.0998 232.074 16.0998C232.288 16.0289 232.43 15.887 232.43 15.6033Z" fill="#C1E3FE"/>
<path d="M234.208 15.2485C234.208 15.8869 233.995 16.2415 233.568 16.2415C233.212 16.2415 232.928 15.8869 232.928 15.2485C232.928 14.6102 233.212 14.2556 233.568 14.2556C233.924 14.2556 234.208 14.6102 234.208 15.2485ZM233.141 15.2485C233.141 15.745 233.283 16.0287 233.497 16.0287C233.781 16.0287 233.852 15.745 233.852 15.2485C233.852 14.7521 233.71 14.4684 233.497 14.4684C233.283 14.4684 233.141 14.7521 233.141 15.2485Z" fill="#C1E3FE"/>
<path d="M232.643 3.901V4.04285L231.79 5.74501H231.505L232.359 4.04285H231.434V3.901H232.643Z" fill="#C1E3FE"/>
<path d="M234.208 4.82282C234.208 5.46114 233.995 5.81575 233.568 5.81575C233.212 5.81575 232.928 5.46114 232.928 4.82282C232.928 4.18451 233.212 3.8299 233.568 3.8299C233.924 3.90082 234.208 4.25544 234.208 4.82282ZM233.141 4.89375C233.141 5.39021 233.283 5.67391 233.497 5.67391C233.781 5.67391 233.852 5.39021 233.852 4.89375C233.852 4.39728 233.71 4.11359 233.497 4.11359C233.283 4.11359 233.141 4.39728 233.141 4.89375Z" fill="#C1E3FE"/>
<path d="M245.09 77.2357V77.0938L245.303 76.8811C245.801 76.3846 246.014 76.1718 246.014 75.8881C246.014 75.6754 245.943 75.5335 245.659 75.5335C245.517 75.5335 245.374 75.6044 245.232 75.6754L245.161 75.4626C245.303 75.3207 245.445 75.2498 245.73 75.2498C246.157 75.2498 246.299 75.5335 246.299 75.8172C246.299 76.1718 246.014 76.4555 245.659 76.8101L245.517 76.952H246.37V77.1648H245.09V77.2357Z" fill="#C1E3FE"/>
<path d="M247.864 76.2427C247.864 76.8811 247.65 77.2357 247.224 77.2357C246.868 77.2357 246.583 76.8811 246.583 76.2427C246.583 75.6044 246.868 75.2498 247.224 75.2498C247.65 75.2498 247.864 75.6044 247.864 76.2427ZM246.868 76.2427C246.868 76.7392 247.01 77.0229 247.224 77.0229C247.508 77.0229 247.579 76.7392 247.579 76.2427C247.579 75.7463 247.437 75.4626 247.224 75.4626C247.01 75.4626 246.868 75.7463 246.868 76.2427Z" fill="#C1E3FE"/>
<path d="M248.717 75.5335L248.362 75.7463L248.29 75.5335L248.717 75.3207H248.93V77.2357H248.646V75.5335H248.717Z" fill="#C1E3FE"/>
<path d="M250.851 75.3207V75.4626L249.997 77.1648H249.713L250.566 75.4626H249.642V75.2498H250.851V75.3207Z" fill="#C1E3FE"/>
<path d="M267.138 77.2357V77.0938L267.351 76.8811C267.849 76.3846 268.063 76.1718 268.063 75.8881C268.063 75.6754 267.991 75.5335 267.707 75.5335C267.565 75.5335 267.422 75.6044 267.28 75.6754L267.209 75.4626C267.351 75.3207 267.494 75.2498 267.778 75.2498C268.205 75.2498 268.347 75.5335 268.347 75.8172C268.347 76.1718 268.063 76.4555 267.707 76.8101L267.565 76.952H268.418V77.1648H267.138V77.2357Z" fill="#C1E3FE"/>
<path d="M269.912 76.2427C269.912 76.8811 269.698 77.2357 269.272 77.2357C268.916 77.2357 268.632 76.8811 268.632 76.2427C268.632 75.6044 268.916 75.2498 269.272 75.2498C269.698 75.2498 269.912 75.6044 269.912 76.2427ZM268.916 76.2427C268.916 76.7392 269.058 77.0229 269.272 77.0229C269.556 77.0229 269.627 76.7392 269.627 76.2427C269.627 75.7463 269.485 75.4626 269.272 75.4626C269.058 75.4626 268.916 75.7463 268.916 76.2427Z" fill="#C1E3FE"/>
<path d="M270.694 75.5335L270.339 75.7463L270.267 75.5335L270.694 75.3207H270.908V77.2357H270.623V75.5335H270.694Z" fill="#C1E3FE"/>
<path d="M271.619 76.7392C271.619 76.5264 271.761 76.3137 271.974 76.2427C271.761 76.1718 271.69 75.9591 271.69 75.8172C271.69 75.5335 271.974 75.3207 272.259 75.3207C272.614 75.3207 272.828 75.5335 272.828 75.8172C272.828 75.9591 272.757 76.1718 272.543 76.2427C272.757 76.3137 272.899 76.5264 272.899 76.7392C272.899 77.0938 272.614 77.3066 272.259 77.3066C271.903 77.2357 271.619 77.0229 271.619 76.7392ZM272.686 76.7392C272.686 76.5264 272.543 76.3846 272.259 76.3137C272.045 76.3846 271.903 76.5264 271.903 76.7392C271.903 76.952 272.045 77.0938 272.259 77.0938C272.543 77.0229 272.686 76.881 272.686 76.7392ZM271.974 75.7463C271.974 75.9591 272.117 76.03 272.33 76.1009C272.472 76.03 272.614 75.9591 272.614 75.7463C272.614 75.6044 272.543 75.4626 272.259 75.4626C272.045 75.4626 271.974 75.6044 271.974 75.7463Z" fill="#C1E3FE"/>
<path d="M289.186 77.2357V77.0938L289.399 76.8811C289.897 76.3846 290.111 76.1718 290.111 75.8881C290.111 75.6754 290.04 75.5335 289.755 75.5335C289.613 75.5335 289.471 75.6044 289.328 75.6754L289.257 75.4626C289.399 75.3207 289.542 75.2498 289.826 75.2498C290.253 75.2498 290.395 75.5335 290.395 75.8172C290.395 76.1718 290.111 76.4555 289.755 76.8101L289.613 76.952H290.466V77.1648H289.186V77.2357Z" fill="#C1E3FE"/>
<path d="M291.96 76.2427C291.96 76.8811 291.747 77.2357 291.32 77.2357C290.964 77.2357 290.68 76.8811 290.68 76.2427C290.68 75.6044 290.964 75.2498 291.32 75.2498C291.747 75.2498 291.96 75.6044 291.96 76.2427ZM290.893 76.2427C290.893 76.7392 291.035 77.0229 291.249 77.0229C291.533 77.0229 291.604 76.7392 291.604 76.2427C291.604 75.7463 291.462 75.4626 291.249 75.4626C291.106 75.4626 290.893 75.7463 290.893 76.2427Z" fill="#C1E3FE"/>
<path d="M292.742 75.5335L292.387 75.7463L292.315 75.5335L292.742 75.3207H292.956V77.2357H292.671V75.5335H292.742Z" fill="#C1E3FE"/>
<path d="M293.88 77.0229C293.951 77.0229 294.022 77.0229 294.094 77.0229C294.236 77.0229 294.378 76.952 294.52 76.8101C294.663 76.6683 294.734 76.5264 294.805 76.3137C294.734 76.4555 294.52 76.5264 294.378 76.5264C294.022 76.5264 293.809 76.2427 293.809 75.9591C293.809 75.6044 294.094 75.2498 294.449 75.2498C294.805 75.2498 295.089 75.5335 295.089 76.03C295.089 76.4555 294.947 76.7392 294.734 76.952C294.591 77.0938 294.378 77.1648 294.165 77.2357C294.094 77.2357 294.022 77.2357 293.951 77.2357V77.0229H293.88ZM293.951 75.9591C293.951 76.1718 294.094 76.3846 294.307 76.3846C294.449 76.3846 294.591 76.3137 294.663 76.1718V76.1009C294.663 75.7463 294.52 75.5335 294.307 75.5335C294.094 75.4626 293.951 75.6754 293.951 75.9591Z" fill="#C1E3FE"/>
<path opacity="0.34" d="M303.055 10.5676H238.262V21.0643H303.055V10.5676Z" fill="white"/>
<path opacity="0.34" d="M303.055 31.4901H238.262V41.9867H303.055V31.4901Z" fill="white"/>
<path opacity="0.34" d="M303.055 52.4125H238.262V62.9091H303.055V52.4125Z" fill="white"/>
<path d="M267.351 10.5676H238.262V12.2698H267.351V10.5676Z" fill="#B7FBFE"/>
<path d="M288.261 14.9649H238.262V16.6671H288.261V14.9649Z" fill="#006064"/>
<path d="M256.114 19.3621H238.262V21.0643H256.114V19.3621Z" fill="#00C6CE"/>
<path d="M290.822 31.4901H238.262V33.1922H290.822V31.4901Z" fill="#B7FBFE"/>
<path d="M259.883 35.8873H238.262V37.5895H259.883V35.8873Z" fill="#006064"/>
<path d="M281.434 40.2846H238.262V41.9867H281.434V40.2846Z" fill="#00C6CE"/>
<path d="M259.883 52.5544H238.262V54.2565H259.883V52.5544Z" fill="#B7FBFE"/>
<path d="M281.434 56.9516H238.262V58.6538H281.434V56.9516Z" fill="#006064"/>
<path d="M273.895 61.3488H238.262V63.051H273.895V61.3488Z" fill="#00C6CE"/>
<path d="M349.712 64.8241H346.084V68.4412H349.712V64.8241Z" fill="#C1E3FE"/>
<path d="M359.954 64.8241H356.326V68.4412H359.954V64.8241Z" fill="#C1E3FE"/>
<path d="M370.195 64.8241H366.568V68.4412H370.195V64.8241Z" fill="#B7FBFE"/>
<path d="M380.366 64.8241H376.739V68.4412H380.366V64.8241Z" fill="#B7FBFE"/>
<path d="M349.712 73.8314H346.084V77.4485H349.712V73.8314Z" fill="#C1E3FE"/>
<path d="M359.954 73.8314H356.326V77.4485H359.954V73.8314Z" fill="#C1E3FE"/>
<path d="M370.195 73.8314H366.568V77.4485H370.195V73.8314Z" fill="#B7FBFE"/>
<path d="M380.366 73.8314H376.739V77.4485H380.366V73.8314Z" fill="#B7FBFE"/>
<path d="M349.712 82.8387H346.084V86.4558H349.712V82.8387Z" fill="#00C6CE"/>
<path d="M359.954 82.8387H356.326V86.4558H359.954V82.8387Z" fill="#C1E3FE"/>
<path d="M370.195 82.8387H366.568V86.4558H370.195V82.8387Z" fill="#B7FBFE"/>
<path d="M380.366 82.8387H376.739V86.4558H380.366V82.8387Z" fill="#B7FBFE"/>
<path d="M349.712 91.8459H346.084V95.463H349.712V91.8459Z" fill="#C1E3FE"/>
<path d="M359.954 91.8459H356.326V95.463H359.954V91.8459Z" fill="#C1E3FE"/>
<path d="M370.195 91.8459H366.568V95.463H370.195V91.8459Z" fill="#B7FBFE"/>
<path d="M380.366 91.8459H376.739V95.463H380.366V91.8459Z" fill="#B7FBFE"/>
<path d="M349.712 100.853H346.084V104.47H349.712V100.853Z" fill="#C1E3FE"/>
<path d="M359.954 100.853H356.326V104.47H359.954V100.853Z" fill="#C1E3FE"/>
<path d="M370.195 100.853H366.568V104.47H370.195V100.853Z" fill="#B7FBFE"/>
<path d="M380.366 100.853H376.739V104.47H380.366V100.853Z" fill="#B7FBFE"/>
<path d="M349.712 109.861H346.084V113.478H349.712V109.861Z" fill="#C1E3FE"/>
<path d="M359.954 109.861H356.326V113.478H359.954V109.861Z" fill="#C1E3FE"/>
<path d="M370.195 109.861H366.568V113.478H370.195V109.861Z" fill="#C1E3FE"/>
<path d="M380.366 109.861H376.739V113.478H380.366V109.861Z" fill="#C1E3FE"/>
<path d="M107.609 5.53204V60.4268" stroke="#C1E3FE" stroke-width="0.1645" stroke-miterlimit="10"/>
<path d="M85.1342 5.53204V60.4268" stroke="#C1E3FE" stroke-width="0.1645" stroke-miterlimit="10"/>
<path d="M62.7305 5.53204V60.4268" stroke="#C1E3FE" stroke-width="0.1645" stroke-miterlimit="10"/>
<path d="M40.3267 5.53204V60.4268" stroke="#C1E3FE" stroke-width="0.1645" stroke-miterlimit="10"/>
<path opacity="0.34" d="M107.609 5.53204H62.7305V60.4268H107.609V5.53204Z" fill="white"/>
<path d="M130.013 5.53204H17.923V60.4268H130.013V5.53204Z" stroke="#C1E3FE" stroke-width="0.1645" stroke-miterlimit="10"/>
<path d="M130.013 51.2777H17.923" stroke="#C1E3FE" stroke-width="0.1645" stroke-miterlimit="10"/>
<path d="M17.923 42.1286H130.013" stroke="#C1E3FE" stroke-width="0.1645" stroke-miterlimit="10"/>
<path d="M17.923 32.9794H130.013" stroke="#C1E3FE" stroke-width="0.1645" stroke-miterlimit="10"/>
<path d="M17.923 23.8303H130.013" stroke="#C1E3FE" stroke-width="0.1645" stroke-miterlimit="10"/>
<path d="M17.923 14.6812H130.013" stroke="#C1E3FE" stroke-width="0.1645" stroke-miterlimit="10"/>
<path d="M16.0027 59.9304C16.0027 60.7105 15.7182 61.207 15.1492 61.207C14.6513 61.207 14.3668 60.7815 14.3668 60.0013C14.3668 59.2212 14.7225 58.7956 15.2203 58.7956C15.7182 58.7247 16.0027 59.1502 16.0027 59.9304ZM14.7225 59.9304C14.7225 60.5687 14.9358 60.9233 15.2203 60.9233C15.5759 60.9233 15.7182 60.5687 15.7182 59.9304C15.7182 59.363 15.5759 58.9375 15.2203 58.9375C14.9358 58.9375 14.7225 59.2921 14.7225 59.9304Z" fill="#C1E3FE"/>
<path d="M13.2289 49.8605L12.8021 50.1442L12.731 49.9314L13.2289 49.6477H13.5134V52.0591H13.2289V49.8605Z" fill="#C1E3FE"/>
<path d="M16.0027 50.7813C16.0027 51.5614 15.7182 52.0579 15.1492 52.0579C14.6513 52.0579 14.3669 51.6323 14.3669 50.8522C14.3669 50.072 14.7225 49.6465 15.2203 49.6465C15.7182 49.5756 16.0027 50.0011 16.0027 50.7813ZM14.7225 50.7813C14.7225 51.4196 14.9358 51.7742 15.2203 51.7742C15.5759 51.7742 15.7182 51.4196 15.7182 50.7813C15.7182 50.2139 15.5759 49.7883 15.2203 49.7883C14.9358 49.7883 14.7225 50.1429 14.7225 50.7813Z" fill="#C1E3FE"/>
<path d="M12.5176 42.7669V42.5541L12.8021 42.3413C13.4422 41.7739 13.6556 41.4902 13.6556 41.0647C13.6556 40.8519 13.5134 40.5682 13.1577 40.5682C12.9444 40.5682 12.731 40.7101 12.6599 40.781L12.5888 40.5682C12.731 40.4264 13.0155 40.3555 13.2289 40.3555C13.7267 40.3555 13.9401 40.7101 13.9401 41.0647C13.9401 41.4902 13.6556 41.8449 13.0866 42.3413L12.8733 42.4832H13.9401V42.7669H12.5176Z" fill="#C1E3FE"/>
<path d="M16.0027 41.5612C16.0027 42.3413 15.7182 42.8378 15.1492 42.8378C14.6513 42.8378 14.3668 42.4122 14.3668 41.6321C14.3668 40.8519 14.7225 40.4264 15.2203 40.4264C15.7182 40.3555 16.0027 40.8519 16.0027 41.5612ZM14.7225 41.6321C14.7225 42.2704 14.9358 42.625 15.2203 42.625C15.5759 42.625 15.7182 42.2704 15.7182 41.6321C15.7182 41.0647 15.5759 40.6392 15.2203 40.6392C14.9358 40.6392 14.7225 40.9938 14.7225 41.6321Z" fill="#C1E3FE"/>
<path d="M12.5888 33.2631C12.6599 33.3341 12.8733 33.405 13.0866 33.405C13.5134 33.405 13.6556 33.1213 13.6556 32.9085C13.6556 32.5539 13.3711 32.4121 13.0155 32.4121H12.8021V32.1993H13.0155C13.2289 32.1993 13.5134 32.0574 13.5134 31.7737C13.5134 31.561 13.3711 31.4191 13.0866 31.4191C12.8733 31.4191 12.731 31.4901 12.5888 31.561L12.5176 31.3482C12.6599 31.2773 12.8733 31.1354 13.1577 31.1354C13.6556 31.1354 13.869 31.4191 13.869 31.7028C13.869 31.9156 13.7267 32.1284 13.4422 32.2702C13.7267 32.3411 13.9401 32.5539 13.9401 32.9085C13.9401 33.2631 13.6556 33.6178 13.0866 33.6178C12.8021 33.6178 12.5888 33.5468 12.4465 33.4759L12.5888 33.2631Z" fill="#C1E3FE"/>
<path d="M16.0027 32.4121C16.0027 33.1922 15.7182 33.6887 15.1492 33.6887C14.6513 33.6887 14.3668 33.2631 14.3668 32.483C14.3668 31.7028 14.7225 31.2773 15.2203 31.2773C15.7182 31.2064 16.0027 31.6319 16.0027 32.4121ZM14.7225 32.4121C14.7225 33.0504 14.9358 33.405 15.2203 33.405C15.5759 33.405 15.7182 33.0504 15.7182 32.4121C15.7182 31.8447 15.5759 31.4191 15.2203 31.4191C14.9358 31.4191 14.7225 31.7737 14.7225 32.4121Z" fill="#C1E3FE"/>
<path d="M13.5134 24.4698V23.8315H12.3754V23.6187L13.4422 22.1293H13.7979V23.6187H14.1535V23.9024H13.7979V24.5407H13.5134V24.4698ZM13.5134 23.5478V22.7676C13.5134 22.6258 13.5134 22.484 13.5134 22.413C13.4422 22.5549 13.3711 22.6258 13.3 22.7676L12.731 23.5478H13.5134Z" fill="#C1E3FE"/>
<path d="M16.0027 23.2629C16.0027 24.0431 15.7182 24.5395 15.1492 24.5395C14.6513 24.5395 14.3668 24.114 14.3668 23.3338C14.3668 22.5537 14.7225 22.1281 15.2203 22.1281C15.7182 22.0572 16.0027 22.4828 16.0027 23.2629ZM14.7225 23.2629C14.7225 23.9012 14.9358 24.2558 15.2203 24.2558C15.5759 24.2558 15.7182 23.9012 15.7182 23.2629C15.7182 22.6955 15.5759 22.27 15.2203 22.27C14.9358 22.27 14.7225 22.6246 14.7225 23.2629Z" fill="#C1E3FE"/>
<path d="M13.9401 13.1929H13.0155L12.9444 13.8312C13.0155 13.8312 13.0155 13.8312 13.1577 13.8312C13.3711 13.8312 13.5134 13.9021 13.6556 13.973C13.869 14.044 14.0112 14.2567 14.0112 14.6113C14.0112 15.1078 13.6556 15.3915 13.1577 15.3915C12.8733 15.3915 12.6599 15.3206 12.5888 15.2497L12.6599 15.0369C12.731 15.1078 12.9444 15.1787 13.1577 15.1787C13.4422 15.1787 13.7267 14.966 13.7267 14.6823C13.7267 14.3986 13.5134 14.1858 13.0155 14.1858C12.8733 14.1858 12.8021 14.1858 12.6599 14.1858L12.8021 13.051H13.9401V13.1929Z" fill="#C1E3FE"/>
<path d="M16.0027 14.0429C16.0027 14.823 15.7182 15.3195 15.1492 15.3195C14.6513 15.3195 14.3668 14.894 14.3668 14.1138C14.3668 13.3336 14.7225 12.9081 15.2203 12.9081C15.7182 12.8372 16.0027 13.2627 16.0027 14.0429ZM14.7225 14.1138C14.7225 14.7521 14.9358 15.1067 15.2203 15.1067C15.5759 15.1067 15.7182 14.7521 15.7182 14.1138C15.7182 13.5464 15.5759 13.1209 15.2203 13.1209C14.9358 13.1209 14.7225 13.4755 14.7225 14.1138Z" fill="#C1E3FE"/>
<path d="M28.7337 63.4765L28.3069 63.6893L28.2358 63.4765L28.7337 63.1928H29.0182V65.3915H28.7337V63.4765Z" fill="#C1E3FE"/>
<path d="M50.4973 65.3915V65.2496L50.7107 65.0369C51.2797 64.4695 51.5642 64.1858 51.5642 63.9021C51.5642 63.6893 51.4219 63.4765 51.1374 63.4765C50.9241 63.4765 50.7818 63.5475 50.6396 63.6893L50.5685 63.4765C50.7107 63.3347 50.9241 63.2638 51.2086 63.2638C51.7064 63.2638 51.9198 63.6184 51.9198 63.9021C51.9198 64.3276 51.6353 64.6822 51.1374 65.1078L50.9241 65.2496H51.9198V65.5333H50.4973V65.3915Z" fill="#C1E3FE"/>
<path d="M73.0433 65.0368C73.1144 65.1078 73.3278 65.1787 73.5412 65.1787C73.8968 65.1787 74.039 64.9659 74.039 64.7532C74.039 64.4695 73.7545 64.3276 73.4701 64.3276H73.2567V64.1148H73.3989C73.6123 64.1148 73.8968 63.973 73.8968 63.7602C73.8968 63.5475 73.7545 63.4056 73.4701 63.4056C73.2567 63.4056 73.1144 63.4765 73.0433 63.5475L72.9722 63.3347C73.1144 63.2638 73.3278 63.1928 73.5412 63.1928C73.9679 63.1928 74.1813 63.4765 74.1813 63.7602C74.1813 63.973 74.039 64.1858 73.7545 64.2567C74.039 64.3276 74.2524 64.5404 74.2524 64.8241C74.2524 65.1787 73.9679 65.4624 73.4701 65.4624C73.1856 65.4624 72.9722 65.3915 72.9011 65.3205L73.0433 65.0368Z" fill="#C1E3FE"/>
<path d="M96.3005 65.3915V64.7532H95.3048V64.5404L96.3005 63.1219H96.6561V64.5404H96.9406V64.7532H96.6561V65.3915H96.3005ZM96.3005 64.5404V63.8312C96.3005 63.6893 96.3005 63.6184 96.3005 63.4766C96.2294 63.6184 96.1583 63.6893 96.0872 63.8312L95.5182 64.6113H96.3005V64.5404Z" fill="#C1E3FE"/>
<path d="M119.131 63.4056H118.278L118.206 63.973C118.278 63.973 118.278 63.973 118.42 63.973C118.562 63.973 118.775 64.0439 118.918 64.1148C119.06 64.1858 119.202 64.3985 119.202 64.6822C119.202 65.1078 118.847 65.4624 118.349 65.4624C118.135 65.4624 117.922 65.3915 117.78 65.3205L117.851 65.1078C117.922 65.1787 118.135 65.2496 118.349 65.2496C118.633 65.2496 118.847 65.0369 118.847 64.7532C118.847 64.4695 118.633 64.2567 118.206 64.2567C118.064 64.2567 117.993 64.2567 117.922 64.2567L118.064 63.1928H119.131V63.4056Z" fill="#C1E3FE"/>
<path d="M17.923 60.7815L40.3267 51.6323L62.7305 41.8449L85.1342 32.8376H107.822L130.013 23.9012" stroke="#00939B" stroke-width="0.8855" stroke-miterlimit="10"/>
<path d="M17.923 51.2777L40.3267 42.1286L62.7305 51.2777L85.1342 42.7669L107.609 15.2486L130.013 5.53204" stroke="#3FE0E6" stroke-width="0.9479" stroke-miterlimit="10"/>
<path d="M108.889 15.2485C108.889 15.9578 108.32 16.5252 107.609 16.5252C106.898 16.5252 106.329 15.9578 106.329 15.2485C106.329 14.5393 106.898 13.9719 107.609 13.9719C108.32 13.9719 108.889 14.5393 108.889 15.2485Z" fill="white" stroke="#3FE0E6" stroke-width="0.9479" stroke-miterlimit="10"/>
<path d="M86.4856 42.7669C86.4856 43.4761 85.9166 44.0435 85.2054 44.0435C84.4941 44.0435 83.9251 43.4761 83.9251 42.7669C83.9251 42.0577 84.4941 41.4903 85.2054 41.4903C85.8455 41.4903 86.4856 42.0577 86.4856 42.7669Z" fill="white" stroke="#3FE0E6" stroke-width="0.9479" stroke-miterlimit="10"/>
<path d="M64.0107 51.2777C64.0107 51.987 63.4417 52.5543 62.7305 52.5543C62.0192 52.5543 61.4503 51.987 61.4503 51.2777C61.4503 50.5685 62.0192 50.0011 62.7305 50.0011C63.4417 50.0011 64.0107 50.5685 64.0107 51.2777Z" fill="white" stroke="#3FE0E6" stroke-width="0.9479" stroke-miterlimit="10"/>
<path d="M41.607 42.1286C41.607 42.8378 41.038 43.4052 40.3267 43.4052C39.6155 43.4052 39.0465 42.8378 39.0465 42.1286C39.0465 41.4193 39.6155 40.852 40.3267 40.852C41.038 40.852 41.607 41.4193 41.607 42.1286Z" fill="white" stroke="#3FE0E6" stroke-width="0.9479" stroke-miterlimit="10"/>
<path d="M85.9166 32.9794C85.9166 33.6887 85.3476 34.2561 84.6364 34.2561C83.9251 34.2561 83.3561 33.6887 83.3561 32.9794C83.3561 32.2702 83.9251 31.7028 84.6364 31.7028C85.3476 31.7028 85.9166 32.2702 85.9166 32.9794Z" fill="white" stroke="#00939B" stroke-width="0.8855" stroke-miterlimit="10"/>
<path d="M108.889 32.9794C108.889 33.6887 108.32 34.2561 107.609 34.2561C106.898 34.2561 106.329 33.6887 106.329 32.9794C106.329 32.2702 106.898 31.7028 107.609 31.7028C108.32 31.7028 108.889 32.2702 108.889 32.9794Z" fill="white" stroke="#00939B" stroke-width="0.8855" stroke-miterlimit="10"/>
<path d="M313.652 47.448L313.368 47.5898L313.297 47.448L313.652 47.2352H313.866V48.9374H313.652V47.448Z" fill="#C1E3FE"/>
<path d="M315.644 48.0152C315.644 48.5826 315.43 48.8663 315.075 48.8663C314.719 48.8663 314.506 48.5826 314.506 48.0152C314.506 47.4478 314.719 47.1641 315.075 47.1641C315.43 47.1641 315.644 47.5187 315.644 48.0152ZM314.719 48.0861C314.719 48.5117 314.861 48.7954 315.075 48.7954C315.288 48.7954 315.43 48.5117 315.43 48.0861C315.43 47.6606 315.359 47.3769 315.075 47.3769C314.861 47.3769 314.719 47.5897 314.719 48.0861Z" fill="#C1E3FE"/>
<path d="M313.155 40.2149V40.0731L313.368 39.9313C313.795 39.5057 314.008 39.2929 314.008 39.0802C314.008 38.9383 313.937 38.7256 313.652 38.7256C313.51 38.7256 313.368 38.7965 313.297 38.8674L313.226 38.7256C313.368 38.6546 313.51 38.5837 313.724 38.5837C314.079 38.5837 314.221 38.7965 314.221 39.0802C314.221 39.3639 314.008 39.6476 313.652 40.0022L313.51 40.144H314.293V40.3568H313.155V40.2149Z" fill="#C1E3FE"/>
<path d="M315.644 39.3625C315.644 39.9299 315.43 40.2845 315.075 40.2845C314.719 40.2845 314.506 40.0008 314.506 39.4335C314.506 38.8661 314.719 38.5824 315.075 38.5824C315.43 38.5114 315.644 38.8661 315.644 39.3625ZM314.719 39.4335C314.719 39.859 314.861 40.1427 315.075 40.1427C315.288 40.1427 315.43 39.859 315.43 39.4335C315.43 39.0079 315.359 38.7242 315.075 38.7242C314.861 38.7242 314.719 38.937 314.719 39.4335Z" fill="#C1E3FE"/>
<path d="M313.226 31.3482C313.297 31.4191 313.439 31.4191 313.581 31.4191C313.866 31.4191 313.937 31.2063 313.937 31.0645C313.937 30.8517 313.724 30.7099 313.51 30.7099H313.368V30.568H313.51C313.652 30.568 313.866 30.4971 313.866 30.2843C313.866 30.1425 313.795 30.0006 313.581 30.0006C313.439 30.0006 313.297 30.0716 313.226 30.1425L313.155 30.0006C313.226 29.9297 313.439 29.8588 313.581 29.8588C313.937 29.8588 314.079 30.0716 314.079 30.2843C314.079 30.4262 314.008 30.639 313.795 30.7099C314.008 30.7808 314.15 30.9227 314.15 31.1354C314.15 31.4191 313.937 31.6319 313.51 31.6319C313.297 31.6319 313.155 31.561 313.083 31.49L313.226 31.3482Z" fill="#C1E3FE"/>
<path d="M315.644 30.7099C315.644 31.2773 315.43 31.561 315.075 31.561C314.719 31.561 314.506 31.2773 314.506 30.7099C314.506 30.1425 314.719 29.8588 315.075 29.8588C315.43 29.8588 315.644 30.2134 315.644 30.7099ZM314.719 30.7808C314.719 31.2063 314.861 31.49 315.075 31.49C315.288 31.49 315.43 31.2063 315.43 30.7808C315.43 30.3553 315.359 30.0716 315.075 30.0716C314.861 30.0716 314.719 30.2843 314.719 30.7808Z" fill="#C1E3FE"/>
<path d="M313.866 22.9085V22.4829H313.083V22.3411L313.866 21.2772H314.079V22.3411H314.293V22.5538H314.079V22.9794H313.866V22.9085ZM313.866 22.2702V21.7028C313.866 21.6318 313.866 21.5609 313.866 21.4191C313.795 21.49 313.795 21.5609 313.724 21.6318L313.297 22.1992H313.866V22.2702Z" fill="#C1E3FE"/>
<path d="M315.644 22.0572C315.644 22.6246 315.43 22.9083 315.075 22.9083C314.719 22.9083 314.506 22.6246 314.506 22.0572C314.506 21.4898 314.719 21.2061 315.075 21.2061C315.43 21.2061 315.644 21.5607 315.644 22.0572ZM314.719 22.0572C314.719 22.4827 314.861 22.7664 315.075 22.7664C315.288 22.7664 315.43 22.4827 315.43 22.0572C315.43 21.6317 315.359 21.348 315.075 21.348C314.861 21.4189 314.719 21.6317 314.719 22.0572Z" fill="#C1E3FE"/>
<path d="M314.15 12.7664H313.51L313.439 13.192C313.51 13.192 313.51 13.192 313.581 13.192C313.724 13.192 313.866 13.192 313.937 13.2629C314.079 13.3338 314.15 13.4757 314.15 13.6884C314.15 14.043 313.866 14.2558 313.51 14.2558C313.297 14.2558 313.155 14.1849 313.083 14.1849L313.155 14.043C313.226 14.114 313.368 14.114 313.51 14.114C313.724 14.114 313.937 13.9721 313.937 13.7593C313.937 13.5466 313.795 13.4047 313.439 13.4047C313.368 13.4047 313.297 13.4047 313.226 13.4047L313.368 12.6246H314.15V12.7664Z" fill="#C1E3FE"/>
<path d="M315.644 13.4045C315.644 13.9719 315.43 14.2556 315.075 14.2556C314.719 14.2556 314.506 13.9719 314.506 13.4045C314.506 12.8372 314.719 12.5535 315.075 12.5535C315.43 12.5535 315.644 12.8372 315.644 13.4045ZM314.719 13.4045C314.719 13.8301 314.861 14.1138 315.075 14.1138C315.288 14.1138 315.43 13.8301 315.43 13.4045C315.43 12.979 315.359 12.6953 315.075 12.6953C314.861 12.6953 314.719 12.979 314.719 13.4045Z" fill="#C1E3FE"/>
<path d="M314.15 4.04267C314.079 4.04267 314.079 4.04267 314.008 4.04267C313.652 4.11359 313.439 4.39728 313.439 4.61005C313.51 4.53913 313.652 4.39728 313.866 4.39728C314.15 4.39728 314.364 4.61005 314.364 4.96467C314.364 5.24837 314.15 5.53206 313.795 5.53206C313.439 5.53206 313.226 5.24837 313.226 4.82282C313.226 4.46821 313.368 4.25544 313.51 4.04267C313.652 3.90082 313.866 3.8299 314.079 3.8299C314.15 3.8299 314.221 3.8299 314.221 3.8299V4.04267H314.15ZM314.079 5.03559C314.079 4.82282 313.937 4.68098 313.724 4.68098C313.581 4.68098 313.439 4.7519 313.368 4.89375V4.96467C313.368 5.24837 313.51 5.46114 313.724 5.46114C313.937 5.46114 314.079 5.31929 314.079 5.03559Z" fill="#C1E3FE"/>
<path d="M315.644 4.7519C315.644 5.31929 315.43 5.60298 315.075 5.60298C314.719 5.60298 314.506 5.31929 314.506 4.7519C314.506 4.18451 314.719 3.90082 315.075 3.90082C315.43 3.90082 315.644 4.18451 315.644 4.7519ZM314.719 4.7519C314.719 5.17744 314.861 5.46113 315.075 5.46113C315.288 5.46113 315.43 5.17744 315.43 4.7519C315.43 4.32636 315.359 4.04266 315.075 4.04266C314.861 4.04266 314.719 4.32636 314.719 4.7519Z" fill="#C1E3FE"/>
<path d="M323.681 55.0366L323.396 55.1785L323.325 55.0366L323.681 54.8948H323.823V56.3842H323.61V55.0366H323.681Z" fill="#C1E3FE"/>
<path d="M336.625 56.3133V56.1714L336.767 56.0296C337.123 55.675 337.336 55.4622 337.336 55.2494C337.336 55.1076 337.265 54.9657 337.052 54.9657C336.91 54.9657 336.838 55.0366 336.767 55.1076L336.696 54.9657C336.767 54.8948 336.91 54.8239 337.123 54.8239C337.407 54.8239 337.55 55.0367 337.55 55.2494C337.55 55.5331 337.336 55.7459 337.052 56.0296L336.91 56.1714H337.55V56.3133H336.625Z" fill="#C1E3FE"/>
<path d="M350.067 56.1005C350.139 56.1714 350.281 56.1714 350.423 56.1714C350.707 56.1714 350.779 56.0296 350.779 55.8877C350.779 55.6749 350.565 55.604 350.423 55.604H350.281V55.4622H350.423C350.565 55.4622 350.779 55.3912 350.779 55.1785C350.779 55.0366 350.707 54.9657 350.494 54.9657C350.352 54.9657 350.281 55.0366 350.21 55.0366L350.138 54.8948C350.21 54.8239 350.352 54.7529 350.494 54.7529C350.779 54.7529 350.921 54.8948 350.921 55.1075C350.921 55.2494 350.85 55.3912 350.636 55.4622C350.85 55.5331 350.992 55.604 350.992 55.8168C350.992 56.0296 350.779 56.2423 350.423 56.2423C350.281 56.2423 350.139 56.1714 350.067 56.1714V56.1005Z" fill="#C1E3FE"/>
<path d="M364.007 56.3133V55.8877H363.296V55.7459L363.936 54.8239H364.15V55.7459H364.363V55.8877H364.15V56.3133H364.007ZM364.007 55.7459V55.2494C364.007 55.1785 364.007 55.1076 364.007 55.0366C363.936 55.1076 363.936 55.1785 363.865 55.2494L363.51 55.7459H364.007Z" fill="#C1E3FE"/>
<path d="M377.663 55.0366H377.094L377.023 55.3913C377.023 55.3913 377.094 55.3913 377.165 55.3913C377.307 55.3913 377.379 55.3913 377.45 55.4622C377.592 55.5331 377.663 55.675 377.663 55.8168C377.663 56.1005 377.45 56.3133 377.094 56.3133C376.952 56.3133 376.81 56.2423 376.739 56.2423L376.81 56.1005C376.881 56.1714 377.023 56.1714 377.094 56.1714C377.308 56.1714 377.45 56.0296 377.45 55.8877C377.45 55.675 377.307 55.5331 377.023 55.5331C376.952 55.5331 376.881 55.5331 376.81 55.5331L376.881 54.8239H377.592V55.0366H377.663Z" fill="#C1E3FE"/>
<path d="M384.562 0.0709229H316.995V53.0508H384.562V0.0709229Z" stroke="#C1E3FE" stroke-width="0.1867" stroke-miterlimit="10"/>
<path d="M316.995 44.2563H384.562" stroke="#C1E3FE" stroke-width="0.1867" stroke-miterlimit="10"/>
<path d="M316.995 35.3908H384.562" stroke="#C1E3FE" stroke-width="0.1867" stroke-miterlimit="10"/>
<path d="M316.995 26.5254H384.562" stroke="#C1E3FE" stroke-width="0.1867" stroke-miterlimit="10"/>
<path d="M316.995 17.7309H384.562" stroke="#C1E3FE" stroke-width="0.1867" stroke-miterlimit="10"/>
<path d="M316.995 8.86542H384.562" stroke="#C1E3FE" stroke-width="0.1867" stroke-miterlimit="10"/>
<path d="M371.049 0.0709229V53.0508" stroke="#C1E3FE" stroke-width="0.1867" stroke-miterlimit="10"/>
<path d="M357.535 0.0709229V53.0508" stroke="#C1E3FE" stroke-width="0.1867" stroke-miterlimit="10"/>
<path d="M344.022 0.0709229V53.0508" stroke="#C1E3FE" stroke-width="0.1867" stroke-miterlimit="10"/>
<path d="M330.509 0.0709229V53.0508" stroke="#C1E3FE" stroke-width="0.1867" stroke-miterlimit="10"/>
<path d="M325.388 30.4971H322.116V53.0508H325.388V30.4971Z" fill="#006064"/>
<path d="M338.901 30.4971H335.629V53.0508H338.901V30.4971Z" fill="#B7FBFE"/>
<path d="M352.414 30.4971H349.143V53.0508H352.414V30.4971Z" fill="#00C6CE"/>
<path d="M365.928 30.4971H362.656V53.0508H365.928V30.4971Z" fill="#006064"/>
<path d="M379.441 30.4971H376.17V53.0508H379.441V30.4971Z" fill="#00C6CE"/>
<path d="M325.388 26.5254H322.116V30.4971H325.388V26.5254Z" fill="#006064"/>
<path d="M338.901 13.1208H335.629V30.4971H338.901V13.1208Z" fill="#B7FBFE"/>
<path d="M365.928 15.2485H362.656V30.4971H365.928V15.2485Z" fill="#006064"/>
<path d="M379.441 2.12769H376.17V30.4971H379.441V2.12769Z" fill="#00C6CE"/>
<path d="M332.642 17.7309C332.642 19.7167 331.006 21.348 329.015 21.348C327.024 21.348 325.388 19.7167 325.388 17.7309C325.388 15.745 327.024 14.1138 329.015 14.1138C331.006 14.1138 332.642 15.745 332.642 17.7309Z" fill="#B7FBFE"/>
<path d="M328.304 18.7947V18.1564H327.237V17.9436L328.304 16.4542H328.659V17.8727H329.015V18.0855H328.588V18.7238H328.304V18.7947ZM328.304 17.8727V17.0925C328.304 16.9507 328.304 16.8798 328.304 16.7379C328.233 16.8798 328.162 16.9507 328.09 17.0925L327.521 17.8727H328.304Z" fill="#ECF6F8"/>
<path d="M330.58 16.7379H329.726L329.655 17.3053C329.726 17.3053 329.726 17.3053 329.868 17.3053C330.082 17.3053 330.224 17.3762 330.366 17.4472C330.58 17.5181 330.722 17.7308 330.722 18.0145C330.722 18.4401 330.366 18.7947 329.868 18.7947C329.584 18.7947 329.371 18.7238 329.299 18.6529L329.371 18.4401C329.442 18.511 329.655 18.5819 329.868 18.5819C330.153 18.5819 330.437 18.3692 330.437 18.0855C330.437 17.8018 330.224 17.589 329.797 17.589C329.655 17.589 329.584 17.589 329.442 17.589L329.584 16.4542H330.722V16.7379H330.58Z" fill="#ECF6F8"/>
<path d="M332.642 17.7308H335.629" stroke="#C2DEFF" stroke-width="0.4552" stroke-miterlimit="10"/>
<path d="M373.182 8.86545C373.182 10.8513 371.547 12.4825 369.555 12.4825C367.564 12.4825 365.928 10.8513 365.928 8.86545C365.928 6.87959 367.564 5.24835 369.555 5.24835C371.547 5.24835 373.182 6.87959 373.182 8.86545Z" fill="#00C6CE"/>
<path d="M369.271 7.8725H368.417L368.346 8.43989C368.417 8.43989 368.417 8.43989 368.559 8.43989C368.773 8.43989 368.915 8.51081 369.057 8.58174C369.271 8.65266 369.413 8.86543 369.413 9.14912C369.413 9.57466 369.057 9.92928 368.559 9.92928C368.275 9.92928 368.061 9.85836 367.99 9.78744L368.061 9.57466C368.133 9.64559 368.346 9.71651 368.559 9.71651C368.844 9.71651 369.128 9.50374 369.128 9.22005C369.128 8.93635 368.915 8.72358 368.488 8.72358C368.346 8.72358 368.275 8.72358 368.133 8.72358L368.275 7.58881H369.413V7.8725H369.271Z" fill="#ECF6F8"/>
<path d="M369.697 9.36189C369.697 9.0782 369.84 8.86543 370.124 8.72358C369.84 8.58174 369.768 8.36897 369.768 8.22712C369.768 7.8725 370.053 7.58881 370.48 7.58881C370.906 7.58881 371.12 7.8725 371.12 8.15619C371.12 8.36897 371.049 8.58174 370.764 8.72358C371.049 8.86543 371.262 9.00728 371.262 9.29097C371.262 9.71651 370.906 9.92928 370.48 9.92928C369.982 10.0002 369.697 9.71651 369.697 9.36189ZM370.977 9.36189C370.977 9.0782 370.764 8.93635 370.48 8.86543C370.195 8.93635 370.053 9.14912 370.053 9.36189C370.053 9.57467 370.195 9.78744 370.551 9.78744C370.764 9.78744 370.977 9.57467 370.977 9.36189ZM370.053 8.22712C370.053 8.43989 370.195 8.58174 370.48 8.65266C370.693 8.58174 370.835 8.43989 370.835 8.22712C370.835 8.01435 370.693 7.8725 370.408 7.8725C370.195 7.80158 370.053 8.01435 370.053 8.22712Z" fill="#ECF6F8"/>
</g>
<defs>
<linearGradient id="paint0_linear" x1="295.351" y1="138.334" x2="309.453" y2="143.333" gradientUnits="userSpaceOnUse">
<stop stop-color="#D1DBEA"/>
<stop offset="1" stop-color="#DBE7F3"/>
</linearGradient>
<clipPath id="clip0">
<rect width="399" height="331" fill="white"/>
</clipPath>
</defs>
</svg>
