<svg width="143" height="255" viewBox="0 0 143 255" fill="none" xmlns="http://www.w3.org/2000/svg">
<g clip-path="url(#clip0)">
<path d="M139.425 136.919H40.8042C38.8318 136.919 37.106 138.52 37.106 140.613V142.707C37.106 144.677 38.7085 146.4 40.8042 146.4H139.425C141.397 146.4 143.123 144.8 143.123 142.707V140.613C143 138.643 141.397 136.919 139.425 136.919Z" fill="white"/>
<path d="M140.165 146.4H40.0647V230.374H140.165V146.4Z" fill="#F6F6F6"/>
<path d="M140.165 146.4H40.0647V149.355H140.165V146.4Z" fill="#DADADA"/>
<path d="M140.165 166.84H40.0647V167.948H140.165V166.84Z" fill="#9D9D9C"/>
<path d="M140.165 198.238H40.0647V199.346H140.165V198.238Z" fill="#9D9D9C"/>
<path d="M100.223 151.818H80.0059C79.2663 151.818 78.6499 152.434 78.6499 153.172V153.419C78.6499 154.157 79.2663 154.773 80.0059 154.773H100.223C100.963 154.773 101.579 154.157 101.579 153.419V153.172C101.579 152.434 100.963 151.818 100.223 151.818Z" fill="#878787"/>
<path d="M100.1 173.119H80.1292C79.2663 173.119 78.6499 173.735 78.6499 174.597C78.6499 175.459 79.2663 176.074 80.1292 176.074H100.1C100.963 176.074 101.579 175.459 101.579 174.597C101.579 173.735 100.963 173.119 100.1 173.119Z" fill="#878787"/>
<path d="M100.1 204.025H80.1292C79.2663 204.025 78.6499 204.64 78.6499 205.502C78.6499 206.364 79.2663 206.98 80.1292 206.98H100.1C100.963 206.98 101.579 206.364 101.579 205.502C101.579 204.763 100.963 204.025 100.1 204.025Z" fill="#878787"/>
<path d="M143 230.374H5.17773V235.669H143V230.374Z" fill="white"/>
<path d="M131.289 248.474C136.22 248.474 140.165 244.534 140.165 239.609V235.669H131.289V248.474Z" fill="white"/>
<path d="M129.686 240.225C125.618 240.225 122.29 243.549 122.29 247.612C122.29 251.676 125.618 255 129.686 255C133.754 255 137.083 251.676 137.083 247.612C136.96 243.549 133.754 240.225 129.686 240.225Z" fill="#545454"/>
<path d="M129.686 242.81C127.098 242.81 124.879 244.903 124.879 247.612C124.879 250.198 126.974 252.414 129.686 252.414C132.275 252.414 134.494 250.321 134.494 247.612C134.371 245.026 132.275 242.81 129.686 242.81Z" fill="#959595"/>
<path d="M8.99902 248.474C13.9301 248.474 17.8749 244.534 17.8749 239.609V235.669H8.99902V248.474Z" fill="white"/>
<path d="M7.39655 240.225C3.32845 240.225 0 243.549 0 247.612C0 251.676 3.32845 255 7.39655 255C11.4647 255 14.7931 251.676 14.7931 247.612C14.6698 243.549 11.4647 240.225 7.39655 240.225Z" fill="#545454"/>
<path d="M7.39663 242.81C4.80783 242.81 2.58887 244.903 2.58887 247.612C2.58887 250.198 4.68456 252.414 7.39663 252.414C9.98542 252.414 12.2044 250.321 12.2044 247.612C12.0811 245.026 9.98542 242.81 7.39663 242.81Z" fill="#959595"/>
<path d="M140.781 61.072H62.9939V137.043H140.781V61.072Z" fill="#F6F6F6"/>
<path d="M139.425 55.1619H40.8042C38.8318 55.1619 37.106 56.7625 37.106 58.8557V59.9639C37.106 61.934 38.7085 63.6578 40.8042 63.6578H139.425C141.397 63.6578 143.123 62.0571 143.123 59.9639V58.8557C143 56.7625 141.397 55.1619 139.425 55.1619Z" fill="white"/>
<path d="M135.727 67.7209H67.5552V107.492H135.727V67.7209Z" fill="#9D9D9C"/>
<path d="M135.727 114.264H67.5552V136.919H135.727V114.264Z" fill="#B2B2B2"/>
<path d="M115.879 82.0039H99.6067V107.492H115.879V82.0039Z" fill="white"/>
<path d="M133.754 82.0039H117.482V107.492H133.754V82.0039Z" fill="white"/>
<path d="M90.1148 103.059H53.2554V107.615H90.1148V103.059Z" fill="#B2B2B2"/>
<path d="M113.414 78.6794H102.319V82.0039H113.414V78.6794Z" fill="#00B3BA"/>
<path d="M131.165 78.6794H120.071V82.0039H131.165V78.6794Z" fill="#00B3BA"/>
<path d="M129.563 117.096H105.771V134.334H129.563V117.096Z" fill="#DADADA"/>
<path d="M123.646 118.573C121.797 118.573 120.317 120.051 120.317 121.898C120.317 123.745 121.797 125.222 123.646 125.222C125.495 125.222 126.974 123.745 126.974 121.898C126.974 120.051 125.495 118.573 123.646 118.573ZM123.646 124.483C122.29 124.483 121.057 123.375 121.057 121.898C121.057 120.42 122.167 119.312 123.646 119.312C125.002 119.312 126.235 120.42 126.235 121.898C126.235 123.375 125.125 124.483 123.646 124.483Z" fill="#B2B2B2"/>
<path d="M123.646 126.207C121.797 126.207 120.317 127.685 120.317 129.532C120.317 131.379 121.797 132.856 123.646 132.856C125.495 132.856 126.974 131.379 126.974 129.532C126.974 127.685 125.495 126.207 123.646 126.207ZM123.646 131.994C122.29 131.994 121.057 130.886 121.057 129.409C121.057 127.931 122.167 126.823 123.646 126.823C125.002 126.823 126.235 127.931 126.235 129.409C126.235 130.886 125.125 131.994 123.646 131.994Z" fill="#B2B2B2"/>
<path d="M113.044 118.573H110.948C109.962 118.573 109.222 119.435 109.222 120.297V130.886C109.222 131.871 110.085 132.61 110.948 132.61H113.044C114.03 132.61 114.77 131.748 114.77 130.886V120.297C114.77 119.435 114.03 118.573 113.044 118.573ZM114.03 131.009C114.03 131.625 113.537 131.994 113.044 131.994H110.948C110.332 131.994 109.962 131.502 109.962 131.009V120.42C109.962 119.805 110.455 119.435 110.948 119.435H113.044C113.66 119.435 114.03 119.928 114.03 120.42V131.009Z" fill="#B2B2B2"/>
<path d="M39.9415 198.73H8.87598V230.374H39.9415V198.73Z" fill="#B2B2B2"/>
<path d="M13.3139 165.855H8.87598V222.863H13.3139V165.855Z" fill="#B2B2B2"/>
<path d="M55.7208 136.919H92.0872L93.4432 133.349H54.3647L55.7208 136.919Z" fill="#6EB0C3"/>
<path d="M93.9364 132.487H53.995C53.6252 132.487 53.2554 132.856 53.2554 133.226V133.349C53.2554 133.718 53.6252 134.087 53.995 134.087H93.9364C94.3062 134.087 94.6761 133.718 94.6761 133.349V133.226C94.5528 132.856 94.3062 132.487 93.9364 132.487Z" fill="#6EB0C3"/>
<path d="M124.632 0H83.7044C81.732 0 80.1294 1.60068 80.1294 3.57074V35.4611C80.1294 37.4312 81.732 39.0319 83.7044 39.0319H124.632C126.604 39.0319 128.207 37.4312 128.207 35.4611V3.57074C128.207 1.60068 126.604 0 124.632 0Z" fill="#F6F6F6"/>
<path d="M122.166 4.43262H86.1699V30.9053H122.166V4.43262Z" fill="#3C3C3B"/>
<path d="M133.631 39.032H74.7052C73.2259 39.032 71.9932 40.2633 71.9932 41.7408V52.453C71.9932 53.9306 73.2259 55.1619 74.7052 55.1619H133.754C135.234 55.1619 136.466 53.9306 136.466 52.453V41.7408C136.466 40.2633 135.234 39.032 133.631 39.032Z" fill="#EDEDED"/>
<path d="M84.5673 34.353C84.0742 34.353 83.8276 34.7224 83.8276 35.0918C83.8276 35.4612 84.1975 35.8306 84.5673 35.8306C85.0604 35.8306 85.3069 35.4612 85.3069 35.0918C85.3069 34.7224 85.0604 34.353 84.5673 34.353Z" fill="#00B3BA"/>
<path d="M88.5121 34.353C88.019 34.353 87.7725 34.7224 87.7725 35.0918C87.7725 35.4612 88.1423 35.8306 88.5121 35.8306C89.0052 35.8306 89.2518 35.4612 89.2518 35.0918C89.2518 34.7224 89.0052 34.353 88.5121 34.353Z" fill="#00B3BA"/>
<path d="M92.4569 34.353C91.9638 34.353 91.7173 34.7224 91.7173 35.0918C91.7173 35.4612 92.0871 35.8306 92.4569 35.8306C92.95 35.8306 93.1966 35.4612 93.1966 35.0918C93.1966 34.7224 92.8268 34.353 92.4569 34.353Z" fill="#00B3BA"/>
<path d="M96.4018 34.353C95.9087 34.353 95.6621 34.7224 95.6621 35.0918C95.6621 35.4612 96.0319 35.8306 96.4018 35.8306C96.8949 35.8306 97.1414 35.4612 97.1414 35.0918C97.1414 34.7224 96.7716 34.353 96.4018 34.353Z" fill="#00B3BA"/>
<path d="M100.224 34.353C99.7304 34.353 99.4839 34.7224 99.4839 35.0918C99.4839 35.4612 99.8537 35.8306 100.224 35.8306C100.593 35.8306 100.963 35.4612 100.963 35.0918C100.963 34.7224 100.717 34.353 100.224 34.353Z" fill="#00B3BA"/>
<path d="M104.168 34.353C103.675 34.353 103.428 34.7224 103.428 35.0918C103.428 35.4612 103.798 35.8306 104.168 35.8306C104.661 35.8306 104.908 35.4612 104.908 35.0918C104.908 34.7224 104.661 34.353 104.168 34.353Z" fill="#00B3BA"/>
<path d="M108.113 34.353C107.62 34.353 107.373 34.7224 107.373 35.0918C107.373 35.4612 107.743 35.8306 108.113 35.8306C108.483 35.8306 108.853 35.4612 108.853 35.0918C108.853 34.7224 108.483 34.353 108.113 34.353Z" fill="#00B3BA"/>
<path d="M112.058 34.353C111.565 34.353 111.318 34.7224 111.318 35.0918C111.318 35.4612 111.688 35.8306 112.058 35.8306C112.551 35.8306 112.797 35.4612 112.797 35.0918C112.797 34.7224 112.428 34.353 112.058 34.353Z" fill="#00B3BA"/>
<path d="M115.879 34.353C115.386 34.353 115.14 34.7224 115.14 35.0918C115.14 35.4612 115.509 35.8306 115.879 35.8306C116.372 35.8306 116.619 35.4612 116.619 35.0918C116.619 34.7224 116.372 34.353 115.879 34.353Z" fill="#00B3BA"/>
<path d="M119.824 34.353C119.331 34.353 119.085 34.7224 119.085 35.0918C119.085 35.4612 119.455 35.8306 119.824 35.8306C120.317 35.8306 120.564 35.4612 120.564 35.0918C120.564 34.7224 120.317 34.353 119.824 34.353Z" fill="#00B3BA"/>
<path d="M123.769 34.353C123.276 34.353 123.029 34.7224 123.029 35.0918C123.029 35.4612 123.399 35.8306 123.769 35.8306C124.262 35.8306 124.509 35.4612 124.509 35.0918C124.509 34.7224 124.139 34.353 123.769 34.353Z" fill="#00B3BA"/>
<path d="M76.8009 44.8188C76.3078 44.8188 75.938 45.1882 75.938 45.6807C75.938 46.1733 76.3078 46.5427 76.8009 46.5427C77.294 46.5427 77.6638 46.1733 77.6638 45.6807C77.6638 45.1882 77.294 44.8188 76.8009 44.8188Z" fill="#00B3BA"/>
<path d="M80.9923 44.8188C80.4992 44.8188 80.1294 45.1882 80.1294 45.6807C80.1294 46.1733 80.4992 46.5427 80.9923 46.5427C81.4854 46.5427 81.8553 46.1733 81.8553 45.6807C81.8553 45.1882 81.4854 44.8188 80.9923 44.8188Z" fill="white"/>
<path d="M85.1837 44.8188C84.6906 44.8188 84.3208 45.1882 84.3208 45.6807C84.3208 46.1733 84.6906 46.5427 85.1837 46.5427C85.6768 46.5427 86.0467 46.1733 86.0467 45.6807C85.9234 45.1882 85.5536 44.8188 85.1837 44.8188Z" fill="#00B3BA"/>
<path d="M89.2519 44.8188C88.7588 44.8188 88.3889 45.1882 88.3889 45.6807C88.3889 46.1733 88.7588 46.5427 89.2519 46.5427C89.745 46.5427 90.1148 46.1733 90.1148 45.6807C90.1148 45.1882 89.745 44.8188 89.2519 44.8188Z" fill="#00B3BA"/>
<path d="M93.443 44.8188C92.9499 44.8188 92.5801 45.1882 92.5801 45.6807C92.5801 46.1733 92.9499 46.5427 93.443 46.5427C93.9361 46.5427 94.3059 46.1733 94.3059 45.6807C94.3059 45.1882 93.9361 44.8188 93.443 44.8188Z" fill="#00B3BA"/>
<path d="M97.6344 44.8188C97.1413 44.8188 96.7715 45.1882 96.7715 45.6807C96.7715 46.1733 97.1413 46.5427 97.6344 46.5427C98.1275 46.5427 98.4974 46.1733 98.4974 45.6807C98.4974 45.1882 98.1275 44.8188 97.6344 44.8188Z" fill="white"/>
<path d="M101.826 46.4196C102.302 46.4196 102.689 46.0337 102.689 45.5577C102.689 45.0817 102.302 44.6958 101.826 44.6958C101.349 44.6958 100.963 45.0817 100.963 45.5577C100.963 46.0337 101.349 46.4196 101.826 46.4196Z" fill="#00B3BA"/>
<path d="M76.8009 49.3748C76.3078 49.3748 75.938 49.7441 75.938 50.2367C75.938 50.7292 76.3078 51.0986 76.8009 51.0986C77.294 51.0986 77.6638 50.7292 77.6638 50.2367C77.6638 49.7441 77.294 49.3748 76.8009 49.3748Z" fill="#9D9D9C"/>
<path d="M80.9923 49.3748C80.4992 49.3748 80.1294 49.7441 80.1294 50.2367C80.1294 50.7292 80.4992 51.0986 80.9923 51.0986C81.4854 51.0986 81.8553 50.7292 81.8553 50.2367C81.8553 49.7441 81.4854 49.3748 80.9923 49.3748Z" fill="#9D9D9C"/>
<path d="M85.1837 49.3748C84.6906 49.3748 84.3208 49.7441 84.3208 50.2367C84.3208 50.7292 84.6906 51.0986 85.1837 51.0986C85.6768 51.0986 86.0467 50.7292 86.0467 50.2367C85.9234 49.7441 85.5536 49.3748 85.1837 49.3748Z" fill="#9D9D9C"/>
<path d="M89.2519 49.3748C88.7588 49.3748 88.3889 49.7441 88.3889 50.2367C88.3889 50.7292 88.7588 51.0986 89.2519 51.0986C89.745 51.0986 90.1148 50.7292 90.1148 50.2367C90.1148 49.7441 89.745 49.3748 89.2519 49.3748Z" fill="#9D9D9C"/>
<path d="M93.443 49.3748C92.9499 49.3748 92.5801 49.7441 92.5801 50.2367C92.5801 50.7292 92.9499 51.0986 93.443 51.0986C93.9361 51.0986 94.3059 50.7292 94.3059 50.2367C94.3059 49.7441 93.9361 49.3748 93.443 49.3748Z" fill="#9D9D9C"/>
<path d="M97.6344 49.3748C97.1413 49.3748 96.7715 49.7441 96.7715 50.2367C96.7715 50.7292 97.1413 51.0986 97.6344 51.0986C98.1275 51.0986 98.4974 50.7292 98.4974 50.2367C98.4974 49.7441 98.1275 49.3748 97.6344 49.3748Z" fill="#9D9D9C"/>
<path d="M101.826 51.0986C102.302 51.0986 102.689 50.7127 102.689 50.2367C102.689 49.7606 102.302 49.3748 101.826 49.3748C101.349 49.3748 100.963 49.7606 100.963 50.2367C100.963 50.7127 101.349 51.0986 101.826 51.0986Z" fill="#9D9D9C"/>
<path d="M132.645 42.4795H108.113V51.9604H132.645V42.4795Z" fill="white"/>
<path d="M53.625 54.9156H55.1043C55.1043 39.1551 67.925 26.2266 83.8276 26.2266V24.749C67.1853 24.749 53.625 38.2932 53.625 54.9156Z" fill="#F6F6F6"/>
<path d="M47.7078 42.972V55.0386H49.1871V42.972C49.1871 30.7822 59.0491 20.9319 71.2535 20.9319H83.3345V19.4543H71.2535C58.3095 19.4543 47.7078 30.0434 47.7078 42.972Z" fill="#F6F6F6"/>
<path d="M62.2544 26.7189V54.9154H63.7337V26.7189C63.7337 17.7305 71.1303 10.3428 80.1294 10.3428V8.86523C70.2673 8.86523 62.2544 16.8686 62.2544 26.7189Z" fill="#F6F6F6"/>
<path d="M40.8043 107.615V92.5929C40.8043 87.914 44.3793 83.9739 48.8172 83.9739V82.4963C43.5163 82.4963 39.325 87.0521 39.325 92.716V107.738C39.325 113.402 43.6396 117.957 48.8172 117.957H62.9939V116.357H48.8172C44.3793 116.234 40.8043 112.417 40.8043 107.615Z" fill="#F6F6F6"/>
<path d="M95.2922 67.7209H47.2146V102.936H95.2922V67.7209Z" fill="#EDEDED"/>
<path d="M89.2517 72.1536H53.2551V98.6263H89.2517V72.1536Z" fill="#3C3C3B"/>
<path d="M74.7054 85.2051C74.5821 85.082 74.4588 85.082 74.3355 85.082C74.2123 85.082 74.089 85.2051 74.089 85.3283L71.7467 92.5929L69.5278 76.7092C69.5278 76.5861 69.4045 76.3398 69.158 76.3398C68.9114 76.3398 68.7881 76.463 68.7881 76.5861L65.7062 87.1752H53.2554V87.914H65.9528C66.0761 87.914 66.3226 87.7908 66.3226 87.6677L69.0347 78.433L71.2536 94.1935C71.2536 94.3167 71.3769 94.4398 71.6235 94.5629C71.7467 94.5629 71.87 94.4398 71.9933 94.3167L74.5821 86.3133L75.6916 87.7908C75.8149 87.914 75.8148 87.914 75.9381 87.914H89.2519V87.1752H76.1847L74.7054 85.2051Z" fill="#E83F40"/>
<path d="M115.633 11.0816C115.509 10.9584 115.386 10.9584 115.263 10.9584C115.139 10.9584 115.016 11.0816 115.016 11.2047L114.153 13.5441L113.29 7.3877C113.29 7.26457 113.167 7.01831 112.921 7.01831C112.797 7.01831 112.551 7.14144 112.551 7.26457L111.195 11.8203H106.633L106.14 11.0816C106.017 10.9584 105.894 10.9584 105.771 10.9584C105.647 10.9584 105.524 11.0816 105.524 11.2047L104.661 13.5441L103.798 7.3877C103.798 7.26457 103.675 7.01831 103.428 7.01831C103.182 7.01831 103.058 7.14144 103.058 7.26457L101.702 11.8203H96.2783L95.7852 11.0816C95.6619 10.9584 95.5386 10.9584 95.4153 10.9584C95.2921 10.9584 95.1688 11.0816 95.1688 11.2047L94.3059 13.5441L93.4429 7.3877C93.4429 7.26457 93.3197 7.01831 93.0731 7.01831C92.8266 7.01831 92.7033 7.14144 92.7033 7.26457L91.3472 11.8203H86.0464V12.5591H91.5938C91.7171 12.5591 91.9636 12.436 91.9636 12.3129L92.8266 9.1115L93.6895 15.1448C93.6895 15.268 93.8128 15.3911 94.0593 15.5142C94.1826 15.5142 94.4291 15.3911 94.4291 15.2679L95.4153 12.0666L95.6619 12.436C95.7852 12.5591 95.7852 12.5591 95.9085 12.5591H101.702C101.826 12.5591 102.072 12.436 102.072 12.3129L102.935 9.1115L103.798 15.1448C103.798 15.268 103.921 15.3911 104.168 15.5142C104.291 15.5142 104.414 15.3911 104.538 15.2679L105.524 12.0666L105.771 12.436C105.894 12.5591 105.894 12.5591 106.017 12.5591H111.071C111.195 12.5591 111.441 12.436 111.441 12.3129L112.304 9.1115L113.167 15.1448C113.167 15.268 113.29 15.3911 113.537 15.5142C113.66 15.5142 113.907 15.3911 113.907 15.2679L114.893 12.0666L115.139 12.436C115.263 12.5591 115.263 12.5591 115.386 12.5591H121.673V11.8203H115.633V11.0816Z" fill="#E83F40"/>
<path d="M115.633 23.1482C115.509 23.0251 115.386 23.0251 115.263 23.0251C115.14 23.0251 115.016 23.1482 115.016 23.2713L114.277 25.6108L113.414 19.4543C113.414 19.3312 113.29 19.085 113.044 19.085C112.921 19.085 112.674 19.2081 112.674 19.3312L111.318 23.887H106.757L106.14 23.1482C106.017 23.0251 105.894 23.0251 105.771 23.0251C105.647 23.0251 105.524 23.1482 105.524 23.2713L104.784 25.6108L103.921 19.4543C103.921 19.3312 103.798 19.085 103.552 19.085C103.305 19.085 103.182 19.2081 103.182 19.3312L101.826 23.887H96.4016L95.7852 23.1482C95.6619 23.0251 95.5386 23.0251 95.4154 23.0251C95.2921 23.0251 95.1688 23.1482 95.1688 23.2713L94.4292 25.6108L93.5662 19.4543C93.5662 19.3312 93.443 19.085 93.1964 19.085C92.9498 19.085 92.8266 19.2081 92.8266 19.3312L91.4705 23.887H86.1697V24.6258H91.7171C91.8404 24.6258 92.0869 24.5026 92.0869 24.3795L92.9499 21.1782L93.8128 27.2115C93.8128 27.3346 93.9361 27.4577 94.1826 27.5809C94.3059 27.5809 94.5524 27.4577 94.5524 27.3346L95.5386 24.1332L95.7852 24.5026C95.9085 24.6258 95.9085 24.6258 96.0317 24.6258H101.826C101.949 24.6258 102.196 24.5026 102.196 24.3795L103.058 21.1782L103.921 27.2115C103.921 27.3346 104.045 27.4577 104.291 27.5809C104.415 27.5809 104.538 27.4577 104.661 27.3346L105.647 24.1332L105.894 24.5026C106.017 24.6258 106.017 24.6258 106.14 24.6258H111.195C111.318 24.6258 111.565 24.5026 111.565 24.3795L112.427 21.1782L113.29 27.2115C113.29 27.3346 113.414 27.4577 113.66 27.5809C113.783 27.5809 114.03 27.4577 114.03 27.3346L115.016 24.1332L115.263 24.5026C115.386 24.6258 115.386 24.6258 115.509 24.6258H121.796V23.887H115.756L115.633 23.1482Z" fill="#E83F40"/>
<path d="M26.5043 114.633H22.0664V126.084H26.5043V114.633Z" fill="white"/>
<path d="M35.0103 133.226H13.5603V198.976H35.0103V133.226Z" fill="#00B3BA"/>
<path d="M24.2853 122.513C18.3681 122.513 13.5603 127.315 13.5603 133.226C13.5603 139.136 18.3681 146.154 24.2853 146.154C30.2025 146.154 35.0103 139.136 35.0103 133.226C35.0103 127.315 30.2025 122.513 24.2853 122.513Z" fill="#00B3BA"/>
<path d="M18.8611 116.111H22.0663H26.5042L32.2982 115.372V113.402H18.8611V116.111Z" fill="white"/>
</g>
<defs>
<clipPath id="clip0">
<rect width="143" height="255" fill="white"/>
</clipPath>
</defs>
</svg>
