<svg width="967" height="596" viewBox="0 0 967 596" fill="none" xmlns="http://www.w3.org/2000/svg">
<path d="M26.8351 73.6985V74.8234C26.8351 75.1046 26.7413 75.4795 26.6475 75.7607V74.6359C26.8351 74.2609 26.8351 73.9797 26.8351 73.6985Z" fill="#8F8F8F"/>
<path d="M26.7416 74.5421V75.667C26.6478 76.0419 26.4601 76.3231 26.2725 76.6044V75.4795C26.4601 75.1983 26.6478 74.9171 26.7416 74.5421Z" fill="#949494"/>
<path d="M26.2718 75.5733V76.6981C26.178 76.8856 26.0841 76.9793 25.9903 77.1668L25.8965 77.2605V76.1357L25.9903 76.0419C26.0841 75.8545 26.178 75.667 26.2718 75.5733Z" fill="#999999"/>
<path d="M25.8966 76.1357V77.2605C25.8027 77.3543 25.8027 77.448 25.8027 77.5417V76.4169C25.8027 76.3232 25.8027 76.2294 25.8966 76.1357Z" fill="#949494"/>
<path d="M18.5783 80.2601V81.3849C18.5783 81.1037 18.4844 80.9162 18.2968 80.635C18.1091 80.3538 17.7338 80.0726 17.2646 79.8851V78.7603C17.7338 78.9478 18.0153 79.1352 18.2968 79.5102C18.4844 79.7914 18.5783 79.9789 18.5783 80.2601Z" fill="#858585"/>
<path d="M17.3588 78.8541V79.9789C17.1711 79.8852 17.0773 79.8852 16.8896 79.7914V78.6666C16.9835 78.6666 17.1711 78.7603 17.3588 78.8541Z" fill="#8A8A8A"/>
<path d="M16.8895 78.6666V79.7914C16.7956 79.7914 16.7956 79.7914 16.7018 79.7914C16.4203 79.7914 16.2327 79.6977 15.9512 79.6977V78.5728C16.2327 78.6666 16.4203 78.6666 16.7018 78.6666C16.7018 78.6666 16.7956 78.6666 16.8895 78.6666Z" fill="#8F8F8F"/>
<path d="M15.9515 78.4791V79.6039C15.3886 79.5102 14.8256 79.3227 14.3564 79.1353V78.0104C14.8256 78.1979 15.3886 78.3854 15.9515 78.4791Z" fill="#8A8A8A"/>
<path d="M14.3562 78.0104V79.1353C12.8549 78.5728 11.6351 77.7292 10.8845 76.6981C10.3215 75.8545 10.04 75.1046 10.04 74.2609V73.1361C10.04 73.9797 10.2277 74.8234 10.8845 75.5733C11.6351 76.6044 12.8549 77.448 14.3562 78.0104Z" fill="#858585"/>
<path d="M75.7199 85.978V87.1029C75.7199 87.3841 75.6261 87.759 75.5322 88.0403V86.9154C75.6261 86.6342 75.6261 86.2592 75.7199 85.978Z" fill="#8F8F8F"/>
<path d="M75.5326 86.9154V88.0403C75.4388 88.4152 75.2511 88.6964 75.0635 88.9776V87.8528C75.2511 87.5716 75.4388 87.1966 75.5326 86.9154Z" fill="#949494"/>
<path d="M75.0633 87.8528V88.9776C74.7818 89.3526 74.5003 89.7275 74.125 90.0087V88.8839C74.5003 88.6027 74.8756 88.2277 75.0633 87.8528Z" fill="#999999"/>
<path d="M74.1249 88.9776V90.1025C73.2804 90.8524 72.1545 91.4148 70.8409 91.7897C70.4656 91.8835 69.9964 91.9772 69.6211 92.0709V90.9461C69.9964 90.8524 70.4656 90.7586 70.8409 90.6649C72.2483 90.2899 73.3743 89.6338 74.1249 88.9776Z" fill="#9E9E9E"/>
<path d="M69.6207 90.9461V92.0709C68.9639 92.1647 68.4009 92.2584 67.7441 92.2584V91.1336C68.4009 91.1336 69.0577 91.0398 69.6207 90.9461Z" fill="#999999"/>
<path d="M67.8382 91.1336V92.2584C67.2752 92.2584 66.8061 92.2584 66.3369 92.1647V91.0398C66.7122 91.1336 67.2752 91.1336 67.8382 91.1336Z" fill="#949494"/>
<path d="M66.2434 91.0398V92.1647C65.7743 92.0709 65.2113 92.0709 64.7422 91.8835V90.7586C65.2113 90.9461 65.7743 91.0398 66.2434 91.0398Z" fill="#8F8F8F"/>
<path d="M64.7417 90.8524V91.9772C64.2725 91.8835 63.8972 91.7897 63.4281 91.6022C63.3342 91.6022 63.1466 91.5085 63.0527 91.5085V90.3837C63.1466 90.3837 63.3342 90.4774 63.4281 90.4774C63.8972 90.5711 64.3663 90.6649 64.7417 90.8524Z" fill="#8A8A8A"/>
<path d="M63.1469 90.2899V91.4148C62.9592 91.4148 62.8654 91.3211 62.6777 91.3211V90.1962C62.7716 90.2899 62.9592 90.2899 63.1469 90.2899Z" fill="#8F8F8F"/>
<path d="M62.6781 90.2899V91.4148C62.4905 91.4148 62.3966 91.4148 62.209 91.4148V90.2899C62.3966 90.1962 62.4905 90.2899 62.6781 90.2899Z" fill="#949494"/>
<path d="M62.2085 90.1962V91.3211C62.0208 91.3211 61.8332 91.321 61.6455 91.4148V90.2899C61.8332 90.2899 62.0208 90.2899 62.2085 90.1962Z" fill="#999999"/>
<path d="M61.6456 90.2899V91.4148C61.5518 91.4148 61.458 91.4148 61.2703 91.5085C60.895 91.6023 60.5197 91.7897 60.332 91.9772V90.8524C60.6135 90.6649 60.895 90.4774 61.2703 90.3837C61.458 90.3837 61.5518 90.2899 61.6456 90.2899Z" fill="#9E9E9E"/>
<path d="M60.3323 90.8524V91.9772C60.2384 92.0709 60.1446 92.1647 60.0508 92.2584V91.1336C60.1446 91.1336 60.2384 90.9461 60.3323 90.8524Z" fill="#999999"/>
<path d="M60.0509 91.2273V92.3521C59.957 92.4459 59.957 92.5396 59.957 92.6333V91.5085C59.957 91.4148 60.0509 91.321 60.0509 91.2273Z" fill="#949494"/>
<path d="M59.9567 91.5085V92.6334C59.9567 92.7271 59.9567 92.8208 59.9567 92.9146V91.7897C59.8629 91.696 59.9567 91.6023 59.9567 91.5085Z" fill="#8F8F8F"/>
<path d="M14.9188 68.3555C19.1411 67.1369 24.114 68.4493 26.0844 71.1676C27.2104 72.7612 27.1165 74.5421 25.9906 75.9482C25.7091 76.3231 25.6153 76.8856 25.9906 77.3542C26.5536 78.1041 27.8672 78.4791 29.0869 78.1979L46.4453 73.2298L54.6084 84.572C55.2652 85.3219 56.6726 85.6031 57.7986 85.3219C58.5492 85.1344 59.0183 84.7595 59.1122 84.2908C59.6751 82.6973 61.2702 81.3849 63.7098 80.635C67.9321 79.4165 72.905 80.7288 74.8754 83.4471C76.8458 86.1655 75.0631 89.3526 70.8408 90.5711C68.4012 91.2273 65.6802 91.1336 63.4283 90.3837C62.7715 90.1962 62.0209 90.1025 61.2702 90.2899C60.0505 90.6649 59.5813 91.5085 60.0505 92.2584L68.2136 103.601L21.9559 116.724L0 86.5405L17.3583 81.5724C18.3905 81.1975 18.8596 80.2601 18.2966 79.5102C17.9213 79.0415 17.3583 78.7603 16.6077 78.5728C14.1682 78.1979 12.0101 77.073 10.7903 75.4795C8.91374 72.7611 10.6965 69.5741 14.9188 68.3555Z" fill="#E4EEF3"/>
<path d="M68.2138 103.694V104.819L21.8623 118.036L21.9561 116.911L68.2138 103.694Z" fill="#ADADAD"/>
<path d="M21.9559 116.911L21.8621 118.036L0 87.6653V86.5405L21.9559 116.911Z" fill="#808080"/>
<g opacity="0.3">
<path opacity="0.3" d="M244.893 418.744C244.893 418.744 244.893 418.65 244.987 418.65C244.987 418.65 244.893 418.65 244.893 418.744ZM197.791 400.934C197.791 400.84 197.791 400.84 197.791 400.84C197.791 400.934 197.791 400.934 197.791 400.934ZM197.791 400.184C197.791 400.184 197.791 400.278 197.791 400.184C197.791 400.278 197.791 400.184 197.791 400.184ZM197.791 399.434C197.791 399.528 197.791 399.528 197.791 399.621C197.791 399.528 197.791 399.528 197.791 399.434ZM197.416 398.028C197.416 398.028 197.416 398.122 197.51 398.122C197.416 398.122 197.416 398.028 197.416 398.028ZM197.134 397.278C197.134 397.278 197.134 397.372 197.228 397.372C197.134 397.372 197.134 397.372 197.134 397.278ZM196.665 396.434L196.759 396.528C196.665 396.528 196.665 396.528 196.665 396.434ZM196.29 395.872C196.29 395.872 196.196 395.872 196.29 395.872C196.196 395.778 196.196 395.778 196.196 395.778C196.196 395.778 196.196 395.872 196.29 395.872ZM195.539 395.028L195.633 395.122C195.633 395.122 195.633 395.028 195.539 395.028ZM194.883 394.278C194.976 394.372 194.976 394.372 195.07 394.466C194.976 394.466 194.976 394.372 194.883 394.278ZM194.132 393.622C194.226 393.716 194.32 393.81 194.413 393.903C194.32 393.81 194.226 393.716 194.132 393.622ZM193.381 393.06C193.475 393.154 193.569 393.154 193.663 393.247C193.569 393.154 193.475 393.06 193.381 393.06ZM178.181 399.996L178.087 400.09C178.087 400.09 178.087 400.09 178.181 399.996ZM178.369 392.216C178.275 392.31 178.275 392.31 178.181 392.404C178.181 392.404 178.181 392.497 178.087 392.497C178.181 392.404 178.275 392.31 178.369 392.216ZM177.806 393.06C177.899 392.966 177.899 392.779 177.993 392.685C177.899 392.872 177.899 392.966 177.806 393.06Z" fill="#96A9BD"/>
</g>
<path d="M244.612 373.094L244.142 374.594L233.821 389.685L234.29 388.092L244.612 373.094Z" fill="#B5B5B5"/>
<path d="M244.612 373.094L244.142 374.594L233.821 389.685L234.29 388.092L244.612 373.094Z" fill="#A3ABAE"/>
<path d="M234.29 388.092L233.821 389.685L227.065 399.528L227.535 398.028L234.29 388.092Z" fill="#A3ABAE"/>
<path d="M234.29 388.092L233.821 389.592C233.821 389.685 233.728 389.685 233.728 389.779L234.197 388.279C234.197 388.279 234.29 388.186 234.29 388.092Z" fill="#9EA4A7"/>
<path d="M201.638 393.341L201.169 394.841C201.919 392.122 200.23 388.935 196.853 386.592L197.322 385.092C200.793 387.436 202.388 390.623 201.638 393.341Z" fill="#959B9D"/>
<path d="M197.415 385.092L196.946 386.592C196.289 386.123 195.632 385.748 194.976 385.467L195.445 383.967C196.102 384.342 196.758 384.717 197.415 385.092Z" fill="#98A0A2"/>
<path d="M195.352 383.967L194.883 385.467C194.695 385.373 194.413 385.28 194.226 385.186C193.757 384.998 193.381 384.811 192.912 384.717L193.381 383.217C193.85 383.405 194.226 383.499 194.695 383.686C194.883 383.78 195.164 383.874 195.352 383.967Z" fill="#9EA4A7"/>
<path d="M193.381 383.124L192.912 384.624C192.255 384.342 191.504 384.155 190.848 384.061L191.317 382.561C191.974 382.655 192.724 382.936 193.381 383.124Z" fill="#A1A9AC"/>
<path d="M191.317 382.561L190.848 384.061C190.003 383.874 189.065 383.78 188.221 383.686L188.69 382.186C189.534 382.186 190.379 382.374 191.317 382.561Z" fill="#A6AEB1"/>
<path d="M188.596 382.186L188.127 383.686C187.564 383.686 186.907 383.592 186.344 383.686C184.374 383.78 182.591 384.249 181.184 384.998L181.653 383.499C183.06 382.749 184.843 382.28 186.813 382.186C187.47 382.093 188.033 382.093 188.596 382.186Z" fill="#AAB3B6"/>
<path d="M181.746 383.405L181.277 384.905C180.714 385.28 180.151 385.655 179.682 386.03L180.151 384.53C180.62 384.155 181.089 383.78 181.746 383.405Z" fill="#A6AEB1"/>
<path d="M180.151 384.624L179.681 386.123C179.4 386.405 179.118 386.686 178.931 386.967C178.837 387.061 178.743 387.154 178.743 387.248L179.212 385.748C179.306 385.655 179.306 385.561 179.4 385.467C179.588 385.186 179.869 384.905 180.151 384.624Z" fill="#A1A9AC"/>
<path d="M179.213 385.748L178.744 387.248C178.556 387.623 178.368 387.998 178.274 388.467L178.744 386.967C178.837 386.592 179.025 386.217 179.213 385.748Z" fill="#9EA4A7"/>
<path d="M256.527 402.527L256.058 404.027C255.964 404.402 255.777 404.871 255.495 405.246L255.964 403.746C256.246 403.277 256.433 402.902 256.527 402.527Z" fill="#9EA4A7"/>
<path d="M256.059 403.652L255.59 405.152C255.496 405.246 255.496 405.339 255.402 405.433C255.214 405.714 254.933 405.995 254.651 406.277L255.121 404.777C255.402 404.496 255.59 404.214 255.871 403.933C255.871 403.933 255.965 403.839 256.059 403.652Z" fill="#A1A9AC"/>
<path d="M255.12 404.871L254.651 406.37C254.182 406.839 253.619 407.214 253.056 407.495L253.525 405.995C254.088 405.714 254.651 405.339 255.12 404.871Z" fill="#A6AEB1"/>
<path d="M253.525 405.995L253.056 407.495C251.648 408.245 249.865 408.714 247.895 408.808C247.332 408.808 246.769 408.808 246.112 408.808L246.581 407.308C247.144 407.308 247.801 407.402 248.364 407.308C250.241 407.308 252.024 406.839 253.525 405.995Z" fill="#AAB3B6"/>
<path d="M246.582 407.308L246.113 408.808C245.268 408.714 244.33 408.62 243.485 408.433L243.954 406.933C244.799 407.12 245.737 407.308 246.582 407.308Z" fill="#A6AEB1"/>
<path d="M243.954 406.933L243.485 408.433C242.828 408.245 242.078 408.058 241.421 407.87L241.89 406.37C242.547 406.558 243.204 406.745 243.954 406.933Z" fill="#A1A9AC"/>
<path d="M241.797 406.37L241.328 407.87C240.859 407.683 240.483 407.589 240.014 407.401C239.733 407.308 239.545 407.214 239.357 407.12L239.827 405.62C240.014 405.714 240.296 405.808 240.483 405.902C240.953 405.995 241.422 406.183 241.797 406.37Z" fill="#9EA4A7"/>
<path d="M239.826 405.527L239.357 407.027C238.606 406.652 237.95 406.277 237.387 405.902L237.856 404.402C238.513 404.777 239.169 405.152 239.826 405.527Z" fill="#98A0A2"/>
<path d="M237.855 404.402L237.386 405.902C235.322 404.496 234.008 402.808 233.352 401.121C233.164 400.652 232.789 400.09 232.132 399.715L232.601 398.215C233.164 398.59 233.633 399.153 233.821 399.621C234.478 401.309 235.885 402.996 237.855 404.402Z" fill="#959B9D"/>
<path d="M232.601 398.122L232.132 399.621C231.945 399.528 231.757 399.434 231.569 399.246L232.038 397.747C232.226 397.934 232.414 398.028 232.601 398.122Z" fill="#98A0A2"/>
<path d="M232.038 397.84L231.569 399.34C231.475 399.34 231.475 399.246 231.381 399.246C231.287 399.153 231.1 399.153 231.006 399.059L231.475 397.559C231.569 397.559 231.757 397.653 231.85 397.747C231.85 397.747 231.944 397.747 232.038 397.84Z" fill="#9EA4A7"/>
<path d="M231.476 397.559L231.006 399.059C230.819 398.965 230.631 398.965 230.35 398.872L230.819 397.372C231.006 397.465 231.194 397.465 231.476 397.559Z" fill="#A1A9AC"/>
<path d="M230.818 397.372L230.349 398.871C230.068 398.778 229.786 398.778 229.599 398.778L230.068 397.278C230.255 397.278 230.537 397.372 230.818 397.372Z" fill="#A6AEB1"/>
<path d="M230.068 397.278L229.598 398.778C229.411 398.778 229.223 398.778 229.035 398.778C228.472 398.778 227.909 398.965 227.534 399.153L228.003 397.653C228.472 397.465 228.942 397.278 229.505 397.278C229.692 397.278 229.88 397.278 230.068 397.278Z" fill="#AAB3B6"/>
<path d="M228.004 397.653L227.535 399.153C227.347 399.246 227.159 399.34 227.065 399.528L227.535 398.028C227.628 397.84 227.816 397.747 228.004 397.653Z" fill="#A6AEB1"/>
<path d="M227.535 398.028L227.065 399.528L227.535 398.028Z" fill="#A1A9AC"/>
<path d="M180.432 394.091L179.963 395.591C179.963 395.684 179.869 395.872 179.775 395.966L180.245 394.466C180.338 394.278 180.432 394.185 180.432 394.091Z" fill="#9EA4A7"/>
<path d="M180.245 394.466L179.776 395.966C179.776 395.966 179.776 396.059 179.682 396.059C179.588 396.153 179.494 396.247 179.494 396.341L179.963 394.841C180.057 394.747 180.151 394.653 180.151 394.56C180.245 394.466 180.245 394.466 180.245 394.466Z" fill="#A1A9AC"/>
<path d="M179.963 394.841L179.494 396.341C179.494 396.341 179.494 396.341 179.4 396.434L179.963 394.841Z" fill="#A6AEB1"/>
<path d="M179.964 394.841L179.494 396.341C179.307 396.528 179.213 396.528 179.119 396.622L179.588 395.122C179.682 395.028 179.776 395.028 179.964 394.841Z" fill="#A6AEB1"/>
<path d="M179.589 395.122L179.119 396.622C178.087 396.997 177.9 396.997 177.618 396.997L178.087 395.497C178.369 395.497 178.556 395.497 179.589 395.122Z" fill="#AAB3B6"/>
<path d="M178.087 395.497L177.618 396.997C177.43 396.997 177.242 396.997 177.148 396.997L177.618 395.497C177.711 395.497 177.805 395.497 178.087 395.497Z" fill="#AAB3B6"/>
<path d="M177.055 395.403L176.586 396.997L151.064 385.842L151.534 384.249L177.055 395.403Z" fill="#AAB1B4"/>
<path d="M177.524 395.497L177.055 396.997C177.055 396.997 177.055 396.997 176.961 396.997L177.524 395.497Z" fill="#AAB3B6"/>
<path d="M177.524 395.497L177.055 396.997C176.867 396.997 176.774 396.997 176.586 396.903L177.055 395.403C177.149 395.497 177.337 395.497 177.524 395.497Z" fill="#A6AEB1"/>
<path d="M190.754 400.652L190.285 402.152C190.191 401.402 190.191 401.309 190.191 401.215L190.661 399.715C190.754 399.809 190.661 399.903 190.754 400.652Z" fill="#959B9D"/>
<path d="M191.411 401.59L190.942 403.09C190.848 402.902 190.754 402.808 190.66 402.715C190.473 402.527 190.379 402.34 190.379 402.152L190.848 400.652C190.942 400.84 191.036 401.027 191.13 401.215C191.13 401.309 191.223 401.402 191.411 401.59Z" fill="#959B9D"/>
<path d="M191.692 401.871L191.223 403.371C191.129 403.277 191.035 403.183 190.941 403.09L191.411 401.59C191.504 401.684 191.598 401.777 191.692 401.871Z" fill="#959B9D"/>
<path d="M217.214 413.026L216.745 414.619L191.224 403.371L191.693 401.871L217.214 413.026Z" fill="#AAB1B4"/>
<path d="M227.535 398.028L227.066 399.528L216.745 414.619L217.214 413.026L227.535 398.028Z" fill="#A3ABAE"/>
<path d="M255.777 404.027C258.217 400.371 255.402 395.403 249.491 392.779C246.957 391.654 244.236 391.185 241.703 391.279C240.858 391.279 240.014 391.466 239.169 391.56C238.982 391.654 238.7 391.654 238.419 391.654C237.668 391.654 236.918 391.56 236.167 391.185C234.572 390.435 233.727 389.123 234.196 388.092L244.518 373.094L178.837 344.317L151.439 384.249L176.961 395.403C177.149 395.403 177.242 395.403 177.524 395.497C177.618 395.497 177.805 395.497 177.993 395.497C178.275 395.497 178.556 395.403 179.494 395.122C179.588 395.028 179.682 395.028 179.87 394.841C179.963 394.747 180.057 394.653 180.151 394.56C180.62 393.903 180.433 393.154 179.963 392.497C178.275 390.154 177.899 387.623 179.307 385.467C180.714 383.405 183.529 382.28 186.813 382.093C189.252 381.999 192.067 382.468 194.601 383.592C200.512 386.217 203.327 391.279 200.887 394.841C199.48 396.903 196.665 398.028 193.099 398.215C192.161 398.215 191.317 398.59 190.848 399.153C190.754 399.246 190.754 399.434 190.66 399.621C190.66 399.715 190.66 399.809 190.754 400.559C190.848 400.746 190.941 400.934 191.035 401.121C191.129 401.215 191.223 401.309 191.317 401.496C191.411 401.59 191.504 401.684 191.598 401.777L217.12 412.932L227.441 397.934C227.91 397.465 228.661 397.184 229.505 397.184C230.256 397.184 231.006 397.278 231.757 397.653C232.789 398.122 233.446 398.778 233.727 399.434C234.666 401.871 237.011 404.215 240.483 405.714C243.016 406.839 245.737 407.308 248.271 407.214C251.555 407.214 254.37 406.089 255.777 404.027Z" fill="#EFF9FF"/>
<path d="M864.245 320.216L863.213 322.184C863.213 321.997 863.213 321.81 863.307 321.622L864.339 319.654C864.245 319.841 864.245 319.935 864.245 320.216Z" fill="#959B9D"/>
<path d="M864.245 320.685L863.213 322.653C863.213 322.466 863.213 322.278 863.119 322.091L864.151 320.122C864.245 320.31 864.245 320.497 864.245 320.685Z" fill="#959B9D"/>
<path d="M865.277 322.653L864.245 324.622C863.401 323.309 863.307 323.028 863.213 322.653L864.245 320.685C864.339 320.966 864.433 321.247 865.277 322.653Z" fill="#959B9D"/>
<path d="M865.84 323.216L864.808 325.184C864.62 324.997 864.526 324.903 864.433 324.809L865.465 322.841C865.559 322.934 865.652 323.028 865.84 323.216Z" fill="#98A0A2"/>
<path d="M865.465 322.841L864.433 324.809C864.339 324.715 864.339 324.622 864.245 324.622L865.277 322.653C865.371 322.653 865.371 322.747 865.465 322.841Z" fill="#959B9D"/>
<path d="M870.531 325.09L869.499 327.059C869.123 327.059 868.842 327.059 868.467 326.965C868.185 326.965 867.997 326.871 867.716 326.778L868.748 324.809C869.029 324.903 869.217 324.903 869.499 324.997C869.874 325.09 870.249 325.09 870.531 325.09Z" fill="#AAB3B6"/>
<path d="M868.749 324.903L867.717 326.871C867.341 326.778 866.966 326.684 866.685 326.496L867.717 324.528C868.092 324.622 868.467 324.715 868.749 324.903Z" fill="#A6AEB1"/>
<path d="M867.716 324.434L866.684 326.403C866.403 326.309 866.121 326.121 865.934 325.934L866.966 323.966C867.153 324.153 867.435 324.34 867.716 324.434Z" fill="#A1A9AC"/>
<path d="M866.965 324.059L865.933 326.028C865.746 325.934 865.652 325.84 865.558 325.747C865.464 325.653 865.37 325.653 865.276 325.559L866.308 323.591C866.402 323.684 866.496 323.684 866.59 323.778C866.684 323.872 866.778 323.965 866.965 324.059Z" fill="#9EA4A7"/>
<path d="M866.215 323.591L865.183 325.559C865.089 325.465 864.901 325.372 864.808 325.184L865.84 323.216C865.934 323.309 866.121 323.403 866.215 323.591Z" fill="#98A0A2"/>
<path d="M891.455 345.619L890.423 347.587C892.299 344.025 890.986 339.057 886.951 334.839L887.983 332.87C892.018 337.089 893.332 342.057 891.455 345.619Z" fill="#959B9D"/>
<path d="M887.983 332.777L886.951 334.745C886.201 333.995 885.45 333.245 884.512 332.496L885.544 330.527C886.482 331.277 887.233 332.027 887.983 332.777Z" fill="#98A0A2"/>
<path d="M885.544 330.527L884.512 332.496C884.137 332.214 883.855 331.933 883.48 331.746C883.011 331.371 882.541 331.089 881.979 330.808L883.011 328.84C883.48 329.121 884.043 329.496 884.512 329.777C884.887 330.058 885.263 330.34 885.544 330.527Z" fill="#9EA4A7"/>
<path d="M883.01 328.84L881.978 330.808C881.04 330.246 880.195 329.777 879.257 329.309L880.289 327.34C881.227 327.809 882.165 328.277 883.01 328.84Z" fill="#A1A9AC"/>
<path d="M880.289 327.34L879.257 329.309C878.131 328.746 876.911 328.277 875.691 327.996L876.724 326.028C877.943 326.309 879.163 326.778 880.289 327.34Z" fill="#A6AEB1"/>
<path d="M876.724 326.028L875.692 327.996C874.847 327.715 874.097 327.527 873.252 327.434C871.939 327.246 870.719 327.059 869.499 327.153L870.531 325.184C871.751 325.184 872.971 325.278 874.284 325.465C875.129 325.559 875.973 325.746 876.724 326.028Z" fill="#AAB3B6"/>
<path d="M865.371 371.396L864.245 373.365L833 350.962L834.032 348.993L865.371 371.396Z" fill="#BCBCBC"/>
<path d="M865.371 371.396L864.245 373.365L833 350.962L834.032 348.993L865.371 371.396Z" fill="#AAB1B4"/>
<path d="M886.013 386.207L884.887 388.175L864.245 373.365L865.371 371.396L886.013 386.207Z" fill="#AAB1B4"/>
<path d="M866.873 375.708L865.841 377.677C866.404 376.646 866.028 375.146 864.809 373.927L865.841 371.959C867.06 373.177 867.436 374.677 866.873 375.708Z" fill="#959B9D"/>
<path d="M865.84 371.865L864.808 373.833C864.62 373.646 864.433 373.459 864.245 373.271L865.277 371.303C865.559 371.584 865.746 371.678 865.84 371.865Z" fill="#98A0A2"/>
<path d="M886.013 386.207L884.981 388.175C884.793 388.081 884.512 387.894 884.324 387.8L885.356 385.832C885.544 385.926 885.732 386.019 886.013 386.207Z" fill="#A1A9AC"/>
<path d="M885.262 385.832L884.23 387.8C883.855 387.613 883.48 387.519 883.198 387.425L884.23 385.457C884.606 385.551 884.887 385.644 885.262 385.832Z" fill="#A6AEB1"/>
<path d="M884.23 385.363L883.198 387.332C882.916 387.238 882.729 387.238 882.447 387.144C881.603 386.957 880.852 387.05 880.195 387.238L881.227 385.269C881.884 385.082 882.635 385.082 883.479 385.176C883.761 385.269 883.948 385.363 884.23 385.363Z" fill="#AAB3B6"/>
<path d="M881.228 385.269L880.196 387.238C879.915 387.332 879.633 387.425 879.445 387.613L880.477 385.644C880.759 385.457 880.947 385.363 881.228 385.269Z" fill="#A6AEB1"/>
<path d="M880.477 385.644L879.445 387.613C879.257 387.706 879.163 387.8 879.069 387.894L878.976 387.988L880.008 386.019L880.102 385.926C880.195 385.832 880.383 385.738 880.477 385.644Z" fill="#A1A9AC"/>
<path d="M880.008 386.019L878.976 387.988C878.882 388.081 878.694 388.269 878.694 388.456L879.726 386.488C879.726 386.3 879.914 386.207 880.008 386.019Z" fill="#9EA4A7"/>
<path d="M966.706 360.617L965.581 362.585L916.227 410.578L917.259 408.61L966.706 360.617Z" fill="#A4AAAD"/>
<path d="M917.259 408.61L916.227 410.578L884.888 388.175L886.014 386.207L917.259 408.61Z" fill="#AAB1B4"/>
<path d="M883.48 301L864.339 319.654C864.339 319.841 864.339 319.935 864.245 320.216C864.245 320.404 864.245 320.497 864.339 320.778C864.433 321.06 864.527 321.341 865.371 322.747C865.465 322.841 865.559 323.028 865.934 323.309C866.122 323.497 866.403 323.684 866.591 323.872C867.529 324.528 868.561 324.997 869.593 325.184C869.969 325.278 870.344 325.278 870.625 325.278C871.845 325.278 873.065 325.372 874.379 325.559C877.756 326.121 881.322 327.621 884.512 329.871C892.018 335.308 894.552 343.182 890.048 347.493C887.515 350.024 883.199 350.774 878.507 349.931C875.129 349.368 871.47 347.868 868.28 345.525C863.87 342.338 861.243 338.401 860.68 334.745C860.492 333.714 859.741 332.496 858.428 331.652C858.146 331.464 857.959 331.277 857.396 331.09C857.208 330.996 857.02 330.902 855.425 330.433C855.05 330.34 854.768 330.34 854.393 330.34C854.205 330.34 854.018 330.34 853.736 330.34C853.549 330.34 853.361 330.433 853.173 330.433L834.032 349.087L865.277 371.49C867.154 373.084 867.717 375.146 866.497 376.364C865.746 377.114 864.433 377.302 863.119 377.114C863.025 377.114 863.025 377.114 862.932 377.114C858.24 376.271 853.924 377.021 851.391 379.551C846.887 383.863 849.42 391.831 856.926 397.174C860.117 399.424 863.682 400.923 867.154 401.58C871.751 402.423 876.161 401.58 878.695 399.142C881.322 396.612 881.51 392.862 879.821 389.113C879.352 387.988 879.352 386.957 880.196 386.207C880.947 385.457 882.26 385.269 883.574 385.457C884.418 385.644 885.263 385.926 886.107 386.394L917.446 408.797L966.894 360.804L883.48 301Z" fill="#E4EEF3"/>
<path d="M880.008 397.08L878.976 399.049C878.694 399.611 878.319 400.08 877.85 400.548L878.882 398.58C879.351 398.111 879.726 397.643 880.008 397.08Z" fill="#9EA4A7"/>
<path d="M878.882 398.58L877.85 400.548C877.756 400.642 877.662 400.736 877.569 400.83C877.193 401.205 876.724 401.58 876.161 401.861L877.193 399.892C877.662 399.611 878.132 399.236 878.601 398.861C878.788 398.767 878.882 398.674 878.882 398.58Z" fill="#A1A9AC"/>
<path d="M877.287 399.986L876.255 401.955C875.505 402.423 874.66 402.798 873.628 403.079L874.66 401.111C875.598 400.83 876.537 400.455 877.287 399.986Z" fill="#A6AEB1"/>
<path d="M874.66 401.111L873.628 403.079C871.376 403.736 868.748 403.829 866.027 403.361C865.183 403.173 864.432 402.986 863.588 402.798L864.62 400.83C865.464 401.111 866.215 401.298 867.06 401.392C869.874 401.861 872.502 401.767 874.66 401.111Z" fill="#AAB3B6"/>
<path d="M864.714 400.83L863.682 402.798C862.462 402.423 861.336 402.048 860.116 401.486L861.148 399.517C862.274 399.986 863.494 400.455 864.714 400.83Z" fill="#A6AEB1"/>
<path d="M861.149 399.424L860.117 401.392C859.178 400.923 858.24 400.455 857.396 399.892L858.428 397.924C859.272 398.486 860.21 399.049 861.149 399.424Z" fill="#A1A9AC"/>
<path d="M858.333 397.924L857.301 399.892C856.832 399.611 856.363 399.236 855.8 398.955C855.424 398.674 855.143 398.393 854.768 398.205L855.8 396.237C856.175 396.518 856.457 396.799 856.832 396.986C857.395 397.361 857.864 397.643 858.333 397.924Z" fill="#9EA4A7"/>
<path d="M855.894 396.237L854.861 398.205C853.923 397.455 853.173 396.705 852.422 395.955L853.454 393.987C854.205 394.737 854.955 395.487 855.894 396.237Z" fill="#98A0A2"/>
<path d="M853.454 393.987L852.422 395.955C848.481 391.737 847.074 386.769 848.951 383.113L849.983 381.145C848.106 384.801 849.42 389.675 853.454 393.987Z" fill="#959B9D"/>
<path d="M180.676 142.614L179.925 145.145C180.207 144.302 179.925 143.364 179.362 142.521C177.298 139.615 176.548 136.428 177.298 133.522L178.049 130.991C177.204 133.897 178.049 136.99 180.113 139.99C180.676 140.833 180.957 141.771 180.676 142.614Z" fill="#858585"/>
<path d="M216.519 142.052L215.768 144.583C215.581 145.239 215.299 145.989 214.924 146.645L215.674 144.114C216.05 143.364 216.331 142.708 216.519 142.052Z" fill="#8F8F8F"/>
<path d="M215.674 144.02L214.923 146.551C214.735 146.833 214.642 147.02 214.454 147.301C214.173 147.77 213.797 148.145 213.422 148.52L214.172 145.989C214.548 145.614 214.923 145.239 215.205 144.77C215.298 144.583 215.486 144.302 215.674 144.02Z" fill="#949494"/>
<path d="M214.079 145.989L213.328 148.52C212.578 149.27 211.64 149.926 210.607 150.488L211.358 147.957C212.39 147.395 213.328 146.739 214.079 145.989Z" fill="#999999"/>
<path d="M211.452 147.957L210.701 150.488C208.262 151.801 205.259 152.551 202.069 152.644C201.788 152.644 201.506 152.644 201.225 152.644L201.975 150.113C202.257 150.113 202.538 150.113 202.82 150.113C206.01 149.926 209.012 149.27 211.452 147.957Z" fill="#9E9E9E"/>
<path d="M201.881 150.113L201.13 152.644C200.004 152.644 199.066 152.925 198.315 153.3L199.066 150.769C199.817 150.395 200.755 150.113 201.881 150.113Z" fill="#9E9E9E"/>
<path d="M199.067 150.77L198.316 153.3C198.035 153.488 197.753 153.675 197.565 153.863L198.316 151.332C198.598 151.051 198.785 150.863 199.067 150.77Z" fill="#999999"/>
<path d="M198.315 151.332L197.565 153.863C197.471 153.957 197.377 154.05 197.283 154.238C197.19 154.331 197.19 154.425 197.096 154.425L197.846 151.894C197.846 151.801 197.94 151.707 198.034 151.707C198.128 151.519 198.222 151.426 198.315 151.332Z" fill="#949494"/>
<path d="M197.847 151.894L197.096 154.425C197.002 154.613 196.908 154.8 196.814 154.988L197.565 152.457C197.659 152.269 197.753 152.082 197.847 151.894Z" fill="#8F8F8F"/>
<path d="M241.195 175.891L240.538 178.422L221.585 203.918L222.336 201.387L241.195 175.891Z" fill="#979797"/>
<path d="M222.336 201.387L221.585 203.918C221.398 204.012 221.21 204.106 220.928 204.2C220.647 204.293 220.365 204.387 220.178 204.387L220.928 201.856C221.21 201.856 221.397 201.762 221.679 201.669C221.96 201.575 222.148 201.481 222.336 201.387Z" fill="#9E9E9E"/>
<path d="M220.928 201.856L220.178 204.387C219.802 204.481 219.521 204.481 219.146 204.481L219.896 201.95C220.271 201.95 220.647 201.856 220.928 201.856Z" fill="#9E9E9E"/>
<path d="M219.99 201.95L219.239 204.481C217.269 204.293 216.894 204.199 216.706 204.199L217.457 201.669C217.644 201.669 218.02 201.762 219.99 201.95Z" fill="#999999"/>
<path d="M217.363 201.575L216.612 204.106H216.519L217.269 201.575C217.363 201.575 217.363 201.575 217.363 201.575Z" fill="#949494"/>
<path d="M217.269 201.575L216.518 204.106C216.237 204.012 215.955 203.918 215.768 203.825L216.518 201.294C216.8 201.387 216.987 201.481 217.269 201.575Z" fill="#949494"/>
<path d="M216.613 201.387L215.862 203.918C215.674 203.825 215.487 203.731 215.299 203.637C215.205 203.637 215.111 203.543 215.111 203.543L215.862 201.012C215.956 201.012 216.05 201.106 216.05 201.106C216.143 201.2 216.331 201.294 216.613 201.387Z" fill="#8F8F8F"/>
<path d="M215.768 201.012L215.017 203.543C214.642 203.356 214.361 203.168 214.079 202.981L214.83 200.45C215.111 200.637 215.393 200.825 215.768 201.012Z" fill="#8A8A8A"/>
<path d="M214.829 200.45L214.079 202.981C213.047 202.231 212.39 201.387 212.015 200.544L212.765 198.013C213.141 198.856 213.797 199.7 214.829 200.45Z" fill="#858585"/>
<path d="M212.765 198.013L212.015 200.544C210.982 197.544 208.637 194.638 205.165 192.201L205.916 189.67C209.387 192.014 211.827 195.013 212.765 198.013Z" fill="#858585"/>
<path d="M205.916 189.577L205.165 192.107C204.133 191.358 203.007 190.701 201.787 190.139L202.538 187.608C203.758 188.264 204.883 188.92 205.916 189.577Z" fill="#8A8A8A"/>
<path d="M202.538 187.608L201.787 190.139C201.505 190.045 201.224 189.858 201.036 189.764C200.192 189.389 199.347 189.014 198.503 188.733L199.254 186.202C200.098 186.483 200.942 186.858 201.787 187.233C202.068 187.421 202.35 187.514 202.538 187.608Z" fill="#8F8F8F"/>
<path d="M199.254 186.202L198.503 188.733C197.377 188.358 196.157 187.983 194.938 187.702L195.688 185.171C196.908 185.452 198.128 185.827 199.254 186.202Z" fill="#949494"/>
<path d="M195.782 185.171L195.031 187.702C193.53 187.327 192.029 187.139 190.621 187.046L191.372 184.515C192.779 184.608 194.28 184.89 195.782 185.171Z" fill="#999999"/>
<path d="M191.278 184.515L190.527 187.046C189.495 186.952 188.557 186.952 187.619 186.952C184.335 187.046 181.332 187.796 178.986 189.108L179.737 186.577C182.177 185.265 185.179 184.515 188.369 184.421C189.308 184.421 190.34 184.421 191.278 184.515Z" fill="#9E9E9E"/>
<path d="M179.737 186.577L178.987 189.108C177.955 189.67 177.11 190.326 176.266 191.076L177.016 188.545C177.767 187.796 178.705 187.139 179.737 186.577Z" fill="#999999"/>
<path d="M177.017 188.545L176.266 191.076C175.891 191.451 175.515 191.826 175.234 192.295C175.046 192.576 174.858 192.764 174.765 193.045L175.515 190.514C175.703 190.233 175.797 190.045 175.984 189.764C176.266 189.389 176.641 188.92 177.017 188.545Z" fill="#949494"/>
<path d="M175.421 190.514L174.671 193.045C174.295 193.701 174.014 194.357 173.826 195.013L174.577 192.482C174.764 191.826 175.046 191.17 175.421 190.514Z" fill="#8F8F8F"/>
<path d="M211.452 216.01L210.701 218.635L191.842 244.131L192.592 241.507L211.452 216.01Z" fill="#979797"/>
<path d="M192.592 241.507L191.841 244.131L83 193.701L83.7506 191.17L192.592 241.507Z" fill="#9C9C9C"/>
<path d="M191.842 123.023C196.158 122.836 200.849 123.773 205.259 125.836C215.111 130.429 219.521 138.959 215.111 144.864C212.672 148.145 208.074 149.926 202.726 150.113C202.444 150.113 202.163 150.113 201.881 150.113C200.099 150.207 198.785 150.676 198.034 151.707C196.815 153.394 197.847 155.644 200.474 157.05L241.29 175.891L222.336 201.387C222.148 201.481 221.961 201.575 221.679 201.669C221.398 201.762 221.116 201.856 220.929 201.856C220.553 201.95 220.272 201.95 219.897 201.95C217.645 201.762 217.457 201.669 217.269 201.575C216.613 201.387 216.331 201.294 215.956 201.106C214.267 200.356 213.141 199.138 212.766 198.013C211.358 193.982 207.511 189.952 201.788 187.327C197.378 185.265 192.686 184.421 188.37 184.515C183.022 184.702 178.424 186.483 175.985 189.764C171.575 195.669 175.985 204.199 185.837 208.793C190.247 210.855 194.938 211.698 199.16 211.605C200.474 211.511 201.788 211.417 203.007 211.136C203.383 211.042 203.758 211.042 204.133 211.042C205.353 211.042 206.76 211.23 208.074 211.886C208.356 212.073 208.731 212.167 208.919 212.355C209.388 212.636 209.482 212.73 209.669 212.917C210.889 214.229 211.077 214.604 211.264 214.885C211.358 215.073 211.358 215.26 211.452 215.448C211.546 215.729 211.546 215.917 211.546 216.104L192.686 241.6L83.8447 191.264L132.542 125.554L173.357 144.395C174.483 144.864 175.703 145.052 176.829 144.958C178.424 144.864 179.738 144.395 180.488 143.364C181.239 142.333 181.051 141.115 180.301 139.896C177.58 135.959 177.111 131.647 179.644 128.179C181.896 124.992 186.587 123.211 191.842 123.023Z" fill="#E4EEF3"/>
<path d="M471.396 90.7586L500.483 87.4778C500.483 87.4778 519.061 116.349 523.659 151.031C528.257 185.714 527.881 251.517 531.728 279.076C535.575 306.634 548.242 348.535 557.719 360.158C567.196 371.782 540.924 383.592 526.38 376.093C511.837 368.594 476.838 366.907 448.221 373.563C419.603 380.218 470.552 316.196 466.799 263.422C462.952 210.648 471.396 90.7586 471.396 90.7586Z" fill="#B0BFDE"/>
<path d="M758.701 27.4863C758.701 27.4863 742.28 28.8923 737.12 22.612C731.959 16.3316 747.066 18.3938 740.216 22.8932C733.461 27.3925 718.26 19.3312 722.295 11.7385C726.33 4.14582 732.71 0.95877 738.903 5.3644C745.095 9.77003 740.029 12.3009 737.683 7.98903C735.337 3.67713 744.72 -6.91512 752.602 8.17651C760.483 23.1744 756.261 24.393 753.54 14.3631C750.819 4.42703 757.199 -1.85334 761.891 9.86376C766.582 21.5809 759.357 27.2988 757.575 22.0495C755.792 16.8003 771.086 5.83308 772.306 15.7692C773.525 25.7053 774.464 37.7036 766.864 37.7973C759.264 37.9848 776.997 11.8322 783.941 33.2042C790.884 54.5762 776.903 48.1084 776.34 43.2341C775.777 38.4535 801.862 47.3585 781.689 54.3887C761.422 61.419 769.022 52.889 767.333 47.9209C765.644 43.0466 784.41 55.8885 774.182 66.2933C764.049 76.6981 754.291 74.7296 756.355 63.8562C758.419 52.9827 769.866 58.7006 766.207 67.6994C762.548 76.6981 768.177 82.0411 770.335 82.9785C772.493 83.9158 756.355 90.5712 753.258 81.8536C750.162 73.3236 745.846 30.5796 758.701 27.4863Z" fill="#163F59"/>
<path d="M734.117 19.7061L724.828 31.7982L724.922 36.3913L716.853 47.3585L720.418 53.6388L718.729 72.7612C718.729 72.7612 717.322 83.0722 726.986 79.3227C736.65 75.5733 736.65 75.5733 736.65 75.5733C736.65 75.5733 744.814 101.257 739.184 105.85C733.554 110.443 729.519 115.599 731.865 118.505C733.929 121.129 739.465 119.161 745.189 118.598C755.322 117.474 761.984 119.348 766.3 119.63C769.397 119.817 765.081 117.942 764.236 111.474C763.392 105.1 758.043 67.3244 758.043 67.3244C758.043 67.3244 759.732 67.9806 762.172 66.9495C764.611 65.9184 775.308 57.6695 771.742 52.889C768.177 48.1084 760.295 50.2643 757.762 54.7637C755.135 59.2631 750.443 54.4825 751.569 44.6401C752.695 34.7977 772.399 29.0798 749.974 25.9865C734.774 23.6431 734.117 19.7061 734.117 19.7061Z" fill="#E9D6B8"/>
<path d="M490.068 109.787C490.068 109.787 471.865 117.38 494.103 171.935C516.34 226.49 527.787 219.366 527.787 219.366L542.518 217.397L568.227 181.59L551.807 168.373L548.805 169.779C548.805 169.779 544.676 168.279 543.926 164.436C543.175 160.686 535.669 144.751 526.849 112.787C513.431 63.6687 493.54 108.287 490.068 109.787Z" fill="#D1DBEA"/>
<path d="M564.287 182.34C564.287 182.34 595.251 199.212 614.11 201.368C626.684 202.774 600.693 216.835 574.796 219.647C548.899 222.459 538.86 221.334 533.23 212.148C527.6 203.055 564.287 182.34 564.287 182.34Z" fill="#E2C59C"/>
<path d="M531.916 174.653L540.736 168.091L544.395 165.654C545.709 168.466 548.805 169.685 548.805 169.685L541.299 173.247L533.229 179.152L525.254 190.401L531.916 174.653Z" fill="#B0BFDE"/>
<path d="M519.719 241.675L451.036 240.175L422.512 144.657C422.512 144.657 404.028 86.9154 439.495 86.1655C475.056 85.4156 516.341 91.9772 516.341 91.9772C516.341 91.9772 528.069 106.413 519.719 241.675Z" fill="#7DC2F5"/>
<path d="M481.53 98.7263C481.53 98.7263 512.681 158.812 503.862 225.271C503.205 230.52 497.575 234.27 497.575 234.27L489.881 226.771C489.881 226.771 490.444 151.594 481.53 98.7263Z" fill="#163F59"/>
<path d="M480.404 97.3202L478.715 109.131L456.853 91.0398L459.386 86.6342L480.404 97.3202Z" fill="#8DCFFF"/>
<path d="M486.784 89.7275L490.162 92.5396L490.35 105.1L481.718 97.6014L486.784 89.7275Z" fill="#8DCFFF"/>
<path d="M509.397 43.1403C509.397 44.0777 512.493 51.8578 513.15 53.3576C513.713 54.8574 514.557 56.6384 514.276 57.2008C513.994 57.6695 512.493 59.1693 511.836 59.7317C511.18 60.2941 508.646 62.5438 508.177 58.7944C507.708 54.9511 509.397 43.1403 509.397 43.1403Z" fill="#E9D6B8"/>
<path d="M471.866 38.5472C469.051 38.4535 466.705 40.6094 466.611 43.3278C466.518 46.1399 468.676 48.4833 471.397 48.5771" fill="#E9D6B8"/>
<path d="M517.936 536.665H500.202V563.567H517.936V536.665Z" fill="#3D7AA8"/>
<path d="M389.015 536.665H374.659V563.567H389.015V536.665Z" fill="#3D7AA8"/>
<path d="M501.046 571.441H513.995V567.504L519.624 571.441H552.183C552.183 571.441 551.62 566.098 529.664 565.254C524.034 565.067 520.094 557.38 520.094 557.38C520.094 557.38 517.279 554.85 513.056 560.755C511.93 562.255 500.108 559.349 500.108 559.349C500.108 559.349 499.076 567.223 501.046 571.441Z" fill="#081832"/>
<path d="M517.372 239.425L518.874 385.373L488.004 402.433C488.004 402.433 469.426 367.657 467.174 323.132C464.828 278.701 517.372 239.425 517.372 239.425Z" fill="#163F59"/>
<path d="M517.372 239.425L449.44 399.434L437.055 416.494L389.671 556.912L372.031 550.35C372.031 550.35 366.026 471.33 384.604 440.209C403.089 409.089 412.378 392.029 412.378 392.029L453.287 235.02L517.372 239.425Z" fill="#194866"/>
<path d="M498.232 555.225C492.602 526.635 480.78 473.392 480.31 454.926C479.56 420.9 484.908 397.184 484.908 397.184L518.874 385.373L518.593 555.225H498.232Z" fill="#163F59"/>
<path d="M390.892 576.315H382.166L379.445 573.503L378.225 566.754L375.41 569.566L366.309 560.474C367.904 556.068 374.284 551.381 374.284 551.381C374.284 551.381 380.571 561.786 382.447 561.505C389.578 560.286 389.766 564.129 389.766 564.129C389.766 564.129 387.045 572.191 390.892 576.315Z" fill="#081832"/>
<path d="M381.79 566.473C383.479 568.348 385.825 570.222 388.546 570.316C410.408 571.16 410.971 576.503 410.971 576.503H381.79V566.473Z" fill="#081832"/>
<path d="M610.545 203.43L631.281 191.432L644.605 192.932C644.605 192.932 646.106 196.025 641.602 198.368C637.005 200.618 631.281 201.368 631.281 201.368L622.367 214.585C622.367 214.585 631.093 219.74 633.345 218.616C635.691 217.491 644.699 213.179 644.699 213.179C644.699 213.179 639.444 224.334 633.908 224.334C628.372 224.334 622.367 224.334 618.239 223.677C614.017 223.021 612.703 211.117 608.481 209.054C604.352 206.899 610.545 203.43 610.545 203.43Z" fill="#E2C59C"/>
<path d="M651.923 126.847L600.317 79.6977C600.317 79.6977 596.846 83.8221 598.159 87.6653C601.725 97.8826 615.987 113.255 624.056 121.879C635.034 133.784 649.108 143.251 649.108 143.251L651.923 126.847Z" fill="#E9D6B8"/>
<path d="M600.318 92.4459L593.843 86.9154C593.843 86.9154 590.653 84.4783 587.932 80.2601C585.211 76.1357 586.806 72.105 590.278 68.8242C593.75 65.5434 596.377 65.1685 596.377 65.1685C596.377 65.1685 602.006 67.6056 601.256 72.6674C600.505 77.6355 605.572 88.6964 603.695 89.54C601.725 90.2899 600.318 92.4459 600.318 92.4459Z" fill="#E9D6B8"/>
<path d="M598.722 66.1996L592.248 59.1693L585.962 52.9827L585.117 54.7637L588.964 59.8255L591.028 70.324L593.562 68.9179L598.722 66.1996Z" fill="#E9D6B8"/>
<path d="M586.712 62.4501L579.769 58.7944L578.549 60.2942L584.742 65.1685L589.245 72.1987L593.562 68.9179L586.712 62.4501Z" fill="#E9D6B8"/>
<path d="M577.235 63.4812L582.959 66.0121L586.994 67.1369L589.715 70.8864L587.181 74.5421L584.273 70.5115L577.329 65.8246L577.235 63.4812Z" fill="#E9D6B8"/>
<path d="M575.922 69.5741L586.9 72.3862L588.683 75.1983L587.088 77.8229L582.584 74.7296L576.766 71.4488L575.922 69.5741Z" fill="#E9D6B8"/>
<path d="M606.886 92.3521C603.32 88.7901 604.165 83.4471 604.165 83.4471C604.165 83.4471 605.76 70.0428 603.789 67.8868C601.819 65.6372 600.599 59.9192 600.599 59.9192C600.599 59.9192 598.91 57.7633 598.16 63.2C597.691 66.762 598.347 69.8553 598.347 69.8553C598.347 69.8553 594.688 77.1668 594.97 79.5102C595.533 84.3845 604.352 92.9146 604.352 92.9146C604.352 92.9146 607.355 92.7271 606.886 92.3521Z" fill="#E9D6B8"/>
<path d="M713.663 113.443L689.737 119.161L667.218 123.379L611.483 85.978L598.629 108.287L662.995 160.499L738.34 150.75C738.34 150.75 750.163 132.378 755.98 110.068C760.202 93.9457 718.354 112.787 713.663 113.443Z" fill="#D4EDFF"/>
<path d="M708.595 204.461L643.947 206.336C643.947 206.336 691.8 235.113 709.252 220.584C726.61 206.055 708.595 204.461 708.595 204.461Z" fill="#E9D6B8"/>
<path d="M738.527 589.438L738.621 596L775.121 595.25L775.59 577.628L753.54 577.346C753.634 577.346 741.999 588.407 738.527 589.438Z" fill="#161711"/>
<path d="M765.456 279.732C765.456 279.732 748.849 388.092 730.177 435.991C713.663 478.36 692.082 424.18 692.082 424.18L720.043 242.331L772.493 237.269C772.493 237.175 776.153 238.394 765.456 279.732Z" fill="#163F59"/>
<path d="M731.115 246.643L726.142 316.383L735.337 321.539C735.337 321.539 742.843 424.837 744.626 430.086C755.135 459.8 780.187 441.334 783.471 431.211C786.755 421.181 790.977 347.129 788.632 293.324C786.286 239.425 786.286 239.425 786.286 239.425L731.115 246.643Z" fill="#194866"/>
<path d="M746.221 402.34C746.221 402.34 742.374 420.9 743.781 455.676C744.626 477.704 748.004 536.196 752.977 579.596C753.258 582.221 775.026 579.784 775.026 579.784C775.026 579.784 785.254 438.241 785.91 410.87C786.004 402.621 763.204 382.468 746.221 402.34Z" fill="#194866"/>
<path d="M739.184 102.569L741.905 105.194L761.89 93.6645L790.883 114.661C790.883 114.661 796.419 134.159 796.701 173.247C796.982 212.429 793.698 352.847 793.698 352.847L719.01 358.94L711.129 305.51L705.687 353.409L696.585 346.098C696.398 346.191 716.665 120.192 739.184 102.569Z" fill="#D4EDFF"/>
<path d="M700.808 421.462C700.808 421.462 706.907 423.337 726.329 423.618C745.658 423.899 704.749 580.158 704.749 580.158L677.069 570.691L693.489 413.963L700.808 421.462Z" fill="#163F59"/>
<path d="M702.591 578.471L700.245 592.157L686.358 592.438C686.358 592.438 675.943 592.625 673.316 592.719C670.689 592.813 655.113 593.094 655.113 593.094L655.02 588.126C655.02 588.126 676.6 580.158 680.729 571.722C684.951 563.286 702.591 578.471 702.591 578.471Z" fill="#161711"/>
<path d="M623.962 217.116L630.155 219.366L655.489 210.929L645.637 193.119L642.259 198.368L633.439 197.994L622.273 213.648L623.962 217.116Z" fill="#E9D6B8"/>
<path d="M749.317 103.976L739.184 102.569L728.863 115.318L727.455 152.531L738.339 133.128L751.663 111.943L749.317 103.976Z" fill="#D1DBEA"/>
<path d="M741.248 103.226L739.841 115.974L767.708 100.414L764.424 91.321L741.248 103.226Z" fill="#B0BFDE"/>
<path d="M739.841 99.6636L741.248 103.226L735.806 115.13L735.337 104.632L739.841 99.6636Z" fill="#B0BFDE"/>
<path d="M765.644 92.4459L740.122 120.942L727.361 152.531L714.601 210.742L744.344 136.127L741.342 133.69L746.221 130.691C746.221 130.691 755.979 116.724 763.861 109.412C771.742 102.101 771.742 100.882 771.742 100.882L765.644 92.4459Z" fill="#E9F6FF"/>
<path d="M781.313 113.162C781.313 113.162 796.42 120.942 789.195 143.345C776.903 181.496 751.1 212.991 746.315 219.272C741.436 225.552 725.297 238.675 713.287 235.77C705.687 233.989 664.965 232.114 664.965 232.114L663.183 204.836L708.69 204.555L713.1 203.711C713.1 203.711 728.769 178.871 741.811 154.781C754.76 130.503 781.313 113.162 781.313 113.162Z" fill="#E9F6FF"/>
<path d="M731.678 143.439C731.678 143.439 734.587 105.007 736.745 102.663C738.903 100.32 731.021 107.069 731.021 107.069L728.863 115.318L726.236 125.254L720.794 187.12L731.678 143.439Z" fill="#E9F6FF"/>
<path d="M760.389 295.761H724.828V303.541H760.389V295.761Z" fill="#E9F6FF"/>
<path d="M451.974 83.7284C451.974 83.7284 478.434 151.125 478.434 167.435C478.434 183.839 489.412 259.391 459.293 323.976C442.873 359.221 420.072 394.935 415.569 403.183C410.971 411.338 397.366 393.154 390.047 384.998C382.729 376.843 377.286 372.25 366.402 371.313C355.424 370.375 400.087 329.413 410.127 311.228C420.166 293.043 437.149 174.466 422.512 144.564C398.679 96.0079 399.055 90.9461 451.974 83.7284Z" fill="#D1DBEA"/>
<path d="M463.14 82.791C463.14 82.791 457.322 97.3202 460.982 109.225C464.641 121.036 479.185 176.622 479.185 176.622C479.185 176.622 462.765 134.721 451.88 126.566C440.902 118.411 457.322 118.411 457.322 118.411L446.345 117.474L445.406 90.1962L451.787 83.8221L463.14 82.791Z" fill="#DBE5F5"/>
<path d="M481.061 83.2597C481.061 83.2597 513.525 88.5089 517.935 91.4148C522.439 94.3206 529.289 148.313 528.726 158.624C528.163 168.935 527.506 239.894 529.288 253.861C531.071 267.827 522.627 230.801 521.407 210.179C520.187 189.557 511.649 131.253 500.765 115.505C489.787 99.7573 490.631 95.4455 490.631 95.4455L481.061 83.2597Z" fill="#D1DBEA"/>
<path d="M509.96 22.9869C509.96 22.9869 514.84 72.0112 503.768 77.8229C503.299 78.1041 495.417 78.3853 491.289 82.1348C487.442 85.6031 487.254 89.54 485.846 91.1335C485.377 91.6022 483.782 94.9768 482.844 95.8204C478.622 99.4761 475.244 94.7893 472.898 93.7582C467.175 91.1335 461.263 89.4463 461.545 86.9154C461.826 84.197 470.177 66.387 469.802 62.7313C468.957 51.9516 457.323 32.0794 476.088 20.0811C481.53 16.4253 508.647 19.8936 509.96 22.9869Z" fill="#E9D6B8"/>
<path d="M503.862 77.073C503.862 77.073 502.361 76.2294 499.546 74.4484C498.608 73.7923 495.98 72.105 494.479 71.6363C487.817 69.5741 488.005 70.2302 484.252 68.168C479.936 65.8246 471.772 59.1693 471.772 59.1693C471.772 59.1693 474.4 64.1374 475.432 66.1996C477.308 69.949 480.217 71.8238 482.844 72.9486C494.198 77.7292 493.447 78.5728 494.948 78.5728C495.136 78.5728 495.98 78.1041 503.862 77.073Z" fill="#E2C59C"/>
<path d="M475.244 17.9251C484.345 10.8011 502.735 12.7696 515.215 24.6742C515.215 24.6742 514.746 27.58 510.336 29.9234C510.336 29.9234 503.111 20.5497 491.195 21.8621C478.809 23.2681 487.348 29.2673 484.439 32.2668C481.999 34.7977 479.747 36.9537 479.747 36.9537L477.871 43.8902L474.587 44.2652C474.587 44.2652 472.804 36.86 471.209 39.0159C469.239 41.6405 470.083 47.2647 470.083 48.0146C470.177 48.7645 470.271 50.0768 469.895 50.358C469.614 50.5455 470.458 54.7637 469.52 61.9814C468.019 61.9814 466.142 59.9192 465.204 55.3261C463.14 45.0151 464.172 26.5489 475.244 17.9251Z" fill="#163F59"/>
<path d="M505.27 56.9196C505.27 56.9196 511.181 55.5136 511.744 55.6073C512.4 55.7948 513.902 55.9822 513.902 56.5447C513.902 57.1071 513.057 58.7006 510.055 60.2941C509.398 60.7628 509.773 59.263 505.27 56.9196Z" fill="#E2C59C"/>
<path d="M489.318 85.0407L507.99 109.131L503.861 110.912L509.304 114.099C509.304 114.099 518.874 152.812 519.812 158.718C520.751 164.623 523.941 206.524 523.941 216.085C523.941 225.646 516.153 152.344 510.242 137.346C504.331 122.348 488.38 102.757 488.849 100.039C489.318 97.3202 487.441 85.1344 487.441 85.1344" fill="#DBE5F5"/>
<path d="M458.261 155.624L459.95 158.624L467.456 198.743L465.767 195.65L458.261 155.624Z" fill="#B5B5B5"/>
<path d="M458.261 155.624L459.95 158.624L467.456 198.743L465.767 195.65L458.261 155.624Z" fill="#A3ABAE"/>
<path d="M465.767 195.65L467.456 198.743L472.428 225.177L470.74 221.99L465.767 195.65Z" fill="#A3ABAE"/>
<path d="M465.767 195.65L467.549 198.743C467.643 198.931 467.643 199.025 467.737 199.118L465.954 196.025C465.86 195.931 465.767 195.744 465.767 195.65Z" fill="#9EA4A7"/>
<path d="M422.512 255.548L424.294 258.641C421.198 253.111 413.504 250.674 404.497 252.361L402.714 249.268C411.628 247.58 419.322 250.017 422.512 255.548Z" fill="#959B9D"/>
<path d="M402.62 249.268L404.403 252.361C402.808 252.642 401.025 253.111 399.336 253.673L397.554 250.58C399.336 250.017 401.025 249.549 402.62 249.268Z" fill="#98A0A2"/>
<path d="M397.647 250.58L399.43 253.673C398.867 253.861 398.304 254.048 397.835 254.236C396.897 254.611 395.958 254.986 395.02 255.454L393.237 252.361C394.176 251.892 395.114 251.517 396.052 251.142C396.521 250.955 397.084 250.767 397.647 250.58Z" fill="#9EA4A7"/>
<path d="M393.143 252.361L394.926 255.454C393.425 256.204 392.017 256.954 390.61 257.798L388.827 254.704C390.235 253.954 391.642 253.111 393.143 252.361Z" fill="#A1A9AC"/>
<path d="M388.921 254.798L390.704 257.891C389.015 259.016 387.42 260.141 385.918 261.453L384.136 258.36C385.543 257.048 387.138 255.923 388.921 254.798Z" fill="#A6AEB1"/>
<path d="M384.136 258.36L385.919 261.453C384.887 262.297 383.949 263.234 383.104 264.172C380.196 267.359 378.038 270.921 377.005 274.389L375.223 271.296C376.255 267.827 378.319 264.265 381.322 261.078C382.166 260.141 383.104 259.204 384.136 258.36Z" fill="#AAB3B6"/>
<path d="M375.222 271.296L377.005 274.389C376.536 275.889 376.348 277.295 376.348 278.795L374.565 275.701C374.565 274.295 374.753 272.796 375.222 271.296Z" fill="#A6AEB1"/>
<path d="M374.565 275.701L376.348 278.795C376.348 279.638 376.442 280.482 376.536 281.326C376.63 281.607 376.63 281.888 376.723 282.169L374.941 279.076C374.847 278.795 374.847 278.513 374.753 278.232C374.659 277.389 374.565 276.545 374.565 275.701Z" fill="#A1A9AC"/>
<path d="M374.94 279.076L376.723 282.169C377.005 283.107 377.38 284.044 377.849 284.888L376.066 281.794C375.597 280.951 375.222 280.013 374.94 279.076Z" fill="#9EA4A7"/>
<path d="M523.658 183.089L525.441 186.183C525.91 187.026 526.285 187.964 526.567 188.901L524.784 185.808C524.503 184.87 524.127 183.933 523.658 183.089Z" fill="#9EA4A7"/>
<path d="M524.784 185.901L526.567 188.995C526.661 189.276 526.661 189.557 526.755 189.838C526.942 190.682 526.942 191.526 526.942 192.369L525.16 189.276C525.16 188.432 525.066 187.589 524.972 186.745C524.878 186.37 524.878 186.089 524.784 185.901Z" fill="#A1A9AC"/>
<path d="M525.16 189.182L526.942 192.276C526.942 193.682 526.755 195.181 526.286 196.681L524.503 193.588C524.972 192.088 525.16 190.588 525.16 189.182Z" fill="#A6AEB1"/>
<path d="M524.504 193.588L526.286 196.681C525.254 200.149 523.19 203.711 520.187 206.899C519.343 207.836 518.405 208.773 517.373 209.617L515.59 206.524C516.622 205.68 517.56 204.743 518.405 203.805C521.407 200.618 523.471 197.056 524.504 193.588Z" fill="#AAB3B6"/>
<path d="M515.59 206.524L517.373 209.617C515.871 210.929 514.276 212.148 512.587 213.179L510.805 210.086C512.587 209.054 514.182 207.836 515.59 206.524Z" fill="#A6AEB1"/>
<path d="M510.804 210.086L512.587 213.179C511.274 214.023 509.772 214.866 508.271 215.522L506.488 212.429C508.083 211.773 509.491 211.023 510.804 210.086Z" fill="#A1A9AC"/>
<path d="M506.582 212.523L508.365 215.616C507.426 216.085 506.488 216.46 505.55 216.835C504.987 217.022 504.424 217.21 503.955 217.397L502.172 214.304C502.735 214.116 503.204 213.929 503.767 213.741C504.705 213.366 505.644 212.898 506.582 212.523Z" fill="#9EA4A7"/>
<path d="M502.172 214.304L503.955 217.397C502.266 217.959 500.577 218.428 498.982 218.709L497.199 215.616C498.794 215.335 500.389 214.866 502.172 214.304Z" fill="#98A0A2"/>
<path d="M497.105 215.616L498.888 218.709C493.54 219.74 488.567 219.272 484.814 217.584C483.688 217.116 482.28 216.928 480.685 217.303L478.902 214.21C480.497 213.929 481.905 214.023 483.031 214.491C486.878 216.178 491.757 216.647 497.105 215.616Z" fill="#959B9D"/>
<path d="M478.996 214.116L480.779 217.21C480.31 217.303 479.841 217.397 479.372 217.585L477.589 214.491C478.058 214.397 478.527 214.21 478.996 214.116Z" fill="#98A0A2"/>
<path d="M477.495 214.491L479.278 217.584C479.09 217.678 478.996 217.678 478.809 217.772C478.527 217.866 478.246 217.959 477.964 218.147L476.182 215.054C476.463 214.96 476.745 214.772 477.026 214.679C477.214 214.679 477.401 214.585 477.495 214.491Z" fill="#9EA4A7"/>
<path d="M476.275 215.054L478.058 218.147C477.589 218.334 477.214 218.616 476.838 218.803L475.056 215.71C475.337 215.522 475.806 215.241 476.275 215.054Z" fill="#A1A9AC"/>
<path d="M474.961 215.803L476.744 218.897C476.275 219.178 475.806 219.553 475.336 219.928L473.554 216.835C474.023 216.46 474.492 216.085 474.961 215.803Z" fill="#A6AEB1"/>
<path d="M473.554 216.835L475.337 219.928C475.055 220.209 474.774 220.49 474.492 220.772C473.648 221.709 472.991 222.74 472.71 223.771L470.927 220.678C471.208 219.647 471.865 218.616 472.71 217.678C472.991 217.397 473.272 217.116 473.554 216.835Z" fill="#AAB3B6"/>
<path d="M470.927 220.678L472.71 223.771C472.616 224.24 472.522 224.615 472.522 225.083L470.739 221.99C470.739 221.521 470.833 221.147 470.927 220.678Z" fill="#A6AEB1"/>
<path d="M470.739 221.99L472.522 225.083C472.522 225.083 472.522 225.083 472.522 225.177L470.739 221.99Z" fill="#A1A9AC"/>
<path d="M390.047 290.231L391.83 293.324C391.923 293.605 392.111 293.793 392.111 294.074L390.328 290.98C390.328 290.699 390.141 290.418 390.047 290.231Z" fill="#9EA4A7"/>
<path d="M390.328 290.98L392.111 294.074C392.111 294.167 392.111 294.261 392.205 294.355C392.205 294.636 392.299 294.917 392.299 295.199L390.516 292.105C390.516 291.824 390.516 291.543 390.422 291.355C390.422 291.168 390.422 291.074 390.328 290.98Z" fill="#A1A9AC"/>
<path d="M390.516 292.012L392.298 295.105C392.298 295.199 392.298 295.199 392.298 295.292L390.516 292.199C390.516 292.105 390.516 292.105 390.516 292.012Z" fill="#A6AEB1"/>
<path d="M390.516 292.199L392.299 295.292C392.205 295.855 392.205 296.042 392.111 296.23L390.328 293.136C390.328 292.949 390.422 292.761 390.516 292.199Z" fill="#A6AEB1"/>
<path d="M390.329 293.136L392.111 296.23C391.079 298.386 390.704 298.854 390.329 299.323L388.546 296.23C388.921 295.761 389.297 295.292 390.329 293.136Z" fill="#AAB3B6"/>
<path d="M388.546 296.23L390.328 299.323C389.953 299.698 389.765 299.885 389.578 300.073L387.795 296.98C387.983 296.792 388.17 296.605 388.546 296.23Z" fill="#AAB3B6"/>
<path d="M386.856 297.729L388.545 300.823L330.559 323.507L328.776 320.414L386.856 297.729Z" fill="#AAB1B4"/>
<path d="M387.701 296.98L389.484 300.073L389.39 300.167L387.607 297.073C387.701 297.073 387.701 296.98 387.701 296.98Z" fill="#AAB3B6"/>
<path d="M387.607 297.073L389.39 300.167C389.108 300.448 388.827 300.635 388.545 300.823L386.763 297.729C387.138 297.542 387.326 297.355 387.607 297.073Z" fill="#A6AEB1"/>
<path d="M416.788 284.231L418.571 287.325C417.258 286.294 417.07 286.106 416.976 286.012L415.193 282.919C415.381 283.013 415.475 283.107 416.788 284.231Z" fill="#959B9D"/>
<path d="M419.228 284.794L421.01 287.887C420.541 287.887 420.26 287.887 419.978 287.793C419.415 287.7 418.946 287.512 418.571 287.325L416.788 284.231C417.163 284.419 417.633 284.606 418.196 284.7C418.477 284.7 418.758 284.7 419.228 284.794Z" fill="#959B9D"/>
<path d="M420.166 284.7L421.949 287.793C421.667 287.793 421.292 287.793 421.01 287.793L419.228 284.7C419.509 284.794 419.884 284.794 420.166 284.7Z" fill="#959B9D"/>
<path d="M478.246 262.109L479.935 265.203L421.949 287.793L420.166 284.7L478.246 262.109Z" fill="#AAB1B4"/>
<path d="M470.739 221.99L472.428 225.177L479.934 265.203L478.246 262.109L470.739 221.99Z" fill="#A3ABAE"/>
<path d="M524.973 186.651C523.19 176.996 510.711 173.434 497.199 178.777C491.382 181.027 486.315 184.589 482.562 188.714C481.248 190.12 480.122 191.619 479.09 193.213C478.809 193.682 478.434 194.057 478.152 194.432C477.026 195.65 475.525 196.681 473.836 197.337C470.177 198.743 466.705 197.994 465.767 195.65L458.26 155.624L308.791 213.929L328.777 320.414L386.857 297.729C387.138 297.542 387.42 297.261 387.795 296.98C387.983 296.792 388.264 296.605 388.546 296.23C388.921 295.761 389.296 295.292 390.328 293.136C390.328 292.949 390.422 292.668 390.516 292.199C390.516 291.918 390.516 291.543 390.422 291.262C390.141 289.574 388.733 288.637 386.857 288.262C380.476 287.325 375.785 283.763 374.753 278.232C373.721 272.795 376.348 266.515 381.321 261.078C385.074 256.954 390.141 253.392 396.052 251.142C409.563 245.893 422.042 249.361 423.825 259.016C424.857 264.453 422.23 270.733 416.788 276.545C415.287 278.138 414.536 280.013 414.818 281.607C414.911 281.888 415.005 282.169 415.287 282.732C415.381 282.919 415.474 283.013 416.882 284.138C417.257 284.325 417.726 284.513 418.289 284.606C418.571 284.606 418.852 284.7 419.321 284.7C419.603 284.7 419.978 284.7 420.26 284.7L478.34 262.016L470.833 221.99C470.833 220.584 471.584 218.991 472.804 217.584C473.93 216.366 475.431 215.335 477.12 214.679C479.372 213.741 481.624 213.741 483.125 214.491C488.379 216.835 495.886 216.835 503.767 213.741C509.585 211.492 514.745 207.93 518.498 203.805C523.378 198.462 526.005 192.182 524.973 186.651Z" fill="#EFF9FF"/>
<path d="M381.509 206.805L411.346 289.574C411.346 289.574 404.872 291.543 401.119 288.168C390.892 279.076 373.064 254.423 366.871 240.831C358.333 222.271 353.735 202.305 353.735 202.305L381.509 206.805Z" fill="#E9D6B8"/>
<path d="M402.339 290.043C404.215 293.511 416.132 296.886 416.132 296.886L424.67 287.325H419.228L415.381 278.701L403.84 283.107C403.746 283.107 401.213 287.887 402.339 290.043Z" fill="#E9D6B8"/>
<path d="M427.015 141.658L386.856 203.149L381.414 203.899L382.916 209.054L353.829 206.805L347.354 181.59L403.746 98.6325C403.746 98.6325 409.751 93.1958 420.541 89.4463C428.141 86.8217 445.499 117.286 433.865 132.472C430.393 137.065 427.766 140.439 427.015 141.658Z" fill="#D1DBEA"/>
<path d="M356.362 190.776C356.362 190.776 374.377 199.4 383.854 203.524L381.508 203.805L383.01 208.961L372.97 208.117L358.896 204.836L358.145 198.931H362.555L356.362 190.776Z" fill="#B0BFDE"/>
<path d="M371.036 34.6519L370.567 36.3392C370.473 36.8079 370.192 37.2766 370.004 37.6515L370.473 35.9642C370.755 35.5893 370.942 35.1206 371.036 34.6519Z" fill="#8F8F8F"/>
<path d="M370.473 36.058L370.004 37.7452C369.722 38.2139 369.347 38.6826 368.972 39.0576L369.441 37.3703C369.816 36.9016 370.191 36.5267 370.473 36.058Z" fill="#949494"/>
<path d="M369.441 37.3703L368.972 39.0576C368.503 39.5263 367.846 39.9949 367.189 40.3699L367.659 38.6826C368.315 38.3077 368.878 37.839 369.441 37.3703Z" fill="#999999"/>
<path d="M367.565 38.6826L367.095 40.3699C365.594 41.2135 363.718 41.6822 361.466 41.7759C360.809 41.7759 360.058 41.7759 359.401 41.7759L359.871 40.0887C360.527 40.1824 361.278 40.1824 361.935 40.0887C364.187 39.9949 366.063 39.4325 367.565 38.6826Z" fill="#9E9E9E"/>
<path d="M359.871 40.0887L359.402 41.7759C358.37 41.6822 357.338 41.5885 356.399 41.3072L356.869 39.62C357.807 39.8075 358.839 39.9949 359.871 40.0887Z" fill="#999999"/>
<path d="M356.868 39.62L356.398 41.3072C355.554 41.1198 354.803 40.9323 354.053 40.6511L354.522 38.9638C355.273 39.1513 356.023 39.4325 356.868 39.62Z" fill="#949494"/>
<path d="M354.523 38.8701L354.054 40.5574C353.303 40.2761 352.552 39.9949 351.896 39.62L352.365 37.9327C353.021 38.3077 353.678 38.5889 354.523 38.8701Z" fill="#8F8F8F"/>
<path d="M352.27 37.9327L351.801 39.62C351.144 39.3388 350.582 38.9638 350.019 38.5889L350.488 36.9016C351.145 37.3703 351.707 37.6515 352.27 37.9327Z" fill="#8A8A8A"/>
<path d="M350.582 36.9954L350.113 38.6826C349.925 38.5889 349.831 38.4951 349.644 38.4014L350.113 36.7141C350.207 36.8079 350.394 36.9016 350.582 36.9954Z" fill="#8A8A8A"/>
<path d="M350.112 36.7141L349.643 38.4014C349.455 38.3077 349.174 38.2139 348.986 38.1202L349.455 36.4329C349.643 36.5267 349.831 36.6204 350.112 36.7141Z" fill="#8F8F8F"/>
<path d="M349.362 36.4329L348.893 38.1202C348.706 38.0264 348.424 37.9327 348.143 37.9327L348.612 36.2455C348.893 36.2455 349.175 36.3392 349.362 36.4329Z" fill="#949494"/>
<path d="M348.705 36.2455L348.236 37.9327C347.955 37.839 347.673 37.839 347.392 37.839L347.861 36.1517C348.142 36.1517 348.424 36.1517 348.705 36.2455Z" fill="#999999"/>
<path d="M347.861 36.058L347.392 37.7452C347.204 37.7452 347.016 37.7452 346.829 37.7452C346.172 37.7452 345.609 37.9327 345.14 38.2139L345.609 36.5267C346.078 36.2455 346.641 36.1517 347.298 36.058C347.485 36.058 347.673 36.058 347.861 36.058Z" fill="#9E9E9E"/>
<path d="M345.515 36.5267L345.045 38.2139C344.858 38.3077 344.67 38.4951 344.482 38.5889L344.952 36.9016C345.139 36.7141 345.327 36.6204 345.515 36.5267Z" fill="#999999"/>
<path d="M345.046 36.9016L344.576 38.5889C344.483 38.6826 344.389 38.8701 344.295 38.9638L344.764 37.2766C344.764 37.1828 344.858 36.9953 345.046 36.9016Z" fill="#949494"/>
<path d="M344.67 37.2766L344.201 38.9638C344.108 39.0576 344.107 39.245 344.014 39.3388L344.483 37.6515C344.577 37.5578 344.67 37.3703 344.67 37.2766Z" fill="#8F8F8F"/>
<path d="M353.209 59.3985L352.74 61.1795L324.122 62.398L324.685 60.7108L353.209 59.3985Z" fill="#ADADAD"/>
<path d="M324.685 60.7108L324.216 62.398C323.653 62.4918 323.184 62.5855 322.809 62.773L323.278 61.0857C323.653 60.8982 324.122 60.7108 324.685 60.7108Z" fill="#9E9E9E"/>
<path d="M323.277 61.0857L322.808 62.773C322.62 62.8667 322.433 63.0542 322.245 63.1479L322.714 61.4607C322.808 61.3669 322.996 61.1795 323.277 61.0857Z" fill="#999999"/>
<path d="M322.714 61.4607L322.245 63.1479C322.152 63.2417 322.058 63.4291 321.964 63.5229L322.433 61.8356C322.433 61.7419 322.621 61.5544 322.714 61.4607Z" fill="#949494"/>
<path d="M322.433 61.8356L321.964 63.5229C321.87 63.6166 321.87 63.8041 321.776 63.8978L322.246 62.2106C322.246 62.1168 322.339 62.0231 322.433 61.8356Z" fill="#8F8F8F"/>
<path d="M309.955 65.3039L309.486 66.9911C309.579 66.6162 309.579 66.2412 309.392 65.7726C309.11 65.2101 308.735 64.6477 308.078 64.2728L308.547 62.5855C309.11 62.9605 309.579 63.5229 309.861 64.0853C310.048 64.4602 310.048 64.9289 309.955 65.3039Z" fill="#858585"/>
<path d="M308.547 62.5855L308.078 64.2728C307.89 64.0853 307.609 63.9916 307.421 63.8978L307.89 62.2106C308.078 62.3043 308.359 62.398 308.547 62.5855Z" fill="#8A8A8A"/>
<path d="M307.891 62.1168L307.421 63.8041C307.234 63.7103 306.952 63.6166 306.765 63.5229L307.234 61.8356C307.421 61.9293 307.609 62.0231 307.891 62.1168Z" fill="#8F8F8F"/>
<path d="M307.233 61.8356L306.764 63.5229C306.577 63.4291 306.295 63.3354 306.014 63.3354L306.483 61.6481C306.764 61.7419 306.952 61.8356 307.233 61.8356Z" fill="#949494"/>
<path d="M306.483 61.6481L306.013 63.3354C305.732 63.2417 305.45 63.2417 305.169 63.2417L305.638 61.5544C305.92 61.5544 306.201 61.6481 306.483 61.6481Z" fill="#999999"/>
<path d="M305.638 61.5544L305.169 63.2417C305.075 63.2417 304.982 63.2417 304.794 63.2417L305.263 61.5544C305.357 61.5544 305.451 61.5544 305.638 61.5544Z" fill="#9E9E9E"/>
<path d="M276.645 62.773L276.176 64.4602L253 9.06179L253.469 7.37453L276.645 62.773Z" fill="#808080"/>
<path d="M305.263 61.5544L304.794 63.2417L276.176 64.4602L276.645 62.773L305.263 61.5544Z" fill="#ADADAD"/>
<path d="M330.033 4L338.759 24.8096C339.51 26.1219 341.48 27.153 343.357 27.0593C344.577 26.9655 345.421 26.5906 345.89 25.9344C347.298 23.6847 350.3 22.0912 354.335 21.9975C361.372 21.7163 368.597 25.5595 370.661 30.5275C372.725 35.5893 368.878 39.9012 361.935 40.1824C357.806 40.3699 353.678 39.0576 350.488 37.0891C349.55 36.5267 348.33 36.1517 347.204 36.1517C345.233 36.2455 344.107 37.3703 344.483 38.6826L353.209 59.4922L324.591 60.7108C322.714 60.8982 321.682 62.1168 322.245 63.5229C322.621 64.3665 323.465 65.1164 324.497 65.5851C328.157 67.0849 331.159 69.6158 332.379 72.5216C334.443 77.5834 330.596 81.8953 323.653 82.1765C316.616 82.4577 309.391 78.6145 307.327 73.6465C306.107 70.7406 306.951 68.0222 309.203 66.2412C309.86 65.6788 310.048 64.9289 309.766 64.0853C309.203 62.6792 307.139 61.5544 305.168 61.5544L276.551 62.773L253.469 7.37453L330.033 4Z" fill="#E4EEF3"/>
<path d="M332.849 76.7397L332.379 78.427C332.286 78.8957 332.004 79.3644 331.816 79.7393L332.286 78.0521C332.567 77.6771 332.755 77.2084 332.849 76.7397Z" fill="#8F8F8F"/>
<path d="M332.285 78.1458L331.816 79.8331C331.535 80.3018 331.159 80.7704 330.784 81.1454L331.253 79.4581C331.629 78.9894 332.004 78.6145 332.285 78.1458Z" fill="#949494"/>
<path d="M331.253 79.4581L330.784 81.1454C330.315 81.6141 329.658 82.0828 329.001 82.4577L329.47 80.7704C330.127 80.3955 330.69 79.9268 331.253 79.4581Z" fill="#999999"/>
<path d="M329.376 80.7704L328.907 82.4577C327.406 83.3013 325.529 83.77 323.277 83.8638C322.62 83.8638 321.87 83.8638 321.213 83.8638L321.682 82.1765C322.339 82.2702 323.089 82.2702 323.746 82.1765C325.998 82.0828 327.875 81.5203 329.376 80.7704Z" fill="#9E9E9E"/>
<path d="M321.683 82.0828L321.213 83.77C320.181 83.6763 319.149 83.5825 318.211 83.3013L318.68 81.6141C319.618 81.8953 320.65 82.0828 321.683 82.0828Z" fill="#999999"/>
<path d="M318.68 81.6141L318.211 83.3013C317.367 83.1139 316.616 82.9264 315.771 82.6452L316.241 80.9579C317.085 81.2391 317.836 81.4266 318.68 81.6141Z" fill="#949494"/>
<path d="M316.241 80.9579L315.771 82.6452C315.021 82.364 314.27 82.0828 313.52 81.7078L313.989 80.0205C314.739 80.3955 315.49 80.6767 316.241 80.9579Z" fill="#8F8F8F"/>
<path d="M314.082 80.0205L313.613 81.7078C312.769 81.3329 312.018 80.8642 311.361 80.3955L311.83 78.7082C312.487 79.1769 313.238 79.6456 314.082 80.0205Z" fill="#8A8A8A"/>
<path d="M311.83 78.7082L311.361 80.3955C309.297 78.9894 307.796 77.2084 306.951 75.3337C306.294 73.8339 306.201 72.4279 306.576 71.1155L307.045 69.4283C306.67 70.7406 306.764 72.1467 307.42 73.6464C308.171 75.5212 309.766 77.3022 311.83 78.7082Z" fill="#858585"/>
</svg>
