<svg width="1066" height="307" viewBox="0 0 1066 307" fill="none" xmlns="http://www.w3.org/2000/svg">
<g clip-path="url(#clip0)">
<g opacity="0.07">
<path opacity="0.07" d="M223.214 49.9224H220.433V53.3768H223.214V164.922H220.433V168.265H317.797V164.922H315.015V53.3768H317.797V49.9224H315.015H223.214Z" fill="black"/>
<path opacity="0.07" d="M336.157 49.9224H333.375V53.3768H336.157V164.922H333.375V168.265H430.74V164.922H427.958V53.3768H430.74V49.9224H427.958H336.157Z" fill="black"/>
</g>
<path d="M139.648 50.3682H7.2328V307H139.648V50.3682Z" fill="#B3B3B3"/>
<path d="M0 307H7.45532V54.1568H139.871V307H147.437V46.5793H0V307Z" fill="white"/>
<path d="M126.407 180.077C123.514 180.077 121.177 182.417 121.177 185.314V205.372C121.177 208.27 123.514 210.61 126.407 210.61C129.3 210.61 131.637 208.27 131.637 205.372V185.314C131.637 182.417 129.3 180.077 126.407 180.077Z" fill="#EBEBEB"/>
<path d="M126.407 187.989H113.721C112.275 187.989 111.051 189.215 111.051 190.663C111.051 192.112 112.275 193.338 113.721 193.338H126.407C127.853 193.338 129.077 192.112 129.077 190.663C129.077 189.215 127.853 187.989 126.407 187.989Z" fill="white"/>
<path d="M121.288 82.6838H25.8156V141.855H121.288V82.6838Z" fill="#DEF5F6"/>
<path d="M22.032 145.644H125.071V78.895H22.032V145.644ZM29.4874 86.4725H117.393V138.178H29.4874V86.4725Z" fill="white"/>
<path d="M311.788 46.5793H219.876V163.25H311.788V46.5793Z" fill="white"/>
<path d="M314.459 46.5793H217.094V49.9224H314.459V46.5793Z" fill="#E83F40"/>
<path d="M314.459 161.579H217.094V164.922H314.459V161.579Z" fill="#E83F40"/>
<path d="M303.109 56.2742H227.888V135.281H303.109V56.2742Z" fill="#C6D9DA"/>
<path d="M303.109 140.852H227.888V154.113H303.109V140.852Z" fill="#BFECEE"/>
<path d="M266.277 94.273C266.166 94.0502 265.165 88.0327 264.72 86.5841C264.274 85.1355 263.829 84.1326 263.496 83.5754C263.162 83.0182 262.605 80.901 262.605 80.6781C262.605 80.4552 262.16 79.2295 262.272 78.1151C262.272 77.1122 261.604 75.3293 260.825 74.5493C260.046 73.7692 258.377 73.8807 258.377 73.8807C257.932 73.8807 255.706 72.0977 255.706 72.0977L255.595 71.2062C255.818 71.2062 256.152 71.2062 256.597 71.2062C257.376 71.2062 257.153 70.3148 257.042 70.0919L257.376 69.6462V69.5347L257.153 69.3119L257.487 69.089V68.9776L257.376 68.5318L257.821 68.4204C258.154 68.309 257.932 68.0861 257.932 68.0861C257.932 68.0861 256.93 66.6375 256.93 66.526C257.042 66.3032 257.042 66.0803 257.042 66.0803C257.042 65.8574 256.374 64.4088 256.374 64.4088C256.04 63.7402 254.705 62.5144 252.368 62.5144C250.031 62.5144 249.475 64.8545 249.475 65.9689C249.475 67.1946 251.144 70.4262 251.144 70.4262L251.033 72.0977C251.033 72.0977 248.696 73.8807 248.362 73.8807C248.362 73.8807 246.693 73.8807 245.914 74.5493C245.135 75.3293 244.468 77.1122 244.468 78.1151C244.468 79.118 244.134 80.3438 244.134 80.6781C244.134 80.901 243.578 83.1297 243.244 83.5754C242.91 84.1326 242.354 85.1355 242.02 86.5841C241.575 88.0327 240.573 94.0502 240.462 94.273C240.462 94.273 239.683 94.4959 238.904 95.3874C238.348 96.056 237.124 97.7275 237.124 97.7275C237.124 97.7275 237.68 98.2846 238.348 97.3932C238.348 97.3932 239.015 96.7246 239.238 96.7246L239.127 97.1703C239.127 97.1703 239.127 97.1703 239.127 97.2817L237.903 100.29C237.791 100.402 237.903 100.625 238.014 100.625C238.125 100.736 238.348 100.625 238.348 100.513L239.572 98.1732C239.683 98.1732 239.683 98.2846 239.794 98.2846L239.127 101.07C239.127 101.182 239.127 101.405 239.349 101.405C239.46 101.405 239.683 101.405 239.683 101.182L240.462 98.5075C240.573 98.5075 240.573 98.5075 240.684 98.5075L240.239 100.959C240.239 101.07 240.351 101.293 240.462 101.293C240.573 101.293 240.796 101.293 240.796 101.07L241.463 98.3961C241.575 98.3961 241.575 98.3961 241.686 98.2846L241.463 100.402C241.463 100.513 241.575 100.625 241.686 100.625C241.797 100.625 241.908 100.513 241.908 100.402L242.354 97.7275L242.687 96.2788C242.687 96.2788 242.91 95.6102 242.687 94.9416C242.687 94.9416 245.692 88.1442 245.803 87.3641C245.914 87.1413 246.248 85.5812 246.248 85.3583C246.359 85.024 247.361 82.461 247.695 82.1267C247.695 82.1267 248.585 87.2527 248.251 88.0327C247.917 88.8128 247.917 90.5957 247.806 91.2643C247.806 91.9329 246.916 96.2788 247.027 97.9503C247.027 97.9503 246.693 100.179 247.027 104.079C247.25 105.974 247.361 107.645 247.361 108.091C247.361 108.537 247.25 110.319 247.361 110.877C247.472 111.88 247.25 114.331 247.361 115.557C247.472 116.783 248.696 123.692 248.696 123.914C248.696 124.249 248.474 124.694 248.696 124.917C248.696 124.917 248.474 126.7 248.251 126.812L247.472 127.926C247.25 128.483 248.029 128.483 248.029 128.483L250.699 128.372C250.699 128.372 251.255 128.26 251.255 127.369C251.255 127.146 250.699 125.474 250.699 124.806C250.699 124.583 251.144 124.026 250.81 123.469C250.588 123.023 250.81 119.68 250.922 119.234C251.033 118.788 252.034 115.445 251.255 112.882C251.255 112.882 251.255 111.657 251.367 111.1C251.478 110.542 252.813 101.962 252.813 100.625C252.813 99.2875 252.813 97.8389 252.813 97.8389C252.813 97.8389 253.147 97.9503 253.481 97.9503C253.815 97.9503 254.149 97.8389 254.149 97.8389C254.149 97.8389 254.149 99.2875 254.149 100.625C254.149 101.962 255.373 110.542 255.595 111.1C255.706 111.657 255.706 112.882 255.706 112.882C254.927 115.445 255.929 118.788 256.04 119.234C256.152 119.68 256.374 123.023 256.151 123.469C255.818 124.137 256.263 124.694 256.263 124.806C256.263 125.474 255.706 127.035 255.706 127.369C255.706 128.26 256.263 128.372 256.263 128.372L258.933 128.483C258.933 128.483 259.712 128.483 259.49 127.926L258.711 126.812C258.6 126.7 258.266 124.917 258.266 124.917C258.488 124.583 258.266 124.137 258.266 123.914C258.266 123.58 259.49 116.783 259.601 115.557C259.712 114.331 259.49 111.88 259.601 110.877C259.712 110.431 259.601 108.537 259.601 108.091C259.601 107.645 259.712 106.085 259.935 104.079C260.38 100.179 259.935 97.9503 259.935 97.9503C260.046 96.2788 259.156 91.9329 259.156 91.2643C259.156 90.5957 259.045 88.8128 258.711 88.0327C258.377 87.2527 259.267 82.1267 259.267 82.1267C259.601 82.461 260.602 84.9126 260.714 85.3583C260.714 85.5812 261.159 87.1413 261.159 87.3641C261.381 88.1442 264.274 94.9416 264.274 94.9416C264.052 95.7217 264.274 96.2788 264.274 96.2788L264.608 97.7275L265.053 100.402C265.053 100.513 265.165 100.625 265.276 100.625C265.387 100.625 265.498 100.513 265.498 100.402L265.276 98.2846C265.387 98.2846 265.387 98.3961 265.498 98.3961L266.166 101.07C266.166 101.182 266.389 101.293 266.5 101.293C266.611 101.293 266.722 101.07 266.722 100.959L266.277 98.5075C266.389 98.5075 266.5 98.5075 266.5 98.5075L267.279 101.182C267.279 101.293 267.501 101.405 267.613 101.405C267.724 101.405 267.835 101.182 267.835 101.07L267.168 98.2846C267.279 98.2846 267.279 98.1732 267.39 98.1732L268.614 100.513C268.725 100.625 268.837 100.736 268.948 100.625C269.059 100.513 269.17 100.402 269.059 100.29L267.835 97.2817C267.835 97.2817 267.835 97.2817 267.835 97.1703L267.724 96.7246C267.835 96.7246 268.614 97.3932 268.614 97.3932C269.282 98.2846 269.838 97.7275 269.838 97.7275C269.838 97.7275 268.614 96.1674 268.058 95.3874C267.056 94.3845 266.277 94.273 266.277 94.273Z" fill="white"/>
<path d="M290.201 68.7546C286.418 68.7546 283.302 71.8748 283.302 75.6635C283.302 79.4523 286.418 82.5724 290.201 82.5724C293.984 82.5724 297.1 79.4523 297.1 75.6635C297.1 71.8748 293.984 68.7546 290.201 68.7546ZM290.201 81.4581C286.974 81.4581 284.415 78.8951 284.415 75.6635C284.415 72.432 286.974 69.869 290.201 69.869C293.428 69.869 295.987 72.432 295.987 75.6635C295.987 78.7837 293.317 81.4581 290.201 81.4581Z" fill="white"/>
<path d="M290.201 88.9241C286.418 88.9241 283.302 92.0442 283.302 95.833C283.302 99.6217 286.418 102.742 290.201 102.742C293.984 102.742 297.1 99.6217 297.1 95.833C297.1 92.0442 293.984 88.9241 290.201 88.9241ZM290.201 101.627C286.974 101.627 284.415 99.0645 284.415 95.833C284.415 92.6014 286.974 90.0384 290.201 90.0384C293.428 90.0384 295.987 92.6014 295.987 95.833C295.987 98.9531 293.317 101.627 290.201 101.627Z" fill="white"/>
<path d="M290.201 109.094C286.418 109.094 283.302 112.214 283.302 116.003C283.302 119.791 286.418 122.912 290.201 122.912C293.984 122.912 297.1 119.791 297.1 116.003C297.1 112.102 293.984 109.094 290.201 109.094ZM290.201 121.686C286.974 121.686 284.415 119.123 284.415 115.891C284.415 112.66 286.974 110.097 290.201 110.097C293.428 110.097 295.987 112.66 295.987 115.891C295.987 119.123 293.317 121.686 290.201 121.686Z" fill="white"/>
<path d="M283.747 75.1064H253.258V76.2208H283.747V75.1064Z" fill="white"/>
<path d="M283.859 94.8301H265.499V95.9444H283.859V94.8301Z" fill="white"/>
<path d="M283.859 115.445H257.376V116.56H283.859V115.445Z" fill="white"/>
<path d="M424.731 46.5793H332.819V163.25H424.731V46.5793Z" fill="white"/>
<path d="M427.401 46.5793H330.037V49.9224H427.401V46.5793Z" fill="#007495"/>
<path d="M427.401 161.579H330.037V164.922H427.401V161.579Z" fill="#007495"/>
<path d="M416.052 56.2742H340.831V154.113H416.052V56.2742Z" fill="#C6D9DA"/>
<path d="M394.798 72.7664H362.529C360.526 72.7664 358.968 74.4379 358.968 76.3322V97.6161C358.968 99.6219 360.637 101.182 362.529 101.182H394.798C396.801 101.182 398.359 99.5105 398.359 97.6161V76.3322C398.47 74.3264 396.801 72.7664 394.798 72.7664Z" fill="#F1F2F2"/>
<path d="M393.463 73.9919H363.975C362.195 73.9919 360.637 75.4406 360.637 77.335V96.7244C360.637 98.5074 362.084 100.067 363.975 100.067H393.463C395.243 100.067 396.801 98.6188 396.801 96.7244V77.2235C396.69 75.4406 395.243 73.9919 393.463 73.9919Z" fill="white"/>
<path d="M378.663 78.5608C373.99 78.5608 370.207 82.3495 370.207 87.0298C370.207 91.71 373.99 95.4987 378.663 95.4987C383.337 95.4987 387.12 91.71 387.12 87.0298C387.12 82.3495 383.337 78.5608 378.663 78.5608Z" fill="#C6D9DA"/>
<path d="M380.444 82.1267H376.995V85.2469H373.879V88.7013H376.995V91.8214H380.444V88.7013H383.56V85.2469H380.444V82.1267Z" fill="white"/>
<path d="M381 64.6316H376.438C373.767 64.6316 371.542 66.8603 371.542 69.5347V72.6548H374.213V69.5347C374.213 68.3089 375.214 67.1946 376.549 67.1946H381.112C382.336 67.1946 383.448 68.1975 383.448 69.5347V72.6548H386.119V69.5347C385.896 66.8603 383.671 64.6316 381 64.6316Z" fill="white"/>
<path d="M376.104 110.542H349.065V113.217H376.104V110.542Z" fill="white"/>
<path d="M376.104 124.026H349.065V126.031H376.104V124.026Z" fill="white"/>
<path d="M376.104 127.592H349.065V129.597H376.104V127.592Z" fill="white"/>
<path d="M376.104 131.157H349.065V133.163H376.104V131.157Z" fill="white"/>
<path d="M376.104 134.723H349.065V136.729H376.104V134.723Z" fill="white"/>
<path d="M376.104 138.289H349.065V140.295H376.104V138.289Z" fill="white"/>
<path d="M376.104 141.855H349.065V143.861H376.104V141.855Z" fill="white"/>
<path d="M376.104 145.421H349.065V147.427H376.104V145.421Z" fill="white"/>
<path d="M408.373 146.09H389.68V147.315H408.373V146.09Z" fill="white"/>
<path d="M407.483 110.542H403.922V144.641H407.483V110.542Z" fill="white"/>
<path d="M403.032 116.671H399.472V144.641H403.032V116.671Z" fill="white"/>
<path d="M398.47 133.052H394.91V144.641H398.47V133.052Z" fill="white"/>
<path d="M394.019 122.466H390.458V144.641H394.019V122.466Z" fill="white"/>
<path d="M933.251 3.34302H525.1V303.657H933.251V3.34302Z" fill="#D8E8F1"/>
<path d="M521.761 307H936.589V0H521.761V307ZM528.438 6.68603H929.913V300.314H528.438V6.68603Z" fill="white"/>
<g opacity="0.8">
<path opacity="0.8" d="M599.542 125.251H597.761V143.415H599.542V125.251Z" fill="#DFE1E5"/>
<path opacity="0.8" d="M603.548 132.16H601.211V143.415H603.548V132.16Z" fill="#DFE1E5"/>
<path opacity="0.8" d="M681.884 116.56H673.984V119.68H681.884V116.56Z" fill="#DFE1E5"/>
<path opacity="0.8" d="M588.08 89.3699H558.815V301.428H588.08V89.3699Z" fill="#C1C5CD"/>
<path opacity="0.8" d="M629.14 140.406H586.411V301.428H629.14V140.406Z" fill="#C1C5CD"/>
<path opacity="0.8" d="M687.337 119.568H667.307V301.317H687.337V119.568Z" fill="#C1C5CD"/>
<path opacity="0.8" d="M565.937 57.2769H562.71V95.7215H565.937V57.2769Z" fill="#C1C5CD"/>
<path opacity="0.8" d="M571.501 80.1208H568.274V98.6189H571.501V80.1208Z" fill="#C1C5CD"/>
<path opacity="0.8" d="M547.466 125.251H544.795V137.063H542.236V129.82H539.009V137.063H527.882V301.428H552.362V137.063H547.466V125.251Z" fill="#C1C5CD"/>
<path opacity="0.5" d="M565.381 95.7214H562.154V103.41H565.381V95.7214Z" fill="white"/>
<path opacity="0.5" d="M570.054 95.7214H567.161V103.41H570.054V95.7214Z" fill="white"/>
<path opacity="0.5" d="M575.062 95.7214H571.612V103.41H575.062V95.7214Z" fill="white"/>
<path opacity="0.6" d="M579.512 95.7214H576.619V103.41H579.512V95.7214Z" fill="#F4FAF9"/>
<path opacity="0.5" d="M565.381 105.193H562.154V112.325H565.381V105.193Z" fill="white"/>
<path opacity="0.5" d="M570.054 105.193H567.161V112.325H570.054V105.193Z" fill="white"/>
<path opacity="0.5" d="M575.062 105.193H571.612V112.325H575.062V105.193Z" fill="white"/>
<path opacity="0.5" d="M579.512 105.193H576.619V112.325H579.512V105.193Z" fill="white"/>
<path opacity="0.5" d="M565.381 114.777H562.154V121.685H565.381V114.777Z" fill="white"/>
<path opacity="0.6" d="M570.054 114.777H567.161V121.685H570.054V114.777Z" fill="#F4FAF9"/>
<path opacity="0.5" d="M575.062 114.777H571.612V121.685H575.062V114.777Z" fill="white"/>
<path opacity="0.6" d="M579.512 114.777H576.619V121.685H579.512V114.777Z" fill="#F4FAF9"/>
<path opacity="0.5" d="M565.381 123.691H562.154V131.157H565.381V123.691Z" fill="white"/>
<path opacity="0.5" d="M570.054 123.691H567.161V131.157H570.054V123.691Z" fill="white"/>
<path opacity="0.5" d="M575.062 123.691H571.612V131.157H575.062V123.691Z" fill="white"/>
<path opacity="0.5" d="M579.512 123.691H576.619V131.157H579.512V123.691Z" fill="white"/>
<path opacity="0.5" d="M565.381 133.163H562.154V140.295H565.381V133.163Z" fill="white"/>
<path opacity="0.5" d="M570.054 133.163H567.161V140.295H570.054V133.163Z" fill="white"/>
<path opacity="0.5" d="M575.062 133.163H571.612V140.295H575.062V133.163Z" fill="white"/>
<path opacity="0.6" d="M579.512 133.163H576.619V140.295H579.512V133.163Z" fill="#F4FAF9"/>
<path opacity="0.5" d="M565.381 142.189H562.154V149.656H565.381V142.189Z" fill="white"/>
<path opacity="0.5" d="M570.054 142.189H567.161V149.656H570.054V142.189Z" fill="white"/>
<path opacity="0.6" d="M575.062 142.189H571.612V149.656H575.062V142.189Z" fill="#F4FAF9"/>
<path opacity="0.5" d="M579.512 142.189H576.619V149.656H579.512V142.189Z" fill="white"/>
<path opacity="0.5" d="M565.381 151.661H562.154V158.905H565.381V151.661Z" fill="white"/>
<path opacity="0.5" d="M570.054 151.661H567.161V158.905H570.054V151.661Z" fill="white"/>
<path opacity="0.5" d="M575.062 151.661H571.612V158.905H575.062V151.661Z" fill="white"/>
<path opacity="0.5" d="M579.512 151.661H576.619V158.905H579.512V151.661Z" fill="white"/>
<path opacity="0.5" d="M565.381 160.465H562.154V168.154H565.381V160.465Z" fill="white"/>
<path opacity="0.5" d="M570.054 160.465H567.161V168.154H570.054V160.465Z" fill="white"/>
<path opacity="0.5" d="M575.062 160.465H571.612V168.154H575.062V160.465Z" fill="white"/>
<path opacity="0.5" d="M579.512 160.465H576.619V168.154H579.512V160.465Z" fill="white"/>
<path opacity="0.5" d="M570.054 169.602H567.161V177.068H570.054V169.602Z" fill="white"/>
<path opacity="0.6" d="M575.062 169.602H571.612V177.068H575.062V169.602Z" fill="#F4FAF9"/>
<path opacity="0.5" d="M579.512 169.602H576.619V177.068H579.512V169.602Z" fill="white"/>
<path opacity="0.5" d="M584.853 169.602H581.404V177.068H584.853V169.602Z" fill="white"/>
<path opacity="0.5" d="M570.054 179.185H567.161V186.651H570.054V179.185Z" fill="white"/>
<path opacity="0.6" d="M575.062 179.185H571.612V186.651H575.062V179.185Z" fill="#F4FAF9"/>
<path opacity="0.5" d="M579.512 179.185H576.619V186.651H579.512V179.185Z" fill="white"/>
<path opacity="0.5" d="M584.853 179.185H581.404V186.651H584.853V179.185Z" fill="white"/>
<path opacity="0.5" d="M570.054 188.434H567.161V195.9H570.054V188.434Z" fill="white"/>
<path opacity="0.5" d="M575.062 188.434H571.612V195.9H575.062V188.434Z" fill="white"/>
<path opacity="0.5" d="M579.512 188.434H576.619V195.9H579.512V188.434Z" fill="white"/>
<path opacity="0.5" d="M584.853 188.434H581.404V195.9H584.853V188.434Z" fill="white"/>
<path opacity="0.6" d="M570.054 197.683H567.161V205.149H570.054V197.683Z" fill="#F4FAF9"/>
<path opacity="0.6" d="M575.062 197.683H571.612V205.149H575.062V197.683Z" fill="#F4FAF9"/>
<path opacity="0.5" d="M579.512 197.683H576.619V205.149H579.512V197.683Z" fill="white"/>
<path opacity="0.5" d="M584.853 197.683H581.404V205.149H584.853V197.683Z" fill="white"/>
<path opacity="0.5" d="M570.054 206.821H567.161V213.953H570.054V206.821Z" fill="white"/>
<path opacity="0.5" d="M575.062 206.821H571.612V213.953H575.062V206.821Z" fill="white"/>
<path opacity="0.5" d="M579.512 206.821H576.619V213.953H579.512V206.821Z" fill="white"/>
<path opacity="0.5" d="M584.853 206.821H581.404V213.953H584.853V206.821Z" fill="white"/>
<path opacity="0.5" d="M570.054 216.07H567.161V223.313H570.054V216.07Z" fill="white"/>
<path opacity="0.5" d="M575.062 216.07H571.612V223.313H575.062V216.07Z" fill="white"/>
<path opacity="0.5" d="M579.512 216.07H576.619V223.313H579.512V216.07Z" fill="white"/>
<path opacity="0.5" d="M584.853 216.07H581.404V223.313H584.853V216.07Z" fill="white"/>
<path opacity="0.5" d="M672.315 125.474H669.978V131.603H672.315V125.474Z" fill="white"/>
<path opacity="0.6" d="M676.543 125.474H673.984V131.603H676.543V125.474Z" fill="#F4FAF9"/>
<path opacity="0.5" d="M680.549 125.474H677.656V131.603H680.549V125.474Z" fill="white"/>
<path opacity="0.5" d="M684.221 125.474H681.884V131.603H684.221V125.474Z" fill="white"/>
<path opacity="0.5" d="M672.315 132.94H669.978V139.069H672.315V132.94Z" fill="white"/>
<path opacity="0.6" d="M676.543 132.94H673.984V139.069H676.543V132.94Z" fill="#F4FAF9"/>
<path opacity="0.5" d="M680.549 132.94H677.656V139.069H680.549V132.94Z" fill="white"/>
<path opacity="0.5" d="M684.221 132.94H681.884V139.069H684.221V132.94Z" fill="white"/>
<path opacity="0.6" d="M672.315 140.406H669.978V146.312H672.315V140.406Z" fill="#F4FAF9"/>
<path opacity="0.6" d="M676.543 140.406H673.984V146.312H676.543V140.406Z" fill="#F4FAF9"/>
<path opacity="0.5" d="M680.549 140.406H677.656V146.312H680.549V140.406Z" fill="white"/>
<path opacity="0.5" d="M684.221 140.406H681.884V146.312H684.221V140.406Z" fill="white"/>
<path opacity="0.5" d="M672.315 148.095H669.978V154.001H672.315V148.095Z" fill="white"/>
<path opacity="0.6" d="M676.543 148.095H673.984V154.001H676.543V148.095Z" fill="#F4FAF9"/>
<path opacity="0.6" d="M680.549 148.095H677.656V154.001H680.549V148.095Z" fill="#F4FAF9"/>
<path opacity="0.6" d="M684.221 148.095H681.884V154.001H684.221V148.095Z" fill="#F4FAF9"/>
<path opacity="0.5" d="M672.315 155.562H669.978V162.025H672.315V155.562Z" fill="white"/>
<path opacity="0.6" d="M676.543 155.562H673.984V162.025H676.543V155.562Z" fill="#F4FAF9"/>
<path opacity="0.6" d="M680.549 155.562H677.656V162.025H680.549V155.562Z" fill="#F4FAF9"/>
<path opacity="0.6" d="M684.221 155.562H681.884V162.025H684.221V155.562Z" fill="#F4FAF9"/>
<path opacity="0.5" d="M672.315 162.693H669.978V169.379H672.315V162.693Z" fill="white"/>
<path opacity="0.6" d="M676.543 162.693H673.984V169.379H676.543V162.693Z" fill="#F4FAF9"/>
<path opacity="0.5" d="M680.549 162.693H677.656V169.379H680.549V162.693Z" fill="white"/>
<path opacity="0.6" d="M684.221 162.693H681.884V169.379H684.221V162.693Z" fill="#F4FAF9"/>
<path opacity="0.6" d="M672.315 170.382H669.978V176.511H672.315V170.382Z" fill="#F4FAF9"/>
<path opacity="0.6" d="M676.543 170.382H673.984V176.511H676.543V170.382Z" fill="#F4FAF9"/>
<path opacity="0.5" d="M680.549 170.382H677.656V176.511H680.549V170.382Z" fill="white"/>
<path opacity="0.5" d="M684.221 170.382H681.884V176.511H684.221V170.382Z" fill="white"/>
<path opacity="0.6" d="M672.315 178.405H669.978V184.088H672.315V178.405Z" fill="#F4FAF9"/>
<path opacity="0.6" d="M676.543 178.405H673.984V184.088H676.543V178.405Z" fill="#F4FAF9"/>
<path opacity="0.5" d="M680.549 178.405H677.656V184.088H680.549V178.405Z" fill="white"/>
<path opacity="0.5" d="M684.221 178.405H681.884V184.088H684.221V178.405Z" fill="white"/>
<path opacity="0.8" d="M647.612 176.845H633.925V201.695H647.612V176.845Z" fill="#DFE1E5"/>
<path opacity="0.8" d="M754.546 208.938H658.405V301.428H754.546V208.938Z" fill="#DFE1E5"/>
<path opacity="0.8" d="M762.557 157.121H759.998V163.027H758.107V153.444H755.659V163.027H751.764V301.428H772.238V163.027H762.557V157.121Z" fill="#C1C5CD"/>
<path opacity="0.8" d="M745.644 166.148H739.746V208.938H745.644V166.148Z" fill="#C1C5CD"/>
<path opacity="0.8" d="M754.991 181.191H743.085V301.428H754.991V181.191Z" fill="#C1C5CD"/>
<path opacity="0.6" d="M607.665 146.758H603.77V149.544H607.665V146.758Z" fill="#F4FAF9"/>
<path opacity="0.5" d="M613.562 146.758H609.89V149.544H613.562V146.758Z" fill="white"/>
<path opacity="0.6" d="M619.905 146.758H616.01V149.544H619.905V146.758Z" fill="#F4FAF9"/>
<path opacity="0.5" d="M626.025 146.758H622.019V149.544H626.025V146.758Z" fill="white"/>
<path opacity="0.5" d="M607.665 150.436H603.77V153.221H607.665V150.436Z" fill="white"/>
<path opacity="0.6" d="M613.562 150.436H609.89V153.221H613.562V150.436Z" fill="#F4FAF9"/>
<path opacity="0.5" d="M619.905 150.436H616.01V153.221H619.905V150.436Z" fill="white"/>
<path opacity="0.6" d="M626.025 150.436H622.019V153.221H626.025V150.436Z" fill="#F4FAF9"/>
<path opacity="0.5" d="M607.665 154.001H603.77V156.342H607.665V154.001Z" fill="white"/>
<path opacity="0.5" d="M613.562 154.001H609.89V156.342H613.562V154.001Z" fill="white"/>
<path opacity="0.5" d="M619.905 154.001H616.01V156.342H619.905V154.001Z" fill="white"/>
<path opacity="0.5" d="M626.025 154.001H622.019V156.342H626.025V154.001Z" fill="white"/>
<path opacity="0.5" d="M607.665 157.344H603.77V160.13H607.665V157.344Z" fill="white"/>
<path opacity="0.6" d="M613.562 157.344H609.89V160.13H613.562V157.344Z" fill="#F4FAF9"/>
<path opacity="0.5" d="M619.905 157.344H616.01V160.13H619.905V157.344Z" fill="white"/>
<path opacity="0.6" d="M626.025 157.344H622.019V160.13H626.025V157.344Z" fill="#F4FAF9"/>
<path opacity="0.5" d="M607.665 160.91H603.77V163.473H607.665V160.91Z" fill="white"/>
<path opacity="0.6" d="M613.562 160.91H609.89V163.473H613.562V160.91Z" fill="#F4FAF9"/>
<path opacity="0.5" d="M619.905 160.91H616.01V163.473H619.905V160.91Z" fill="white"/>
<path opacity="0.6" d="M626.025 160.91H622.019V163.473H626.025V160.91Z" fill="#F4FAF9"/>
<path opacity="0.6" d="M607.665 164.476H603.77V167.262H607.665V164.476Z" fill="#F4FAF9"/>
<path opacity="0.5" d="M613.562 164.476H609.89V167.262H613.562V164.476Z" fill="white"/>
<path opacity="0.5" d="M619.905 164.476H616.01V167.262H619.905V164.476Z" fill="white"/>
<path opacity="0.5" d="M626.025 164.476H622.019V167.262H626.025V164.476Z" fill="white"/>
<path opacity="0.6" d="M607.665 168.153H603.77V170.939H607.665V168.153Z" fill="#F4FAF9"/>
<path opacity="0.5" d="M613.562 168.153H609.89V170.939H613.562V168.153Z" fill="white"/>
<path opacity="0.6" d="M619.905 168.153H616.01V170.939H619.905V168.153Z" fill="#F4FAF9"/>
<path opacity="0.6" d="M626.025 168.153H622.019V170.939H626.025V168.153Z" fill="#F4FAF9"/>
<path opacity="0.5" d="M607.665 171.719H603.77V174.282H607.665V171.719Z" fill="white"/>
<path opacity="0.5" d="M613.562 171.719H609.89V174.282H613.562V171.719Z" fill="white"/>
<path opacity="0.5" d="M619.905 171.719H616.01V174.282H619.905V171.719Z" fill="white"/>
<path opacity="0.6" d="M626.025 171.719H622.019V174.282H626.025V171.719Z" fill="#F4FAF9"/>
<path opacity="0.6" d="M640.49 180.188H637.041V184.088H640.49V180.188Z" fill="#F4FAF9"/>
<path opacity="0.5" d="M644.719 180.188H642.048V184.088H644.719V180.188Z" fill="white"/>
<path opacity="0.6" d="M640.49 185.537H637.041V189.66H640.49V185.537Z" fill="#F4FAF9"/>
<path opacity="0.6" d="M644.719 185.537H642.048V189.66H644.719V185.537Z" fill="#F4FAF9"/>
<path opacity="0.8" d="M565.381 169.379H545.129V301.428H565.381V169.379Z" fill="#DFE1E5"/>
<path opacity="0.6" d="M558.815 172.499H548.022V174.839H558.815V172.499Z" fill="#F4FAF9"/>
<path opacity="0.5" d="M558.815 175.842H548.022V178.405H558.815V175.842Z" fill="white"/>
<path opacity="0.6" d="M558.815 179.408H548.022V181.971H558.815V179.408Z" fill="#F4FAF9"/>
<path opacity="0.6" d="M558.815 182.751H548.022V185.314H558.815V182.751Z" fill="#F4FAF9"/>
<path opacity="0.6" d="M558.815 186.317H548.022V188.323H558.815V186.317Z" fill="#F4FAF9"/>
<path opacity="0.5" d="M558.815 189.66H548.022V192.223H558.815V189.66Z" fill="white"/>
<path opacity="0.8" d="M660.742 186.54H655.735V194.006H660.742V186.54Z" fill="#C1C5CD"/>
<path opacity="0.8" d="M660.631 181.971H658.183V195.789H660.631V181.971Z" fill="#C1C5CD"/>
<path opacity="0.8" d="M672.314 109.539H671.536V119.568H672.314V109.539Z" fill="#C1C5CD"/>
<path opacity="0.8" d="M706.142 131.157H698.241V134.278H706.142V131.157Z" fill="#DFE1E5"/>
<path opacity="0.8" d="M727.283 134.166H691.565V301.54H727.283V134.166Z" fill="#C1C5CD"/>
<path opacity="0.5" d="M696.572 140.072H694.235V146.201H696.572V140.072Z" fill="white"/>
<path opacity="0.6" d="M700.8 140.072H698.241V146.201H700.8V140.072Z" fill="#F4FAF9"/>
<path opacity="0.5" d="M704.807 140.072H701.913V146.201H704.807V140.072Z" fill="white"/>
<path opacity="0.5" d="M708.479 140.072H706.142V146.201H708.479V140.072Z" fill="white"/>
<path opacity="0.5" d="M696.572 147.538H694.235V153.667H696.572V147.538Z" fill="white"/>
<path opacity="0.6" d="M700.8 147.538H698.241V153.667H700.8V147.538Z" fill="#F4FAF9"/>
<path opacity="0.5" d="M704.807 147.538H701.913V153.667H704.807V147.538Z" fill="white"/>
<path opacity="0.5" d="M708.479 147.538H706.142V153.667H708.479V147.538Z" fill="white"/>
<path opacity="0.6" d="M696.572 155.004H694.235V160.91H696.572V155.004Z" fill="#F4FAF9"/>
<path opacity="0.6" d="M700.8 155.004H698.241V160.91H700.8V155.004Z" fill="#F4FAF9"/>
<path opacity="0.5" d="M704.807 155.004H701.913V160.91H704.807V155.004Z" fill="white"/>
<path opacity="0.5" d="M708.479 155.004H706.142V160.91H708.479V155.004Z" fill="white"/>
<path opacity="0.5" d="M696.572 162.693H694.235V168.599H696.572V162.693Z" fill="white"/>
<path opacity="0.6" d="M700.8 162.693H698.241V168.599H700.8V162.693Z" fill="#F4FAF9"/>
<path opacity="0.6" d="M704.807 162.693H701.913V168.599H704.807V162.693Z" fill="#F4FAF9"/>
<path opacity="0.6" d="M708.479 162.693H706.142V168.599H708.479V162.693Z" fill="#F4FAF9"/>
<path opacity="0.5" d="M696.572 170.159H694.235V176.622H696.572V170.159Z" fill="white"/>
<path opacity="0.6" d="M700.8 170.159H698.241V176.622H700.8V170.159Z" fill="#F4FAF9"/>
<path opacity="0.6" d="M704.807 170.159H701.913V176.622H704.807V170.159Z" fill="#F4FAF9"/>
<path opacity="0.6" d="M708.479 170.159H706.142V176.622H708.479V170.159Z" fill="#F4FAF9"/>
<path opacity="0.5" d="M696.572 177.291H694.235V183.977H696.572V177.291Z" fill="white"/>
<path opacity="0.6" d="M700.8 177.291H698.241V183.977H700.8V177.291Z" fill="#F4FAF9"/>
<path opacity="0.5" d="M704.807 177.291H701.913V183.977H704.807V177.291Z" fill="white"/>
<path opacity="0.6" d="M708.479 177.291H706.142V183.977H708.479V177.291Z" fill="#F4FAF9"/>
<path opacity="0.6" d="M696.572 185.091H694.235V191.22H696.572V185.091Z" fill="#F4FAF9"/>
<path opacity="0.6" d="M700.8 185.091H698.241V191.22H700.8V185.091Z" fill="#F4FAF9"/>
<path opacity="0.5" d="M704.807 185.091H701.913V191.22H704.807V185.091Z" fill="white"/>
<path opacity="0.5" d="M708.479 185.091H706.142V191.22H708.479V185.091Z" fill="white"/>
<path opacity="0.6" d="M696.572 193.003H694.235V198.686H696.572V193.003Z" fill="#F4FAF9"/>
<path opacity="0.6" d="M700.8 193.003H698.241V198.686H700.8V193.003Z" fill="#F4FAF9"/>
<path opacity="0.5" d="M704.807 193.003H701.913V198.686H704.807V193.003Z" fill="white"/>
<path opacity="0.5" d="M708.479 193.003H706.142V198.686H708.479V193.003Z" fill="white"/>
<path opacity="0.8" d="M696.572 124.249H695.793V134.278H696.572V124.249Z" fill="#C1C5CD"/>
<path opacity="0.8" d="M622.019 135.726H607.553V143.415H622.019V135.726Z" fill="#C1C5CD"/>
<path opacity="0.8" d="M669.978 191.22H629.14V301.428H669.978V191.22Z" fill="#DFE1E5"/>
<path opacity="0.8" d="M619.905 188.434H588.859V301.428H619.905V188.434Z" fill="#DFE1E5"/>
<path opacity="0.5" d="M617.012 241.811H614.564V247.94H617.012V241.811Z" fill="white"/>
<path opacity="0.5" d="M613.228 241.811H610.892V247.94H613.228V241.811Z" fill="white"/>
<path opacity="0.5" d="M609.334 241.811H606.663V247.94H609.334V241.811Z" fill="white"/>
<path opacity="0.6" d="M605.328 241.811H602.769V247.94H605.328V241.811Z" fill="#F4FAF9"/>
<path opacity="0.5" d="M617.012 234.568H614.564V240.697H617.012V234.568Z" fill="white"/>
<path opacity="0.5" d="M613.228 234.568H610.892V240.697H613.228V234.568Z" fill="white"/>
<path opacity="0.5" d="M609.334 234.568H606.663V240.697H609.334V234.568Z" fill="white"/>
<path opacity="0.5" d="M605.328 234.568H602.769V240.697H605.328V234.568Z" fill="white"/>
<path opacity="0.5" d="M617.012 227.102H614.564V233.231H617.012V227.102Z" fill="white"/>
<path opacity="0.6" d="M613.228 227.102H610.892V233.231H613.228V227.102Z" fill="#F4FAF9"/>
<path opacity="0.5" d="M609.334 227.102H606.663V233.231H609.334V227.102Z" fill="white"/>
<path opacity="0.6" d="M605.328 227.102H602.769V233.231H605.328V227.102Z" fill="#F4FAF9"/>
<path opacity="0.5" d="M617.012 220.193H614.564V225.876H617.012V220.193Z" fill="white"/>
<path opacity="0.5" d="M613.228 220.193H610.892V225.876H613.228V220.193Z" fill="white"/>
<path opacity="0.5" d="M609.334 220.193H606.663V225.876H609.334V220.193Z" fill="white"/>
<path opacity="0.5" d="M605.328 220.193H602.769V225.876H605.328V220.193Z" fill="white"/>
<path opacity="0.5" d="M617.012 212.727H614.564V218.633H617.012V212.727Z" fill="white"/>
<path opacity="0.5" d="M613.228 212.727H610.892V218.633H613.228V212.727Z" fill="white"/>
<path opacity="0.5" d="M609.334 212.727H606.663V218.633H609.334V212.727Z" fill="white"/>
<path opacity="0.6" d="M605.328 212.727H602.769V218.633H605.328V212.727Z" fill="#F4FAF9"/>
<path opacity="0.5" d="M617.012 205.595H614.564V211.278H617.012V205.595Z" fill="white"/>
<path opacity="0.5" d="M613.228 205.595H610.892V211.278H613.228V205.595Z" fill="white"/>
<path opacity="0.6" d="M609.334 205.595H606.663V211.278H609.334V205.595Z" fill="#F4FAF9"/>
<path opacity="0.5" d="M605.328 205.595H602.769V211.278H605.328V205.595Z" fill="white"/>
<path opacity="0.5" d="M617.012 197.906H614.564V204.035H617.012V197.906Z" fill="white"/>
<path opacity="0.5" d="M613.228 197.906H610.892V204.035H613.228V197.906Z" fill="white"/>
<path opacity="0.5" d="M609.334 197.906H606.663V204.035H609.334V197.906Z" fill="white"/>
<path opacity="0.5" d="M605.328 197.906H602.769V204.035H605.328V197.906Z" fill="white"/>
<path opacity="0.5" d="M617.012 190.663H614.564V196.792H617.012V190.663Z" fill="white"/>
<path opacity="0.5" d="M613.228 190.663H610.892V196.792H613.228V190.663Z" fill="white"/>
<path opacity="0.5" d="M609.334 190.663H606.663V196.792H609.334V190.663Z" fill="white"/>
<path opacity="0.5" d="M605.328 190.663H602.769V196.792H605.328V190.663Z" fill="white"/>
<path opacity="0.8" d="M660.965 218.187H643.829V301.428H660.965V218.187Z" fill="#DFE1E5"/>
<path opacity="0.8" d="M685.779 256.632H659.741V301.317H685.779V256.632Z" fill="#DFE1E5"/>
<path opacity="0.8" d="M791.6 125.251H788.818V137.063H786.37V129.82H783.143V137.063H771.904V301.428H796.384V137.063H791.6V125.251Z" fill="#C1C5CD"/>
<path opacity="0.8" d="M809.515 169.379H789.263V301.428H809.515V169.379Z" fill="#DFE1E5"/>
<g opacity="0.6">
<path opacity="0.6" d="M802.95 172.499H792.156V174.839H802.95V172.499Z" fill="#F4FAF9"/>
<path opacity="0.5" d="M802.95 175.842H792.156V178.405H802.95V175.842Z" fill="white"/>
<path opacity="0.6" d="M802.95 179.408H792.156V181.971H802.95V179.408Z" fill="#F4FAF9"/>
<path opacity="0.6" d="M802.95 182.751H792.156V185.314H802.95V182.751Z" fill="#F4FAF9"/>
<path opacity="0.6" d="M802.95 186.317H792.156V188.323H802.95V186.317Z" fill="#F4FAF9"/>
<path opacity="0.5" d="M802.95 189.66H792.156V192.223H802.95V189.66Z" fill="white"/>
</g>
<path opacity="0.8" d="M843.231 188.434H808.847V301.428H843.231V188.434Z" fill="#DFE1E5"/>
<g opacity="0.6">
<path opacity="0.5" d="M836.888 241.811H834.44V247.94H836.888V241.811Z" fill="white"/>
<path opacity="0.5" d="M833.105 241.811H830.768V247.94H833.105V241.811Z" fill="white"/>
<path opacity="0.5" d="M829.21 241.811H826.54V247.94H829.21V241.811Z" fill="white"/>
<path opacity="0.6" d="M825.093 241.811H822.645V247.94H825.093V241.811Z" fill="#F4FAF9"/>
<path opacity="0.5" d="M836.888 234.568H834.44V240.697H836.888V234.568Z" fill="white"/>
<path opacity="0.5" d="M833.105 234.568H830.768V240.697H833.105V234.568Z" fill="white"/>
<path opacity="0.5" d="M829.21 234.568H826.54V240.697H829.21V234.568Z" fill="white"/>
<path opacity="0.5" d="M825.093 234.568H822.645V240.697H825.093V234.568Z" fill="white"/>
<path opacity="0.5" d="M836.888 227.102H834.44V233.231H836.888V227.102Z" fill="white"/>
<path opacity="0.6" d="M833.105 227.102H830.768V233.231H833.105V227.102Z" fill="#F4FAF9"/>
<path opacity="0.5" d="M829.21 227.102H826.54V233.231H829.21V227.102Z" fill="white"/>
<path opacity="0.6" d="M825.093 227.102H822.645V233.231H825.093V227.102Z" fill="#F4FAF9"/>
<path opacity="0.5" d="M836.888 220.193H834.44V225.876H836.888V220.193Z" fill="white"/>
<path opacity="0.5" d="M833.105 220.193H830.768V225.876H833.105V220.193Z" fill="white"/>
<path opacity="0.5" d="M829.21 220.193H826.54V225.876H829.21V220.193Z" fill="white"/>
<path opacity="0.5" d="M825.093 220.193H822.645V225.876H825.093V220.193Z" fill="white"/>
<path opacity="0.5" d="M836.888 212.727H834.44V218.633H836.888V212.727Z" fill="white"/>
<path opacity="0.5" d="M833.105 212.727H830.768V218.633H833.105V212.727Z" fill="white"/>
<path opacity="0.5" d="M829.21 212.727H826.54V218.633H829.21V212.727Z" fill="white"/>
<path opacity="0.6" d="M825.093 212.727H822.645V218.633H825.093V212.727Z" fill="#F4FAF9"/>
<path opacity="0.5" d="M836.888 205.595H834.44V211.278H836.888V205.595Z" fill="white"/>
<path opacity="0.5" d="M833.105 205.595H830.768V211.278H833.105V205.595Z" fill="white"/>
<path opacity="0.6" d="M829.21 205.595H826.54V211.278H829.21V205.595Z" fill="#F4FAF9"/>
<path opacity="0.5" d="M825.093 205.595H822.645V211.278H825.093V205.595Z" fill="white"/>
<path opacity="0.5" d="M836.888 197.906H834.44V204.035H836.888V197.906Z" fill="white"/>
<path opacity="0.5" d="M833.105 197.906H830.768V204.035H833.105V197.906Z" fill="white"/>
<path opacity="0.5" d="M829.21 197.906H826.54V204.035H829.21V197.906Z" fill="white"/>
<path opacity="0.5" d="M825.093 197.906H822.645V204.035H825.093V197.906Z" fill="white"/>
<path opacity="0.5" d="M836.888 190.663H834.44V196.792H836.888V190.663Z" fill="white"/>
<path opacity="0.5" d="M833.105 190.663H830.768V196.792H833.105V190.663Z" fill="white"/>
<path opacity="0.5" d="M829.21 190.663H826.54V196.792H829.21V190.663Z" fill="white"/>
<path opacity="0.5" d="M825.093 190.663H822.645V196.792H825.093V190.663Z" fill="white"/>
</g>
<path opacity="0.8" d="M871.717 141.187H869.936V157.79H871.717V141.187Z" fill="#DFE1E5"/>
<path opacity="0.8" d="M868.156 147.427H865.819V157.679H868.156V147.427Z" fill="#DFE1E5"/>
<path opacity="0.8" d="M910.551 108.536H881.286V301.428H910.551V108.536Z" fill="#C1C5CD"/>
<path opacity="0.8" d="M882.955 154.893H840.227V301.317H882.955V154.893Z" fill="#C1C5CD"/>
<path opacity="0.8" d="M919.231 145.421H915.892V151.884H913.444V141.187H910.662V151.884H905.878V301.428H930.358V151.884H919.231V145.421Z" fill="#C1C5CD"/>
<path opacity="0.5" d="M907.213 114.331H903.986V121.351H907.213V114.331Z" fill="white"/>
<path opacity="0.5" d="M902.206 114.331H899.312V121.351H902.206V114.331Z" fill="white"/>
<path opacity="0.5" d="M897.866 114.331H894.417V121.351H897.866V114.331Z" fill="white"/>
<path opacity="0.6" d="M892.859 114.331H889.966V121.351H892.859V114.331Z" fill="#F4FAF9"/>
<path opacity="0.5" d="M907.213 122.911H903.986V129.486H907.213V122.911Z" fill="white"/>
<path opacity="0.5" d="M902.206 122.911H899.312V129.486H902.206V122.911Z" fill="white"/>
<path opacity="0.5" d="M897.866 122.911H894.417V129.486H897.866V122.911Z" fill="white"/>
<path opacity="0.5" d="M892.859 122.911H889.966V129.486H892.859V122.911Z" fill="white"/>
<path opacity="0.5" d="M907.213 131.603H903.986V137.955H907.213V131.603Z" fill="white"/>
<path opacity="0.6" d="M902.206 131.603H899.312V137.955H902.206V131.603Z" fill="#F4FAF9"/>
<path opacity="0.5" d="M897.866 131.603H894.417V137.955H897.866V131.603Z" fill="white"/>
<path opacity="0.6" d="M892.859 131.603H889.966V137.955H892.859V131.603Z" fill="#F4FAF9"/>
<path opacity="0.5" d="M907.213 139.738H903.986V146.535H907.213V139.738Z" fill="white"/>
<path opacity="0.5" d="M902.206 139.738H899.312V146.535H902.206V139.738Z" fill="white"/>
<path opacity="0.5" d="M897.866 139.738H894.417V146.535H897.866V139.738Z" fill="white"/>
<path opacity="0.5" d="M892.859 139.738H889.966V146.535H892.859V139.738Z" fill="white"/>
<path opacity="0.5" d="M907.213 148.43H903.986V155.004H907.213V148.43Z" fill="white"/>
<path opacity="0.5" d="M902.206 148.43H899.312V155.004H902.206V148.43Z" fill="white"/>
<path opacity="0.5" d="M897.866 148.43H894.417V155.004H897.866V148.43Z" fill="white"/>
<path opacity="0.6" d="M892.859 148.43H889.966V155.004H892.859V148.43Z" fill="#F4FAF9"/>
<path opacity="0.5" d="M907.213 156.564H903.986V163.362H907.213V156.564Z" fill="white"/>
<path opacity="0.5" d="M902.206 156.564H899.312V163.362H902.206V156.564Z" fill="white"/>
<path opacity="0.6" d="M897.866 156.564H894.417V163.362H897.866V156.564Z" fill="#F4FAF9"/>
<path opacity="0.5" d="M892.859 156.564H889.966V163.362H892.859V156.564Z" fill="white"/>
<path opacity="0.5" d="M907.213 165.256H903.986V171.831H907.213V165.256Z" fill="white"/>
<path opacity="0.5" d="M902.206 165.256H899.312V171.831H902.206V165.256Z" fill="white"/>
<path opacity="0.5" d="M897.866 165.256H894.417V171.831H897.866V165.256Z" fill="white"/>
<path opacity="0.5" d="M892.859 165.256H889.966V171.831H892.859V165.256Z" fill="white"/>
<path opacity="0.5" d="M907.213 173.168H903.986V180.188H907.213V173.168Z" fill="white"/>
<path opacity="0.5" d="M902.206 173.168H899.312V180.188H902.206V173.168Z" fill="white"/>
<path opacity="0.5" d="M897.866 173.168H894.417V180.188H897.866V173.168Z" fill="white"/>
<path opacity="0.5" d="M892.859 173.168H889.966V180.188H892.859V173.168Z" fill="white"/>
<path opacity="0.6" d="M865.708 160.799H861.813V163.362H865.708V160.799Z" fill="#F4FAF9"/>
<path opacity="0.5" d="M859.477 160.799H855.805V163.362H859.477V160.799Z" fill="white"/>
<path opacity="0.6" d="M853.357 160.799H849.462V163.362H853.357V160.799Z" fill="#F4FAF9"/>
<path opacity="0.5" d="M847.348 160.799H843.342V163.362H847.348V160.799Z" fill="white"/>
<path opacity="0.5" d="M865.708 164.03H861.813V166.593H865.708V164.03Z" fill="white"/>
<path opacity="0.6" d="M859.477 164.03H855.805V166.593H859.477V164.03Z" fill="#F4FAF9"/>
<path opacity="0.5" d="M853.357 164.03H849.462V166.593H853.357V164.03Z" fill="white"/>
<path opacity="0.6" d="M847.348 164.03H843.342V166.593H847.348V164.03Z" fill="#F4FAF9"/>
<path opacity="0.5" d="M865.708 167.262H861.813V169.379H865.708V167.262Z" fill="white"/>
<path opacity="0.5" d="M859.477 167.262H855.805V169.379H859.477V167.262Z" fill="white"/>
<path opacity="0.5" d="M853.357 167.262H849.462V169.379H853.357V167.262Z" fill="white"/>
<path opacity="0.5" d="M847.348 167.262H843.342V169.379H847.348V167.262Z" fill="white"/>
<path opacity="0.5" d="M865.708 170.382H861.813V172.945H865.708V170.382Z" fill="white"/>
<path opacity="0.6" d="M859.477 170.382H855.805V172.945H859.477V170.382Z" fill="#F4FAF9"/>
<path opacity="0.5" d="M853.357 170.382H849.462V172.945H853.357V170.382Z" fill="white"/>
<path opacity="0.6" d="M847.348 170.382H843.342V172.945H847.348V170.382Z" fill="#F4FAF9"/>
<path opacity="0.5" d="M865.708 173.614H861.813V175.954H865.708V173.614Z" fill="white"/>
<path opacity="0.6" d="M859.477 173.614H855.805V175.954H859.477V173.614Z" fill="#F4FAF9"/>
<path opacity="0.5" d="M853.357 173.614H849.462V175.954H853.357V173.614Z" fill="white"/>
<path opacity="0.6" d="M847.348 173.614H843.342V175.954H847.348V173.614Z" fill="#F4FAF9"/>
<path opacity="0.6" d="M865.708 176.845H861.813V179.408H865.708V176.845Z" fill="#F4FAF9"/>
<path opacity="0.5" d="M859.477 176.845H855.805V179.408H859.477V176.845Z" fill="white"/>
<path opacity="0.5" d="M853.357 176.845H849.462V179.408H853.357V176.845Z" fill="white"/>
<path opacity="0.5" d="M847.348 176.845H843.342V179.408H847.348V176.845Z" fill="white"/>
<path opacity="0.6" d="M865.708 180.188H861.813V182.751H865.708V180.188Z" fill="#F4FAF9"/>
<path opacity="0.5" d="M859.477 180.188H855.805V182.751H859.477V180.188Z" fill="white"/>
<path opacity="0.6" d="M853.357 180.188H849.462V182.751H853.357V180.188Z" fill="#F4FAF9"/>
<path opacity="0.6" d="M847.348 180.188H843.342V182.751H847.348V180.188Z" fill="#F4FAF9"/>
<path opacity="0.5" d="M865.708 183.42H861.813V185.76H865.708V183.42Z" fill="white"/>
<path opacity="0.5" d="M859.477 183.42H855.805V185.76H859.477V183.42Z" fill="white"/>
<path opacity="0.5" d="M853.357 183.42H849.462V185.76H853.357V183.42Z" fill="white"/>
<path opacity="0.6" d="M847.348 183.42H843.342V185.76H847.348V183.42Z" fill="#F4FAF9"/>
<path opacity="0.8" d="M924.238 181.303H903.986V301.317H924.238V181.303Z" fill="#DFE1E5"/>
<path opacity="0.6" d="M921.345 184.088H910.551V186.206H921.345V184.088Z" fill="#F4FAF9"/>
<path opacity="0.5" d="M921.345 187.208H910.551V189.549H921.345V187.208Z" fill="white"/>
<path opacity="0.6" d="M921.345 190.44H910.551V192.78H921.345V190.44Z" fill="#F4FAF9"/>
<path opacity="0.6" d="M921.345 193.449H910.551V195.789H921.345V193.449Z" fill="#F4FAF9"/>
<path opacity="0.6" d="M921.345 196.68H910.551V198.575H921.345V196.68Z" fill="#F4FAF9"/>
<path opacity="0.5" d="M921.345 199.801H910.551V202.141H921.345V199.801Z" fill="white"/>
<path opacity="0.8" d="M861.813 150.77H847.348V157.79H861.813V150.77Z" fill="#C1C5CD"/>
<path opacity="0.8" d="M880.507 198.575H849.462V301.317H880.507V198.575Z" fill="#DFE1E5"/>
<path opacity="0.5" d="M854.803 247.16H852.355V252.732H854.803V247.16Z" fill="white"/>
<path opacity="0.5" d="M858.586 247.16H856.25V252.732H858.586V247.16Z" fill="white"/>
<path opacity="0.5" d="M862.703 247.16H860.033V252.732H862.703V247.16Z" fill="white"/>
<path opacity="0.6" d="M866.709 247.16H864.15V252.732H866.709V247.16Z" fill="#F4FAF9"/>
<path opacity="0.5" d="M854.803 240.585H852.355V246.157H854.803V240.585Z" fill="white"/>
<path opacity="0.5" d="M858.586 240.585H856.25V246.157H858.586V240.585Z" fill="white"/>
<path opacity="0.5" d="M862.703 240.585H860.033V246.157H862.703V240.585Z" fill="white"/>
<path opacity="0.5" d="M866.709 240.585H864.15V246.157H866.709V240.585Z" fill="white"/>
<path opacity="0.5" d="M854.803 233.899H852.355V239.471H854.803V233.899Z" fill="white"/>
<path opacity="0.6" d="M858.586 233.899H856.25V239.471H858.586V233.899Z" fill="#F4FAF9"/>
<path opacity="0.5" d="M862.703 233.899H860.033V239.471H862.703V233.899Z" fill="white"/>
<path opacity="0.6" d="M866.709 233.899H864.15V239.471H866.709V233.899Z" fill="#F4FAF9"/>
<path opacity="0.5" d="M854.803 227.548H852.355V232.674H854.803V227.548Z" fill="white"/>
<path opacity="0.5" d="M858.586 227.548H856.25V232.674H858.586V227.548Z" fill="white"/>
<path opacity="0.5" d="M862.703 227.548H860.033V232.674H862.703V227.548Z" fill="white"/>
<path opacity="0.5" d="M866.709 227.548H864.15V232.674H866.709V227.548Z" fill="white"/>
<path opacity="0.5" d="M854.803 220.75H852.355V226.099H854.803V220.75Z" fill="white"/>
<path opacity="0.5" d="M858.586 220.75H856.25V226.099H858.586V220.75Z" fill="white"/>
<path opacity="0.5" d="M862.703 220.75H860.033V226.099H862.703V220.75Z" fill="white"/>
<path opacity="0.6" d="M866.709 220.75H864.15V226.099H866.709V220.75Z" fill="#F4FAF9"/>
<path opacity="0.5" d="M854.803 214.287H852.355V219.413H854.803V214.287Z" fill="white"/>
<path opacity="0.5" d="M858.586 214.287H856.25V219.413H858.586V214.287Z" fill="white"/>
<path opacity="0.6" d="M862.703 214.287H860.033V219.413H862.703V214.287Z" fill="#F4FAF9"/>
<path opacity="0.5" d="M866.709 214.287H864.15V219.413H866.709V214.287Z" fill="white"/>
<path opacity="0.5" d="M854.803 207.267H852.355V212.838H854.803V207.267Z" fill="white"/>
<path opacity="0.5" d="M858.586 207.267H856.25V212.838H858.586V207.267Z" fill="white"/>
<path opacity="0.5" d="M862.703 207.267H860.033V212.838H862.703V207.267Z" fill="white"/>
<path opacity="0.5" d="M866.709 207.267H864.15V212.838H866.709V207.267Z" fill="white"/>
<path opacity="0.5" d="M854.803 200.692H852.355V206.264H854.803V200.692Z" fill="white"/>
<path opacity="0.5" d="M858.586 200.692H856.25V206.264H858.586V200.692Z" fill="white"/>
<path opacity="0.5" d="M862.703 200.692H860.033V206.264H862.703V200.692Z" fill="white"/>
<path opacity="0.5" d="M866.709 200.692H864.15V206.264H866.709V200.692Z" fill="white"/>
</g>
<path d="M936.255 55.2712H524.766V61.9573H936.255V55.2712Z" fill="white"/>
<path d="M839.336 0H832.66V307H839.336V0Z" fill="white"/>
<path d="M735.629 0H728.953V307H735.629V0Z" fill="white"/>
<path d="M631.811 0H625.135V307H631.811V0Z" fill="white"/>
<path d="M859.922 207.267H822.868C822.645 207.267 822.423 207.49 822.423 207.713V221.865C822.423 222.088 822.645 222.31 822.868 222.31H859.922C860.144 222.31 860.367 222.088 860.367 221.865V207.713C860.367 207.49 860.144 207.267 859.922 207.267Z" fill="#65D1D5"/>
<path d="M858.809 206.487H823.869C822.645 206.487 821.644 207.49 821.644 208.715V220.75C821.644 221.976 822.645 222.979 823.869 222.979H858.809C860.033 222.979 861.034 221.976 861.034 220.75V208.715C861.146 207.49 860.033 206.487 858.809 206.487ZM859.699 220.75C859.699 221.196 859.365 221.53 858.92 221.53H823.98C823.535 221.53 823.202 221.196 823.202 220.75V208.715C823.202 208.27 823.535 207.935 823.98 207.935H858.92C859.365 207.935 859.699 208.27 859.699 208.715V220.75Z" fill="white"/>
<path d="M828.209 217.185H826.428V224.762H828.209V217.185Z" fill="white"/>
<path d="M856.25 217.185H854.469V224.762H856.25V217.185Z" fill="white"/>
<path d="M770.903 172.054C770.903 172.054 767.676 178.071 769.901 183.754C769.901 183.754 770.124 184.98 769.456 185.983C769.456 185.983 771.237 185.203 771.237 183.643C771.237 182.083 771.125 182.306 772.238 181.414C773.462 180.634 774.13 180.077 774.241 178.405C774.352 176.845 775.354 177.96 776.355 177.291C776.467 177.403 775.02 174.394 770.903 172.054Z" fill="#498C65"/>
<path d="M778.804 170.382C778.804 170.382 774.241 170.159 770.903 171.942C770.903 171.942 774.464 173.948 776.912 178.183C779.471 182.417 778.915 183.643 780.25 185.203C781.585 186.763 782.476 187.32 782.587 188.769C782.698 190.217 783.588 193.449 783.588 193.449L785.035 193.672C785.146 193.672 784.701 173.614 778.804 170.382Z" fill="#67BB89"/>
<path d="M803.505 163.251C801.169 163.919 798.053 163.139 794.938 163.808C791.822 164.476 792.044 171.274 792.044 171.274L795.605 172.388C795.605 172.388 804.284 165.814 806.176 165.591C808.068 165.368 807.956 165.925 808.179 165.925C808.401 165.814 805.842 162.582 803.505 163.251Z" fill="white"/>
<path d="M800.39 164.254C800.056 164.254 797.052 167.151 797.052 167.151L797.942 167.485C797.942 167.485 799.166 166.259 799.945 165.479C800.947 164.477 800.724 164.254 800.39 164.254Z" fill="#EAB93B"/>
<path d="M799.834 166.371C796.607 167.374 796.496 166.482 794.159 167.039C791.822 167.597 792.045 171.385 792.045 171.385L795.605 172.5C795.605 172.5 803.617 166.928 804.952 166.259C806.288 165.479 807.066 165.702 807.066 165.702C807.066 165.702 806.176 164.922 804.396 164.811C802.393 164.476 803.061 165.368 799.834 166.371Z" fill="#F2EDEB"/>
<path d="M792.045 171.385C792.045 171.385 789.819 176.4 789.152 178.071C788.484 179.743 787.037 185.314 787.371 194.898L788.261 194.786C788.261 194.786 787.371 188.212 789.819 178.628C790.598 175.731 795.271 172.722 795.605 172.5C795.605 172.388 794.159 170.828 792.045 171.385Z" fill="#67BB89"/>
<path d="M778.915 151.773C776.021 151.327 773.128 152.33 771.014 151.773C768.9 151.216 766.674 154.559 766.786 154.67C767.008 154.782 766.786 154.113 768.566 154.224C770.347 154.336 780.695 160.91 780.695 160.91L782.03 159.016C782.03 158.905 781.919 152.219 778.915 151.773Z" fill="white"/>
<path d="M774.353 153.667C775.131 154.336 776.355 155.45 776.355 155.45L777.134 155.116C777.134 155.116 774.241 152.442 773.907 152.553C773.685 152.553 773.462 152.776 774.353 153.667Z" fill="#EAB93B"/>
<path d="M779.805 154.782C777.579 154.336 777.579 155.227 774.575 154.447C771.571 153.667 772.016 152.776 770.347 153.11C768.677 153.333 767.899 154.224 767.899 154.224C767.899 154.224 768.678 154.002 769.902 154.67C771.126 155.339 780.584 160.688 780.584 160.688L782.142 159.016C782.03 158.905 782.03 155.227 779.805 154.782Z" fill="#F2EDEB"/>
<path d="M782.03 157.902C782.03 157.902 780.695 158.459 779.805 160.242C779.805 160.242 783.143 163.808 783.588 164.922C784.033 165.925 786.593 174.06 785.48 194.786L786.593 194.898C786.593 194.898 786.815 174.951 785.702 168.042C784.701 162.805 782.03 157.902 782.03 157.902Z" fill="#67BB89"/>
<path d="M781.251 224.762C781.251 224.985 781.474 225.208 781.697 225.208H789.374C789.597 225.208 789.819 224.985 789.819 224.762V188.657H781.251V224.762Z" fill="#706F6F"/>
<path d="M782.475 217.853C782.475 220.527 783.143 221.085 783.922 221.085C784.701 221.085 785.368 220.527 785.368 217.853V189.438H782.364V217.853H782.475Z" fill="#9D9D9C"/>
<path opacity="0.1" d="M1002.24 33.4302C989.667 33.4302 979.541 43.5706 979.541 56.1627C979.541 68.6432 989.778 78.8951 1002.24 78.8951C1014.81 78.8951 1024.94 68.7547 1024.94 56.1627C1024.94 43.6821 1014.7 33.4302 1002.24 33.4302Z" fill="black"/>
<path d="M1020.99 53.912C1021 42.2804 1011.6 32.8384 999.983 32.8227C988.368 32.807 978.94 42.2236 978.924 53.8553C978.908 65.4869 988.311 74.929 999.926 74.9446C1011.54 74.9603 1020.97 65.5437 1020.99 53.912Z" fill="white"/>
<path d="M1000.01 31.2014C987.441 31.2014 977.315 41.3419 977.315 53.9339C977.315 66.4145 987.552 76.6664 1000.01 76.6664C1012.59 76.6664 1022.71 66.5259 1022.71 53.9339C1022.71 41.4533 1012.48 31.2014 1000.01 31.2014ZM1000.01 73.3234C989.333 73.3234 980.653 64.6315 980.653 53.9339C980.653 43.2363 989.333 34.5444 1000.01 34.5444C1010.7 34.5444 1019.38 43.2363 1019.38 53.9339C1019.38 64.6315 1010.59 73.3234 1000.01 73.3234Z" fill="#4B4B4A"/>
<path d="M1000.79 36.4387H999.125V41.7875H1000.79V36.4387Z" fill="#4B4B4A"/>
<path d="M1000.79 66.0801H999.125V71.4289H1000.79V66.0801Z" fill="#4B4B4A"/>
<path d="M1017.37 53.1538H1012.03V54.8253H1017.37V53.1538Z" fill="#4B4B4A"/>
<path d="M987.886 53.1538H982.545V54.8253H987.886V53.1538Z" fill="#4B4B4A"/>
<path d="M1000.01 55.4939C1000.88 55.4939 1001.57 54.7955 1001.57 53.9339C1001.57 53.0722 1000.88 52.3738 1000.01 52.3738C999.155 52.3738 998.457 53.0722 998.457 53.9339C998.457 54.7955 999.155 55.4939 1000.01 55.4939Z" fill="#4B4B4A"/>
<path d="M999.57 53.4883L1000.35 54.3797L1008.25 40.6734L1007.25 40.1162L999.57 53.4883Z" fill="#4B4B4A"/>
<path d="M1000.01 53.3767H985.994V54.3796H1000.01V53.3767Z" fill="#4B4B4A"/>
<path d="M1032.28 126.923H965.52C964.964 126.923 964.407 127.369 964.407 128.037V175.397C964.407 175.954 964.852 176.511 965.52 176.511H1032.28C1032.84 176.511 1033.4 176.065 1033.4 175.397V128.037C1033.29 127.369 1032.84 126.923 1032.28 126.923Z" fill="#5C5D5C"/>
<path d="M1010.81 137.063H986.885C986.439 137.063 985.994 137.398 985.994 137.955V142.189C985.994 142.635 986.328 143.081 986.885 143.081H1010.81C1011.25 143.081 1011.7 142.747 1011.7 142.189V137.955C1011.7 137.509 1011.25 137.063 1010.81 137.063Z" fill="#505050"/>
<path d="M1027.5 171.497H1026.83V173.391H1027.5V171.497Z" fill="#505050"/>
<path d="M1026.16 171.497H1025.5V173.391H1026.16V171.497Z" fill="#505050"/>
<path d="M1024.83 171.497H1024.16V173.391H1024.83V171.497Z" fill="#505050"/>
<path d="M1023.6 171.497H1022.94V173.391H1023.6V171.497Z" fill="#505050"/>
<path d="M1022.27 171.497H1021.6V173.391H1022.27V171.497Z" fill="#505050"/>
<path d="M1020.93 171.497H1020.27V173.391H1020.93V171.497Z" fill="#505050"/>
<path d="M1019.6 171.497H1018.93V173.391H1019.6V171.497Z" fill="#505050"/>
<path d="M1026.16 185.649H971.529C971.306 185.649 971.195 185.872 971.195 185.983V187.877C971.195 188.1 971.417 188.212 971.529 188.212H1026.16C1026.39 188.212 1026.5 187.989 1026.5 187.877V186.094C1026.5 185.872 1026.39 185.649 1026.16 185.649Z" fill="#505050"/>
<path d="M1003.13 151.661H994.673C993.783 151.661 993.004 152.33 992.893 153.221L988.998 187.654C988.998 187.989 989.221 188.323 989.555 188.323H1008.36C1008.69 188.323 1009.03 187.989 1008.92 187.654L1005.02 153.221C1004.8 152.33 1004.02 151.661 1003.13 151.661Z" fill="#9D9D9C"/>
<path d="M1066 192.112H894.305V307H1066V192.112Z" fill="#AFAFAF"/>
<path d="M1066.11 188.1H885.959V196.235H1066.11V188.1Z" fill="#2B2B2A"/>
<path d="M1066.11 232.785H763.225V307H1066.11V232.785Z" fill="white"/>
<path d="M894.416 224.873H754.768V232.897H894.416V224.873Z" fill="#2B2B2A"/>
<path d="M436.303 243.928H188.942V252.732H436.303V243.928Z" fill="#4A4A49"/>
<path d="M196.954 243.928H190.945V307H196.954V243.928Z" fill="#4A4A49"/>
<path d="M186.494 301.763L185.381 307H202.629L201.405 301.763H186.494Z" fill="#4A4A49"/>
<path d="M434.412 243.928H428.403V307H434.412V243.928Z" fill="#4A4A49"/>
<path d="M424.063 301.763L422.839 307H440.087L438.863 301.763H424.063Z" fill="#4A4A49"/>
<path d="M205.855 226.768H201.515V246.491H205.855V226.768Z" fill="#4A4A49"/>
<path d="M267.501 226.768H263.162V246.491H267.501V226.768Z" fill="#4A4A49"/>
<path d="M201.516 246.269C201.516 251.84 205.967 256.298 211.531 256.298H257.487C263.05 256.298 267.501 251.84 267.501 246.269V244.931H201.405V246.269H201.516Z" fill="#4A4A49"/>
<path d="M210.195 252.843H258.711C262.939 252.843 266.389 249.277 266.389 244.931H202.518C202.518 249.277 205.967 252.843 210.195 252.843Z" fill="#007495"/>
<path d="M265.943 194.675C265.165 194.006 264.163 193.56 263.05 193.338C256.151 190.44 245.914 188.546 234.453 188.546C222.992 188.546 212.755 190.44 205.856 193.338C204.743 193.56 203.742 194.006 202.963 194.675C201.516 195.901 200.626 197.683 200.626 199.801V201.695V212.393V224.205C200.626 224.316 200.626 224.428 200.626 224.539C200.848 227.993 203.63 230.779 207.191 230.779H217.539C222.658 231.671 228.333 232.228 234.453 232.228C240.573 232.228 246.248 231.671 251.367 230.779H261.715C265.165 230.779 268.058 227.993 268.28 224.539C268.28 224.428 268.28 224.316 268.28 224.205V212.393V201.695V199.801C268.391 197.683 267.501 195.901 265.943 194.675Z" fill="#007495"/>
<path d="M263.607 242.034H205.299C203.742 242.034 202.518 243.26 202.518 244.82H266.389C266.389 243.371 265.165 242.034 263.607 242.034Z" fill="#007495"/>
<path d="M283.968 226.768H279.629V246.491H283.968V226.768Z" fill="#4A4A49"/>
<path d="M345.726 226.768H341.387V246.491H345.726V226.768Z" fill="#4A4A49"/>
<path d="M279.63 246.269C279.63 251.84 284.081 256.298 289.644 256.298H335.6C341.164 256.298 345.615 251.84 345.615 246.269V244.931H279.519V246.269H279.63Z" fill="#4A4A49"/>
<path d="M288.42 252.843H336.936C341.164 252.843 344.613 249.277 344.613 244.931H280.742C280.742 249.277 284.192 252.843 288.42 252.843Z" fill="#007495"/>
<path d="M344.169 194.675C343.39 194.006 342.388 193.56 341.275 193.338C334.377 190.44 324.139 188.546 312.678 188.546C301.217 188.546 290.98 190.44 284.081 193.338C282.968 193.56 281.967 194.006 281.188 194.675C279.741 195.901 278.851 197.683 278.851 199.801V201.695V212.393V224.205C278.851 224.316 278.851 224.428 278.851 224.539C279.074 227.993 281.855 230.779 285.416 230.779H295.765C300.883 231.671 306.558 232.228 312.678 232.228C318.798 232.228 324.473 231.671 329.592 230.779H339.94C343.39 230.779 346.283 227.993 346.505 224.539C346.505 224.428 346.505 224.316 346.505 224.205V212.393V201.695V199.801C346.617 197.683 345.615 195.901 344.169 194.675Z" fill="#007495"/>
<path opacity="0.1" d="M312.456 223.87C298.658 223.87 286.863 223.648 278.851 214.064V224.093C278.851 224.205 278.851 224.316 278.851 224.428C279.074 227.882 281.855 230.668 285.416 230.668H295.765C300.883 231.559 306.558 232.117 312.678 232.117C318.798 232.117 324.473 231.559 329.592 230.668H339.94C343.39 230.668 346.283 227.882 346.505 224.428C346.505 224.316 346.505 224.205 346.505 224.093V213.73C338.049 223.536 325.363 223.87 312.456 223.87Z" fill="black"/>
<path d="M341.832 242.034H283.525C281.967 242.034 280.743 243.26 280.743 244.82H344.614C344.614 243.371 343.39 242.034 341.832 242.034Z" fill="#007495"/>
<path d="M362.194 226.768H357.854V246.491H362.194V226.768Z" fill="#4A4A49"/>
<path d="M423.84 226.768H419.5V246.491H423.84V226.768Z" fill="#4A4A49"/>
<path d="M357.855 246.269C357.855 251.84 362.306 256.298 367.87 256.298H413.826C419.389 256.298 423.84 251.84 423.84 246.269V244.931H357.744V246.269H357.855Z" fill="#4A4A49"/>
<path d="M366.645 252.843H415.161C419.389 252.843 422.839 249.277 422.839 244.931H358.968C358.968 249.277 362.417 252.843 366.645 252.843Z" fill="#007495"/>
<path d="M422.394 194.675C421.615 194.006 420.613 193.56 419.501 193.338C412.602 190.44 402.365 188.546 390.903 188.546C379.442 188.546 369.205 190.44 362.306 193.338C361.193 193.56 360.192 194.006 359.413 194.675C357.966 195.901 357.076 197.683 357.076 199.801V201.695V212.393V224.205C357.076 224.316 357.076 224.428 357.076 224.539C357.299 227.993 360.081 230.779 363.641 230.779H373.99C379.108 231.671 384.783 232.228 390.903 232.228C397.023 232.228 402.698 231.671 407.817 230.779H418.165C421.615 230.779 424.508 227.993 424.731 224.539C424.731 224.428 424.731 224.316 424.731 224.205V212.393V201.695V199.801C424.731 197.683 423.84 195.901 422.394 194.675Z" fill="#007495"/>
<path d="M420.057 242.034H361.75C360.192 242.034 358.968 243.26 358.968 244.82H422.839C422.839 243.371 421.615 242.034 420.057 242.034Z" fill="#007495"/>
<path opacity="0.1" d="M390.57 223.87C376.772 223.87 364.977 223.648 356.965 214.064V224.093C356.965 224.205 356.965 224.316 356.965 224.428C357.188 227.882 359.97 230.668 363.53 230.668H373.879C378.997 231.559 384.672 232.117 390.792 232.117C396.913 232.117 402.587 231.559 407.706 230.668H418.054C421.504 230.668 424.397 227.882 424.62 224.428C424.62 224.316 424.62 224.205 424.62 224.093V213.73C416.274 223.536 403.589 223.87 390.57 223.87Z" fill="black"/>
<path opacity="0.1" d="M234.231 223.87C220.433 223.87 208.638 223.648 200.626 214.064V224.093C200.626 224.205 200.626 224.316 200.626 224.428C200.848 227.882 203.63 230.668 207.191 230.668H217.539C222.658 231.559 228.333 232.117 234.453 232.117C240.573 232.117 246.248 231.559 251.367 230.668H261.715C265.165 230.668 268.058 227.882 268.28 224.428C268.28 224.316 268.28 224.205 268.28 224.093V213.73C259.935 223.536 247.25 223.87 234.231 223.87Z" fill="black"/>
<path d="M469.018 186.317C475.36 177.403 469.018 162.693 469.018 162.693C462.675 179.631 469.018 186.317 469.018 186.317Z" fill="#67BB89"/>
<path d="M468.573 188.323C471.466 177.737 459.893 164.142 459.893 164.142C459.782 182.306 468.573 188.323 468.573 188.323Z" fill="#498C65"/>
<path d="M468.461 188.323C468.461 188.323 477.252 182.306 477.141 164.142C477.141 164.142 465.568 177.626 468.461 188.323Z" fill="#7EC59B"/>
<path d="M454.441 185.092C454.441 185.092 454.997 179.186 459.114 177.737L453.773 176.734C453.773 176.623 452.772 179.854 454.441 185.092Z" fill="#498C65"/>
<path d="M458.892 174.505C458.892 174.505 454.441 175.174 453.773 176.623C453.773 176.623 463.565 183.866 467.015 191.109C467.126 191.109 464.567 174.84 458.892 174.505Z" fill="#67BB89"/>
<path d="M477.697 177.626C481.814 179.074 482.593 184.98 482.593 184.98C484.151 179.854 483.038 176.511 483.038 176.511L477.697 177.626Z" fill="#498C65"/>
<path d="M477.919 174.505C472.356 174.84 469.685 191.109 469.685 191.109C473.246 183.866 482.927 176.623 482.927 176.623C482.37 175.174 477.919 174.505 477.919 174.505Z" fill="#67BB89"/>
<path d="M460.116 204.815C460.45 207.044 462.341 208.716 464.567 208.716H473.469C475.694 208.716 477.586 207.044 477.92 204.815L480.701 185.314H457.334L460.116 204.815Z" fill="white"/>
<path d="M460.561 206.041C461.229 207.601 462.787 208.604 464.567 208.604H473.469C475.694 208.604 477.586 206.933 477.92 204.704L479.144 195.789C478.365 196.681 477.475 197.684 476.696 198.464C472.133 203.255 466.681 205.261 460.561 206.041Z" fill="#F2F2F2"/>
<path d="M480.59 185.092H457.445C456.889 185.092 456.332 185.537 456.332 186.206C456.332 186.763 456.777 187.32 457.445 187.32H480.59C481.146 187.32 481.703 186.874 481.703 186.206C481.703 185.537 481.258 185.092 480.59 185.092Z" fill="#7D7E7E"/>
<path d="M486.933 208.158H449.879V307H486.933V208.158Z" fill="white"/>
<path d="M482.927 212.95H453.996V253.957H482.927V212.95Z" fill="#6A6B6B"/>
<path d="M482.927 217.519H457.223V254.069H482.927V217.519Z" fill="#7D7E7E"/>
<path d="M482.927 261.535H453.996V302.543H482.927V261.535Z" fill="#6A6B6B"/>
<path d="M482.927 265.101H456.778V302.543H482.927V265.101Z" fill="#7D7E7E"/>
<path d="M457.171 219.726L454.639 220.097L459.592 253.945L462.124 253.573L457.171 219.726Z" fill="#007495"/>
<path d="M461.09 246.199L458.557 246.571L459.219 251.091L461.751 250.72L461.09 246.199Z" fill="white"/>
<path d="M459.953 219.717L457.421 220.089L462.374 253.936L464.906 253.565L459.953 219.717Z" fill="#E83F40"/>
<path d="M463.74 246.243L461.208 246.615L461.869 251.135L464.401 250.764L463.74 246.243Z" fill="white"/>
<path d="M462.734 219.715L460.202 220.087L465.155 253.934L467.688 253.563L462.734 219.715Z" fill="#7EC59B"/>
<path d="M466.542 246.206L464.01 246.578L464.671 251.098L467.203 250.727L466.542 246.206Z" fill="white"/>
<path d="M465.516 219.714L462.984 220.086L467.937 253.933L470.469 253.562L465.516 219.714Z" fill="#007495"/>
<path d="M469.324 246.204L466.792 246.576L467.453 251.096L469.986 250.725L469.324 246.204Z" fill="white"/>
<path d="M468.285 220.905L465.875 221.767L477.374 253.98L479.784 253.117L468.285 220.905Z" fill="#007495"/>
<path d="M477.266 246.11L474.856 246.972L476.392 251.274L478.802 250.412L477.266 246.11Z" fill="white"/>
</g>
<defs>
<clipPath id="clip0">
<rect width="1066" height="307" fill="white"/>
</clipPath>
</defs>
</svg>
