<svg width="366" height="332" viewBox="0 0 366 332" fill="none" xmlns="http://www.w3.org/2000/svg">
<g clip-path="url(#clip0)">
<path d="M181.227 132.127C177.438 127.236 173.729 122.265 169.94 117.375C169.215 116.412 168.247 115.45 167.602 114.969C167.361 114.729 167.119 114.568 166.877 114.488C162.604 112.885 159.138 112.885 154.946 114.488C154.784 114.568 154.623 114.649 154.462 114.729C153.817 115.049 152.688 116.172 151.721 117.375C147.932 122.265 144.224 127.236 140.435 132.127C139.467 133.329 138.984 134.532 139.306 134.772C140.354 135.574 141.402 136.376 142.531 137.177C142.853 137.418 143.821 136.536 144.788 135.333C146.158 133.489 147.529 131.645 148.899 129.801C147.61 134.612 146.239 139.503 144.788 144.313C144.143 146.397 145.594 148.562 148.093 148.963C148.577 149.043 149.141 149.123 149.625 149.204C149.867 154.575 150.028 160.027 150.189 165.399C150.27 166.922 151.479 168.766 152.93 169.247C153.575 169.407 154.22 169.568 154.865 169.728C155.671 164.837 156.558 159.867 157.284 154.976C157.525 153.453 158.17 151.769 158.573 151.368C160.266 150.005 161.556 150.005 163.169 151.368C163.652 151.769 164.217 153.453 164.458 154.976C165.184 159.947 166.071 164.837 166.877 169.728C167.522 169.568 168.167 169.407 168.731 169.247C170.182 168.766 171.391 167.002 171.472 165.399C171.714 160.027 171.875 154.575 172.036 149.204C172.601 149.123 173.084 149.043 173.649 148.963C176.148 148.562 177.599 146.397 176.954 144.313C175.584 139.583 174.213 134.852 172.923 130.042C174.213 131.806 175.503 133.57 176.793 135.333C177.68 136.616 178.728 137.418 179.05 137.177C180.098 136.376 181.146 135.574 182.275 134.772C182.678 134.532 182.114 133.329 181.227 132.127Z" fill="#B7FBFE"/>
<path d="M160.911 112.243C164.942 112.243 168.247 108.956 168.247 104.948C168.247 100.939 164.942 97.6517 160.911 97.6517C156.88 97.6517 153.575 100.939 153.575 104.948C153.575 108.956 156.8 112.243 160.911 112.243Z" fill="#B7FBFE"/>
<path d="M200.252 236.914C190.659 231.542 188.16 231.382 174.777 234.749C172.762 235.23 170.988 235.551 169.376 235.711C167.764 235.551 165.99 235.23 163.975 234.749C150.592 231.382 148.093 231.542 138.5 236.914C130.116 241.163 125.279 253.51 127.697 267.3C130.438 283.334 136.888 284.457 136.888 301.774C136.888 319.012 143.417 327.59 148.577 327.59C153.817 327.59 156.397 321.657 162.121 306.905C166.071 296.804 171.875 295.2 176.47 306.905C182.194 321.657 184.854 327.59 190.095 327.59C195.335 327.59 201.784 319.012 201.784 301.774C201.784 284.457 208.153 283.495 210.974 267.3C213.473 253.51 208.636 241.163 200.252 236.914Z" fill="#B7FBFE"/>
<path d="M353.504 221.681L355.842 219.356C364.388 210.857 364.388 196.987 355.842 188.489L355.52 188.168C346.974 179.67 333.028 179.67 324.482 188.168L322.144 190.493L319.807 188.168C311.261 179.67 297.314 179.67 288.769 188.168L288.447 188.489C279.901 196.987 279.901 210.857 288.447 219.356L290.785 221.681L322.144 252.868L353.504 221.681Z" fill="#B7FBFE"/>
<path d="M277.08 33.5127C277.08 27.4195 274.661 21.7271 270.389 17.3977C266.035 13.0683 260.312 10.7433 254.185 10.7433C248.058 10.7433 242.334 13.1485 237.981 17.3977L219.439 35.8377L197.35 57.7252C188.402 66.6245 188.402 81.0558 197.35 89.9551C201.703 94.2845 207.427 96.6095 213.554 96.6095C215.086 96.6095 216.617 96.4492 218.069 96.2086C218.794 96.0483 219.52 95.8879 220.245 95.6474C220.568 95.5672 220.971 95.4069 221.293 95.3267C224.437 94.2043 227.339 92.3603 229.758 89.9551L251.847 67.9874L270.389 49.5474C274.742 45.2982 277.08 39.5257 277.08 33.5127ZM248.783 64.9408L222.502 38.8843L241.044 20.4443C244.511 16.9968 249.187 15.0727 254.185 15.0727C259.102 15.0727 263.778 16.9968 267.325 20.4443C270.792 23.8918 272.727 28.5419 272.727 33.5127C272.727 38.4834 270.792 43.0534 267.325 46.581L248.783 64.9408Z" fill="#B7FBFE"/>
<path d="M107.462 177.024C107.462 196.426 94.886 219.356 69.3304 219.516C43.7749 219.276 31.1987 196.346 31.1987 177.024C31.1987 149.685 71.5071 114.889 69.3304 114.007C67.1538 114.889 107.462 149.685 107.462 177.024Z" fill="#B7FBFE"/>
<path d="M162.524 7.37594C160.347 9.54063 158.493 11.7855 156.8 14.2709L199.204 56.4424C202.671 59.8898 208.314 59.8898 211.78 56.4424C215.247 52.9949 215.247 47.3827 211.78 43.9352L169.457 1.68359C167.038 3.36725 164.7 5.21124 162.524 7.37594Z" stroke="#01939A" stroke-width="3.2715" stroke-miterlimit="10"/>
<path d="M169.537 2.16467C169.941 2.56554 167.522 5.61215 164.136 8.97945C160.75 12.3468 157.687 14.752 157.284 14.3511" stroke="#01939A" stroke-width="3.2715" stroke-miterlimit="10"/>
<path d="M169.86 11.545L174.455 6.8949" stroke="#01939A" stroke-width="3.2715" stroke-miterlimit="10"/>
<path d="M174.132 15.8743L178.808 11.2242" stroke="#01939A" stroke-width="3.2715" stroke-miterlimit="10"/>
<path d="M178.486 20.1236L183.162 15.5537" stroke="#01939A" stroke-width="3.2715" stroke-miterlimit="10"/>
<path d="M182.839 24.453L187.435 19.8831" stroke="#01939A" stroke-width="3.2715" stroke-miterlimit="10"/>
<path d="M187.192 28.7824L191.788 24.1323" stroke="#01939A" stroke-width="3.2715" stroke-miterlimit="10"/>
<path d="M191.546 33.1117L196.141 28.4617" stroke="#01939A" stroke-width="3.2715" stroke-miterlimit="10"/>
<path d="M195.818 37.3609L200.494 32.791" stroke="#01939A" stroke-width="3.2715" stroke-miterlimit="10"/>
<path d="M200.172 41.6904L204.848 37.1205" stroke="#01939A" stroke-width="3.2715" stroke-miterlimit="10"/>
<path d="M204.525 46.0197L209.12 41.4498" stroke="#01939A" stroke-width="3.2715" stroke-miterlimit="10"/>
<path d="M165.426 54.1173H138.58V27.4194H103.431V54.1173H76.5054V89.1533H103.431V115.851H138.58V89.1533H165.426V54.1173Z" fill="#B7FBFE"/>
<path d="M316.824 84.6636V115.45H283.69V84.6636H257.167V172.534H283.69V141.747H316.824V172.534H343.347V84.6636H316.824Z" fill="#B7FBFE"/>
<path d="M210.894 265.776V254.552" stroke="#01939A" stroke-width="3.2715" stroke-miterlimit="10"/>
<path d="M211.539 244.209C213.635 248.94 212.667 253.91 209.443 255.354C206.218 256.797 201.865 254.071 199.768 249.341C197.672 244.61 198.64 239.64 201.865 238.196C205.17 236.753 209.443 239.479 211.539 244.209Z" stroke="#01939A" stroke-width="3.2715" stroke-miterlimit="10"/>
<path d="M214.038 243.087C211.941 238.357 207.669 235.631 204.363 237.074C203.96 237.234 203.557 237.555 203.235 237.796C206.218 237.475 209.684 240.041 211.538 244.21C213.312 248.298 212.909 252.628 210.652 254.632C211.135 254.552 211.538 254.472 212.022 254.311C215.166 252.868 216.134 247.898 214.038 243.087Z" stroke="#01939A" stroke-width="3.2715" stroke-miterlimit="10"/>
<path d="M210.652 266.338C210.007 266.338 209.362 266.578 209.281 266.819C208.797 268.903 208.394 270.988 207.911 273.072H213.876C213.393 270.988 212.989 268.903 212.506 266.819C212.425 266.578 211.861 266.338 211.135 266.338C210.974 266.338 210.813 266.338 210.652 266.338Z" stroke="#01939A" stroke-width="3.2715" stroke-miterlimit="10"/>
<path d="M213.635 272.992H208.072C207.75 273.473 207.508 274.034 207.508 274.676V327.911C207.508 329.434 208.717 330.637 210.249 330.637H211.458C212.99 330.637 214.199 329.434 214.199 327.911V274.595C214.199 274.034 214.038 273.473 213.635 272.992Z" stroke="#01939A" stroke-width="3.2715" stroke-miterlimit="10"/>
<path d="M230.403 276.279V262.569" stroke="#01939A" stroke-width="3.2715" stroke-miterlimit="10"/>
<path d="M230.161 276.279C229.516 276.279 228.871 276.52 228.79 276.76C228.307 278.845 227.904 280.929 227.42 283.014H233.386C232.902 280.929 232.499 278.845 232.015 276.76C231.934 276.52 231.37 276.279 230.645 276.279C230.483 276.279 230.322 276.279 230.161 276.279Z" stroke="#01939A" stroke-width="3.2715" stroke-miterlimit="10"/>
<path d="M229.677 252.067L234.675 256.155C235.401 256.877 235.401 257.999 234.675 258.721L230.161 263.211" stroke="#01939A" stroke-width="3.2715" stroke-miterlimit="10"/>
<path d="M233.225 283.014H227.662C227.339 283.495 227.098 284.056 227.098 284.697V327.991C227.098 329.514 228.307 330.717 229.839 330.717H231.048C232.58 330.717 233.789 329.514 233.789 327.991V284.697C233.789 284.056 233.547 283.415 233.225 283.014Z" stroke="#01939A" stroke-width="3.2715" stroke-miterlimit="10"/>
<path d="M184.209 262.168L187.676 262.409" stroke="#01939A" stroke-width="3.2715" stroke-miterlimit="10"/>
<path d="M192.674 310.353C192.674 311.235 191.062 311.956 188.966 311.956H187.353C185.338 311.956 183.645 311.235 183.645 310.353V285.018C183.645 284.136 185.257 283.415 187.353 283.415H188.966C190.981 283.415 192.674 284.136 192.674 285.018V310.353Z" stroke="#01939A" stroke-width="3.2715" stroke-miterlimit="10"/>
<path d="M195.657 266.257C195.496 267.219 194.528 267.861 193.48 267.7L188.563 266.738C187.595 266.578 186.95 265.616 187.112 264.574L187.676 261.687C187.837 260.725 188.805 260.084 189.853 260.244L194.77 261.206C195.738 261.367 196.383 262.329 196.221 263.371L195.657 266.257Z" stroke="#01939A" stroke-width="3.2715" stroke-miterlimit="10"/>
<path d="M187.437 283.414H189.049C190.097 283.414 191.064 283.575 191.709 283.896C192.435 278.444 193.16 273.072 193.805 267.62C193.725 267.62 193.563 267.62 193.483 267.62L189.936 266.899C188.404 272.351 186.792 277.722 185.26 283.174C185.179 283.334 185.099 283.575 185.018 283.735C185.663 283.575 186.469 283.414 187.437 283.414Z" stroke="#01939A" stroke-width="3.2715" stroke-miterlimit="10"/>
<path d="M189.046 311.956H187.434C186.467 311.956 185.58 311.796 184.935 311.556V327.911C184.935 329.434 186.144 330.637 187.676 330.637H188.885C190.417 330.637 191.626 329.434 191.626 327.911V311.475C190.901 311.796 190.014 311.956 189.046 311.956Z" stroke="#01939A" stroke-width="3.2715" stroke-miterlimit="10"/>
<path d="M303.522 64.9407C303.522 68.5485 306.505 71.515 310.133 71.515C313.76 71.515 316.743 68.5485 316.743 64.9407C316.743 61.3329 313.76 58.3665 310.133 58.3665C306.424 58.4466 303.522 61.3329 303.522 64.9407Z" stroke="#01939A" stroke-width="3.2715" stroke-linecap="round" stroke-linejoin="round"/>
<path d="M289.333 109.116C289.333 110.96 289.575 112.724 290.059 114.408C292.397 123.227 300.459 129.721 310.133 129.721C321.58 129.721 330.851 120.501 330.851 109.116C330.851 104.386 329.239 99.9767 326.498 96.5292" stroke="#01939A" stroke-width="3.2715" stroke-linecap="round" stroke-linejoin="round"/>
<path d="M305.134 97.9723C305.134 101.821 307.714 104.947 310.858 104.947H312.309C315.453 104.947 318.033 101.821 318.033 97.9723V87.229C318.033 83.3807 315.453 80.2539 312.309 80.2539H310.858C307.714 80.2539 305.134 83.3807 305.134 87.229V97.9723Z" stroke="#01939A" stroke-width="3.2715" stroke-linecap="round" stroke-linejoin="round"/>
<path d="M309.891 104.948H290.059L277.805 125.953" stroke="#01939A" stroke-width="3.2715" stroke-linecap="round" stroke-linejoin="round"/>
<path d="M309.891 95.0059H292.397" stroke="#01939A" stroke-width="3.2715" stroke-linecap="round" stroke-linejoin="round"/>
<path d="M245.639 96.9301C245.639 84.904 235.884 75.203 223.792 75.203C211.699 75.203 201.945 84.904 201.945 96.9301C201.945 97.2508 201.945 97.5715 201.945 97.8922L198.881 103.184L194.851 110.079H199.929V118.657C199.929 121.864 202.59 124.51 205.814 124.51H215.247V135.734H239.27V112.243C243.221 108.395 245.639 102.943 245.639 96.9301Z" stroke="#01939A" stroke-width="3.2715" stroke-miterlimit="10"/>
<path d="M220.648 86.1869C220.648 93.2422 226.372 98.9345 233.466 98.9345C240.56 98.9345 246.284 93.2422 246.284 86.1869C246.284 79.1316 240.56 73.4392 233.466 73.4392C226.372 73.4392 220.648 79.1316 220.648 86.1869Z" stroke="#82D8DC" stroke-width="3.2715" stroke-miterlimit="10"/>
<path d="M224.679 86.1868C224.679 90.9973 228.629 94.9258 233.466 94.9258C238.303 94.9258 242.253 90.9973 242.253 86.1868C242.253 81.3764 238.303 77.4479 233.466 77.4479C228.629 77.4479 224.679 81.3764 224.679 86.1868Z" stroke="#3FE0E6" stroke-width="2.181" stroke-miterlimit="10"/>
<path d="M228.226 86.1869C228.226 89.0731 230.564 91.3982 233.466 91.3982C236.368 91.3982 238.706 89.0731 238.706 86.1869C238.706 83.3006 236.368 80.9756 233.466 80.9756C230.564 80.9756 228.226 83.3006 228.226 86.1869Z" stroke="#3FE0E6" stroke-width="1.6358" stroke-miterlimit="10"/>
<path d="M274.742 22.2081C266.035 25.4151 259.747 33.673 259.747 43.374C259.747 53.1552 265.955 61.4132 274.742 64.5399C283.448 61.4132 289.736 53.1552 289.736 43.374C289.736 33.673 283.448 25.4151 274.742 22.2081Z" stroke="#01939A" stroke-width="3.2715" stroke-linecap="round" stroke-linejoin="round"/>
<path d="M274.742 22.2081V63.3373" stroke="#01939A" stroke-width="3.2715" stroke-linecap="round" stroke-linejoin="round"/>
<path d="M274.742 64.7003V69.2702" stroke="#01939A" stroke-width="3.2715" stroke-linecap="round" stroke-linejoin="round"/>
<path d="M285.383 32.5505L275.306 41.6904" stroke="#01939A" stroke-width="3.2715" stroke-linecap="round" stroke-linejoin="round"/>
<path d="M289.092 42.4119L275.226 54.9992" stroke="#01939A" stroke-width="3.2715" stroke-linecap="round" stroke-linejoin="round"/>
<path d="M264.101 32.5505L274.178 41.7705" stroke="#01939A" stroke-width="3.2715" stroke-linecap="round" stroke-linejoin="round"/>
<path d="M260.392 42.4119L274.258 54.9992" stroke="#01939A" stroke-width="3.2715" stroke-linecap="round" stroke-linejoin="round"/>
<path d="M153.414 137.819V227.774C153.414 243.488 140.596 256.155 124.875 256.155H120.119C104.318 256.155 91.5806 243.408 91.5806 227.774V194.662" stroke="#01939A" stroke-width="3.2715" stroke-miterlimit="10"/>
<path d="M153.575 187.206V135.333C153.575 126.274 160.991 118.978 170.021 118.978H172.761C181.871 118.978 189.207 126.354 189.207 135.333V187.927" stroke="#01939A" stroke-width="3.2715" stroke-miterlimit="10"/>
<path d="M208.152 205.886C208.152 215.988 199.93 224.246 189.691 224.246C179.534 224.246 171.23 216.068 171.23 205.886C171.23 195.785 179.453 187.527 189.691 187.527C199.849 187.527 208.152 195.785 208.152 205.886Z" fill="#B7FBFE"/>
<path d="M198.559 205.886C198.559 210.777 194.528 214.786 189.611 214.786C184.693 214.786 180.662 210.777 180.662 205.886C180.662 200.996 184.693 196.987 189.611 196.987C194.609 196.987 198.559 200.996 198.559 205.886Z" fill="white" stroke="#01939A" stroke-width="3.2715" stroke-miterlimit="10"/>
<path d="M67.7181 77.1272C57.4797 77.1272 49.2568 85.3851 49.2568 95.487V159.706" stroke="#01939A" stroke-width="3.2715" stroke-miterlimit="10"/>
<path d="M116.733 77.3678C126.891 77.3678 135.194 85.6257 135.194 95.7276V160.027" stroke="#01939A" stroke-width="3.2715" stroke-miterlimit="10"/>
<path d="M91.5 227.774V194.662" stroke="#00939B" stroke-width="5.4525" stroke-miterlimit="10"/>
<path d="M134.952 133.89V163.074C134.952 181.353 120.038 196.185 101.658 196.185H82.6321C64.2515 196.185 49.3374 181.353 49.3374 163.074V133.89" stroke="#00939B" stroke-width="5.4525" stroke-miterlimit="10"/>
<path d="M67.7181 77.1272C65.0578 77.1272 62.478 77.6884 60.1401 78.7307" stroke="#00939B" stroke-width="5.4525" stroke-miterlimit="10"/>
<path d="M116.733 77.3678C119.313 77.3678 121.812 77.929 124.069 78.8911" stroke="#00939B" stroke-width="5.4525" stroke-miterlimit="10"/>
<path d="M198.559 172.775H208.959H219.036L224.356 159.786L231.37 189.691L237.497 171.251H249.106L254.507 153.613L260.473 189.691L267.97 159.786L271.598 171.251H310.213" stroke="#82D8DC" stroke-width="3.2715" stroke-miterlimit="10"/>
<path d="M97.7879 139.262C104.479 145.916 104.479 156.74 97.7879 163.394C91.0967 170.049 80.2135 170.049 73.5223 163.394C66.8311 156.74 66.8311 145.916 73.5223 139.262C80.2941 132.608 91.0967 132.608 97.7879 139.262Z" stroke="#3FE0E6" stroke-width="3.2715"/>
<path d="M109.8 127.316L98.0298 139.102" stroke="#3FE0E6" stroke-width="3.2715" stroke-linecap="round" stroke-linejoin="round"/>
<path d="M96.2563 126.995H110.122V140.785" stroke="#3FE0E6" stroke-width="3.2715" stroke-linecap="round" stroke-linejoin="round"/>
<path d="M284.416 250.704C267.245 250.704 252.331 260.084 244.511 274.034C252.331 287.904 267.325 297.365 284.416 297.365C301.587 297.365 316.501 287.984 324.321 274.034C316.501 260.084 301.587 250.704 284.416 250.704Z" stroke="#00939B" stroke-width="3.2715" stroke-linejoin="round"/>
<path d="M304.248 273.633C304.248 284.537 295.38 293.356 284.416 293.356C273.452 293.356 264.584 284.537 264.584 273.633C264.584 262.73 273.452 253.911 284.416 253.911C295.38 253.911 304.248 262.81 304.248 273.633Z" fill="#B7FBFE"/>
<path d="M296.105 273.633C296.105 280.047 290.865 285.259 284.416 285.259C277.967 285.259 272.727 280.047 272.727 273.633C272.727 267.219 277.967 262.008 284.416 262.008C290.865 262.008 296.105 267.219 296.105 273.633Z" fill="#00939B"/>
<path d="M283.046 266.738C283.046 269.544 280.788 271.869 277.886 271.869C275.064 271.869 272.727 269.625 272.727 266.738C272.727 263.932 274.984 261.607 277.886 261.607C280.788 261.607 283.046 263.932 283.046 266.738Z" fill="white"/>
<path d="M289.656 268.582C289.656 269.865 288.608 270.907 287.318 270.907C286.028 270.907 284.98 269.865 284.98 268.582C284.98 267.3 286.028 266.257 287.318 266.257C288.608 266.257 289.656 267.3 289.656 268.582Z" fill="white"/>
<path d="M299.169 209.093H263.375V224.487H299.169V209.093Z" fill="#B7FBFE"/>
<path d="M309.246 213.824H299.169V219.837H309.246V213.824Z" stroke="#01939A" stroke-width="3.2715" stroke-miterlimit="10"/>
<path d="M299.249 209.093H244.591V224.487H299.249V209.093Z" stroke="#01939A" stroke-width="3.2715" stroke-miterlimit="10"/>
<path d="M239.835 212.621H223.309V221.039H239.835V212.621Z" stroke="#01939A" stroke-width="3.2715" stroke-miterlimit="10"/>
<path d="M243.947 203.642H240.077V229.939H243.947V203.642Z" stroke="#01939A" stroke-width="3.2715" stroke-miterlimit="10"/>
<path d="M223.309 206.287V227.373" stroke="#01939A" stroke-width="3.2715" stroke-miterlimit="10"/>
<path d="M308.682 216.87H328.513" stroke="#01939A" stroke-width="3.2715" stroke-miterlimit="10"/>
<path d="M252.008 218.394V208.532" stroke="#01939A" stroke-width="3.2715" stroke-miterlimit="10"/>
<path d="M257.41 216.309V208.532" stroke="#01939A" stroke-width="3.2715" stroke-miterlimit="10"/>
<path d="M262.73 216.309V208.532" stroke="#01939A" stroke-width="3.2715" stroke-miterlimit="10"/>
<path d="M268.132 218.394V208.532" stroke="#01939A" stroke-width="3.2715" stroke-miterlimit="10"/>
<path d="M273.453 216.309V208.532" stroke="#01939A" stroke-width="3.2715" stroke-miterlimit="10"/>
<path d="M278.854 216.309V208.532" stroke="#01939A" stroke-width="3.2715" stroke-miterlimit="10"/>
<path d="M284.255 218.394V208.532" stroke="#01939A" stroke-width="3.2715" stroke-miterlimit="10"/>
<path d="M289.576 216.309V208.532" stroke="#01939A" stroke-width="3.2715" stroke-miterlimit="10"/>
<path d="M294.977 216.309V208.532" stroke="#01939A" stroke-width="3.2715" stroke-miterlimit="10"/>
<path d="M156.8 32.5506C157.041 32.8712 157.364 33.1919 157.767 33.5928C162.846 39.205 174.858 52.3535 174.858 62.3752C174.858 67.4262 173.165 72.397 170.262 76.1651C167.925 79.1316 163.733 82.7394 156.8 82.7394C149.866 82.6592 145.674 79.1316 143.337 76.1651C140.434 72.397 138.741 67.346 138.741 62.3752C138.741 52.3535 150.753 39.205 155.832 33.5928C156.235 33.1919 156.477 32.8712 156.8 32.5506ZM156.8 28.141C156.719 28.141 156.719 28.2212 156.8 28.3815C156.88 28.3013 156.88 28.2212 156.8 28.141ZM156.8 28.3815C155.671 30.6264 136.162 48.2646 136.162 62.2951C136.162 72.7978 143.014 85.2248 156.8 85.305C170.666 85.2248 177.437 72.7978 177.437 62.2951C177.437 48.2646 157.848 30.6264 156.8 28.3815Z" fill="#82D8DC"/>
<path d="M334.156 195.706C332.866 196.988 330.77 196.988 329.561 195.706L319.403 185.604C318.114 184.321 318.114 182.236 319.403 181.034L348.99 151.61C350.28 150.327 352.376 150.327 353.585 151.61L363.743 161.712C365.032 162.995 365.032 165.079 363.743 166.282L334.156 195.706Z" stroke="#82D8DC" stroke-width="3.2715" stroke-miterlimit="10"/>
<path d="M350.602 156.339C350.36 156.339 350.118 156.419 349.957 156.579C349.635 156.9 349.635 157.461 349.957 157.782C350.118 157.942 350.36 158.023 350.602 158.023C350.844 158.023 351.086 157.942 351.247 157.782C351.569 157.461 351.569 156.9 351.247 156.579C351.086 156.419 350.844 156.339 350.602 156.339Z" fill="#82D8DC"/>
<path d="M353.101 158.824C352.859 158.824 352.617 158.904 352.456 159.065C352.134 159.385 352.134 159.947 352.456 160.267C352.617 160.428 352.859 160.508 353.101 160.508C353.343 160.508 353.585 160.428 353.746 160.267C354.069 159.947 354.069 159.385 353.746 159.065C353.585 158.904 353.343 158.824 353.101 158.824Z" fill="#82D8DC"/>
<path d="M355.6 161.229C355.358 161.229 355.116 161.31 354.955 161.47C354.633 161.791 354.633 162.352 354.955 162.673C355.116 162.833 355.358 162.913 355.6 162.913C355.842 162.913 356.084 162.833 356.245 162.673C356.568 162.352 356.568 161.791 356.245 161.47C356.003 161.31 355.842 161.229 355.6 161.229Z" fill="#82D8DC"/>
<path d="M358.1 163.715C357.858 163.715 357.616 163.795 357.455 163.955C357.132 164.276 357.132 164.837 357.455 165.158C357.616 165.318 357.858 165.398 358.1 165.398C358.342 165.398 358.583 165.318 358.745 165.158C359.067 164.837 359.067 164.276 358.745 163.955C358.503 163.795 358.261 163.715 358.1 163.715Z" fill="#82D8DC"/>
<path d="M348.264 158.664C348.022 158.664 347.781 158.744 347.619 158.904C347.297 159.225 347.297 159.786 347.619 160.107C347.781 160.267 348.022 160.348 348.264 160.348C348.506 160.348 348.748 160.267 348.909 160.107C349.232 159.786 349.232 159.225 348.909 158.904C348.748 158.744 348.506 158.664 348.264 158.664Z" fill="#82D8DC"/>
<path d="M350.763 161.069C350.521 161.069 350.28 161.149 350.118 161.31C349.796 161.63 349.796 162.192 350.118 162.512C350.28 162.673 350.521 162.753 350.763 162.753C351.005 162.753 351.247 162.673 351.408 162.512C351.731 162.192 351.731 161.63 351.408 161.31C351.247 161.229 351.005 161.069 350.763 161.069Z" fill="#82D8DC"/>
<path d="M353.262 163.555C353.02 163.555 352.779 163.635 352.617 163.795C352.295 164.116 352.295 164.677 352.617 164.998C352.779 165.158 353.02 165.238 353.262 165.238C353.504 165.238 353.746 165.158 353.907 164.998C354.23 164.677 354.23 164.116 353.907 163.795C353.665 163.635 353.504 163.555 353.262 163.555Z" fill="#82D8DC"/>
<path d="M355.762 166.04C355.52 166.04 355.278 166.12 355.117 166.28C354.794 166.601 354.794 167.162 355.117 167.483C355.278 167.643 355.52 167.724 355.762 167.724C356.004 167.724 356.245 167.643 356.407 167.483C356.729 167.162 356.729 166.601 356.407 166.28C356.165 166.12 356.004 166.04 355.762 166.04Z" fill="#82D8DC"/>
<path d="M345.926 160.989C345.685 160.989 345.443 161.069 345.281 161.229C344.959 161.55 344.959 162.111 345.281 162.432C345.443 162.592 345.685 162.673 345.926 162.673C346.168 162.673 346.41 162.592 346.571 162.432C346.894 162.111 346.894 161.55 346.571 161.229C346.41 161.069 346.168 160.989 345.926 160.989Z" fill="#82D8DC"/>
<path d="M348.425 163.394C348.183 163.394 347.942 163.474 347.78 163.635C347.458 163.955 347.458 164.516 347.78 164.837C347.942 164.998 348.183 165.078 348.425 165.078C348.667 165.078 348.909 164.998 349.07 164.837C349.393 164.516 349.393 163.955 349.07 163.635C348.909 163.474 348.667 163.394 348.425 163.394Z" fill="#82D8DC"/>
<path d="M350.925 165.88C350.683 165.88 350.441 165.96 350.28 166.12C349.957 166.441 349.957 167.002 350.28 167.323C350.441 167.483 350.683 167.563 350.925 167.563C351.167 167.563 351.409 167.483 351.57 167.323C351.892 167.002 351.892 166.441 351.57 166.12C351.409 165.96 351.167 165.88 350.925 165.88Z" fill="#82D8DC"/>
<path d="M353.424 168.365C353.182 168.365 352.94 168.445 352.779 168.605C352.456 168.926 352.456 169.487 352.779 169.808C352.94 169.968 353.182 170.049 353.424 170.049C353.666 170.049 353.908 169.968 354.069 169.808C354.391 169.487 354.391 168.926 354.069 168.605C353.827 168.445 353.666 168.365 353.424 168.365Z" fill="#82D8DC"/>
<path d="M343.588 163.234C343.347 163.234 343.105 163.314 342.944 163.474C342.621 163.795 342.621 164.356 342.944 164.677C343.105 164.837 343.347 164.918 343.588 164.918C343.83 164.918 344.072 164.837 344.233 164.677C344.556 164.356 344.556 163.795 344.233 163.474C344.072 163.394 343.83 163.234 343.588 163.234Z" fill="#82D8DC"/>
<path d="M346.087 165.719C345.846 165.719 345.604 165.799 345.443 165.96C345.12 166.28 345.12 166.842 345.443 167.162C345.604 167.323 345.846 167.403 346.087 167.403C346.329 167.403 346.571 167.323 346.732 167.162C347.055 166.842 347.055 166.28 346.732 165.96C346.571 165.799 346.329 165.719 346.087 165.719Z" fill="#82D8DC"/>
<path d="M348.587 168.205C348.345 168.205 348.103 168.285 347.942 168.445C347.62 168.766 347.62 169.327 347.942 169.648C348.103 169.808 348.345 169.888 348.587 169.888C348.829 169.888 349.071 169.808 349.232 169.648C349.554 169.327 349.554 168.766 349.232 168.445C349.071 168.285 348.829 168.205 348.587 168.205Z" fill="#82D8DC"/>
<path d="M351.086 170.69C350.844 170.69 350.602 170.77 350.441 170.931C350.119 171.251 350.119 171.813 350.441 172.133C350.602 172.294 350.844 172.374 351.086 172.374C351.328 172.374 351.57 172.294 351.731 172.133C352.053 171.813 352.053 171.251 351.731 170.931C351.489 170.77 351.328 170.69 351.086 170.69Z" fill="#82D8DC"/>
<path d="M329.642 177.184C329.4 177.184 329.158 177.264 328.997 177.425C328.674 177.745 328.674 178.307 328.997 178.627C329.158 178.788 329.4 178.868 329.642 178.868C329.883 178.868 330.125 178.788 330.287 178.627C330.609 178.307 330.609 177.745 330.287 177.425C330.045 177.264 329.883 177.184 329.642 177.184Z" fill="#82D8DC"/>
<path d="M332.141 179.67C331.899 179.67 331.657 179.75 331.496 179.91C331.173 180.231 331.173 180.792 331.496 181.113C331.657 181.273 331.899 181.353 332.141 181.353C332.383 181.353 332.624 181.273 332.786 181.113C333.108 180.792 333.108 180.231 332.786 179.91C332.544 179.75 332.383 179.67 332.141 179.67Z" fill="#82D8DC"/>
<path d="M334.64 182.155C334.398 182.155 334.156 182.235 333.995 182.395C333.672 182.716 333.672 183.277 333.995 183.598C334.156 183.758 334.398 183.839 334.64 183.839C334.882 183.839 335.123 183.758 335.285 183.598C335.607 183.277 335.607 182.716 335.285 182.395C335.043 182.235 334.801 182.155 334.64 182.155Z" fill="#82D8DC"/>
<path d="M337.058 184.56C336.816 184.56 336.574 184.64 336.413 184.801C336.091 185.121 336.091 185.683 336.413 186.003C336.574 186.164 336.816 186.244 337.058 186.244C337.3 186.244 337.542 186.164 337.703 186.003C338.026 185.683 338.026 185.121 337.703 184.801C337.542 184.72 337.3 184.56 337.058 184.56Z" fill="#82D8DC"/>
<path d="M327.304 179.509C327.062 179.509 326.82 179.589 326.659 179.75C326.336 180.07 326.336 180.631 326.659 180.952C326.82 181.112 327.062 181.193 327.304 181.193C327.546 181.193 327.787 181.112 327.949 180.952C328.271 180.631 328.271 180.07 327.949 179.75C327.787 179.589 327.546 179.509 327.304 179.509Z" fill="#82D8DC"/>
<path d="M329.803 181.994C329.561 181.994 329.319 182.075 329.158 182.235C328.835 182.556 328.835 183.117 329.158 183.438C329.319 183.598 329.561 183.678 329.803 183.678C330.045 183.678 330.287 183.598 330.448 183.438C330.77 183.117 330.77 182.556 330.448 182.235C330.206 182.075 330.045 181.994 329.803 181.994Z" fill="#82D8DC"/>
<path d="M332.302 184.48C332.06 184.48 331.818 184.56 331.657 184.72C331.334 185.041 331.334 185.602 331.657 185.923C331.818 186.083 332.06 186.163 332.302 186.163C332.544 186.163 332.785 186.083 332.947 185.923C333.269 185.602 333.269 185.041 332.947 184.72C332.705 184.56 332.463 184.48 332.302 184.48Z" fill="#82D8DC"/>
<path d="M334.801 186.885C334.559 186.885 334.317 186.965 334.156 187.126C333.833 187.446 333.833 188.007 334.156 188.328C334.317 188.488 334.559 188.569 334.801 188.569C335.043 188.569 335.285 188.488 335.446 188.328C335.768 188.007 335.768 187.446 335.446 187.126C335.204 186.965 334.962 186.885 334.801 186.885Z" fill="#82D8DC"/>
<path d="M324.966 181.834C324.724 181.834 324.482 181.914 324.321 182.075C323.998 182.395 323.998 182.957 324.321 183.277C324.482 183.438 324.724 183.518 324.966 183.518C325.208 183.518 325.45 183.438 325.611 183.277C325.933 182.957 325.933 182.395 325.611 182.075C325.45 181.914 325.208 181.834 324.966 181.834Z" fill="#82D8DC"/>
<path d="M327.465 184.319C327.223 184.319 326.981 184.4 326.82 184.56C326.498 184.881 326.498 185.442 326.82 185.763C326.981 185.923 327.223 186.003 327.465 186.003C327.707 186.003 327.949 185.923 328.11 185.763C328.432 185.442 328.432 184.881 328.11 184.56C327.868 184.4 327.707 184.319 327.465 184.319Z" fill="#82D8DC"/>
<path d="M329.964 186.725C329.722 186.725 329.48 186.805 329.319 186.965C328.997 187.286 328.997 187.847 329.319 188.168C329.48 188.328 329.722 188.408 329.964 188.408C330.206 188.408 330.448 188.328 330.609 188.168C330.931 187.847 330.931 187.286 330.609 186.965C330.367 186.885 330.206 186.725 329.964 186.725Z" fill="#82D8DC"/>
<path d="M332.463 189.21C332.222 189.21 331.98 189.29 331.819 189.451C331.496 189.771 331.496 190.333 331.819 190.653C331.98 190.814 332.222 190.894 332.463 190.894C332.705 190.894 332.947 190.814 333.108 190.653C333.431 190.333 333.431 189.771 333.108 189.451C332.867 189.29 332.625 189.21 332.463 189.21Z" fill="#82D8DC"/>
<path d="M358.1 181.834C357.858 181.834 357.616 181.914 357.455 182.075C357.132 182.395 357.132 182.957 357.455 183.277C357.616 183.438 357.858 183.518 358.1 183.518C358.342 183.518 358.583 183.438 358.745 183.277C359.067 182.957 359.067 182.395 358.745 182.075C358.503 181.914 358.261 181.834 358.1 181.834Z" fill="#82D8DC"/>
<path d="M355.6 184.32C355.358 184.32 355.116 184.4 354.955 184.56C354.633 184.881 354.633 185.442 354.955 185.763C355.116 185.923 355.358 186.003 355.6 186.003C355.842 186.003 356.084 185.923 356.245 185.763C356.568 185.442 356.568 184.881 356.245 184.56C356.003 184.4 355.842 184.32 355.6 184.32Z" fill="#82D8DC"/>
<path d="M353.101 186.725C352.859 186.725 352.617 186.805 352.456 186.965C352.134 187.286 352.134 187.847 352.456 188.168C352.617 188.328 352.859 188.408 353.101 188.408C353.343 188.408 353.585 188.328 353.746 188.168C354.068 187.847 354.068 187.286 353.746 186.965C353.585 186.885 353.343 186.725 353.101 186.725Z" fill="#82D8DC"/>
<path d="M350.602 189.21C350.36 189.21 350.118 189.29 349.957 189.451C349.635 189.771 349.635 190.333 349.957 190.653C350.118 190.814 350.36 190.894 350.602 190.894C350.844 190.894 351.086 190.814 351.247 190.653C351.57 190.333 351.57 189.771 351.247 189.451C351.086 189.29 350.844 189.21 350.602 189.21Z" fill="#82D8DC"/>
<path d="M355.762 179.509C355.52 179.509 355.278 179.589 355.117 179.75C354.794 180.07 354.794 180.632 355.117 180.952C355.278 181.113 355.52 181.193 355.762 181.193C356.004 181.193 356.245 181.113 356.407 180.952C356.729 180.632 356.729 180.07 356.407 179.75C356.165 179.589 356.004 179.509 355.762 179.509Z" fill="#82D8DC"/>
<path d="M353.262 181.995C353.02 181.995 352.779 182.075 352.617 182.235C352.295 182.556 352.295 183.117 352.617 183.438C352.779 183.598 353.02 183.678 353.262 183.678C353.504 183.678 353.746 183.598 353.907 183.438C354.23 183.117 354.23 182.556 353.907 182.235C353.665 182.075 353.504 181.995 353.262 181.995Z" fill="#82D8DC"/>
<path d="M350.763 184.48C350.521 184.48 350.28 184.56 350.118 184.72C349.796 185.041 349.796 185.602 350.118 185.923C350.28 186.083 350.521 186.164 350.763 186.164C351.005 186.164 351.247 186.083 351.408 185.923C351.731 185.602 351.731 185.041 351.408 184.72C351.247 184.56 351.005 184.48 350.763 184.48Z" fill="#82D8DC"/>
<path d="M348.264 186.885C348.022 186.885 347.781 186.965 347.619 187.126C347.297 187.446 347.297 188.008 347.619 188.328C347.781 188.489 348.022 188.569 348.264 188.569C348.506 188.569 348.748 188.489 348.909 188.328C349.232 188.008 349.232 187.446 348.909 187.126C348.748 186.965 348.506 186.885 348.264 186.885Z" fill="#82D8DC"/>
<path d="M353.424 177.184C353.182 177.184 352.94 177.264 352.779 177.425C352.456 177.745 352.456 178.307 352.779 178.627C352.94 178.788 353.182 178.868 353.424 178.868C353.666 178.868 353.908 178.788 354.069 178.627C354.391 178.307 354.391 177.745 354.069 177.425C353.827 177.264 353.666 177.184 353.424 177.184Z" fill="#82D8DC"/>
<path d="M350.925 179.67C350.683 179.67 350.441 179.75 350.28 179.91C349.957 180.231 349.957 180.792 350.28 181.113C350.441 181.273 350.683 181.353 350.925 181.353C351.167 181.353 351.409 181.273 351.57 181.113C351.892 180.792 351.892 180.231 351.57 179.91C351.409 179.75 351.167 179.67 350.925 179.67Z" fill="#82D8DC"/>
<path d="M348.425 182.155C348.183 182.155 347.942 182.235 347.78 182.396C347.458 182.716 347.458 183.277 347.78 183.598C347.942 183.758 348.183 183.839 348.425 183.839C348.667 183.839 348.909 183.758 349.07 183.598C349.393 183.277 349.393 182.716 349.07 182.396C348.909 182.235 348.667 182.155 348.425 182.155Z" fill="#82D8DC"/>
<path d="M345.926 184.56C345.685 184.56 345.443 184.64 345.281 184.801C344.959 185.121 344.959 185.683 345.281 186.003C345.443 186.164 345.685 186.244 345.926 186.244C346.168 186.244 346.41 186.164 346.571 186.003C346.894 185.683 346.894 185.121 346.571 184.801C346.41 184.721 346.168 184.56 345.926 184.56Z" fill="#82D8DC"/>
<path d="M337.058 160.989C336.816 160.989 336.574 161.069 336.413 161.23C336.091 161.55 336.091 162.111 336.413 162.432C336.574 162.592 336.816 162.673 337.058 162.673C337.3 162.673 337.542 162.592 337.703 162.432C338.026 162.111 338.026 161.55 337.703 161.23C337.542 161.069 337.3 160.989 337.058 160.989Z" fill="#82D8DC"/>
<path d="M334.64 163.394C334.398 163.394 334.156 163.474 333.995 163.635C333.672 163.955 333.672 164.517 333.995 164.837C334.156 164.998 334.398 165.078 334.64 165.078C334.882 165.078 335.123 164.998 335.285 164.837C335.607 164.517 335.607 163.955 335.285 163.635C335.043 163.474 334.801 163.394 334.64 163.394Z" fill="#82D8DC"/>
<path d="M332.141 165.88C331.899 165.88 331.657 165.96 331.496 166.12C331.173 166.441 331.173 167.002 331.496 167.323C331.657 167.483 331.899 167.563 332.141 167.563C332.383 167.563 332.624 167.483 332.786 167.323C333.108 167.002 333.108 166.441 332.786 166.12C332.544 165.96 332.383 165.88 332.141 165.88Z" fill="#82D8DC"/>
<path d="M329.642 168.365C329.4 168.365 329.158 168.445 328.997 168.606C328.674 168.926 328.674 169.487 328.997 169.808C329.158 169.968 329.4 170.049 329.642 170.049C329.883 170.049 330.125 169.968 330.287 169.808C330.609 169.487 330.609 168.926 330.287 168.606C330.045 168.445 329.883 168.365 329.642 168.365Z" fill="#82D8DC"/>
<path d="M334.801 158.664C334.559 158.664 334.318 158.744 334.156 158.904C333.834 159.225 333.834 159.786 334.156 160.107C334.318 160.267 334.559 160.348 334.801 160.348C335.043 160.348 335.285 160.267 335.446 160.107C335.769 159.786 335.769 159.225 335.446 158.904C335.204 158.744 334.963 158.664 334.801 158.664Z" fill="#82D8DC"/>
<path d="M332.302 161.069C332.06 161.069 331.818 161.149 331.657 161.31C331.334 161.63 331.334 162.192 331.657 162.512C331.818 162.673 332.06 162.753 332.302 162.753C332.544 162.753 332.786 162.673 332.947 162.512C333.269 162.192 333.269 161.63 332.947 161.31C332.705 161.229 332.463 161.069 332.302 161.069Z" fill="#82D8DC"/>
<path d="M329.803 163.555C329.561 163.555 329.319 163.635 329.158 163.795C328.835 164.116 328.835 164.677 329.158 164.998C329.319 165.158 329.561 165.238 329.803 165.238C330.045 165.238 330.287 165.158 330.448 164.998C330.77 164.677 330.77 164.116 330.448 163.795C330.206 163.635 330.045 163.555 329.803 163.555Z" fill="#82D8DC"/>
<path d="M327.304 166.04C327.062 166.04 326.82 166.12 326.659 166.28C326.336 166.601 326.336 167.162 326.659 167.483C326.82 167.643 327.062 167.724 327.304 167.724C327.546 167.724 327.787 167.643 327.949 167.483C328.271 167.162 328.271 166.601 327.949 166.28C327.787 166.12 327.546 166.04 327.304 166.04Z" fill="#82D8DC"/>
<path d="M332.463 156.339C332.222 156.339 331.98 156.419 331.819 156.58C331.496 156.9 331.496 157.461 331.819 157.782C331.98 157.942 332.222 158.023 332.463 158.023C332.705 158.023 332.947 157.942 333.108 157.782C333.431 157.461 333.431 156.9 333.108 156.58C332.867 156.419 332.625 156.339 332.463 156.339Z" fill="#82D8DC"/>
<path d="M329.964 158.824C329.722 158.824 329.48 158.905 329.319 159.065C328.997 159.386 328.997 159.947 329.319 160.267C329.48 160.428 329.722 160.508 329.964 160.508C330.206 160.508 330.448 160.428 330.609 160.267C330.931 159.947 330.931 159.386 330.609 159.065C330.367 158.905 330.206 158.824 329.964 158.824Z" fill="#82D8DC"/>
<path d="M327.465 161.23C327.223 161.23 326.981 161.31 326.82 161.47C326.498 161.791 326.498 162.352 326.82 162.673C326.981 162.833 327.223 162.913 327.465 162.913C327.707 162.913 327.949 162.833 328.11 162.673C328.432 162.352 328.432 161.791 328.11 161.47C327.868 161.31 327.707 161.23 327.465 161.23Z" fill="#82D8DC"/>
<path d="M324.966 163.715C324.724 163.715 324.482 163.795 324.321 163.955C323.998 164.276 323.998 164.837 324.321 165.158C324.482 165.318 324.724 165.399 324.966 165.399C325.208 165.399 325.45 165.318 325.611 165.158C325.933 164.837 325.933 164.276 325.611 163.955C325.45 163.795 325.208 163.715 324.966 163.715Z" fill="#82D8DC"/>
<path d="M326.74 173.656L341.573 158.904L334.156 151.528C332.866 150.246 330.77 150.246 329.561 151.528L319.403 161.63C318.114 162.913 318.114 164.998 319.403 166.2L326.74 173.656Z" stroke="#82D8DC" stroke-width="3.2715" stroke-miterlimit="10"/>
<path d="M356.326 173.656L341.492 188.408L348.909 195.784C350.199 197.067 352.295 197.067 353.504 195.784L363.662 185.683C364.952 184.4 364.952 182.315 363.662 181.113L356.326 173.656Z" stroke="#82D8DC" stroke-width="3.2715" stroke-miterlimit="10"/>
<path d="M118.507 51.0706L119.152 50.4293L111.09 42.4119L110.445 43.0533C106.737 42.011 102.545 42.8929 99.5619 45.7792L86.8244 58.4466L86.0989 59.1682L84.0835 61.1726C83.5998 61.6536 83.5998 62.5355 84.0835 63.0165L98.4333 77.2875C98.917 77.7685 99.8037 77.7685 100.287 77.2875L102.303 75.2832L103.028 74.5616L115.766 61.8941C118.668 58.9277 119.555 54.7586 118.507 51.0706Z" stroke="#01939A" stroke-width="3.2715" stroke-miterlimit="10"/>
<path d="M120.119 51.3112L110.123 41.3697L114.879 36.6394L124.875 46.581L120.119 51.3112Z" stroke="#01939A" stroke-width="3.2715" stroke-miterlimit="10"/>
<path d="M115.766 37.5214L111.735 41.6102" stroke="#01939A" stroke-width="3.2715" stroke-miterlimit="10"/>
<path d="M116.975 38.724L112.944 42.7327" stroke="#01939A" stroke-width="3.2715" stroke-miterlimit="10"/>
<path d="M118.104 39.8464L114.073 43.8551" stroke="#01939A" stroke-width="3.2715" stroke-miterlimit="10"/>
<path d="M119.313 41.049L115.201 45.0576" stroke="#01939A" stroke-width="3.2715" stroke-miterlimit="10"/>
<path d="M120.441 42.1715L116.411 46.1802" stroke="#01939A" stroke-width="3.2715" stroke-miterlimit="10"/>
<path d="M121.651 43.374L117.539 47.3827" stroke="#01939A" stroke-width="3.2715" stroke-miterlimit="10"/>
<path d="M122.779 44.4965L118.749 48.5052" stroke="#01939A" stroke-width="3.2715" stroke-miterlimit="10"/>
<path d="M123.908 45.6991L119.877 49.7078" stroke="#01939A" stroke-width="3.2715" stroke-miterlimit="10"/>
<path d="M107.866 63.4976C105.125 66.2235 100.691 66.2235 97.9498 63.4976C95.2088 60.7717 95.2088 56.3621 97.9498 53.6362C100.691 50.9103 105.125 50.9103 107.866 53.6362C110.607 56.3621 110.607 60.7717 107.866 63.4976Z" stroke="#3FE0E6" stroke-width="3.2715" stroke-linecap="round" stroke-linejoin="round"/>
<path d="M104.56 54.8389L102.867 56.4423L101.255 54.8389L99.0781 56.9234L100.771 58.607L99.0781 60.2105L101.255 62.3752L102.867 60.6916L104.56 62.3752L106.656 60.2105L105.044 58.607L106.656 56.9234L104.56 54.8389Z" fill="#00939B"/>
<path d="M130.277 241.484C121.167 245.091 119.394 244.53 111.574 241.484C92.6289 233.947 74.3289 239.64 82.8743 272.992C87.147 289.909 95.6923 304.5 111.574 304.5C114.879 304.5 118.023 303.859 120.925 302.817C123.828 303.939 126.972 304.5 130.277 304.5C146.158 304.5 154.704 289.828 158.976 272.992C167.522 239.64 149.222 233.947 130.277 241.484Z" stroke="#82D8DC" stroke-width="3.2715" stroke-miterlimit="10"/>
<path d="M117.378 234.829C117.378 235.952 117.459 236.994 117.62 238.036C118.507 238.116 119.313 238.196 120.2 238.196C131.889 238.196 141.322 228.656 141.322 216.87C141.322 215.748 141.241 214.706 141.08 213.663C140.193 213.583 139.387 213.503 138.5 213.503C126.811 213.583 117.378 223.124 117.378 234.829Z" stroke="#82D8DC" stroke-width="3.2715" stroke-miterlimit="10"/>
<path d="M211.458 14.9122L205.412 20.9253L211.458 26.9383" stroke="#3FE0E6" stroke-width="3.2715" stroke-linecap="round" stroke-linejoin="round"/>
<path d="M207.104 20.9253H229.032" stroke="#3FE0E6" stroke-width="3.2715" stroke-linecap="round" stroke-linejoin="round"/>
<path d="M222.986 14.5916L229.033 8.57859L222.986 2.56555" stroke="#3FE0E6" stroke-width="3.2715" stroke-linecap="round" stroke-linejoin="round"/>
<path d="M227.339 8.57861H205.412" stroke="#3FE0E6" stroke-width="3.2715" stroke-linecap="round" stroke-linejoin="round"/>
<path d="M13.4628 191.455C13.4628 191.455 17.413 191.776 18.6222 190.252C19.8315 188.729 16.2037 189.21 17.8967 190.333C19.509 191.375 23.2174 189.451 22.1694 187.687C21.202 185.843 19.6702 185.121 18.1385 186.164C16.6874 187.206 17.8967 187.847 18.461 186.805C19.0253 185.763 16.768 183.277 14.8332 186.805C12.8984 190.413 13.9465 190.653 14.5914 188.328C15.2363 185.923 13.7046 184.4 12.576 187.206C11.4473 190.012 13.2209 191.375 13.624 190.172C14.0271 188.889 10.3993 186.244 10.0769 188.649C9.75439 191.054 9.59315 193.94 11.3667 193.94C13.2209 193.94 8.94822 187.687 7.25527 192.818C5.56232 197.949 8.94822 196.346 9.10945 195.223C9.27069 194.101 2.98258 196.185 7.81958 197.869C12.6566 199.553 10.883 197.468 11.2861 196.346C11.6892 195.143 7.17465 198.27 9.59315 200.755C12.0117 203.241 14.3495 202.76 13.8658 200.194C13.3821 197.628 10.6412 198.991 11.528 201.076C12.4147 203.241 11.0443 204.523 10.5606 204.764C10.0769 205.004 13.9465 206.608 14.672 204.523C15.5588 202.439 16.6068 192.257 13.4628 191.455Z" fill="#163F59"/>
<path d="M19.4285 189.611L21.6858 192.497V193.62L23.6206 196.266L22.7338 197.789L23.1369 202.359C23.1369 202.359 23.4593 204.844 21.1214 203.962C18.7836 203.08 18.7836 203.08 18.7836 203.08C18.7836 203.08 16.8488 209.254 18.1386 210.296C19.5091 211.418 20.4765 212.621 19.9122 213.343C19.4285 213.984 18.058 213.503 16.6875 213.343C14.269 213.102 12.6567 213.503 11.6087 213.583C10.8831 213.583 11.9311 213.182 12.0924 211.659C12.3342 210.136 13.5435 201.076 13.5435 201.076C13.5435 201.076 13.1404 201.236 12.5761 200.996C12.0118 200.755 9.43202 198.751 10.2382 197.628C11.125 196.506 12.9792 196.987 13.6241 198.11C14.269 199.152 15.3977 198.029 15.0752 195.704C14.8333 193.379 10.077 191.936 15.4783 191.215C19.2673 190.573 19.4285 189.611 19.4285 189.611Z" fill="#E9D6B8"/>
<path d="M39.1797 215.267L51.5947 204.042C51.5947 204.042 52.4008 205.005 52.0784 205.967C51.1916 208.452 47.8057 212.06 45.8709 214.144C43.2105 216.95 39.8246 219.275 39.8246 219.275L39.1797 215.267Z" fill="#E9D6B8"/>
<path d="M51.675 207.089L53.2068 205.726C53.2068 205.726 54.0129 205.165 54.6579 204.123C55.3028 203.16 54.8997 202.198 54.0936 201.397C53.2874 200.595 52.6425 200.515 52.6425 200.515C52.6425 200.515 51.272 201.076 51.4332 202.279C51.5944 203.481 50.3852 206.127 50.8689 206.287C51.272 206.528 51.675 207.089 51.675 207.089Z" fill="#E9D6B8"/>
<path d="M51.9976 200.755L53.6099 199.072L55.1416 197.629L55.3028 198.029L54.3354 199.232L53.8517 201.798L53.2874 201.397L51.9976 200.755Z" fill="#E9D6B8"/>
<path d="M54.8999 199.873L56.5929 198.991L56.9154 199.312L55.3836 200.515L54.3356 202.198L53.2876 201.397L54.8999 199.873Z" fill="#E9D6B8"/>
<path d="M57.2378 200.114L55.7867 200.755L54.8193 200.996L54.1743 201.878L54.8193 202.76L55.4642 201.798L57.1571 200.675L57.2378 200.114Z" fill="#E9D6B8"/>
<path d="M57.4795 201.557L54.8997 202.279L54.416 202.92L54.8191 203.561L55.8671 202.84L57.3182 202.038L57.4795 201.557Z" fill="#E9D6B8"/>
<path d="M50.0626 207.009C50.9494 206.127 50.7076 204.844 50.7076 204.844C50.7076 204.844 50.3045 201.637 50.7882 201.076C51.2719 200.515 51.5944 199.152 51.5944 199.152C51.5944 199.152 51.9974 198.671 52.1587 199.954C52.2393 200.835 52.0781 201.557 52.0781 201.557C52.0781 201.557 52.9649 203.321 52.8842 203.882C52.723 205.085 50.627 207.089 50.627 207.089C50.627 207.089 49.982 207.169 50.0626 207.009Z" fill="#E9D6B8"/>
<path d="M24.3461 212.06L30.0699 213.423L35.4713 214.465L48.8536 205.486L51.9977 210.777L36.5193 223.284L18.3805 220.959C18.3805 220.959 15.5589 216.55 14.1078 211.178C13.1404 207.41 23.2175 211.9 24.3461 212.06Z" fill="#B7FBFE"/>
<path d="M25.5557 233.867L41.1148 234.348C41.1148 234.348 29.5866 241.243 25.3945 237.796C21.2024 234.268 25.5557 233.867 25.5557 233.867Z" fill="#E9D6B8"/>
<path d="M8.86784 327.029L8.38414 328.552L0 325.826L1.12863 321.738L6.20749 323.181C6.20749 323.261 8.14229 326.548 8.86784 327.029Z" fill="#161711"/>
<path d="M11.8509 251.906C11.8509 251.906 15.8817 277.883 20.3156 289.347C24.2659 299.529 29.5059 286.541 29.5059 286.541L22.8148 242.927L10.1579 241.724C10.1579 241.724 9.27115 242.045 11.8509 251.906Z" fill="#1D7074"/>
<path d="M20.1543 244.049L21.3635 260.805L19.1063 262.008C19.1063 262.008 17.3327 286.782 16.849 287.984C14.3499 295.12 8.30361 290.71 7.49744 288.225C6.69128 285.82 5.72388 268.101 6.28819 255.193C6.85251 242.285 6.85251 242.285 6.85251 242.285L20.1543 244.049Z" fill="#00939B"/>
<path d="M16.8488 283.334C16.8488 283.334 16.7682 287.904 14.6721 295.922C13.3016 301.053 9.51266 314.522 6.12676 324.464C5.88491 325.105 0.967285 323.421 0.967285 323.421C0.967285 323.421 5.80429 289.748 7.09416 283.334C7.49724 281.33 13.9466 277.802 16.8488 283.334Z" fill="#00939B"/>
<path d="M18.2194 209.494L17.5745 210.136L12.7375 207.41L5.72381 212.461C5.72381 212.461 4.43394 217.111 4.35332 226.491C4.27271 235.871 5.07887 269.544 5.07887 269.544L23.0564 270.988L24.9912 258.16L26.2811 269.625L28.4577 267.861C28.5383 267.861 23.6207 213.743 18.2194 209.494Z" fill="#B7FBFE"/>
<path d="M27.4096 285.9C27.4096 285.9 25.9585 286.381 21.2827 286.381C16.607 286.461 26.4422 323.902 26.4422 323.902L33.1334 321.657L29.1832 284.056L27.4096 285.9Z" fill="#1D7074"/>
<path d="M27.0068 323.501L27.5712 326.789L30.8764 326.869C30.8764 326.869 33.3756 326.949 34.0205 326.949C34.6654 326.949 38.3738 327.029 38.3738 327.029V325.827C38.3738 325.827 33.2143 323.902 32.1663 321.898C31.2795 319.894 27.0068 323.501 27.0068 323.501Z" fill="#161711"/>
<path d="M45.9515 236.914L44.4198 237.475L38.3735 235.471L40.7114 231.221L41.5176 232.424L43.6942 232.344L46.3546 236.112L45.9515 236.914Z" fill="#E9D6B8"/>
<path d="M15.8007 209.815L18.2192 209.494L20.7183 212.541L21.0408 221.44L18.3804 216.79L15.1558 211.739L15.8007 209.815Z" fill="#D1DBEA"/>
<path d="M17.7359 209.655L18.0584 212.701L11.3672 208.933L12.0927 206.768L17.7359 209.655Z" fill="#B7FBFE"/>
<path d="M18.0583 208.773L17.7358 209.654L19.0257 212.461L19.1063 209.975L18.0583 208.773Z" fill="#B7FBFE"/>
<path d="M11.8506 207.089L17.9775 213.904L21.0409 221.44L24.1044 235.39L16.9295 217.512L17.655 216.95L16.4458 216.229C16.4458 216.229 14.1079 212.862 12.1731 211.178C10.2383 209.414 10.2383 209.174 10.2383 209.174L11.8506 207.089Z" fill="#E9F6FF"/>
<path d="M8.06178 211.98C8.06178 211.98 4.43402 213.824 6.20759 219.195C9.19041 228.335 15.3979 235.871 16.5265 237.395C17.6552 238.918 21.6054 242.045 24.5076 241.323C26.3618 240.922 36.1164 240.441 36.1164 240.441L36.5195 233.867L25.5556 233.787L24.5076 233.627C24.5076 233.627 20.7186 227.694 17.5746 221.921C14.4305 216.149 8.06178 211.98 8.06178 211.98Z" fill="#E9F6FF"/>
<path d="M19.9931 219.275C19.9931 219.275 19.2675 210.055 18.7838 209.494C18.2195 208.933 20.1543 210.536 20.1543 210.536L20.7186 212.541L21.3636 214.946L22.6534 229.778L19.9931 219.275Z" fill="#E9F6FF"/>
<path d="M21.686 255.755H13.1406V257.599H21.686V255.755Z" fill="#E9F6FF"/>
</g>
<defs>
<clipPath id="clip0">
<rect width="366" height="332" fill="white"/>
</clipPath>
</defs>
</svg>
