<svg width="416" height="274" viewBox="0 0 416 274" fill="none" xmlns="http://www.w3.org/2000/svg">
<g clip-path="url(#clip0)">
<path d="M111.501 97.2766H2.47559V244.381H111.501V97.2766Z" fill="#00B3BA"/>
<path d="M111.501 97.2766H2.47559V102.527H111.501V97.2766Z" fill="#66D1D5"/>
<path d="M92.6865 66.1719H21.2902C9.50631 66.1719 0 75.6816 0 87.4698V273.802H4.9512V87.4698C4.9512 78.4553 12.279 71.1249 21.2902 71.1249H92.6865C101.698 71.1249 109.025 78.4553 109.025 87.4698V273.802H113.977V87.4698C113.977 75.6816 104.371 66.1719 92.6865 66.1719Z" fill="white"/>
<path d="M111.501 250.622H2.47559V253.593H111.501V250.622Z" fill="white"/>
<path d="M192.404 97.2766H111.501V244.381H192.404V97.2766Z" fill="#00B3BA"/>
<path d="M192.404 97.2766H111.501V102.527H192.404V97.2766Z" fill="#66D1D5"/>
<path d="M173.589 66.1719H130.316C118.631 66.1719 109.025 75.6816 109.025 87.4698V273.802H113.977V87.4698C113.977 78.4553 121.304 71.1249 130.316 71.1249H173.589C182.6 71.1249 189.928 78.4553 189.928 87.4698V273.802H194.879V87.4698C194.879 75.6816 185.274 66.1719 173.589 66.1719Z" fill="white"/>
<path d="M192.404 250.622H111.501V253.593H192.404V250.622Z" fill="white"/>
<path d="M20.5969 170.878C20.4979 161.666 20.2999 152.453 20.2008 143.835C20.1018 135.217 19.9038 127.193 19.8048 120.259C19.5077 106.489 19.3096 97.2767 19.3096 97.2767C19.3096 97.1777 19.2106 97.0786 19.1116 97.0786C19.0126 97.0786 18.9135 97.1777 18.9135 97.2767C18.9135 97.2767 18.7155 106.489 18.4184 120.259C18.3194 127.193 18.1213 135.217 18.0223 143.835C17.9233 152.453 17.7252 161.666 17.6262 170.878C17.5272 175.435 17.4282 180.091 17.3292 184.549C17.2301 189.105 17.1311 193.563 17.1311 197.823C17.1311 202.082 17.1311 206.342 17.2301 210.205C17.2301 212.186 17.3292 214.068 17.3292 215.951C17.4282 217.833 17.4282 219.616 17.5272 221.3C17.6262 224.767 17.8243 227.937 17.9233 230.711C18.1213 233.484 18.2204 235.961 18.4184 237.942C18.7155 242.003 18.9135 244.282 18.9135 244.282C18.9135 244.381 19.0126 244.48 19.1116 244.48C19.2106 244.48 19.3096 244.381 19.3096 244.282C19.3096 244.282 19.5077 242.003 19.8048 237.942C19.9038 235.961 20.1018 233.484 20.2999 230.711C20.3989 227.937 20.5969 224.767 20.696 221.3C20.795 219.616 20.795 217.734 20.894 215.951C20.894 214.068 20.993 212.186 20.993 210.205C21.0921 206.243 21.0921 202.082 21.0921 197.823C21.0921 193.563 20.993 189.105 20.894 184.549C20.795 180.091 20.696 175.534 20.5969 170.878Z" fill="#26BEC4"/>
<path d="M39.2135 170.878C39.1145 161.666 38.9165 152.453 38.8174 143.835C38.7184 135.217 38.5204 127.193 38.4213 120.259C38.1243 106.489 37.9262 97.2767 37.9262 97.2767C37.9262 97.1777 37.8272 97.0786 37.7282 97.0786C37.6291 97.0786 37.5301 97.1777 37.5301 97.2767C37.5301 97.2767 37.3321 106.489 37.035 120.259C36.936 127.193 36.7379 135.217 36.6389 143.835C36.5399 152.453 36.3418 161.666 36.2428 170.878C36.1438 175.435 36.0448 180.091 35.9457 184.549C35.8467 189.105 35.7477 193.563 35.7477 197.823C35.7477 202.082 35.7477 206.342 35.8467 210.205C35.8467 212.186 35.9457 214.068 35.9457 215.951C36.0448 217.833 36.0448 219.616 36.1438 221.3C36.2428 224.767 36.4409 227.937 36.5399 230.711C36.7379 233.484 36.8369 235.961 37.035 237.942C37.3321 242.003 37.5301 244.282 37.5301 244.282C37.5301 244.381 37.6291 244.48 37.7282 244.48C37.8272 244.48 37.9262 244.381 37.9262 244.282C37.9262 244.282 38.1243 242.003 38.4213 237.942C38.5204 235.961 38.7184 233.484 38.9164 230.711C39.0155 227.937 39.2135 224.767 39.3125 221.3C39.4116 219.616 39.4116 217.734 39.5106 215.951C39.5106 214.068 39.6096 212.186 39.6096 210.205C39.7086 206.243 39.7086 202.082 39.7086 197.823C39.7086 193.563 39.6096 189.105 39.5106 184.549C39.4116 180.091 39.3125 175.534 39.2135 170.878Z" fill="#26BEC4"/>
<path d="M57.929 170.878C57.83 161.666 57.6319 152.453 57.5329 143.835C57.4339 135.217 57.2358 127.193 57.1368 120.259C56.8397 106.489 56.6417 97.2767 56.6417 97.2767C56.6417 97.1777 56.5426 97.0786 56.4436 97.0786C56.3446 97.0786 56.2456 97.1777 56.2456 97.2767C56.2456 97.2767 56.0475 106.489 55.7504 120.259C55.6514 127.193 55.4534 135.217 55.3544 143.835C55.2553 152.453 55.0573 161.666 54.9583 170.878C54.8592 175.435 54.7602 180.091 54.6612 184.549C54.5622 189.105 54.4631 193.563 54.4631 197.823C54.4631 202.082 54.4631 206.342 54.5622 210.205C54.5622 212.186 54.6612 214.068 54.6612 215.951C54.7602 217.833 54.7602 219.616 54.8592 221.3C54.9583 224.767 55.1563 227.937 55.2553 230.711C55.4534 233.484 55.5524 235.961 55.7504 237.942C56.0475 242.003 56.2456 244.282 56.2456 244.282C56.2456 244.381 56.3446 244.48 56.4436 244.48C56.5426 244.48 56.6417 244.381 56.6417 244.282C56.6417 244.282 56.8397 242.003 57.1368 237.942C57.2358 235.961 57.4339 233.484 57.6319 230.711C57.7309 227.937 57.929 224.767 58.028 221.3C58.127 219.616 58.127 217.734 58.226 215.951C58.226 214.068 58.3251 212.186 58.3251 210.205C58.4241 206.243 58.4241 202.082 58.4241 197.823C58.4241 193.563 58.3251 189.105 58.226 184.549C58.127 180.091 58.028 175.534 57.929 170.878Z" fill="#26BEC4"/>
<path d="M76.6445 170.878C76.4464 161.666 76.3474 152.453 76.2484 143.835C76.1493 135.217 75.9513 127.193 75.8523 120.259C75.4562 106.588 75.2581 97.3759 75.2581 97.3759C75.2581 97.2768 75.1591 97.1777 75.0601 97.1777C74.961 97.1777 74.862 97.2768 74.862 97.3759C74.862 97.3759 74.664 106.588 74.3669 120.358C74.2679 127.292 74.0698 135.316 73.9708 143.934C73.8718 152.552 73.6737 161.765 73.5747 170.977C73.4757 175.534 73.3767 180.19 73.2776 184.648C73.1786 189.204 73.0796 193.662 73.0796 197.922C73.0796 202.181 73.0796 206.441 73.1786 210.304C73.1786 212.285 73.2776 214.168 73.2776 216.05C73.3767 217.932 73.3767 219.715 73.4757 221.399C73.5747 224.866 73.7728 228.036 73.8718 230.81C74.0698 233.583 74.1689 236.06 74.3669 238.041C74.664 242.103 74.862 244.381 74.862 244.381C74.862 244.48 74.961 244.579 75.0601 244.579C75.1591 244.579 75.2581 244.48 75.2581 244.381C75.2581 244.381 75.4562 242.103 75.7532 238.041C75.8523 236.06 76.0503 233.583 76.2484 230.81C76.3474 228.036 76.5454 224.866 76.6445 221.399C76.7435 219.715 76.7435 217.833 76.8425 216.05C76.8425 214.168 76.9415 212.285 76.9415 210.304C77.0406 206.342 77.0406 202.181 77.0406 197.922C77.0406 193.662 76.9415 189.204 76.8425 184.648C76.8425 180.091 76.7435 175.534 76.6445 170.878Z" fill="#26BEC4"/>
<path d="M95.261 170.878C95.063 161.666 94.9639 152.453 94.8649 143.835C94.7659 135.217 94.5678 127.193 94.4688 120.259C94.1717 106.489 93.9737 97.2767 93.9737 97.2767C93.9737 97.1777 93.8747 97.0786 93.7756 97.0786C93.6766 97.0786 93.5776 97.1777 93.5776 97.2767C93.5776 97.2767 93.3796 106.489 93.0825 120.259C92.9835 127.193 92.7854 135.217 92.6864 143.835C92.5874 152.453 92.3893 161.666 92.2903 170.878C92.1913 175.435 92.0922 180.091 91.9932 184.549C91.8942 189.105 91.7952 193.563 91.7952 197.823C91.7952 202.082 91.7952 206.342 91.8942 210.205C91.8942 212.186 91.9932 214.068 91.9932 215.951C92.0922 217.833 92.0922 219.616 92.1913 221.3C92.2903 224.767 92.4883 227.937 92.5874 230.711C92.7854 233.484 92.8844 235.961 93.0825 237.942C93.3796 242.003 93.5776 244.282 93.5776 244.282C93.5776 244.381 93.6766 244.48 93.7756 244.48C93.8747 244.48 93.9737 244.381 93.9737 244.282C93.9737 244.282 94.1717 242.003 94.4688 237.942C94.5678 235.961 94.7659 233.484 94.9639 230.711C95.063 227.937 95.261 224.767 95.36 221.3C95.4591 219.616 95.4591 217.734 95.5581 215.951C95.5581 214.068 95.6571 212.186 95.6571 210.205C95.7561 206.243 95.7561 202.082 95.7561 197.823C95.7561 193.563 95.6571 189.105 95.5581 184.549C95.4591 180.091 95.36 175.534 95.261 170.878Z" fill="#26BEC4"/>
<path d="M124.968 170.878C124.77 161.666 124.671 152.453 124.572 143.835C124.473 135.217 124.275 127.193 124.176 120.259C123.879 106.489 123.681 97.2767 123.681 97.2767C123.681 97.1777 123.582 97.0786 123.483 97.0786C123.384 97.0786 123.285 97.1777 123.285 97.2767C123.285 97.2767 123.087 106.489 122.79 120.259C122.691 127.193 122.493 135.217 122.394 143.835C122.295 152.453 122.097 161.666 121.998 170.878C121.899 175.435 121.8 180.091 121.7 184.549C121.601 189.105 121.502 193.563 121.502 197.823C121.502 202.082 121.502 206.342 121.601 210.205C121.601 212.186 121.7 214.068 121.7 215.951C121.8 217.833 121.8 219.616 121.899 221.3C121.998 224.767 122.196 227.937 122.295 230.711C122.493 233.484 122.592 235.961 122.79 237.942C123.087 242.003 123.285 244.282 123.285 244.282C123.285 244.381 123.384 244.48 123.483 244.48C123.582 244.48 123.681 244.381 123.681 244.282C123.681 244.282 123.879 242.003 124.176 237.942C124.275 235.961 124.473 233.484 124.671 230.711C124.77 227.937 124.968 224.767 125.067 221.3C125.166 219.616 125.166 217.734 125.265 215.951C125.265 214.068 125.364 212.186 125.364 210.205C125.463 206.243 125.463 202.082 125.463 197.823C125.463 193.563 125.364 189.105 125.265 184.549C125.166 180.091 125.067 175.534 124.968 170.878Z" fill="#26BEC4"/>
<path d="M139.525 170.878C139.426 161.666 139.228 152.453 139.129 143.835C139.03 135.217 138.832 127.193 138.733 120.259C138.436 106.489 138.238 97.2767 138.238 97.2767C138.238 97.1777 138.138 97.0786 138.039 97.0786C137.94 97.0786 137.841 97.1777 137.841 97.2767C137.841 97.2767 137.643 106.489 137.346 120.259C137.247 127.193 137.049 135.217 136.95 143.835C136.851 152.453 136.653 161.666 136.554 170.878C136.455 175.435 136.356 180.091 136.257 184.549C136.158 189.105 136.059 193.563 136.059 197.823C136.059 202.082 136.059 206.342 136.158 210.205C136.158 212.186 136.257 214.068 136.257 215.951C136.356 217.833 136.356 219.616 136.455 221.3C136.554 224.767 136.752 227.937 136.851 230.711C137.049 233.484 137.148 235.961 137.346 237.942C137.643 242.003 137.841 244.282 137.841 244.282C137.841 244.381 137.94 244.48 138.039 244.48C138.138 244.48 138.238 244.381 138.238 244.282C138.238 244.282 138.436 242.003 138.733 237.942C138.832 235.961 139.03 233.484 139.228 230.711C139.327 227.937 139.525 224.767 139.624 221.3C139.723 219.616 139.723 217.734 139.822 215.951C139.822 214.068 139.921 212.186 139.921 210.205C140.02 206.243 140.02 202.082 140.02 197.823C140.02 193.563 139.921 189.105 139.822 184.549C139.723 180.091 139.624 175.534 139.525 170.878Z" fill="#26BEC4"/>
<path d="M154.081 170.878C153.982 161.666 153.784 152.453 153.685 143.835C153.586 135.217 153.388 127.193 153.289 120.259C152.992 106.489 152.794 97.2767 152.794 97.2767C152.794 97.1777 152.695 97.0786 152.596 97.0786C152.497 97.0786 152.398 97.1777 152.398 97.2767C152.398 97.2767 152.2 106.489 151.903 120.259C151.804 127.193 151.606 135.217 151.507 143.835C151.408 152.453 151.21 161.666 151.111 170.878C151.012 175.435 150.913 180.091 150.814 184.549C150.715 189.105 150.616 193.563 150.616 197.823C150.616 202.082 150.616 206.342 150.715 210.205C150.715 212.186 150.814 214.068 150.814 215.951C150.913 217.833 150.913 219.616 151.012 221.3C151.111 224.767 151.309 227.937 151.408 230.711C151.606 233.484 151.705 235.961 151.903 237.942C152.2 242.003 152.398 244.282 152.398 244.282C152.398 244.381 152.497 244.48 152.596 244.48C152.695 244.48 152.794 244.381 152.794 244.282C152.794 244.282 152.992 242.003 153.289 237.942C153.388 235.961 153.586 233.484 153.784 230.711C153.883 227.937 154.081 224.767 154.18 221.3C154.279 219.616 154.279 217.734 154.379 215.951C154.379 214.068 154.478 212.186 154.478 210.205C154.577 206.243 154.577 202.082 154.577 197.823C154.577 193.563 154.478 189.105 154.379 184.549C154.279 180.091 154.18 175.534 154.081 170.878Z" fill="#26BEC4"/>
<path d="M168.638 170.878C168.539 161.666 168.341 152.453 168.242 143.835C168.143 135.217 167.945 127.193 167.846 120.259C167.549 106.489 167.351 97.2767 167.351 97.2767C167.351 97.1777 167.252 97.0786 167.152 97.0786C167.053 97.0786 166.954 97.1777 166.954 97.2767C166.954 97.2767 166.756 106.489 166.459 120.259C166.36 127.193 166.162 135.217 166.063 143.835C165.964 152.453 165.766 161.666 165.667 170.878C165.568 175.435 165.469 180.091 165.37 184.549C165.271 189.105 165.172 193.563 165.172 197.823C165.172 202.082 165.172 206.342 165.271 210.205C165.271 212.186 165.37 214.068 165.37 215.951C165.469 217.833 165.469 219.616 165.568 221.3C165.667 224.767 165.865 227.937 165.964 230.711C166.162 233.484 166.261 235.961 166.459 237.942C166.756 242.003 166.954 244.282 166.954 244.282C166.954 244.381 167.053 244.48 167.152 244.48C167.252 244.48 167.351 244.381 167.351 244.282C167.351 244.282 167.549 242.003 167.846 237.942C167.945 235.961 168.143 233.484 168.341 230.711C168.44 227.937 168.638 224.767 168.737 221.3C168.836 219.616 168.836 217.734 168.935 215.951C168.935 214.068 169.034 212.186 169.034 210.205C169.133 206.243 169.133 202.082 169.133 197.823C169.133 193.563 169.034 189.105 168.935 184.549C168.836 180.091 168.737 175.534 168.638 170.878Z" fill="#26BEC4"/>
<path d="M183.194 170.878C183.095 161.666 182.897 152.453 182.798 143.835C182.699 135.217 182.501 127.193 182.402 120.259C182.105 106.489 181.907 97.2767 181.907 97.2767C181.907 97.1777 181.808 97.0786 181.709 97.0786C181.61 97.0786 181.511 97.1777 181.511 97.2767C181.511 97.2767 181.313 106.489 181.016 120.259C180.917 127.193 180.719 135.217 180.62 143.835C180.521 152.453 180.323 161.666 180.224 170.878C180.125 175.435 180.026 180.091 179.927 184.549C179.828 189.105 179.729 193.563 179.729 197.823C179.729 202.082 179.729 206.342 179.828 210.205C179.828 212.186 179.927 214.068 179.927 215.951C180.026 217.833 180.026 219.616 180.125 221.3C180.224 224.767 180.422 227.937 180.521 230.711C180.719 233.484 180.818 235.961 181.016 237.942C181.313 242.003 181.511 244.282 181.511 244.282C181.511 244.381 181.61 244.48 181.709 244.48C181.808 244.48 181.907 244.381 181.907 244.282C181.907 244.282 182.105 242.003 182.402 237.942C182.501 235.961 182.699 233.484 182.897 230.711C182.996 227.937 183.194 224.767 183.294 221.3C183.393 219.616 183.393 217.734 183.492 215.951C183.492 214.068 183.591 212.186 183.591 210.205C183.69 206.243 183.69 202.082 183.69 197.823C183.69 193.563 183.591 189.105 183.492 184.549C183.393 180.091 183.294 175.534 183.194 170.878Z" fill="#26BEC4"/>
<path d="M142.099 174.841H75.9514V182.171H142.099V174.841Z" fill="white"/>
<path d="M142.099 171.968H75.9514V174.841H142.099V171.968Z" fill="#CFF1F2"/>
<path d="M142.099 214.762H75.9514V217.635H142.099V214.762Z" fill="#CFF1F2"/>
<path d="M142.099 217.041H75.9514V224.371H142.099V217.041Z" fill="white"/>
<path d="M75.9514 161.963C74.8622 161.963 73.9709 162.855 73.9709 163.944V265.778C73.9709 266.868 74.8622 267.759 75.9514 267.759C77.0407 267.759 77.9319 266.868 77.9319 265.778V163.944C77.9319 162.756 77.0407 161.963 75.9514 161.963Z" fill="white"/>
<path d="M142.1 161.963C141.01 161.963 140.119 162.855 140.119 163.944V265.778C140.119 266.868 141.01 267.759 142.1 267.759C143.189 267.759 144.08 266.868 144.08 265.778V163.944C144.08 162.756 143.189 161.963 142.1 161.963Z" fill="white"/>
<path d="M132.098 132.443H86.8441V166.421H132.098V132.443Z" fill="#3F3F3E"/>
<path opacity="0.1" d="M87.6364 166.421L130.712 134.127H87.6364V166.421Z" fill="url(#paint0_linear)"/>
<path d="M132.098 130.957H86.8441C86.0519 130.957 85.3588 131.651 85.3588 132.443V166.421C85.3588 167.213 86.0519 167.907 86.8441 167.907H132.098C132.89 167.907 133.583 167.213 133.583 166.421V132.443C133.583 131.651 132.989 130.957 132.098 130.957ZM130.613 164.935H88.3295V133.929H130.613V164.935Z" fill="#7E7E7D"/>
<path d="M81.3977 168.6C81.3977 170.482 82.9821 172.067 84.8635 172.067H134.178C136.059 172.067 137.643 170.482 137.643 168.6V166.421H81.3977V168.6Z" fill="#7E7E7D"/>
<path d="M73.3768 266.075C73.3768 268.155 75.0602 269.839 77.1397 269.839H78.427V260.924H73.3768V266.075Z" fill="#F2F2F2"/>
<path d="M79.4173 265.184C77.1398 265.184 75.2583 267.066 75.2583 269.344C75.2583 271.622 77.1398 273.703 79.4173 273.703C81.6949 273.703 83.5763 271.722 83.5763 269.344C83.5763 267.066 81.6949 265.184 79.4173 265.184Z" fill="#4B4B4A"/>
<path d="M79.4173 266.273C77.7339 266.273 76.2485 267.66 76.2485 269.443C76.2485 271.226 77.6349 272.613 79.4173 272.613C81.1007 272.613 82.5861 271.226 82.5861 269.443C82.5861 267.66 81.1007 266.273 79.4173 266.273Z" fill="#2E2D2C"/>
<path d="M139.426 266.075C139.426 268.155 141.109 269.839 143.189 269.839H144.476V260.924H139.426V266.075Z" fill="#F2F2F2"/>
<path d="M145.367 265.184C143.09 265.184 141.208 267.066 141.208 269.344C141.208 271.622 143.09 273.703 145.367 273.703C147.645 273.703 149.526 271.722 149.526 269.344C149.526 267.066 147.744 265.184 145.367 265.184Z" fill="#4B4B4A"/>
<path d="M145.367 266.273C143.684 266.273 142.198 267.66 142.198 269.443C142.198 271.226 143.585 272.613 145.367 272.613C147.051 272.613 148.536 271.226 148.536 269.443C148.536 267.66 147.15 266.273 145.367 266.273Z" fill="#2E2D2C"/>
<path d="M84.5664 214.762H104.767L106.154 210.998H83.1801L84.5664 214.762Z" fill="#ACACAB"/>
<path d="M106.649 210.205H82.685C82.2889 210.205 81.9918 210.502 81.9918 210.899V210.998C81.9918 211.394 82.2889 211.691 82.685 211.691H106.55C106.946 211.691 107.243 211.394 107.243 210.998V210.899C107.342 210.502 107.045 210.205 106.649 210.205Z" fill="#ACACAB"/>
<path d="M125.761 192.474H117.245V214.663H125.761V192.474Z" fill="#E6E7E8"/>
<path d="M124.77 194.95H118.334V203.568H124.77V194.95Z" fill="#99E1E3"/>
<path d="M122.394 197.03H120.71V198.417H119.324V200.101H120.71V201.488H122.394V200.101H123.78V198.417H122.394V197.03Z" fill="white"/>
<path d="M136.752 206.342H136.554C135.861 206.342 135.267 206.936 135.267 207.63V213.078C135.267 213.771 135.861 214.366 136.554 214.366H136.752C137.445 214.366 138.04 213.771 138.04 213.078V207.63C138.139 206.936 137.544 206.342 136.752 206.342Z" fill="#F0EBE4"/>
<path d="M136.455 206.342H134.277V214.465H136.455V206.342Z" fill="#E6DCD1"/>
<path d="M119.324 206.441V214.267C119.324 214.465 119.522 214.663 119.72 214.663H134.673V206.144H119.522C119.423 206.144 119.324 206.243 119.324 206.441Z" fill="#FAF8F6"/>
<path d="M119.324 214.366C119.324 214.465 119.423 214.564 119.621 214.564H134.673V212.484H119.324V214.366Z" fill="#2CAD6E"/>
<path d="M134.673 211.493H119.324V212.186H134.673V211.493Z" fill="#8ACBC1"/>
<path d="M112.987 194.95H112.095H111.6H110.709C110.61 194.95 110.412 195.049 110.412 195.247L110.214 197.922H111.6H112.095H113.482L113.284 195.247C113.284 195.049 113.086 194.95 112.987 194.95Z" fill="#E83F40"/>
<path d="M113.581 197.724H110.016C109.917 197.724 109.818 197.823 109.818 197.922C109.818 198.021 109.917 198.12 110.016 198.12H113.581C113.68 198.12 113.779 198.021 113.779 197.922C113.878 197.823 113.779 197.724 113.581 197.724Z" fill="#E83F40"/>
<path d="M113.383 198.12H110.214V198.516H113.383V198.12Z" fill="#E0E0E0"/>
<path d="M113.779 198.615H109.917C109.125 198.615 108.431 199.309 108.431 200.101V213.177C108.431 213.97 109.125 214.663 109.917 214.663H113.779C114.571 214.663 115.264 213.97 115.264 213.177V200.101C115.264 199.21 114.571 198.615 113.779 198.615Z" fill="white"/>
<path d="M115.264 204.658H109.818V208.521H115.264V204.658Z" fill="#E83F40"/>
<path d="M115.264 202.776H109.818V203.469H115.264V202.776Z" fill="#00B3BA"/>
<path d="M223.101 122.339C219.932 119.169 214.684 119.169 211.515 122.339L206.564 127.292L272.316 193.068L277.267 188.115C280.436 184.945 280.436 179.695 277.267 176.525L223.101 122.339Z" fill="#00B3BA"/>
<path d="M344.802 177.813H281.921C276.772 177.813 272.514 182.072 272.514 187.223V192.969H354.209V187.223C354.209 182.072 349.951 177.813 344.802 177.813Z" fill="#00B3BA"/>
<path opacity="0.1" d="M297.864 178.11C304.301 178.407 310.638 178.803 317.075 178.506C319.352 178.407 322.125 178.209 325.096 177.813H294.101C295.389 178.011 296.577 178.011 297.864 178.11Z" fill="black"/>
<path d="M411.94 217.932L364.904 185.638C360.646 182.667 354.803 183.756 351.832 188.115L348.565 192.87L411.148 235.763L414.416 231.008C417.287 226.649 416.198 220.805 411.94 217.932Z" fill="#00B3BA"/>
<path opacity="0.1" d="M389.362 212.484C376.885 206.936 365.696 198.516 356.486 188.511C355.496 187.421 355.1 186.332 355.001 185.143C354.704 185.341 354.308 185.539 354.011 185.737C353.615 183.162 352.129 180.884 350.05 179.497C342.029 186.035 330.344 189.304 320.541 189.205C289.447 189.106 279.446 184.053 279.545 183.162C263.701 184.153 230.528 146.213 224.586 139.575C219.932 134.325 213.595 129.769 210.327 123.429L206.564 127.193L272.316 192.969L272.415 192.87V192.969H348.862L411.148 235.664L414.416 230.909C416.297 228.135 416.495 224.668 415.307 221.795C406.296 219.715 397.581 216.149 389.362 212.484Z" fill="black"/>
<path d="M273.009 191.582L207.653 126.202L205.574 128.382L271.821 194.554L348.069 194.257L410.257 236.951L411.94 234.475L349.06 191.285L273.009 191.582Z" fill="white"/>
<path d="M343.019 191.087H262.414C251.917 191.087 243.401 199.606 243.302 210.007L234.093 273.406L238.054 274L247.263 210.403V210.106C247.263 201.785 253.997 194.95 262.414 194.95H343.019C351.337 194.95 358.17 201.686 358.17 210.106L360.844 273.703L364.804 273.505L362.131 210.007C362.032 199.606 353.516 191.087 343.019 191.087Z" fill="white"/>
<path d="M362.23 257.754H237.757V261.717H362.23V257.754Z" fill="white"/>
<path d="M301.825 223.479H296.181V256.665H301.825V223.479Z" fill="#757574"/>
<path d="M302.122 241.211H295.884V251.712H302.122V241.211Z" fill="#757574"/>
<path d="M321.036 263.302L299.053 258.349V264.887L323.611 267.66V266.472C323.611 264.986 322.521 263.599 321.036 263.302Z" fill="#646463"/>
<path d="M320.541 268.155C320.541 269.839 321.927 271.127 323.511 271.127V266.471H320.541V268.155Z" fill="#646463"/>
<path d="M324.7 267.759C323.016 267.759 321.63 269.146 321.63 270.83C321.63 272.514 323.016 273.703 324.7 273.703C326.383 273.703 327.77 272.514 327.77 270.83C327.77 269.146 326.383 267.759 324.7 267.759Z" fill="#646463"/>
<path d="M324.7 268.453C323.413 268.453 322.323 269.542 322.323 270.83C322.323 272.118 323.413 273.703 324.7 273.703C325.987 273.703 327.076 272.118 327.076 270.83C327.076 269.542 325.987 268.453 324.7 268.453Z" fill="#434241"/>
<path d="M274.396 266.472V267.66L298.954 264.887V258.349L276.97 263.302C275.386 263.599 274.396 264.986 274.396 266.472Z" fill="#646463"/>
<path d="M274.396 271.226C276.079 271.226 277.366 269.839 277.366 268.254V266.471H274.396V271.226Z" fill="#646463"/>
<path d="M273.207 267.759C271.524 267.759 270.138 269.146 270.138 270.83C270.138 272.514 271.524 273.703 273.207 273.703C274.891 273.703 276.277 272.514 276.277 270.83C276.376 269.146 274.99 267.759 273.207 267.759Z" fill="#646463"/>
<path d="M273.207 268.453C271.92 268.453 270.831 269.542 270.831 270.83C270.831 272.118 271.92 273.703 273.207 273.703C274.495 273.703 275.584 272.118 275.584 270.83C275.584 269.542 274.495 268.453 273.207 268.453Z" fill="#434241"/>
<path d="M301.132 249.532H296.775C295.785 249.532 294.894 250.325 294.894 251.414V263.401C294.894 264.391 295.686 265.283 296.775 265.283H301.132C302.122 265.283 303.014 264.49 303.014 263.401V251.414C303.014 250.325 302.122 249.532 301.132 249.532Z" fill="#646463"/>
<path d="M301.231 261.419H296.676V269.245H301.231V261.419Z" fill="#777776"/>
<path d="M300.34 267.759H297.468V273.703H300.34V267.759Z" fill="#434241"/>
<path d="M300.34 267.759V273.703C301.132 273.703 301.726 273.208 301.726 272.316V269.245C301.726 268.453 301.132 267.759 300.34 267.759Z" fill="#646463"/>
<path d="M296.082 269.245V272.316C296.082 273.208 296.676 273.703 297.468 273.703V267.759C296.775 267.759 296.082 268.453 296.082 269.245Z" fill="#646463"/>
<path d="M301.528 225.262L300.835 225.956L304.895 230.017H311.332V229.027H305.291L301.528 225.262Z" fill="#8A8A89"/>
<path d="M313.015 228.531H307.073C306.479 228.531 306.083 228.928 306.083 229.522C306.083 230.116 306.479 230.513 307.073 230.513H313.015C313.609 230.513 314.005 230.116 314.005 229.522C314.005 228.928 313.609 228.531 313.015 228.531Z" fill="#4B4B4A"/>
<path d="M317.174 216.248H280.733C279.842 216.248 279.149 216.941 279.149 217.833V225.56C279.149 226.154 279.644 226.649 280.238 226.649H317.669C318.263 226.649 318.758 226.154 318.758 225.56V217.833C318.758 216.941 318.065 216.248 317.174 216.248Z" fill="#4B4B4A"/>
</g>
<defs>
<linearGradient id="paint0_linear" x1="87.6023" y1="150.274" x2="130.73" y2="150.274" gradientUnits="userSpaceOnUse">
<stop stop-color="white"/>
<stop offset="1" stop-color="white"/>
</linearGradient>
<clipPath id="clip0">
<rect width="416" height="274" fill="white"/>
</clipPath>
</defs>
</svg>
