<svg width="568" height="180" viewBox="0 0 568 180" fill="none" xmlns="http://www.w3.org/2000/svg">
<path opacity="0.1" d="M208.319 43.7407C216.793 43.7407 223.713 50.6623 223.713 59.1377C223.713 67.6132 216.793 74.5347 208.319 74.5347C199.845 74.5347 192.924 67.6132 192.924 59.1377C192.924 50.6623 199.845 43.7407 208.319 43.7407Z" fill="black"/>
<path d="M209.731 43.458C217.64 43.458 224.137 49.9558 224.137 57.8662C224.137 65.7766 217.64 72.2744 209.731 72.2744C201.822 72.2744 195.325 65.7766 195.325 57.8662C195.325 49.9558 201.822 43.458 209.731 43.458Z" fill="white"/>
<path d="M209.731 42.3281C218.205 42.3281 225.125 49.2497 225.125 57.7251C225.125 66.2006 218.205 73.1222 209.731 73.1222C201.257 73.1222 194.337 66.2006 194.337 57.7251C194.337 49.2497 201.257 42.3281 209.731 42.3281ZM209.731 71.1446C217.075 71.1446 223.148 65.2118 223.148 57.7251C223.148 50.2385 217.216 44.3057 209.731 44.3057C202.387 44.3057 196.314 50.2385 196.314 57.7251C196.314 65.2118 202.387 71.1446 209.731 71.1446Z" fill="#4B4B4A"/>
<path d="M209.308 45.8594H210.296V49.5321H209.308V45.8594Z" fill="#4B4B4A"/>
<path d="M209.308 66.0591H210.296V69.7318H209.308V66.0591Z" fill="#4B4B4A"/>
<path d="M197.726 57.3013H201.398V58.2901H197.726V57.3013Z" fill="#4B4B4A"/>
<path d="M217.922 57.3013H221.594V58.2901H217.922V57.3013Z" fill="#4B4B4A"/>
<path d="M209.731 56.7363C210.296 56.7363 210.719 57.1601 210.719 57.7251C210.719 58.2902 210.296 58.7139 209.731 58.7139C209.166 58.7139 208.742 58.2902 208.742 57.7251C208.742 57.1601 209.166 56.7363 209.731 56.7363Z" fill="#4B4B4A"/>
<path d="M210.013 57.4424L209.448 58.0075L204.082 48.6845L204.647 48.2607L210.013 57.4424Z" fill="#4B4B4A"/>
<path d="M210.155 57.4429H218.77V58.0079H210.155V57.4429Z" fill="#4B4B4A"/>
<path d="M490.644 66.9062H565.639V168.046H490.644V66.9062Z" fill="#00B3BA"/>
<path d="M490.644 66.9062H565.639V70.5789H490.644V66.9062Z" fill="#66D1D5"/>
<path d="M503.496 45.5767H552.646C560.696 45.5767 567.334 52.0745 567.334 60.2674V188.387H563.944V60.1261C563.944 53.9108 558.86 48.9668 552.646 48.9668H503.496C497.282 48.9668 492.198 54.0521 492.198 60.1261V188.246H488.808V60.1261C488.808 52.0745 495.446 45.5767 503.496 45.5767Z" fill="white"/>
<path d="M490.644 172.284H565.639V174.262H490.644V172.284Z" fill="white"/>
<path d="M434.998 66.9062H490.644V168.046H434.998V66.9062Z" fill="#00B3BA"/>
<path d="M434.998 66.9062H490.644V70.5789H434.998V66.9062Z" fill="#66D1D5"/>
<path d="M447.85 45.5767H477.651C485.701 45.5767 492.339 52.0745 492.339 60.2674V188.387H488.949V60.1261C488.949 53.9108 483.865 48.9668 477.651 48.9668H447.85C441.636 48.9668 436.552 54.0521 436.552 60.1261V188.246H433.162V60.1261C433.162 52.0745 439.8 45.5767 447.85 45.5767Z" fill="white"/>
<path d="M434.998 172.284H490.644V174.262H434.998V172.284Z" fill="white"/>
<path d="M553.21 117.476C553.352 111.12 553.352 104.905 553.493 98.9717C553.634 93.0389 553.634 87.5299 553.775 82.7272C553.917 73.263 554.058 66.9064 554.058 66.9064C554.058 66.7651 554.058 66.7651 554.199 66.7651C554.34 66.7651 554.34 66.7651 554.34 66.9064C554.34 66.9064 554.482 73.263 554.623 82.7272C554.764 87.5299 554.905 93.0389 554.905 98.9717C555.047 104.905 555.047 111.261 555.188 117.476C555.188 120.584 555.329 123.833 555.329 126.941C555.47 130.048 555.47 133.156 555.47 136.122C555.47 139.089 555.47 141.914 555.329 144.598C555.329 146.01 555.329 147.282 555.188 148.553C555.188 149.824 555.047 151.096 555.047 152.226C554.905 154.627 554.905 156.746 554.764 158.723C554.623 160.701 554.623 162.396 554.482 163.667C554.34 166.493 554.199 168.046 554.199 168.046C554.199 168.046 554.199 168.188 554.058 168.188C553.917 168.188 553.917 168.188 553.917 168.046C553.917 168.046 553.775 166.493 553.634 163.667C553.493 162.255 553.493 160.56 553.352 158.723C553.21 156.746 553.21 154.627 553.069 152.226C553.069 151.096 552.928 149.824 552.928 148.553C552.928 147.282 552.928 146.01 552.787 144.598C552.646 141.914 552.646 139.089 552.646 136.122C552.646 133.156 552.646 130.048 552.787 126.941C553.069 123.833 553.069 120.725 553.21 117.476Z" fill="#26BEC4"/>
<path d="M540.358 117.476C540.499 111.12 540.499 104.905 540.641 98.9717C540.782 93.0389 540.782 87.5299 540.923 82.7272C541.064 73.263 541.206 66.9064 541.206 66.9064C541.206 66.7651 541.206 66.7651 541.347 66.7651C541.488 66.7651 541.488 66.7651 541.488 66.9064C541.488 66.9064 541.629 73.263 541.771 82.7272C541.912 87.5299 542.053 93.0389 542.053 98.9717C542.194 104.905 542.194 111.261 542.335 117.476C542.335 120.584 542.477 123.833 542.477 126.941C542.618 130.048 542.618 133.156 542.618 136.122C542.618 139.089 542.618 141.914 542.477 144.598C542.477 146.01 542.477 147.282 542.335 148.553C542.335 149.824 542.194 151.096 542.194 152.226C542.053 154.627 542.053 156.746 541.912 158.723C541.771 160.701 541.771 162.396 541.629 163.667C541.488 166.493 541.347 168.046 541.347 168.046C541.347 168.046 541.347 168.188 541.206 168.188C541.064 168.188 541.064 168.188 541.064 168.046C541.064 168.046 540.923 166.493 540.782 163.667C540.641 162.255 540.641 160.56 540.499 158.723C540.358 156.746 540.358 154.627 540.217 152.226C540.217 151.096 540.076 149.824 540.076 148.553C540.076 147.282 540.076 146.01 539.934 144.598C539.793 141.914 539.793 139.089 539.793 136.122C539.793 133.156 539.793 130.048 539.934 126.941C540.217 123.833 540.217 120.725 540.358 117.476Z" fill="#26BEC4"/>
<path d="M527.506 117.476C527.647 111.12 527.647 104.905 527.789 98.9717C527.93 93.0389 527.93 87.5299 528.071 82.7272C528.212 73.263 528.354 66.9064 528.354 66.9064C528.354 66.7651 528.354 66.7651 528.495 66.7651C528.636 66.7651 528.636 66.7651 528.636 66.9064C528.636 66.9064 528.777 73.263 528.918 82.7272C529.06 87.5299 529.201 93.0389 529.201 98.9717C529.342 104.905 529.342 111.261 529.483 117.476C529.483 120.584 529.625 123.833 529.625 126.941C529.766 130.048 529.766 133.156 529.766 136.122C529.766 139.089 529.766 141.914 529.625 144.598C529.625 146.01 529.625 147.282 529.483 148.553C529.483 149.824 529.342 151.096 529.342 152.226C529.201 154.627 529.201 156.746 529.06 158.723C528.918 160.701 528.918 162.396 528.777 163.667C528.636 166.493 528.495 168.046 528.495 168.046C528.495 168.046 528.495 168.188 528.354 168.188C528.212 168.188 528.212 168.188 528.212 168.046C528.212 168.046 528.071 166.493 527.93 163.667C527.789 162.255 527.789 160.56 527.647 158.723C527.506 156.746 527.506 154.627 527.365 152.226C527.365 151.096 527.224 149.824 527.224 148.553C527.224 147.282 527.224 146.01 527.082 144.598C526.941 141.914 526.941 139.089 526.941 136.122C526.941 133.156 526.941 130.048 527.082 126.941C527.365 123.833 527.365 120.725 527.506 117.476Z" fill="#26BEC4"/>
<path d="M514.513 117.476C514.654 111.12 514.654 104.905 514.795 98.9717C514.936 93.0389 514.936 87.5299 515.078 82.7272C515.219 73.263 515.36 66.9064 515.36 66.9064C515.36 66.7651 515.36 66.7651 515.501 66.7651C515.643 66.7651 515.643 66.7651 515.643 66.9064C515.643 66.9064 515.784 73.263 515.925 82.7272C516.066 87.5299 516.208 93.0389 516.208 98.9717C516.349 104.905 516.349 111.261 516.49 117.476C516.49 120.584 516.631 123.833 516.631 126.941C516.772 130.048 516.772 133.156 516.772 136.122C516.772 139.089 516.772 141.914 516.631 144.598C516.631 146.01 516.631 147.282 516.49 148.553C516.49 149.824 516.349 151.096 516.349 152.226C516.208 154.627 516.208 156.746 516.066 158.723C515.925 160.701 515.925 162.396 515.784 163.667C515.643 166.493 515.501 168.046 515.501 168.046C515.501 168.046 515.501 168.188 515.36 168.188C515.219 168.188 515.219 168.188 515.219 168.046C515.219 168.046 515.078 166.493 514.936 163.667C514.795 162.255 514.795 160.56 514.654 158.723C514.513 156.746 514.513 154.627 514.371 152.226C514.371 151.096 514.23 149.824 514.23 148.553C514.23 147.282 514.23 146.01 514.089 144.598C513.948 141.914 513.948 139.089 513.948 136.122C513.948 133.156 513.948 130.048 514.089 126.941C514.513 123.833 514.513 120.725 514.513 117.476Z" fill="#26BEC4"/>
<path d="M501.66 117.476C501.801 111.12 501.801 104.905 501.943 98.9717C502.084 93.0389 502.084 87.5299 502.225 82.7272C502.366 73.263 502.508 66.9064 502.508 66.9064C502.508 66.7651 502.508 66.7651 502.649 66.7651C502.79 66.7651 502.79 66.7651 502.79 66.9064C502.79 66.9064 502.931 73.263 503.073 82.7272C503.214 87.5299 503.355 93.0389 503.355 98.9717C503.496 104.905 503.496 111.261 503.637 117.476C503.637 120.584 503.779 123.833 503.779 126.941C503.92 130.048 503.92 133.156 503.92 136.122C503.92 139.089 503.92 141.914 503.779 144.598C503.779 146.01 503.779 147.282 503.637 148.553C503.637 149.824 503.496 151.096 503.496 152.226C503.355 154.627 503.355 156.746 503.214 158.723C503.073 160.701 503.073 162.396 502.931 163.667C502.79 166.493 502.649 168.046 502.649 168.046C502.649 168.046 502.649 168.188 502.508 168.188C502.366 168.188 502.366 168.188 502.366 168.046C502.366 168.046 502.225 166.493 502.084 163.667C501.943 162.255 501.943 160.56 501.801 158.723C501.66 156.746 501.66 154.627 501.519 152.226C501.519 151.096 501.378 149.824 501.378 148.553C501.378 147.282 501.378 146.01 501.236 144.598C501.095 141.914 501.095 139.089 501.095 136.122C501.095 133.156 501.095 130.048 501.236 126.941C501.66 123.833 501.66 120.725 501.66 117.476Z" fill="#26BEC4"/>
<path d="M481.323 117.476C481.464 111.12 481.464 104.905 481.605 98.9717C481.747 93.0389 481.747 87.5299 481.888 82.7272C482.029 73.263 482.17 66.9064 482.17 66.9064C482.17 66.7651 482.17 66.7651 482.311 66.7651C482.453 66.7651 482.453 66.7651 482.453 66.9064C482.453 66.9064 482.594 73.263 482.735 82.7272C482.876 87.5299 483.018 93.0389 483.018 98.9717C483.159 104.905 483.159 111.261 483.3 117.476C483.3 120.584 483.441 123.833 483.441 126.941C483.583 130.048 483.583 133.156 483.583 136.122C483.583 139.089 483.583 141.914 483.441 144.598C483.441 146.01 483.441 147.282 483.3 148.553C483.3 149.824 483.159 151.096 483.159 152.226C483.018 154.627 483.018 156.746 482.876 158.723C482.735 160.701 482.735 162.396 482.594 163.667C482.453 166.493 482.311 168.046 482.311 168.046C482.311 168.046 482.311 168.188 482.17 168.188C482.029 168.188 482.029 168.188 482.029 168.046C482.029 168.046 481.888 166.493 481.747 163.667C481.605 162.255 481.605 160.56 481.464 158.723C481.323 156.746 481.323 154.627 481.182 152.226C481.182 151.096 481.04 149.824 481.04 148.553C481.04 147.282 481.04 146.01 480.899 144.598C480.758 141.914 480.758 139.089 480.758 136.122C480.758 133.156 480.758 130.048 480.899 126.941C481.182 123.833 481.182 120.725 481.323 117.476Z" fill="#26BEC4"/>
<path d="M471.295 117.476C471.436 111.12 471.436 104.905 471.577 98.9717C471.719 93.0389 471.719 87.5299 471.86 82.7272C472.001 73.263 472.142 66.9064 472.142 66.9064C472.142 66.7651 472.142 66.7651 472.284 66.7651C472.425 66.7651 472.425 66.7651 472.425 66.9064C472.425 66.9064 472.566 73.263 472.707 82.7272C472.849 87.5299 472.99 93.0389 472.99 98.9717C473.131 104.905 473.131 111.261 473.272 117.476C473.272 120.584 473.413 123.833 473.413 126.941C473.555 130.048 473.555 133.156 473.555 136.122C473.555 139.089 473.555 141.914 473.413 144.598C473.413 146.01 473.413 147.282 473.272 148.553C473.272 149.824 473.131 151.096 473.131 152.226C472.99 154.627 472.99 156.746 472.849 158.723C472.707 160.701 472.707 162.396 472.566 163.667C472.425 166.493 472.284 168.046 472.284 168.046C472.284 168.046 472.284 168.188 472.142 168.188C472.001 168.188 472.001 168.188 472.001 168.046C472.001 168.046 471.86 166.493 471.719 163.667C471.577 162.255 471.577 160.56 471.436 158.723C471.295 156.746 471.295 154.627 471.154 152.226C471.154 151.096 471.013 149.824 471.013 148.553C471.013 147.282 471.013 146.01 470.871 144.598C470.73 141.914 470.73 139.089 470.73 136.122C470.73 133.156 470.73 130.048 470.871 126.941C471.154 123.833 471.154 120.725 471.295 117.476Z" fill="#26BEC4"/>
<path d="M461.267 117.476C461.409 111.12 461.409 104.905 461.55 98.9717C461.691 93.0389 461.691 87.5299 461.832 82.7272C461.974 73.263 462.115 66.9064 462.115 66.9064C462.115 66.7651 462.115 66.7651 462.256 66.7651C462.397 66.7651 462.397 66.7651 462.397 66.9064C462.397 66.9064 462.538 73.263 462.68 82.7272C462.821 87.5299 462.962 93.0389 462.962 98.9717C463.103 104.905 463.103 111.261 463.245 117.476C463.245 120.584 463.386 123.833 463.386 126.941C463.527 130.048 463.527 133.156 463.527 136.122C463.527 139.089 463.527 141.914 463.386 144.598C463.386 146.01 463.386 147.282 463.245 148.553C463.245 149.824 463.103 151.096 463.103 152.226C462.962 154.627 462.962 156.746 462.821 158.723C462.68 160.701 462.68 162.396 462.538 163.667C462.397 166.493 462.256 168.046 462.256 168.046C462.256 168.046 462.256 168.188 462.115 168.188C461.974 168.188 461.974 168.188 461.974 168.046C461.974 168.046 461.832 166.493 461.691 163.667C461.55 162.255 461.55 160.56 461.409 158.723C461.267 156.746 461.267 154.627 461.126 152.226C461.126 151.096 460.985 149.824 460.985 148.553C460.985 147.282 460.985 146.01 460.844 144.598C460.702 141.914 460.702 139.089 460.702 136.122C460.702 133.156 460.702 130.048 460.844 126.941C461.126 123.833 461.126 120.725 461.267 117.476Z" fill="#26BEC4"/>
<path d="M451.24 117.476C451.382 111.12 451.382 104.905 451.523 98.9717C451.664 93.0389 451.664 87.5299 451.805 82.7272C451.946 73.263 452.088 66.9064 452.088 66.9064C452.088 66.7651 452.088 66.7651 452.229 66.7651C452.37 66.7651 452.37 66.7651 452.37 66.9064C452.37 66.9064 452.511 73.263 452.653 82.7272C452.794 87.5299 452.935 93.0389 452.935 98.9717C453.076 104.905 453.076 111.261 453.218 117.476C453.218 120.584 453.359 123.833 453.359 126.941C453.5 130.048 453.5 133.156 453.5 136.122C453.5 139.089 453.5 141.914 453.359 144.598C453.359 146.01 453.359 147.282 453.218 148.553C453.218 149.824 453.076 151.096 453.076 152.226C452.935 154.627 452.935 156.746 452.794 158.723C452.653 160.701 452.653 162.396 452.511 163.667C452.37 166.493 452.229 168.046 452.229 168.046C452.229 168.046 452.229 168.188 452.088 168.188C451.946 168.188 451.946 168.188 451.946 168.046C451.946 168.046 451.805 166.493 451.664 163.667C451.523 162.255 451.523 160.56 451.382 158.723C451.24 156.746 451.24 154.627 451.099 152.226C451.099 151.096 450.958 149.824 450.958 148.553C450.958 147.282 450.958 146.01 450.817 144.598C450.675 141.914 450.675 139.089 450.675 136.122C450.675 133.156 450.675 130.048 450.817 126.941C451.099 123.833 451.099 120.725 451.24 117.476Z" fill="#26BEC4"/>
<path d="M441.213 117.476C441.354 111.12 441.354 104.905 441.495 98.9717C441.636 93.0389 441.636 87.5299 441.778 82.7272C441.919 73.263 442.06 66.9064 442.06 66.9064C442.06 66.7651 442.06 66.7651 442.201 66.7651C442.343 66.7651 442.343 66.7651 442.343 66.9064C442.343 66.9064 442.484 73.263 442.625 82.7272C442.766 87.5299 442.907 93.0389 442.907 98.9717C443.049 104.905 443.049 111.261 443.19 117.476C443.19 120.584 443.331 123.833 443.331 126.941C443.472 130.048 443.472 133.156 443.472 136.122C443.472 139.089 443.472 141.914 443.331 144.598C443.331 146.01 443.331 147.282 443.19 148.553C443.19 149.824 443.049 151.096 443.049 152.226C442.907 154.627 442.907 156.746 442.766 158.723C442.625 160.701 442.625 162.396 442.484 163.667C442.343 166.493 442.201 168.046 442.201 168.046C442.201 168.046 442.201 168.188 442.06 168.188C441.919 168.188 441.919 168.188 441.919 168.046C441.919 168.046 441.778 166.493 441.636 163.667C441.495 162.255 441.495 160.56 441.354 158.723C441.213 156.746 441.213 154.627 441.071 152.226C441.071 151.096 440.93 149.824 440.93 148.553C440.93 147.282 440.93 146.01 440.789 144.598C440.648 141.914 440.648 139.089 440.648 136.122C440.648 133.156 440.648 130.048 440.789 126.941C441.071 123.833 441.213 120.725 441.213 117.476Z" fill="#26BEC4"/>
<path d="M469.459 120.302H515.078V125.387H469.459V120.302Z" fill="white"/>
<path d="M469.459 118.324H515.078V120.302H469.459V118.324Z" fill="#CFF1F2"/>
<path d="M469.459 147.706H515.078V149.683H469.459V147.706Z" fill="#CFF1F2"/>
<path d="M469.459 149.259H515.078V154.345H469.459V149.259Z" fill="white"/>
<path d="M515.077 111.402C515.784 111.402 516.49 111.967 516.49 112.815V182.878C516.49 183.585 515.925 184.291 515.077 184.291C514.371 184.291 513.665 183.726 513.665 182.878V112.674C513.665 111.967 514.371 111.402 515.077 111.402Z" fill="white"/>
<path d="M469.459 111.402C470.165 111.402 470.871 111.967 470.871 112.815V182.878C470.871 183.585 470.306 184.291 469.459 184.291C468.753 184.291 468.046 183.726 468.046 182.878V112.674C468.188 111.967 468.753 111.402 469.459 111.402Z" fill="white"/>
<path d="M476.38 91.0615H507.592V114.369H476.38V91.0615Z" fill="#3F3F3E"/>
<path opacity="0.1" d="M507.027 114.51L477.368 92.1914H507.027V114.51Z" fill="url(#paint0_linear)"/>
<path d="M476.38 90.0728H507.592C508.157 90.0728 508.581 90.4965 508.581 91.0615V114.369C508.581 114.934 508.157 115.358 507.592 115.358H476.38C475.815 115.358 475.391 114.934 475.391 114.369V91.0615C475.391 90.4965 475.815 90.0728 476.38 90.0728ZM477.368 113.38H506.462V92.0503H477.368V113.38Z" fill="#7E7E7D"/>
<path d="M511.264 115.923C511.264 117.194 510.276 118.324 508.863 118.324H474.826C473.555 118.324 472.425 117.335 472.425 115.923V114.51H511.264V115.923Z" fill="#7E7E7D"/>
<path d="M516.772 183.02C516.772 184.432 515.642 185.562 514.23 185.562H513.383V179.488H516.913V183.02H516.772Z" fill="#F2F2F2"/>
<path d="M471.295 183.02C471.295 184.432 470.165 185.562 468.753 185.562H467.905V179.488H471.436V183.02H471.295Z" fill="#F2F2F2"/>
<path d="M509.146 147.706H495.164L494.175 145.163H510.135L509.146 147.706Z" fill="#ACACAB"/>
<path d="M493.893 144.598H510.417C510.699 144.598 510.841 144.881 510.841 145.022V145.163C510.841 145.446 510.558 145.587 510.417 145.587H493.893C493.61 145.587 493.469 145.304 493.469 145.163V145.022C493.469 144.739 493.61 144.598 493.893 144.598Z" fill="#ACACAB"/>
<path d="M480.758 132.309H486.548V147.564H480.758V132.309Z" fill="#E6E7E8"/>
<path d="M481.464 134.004H485.842V139.937H481.464V134.004Z" fill="#99E1E3"/>
<path d="M483.159 135.416H484.147V136.405H485.136V137.535H484.147V138.524H483.159V137.535H482.17V136.405H483.159V135.416Z" fill="white"/>
<path d="M473.131 141.914C473.837 141.914 474.12 142.338 474.12 142.762V146.576C474.12 147.141 473.696 147.423 473.272 147.423H473.131C472.566 147.423 472.284 146.999 472.284 146.576V142.762C472.284 142.338 472.707 141.914 473.131 141.914Z" fill="#F0EBE4"/>
<path d="M473.273 141.914H474.826V147.564H473.273V141.914Z" fill="#E6DCD1"/>
<path d="M485.136 141.914V147.282C485.136 147.423 484.995 147.564 484.853 147.564H474.543V141.773H484.995C485.136 141.773 485.136 141.914 485.136 141.914Z" fill="#FAF8F6"/>
<path d="M485.136 147.423C485.136 147.564 484.995 147.564 484.995 147.564H474.543V146.152H485.136V147.423Z" fill="#2CAD6E"/>
<path d="M474.543 145.446H485.136V145.87H474.543V145.446Z" fill="#8ACBC1"/>
<path d="M489.514 134.004H490.079H490.503H491.068C491.209 134.004 491.209 134.145 491.209 134.145L491.35 135.982H490.361H489.938H488.949L489.09 134.145C489.373 134.145 489.373 134.004 489.514 134.004Z" fill="#E83E40"/>
<path d="M489.09 135.981H491.632C491.773 135.981 491.773 135.981 491.773 136.123C491.773 136.264 491.773 136.264 491.632 136.264H489.09C488.949 136.264 488.949 136.264 488.949 136.123C488.949 135.981 488.949 135.981 489.09 135.981Z" fill="#E83E40"/>
<path d="M489.373 136.264H491.491V136.547H489.373V136.264Z" fill="#E0E0E0"/>
<path d="M488.949 136.546H491.632C492.197 136.546 492.621 136.97 492.621 137.535V146.434C492.621 146.999 492.197 147.423 491.632 147.423H488.949C488.384 147.423 487.96 146.999 487.96 146.434V137.535C487.96 136.97 488.384 136.546 488.949 136.546Z" fill="white"/>
<path d="M488.101 140.784H491.773V143.468H488.101V140.784Z" fill="#E83E40"/>
<path d="M488.101 139.372H491.773V139.795H488.101V139.372Z" fill="#00B3BA"/>
<path d="M517.761 19.0209C517.761 21.4223 515.784 23.5411 513.242 23.5411H513.1V14.6419H513.242C515.784 14.5007 517.761 16.6195 517.761 19.0209Z" fill="#7B7A7A"/>
<path d="M448.133 14.5005L448.274 23.3997H448.133C445.732 23.3997 443.613 21.4221 443.613 18.8795C443.755 16.6193 445.732 14.5005 448.133 14.5005Z" fill="#7B7A7A"/>
<path d="M448.133 14.5005H513.524V18.8794H448.133V14.5005Z" fill="#7B7A7A"/>
<path d="M450.111 19.7271H511.265C512.253 19.7271 513.101 20.5746 513.101 21.5634C513.101 22.5522 512.253 23.3997 511.265 23.3997H450.111C449.122 23.3997 448.275 22.5522 448.275 21.5634C448.275 20.5746 449.122 19.7271 450.111 19.7271Z" fill="white"/>
<path d="M509.57 0.0922852H510.135V14.6418H509.57V0.0922852Z" fill="#7B7A7A"/>
<path d="M451.381 0.0922852H451.946V14.6418H451.381V0.0922852Z" fill="#7B7A7A"/>
<mask id="mask0" mask-type="alpha" maskUnits="userSpaceOnUse" x="407" y="23" width="148" height="111">
<path d="M513.948 23.6821L554.199 133.863H407.599L447.427 23.6821H513.948Z" fill="url(#paint1_linear)"/>
</mask>
<g mask="url(#mask0)">
<mask id="mask1" mask-type="alpha" maskUnits="userSpaceOnUse" x="407" y="23" width="148" height="111">
<path d="M513.948 23.6821L554.199 133.863H407.599L447.427 23.6821H513.948Z" fill="url(#paint2_linear)"/>
</mask>
<g mask="url(#mask1)">
<path opacity="0.3" d="M513.948 23.6821L554.199 133.863H407.599L447.427 23.6821H513.948Z" fill="url(#paint3_linear)"/>
</g>
</g>
<g opacity="0.08">
<path opacity="0.08" d="M289.669 32.8638H291.223V34.8414H289.669V98.2658H291.223V100.243H235.577V98.2658H237.131V34.8414H235.577V32.8638H237.131H289.669Z" fill="black"/>
<path opacity="0.08" d="M115.105 44.3057H154.65V71.992H115.105V44.3057Z" fill="black"/>
</g>
<path d="M238.542 31.4512H290.94V97.842H238.542V31.4512Z" fill="white"/>
<path d="M236.848 31.4512H292.494V33.4288H236.848V31.4512Z" fill="#E83E40"/>
<path d="M236.848 96.9946H292.494V98.9722H236.848V96.9946Z" fill="#E83E40"/>
<path d="M248.287 37.6665C250.265 37.6665 251.959 39.2203 251.959 41.3392C251.959 43.3168 250.406 45.0119 248.287 45.0119C246.31 45.0119 244.615 43.458 244.615 41.3392C244.615 39.2203 246.31 37.6665 248.287 37.6665Z" fill="#BFECEE"/>
<path d="M248.287 49.1084C250.265 49.1084 251.959 50.6622 251.959 52.7811C251.959 54.7587 250.406 56.4538 248.287 56.4538C246.31 56.4538 244.615 54.8999 244.615 52.7811C244.615 50.8035 246.31 49.1084 248.287 49.1084Z" fill="#BFECEE"/>
<path d="M248.287 60.5503C250.265 60.5503 251.959 62.1041 251.959 64.223C251.959 66.2006 250.406 67.8957 248.287 67.8957C246.31 67.8957 244.615 66.3418 244.615 64.223C244.615 62.2454 246.31 60.5503 248.287 60.5503Z" fill="#BFECEE"/>
<path d="M248.287 72.1333C250.265 72.1333 251.959 73.6871 251.959 75.806C251.959 77.9249 250.406 79.4787 248.287 79.4787C246.31 79.4787 244.615 77.9249 244.615 75.806C244.615 73.6871 246.31 72.1333 248.287 72.1333Z" fill="#BFECEE"/>
<path d="M257.468 37.6665H286.421V92.0504H257.468V37.6665Z" fill="#BFECEE"/>
<path d="M262.693 64.0816C262.693 63.9403 263.541 59.7026 263.823 58.7138C264.106 57.725 264.529 57.0187 264.671 56.595C264.953 56.1712 265.236 54.7586 265.236 54.4761C265.236 54.3349 265.518 53.4873 265.518 52.6398C265.518 51.9335 266.083 50.6622 266.507 50.0971C267.072 49.5321 268.201 49.5321 268.201 49.5321C268.484 49.5321 270.179 48.2608 270.179 48.2608V47.5545C270.037 47.5545 269.755 47.5545 269.473 47.5545C268.908 47.5545 269.049 46.8482 269.19 46.8482L268.908 46.5657C268.908 46.5657 268.908 46.5657 268.908 46.4245L269.049 46.2832L268.766 46.1419C268.766 46.1419 268.766 46.1419 268.766 46.0007L268.908 45.7182H268.625C268.343 45.5769 268.484 45.4357 268.484 45.4357C268.484 45.4357 269.19 44.4469 269.19 44.3056C269.049 44.1644 269.049 44.0231 269.049 44.0231C269.049 43.8818 269.473 42.7518 269.473 42.7518C269.614 42.328 270.602 41.4805 272.297 41.4805C273.992 41.4805 274.416 43.1755 274.416 43.8818C274.416 44.7294 273.286 46.9895 273.286 46.9895L273.427 48.1195C273.427 48.1195 275.122 49.3909 275.404 49.3909C275.404 49.3909 276.534 49.3909 277.099 49.9559C277.664 50.5209 278.088 51.651 278.088 52.4985C278.088 53.2048 278.37 54.0523 278.37 54.3349C278.37 54.4761 278.794 56.0299 278.935 56.4537C279.218 56.8775 279.5 57.5838 279.783 58.5726C280.065 59.5614 280.771 63.7991 280.912 63.9403C280.912 63.9403 281.477 64.0816 282.042 64.6466C282.466 65.2116 283.313 66.3417 283.313 66.3417C283.313 66.3417 282.89 66.7655 282.466 66.0592L281.901 65.6354L282.042 65.9179L282.89 68.0368C282.89 68.178 282.89 68.178 282.749 68.3193C282.607 68.3193 282.607 68.3193 282.466 68.178L281.619 66.483C281.619 66.483 281.477 66.483 281.477 66.6242L281.901 68.6018C281.901 68.7431 281.901 68.7431 281.76 68.8843C281.619 68.8843 281.619 68.8843 281.477 68.7431L280.912 66.7655H280.771L281.054 68.4606C281.054 68.6018 281.054 68.6018 280.912 68.7431C280.771 68.7431 280.771 68.7431 280.63 68.6018L280.206 66.7655H280.065L280.206 68.178C280.206 68.3193 280.206 68.3193 280.065 68.3193C279.924 68.3193 279.924 68.3193 279.924 68.178L279.641 66.3417L279.359 65.3529C279.359 65.3529 279.218 64.9291 279.359 64.3641C279.359 64.3641 277.24 59.5614 277.099 58.9963C277.099 58.8551 276.817 57.725 276.817 57.5838C276.817 57.3013 276.111 55.6062 275.828 55.3237C275.828 55.3237 275.263 58.8551 275.404 59.4201C275.687 59.9851 275.687 61.2565 275.687 61.6802C275.687 62.104 276.393 65.2116 276.252 66.3417C276.252 66.3417 276.534 67.8955 276.252 70.5794C276.111 71.992 275.969 73.122 275.969 73.4046C275.969 73.6871 275.969 74.9584 275.969 75.3822C275.828 76.0884 276.111 77.7835 275.969 78.6311C275.828 79.4786 274.981 84.2813 275.122 84.5639C275.122 84.7051 275.263 85.1289 275.122 85.2701C275.122 85.2701 275.263 86.5415 275.404 86.5415L275.969 87.2477C276.111 87.6715 275.546 87.6715 275.546 87.6715H273.71C273.71 87.6715 273.286 87.5303 273.286 86.9652C273.286 86.824 273.71 85.6939 273.71 85.1289C273.71 84.9876 273.427 84.5639 273.568 84.1401C273.71 83.8576 273.568 81.4562 273.568 81.1737C273.568 80.8912 272.862 78.4898 273.286 76.7947C273.286 76.7947 273.286 75.9472 273.145 75.5234C273.003 75.0996 272.156 69.0256 272.156 68.178C272.156 67.3305 272.156 66.2005 272.156 66.2005C272.156 66.2005 272.015 66.3417 271.732 66.3417C271.45 66.3417 271.309 66.2005 271.309 66.2005C271.309 66.2005 271.309 67.1892 271.309 68.178C271.309 69.0256 270.461 75.0996 270.32 75.5234C270.179 75.9472 270.179 76.7947 270.179 76.7947C270.744 78.6311 270.038 80.8912 269.896 81.1737C269.896 81.4562 269.755 83.8576 269.896 84.1401C270.038 84.5639 269.755 84.9876 269.755 85.1289C269.755 85.5527 270.179 86.6827 270.179 86.9652C270.179 87.5303 269.755 87.6715 269.755 87.6715H267.919C267.919 87.6715 267.354 87.6715 267.495 87.2477L268.06 86.5415C268.201 86.4002 268.343 85.2701 268.343 85.2701C268.201 85.1289 268.343 84.7051 268.343 84.5639C268.343 84.4226 267.495 79.6199 267.495 78.6311C267.354 77.7835 267.637 76.0884 267.495 75.3822C267.495 75.0996 267.495 73.6871 267.495 73.4046C267.495 73.122 267.354 71.992 267.213 70.5794C266.93 67.7543 267.213 66.3417 267.213 66.3417C267.072 65.2116 267.778 62.104 267.778 61.6802C267.778 61.2565 267.778 59.9851 268.06 59.4201C268.343 58.8551 267.637 55.3237 267.637 55.3237C267.354 55.6062 266.648 57.3013 266.648 57.5838C266.648 57.725 266.365 58.8551 266.365 58.9963C266.224 59.5614 264.106 64.3641 264.106 64.3641C264.247 64.9291 264.106 65.3529 264.106 65.3529L263.823 66.3417L263.541 68.178C263.541 68.3193 263.4 68.3193 263.4 68.3193C263.258 68.3193 263.258 68.178 263.258 68.178L263.4 66.7655H263.258L262.835 68.6018C262.835 68.7431 262.693 68.7431 262.552 68.7431C262.411 68.7431 262.411 68.6018 262.411 68.4606L262.693 66.7655H262.552L261.987 68.7431C261.987 68.8843 261.846 68.8843 261.705 68.8843C261.563 68.8843 261.564 68.7431 261.564 68.6018L261.987 66.6242C261.987 66.6242 261.846 66.6242 261.846 66.483L260.999 68.178C260.999 68.3193 260.857 68.3193 260.716 68.3193C260.575 68.3193 260.575 68.178 260.575 68.0368L261.422 65.9179L261.564 65.6354C261.422 65.6354 260.999 66.0592 260.999 66.0592C260.434 66.7655 260.151 66.3417 260.151 66.3417C260.151 66.3417 260.999 65.2116 261.422 64.6466C262.128 64.2228 262.693 64.0816 262.693 64.0816Z" fill="#00B3BA"/>
<path d="M270.461 50.0974C270.744 49.9561 271.026 49.9561 271.167 50.2386C271.309 50.8037 271.45 51.6512 271.45 52.4987C271.732 52.2162 271.732 51.9337 271.732 51.9337V48.6848V47.9785H272.297V48.5435V51.7925C272.297 51.7925 272.297 51.9337 272.58 52.3575C272.58 51.5099 272.721 50.6624 272.862 50.0974C272.862 49.8149 273.286 49.6736 273.568 49.9561C273.992 50.2386 274.557 50.8037 274.981 51.9337C275.122 52.2162 275.263 52.64 275.263 53.0638C275.404 53.7701 275.404 54.6176 275.404 55.7477C275.263 58.0078 272.721 55.4651 272.58 54.4763C272.58 54.1938 272.58 53.7701 272.58 53.3463C272.438 53.0638 272.297 52.9225 272.156 52.64C272.015 52.7813 271.873 53.0638 271.732 53.3463C271.732 53.7701 271.732 54.1938 271.732 54.4763C271.591 55.4651 269.049 58.149 268.908 55.7477C268.908 55.3239 268.908 54.9001 268.908 54.4763C269.049 52.7813 269.331 51.7925 269.755 51.0862C269.755 50.5211 270.179 50.2386 270.461 50.0974Z" fill="white"/>
<path d="M272.156 47.9782H271.591C271.591 46.7069 270.744 46.0006 269.049 46.0006L268.908 45.8594C272.439 45.8594 272.156 47.9782 272.156 47.9782Z" fill="white"/>
<path d="M272.156 47.9781H271.591C271.591 47.9781 271.591 46.7068 269.049 46.5656L269.19 46.4243C269.19 46.5656 271.45 46.2831 272.156 47.9781Z" fill="white"/>
<path d="M268.908 45.8594L269.049 46.0006H268.766C268.766 45.8594 268.908 45.8594 268.908 45.8594Z" fill="white"/>
<path d="M271.874 42.8931C272.156 42.8931 272.438 43.1756 272.438 43.4581C272.438 43.7406 272.156 44.0231 271.874 44.0231C271.591 44.0231 271.309 43.7406 271.309 43.4581C271.309 43.1756 271.591 42.8931 271.874 42.8931Z" fill="#E83E40"/>
<path d="M271.874 47.8369C272.156 47.8369 272.438 48.1194 272.438 48.4019C272.438 48.6845 272.156 48.967 271.874 48.967C271.591 48.967 271.309 48.6845 271.309 48.4019C271.309 47.9782 271.591 47.8369 271.874 47.8369Z" fill="#E83E40"/>
<path d="M271.874 52.3574C272.156 52.3574 272.438 52.6399 272.438 52.9225C272.438 53.205 272.156 53.4875 271.874 53.4875C271.591 53.4875 271.309 53.205 271.309 52.9225C271.309 52.4987 271.591 52.3574 271.874 52.3574Z" fill="#E83E40"/>
<path d="M271.874 58.5728C272.156 58.5728 272.438 58.8553 272.438 59.1378C272.438 59.4203 272.156 59.7028 271.874 59.7028C271.591 59.7028 271.309 59.4203 271.309 59.1378C271.309 58.8553 271.591 58.5728 271.874 58.5728Z" fill="#E83E40"/>
<path d="M273.427 60.8325C273.709 60.8325 273.992 61.115 273.992 61.3975C273.992 61.6801 273.709 61.9626 273.427 61.9626C273.145 61.9626 272.862 61.6801 272.862 61.3975C272.862 61.115 273.145 60.8325 273.427 60.8325Z" fill="#E83E40"/>
<path d="M270.32 60.6914C270.603 60.6914 270.885 60.9739 270.885 61.2564C270.885 61.539 270.603 61.8215 270.32 61.8215C270.038 61.8215 269.755 61.539 269.755 61.2564C269.755 60.9739 270.038 60.6914 270.32 60.6914Z" fill="#E83E40"/>
<path d="M241.932 83.5752H254.643V92.0506H241.932V83.5752Z" fill="#00B3BA"/>
<path d="M117.506 43.8818H154.932V69.4494H117.506V43.8818Z" fill="white"/>
<path d="M155.921 70.5794H116.376V42.8931H155.921V70.5794ZM153.944 45.0119H118.495V68.6018H153.944V45.0119Z" fill="#E83E40"/>
<path d="M122.308 49.5322H150.272V51.2273H122.308V49.5322Z" fill="#DFEBF1"/>
<path d="M122.308 53.3462H150.272V55.0413H122.308V53.3462Z" fill="#DFEBF1"/>
<path d="M122.308 57.1602H150.272V58.8552H122.308V57.1602Z" fill="#DFEBF1"/>
<path d="M136.431 59.9854C137.844 59.9854 138.973 61.1154 138.973 62.528C138.973 63.9406 137.844 65.0706 136.431 65.0706C135.019 65.0706 133.889 63.9406 133.889 62.528C133.889 61.1154 135.019 59.9854 136.431 59.9854Z" fill="#FEC465"/>
<path d="M0.282776 0.0922852H65.25V188.388H0.282776V0.0922852Z" fill="white"/>
<path d="M6.07288 9.41504H59.8828V55.6061H6.07288V9.41504Z" fill="#797979"/>
<path d="M6.07288 61.8213H59.8828V108.012H6.07288V61.8213Z" fill="#797979"/>
<path d="M6.4967 117.759H59.8828V146.999H6.4967V117.759Z" fill="#EEEEEE"/>
<path d="M6.4967 151.802H59.8828V181.042H6.4967V151.802Z" fill="#EEEEEE"/>
<path d="M28.388 135.84H37.8506C38.8392 135.84 39.5454 136.405 39.5454 136.97C39.5454 137.535 38.698 138.1 37.8506 138.1H28.388C27.3994 138.1 26.6932 137.535 26.6932 136.97C26.6932 136.405 27.3994 135.84 28.388 135.84Z" fill="#C0C0C0"/>
<path d="M28.388 170.589H37.8506C38.8392 170.589 39.5454 171.154 39.5454 171.719C39.5454 172.284 38.698 172.849 37.8506 172.849H28.388C27.3994 172.849 26.6932 172.284 26.6932 171.719C26.6932 171.013 27.3994 170.589 28.388 170.589Z" fill="#C0C0C0"/>
<path d="M26.6926 124.681H39.686V130.473H26.6926V124.681Z" fill="white"/>
<path d="M39.9688 130.896H26.2691V124.398H39.9688V130.896ZM39.2626 125.105H26.9753V130.19H39.2626V125.105Z" fill="#C0C0C0"/>
<path d="M26.6926 159.43H39.686V165.222H26.6926V159.43Z" fill="white"/>
<path d="M39.9688 165.504H26.2691V159.006H39.9688V165.504ZM39.2626 159.713H26.9753V164.798H39.2626V159.713Z" fill="#C0C0C0"/>
<path d="M53.6685 26.0835H57.7642V55.7475H53.6685V26.0835Z" fill="#7EC59B"/>
<path d="M53.6685 49.2495H57.7642V53.2047H53.6685V49.2495Z" fill="white"/>
<path d="M48.5837 26.0835H52.6794V55.7475H48.5837V26.0835Z" fill="#27BFC4"/>
<path d="M48.5837 49.2495H52.6794V53.2047H48.5837V49.2495Z" fill="white"/>
<path d="M43.4994 26.0835H47.5952V55.7475H43.4994V26.0835Z" fill="#7EC59B"/>
<path d="M43.4994 49.2495H47.5952V53.2047H43.4994V49.2495Z" fill="white"/>
<path d="M38.4152 26.0835H42.511V55.7475H38.4152V26.0835Z" fill="#27BFC4"/>
<path d="M38.4152 49.2495H42.511V53.2047H38.4152V49.2495Z" fill="white"/>
<path d="M33.3309 26.0835H37.4268V55.7475H33.3309V26.0835Z" fill="#EB5E4A"/>
<path d="M33.3309 49.2495H37.4268V53.2047H33.3309V49.2495Z" fill="white"/>
<path d="M55.787 26.0835H59.8828V55.7475H55.787V26.0835Z" fill="#7EC59B"/>
<path d="M55.787 49.2495H59.8828V53.2047H55.787V49.2495Z" fill="white"/>
<path d="M46.3248 78.4897H54.7988V107.871H46.3248V78.4897Z" fill="#3F3F3E"/>
<path d="M46.3248 83.1514H54.7988V98.2658H46.3248V83.1514Z" fill="white"/>
<path d="M50.562 101.232C51.2682 101.232 51.9744 101.797 51.9744 102.644C51.9744 103.492 51.4094 104.057 50.562 104.057C49.8558 104.057 49.1497 103.492 49.1497 102.644C49.1497 101.797 49.8558 101.232 50.562 101.232Z" fill="#808080"/>
<path d="M50.562 101.232C51.2682 101.232 51.9744 101.797 51.9744 102.644C51.9744 103.351 51.4094 104.057 50.562 104.057C49.8558 104.057 49.1497 103.492 49.1497 102.644C49.2909 101.797 49.8558 101.232 50.562 101.232ZM50.562 103.492C51.127 103.492 51.5507 103.068 51.5507 102.503C51.5507 101.938 51.127 101.514 50.562 101.514C49.9971 101.514 49.5734 101.938 49.5734 102.503C49.7146 103.068 50.1383 103.492 50.562 103.492Z" fill="#CCCCCC"/>
<path d="M55.2224 107.871H46.1835V77.7837H55.2224V107.871ZM54.5162 78.49H46.7484V107.165H54.5162V78.49Z" fill="#5C5C5B"/>
<path d="M36.0151 78.4897H44.489V107.871H36.0151V78.4897Z" fill="#EB5E4A"/>
<path d="M36.0151 83.1514H44.489V98.2658H36.0151V83.1514Z" fill="white"/>
<path d="M40.252 103.916C39.4719 103.916 38.8396 103.284 38.8396 102.503C38.8396 101.723 39.4719 101.091 40.252 101.091C41.032 101.091 41.6643 101.723 41.6643 102.503C41.6643 103.284 41.032 103.916 40.252 103.916Z" fill="#808080"/>
<path d="M40.252 101.232C40.9581 101.232 41.6643 101.797 41.6643 102.644C41.6643 103.351 41.0994 104.057 40.252 104.057C39.5458 104.057 38.8396 103.492 38.8396 102.644C38.9808 101.797 39.5458 101.232 40.252 101.232ZM40.252 103.492C40.8169 103.492 41.2406 103.068 41.2406 102.503C41.2406 101.938 40.8169 101.514 40.252 101.514C39.687 101.514 39.2633 101.938 39.2633 102.503C39.4045 103.068 39.8282 103.492 40.252 103.492Z" fill="#CCCCCC"/>
<path d="M44.9128 107.871H35.8738V77.7837H44.9128V107.871ZM44.2067 78.49H36.4387V107.165H44.2067V78.49Z" fill="#5C5C5B"/>
<path d="M37.4273 85.8354H43.0767V87.248H37.4273V85.8354Z" fill="#808080"/>
<path d="M25.9871 78.4897H34.4609V107.871H25.9871V78.4897Z" fill="#EB5E4A"/>
<path d="M25.9871 83.1514H34.4609V98.2658H25.9871V83.1514Z" fill="white"/>
<path d="M30.2241 103.916C29.4441 103.916 28.8117 103.284 28.8117 102.503C28.8117 101.723 29.4441 101.091 30.2241 101.091C31.0041 101.091 31.6365 101.723 31.6365 102.503C31.6365 103.284 31.0041 103.916 30.2241 103.916Z" fill="#808080"/>
<path d="M30.2241 101.232C30.9303 101.232 31.6365 101.797 31.6365 102.644C31.6365 103.351 31.0715 104.057 30.2241 104.057C29.5179 104.057 28.8117 103.492 28.8117 102.644C28.8117 101.797 29.5179 101.232 30.2241 101.232ZM30.2241 103.492C30.789 103.492 31.2128 103.068 31.2128 102.503C31.2128 101.938 30.789 101.514 30.2241 101.514C29.6591 101.514 29.2354 101.938 29.2354 102.503C29.2354 103.068 29.6591 103.492 30.2241 103.492Z" fill="#CCCCCC"/>
<path d="M34.7437 107.871H25.7047V77.7837H34.7437V107.871ZM34.0375 78.49H26.2696V107.165H34.0375V78.49Z" fill="#5C5C5B"/>
<path d="M27.3995 85.8354H33.0488V87.248H27.3995V85.8354Z" fill="#808080"/>
<path d="M17.2601 77.2725L25.5825 78.8677L20.0188 107.717L11.6964 106.122L17.2601 77.2725Z" fill="#27BFC4"/>
<path d="M16.3562 81.8022L24.6777 83.4023L21.8246 98.2448L13.5031 96.6446L16.3562 81.8022Z" fill="white"/>
<path d="M16.8066 100.385C17.5128 100.385 18.219 100.95 18.219 101.797C18.219 102.504 17.6541 103.21 16.8066 103.21C15.9592 103.21 15.3943 102.645 15.3943 101.797C15.5355 100.95 16.1005 100.385 16.8066 100.385Z" fill="#808080"/>
<path d="M16.8066 100.385C17.5128 100.385 18.219 100.95 18.219 101.797C18.219 102.504 17.6541 103.21 16.8066 103.21C16.1005 103.21 15.3943 102.645 15.3943 101.797C15.5355 100.95 16.1005 100.385 16.8066 100.385ZM16.8066 102.645C17.3716 102.645 17.7953 102.221 17.7953 101.656C17.7953 101.091 17.3716 100.667 16.8066 100.667C16.2417 100.667 15.818 101.091 15.818 101.656C15.9593 102.221 16.3829 102.645 16.8066 102.645Z" fill="#CCCCCC"/>
<path d="M25.9868 78.2073L20.3375 107.73L11.4399 106.035L17.0892 76.5122L25.9868 78.2073ZM19.7726 106.882L25.1394 78.7723L17.5129 77.3598L12.146 105.47L19.7726 106.882Z" fill="#5C5C5B"/>
<path d="M17.2531 84.7246L22.8008 85.7925L22.5339 87.1796L16.9862 86.1117L17.2531 84.7246Z" fill="#808080"/>
<path d="M47.7374 85.835H53.3867V87.2476H47.7374V85.835Z" fill="#808080"/>
<path d="M214.251 19.0209C214.251 21.4223 212.274 23.5411 209.731 23.5411H209.59V14.6419H209.731C212.274 14.5007 214.251 16.6195 214.251 19.0209Z" fill="#7B7A7A"/>
<path d="M144.623 14.5005L144.764 23.3997H144.623C142.222 23.3997 140.104 21.4221 140.104 18.8795C140.245 16.6193 142.222 14.5005 144.623 14.5005Z" fill="#7B7A7A"/>
<path d="M144.623 14.5005H210.014V18.8794H144.623V14.5005Z" fill="#7B7A7A"/>
<path d="M146.6 19.7271H207.754C208.743 19.7271 209.59 20.5746 209.59 21.5634C209.59 22.5522 208.743 23.3997 207.754 23.3997H146.6C145.612 23.3997 144.764 22.5522 144.764 21.5634C144.764 20.5746 145.612 19.7271 146.6 19.7271Z" fill="white"/>
<path d="M206.059 0.0922852H206.624V14.6418H206.059V0.0922852Z" fill="#7B7A7A"/>
<path d="M147.871 0.0922852H148.436V14.6418H147.871V0.0922852Z" fill="#7B7A7A"/>
<mask id="mask2" mask-type="alpha" maskUnits="userSpaceOnUse" x="105" y="23" width="146" height="111">
<path d="M210.72 23.6821L250.689 133.863H105.078L144.623 23.6821H210.72Z" fill="url(#paint4_linear)"/>
</mask>
<g mask="url(#mask2)">
<mask id="mask3" mask-type="alpha" maskUnits="userSpaceOnUse" x="105" y="23" width="146" height="111">
<path d="M210.72 23.6821L250.689 133.863H105.078L144.623 23.6821H210.72Z" fill="url(#paint5_linear)"/>
</mask>
<g mask="url(#mask3)">
<path opacity="0.3" d="M210.72 23.6821L250.689 133.863H105.078L144.623 23.6821H210.72Z" fill="url(#paint6_linear)"/>
</g>
</g>
<path d="M155.921 96.0057C156.203 95.2995 157.192 93.0393 160.158 92.3331L171.88 88.0954C171.88 88.0954 171.88 88.0954 171.88 87.9541H172.022H172.163H172.304H172.445C172.445 87.9541 172.445 87.9541 172.445 88.0954L183.885 92.3331C186.851 93.0393 187.84 95.2995 188.122 96.0057L183.461 109.001L183.179 120.443L183.744 129.06L183.885 136.829C176.117 136.688 168.35 136.688 160.582 136.688L160.864 129.06L161.712 120.443L161.288 106.6L155.921 96.0057Z" fill="#E9F4F5"/>
<path d="M160.157 92.3331L167.784 89.3667C169.055 92.3331 173.433 108.013 173.433 108.013C173.433 108.013 177.105 93.6044 177.247 89.9317L183.743 92.3331C186.709 93.0394 187.698 95.2995 187.98 96.0058L183.32 109.001L183.037 120.443L183.602 129.06L183.743 136.829C175.975 136.688 168.208 136.688 160.44 136.688L160.722 129.06V125.67L161.146 106.6L155.638 96.0058C156.203 95.2995 157.191 93.1806 160.157 92.3331Z" fill="#F6F6F6"/>
<path d="M179.224 82.0211C179.224 85.2701 176.541 87.9539 173.292 87.9539C170.044 87.9539 166.513 84.14 166.513 80.7498V74.6758H179.365V82.0211H179.224Z" fill="#EAB99F"/>
<path d="M176.117 91.203C176.117 92.1918 175.693 92.8981 175.129 93.6044C174.846 93.4631 174.422 93.4631 173.999 93.4631C172.869 93.4631 171.88 93.8869 171.315 94.4519C169.903 94.0282 169.056 92.7568 169.056 91.203V83.1514H176.117V91.203Z" fill="#EAB99F"/>
<path d="M171.598 70.2969H180.778C180.778 74.8171 179.365 74.9583 179.365 74.9583H171.598C169.62 74.9583 169.762 76.7947 169.762 76.7947V78.631H168.773C168.773 78.631 168.349 77.9247 167.926 77.9247C167.502 77.9247 167.078 77.9247 167.078 79.196C167.078 82.445 168.632 82.3037 168.632 82.3037L169.197 86.2589C166.372 84.7051 166.09 79.6198 166.09 79.6198V74.8171C165.948 69.4493 171.598 70.2969 171.598 70.2969Z" fill="#686867"/>
<path opacity="0.1" d="M176.117 87.3891V88.0954C176.117 88.0954 173.434 89.6492 170.892 87.1066C170.892 86.9653 173.857 88.6604 176.117 87.3891Z" fill="black"/>
<path opacity="0.1" d="M176.4 77.2183L176.965 81.5972C176.965 81.5972 175.976 83.0098 174.846 81.456H176.541L176.4 77.2183Z" fill="black"/>
<path opacity="0.1" d="M161.288 112.391L161.57 111.12L161.853 128.777V136.688H160.723L161.005 129.06L161.288 112.391Z" fill="black"/>
<path d="M187.981 96.0057L192.501 119.172L204.647 122.138L205.635 125.528H187.557C186.569 125.528 185.58 124.822 185.439 123.833L181.484 111.403C181.343 111.544 181.202 94.7343 187.981 96.0057Z" fill="#F6F6F6"/>
<path opacity="0.1" d="M183.179 110.131C185.156 113.663 185.721 119.878 187.981 121.149C189.111 121.714 199.986 123.41 204.929 123.268L205.635 125.528H187.557C186.569 125.528 185.58 124.822 185.439 123.833L183.32 117.194C183.32 115.075 183.179 112.25 183.179 110.131Z" fill="black"/>
<path d="M202.952 121.714C204.223 121.149 207.189 121.008 208.036 121.291C210.719 122.138 211.002 125.528 211.002 125.528C209.025 125.528 204.929 125.528 202.528 125.528C199.986 125.528 201.681 122.279 202.952 121.714Z" fill="#EAB99F"/>
<path d="M174.281 94.3105L175.411 95.2993L174.564 97.1357H172.586L171.88 95.2993L172.869 94.3105H174.281Z" fill="#50504F"/>
<path d="M174.564 97.1357L175.411 101.656L173.716 107.165L171.88 101.373L172.586 97.1357H174.564Z" fill="#454444"/>
<path d="M173.575 93.4633L170.892 96.2884L167.361 89.7906L168.914 87.813L173.575 93.4633Z" fill="#DBECEE"/>
<path d="M177.812 90.0733L176.259 96.1473L173.575 93.4635L176.4 88.0957L177.812 90.0733Z" fill="#DBECEE"/>
<path d="M169.621 105.611L163.548 104.905V104.481L169.48 105.187L169.621 105.611Z" fill="#E7E7E7"/>
<path d="M180.778 95.1579L173.999 109.566V121.432H173.434V109.849L165.242 94.4517L173.575 107.73L180.778 95.1579Z" fill="#E7E7E7"/>
<path d="M175.411 119.313L182.049 123.127C182.049 123.127 171.457 122.986 170.045 122.986C168.632 122.986 169.621 119.737 169.621 119.737L175.411 119.313Z" fill="#EAB99F"/>
<path d="M155.921 96.0059C161.853 97.1359 162.842 106.6 162.842 106.6L159.593 118.748L169.903 119.313L171.033 125.67C171.033 125.67 158.322 125.67 154.368 125.67C150.554 125.67 150.837 120.302 150.837 120.302L155.921 96.0059Z" fill="#F6F6F6"/>
<path opacity="0.1" d="M155.921 96.0059C155.921 96.0059 156.062 96.1471 155.921 96.0059C155.356 100.244 155.215 104.623 154.791 109.002C154.509 111.262 154.226 113.38 154.085 115.641C153.944 117.053 153.52 119.031 153.803 120.302C154.509 123.127 157.899 123.41 160.299 123.833C163.83 124.54 167.361 124.681 170.892 124.681L171.033 125.67C171.033 125.67 158.322 125.67 154.368 125.67C150.554 125.67 150.837 120.302 150.837 120.302L155.921 96.0059Z" fill="black"/>
<path d="M181.06 91.4853L179.224 94.4517L180.778 95.158L173.716 109.425L173.292 108.719L177.812 90.0728L181.06 91.4853Z" fill="white"/>
<path d="M167.926 89.084L174.14 108.436L173.293 108.719L165.242 94.4518L166.655 93.7455L164.819 90.6378L167.926 89.084Z" fill="white"/>
<path d="M178.801 100.526L179.083 100.667C179.083 100.667 178.518 102.362 178.377 104.481C178.236 106.459 178.377 109.425 179.93 111.826C180.072 111.968 180.213 112.109 180.354 112.109C181.343 112.391 183.179 111.12 183.179 111.12L183.32 111.403C183.179 111.403 181.343 112.674 180.213 112.391C179.931 112.391 179.648 112.109 179.507 111.968C177.953 109.425 177.812 106.459 177.953 104.34C178.236 102.08 178.801 100.526 178.801 100.526Z" fill="#C0C0C0"/>
<path d="M183.885 110.555C184.026 110.414 184.309 110.555 184.45 110.696C184.591 110.838 184.45 111.12 184.309 111.261L183.603 111.544C183.461 111.685 183.179 111.544 183.038 111.403C182.897 111.261 183.038 110.979 183.179 110.838L183.885 110.555Z" fill="#C0C0C0"/>
<path d="M182.896 112.109C183.038 112.109 183.179 111.968 183.32 111.826C184.874 109.425 185.015 106.459 184.874 104.481C184.733 102.362 184.168 100.667 184.168 100.667L184.45 100.526C184.45 100.526 185.015 102.221 185.156 104.481C185.297 106.6 185.156 109.566 183.603 112.109C183.461 112.391 183.179 112.533 182.896 112.533C181.767 112.815 179.789 111.544 179.789 111.544L179.93 111.261C180.072 111.12 181.908 112.25 182.896 112.109Z" fill="#C0C0C0"/>
<path d="M179.507 110.555L180.072 110.838C180.213 110.979 180.354 111.12 180.213 111.403C180.072 111.544 179.931 111.685 179.648 111.544L179.083 111.261C178.942 111.12 178.801 110.979 178.942 110.696C179.083 110.555 179.366 110.414 179.507 110.555Z" fill="#C0C0C0"/>
<path d="M181.767 98.4072C183.603 98.4072 185.157 99.6785 185.157 101.656H184.451C184.451 100.102 183.321 99.1135 181.909 99.1135C180.496 99.1135 179.366 100.102 179.366 101.656H178.66C178.378 99.5373 179.931 98.4072 181.767 98.4072Z" fill="#414042"/>
<path d="M181.626 94.3104C182.191 96.288 182.191 98.4068 182.191 98.5481H181.626C181.626 98.5481 181.767 96.4292 181.202 94.4516C180.637 92.474 179.507 90.9202 177.954 90.0726L177.248 89.2251C179.366 90.0726 180.778 91.7677 181.626 94.3104Z" fill="#414042"/>
<path d="M168.773 87.9541L167.926 88.9429C166.514 89.7904 165.525 91.4855 164.96 93.7456C164.395 96.147 164.678 98.4071 164.678 98.5484H164.113C164.113 98.4071 163.83 96.147 164.395 93.6044C165.101 90.638 166.514 88.6604 168.773 87.9541Z" fill="#414042"/>
<path d="M164.395 98.6899C165.383 98.6899 166.231 99.5375 166.231 100.385C166.231 101.374 165.383 102.08 164.395 102.08C163.406 102.08 162.558 101.233 162.558 100.385C162.7 99.5375 163.406 98.6899 164.395 98.6899Z" fill="#E6E7E8"/>
<path d="M164.395 99.2549C165.101 99.2549 165.666 99.8199 165.666 100.385C165.666 101.091 165.101 101.515 164.395 101.515C163.689 101.515 163.124 100.95 163.124 100.385C163.124 99.8199 163.689 99.2549 164.395 99.2549ZM164.395 101.374C164.96 101.374 165.384 100.95 165.384 100.385C165.384 99.8199 164.96 99.3961 164.395 99.3961C163.83 99.3961 163.406 99.8199 163.406 100.385C163.406 100.95 163.83 101.374 164.395 101.374Z" fill="#808285"/>
<path d="M164.395 98.4072C165.525 98.4072 166.372 99.2548 166.372 100.385C166.372 101.515 165.525 102.362 164.395 102.362C163.265 102.362 162.418 101.515 162.418 100.385C162.418 99.396 163.265 98.4072 164.395 98.4072ZM164.395 101.939C165.242 101.939 165.949 101.232 165.949 100.385C165.949 99.5373 165.242 98.831 164.395 98.831C163.548 98.831 162.842 99.5373 162.842 100.385C162.842 101.232 163.548 101.939 164.395 101.939Z" fill="#6D6E71"/>
<path opacity="0.1" d="M166.09 101.374C165.807 101.939 165.101 102.362 164.395 102.362C163.265 102.362 162.418 101.515 162.418 100.385C162.418 100.102 162.559 99.6785 162.7 99.396C163.971 101.515 165.948 101.374 166.09 101.374Z" fill="black"/>
<path d="M163.689 106.176H169.338C169.48 106.176 169.621 106.317 169.621 106.458V109.707C169.621 109.848 169.48 109.99 169.338 109.99H163.689C163.548 109.99 163.407 109.848 163.407 109.707V106.458C163.407 106.317 163.548 106.176 163.689 106.176Z" fill="#BFECEE"/>
<path d="M166.231 104.481H166.796C166.796 104.481 166.796 104.481 166.938 104.622V105.046V105.187C166.938 105.328 166.937 105.47 166.796 105.47V106.035H166.09V105.47C165.949 105.47 165.949 105.328 165.949 105.187V104.622C166.09 104.622 166.09 104.481 166.231 104.481Z" fill="#BFECEE"/>
<path d="M163.407 108.719H169.621V109.425H163.407V108.719Z" fill="#414042"/>
<path d="M164.113 107.165H166.655V107.448H164.113V107.165Z" fill="#C0C0C0"/>
<path d="M164.113 107.589H166.655V107.871H164.113V107.589Z" fill="#C0C0C0"/>
<path d="M167.502 106.741H168.915V108.295H167.502V106.741Z" fill="#C0C0C0"/>
<path d="M127.251 120.584H138.691V122.986H127.251V120.584Z" fill="#E83E40"/>
<path d="M130.076 117.335C130.782 117.335 131.347 117.9 131.347 118.607V120.584H128.805V118.607C128.805 117.9 129.369 117.335 130.076 117.335Z" fill="#4B4B4A"/>
<path d="M137.702 81.0324L139.538 79.9024C139.82 79.7611 140.244 79.7611 140.526 80.1849L141.656 82.0212C141.797 82.3037 141.798 82.7275 141.374 83.01L139.538 84.1401C139.255 84.2813 138.832 84.2813 138.549 83.8576L137.419 82.0212C137.278 81.5974 137.419 81.1737 137.702 81.0324Z" fill="#E83E40"/>
<path d="M136.572 84.1401H140.668C141.233 84.1401 141.657 84.5639 141.657 85.1289C141.657 85.694 141.233 86.1177 140.668 86.1177H136.572C136.007 86.1177 135.584 85.694 135.584 85.1289C135.584 84.5639 136.007 84.1401 136.572 84.1401Z" fill="#4B4B4A"/>
<path d="M135.301 84.564H136.996C137.278 84.564 137.419 84.7052 137.419 84.9877C137.419 85.129 137.419 85.2703 137.278 85.2703L136.007 86.4003C135.725 86.6828 135.442 86.5416 135.301 86.2591L134.736 85.129C134.736 84.9877 134.877 84.564 135.301 84.564Z" fill="#4B4B4A"/>
<path d="M136.29 86.1176L125.274 101.656L124.144 100.243L135.16 84.7051L136.29 86.1176ZM124.85 100.243L125.415 100.808L135.584 86.1176L135.019 85.5526L124.85 100.243Z" fill="#4B4B4A"/>
<path d="M131.064 118.324L129.369 119.031L124.143 101.232L125.838 100.526L131.064 118.324ZM124.85 101.515L129.652 118.324L130.358 118.042L125.556 101.232L124.85 101.515Z" fill="#4B4B4A"/>
<path d="M125.415 102.362C124.557 102.362 123.861 101.666 123.861 100.808C123.861 99.9501 124.557 99.2544 125.415 99.2544C126.273 99.2544 126.969 99.9501 126.969 100.808C126.969 101.666 126.273 102.362 125.415 102.362Z" fill="#4B4B4A"/>
<path d="M139.821 81.4564C141.657 80.7501 147.165 82.7277 148.718 86.1179C148.718 86.2591 148.718 86.4004 148.577 86.5417L139.538 90.2143C139.397 90.2143 139.256 90.2143 139.114 90.0731C137.985 86.5417 137.985 82.1627 139.821 81.4564Z" fill="#E83E40"/>
<path d="M117.082 125.811H233.458V188.388H117.082V125.811Z" fill="#E2E2E2"/>
<path d="M117.082 125.811H233.458V133.439H117.082V125.811Z" fill="#C6C6C6"/>
<path d="M106.348 122.986H244.192C245.746 122.986 247.017 124.398 247.017 126.235V127.082C247.017 128.777 245.746 130.331 244.192 130.331H106.348C104.795 130.331 103.524 128.919 103.524 127.082V126.235C103.524 124.398 104.795 122.986 106.348 122.986Z" fill="white"/>
<path d="M223.713 122.986H188.263C187.416 122.986 186.851 122.28 186.851 121.573H225.125C225.125 122.421 224.56 122.986 223.713 122.986Z" fill="#686867"/>
<path d="M187.416 96.147H224.56C224.843 96.147 225.125 96.4295 225.125 96.712V121.008C225.125 121.291 224.843 121.573 224.56 121.573H187.416C187.133 121.573 186.851 121.291 186.851 121.008V96.8533C186.851 96.4295 187.133 96.147 187.416 96.147Z" fill="#A4A3A3"/>
<path d="M187.416 96.147H224.56C224.843 96.147 225.125 96.4295 225.125 96.712V121.008C225.125 121.291 224.843 121.573 224.56 121.573L186.851 96.5707C186.851 96.4295 187.133 96.147 187.416 96.147Z" fill="#AAAAA9"/>
<path d="M206.059 105.046C208.177 105.046 210.013 106.741 210.013 109.002C210.013 111.12 208.318 112.957 206.059 112.957C203.94 112.957 202.104 111.262 202.104 109.002C202.104 106.883 203.799 105.046 206.059 105.046Z" fill="#7E7D7D"/>
<path d="M89.8246 136.123L91.8019 136.688L89.2597 146.293C89.2597 146.434 88.4123 148.412 90.3895 151.237C91.3782 152.65 93.073 153.215 93.4967 153.356H96.8862V155.334H93.2142H93.0729C92.9317 155.334 90.2483 154.627 88.6947 152.367C86.2938 148.977 87.1412 146.152 87.2824 145.587L89.8246 136.123Z" fill="#4B4B4A"/>
<path d="M108.608 156.605H114.681V166.775H108.608V156.605Z" fill="#4A4A49"/>
<path d="M90.2479 177.935L111.574 173.132V179.488L87.7057 182.172V181.042C87.8469 179.488 88.8355 178.217 90.2479 177.935Z" fill="#4B4B4A"/>
<path d="M135.584 181.042V182.172L111.716 179.488V173.132L133.042 177.935C134.454 178.217 135.584 179.488 135.584 181.042Z" fill="#4B4B4A"/>
<path d="M109.032 164.657H114.399C115.105 164.657 115.67 165.222 115.67 165.928V178.641C115.67 179.347 115.105 179.912 114.399 179.912H109.173C108.467 179.912 107.902 179.347 107.902 178.641V165.928C107.761 165.222 108.326 164.657 109.032 164.657Z" fill="#4B4B4A"/>
<path d="M133.748 154.062C133.748 155.475 132.618 156.464 131.347 156.464H98.8633C97.4509 156.464 96.4623 155.334 96.4623 154.062V153.356H133.889V154.062H133.748Z" fill="#4B4B4A"/>
<path d="M106.349 146.717H127.251C130.923 146.717 133.889 149.683 133.889 153.356H96.4623C96.4623 149.683 102.677 146.717 106.349 146.717Z" fill="#797979"/>
<path d="M91.5188 112.533V136.829C89.8241 136.829 88.4118 135.416 88.4118 133.721V115.64C88.4118 113.945 89.8241 112.533 91.5188 112.533Z" fill="#4B4B4A"/>
<path d="M97.168 124.116V129.766C97.168 133.58 95.3319 136.688 91.5187 136.688V112.533C95.3319 112.533 97.168 120.302 97.168 124.116Z" fill="#797979"/>
<path d="M109.597 176.098H113.975V183.726H109.597V176.098Z" fill="#5D5D5C"/>
<path d="M156.486 112.957H161.571C162.418 112.957 163.265 113.663 163.265 114.51V121.432C163.265 122.28 162.559 122.986 161.571 122.986H156.486C155.639 122.986 154.791 122.28 154.791 121.432V114.51C154.933 113.663 155.639 112.957 156.486 112.957Z" fill="#E6E7E8"/>
<path d="M156.345 110.131H161.712C161.995 110.131 162.136 110.273 162.136 110.555V112.533C162.136 112.815 161.995 112.956 161.712 112.956H156.345C156.063 112.956 155.922 112.815 155.922 112.533V110.555C155.922 110.273 156.204 110.131 156.345 110.131Z" fill="white"/>
<path d="M161.429 110.555C161.57 110.555 161.57 110.555 161.429 110.555L161.57 112.392C161.57 112.392 161.57 112.533 161.429 112.533C161.429 112.533 161.288 112.533 161.288 112.392L161.429 110.555Z" fill="#D1D3D4"/>
<path d="M160.864 110.555C161.006 110.555 161.006 110.555 160.864 110.555L161.006 112.392C161.006 112.392 161.006 112.533 160.864 112.533C160.864 112.533 160.723 112.533 160.723 112.392L160.864 110.555C160.723 110.555 160.864 110.555 160.864 110.555Z" fill="#D1D3D4"/>
<path d="M160.299 110.555C160.299 110.555 160.441 110.555 160.299 110.555L160.441 112.392C160.441 112.392 160.441 112.533 160.299 112.533C160.299 112.533 160.158 112.533 160.158 112.392L160.299 110.555C160.158 110.555 160.158 110.555 160.299 110.555Z" fill="#D1D3D4"/>
<path d="M159.735 110.555L159.876 112.392C159.876 112.392 159.876 112.533 159.735 112.533C159.735 112.533 159.593 112.533 159.593 112.392L159.735 110.555C159.593 110.555 159.593 110.555 159.735 110.555Z" fill="#D1D3D4"/>
<path d="M159.028 110.555C159.169 110.555 159.169 110.555 159.028 110.555L159.169 112.392C159.169 112.392 159.169 112.533 159.028 112.533C159.028 112.533 158.887 112.533 158.887 112.392L159.028 110.555C158.887 110.555 159.028 110.555 159.028 110.555Z" fill="#D1D3D4"/>
<path d="M158.464 110.555C158.464 110.555 158.605 110.555 158.464 110.555L158.605 112.392C158.605 112.392 158.605 112.533 158.464 112.533C158.464 112.533 158.322 112.533 158.322 112.392L158.464 110.555C158.322 110.555 158.322 110.555 158.464 110.555Z" fill="#D1D3D4"/>
<path d="M157.898 110.555C157.898 110.555 158.04 110.555 157.898 110.555L158.04 112.392C158.04 112.392 158.04 112.533 157.898 112.533C157.898 112.533 157.757 112.533 157.757 112.392L157.898 110.555C157.757 110.555 157.757 110.555 157.898 110.555Z" fill="#D1D3D4"/>
<path d="M157.192 110.555C157.333 110.555 157.333 110.555 157.192 110.555L157.333 112.392C157.333 112.392 157.333 112.533 157.192 112.533C157.051 112.533 157.051 112.533 157.051 112.392L157.192 110.555Z" fill="#D1D3D4"/>
<path d="M156.627 110.555C156.769 110.555 156.769 110.555 156.627 110.555L156.769 112.392C156.769 112.392 156.769 112.533 156.627 112.533C156.627 112.533 156.486 112.533 156.486 112.392L156.627 110.555C156.486 110.555 156.627 110.555 156.627 110.555Z" fill="#D1D3D4"/>
<path d="M154.932 114.934H161.712V121.008H154.932V114.934Z" fill="white"/>
<path d="M151.119 122.562C151.119 122.703 150.978 122.844 150.837 122.844H147.588C147.447 122.844 147.306 122.703 147.306 122.562V114.51H151.119V122.562Z" fill="#FFDEAB"/>
<path d="M147.306 122.562C147.306 122.703 147.447 122.703 147.447 122.703H150.695C150.837 122.703 150.837 122.562 150.837 122.562V114.51H151.119V122.562C151.119 122.844 150.837 122.986 150.695 122.986H147.447C147.165 122.986 147.023 122.703 147.023 122.562V114.51H147.306V122.562Z" fill="#FEC465"/>
<path d="M147.024 112.674H151.261C151.402 112.674 151.402 112.674 151.402 112.815V114.369C151.402 114.51 151.402 114.51 151.261 114.51H147.024C146.882 114.51 146.882 114.51 146.882 114.369V112.815C146.882 112.815 146.882 112.674 147.024 112.674Z" fill="white"/>
<path d="M147.589 120.302C147.871 120.16 148.154 120.302 148.436 120.584L149.142 121.855C149.284 122.138 149.142 122.42 148.86 122.703C148.577 122.844 148.295 122.703 148.013 122.42L147.306 121.149C147.306 120.725 147.306 120.443 147.589 120.302Z" fill="#FFEBAB"/>
<path d="M147.871 121.573C147.871 121.573 148.012 121.432 147.871 121.573C148.012 121.432 148.154 121.291 148.154 121.291C148.154 121.291 148.295 121.291 148.295 121.149H148.436H148.577C148.577 121.149 148.577 121.291 148.436 121.291L148.295 121.432L148.154 121.573C148.154 121.573 148.012 121.573 148.012 121.714H147.871H147.73C147.73 121.714 147.73 121.714 147.871 121.573C147.871 121.714 147.871 121.573 147.871 121.573Z" fill="#FFDC69"/>
<path d="M149.989 119.454C150.131 119.172 150.554 119.172 150.837 119.313C151.119 119.454 151.119 119.878 150.978 120.161L149.989 121.432C149.848 121.714 149.424 121.714 149.142 121.573C148.859 121.432 148.859 121.008 149.001 120.726L149.989 119.454Z" fill="#FFEBAB"/>
<path d="M149.708 120.161C149.708 120.161 149.849 120.161 149.849 120.302L149.99 120.443L150.131 120.584L150.272 120.726V120.867H150.131C150.131 120.867 149.99 120.867 149.99 120.726L149.849 120.584L149.708 120.443L149.566 120.302V120.161C149.566 120.161 149.425 120.161 149.708 120.161C149.566 120.161 149.566 120.161 149.708 120.161Z" fill="#FFDC69"/>
<path d="M148.436 118.041L149.424 119.172C149.707 119.454 149.566 119.737 149.424 120.019C149.142 120.302 148.859 120.16 148.577 120.019L147.588 118.889C147.306 118.607 147.447 118.324 147.588 118.041C147.871 117.759 148.294 117.759 148.436 118.041Z" fill="#FFEBAB"/>
<path d="M148.294 119.171C148.294 119.171 148.294 119.03 148.436 119.03L148.577 118.889L148.718 118.748C148.718 118.748 148.859 118.748 148.859 118.606H149V118.748C149 118.748 149 118.889 148.859 118.889L148.718 119.03L148.577 119.171C148.436 119.171 148.436 119.313 148.294 119.171C148.436 119.313 148.294 119.313 148.294 119.313C148.294 119.313 148.153 119.313 148.294 119.171C148.153 119.171 148.153 119.171 148.294 119.171Z" fill="#FFDC69"/>
<path d="M151.119 112.957V114.228C151.119 114.228 151.119 114.228 150.978 114.228H150.837V112.957C150.978 112.957 150.978 112.957 151.119 112.957C150.978 112.957 151.119 112.957 151.119 112.957Z" fill="#F1F2F2"/>
<path d="M150.554 112.957V114.228C150.554 114.228 150.554 114.228 150.413 114.228H150.272V112.957C150.413 112.957 150.413 112.957 150.554 112.957Z" fill="#F1F2F2"/>
<path d="M149.99 112.957V114.228C149.99 114.228 149.99 114.228 149.848 114.228H149.707V112.957C149.848 112.957 149.848 112.957 149.99 112.957Z" fill="#F1F2F2"/>
<path d="M149.425 112.957V114.228C149.425 114.228 149.425 114.228 149.283 114.228H149.142V112.957C149.283 112.957 149.283 112.957 149.425 112.957Z" fill="#F1F2F2"/>
<path d="M148.86 112.957V114.228C148.86 114.228 148.86 114.228 148.719 114.228H148.578V112.957C148.719 112.957 148.719 112.957 148.86 112.957Z" fill="#F1F2F2"/>
<path d="M148.295 112.957V114.228C148.295 114.228 148.295 114.228 148.153 114.228H148.012V112.957C148.153 112.957 148.295 112.957 148.295 112.957Z" fill="#F1F2F2"/>
<path d="M147.871 112.957V114.228C147.871 114.228 147.871 114.228 147.73 114.228H147.588V112.957C147.588 112.957 147.73 112.957 147.871 112.957C147.73 112.957 147.871 112.957 147.871 112.957Z" fill="#F1F2F2"/>
<path d="M147.306 112.957V114.228C147.306 114.228 147.306 114.228 147.165 114.228H147.024V112.957C147.165 112.957 147.165 112.957 147.306 112.957C147.165 112.957 147.306 112.957 147.306 112.957Z" fill="#F1F2F2"/>
<path d="M308.595 80.4674C310.431 80.7499 312.126 81.315 313.82 81.88L310.007 97.9833L305.346 96.5707L307.888 80.3262C308.03 80.4674 308.312 80.4674 308.595 80.4674Z" fill="#C39276"/>
<path d="M337.406 98.1246L340.231 114.51L341.926 120.584L340.937 124.398L339.525 126.093C339.525 126.093 338.536 126.376 338.536 125.246C338.395 124.257 338.253 119.737 338.253 119.737C338.253 119.737 337.547 119.454 337.406 120.302C337.265 121.149 336.841 122.421 335.853 122.421L336.276 118.324L337.265 114.652L332.322 98.8308L328.791 77.9248L335.57 78.6311L337.406 98.1246Z" fill="#C39276"/>
<path opacity="0.1" d="M336.135 83.8575C336.135 83.8575 333.31 85.6938 333.31 85.8351C333.451 88.8015 333.734 94.8755 334.44 98.972L338.253 115.075C337.971 116.205 336.559 122.421 336.559 122.421C336.417 122.562 336.135 122.562 335.994 122.562L336.417 118.465L337.406 114.793L332.463 98.972L328.932 78.0659L335.711 78.7722L336.135 83.8575Z" fill="black"/>
<path d="M320.317 51.5098H324.13C327.661 51.5098 330.486 54.3349 330.486 57.8663V79.0549C330.486 81.5975 328.508 83.5751 325.966 83.5751H317.916C315.374 83.5751 313.396 81.5975 313.396 79.0549L313.961 57.8663C313.961 54.3349 316.786 51.5098 320.317 51.5098Z" fill="#623E3B"/>
<path d="M314.103 183.303L310.007 183.868V135.275H318.622L314.103 183.303Z" fill="#C39276"/>
<path opacity="0.1" d="M311.702 136.547L310.854 183.727L310.007 183.868V135.275H318.622L311.702 136.547Z" fill="black"/>
<path d="M328.791 183.303L324.695 183.868V135.275H333.31L328.791 183.303Z" fill="#C39276"/>
<path d="M321.588 71.1447C321.588 71.1447 321.447 71.0034 321.588 71.1447H322.012L322.294 71.0034H322.435V71.1447L329.638 73.6873C328.932 74.5348 322.859 85.4116 321.87 86.4004C319.893 84.2816 314.526 77.6425 314.526 73.9698C314.526 73.8286 314.526 73.6873 314.526 73.6873L321.447 71.2859C321.447 71.2859 321.447 71.1447 321.588 71.1447Z" fill="#E83E40"/>
<path opacity="0.1" d="M314.103 103.775L312.973 87.3892C313.114 87.3892 314.526 88.0954 314.668 88.2367C314.809 88.6605 314.809 89.508 314.95 90.4968L315.939 92.3332V103.775V103.916C313.961 110.414 312.549 114.087 312.125 121.291C311.843 124.822 312.125 135.417 312.125 135.417H310.148L309.725 121.997C309.725 120.161 309.866 115.641 310.431 113.804L314.103 103.775Z" fill="black"/>
<path opacity="0.1" d="M333.31 135.275L325.684 136.688V183.162H324.554L324.695 135.275H333.31Z" fill="black"/>
<path opacity="0.1" d="M325.684 70.5794V71.2857C325.684 71.2857 323.142 72.6982 320.741 70.2969C320.599 70.2969 323.424 71.8507 325.684 70.5794Z" fill="black"/>
<path d="M322.718 98.2659V101.232L308.736 101.515C306.9 101.797 305.346 100.385 305.346 98.5484V96.7121L310.43 96.5708L322.718 98.2659Z" fill="#C39276"/>
<path d="M326.813 71.0034V74.5348H317.492V70.8621C323 69.0258 326.813 71.0034 326.813 71.0034Z" fill="#DADADA"/>
<path d="M328.791 65.353C328.791 68.6019 326.107 71.2858 322.859 71.2858C319.611 71.2858 316.927 68.6019 316.927 65.353V58.1489H328.932V65.353H328.791Z" fill="#C39276"/>
<path d="M323.848 107.73L332.887 141.349V143.892H309.583V140.926L320.599 107.589L323.848 107.73Z" fill="#005B7F"/>
<path d="M325.684 74.3934C325.684 76.371 324.13 77.9249 322.153 77.9249C320.176 77.9249 318.622 76.371 318.622 74.3934V66.3418H325.825V74.3934H325.684Z" fill="#C39276"/>
<path d="M318.481 70.297L317.633 70.4382L315.797 67.1893V57.8663L319.328 56.3125L318.481 70.297Z" fill="#623E3B"/>
<path d="M311.56 74.5346C311.56 74.5346 315.797 73.2633 315.797 73.1221L321.729 85.1289L328.367 73.1221L332.039 74.5346C333.875 75.0997 335.005 76.371 335.57 77.3598L335.994 78.3486L336.7 83.4338L337.971 97.8421L340.796 114.087L336.7 114.51L332.322 98.8308L331.474 92.0505C331.333 92.1918 331.192 92.333 331.051 92.333L330.486 103.492L333.028 113.239C333.31 114.652 333.452 118.748 333.452 120.161V142.621H323.848L323.142 107.73L321.588 107.589L320.599 142.621H308.877L309.583 121.856C309.583 120.019 309.724 115.499 310.289 113.663L313.961 103.775L312.832 87.389C310.854 86.259 306.617 88.0953 306.335 87.9541L307.606 78.2073C307.888 77.3598 309.018 75.2409 311.56 74.5346Z" fill="#F6F6F6"/>
<path opacity="0.08" d="M331.192 89.084C331.192 89.2252 331.333 89.3665 331.333 89.3665C331.333 89.5078 331.333 89.5078 331.474 89.649C332.463 92.3329 332.463 95.2993 333.31 98.1244C334.017 100.667 334.864 103.21 335.994 105.47C337.124 107.589 338.536 109.425 340.231 111.12L340.796 114.228L336.7 114.652L332.322 98.972L331.474 92.1916C331.333 92.3329 331.333 92.3329 331.192 92.4742C331.192 92.0504 331.192 91.4854 331.192 91.0616C331.192 90.4966 331.051 89.9315 330.909 89.5078C330.909 89.3665 331.051 89.2252 331.192 89.084Z" fill="black"/>
<path opacity="0.08" d="M310.289 113.663L313.961 103.775L312.832 87.5303C312.973 87.5303 316.786 100.102 316.645 100.243C316.221 100.667 317.916 102.362 317.634 102.927C316.08 106.6 313.679 109.99 312.549 113.945C311.561 117.477 312.125 136.97 313.397 142.762H308.736L309.442 121.997C309.442 120.019 309.725 115.499 310.289 113.663Z" fill="black"/>
<path d="M321.023 58.1486C319.046 58.1486 319.187 59.9849 319.187 59.9849L317.21 59.2787V57.0186H321.164V58.1486H321.023Z" fill="#623E3B"/>
<path d="M328.791 73.4048L326.814 76.0887L327.661 77.2187L322.012 84.9879L326.814 71.0034L328.791 73.4048Z" fill="white"/>
<path d="M317.351 71.0034L321.588 84.7053L316.362 77.5012L317.21 76.3712L315.374 73.4048L317.351 71.0034Z" fill="white"/>
<path d="M331.474 97.8422L330.203 101.232L330.768 96.4297L331.474 97.8422Z" fill="#C39276"/>
<path d="M332.18 83.8577L329.356 108.295L312.408 106.883L315.515 82.1626L332.18 83.8577Z" fill="#536367"/>
<path d="M323.424 96.712C323.565 96.4295 323.989 96.147 324.271 96.0057L327.52 95.1582C327.52 95.1582 327.802 96.2883 326.672 96.5708L325.684 97.1358H331.192L330.203 101.091L328.508 101.656H325.26L322.576 101.091L322.859 98.1246L323.424 96.712Z" fill="#C39276"/>
<path opacity="0.08" d="M323.141 97.2769C323.706 98.4069 324.554 99.2544 325.825 99.8195C326.107 99.9607 326.39 100.102 326.672 100.102C326.813 100.243 326.955 100.243 327.096 100.385C328.085 100.808 329.214 100.95 330.344 101.091V101.232L328.649 101.797H325.401L322.718 101.232L323 98.2657L323.141 97.2769Z" fill="black"/>
<path d="M326.107 84.9878C326.249 84.9878 326.39 85.1291 326.39 85.2703C326.39 85.4116 326.249 85.5528 326.107 85.5528C325.966 85.5528 325.825 85.4116 325.825 85.2703C325.684 85.1291 325.825 84.9878 326.107 84.9878Z" fill="#EDEDED"/>
<path d="M321.729 84.564C321.87 84.564 322.012 84.7052 322.012 84.8465C322.012 84.9877 321.87 85.129 321.729 85.129C321.588 85.129 321.447 84.9877 321.447 84.8465C321.305 84.7052 321.588 84.564 321.729 84.564Z" fill="#EDEDED"/>
<path d="M307.182 80.3262L312.831 87.389L311.419 95.8644L322.718 97.842V101.656L308.029 101.373C308.029 101.373 304.499 101.232 305.205 96.5707L307.182 80.3262Z" fill="#F6F6F6"/>
<path opacity="0.08" d="M307.606 78.2075C307.606 78.2075 306.617 96.7122 309.583 97.9835C312.126 99.1136 315.939 99.3961 318.622 99.8198C320.035 99.9611 321.447 100.244 323 100.385V101.797L308.312 101.515C308.312 101.515 304.781 101.374 305.488 96.7122L307.606 78.2075Z" fill="black"/>
<path opacity="0.1" d="M325.684 70.5794V71.2857C325.684 71.2857 323.142 72.6982 320.741 70.2969C320.599 70.2969 323.424 71.8507 325.684 70.5794Z" fill="black"/>
<path opacity="0.1" d="M325.542 60.9741L326.249 65.4944C326.249 65.4944 325.119 66.9069 324.13 65.3531H325.825L325.542 60.9741Z" fill="black"/>
<path d="M413.672 84.1399C415.931 81.8798 419.462 81.8798 421.581 84.1399L425.112 87.5301L379.917 132.732L376.527 129.342C374.268 127.082 374.268 123.551 376.527 121.432L413.672 84.1399Z" fill="#00B3BA"/>
<path d="M329.921 122.279H373.279C376.81 122.279 379.776 125.246 379.776 128.777V132.732H323.424V128.777C323.424 125.246 326.39 122.279 329.921 122.279Z" fill="#00B3BA"/>
<path opacity="0.1" d="M362.263 122.562C357.885 122.844 353.365 122.985 348.987 122.844C347.434 122.844 345.456 122.703 343.479 122.42H364.805C363.958 122.42 363.11 122.42 362.263 122.562Z" fill="black"/>
<path d="M283.737 149.825L316.08 127.647C319.045 125.67 323 126.376 325.118 129.342L327.378 132.591L284.302 162.114L282.042 158.865C279.924 155.899 280.771 151.802 283.737 149.825Z" fill="#00B3BA"/>
<path opacity="0.1" d="M299.273 146.152C307.888 142.338 315.515 136.546 321.87 129.625C322.576 128.918 322.859 128.071 322.859 127.364C323.141 127.506 323.282 127.647 323.565 127.788C323.847 125.952 324.836 124.398 326.248 123.409C331.756 127.929 339.807 130.19 346.586 130.048C367.912 129.907 374.833 126.517 374.833 125.952C385.707 126.658 408.587 100.526 412.683 96.0054C415.931 92.4739 420.31 89.225 422.569 84.9873L425.112 87.5299L379.917 132.732L379.776 132.591V132.732H327.096L284.302 162.114L282.042 158.865C280.771 156.887 280.63 154.627 281.477 152.649C287.55 151.096 293.623 148.694 299.273 146.152Z" fill="black"/>
<path d="M379.352 131.743L424.406 86.8237L425.818 88.2363L380.2 133.721L327.661 133.58L284.867 162.961L283.737 161.266L326.955 131.602L379.352 131.743Z" fill="white"/>
<path d="M331.191 131.461H386.696C393.899 131.461 399.831 137.252 399.831 144.457L406.186 188.105L403.503 188.529L397.147 144.88V144.739C397.147 138.948 392.487 134.286 386.696 134.286H331.191C325.401 134.286 320.74 138.948 320.74 144.739L318.904 188.387L316.221 188.246L318.057 144.598C318.057 137.252 323.989 131.461 331.191 131.461Z" fill="white"/>
<path d="M317.916 177.229H403.644V179.912H317.916V177.229Z" fill="white"/>
<path d="M396.159 86.2587C396.3 85.4112 396.159 84.7049 396.159 84.7049C393.193 81.8797 394.041 81.7385 394.041 81.7385L397.006 77.3595L396.583 76.512L399.972 75.2407L401.102 73.9694L404.492 72.4155L410.989 82.1623L402.373 89.3664C401.667 89.9314 400.537 94.0278 400.537 94.0278L387.826 90.7789L394.605 89.0839L396.159 86.2587Z" fill="#EAB99F"/>
<path opacity="0.1" d="M409.435 79.9023L410.989 82.1625L402.373 89.3666C401.667 89.9316 400.537 94.028 400.537 94.028L394.323 92.4742C395.029 92.0505 395.735 91.4854 396.441 90.9204C397.006 90.7791 406.752 84.1401 409.435 79.9023Z" fill="black"/>
<path opacity="0.1" d="M399.266 84.564C399.266 84.564 397.571 85.5528 397.006 85.4115L396.159 85.129L396.018 84.564L397.148 84.9877C397.43 85.129 399.266 84.564 399.266 84.564Z" fill="black"/>
<path opacity="0.1" d="M405.48 83.9989C407.175 83.0101 404.915 82.1626 404.915 82.1626C404.915 82.1626 406.61 82.1626 406.186 83.4339C405.904 84.564 402.514 85.5528 402.232 83.9989C402.232 83.9989 403.362 85.2702 405.48 83.9989Z" fill="black"/>
<path d="M290.516 130.049C294.047 130.755 299.979 129.484 301.956 128.918L327.378 113.945C327.802 113.521 328.367 113.239 328.932 112.956L359.014 108.719L371.16 109.849C371.16 109.849 374.832 122.421 362.686 122.279C353.365 122.138 331.474 121.997 326.531 122.279C325.824 122.703 321.587 125.387 321.164 125.67C319.751 126.235 308.594 130.755 304.922 131.885L305.063 132.026C304.781 132.309 304.639 132.45 304.639 132.45L293.058 133.156C293.2 133.297 289.528 129.907 290.516 130.049Z" fill="#EAB99F"/>
<path opacity="0.1" d="M321.87 123.127C330.203 118.748 331.615 113.663 331.474 112.674L359.014 108.86L371.16 109.99C371.16 109.99 374.832 122.562 362.686 122.421C353.365 122.279 331.474 122.138 326.531 122.421C325.824 122.844 321.587 125.528 321.164 125.811C319.751 126.376 308.594 130.896 304.922 132.026L305.063 132.167C304.781 132.45 304.64 132.591 304.64 132.591L293.058 133.297C293.058 133.297 293.058 133.297 292.917 133.156C298.425 132.874 304.216 130.613 308.594 128.777C312.972 127.082 317.774 125.387 321.87 123.127Z" fill="black"/>
<path d="M371.02 107.023L378.081 109.99C378.081 109.99 381.612 122.42 369.466 122.279C363.252 122.138 336.983 122.42 331.192 122.279C331.192 122.279 330.91 116.346 331.192 112.109L371.02 107.023Z" fill="#E83E40"/>
<path opacity="0.1" d="M354.777 118.042C361.698 117.759 373.42 117.759 377.375 110.555C377.516 110.272 377.657 109.99 377.657 109.849L378.222 110.131C378.222 110.131 381.753 122.562 369.607 122.421C363.393 122.279 337.123 122.562 331.333 122.421C331.333 122.421 331.333 121.149 331.191 119.313C334.016 119.313 336.699 119.172 339.383 119.03C344.608 118.607 349.693 118.183 354.777 118.042Z" fill="black"/>
<path d="M377.234 97.7005C375.962 94.1691 379.635 92.3328 379.635 92.3328L389.38 90.6377C389.521 91.6265 401.385 92.0503 401.385 92.0503C401.667 98.2656 397.571 101.514 396.724 102.221C395.876 102.927 386.696 110.837 384.154 112.956C381.612 115.075 375.115 122.279 375.115 122.279C366.5 115.075 361.98 107.871 361.98 107.871C361.98 107.871 377.375 98.4068 377.234 97.7005Z" fill="#383534"/>
<path opacity="0.1" d="M393.475 100.526C396.3 98.1243 398.842 95.5817 400.819 92.3328C400.819 92.1916 400.961 92.1915 400.961 92.0503C401.243 92.0503 401.243 92.0503 401.243 92.0503C401.526 98.2656 397.43 101.515 396.582 102.221C395.735 102.927 386.555 110.837 384.013 112.956C381.47 115.075 374.974 122.279 374.974 122.279C372.149 119.878 369.748 117.618 367.771 115.499C373.279 114.086 378.646 111.685 383.448 108.436C387.12 106.176 390.368 103.351 393.475 100.526Z" fill="black"/>
<path d="M350.258 117.194L358.167 118.889L357.037 121.573C356.331 122.562 353.506 122.421 353.506 122.421L348.422 121.432L343.338 122.138C341.925 122.562 341.925 121.15 341.925 121.15L350.258 117.194Z" fill="#EAB99F"/>
<path d="M403.503 74.5345L401.667 72.5569L402.656 71.7094C404.492 70.0143 407.175 69.873 409.717 72.6982L412.542 75.8058C415.508 79.196 414.378 84.14 411.553 86.6826L408.164 89.649C406.469 91.2028 403.927 91.0616 402.656 89.649L397.854 84.2812L402.797 80.8911C404.633 79.196 405.057 76.3709 403.503 74.5345Z" fill="#623E3B"/>
<path opacity="0.1" d="M407.74 84.7052C410.141 81.88 411.694 78.0661 411.271 74.5347L412.401 75.806C415.367 79.1961 414.237 84.1401 411.412 86.6828L408.022 89.6492C406.328 91.203 403.785 91.0617 402.514 89.6492L401.808 88.9429C404.068 87.9541 406.045 86.6828 407.74 84.7052Z" fill="black"/>
<path d="M387.967 99.5371C391.639 94.7344 393.899 93.7456 395.594 94.3106C401.526 96.0057 396.018 102.362 396.018 102.362C396.018 102.362 382.459 113.098 381.188 114.228C380.482 114.934 379.634 115.358 378.787 115.64L357.178 121.573L356.755 118.607L374.974 110.131C374.833 109.99 384.013 104.622 387.967 99.5371Z" fill="#4B4B4A"/>
<path opacity="0.1" d="M378.505 112.815C382.318 109.284 396.582 99.2543 397.147 95.1579V95.0166C400.255 97.2767 395.876 102.362 395.876 102.362C395.876 102.362 382.318 113.098 381.047 114.228C380.341 114.934 379.493 115.358 378.646 115.64L357.037 121.573L356.755 119.878C359.721 119.172 362.545 118.465 365.37 117.476C369.466 116.346 375.256 115.781 378.505 112.815Z" fill="black"/>
<path d="M287.692 129.06C288.821 128.495 291.929 130.049 291.929 130.049C291.929 130.049 292.07 130.755 292.211 131.179C292.352 131.602 292.494 132.45 294.047 132.732C295.459 133.015 303.792 132.309 305.063 132.167C305.204 132.309 305.063 133.297 304.781 134.286C304.357 135.699 303.086 136.405 303.086 136.405C303.086 136.405 297.719 139.513 297.154 139.937L296.024 140.784L294.753 139.371L295.742 138.524L298.002 136.546C298.567 136.123 298.849 135.699 298.425 135.275L295.601 135.558C294.894 135.558 293.482 135.699 293.482 135.699C292.07 135.699 290.657 134.286 290.657 134.286C290.657 134.286 287.268 130.049 287.127 129.625V129.484V129.342C287.55 129.201 287.692 129.201 287.692 129.06Z" fill="#383534"/>
<path d="M359.579 153.638H363.393V176.522H359.579V153.638Z" fill="#757574"/>
<path d="M359.297 165.928H363.534V173.132H359.297V165.928Z" fill="#757574"/>
<path d="M346.303 181.042L361.415 177.652V182.173L344.467 184.009V183.161C344.467 182.173 345.315 181.325 346.303 181.042Z" fill="#646463"/>
<path d="M378.363 183.302V184.15L361.415 182.314V177.793L376.527 181.184C377.657 181.325 378.363 182.172 378.363 183.302Z" fill="#646463"/>
<path d="M360.003 171.578H362.969C363.675 171.578 364.24 172.143 364.24 172.849V181.042C364.24 181.749 363.675 182.314 362.969 182.314H360.003C359.297 182.314 358.732 181.749 358.732 181.042V172.849C358.732 172.143 359.297 171.578 360.003 171.578Z" fill="#646463"/>
<path d="M360.003 179.771H363.11V185.139H360.003V179.771Z" fill="#777776"/>
<path d="M359.721 154.91L360.145 155.333L357.461 158.159H352.942V157.452H357.037L359.721 154.91Z" fill="#8A8A89"/>
<path d="M351.812 157.17H355.908C356.331 157.17 356.614 157.452 356.614 157.876C356.614 158.3 356.331 158.583 355.908 158.583H351.812C351.388 158.583 351.106 158.3 351.106 157.876C351.106 157.452 351.388 157.17 351.812 157.17Z" fill="#4B4B4A"/>
<path d="M348.846 148.694H373.985C374.55 148.694 375.115 149.118 375.115 149.824V155.192C375.115 155.616 374.833 155.898 374.409 155.898H348.563C348.14 155.898 347.857 155.616 347.857 155.192V149.824C347.857 149.118 348.281 148.694 348.846 148.694Z" fill="#4B4B4A"/>
<defs>
<linearGradient id="paint0_linear" x1="507.019" y1="103.352" x2="477.323" y2="103.352" gradientUnits="userSpaceOnUse">
<stop stop-color="white"/>
<stop offset="1" stop-color="white"/>
</linearGradient>
<linearGradient id="paint1_linear" x1="480.908" y1="22.8212" x2="480.908" y2="128.43" gradientUnits="userSpaceOnUse">
<stop stop-color="white"/>
<stop offset="1"/>
</linearGradient>
<linearGradient id="paint2_linear" x1="480.908" y1="22.8212" x2="480.908" y2="128.43" gradientUnits="userSpaceOnUse">
<stop stop-color="white"/>
<stop offset="1"/>
</linearGradient>
<linearGradient id="paint3_linear" x1="480.908" y1="22.8213" x2="480.908" y2="128.43" gradientUnits="userSpaceOnUse">
<stop stop-color="white"/>
<stop offset="1" stop-color="white"/>
</linearGradient>
<linearGradient id="paint4_linear" x1="177.926" y1="22.8212" x2="177.926" y2="128.43" gradientUnits="userSpaceOnUse">
<stop stop-color="white"/>
<stop offset="1"/>
</linearGradient>
<linearGradient id="paint5_linear" x1="177.926" y1="22.8212" x2="177.926" y2="128.43" gradientUnits="userSpaceOnUse">
<stop stop-color="white"/>
<stop offset="1"/>
</linearGradient>
<linearGradient id="paint6_linear" x1="177.926" y1="22.8213" x2="177.926" y2="128.43" gradientUnits="userSpaceOnUse">
<stop stop-color="white"/>
<stop offset="1" stop-color="white"/>
</linearGradient>
</defs>
</svg>
