<svg width="361" height="230" viewBox="0 0 361 230" fill="none" xmlns="http://www.w3.org/2000/svg">
<g clip-path="url(#clip0)">
<path d="M225.821 202.308L225.406 207.201L224.532 211.263L222.876 212.371L221.634 212.74L221.266 213.432L216.987 216.248C215.836 216.756 214.226 217.032 212.247 216.525C211.557 216.34 212.524 214.54 212.754 214.263C214.088 212.647 216.158 210.94 216.158 210.94L219.471 206.832L223.244 201.662L225.821 202.308Z" fill="#161711"/>
<path d="M263.871 197L262.813 198.985L262.215 201.2L262.307 204.708L264.193 204.985L265.62 204.662L266.54 205.308C266.54 205.308 271.923 206.37 273.948 206.462C277.306 206.601 279.147 206.231 279.791 205.585C280.159 205.216 278.595 204.524 278.089 204.431C275.098 203.97 271.969 202.031 271.969 202.031L269.531 199.262L269.07 197.277L263.871 197Z" fill="#161711"/>
<path d="M248.872 90.1447L217.999 206.647L225.867 207.155L240.82 170.09L244.455 158.92L262.261 115.07L265.666 90.9293L248.872 90.1447Z" fill="#007074"/>
<path d="M262.399 197.323L264.608 152.55L262.675 132.01L260.283 103.854L263.872 85.0212L276.11 86.9598L277.491 117.332L276.755 146.134L276.156 157.027L271.509 199.769L262.399 197.323Z" fill="#007074"/>
<path d="M243.949 103.577L239.578 101.453L239.026 100.946L239.578 99.9762L240.498 100.022L240.176 97.2529L244.639 96.1913L246.848 94.9912L245.145 102.653" fill="#E9D6B8"/>
<path d="M230.284 76.6665L246.756 94.668C246.756 94.668 246.341 97.4375 245.053 96.0528C244.915 95.8681 245.605 95.3142 244.639 94.8527C240.728 93.0064 231.664 90.283 228.167 87.2828C223.612 83.3132 220.253 78.559 220.253 78.559L230.284 76.6665Z" fill="#E9D6B8"/>
<path d="M298.012 56.8188C298.012 56.8188 305.281 57.3266 316.462 49.4798C320.235 46.8026 317.842 50.1721 316.186 54.3263C314.529 58.4805 304.913 63.2809 295.573 63.2809C286.233 63.3271 298.012 56.8188 298.012 56.8188Z" fill="#E9D6B8"/>
<path d="M315.082 51.9722C315.082 51.9722 314.944 46.9872 315.956 46.0179C316.968 45.0485 320.879 41.8175 320.879 41.8175L321.937 41.079C321.937 41.079 323.317 41.8637 320.649 44.0331C317.98 46.2025 319.821 45.8794 319.821 45.8794L322.903 44.8639L326.722 43.9408L328.379 43.2946C328.379 43.2946 329.299 42.8791 329.575 42.9253C330.449 43.2022 329.897 43.8023 329.897 43.8023L323.64 46.8949L330.081 45.6948C330.081 45.6948 330.909 45.6948 331.093 46.1102C331.231 46.5256 330.955 46.5718 330.955 46.5718L323.87 49.7105L327.228 49.4797C327.228 49.4797 328.057 49.4797 328.195 49.9413C328.379 50.4028 328.425 50.5413 328.425 50.5413L315.45 53.2646L315.082 51.9722Z" fill="#E9D6B8"/>
<path d="M313.707 50.2635L309.847 53.3295L313.646 58.1425L317.506 55.0765L313.707 50.2635Z" fill="#E7F5FE"/>
<path d="M238.854 85.8672L235.026 89.8597L239.437 94.1152L243.265 90.1228L238.854 85.8672Z" fill="#E7F5FE"/>
<path d="M324.191 48.0488L328.746 47.4949C328.746 47.4949 329.759 47.2642 330.265 47.4488C330.863 47.6796 330.679 48.2335 330.679 48.2335L323.823 49.8028L324.191 48.0488Z" fill="#E9D6B8"/>
<path d="M265.942 39.048C265.942 39.048 264.24 42.4637 273.396 60.6037C278.549 70.7584 281.494 77.1743 286.509 77.1743C295.067 77.1282 316.232 60.5575 316.232 60.5575L311.539 50.4951C311.539 50.4951 295.573 60.3267 290.42 58.5266C289.223 58.1111 275.696 40.5712 271.279 28.8471C269.439 23.9082 267.092 38.3095 265.942 39.048Z" fill="#D1DBEA"/>
<path d="M278.135 118.947L274.27 126.425L272.706 106.992L267.69 124.717L238.704 120.793C238.704 120.793 244.409 92.1295 247.124 80.4054L237.83 50.9567C237.83 50.9567 229.916 30.1857 242.845 29.2164C255.774 28.2471 270.681 27.4163 270.681 27.4163C270.681 27.4163 286.003 80.9131 278.135 118.947Z" fill="#DBE7F3"/>
<path d="M258.81 32.9553C258.81 32.9553 267.92 53.7263 262.307 75.005C261.847 76.6667 259.73 77.6822 259.73 77.6822L257.246 74.9588C257.154 74.9127 260.144 50.4952 258.81 32.9553Z" fill="#00939B"/>
<path d="M258.35 32.4474L257.614 36.8324L249.838 30.1857L249.792 29.0779L258.35 32.4474Z" fill="#D1DBEA"/>
<path d="M259.731 28.2471L262.215 36.2785L259.316 33.0013L259.731 28.2471Z" fill="#D1DBEA"/>
<path d="M238.979 50.2182L231.848 75.1896L241.97 88.2984C241.97 88.2984 237.967 94.2528 236.311 93.5604C224.854 88.76 215.79 72.2355 215.79 72.2355L226.188 38.3557C226.188 38.3557 230.513 31.1089 240.958 29.3549C248.504 28.0625 239.486 48.1411 238.979 50.2182Z" fill="#DBE7F3"/>
<path d="M248.596 23.9081C248.964 25.2467 249.562 27.2777 250.161 28.4778C251.127 30.3241 258.535 32.355 259.685 32.5858C260.835 32.8166 259.087 26.9084 258.995 25.5698C258.949 24.5544 258.304 24.8775 258.995 23.3542L248.596 23.9081Z" fill="#E9D6B8"/>
<path d="M259.546 27.7393L261.755 33.9244L264.562 57.6033L268.611 38.9556L265.298 35.7707L267.092 32.7705L263.089 27.8777L259.546 27.7393Z" fill="#E7F5FE"/>
<path d="M272.614 92.9141L268.841 104.361L246.387 109.669C246.387 109.669 244.409 92.0833 247.17 80.3592L237.875 50.9105C237.875 50.9105 229.962 30.1395 242.891 29.1702C244.731 29.0318 246.571 28.8933 248.412 28.7548C251.035 28.5702 255.912 36.0939 257.062 38.2633C258.304 40.5712 266.494 61.573 266.494 61.573L272.614 92.9141Z" fill="url(#paint0_linear)"/>
<path d="M249.24 28.2471L244.271 28.524L248.412 35.6323L253.335 38.5864L253.289 44.1715L266.08 62.45L257.752 38.3556L249.24 28.2471Z" fill="#D1DBEA"/>
<path d="M249.24 28.2471L244.271 28.524L248.412 35.3092L253.289 38.1248L253.243 43.4791L265.988 60.9268L257.706 37.894L249.24 28.2471Z" fill="#E7F5FE"/>
<path d="M259.684 32.5859L258.35 32.4474L258.488 35.6784L259.454 36.5554L260.789 36.0015L259.684 32.5859Z" fill="#00939B"/>
<path d="M264.792 94.8988L253.197 95.3142L251.081 108.377H258.81C258.81 108.377 262.905 108.377 263.549 104.915C264.194 101.453 264.792 94.8988 264.792 94.8988Z" fill="#E7F5FE"/>
<path d="M280.251 105.561L277.445 105.884L276.708 95.3605L280.711 94.9451C280.665 98.4531 280.527 102.007 280.251 105.561Z" fill="#E7F5FE"/>
<path d="M268.38 66.2811C268.38 66.2811 273.074 77.959 273.074 96.2836C273.074 96.2836 269.991 83.821 268.841 80.1745C265.114 68.1274 261.617 65.9118 256.878 60.9268C250.942 54.6493 263.733 55.3878 268.38 66.2811Z" fill="#D1DBEA"/>
<path d="M250.16 49.5718C249.746 47.9102 248.044 45.8792 246.618 46.0177L246.203 46.0639C244.777 46.2023 243.949 47.6794 244.363 49.2949" stroke="#1B5E8F" stroke-width="2.6265" stroke-miterlimit="10"/>
<path d="M250.528 37.9861L251.863 43.1558C252.691 46.3869 255.82 48.7409 258.856 48.464L261.985 48.1408C265.022 47.8177 266.816 44.956 265.988 41.7249L264.654 36.5552" stroke="#1B5E8F" stroke-width="2.668" stroke-miterlimit="10"/>
<path d="M259.041 26.8623C260.743 26.6777 262.445 28.0163 262.905 29.7703L265.85 41.1251" stroke="#1B5E8F" stroke-width="1.7787" stroke-miterlimit="10"/>
<path d="M259.041 26.8622C259.501 26.8161 259.915 26.8622 260.375 27.0007" stroke="#1B5E8F" stroke-width="2.668" stroke-miterlimit="10"/>
<path d="M250.943 27.7392C249.24 27.9238 248.274 29.4932 248.734 31.2933L251.679 42.6482" stroke="#1B5E8F" stroke-width="1.7787" stroke-miterlimit="10"/>
<path d="M250.942 27.7392C250.528 27.7854 250.114 27.9238 249.792 28.1085" stroke="#1B5E8F" stroke-width="2.668" stroke-miterlimit="10"/>
<path d="M260.881 21.1387C261.111 22.2927 260.421 23.4466 259.27 23.6774L249.93 25.7084C248.78 25.9392 247.676 25.2468 247.4 24.0928L244.409 10.1994C244.179 9.04541 244.869 7.89146 246.019 7.66067L255.359 5.62973C256.51 5.39894 257.614 6.09131 257.89 7.24525L260.881 21.1387Z" fill="#E9D6B8"/>
<path d="M258.534 10.1071C258.534 10.1071 259.5 8.49153 259.546 7.61453C259.592 7.15296 258.81 5.67591 257.66 5.30665C256.509 4.93739 255.865 6.2298 255.865 6.2298C255.865 6.2298 257.706 6.7837 257.89 7.1068C258.028 7.4299 258.534 10.1071 258.534 10.1071Z" fill="#163F59"/>
<path d="M244.777 16.6153C244.777 16.6153 242.2 11.5841 242.108 9.96859C242.016 8.35306 241.97 7.24528 243.811 6.64523C246.617 5.76823 246.755 6.36828 247.952 5.21433C249.148 4.06039 251.172 1.4294 252 1.01398C253.335 0.367766 255.681 0.321608 256.371 2.99876C256.878 4.98355 258.212 5.16818 258.212 5.26049C258.166 5.53744 257.66 5.86054 256.878 6.50675C254.577 8.39922 253.059 8.99927 250.942 8.90696C248.826 8.81464 244.869 8.49154 244.777 10.0609C244.685 11.6303 245.835 16.1076 245.697 16.4768C245.697 16.8923 245.191 16.8461 244.777 16.6153Z" fill="#194866"/>
<path d="M248.642 20.1695C248.734 20.5387 248.458 20.9542 248.09 21.0003L246.065 21.4619C245.697 21.5542 245.283 21.3234 245.237 20.908L244.455 17.2154C244.363 16.8461 244.593 16.4307 245.007 16.3845L247.031 15.9691C247.399 15.8768 247.814 16.1076 247.86 16.523L248.642 20.1695Z" fill="#E9D6B8"/>
<path d="M260.696 17.5385C260.788 17.9077 260.558 18.3231 260.144 18.3693L258.12 18.8309C257.752 18.9232 257.338 18.6924 257.292 18.277L256.509 14.5844C256.417 14.2151 256.647 13.7997 257.062 13.7535L259.086 13.2919C259.454 13.1996 259.868 13.4766 259.914 13.8458L260.696 17.5385Z" fill="#E9D6B8"/>
<path d="M245.973 17.677C245.973 17.677 247.169 23.1236 247.538 24.9699C247.906 26.6316 249.332 30.0935 258.626 28.0625C264.101 26.8624 263.043 22.8467 262.767 21.5081C262.537 20.4926 260.743 17.7232 260.052 17.2616C260.006 17.2616 260.559 19.5233 260.559 19.5233C260.559 19.5233 258.948 17.5847 256.326 18.1386C252.093 19.0617 251.678 21.7389 249.838 22.1082C248.32 22.3851 246.755 20.2619 245.973 17.677Z" fill="#194866"/>
<path d="M255.313 22.108L258.212 21.4618C258.58 21.3695 258.856 21.0003 258.764 20.631L258.672 20.2156L254.393 21.1387L254.485 21.5542C254.577 21.9234 254.945 22.2004 255.313 22.108Z" fill="#E9D6B8"/>
<path d="M252.003 48.3567L241.988 49.8332L242.437 52.893L252.452 51.4165L252.003 48.3567Z" fill="#E7F5FE"/>
<path d="M249.7 48.4181L250.574 51.0029L252.783 57.6035C253.473 60.3729 256.188 62.4039 258.764 62.1269L259.546 62.0346C262.123 61.7577 263.687 59.3113 262.951 56.5418L260.421 47.9565" stroke="#1B5E8F" stroke-width="2.668" stroke-miterlimit="10"/>
<path d="M135.18 133.21C136.054 132.656 139.137 136.072 140.425 139.072C142.956 144.98 143.646 148.257 144.612 154.812C146.176 165.151 148.845 181.629 149.719 188.599C150.501 194.923 153.032 202.354 149.259 201.339C149.305 192.661 145.348 179.645 143.048 172.767C135.134 149.319 132.419 134.918 135.18 133.21Z" fill="#E9D6B8"/>
<path d="M153.124 138.749C152.802 137.087 152.434 135.472 152.112 133.856C150.961 131.502 149.903 130.256 149.121 130.44C146.176 131.133 143.508 144.519 152.756 176.321C153.216 177.937 159.427 205.631 159.381 204.939C158.323 187.168 158.093 163.397 153.124 138.749Z" fill="#E9D6B8"/>
<path d="M159.704 207.016C161.314 210.247 163.292 212.555 164.167 212.14C165.041 211.724 164.397 208.724 162.832 205.493C161.222 202.262 159.243 199.954 158.369 200.37C157.495 200.785 158.139 203.739 159.704 207.016Z" fill="#007074"/>
<path d="M159.243 205.077C160.071 207.616 161.82 209.462 162.648 209.047C163.522 208.632 163.2 206.462 161.912 204.108C160.301 201.154 159.657 200.323 159.519 198.2C159.381 196.169 156.16 195.523 159.243 205.077Z" fill="#E9D6B8"/>
<path d="M142.634 200.139C142.634 200.139 143.508 199.769 145.854 199.308C147.235 199.031 148.293 199.031 148.799 198.523C149.627 197.646 149.167 195.569 149.581 195.661C151.56 196.123 152.204 200.692 151.054 201.293C149.903 201.846 143.462 201.108 142.91 201.062C142.404 201.062 142.496 200 142.634 200.139Z" fill="#E9D6B8"/>
<path d="M144.014 199.723C143.646 201.293 148.385 200.646 149.581 200.231C150.731 199.862 151.513 199.723 151.513 199.723C151.559 199.723 151.605 199.723 151.651 199.723C151.651 199.769 151.651 199.815 151.651 199.815C151.651 200.646 152.02 201.8 150.685 201.8H142.219C135.272 201.846 144.014 199.677 144.014 199.723Z" fill="#007074"/>
<path d="M131.177 16.5692L133.017 3.96811C135.318 1.52174 138.262 0.229327 141.299 0.690905C147.096 1.52174 150.869 8.49157 149.765 16.2461C148.661 24.0006 143.047 29.6318 137.25 28.7548C133.201 28.1548 130.118 24.5545 129.014 19.8002C130.164 19.1079 130.993 17.9539 131.177 16.5692Z" fill="#163F59"/>
<path d="M154.228 23.862C154.458 25.8929 152.342 27.7854 149.489 28.0624L143.048 28.8009C140.195 29.124 137.756 27.7393 137.526 25.7083L135.502 7.33752C135.272 5.30658 137.388 3.41411 140.241 3.13716L146.683 2.4448C149.535 2.12169 151.974 3.50643 152.204 5.53737L154.228 23.862Z" fill="#163F59"/>
<path d="M137.388 31.7551C133.569 33.4168 131.637 32.9091 134.582 34.1553C136.008 35.8632 153.952 33.463 154.964 31.2474C155.149 30.8781 147.833 29.8165 147.787 29.4934C147.327 26.2623 147.143 23.4929 148.063 19.8926C148.017 19.6156 147.787 19.3848 147.603 19.3848C146.222 19.431 144.888 19.431 143.508 19.4771C143.278 19.4771 140.609 20.0772 141.207 21.3696C141.437 24.8776 141.437 30.0011 137.388 31.7551Z" fill="#E9D6B8"/>
<path d="M136.146 21.0926C136.1 20.9541 136.008 20.8156 135.962 20.7233C135.962 20.6772 135.916 20.631 135.916 20.5849C135.824 20.4464 135.778 20.2617 135.686 20.0771C135.686 20.031 135.64 19.9848 135.64 19.9386C135.594 19.8002 135.548 19.6617 135.502 19.5694C135.456 19.4771 135.456 19.4309 135.41 19.3386C135.364 19.2463 135.318 19.1078 135.318 19.0155C135.272 18.9232 135.272 18.877 135.226 18.7847C135.18 18.6462 135.134 18.4616 135.088 18.3231C135.042 18.2308 135.042 18.0923 134.996 17.9539C134.95 17.8615 134.95 17.7231 134.904 17.6308C134.904 17.5384 134.858 17.4 134.858 17.3076C134.858 17.2153 134.812 17.123 134.812 17.0307C134.812 16.9384 134.766 16.8922 134.766 16.7999C134.536 15.5075 134.996 9.32235 136.008 6.41441C136.146 6.04515 136.514 5.7682 137.02 5.81436C140.195 6.18362 149.811 5.72204 147.327 14.5382C147.327 14.5382 147.189 15.3229 147.097 15.646C147.097 15.6921 147.097 15.6921 147.097 15.7383C147.005 16.1075 146.959 16.4306 146.867 16.7538C146.867 16.7999 146.867 16.7999 146.867 16.7999C146.774 17.123 146.682 17.4923 146.544 17.8154V17.8615C145.164 22.0157 142.772 24.739 140.195 24.5544C138.723 24.4621 137.388 23.3543 136.422 21.6465V21.6003C136.33 21.4618 136.284 21.3234 136.192 21.1849C136.192 21.1849 136.192 21.1387 136.146 21.0926Z" fill="#E9D6B8"/>
<path d="M188.828 28.4778C188.828 28.4778 189.518 28.8009 189.794 28.2932C190.254 27.4623 190.438 25.5237 190.438 24.8313C190.485 24.0467 190.024 20.4464 190.024 20.4464C190.024 20.4464 189.288 21.6003 189.472 23.0312C189.702 25.2006 188.828 28.4778 188.828 28.4778Z" fill="#E9D6B8"/>
<path d="M188.874 27.9701C189.472 26.7239 189.15 25.1545 188.368 23.4005C187.586 21.7388 188.138 20.6772 188.138 20.6772C188.138 20.6772 188.736 21.6927 189.702 24.416C189.978 25.1545 190.208 26.0315 190.162 26.8162C190.07 29.2625 187.31 31.155 188.874 27.9701Z" fill="#E9D6B8"/>
<path d="M163.108 43.2021C166.605 45.7869 169.688 54.9262 172.126 60.6959C173.461 63.9731 173.001 66.4195 173.001 66.4195C173.001 66.4195 171.804 74.0355 162.74 53.2645C160.44 48.0487 161.82 42.2328 163.108 43.2021Z" fill="#E9D6B8"/>
<path d="M188.874 26.4931L189.472 26.8624L189.886 29.2164C189.886 29.2164 188.828 33.3706 187.862 34.8015C186.896 36.2324 183.031 47.4487 182.387 47.9565C181.236 48.8335 178.982 45.7871 178.982 45.7871C178.982 45.7871 183.905 37.9402 184.917 35.4016C185.93 32.8629 186.114 28.801 186.482 27.7855C187.08 26.0777 187.31 25.1545 187.31 25.1545C187.31 25.1545 188.184 25.6161 187.402 28.3394C187.172 29.078 188.092 28.8933 188.092 28.8933L188.874 26.4931Z" fill="#E9D6B8"/>
<path d="M156.575 56.3572L132.557 56.1725L129.612 28.6163L158.093 31.3396L156.575 56.3572Z" fill="#007074"/>
<path d="M131.177 138.38C143.001 140.226 145.118 138.657 158.691 136.718C159.979 136.718 165.455 123.517 161.59 88.5755C160.808 81.3748 155.378 75.6051 156.621 56.0342C148.569 55.8957 140.471 55.7111 132.419 55.5726C135.64 73.3434 116.453 76.1129 131.177 138.38Z" fill="#007074"/>
<path d="M130.394 63.5577L133.799 39.4172L132.971 29.6779C132.419 29.124 131.683 28.7548 130.901 28.6163L130.348 28.5701C128.232 28.2932 126.345 30.0933 126.115 32.5397L123.447 65.5887L130.394 63.5577Z" fill="#DBE7F3"/>
<path d="M168.768 66.512L157.863 45.4179L154.55 33.0937C154.964 32.4937 155.609 31.986 156.345 31.709L156.851 31.5244C158.829 30.7859 161.038 31.8013 161.774 33.7861L173.369 57.8343L168.768 66.512Z" fill="url(#paint1_linear)"/>
<path d="M189.058 29.4473C189.058 29.4473 189.703 27.3702 189.38 26.3086C189.15 25.57 187.494 22.339 187.494 22.339C187.494 22.339 187.172 23.6776 187.862 24.97C188.782 26.8624 189.058 29.4473 189.058 29.4473Z" fill="#E9D6B8"/>
<path d="M188.046 28.9395C188.046 28.9395 187.448 29.078 187.218 28.8934C187.218 29.078 187.264 29.3088 187.264 29.4472C187.31 29.8165 187.126 32.2629 187.126 32.2629C187.126 32.2629 187.632 30.5089 187.862 30.0473C188 29.7242 188.184 29.0318 188.322 28.3856C188.322 28.2933 188.322 28.1548 188.322 28.0164L188.046 28.9395Z" fill="#E9D6B8"/>
<path d="M187.31 28.3856C187.862 26.5393 187.632 25.7546 187.448 25.3853C187.31 25.8007 187.126 26.5393 186.757 27.5086C186.619 27.8317 186.527 28.5702 186.389 29.4934C186.343 29.678 187.034 29.8165 187.264 31.2935C187.31 31.5705 187.816 29.9549 187.862 28.9856C187.678 28.9856 187.172 28.9395 187.31 28.3856Z" fill="#E9D6B8"/>
<path d="M142.082 18.6002C143.232 17.9078 144.06 16.7538 144.29 15.3691L146.13 2.76804C146.223 2.62957 146.361 2.53725 146.453 2.44493L146.683 2.39878C149.535 2.07567 151.974 3.46041 152.204 5.49135L154.228 23.8621C154.412 25.4315 153.17 26.9086 151.284 27.6009C150.962 27.6009 150.64 27.5548 150.317 27.5086C146.269 26.9547 143.186 23.3544 142.082 18.6002Z" fill="#163F59"/>
<path d="M130.901 28.6163L138.262 28.7548C138.262 28.7548 142.265 51.9722 142.265 58.7574C142.265 65.5426 137.618 84.1441 137.94 92.7757C138.262 101.453 138.262 123.701 138.262 123.701L119.766 121.209C119.766 121.209 122.849 90.6062 127.772 73.8971C131.683 60.6037 130.901 28.6163 130.901 28.6163Z" fill="url(#paint2_linear)"/>
<path d="M138.262 28.801L134.582 28.4779V34.1553L136.744 36.8325L135.824 39.6019L138.907 51.9722V76.3897C138.907 76.3897 142.909 54.7417 141.667 50.4028C140.425 46.1102 138.262 28.801 138.262 28.801Z" fill="#E7F5FE"/>
<path d="M150.593 30.3242L158.139 31.3397C158.139 31.3397 157.081 53.5416 156.759 60.0498C156.437 66.5581 160.164 78.2822 162.326 86.0367C166.099 99.607 172.494 119.455 172.494 119.455C172.494 119.455 157.403 122.871 148.753 123.794C147.787 123.886 146.59 113.593 146.912 82.0209C147.188 50.449 150.593 30.3242 150.593 30.3242Z" fill="url(#paint3_linear)"/>
<path d="M148.753 29.4011L145.624 50.4491L147.188 83.8211L149.673 48.2797L152.756 40.5251L151.835 37.7557L153.354 36.1863L152.112 29.4011H148.753Z" fill="#E7F5FE"/>
<path d="M149.857 38.4018L124.735 35.9092L133.293 68.6813L156.437 71.1738L149.857 38.4018Z" fill="#00939B"/>
<path d="M135.87 52.6647C138.722 48.2797 137.94 45.0948 138.4 42.9715C138.906 40.8483 139.09 38.4481 139.09 38.4942C140.149 40.5713 139.32 42.0022 139.412 43.0639C139.504 44.1255 139.366 43.7562 140.471 42.2792C141.115 41.4483 140.701 38.9558 140.609 37.3403C140.563 35.9094 140.885 35.2632 140.885 35.2632C140.885 35.2632 141.575 37.3403 141.805 39.5097C142.081 42.1407 141.851 45.0486 141.713 45.6948C141.437 46.8488 139.642 49.849 138.032 51.7877C136.238 53.9571 133.799 55.8496 135.87 52.6647Z" fill="#E9D6B8"/>
<path d="M126.208 63.7425C132.373 56.3111 140.563 47.8642 140.563 47.8642L129.336 67.1582C129.336 67.1582 123.125 67.4351 126.208 63.7425Z" fill="#E9D6B8"/>
<path d="M125.011 61.7116C125.011 61.7116 121.054 67.0659 124.597 69.0507C126.621 70.1585 128.278 69.4661 129.428 67.8506C131.591 64.8042 133.891 61.2039 133.891 61.2039L130.026 56.1265L125.011 61.7116Z" fill="#DBE7F3"/>
<path d="M141.851 43.8946C141.851 43.8946 143.001 39.9712 142.955 39.0942C142.909 38.4941 142.219 35.7708 142.219 35.7708C142.219 35.7708 141.667 37.2017 141.897 38.3095C142.081 39.4173 141.851 43.8946 141.851 43.8946Z" fill="#E2C59C"/>
<path d="M179.58 43.6177C179.58 43.6177 184.503 45.7871 183.905 47.9565C183.307 50.1259 177.418 67.112 173.737 68.6813C170.056 70.2507 168.17 65.2657 167.894 64.0194C167.525 62.8193 179.58 43.6177 179.58 43.6177Z" fill="url(#paint4_linear)"/>
<path d="M133.615 101.453L122.803 99.884L120.64 114.101L129.888 115.024C129.934 115.07 133.615 116.639 133.615 101.453Z" fill="#E7F5FE"/>
<path d="M151.835 100.253L161.682 98.6838C161.682 98.6838 165.409 108.839 163.246 111.654C161.958 113.316 154.596 114.147 154.596 114.147C154.596 114.147 152.434 113.224 151.835 100.253Z" fill="#E7F5FE"/>
<path d="M15.1376 217.632C15.5517 217.125 15.2297 215.832 15.2297 215.832C15.2297 215.832 8.09799 215.048 5.79746 215.602C5.19932 215.74 4.18708 216.248 3.22086 216.802C3.08282 216.894 2.76075 217.448 2.62272 217.54C2.34665 217.725 2.16261 217.448 1.93256 217.586C1.28841 218.002 0.8283 218.279 0.8283 218.325C0.18415 221.602 1.01234 222.941 1.01234 222.941C1.01234 222.941 6.90171 224.787 8.23602 223.541C11.7328 220.448 14.2634 218.74 15.1376 217.632Z" fill="#161711"/>
<path d="M32.0234 224.464L33.0357 229.818H38.4649C38.4649 229.818 38.787 229.08 39.2011 229.08C39.5692 229.08 40.0753 229.818 40.6274 229.818C41.7777 229.818 43.02 229.818 43.5261 229.818C44.5383 229.818 54.4306 229.818 54.4306 229.818C54.4306 229.818 54.6607 228.71 54.3846 228.295C54.2466 228.11 53.3264 227.741 52.7283 227.602C49.9216 226.818 41.9157 224.325 40.4894 221.648C38.787 218.371 32.0234 224.464 32.0234 224.464Z" fill="#161711"/>
<path d="M36.3488 44.3099L37.6371 37.8478C37.6371 37.8478 42.2382 38.2171 43.1124 35.7246C44.9068 30.7395 43.3884 22.8004 42.3302 20.5848C39.2475 14.2612 37.9132 3.1372 23.4658 11.9995C17.9445 15.3229 26.4565 31.6165 27.0546 35.1245C27.6988 38.6325 25.8123 42.6944 25.8123 42.6944L29.2171 45.2331L36.3488 44.3099Z" fill="#E9D6B8"/>
<path d="M10.6288 105.607L13.4355 125.963C13.4355 125.963 2.48492 117.516 1.70274 107.869C0.966571 98.2222 10.1227 104.869 10.6288 105.607Z" fill="#E2C59C"/>
<path d="M24.9842 143.595C24.9842 143.595 27.1007 144.518 20.8432 174.198C16.3341 195.569 12.5153 211.216 10.7208 218.279C10.0307 221.048 9.2485 220.54 9.2485 220.54L3.31311 221.186L0.460449 218.74L8.97243 170.274L24.9842 143.595Z" fill="#163F59"/>
<path d="M58.1117 92.3141L45.9648 115.716C45.9648 115.716 69.2003 98.8685 67.7279 89.5908C66.2556 80.3131 58.1117 92.3141 58.1117 92.3141Z" fill="#E9D6B8"/>
<path d="M10.4906 50.6336C10.4906 50.6336 5.56744 53.68 2.02462 78.236C-1.51821 102.792 0.736316 101.869 0.736316 101.869L1.38047 107.454L10.5826 108.423L15.5518 87.2367L10.4906 50.6336Z" fill="#ABFBFF"/>
<path d="M35.5662 114.608C35.5662 114.608 23.3274 171.428 13.251 197.046C7.36166 212.047 6.62549 183.568 6.62549 183.568L14.3553 101.269L42.6979 99.1915C42.6979 99.1453 39.5231 100.253 35.5662 114.608Z" fill="#163F59"/>
<path d="M23.2354 99.3763C23.2354 99.3763 33.4957 172.536 34.6 175.86C38.2809 187.03 43.8942 172.398 45.1825 168.659C46.4708 164.92 48.6333 137.364 48.1732 117.239C47.7591 97.1146 47.7591 97.1146 47.7591 97.1146L23.2354 99.3763Z" fill="#163F59"/>
<path d="M33.5421 157.535C33.5421 157.535 31.9777 166.259 30.6894 177.429C29.7232 185.599 29.7232 209.001 31.1955 225.248C31.2875 226.218 41.5939 223.217 41.5939 223.217C41.5939 223.217 45.3668 177.752 46.195 167.551C47.1152 157.396 40.0296 150.288 33.5421 157.535Z" fill="#163F59"/>
<path d="M10.1684 50.6797L22.3152 45.1408L25.674 41.9559L38.603 41.6328L40.8575 45.3716L50.8418 49.7104C50.8418 49.7104 53.3264 53.5877 51.1639 68.0812C48.7713 84.098 49.2775 152.873 49.2775 152.873C49.2775 152.873 35.2442 156.52 21.625 155.135C11.2266 154.073 8.00586 151.488 8.00586 151.488C8.00586 151.488 13.7112 58.4804 10.1684 50.6797Z" fill="#E9F6FF"/>
<path d="M47.6213 49.8027C47.6213 49.8027 49.8758 47.264 55.3511 54.1415C64.6912 65.8195 69.2463 80.2668 70.2125 83.0825C71.1788 85.8981 72.4211 89.8677 68.6022 94.4834C65.6575 98.0376 64.7373 99.2377 64.7373 99.2377L56.3633 93.9757L57.6976 91.437L58.6178 90.1908C58.6178 90.1908 54.1088 80.2207 49.2777 71.2199C44.4005 62.173 47.6213 49.8027 47.6213 49.8027Z" fill="#E9F6FF"/>
<path d="M38.235 22.4312C38.235 22.4312 36.5786 21.4157 36.3485 22.662C36.0725 23.9083 36.9927 26.6777 37.7288 26.9547C38.465 27.1855 38.7411 30.6011 38.7411 30.6011L36.7166 34.3861H26.5482C26.5482 34.3861 23.4195 33.0013 23.1435 30.7396C22.9134 28.4779 20.3828 12.4611 20.3828 12.4611L27.5605 8.67619C27.5605 8.67619 31.3334 6.78372 33.956 6.0452C38.0049 4.89125 38.8331 7.06067 38.7411 8.16845C38.6031 9.3224 39.8913 9.41471 41.5017 9.41471C43.1121 9.41471 45.1366 10.661 44.2624 11.4457C43.8943 11.7688 45.5047 12.7381 44.8605 13.9843C43.9403 15.6922 40.8576 16.2461 40.5815 19.0155C40.4895 20.308 39.9834 24.4622 38.235 22.4312Z" fill="#194866"/>
<path d="M310.572 37.2479C310.572 37.2479 308.363 38.5403 305.005 61.8961C301.646 85.252 303.532 84.1903 303.532 84.1903C303.532 84.1903 310.756 93.9758 309.928 92.6372C309.514 91.991 314.621 64.2502 314.621 64.2502L310.572 37.2479Z" fill="url(#paint5_linear)"/>
<path d="M331.553 104.084C331.553 104.084 321.155 141.057 312.827 154.304C304.499 167.551 301.6 150.334 301.6 150.334L314.529 89.2677L336.154 88.7138C336.154 88.6676 335.556 89.9139 331.553 104.084Z" fill="#163F59"/>
<path d="M320.097 88.8061C320.097 88.8061 327.044 149.457 328.057 152.504C331.415 162.797 339.145 156.15 340.341 152.735C341.538 149.319 343.516 123.886 343.102 105.331C342.688 86.7751 342.688 87.9752 342.688 87.9752L320.097 88.8061Z" fill="#194866"/>
<path d="M341.307 207.893C341.675 208.309 341.399 209.463 341.399 209.463C341.399 209.463 335.142 210.155 333.117 209.693C332.611 209.555 331.691 209.139 330.863 208.632C330.725 208.539 330.495 208.078 330.357 207.985C330.127 207.847 329.989 208.078 329.758 207.939C329.206 207.57 328.792 207.293 328.792 207.293C328.24 204.431 328.976 203.231 328.976 203.231C328.976 203.231 334.314 201.431 335.326 202.677C337.672 205.631 340.525 206.924 341.307 207.893Z" fill="#161711"/>
<path d="M302.336 205.308L301.462 210.016H296.677C296.677 210.016 296.401 209.37 295.987 209.37C295.665 209.37 295.205 210.016 294.745 210.016C293.732 210.016 292.628 210.016 292.168 210.016C291.294 210.016 282.598 210.016 282.598 210.016C282.598 210.016 282.368 209.047 282.644 208.678C282.782 208.493 283.564 208.216 284.116 208.032C286.555 207.339 293.64 205.17 294.837 202.816C296.355 199.954 302.336 205.308 302.336 205.308Z" fill="#161711"/>
<path d="M326.262 126.655C326.262 126.655 327.826 149.642 327.596 161.828C327.412 171.013 327.412 188.599 328.792 203.554C328.884 204.477 336.338 203.785 336.338 203.785C336.338 203.785 341.353 146.457 342.135 137.041C342.964 127.625 332.243 119.916 326.262 126.655Z" fill="#194866"/>
<path d="M304.176 152.088C304.176 152.088 306.293 152.55 312.918 153.104C315.955 153.381 304.084 206.185 304.084 206.185L294.698 202.123L301.784 148.95L304.176 152.088Z" fill="#163F59"/>
<path d="M323.547 30.278C323.777 33.0475 325.296 35.4938 326.86 35.5861C328.332 35.5861 329.851 35.5861 331.323 35.5861C332.887 35.4938 334.406 33.0475 334.636 30.278C335.004 25.6622 335.372 21.0926 335.74 16.4768C335.97 13.7074 334.912 8.16843 332.519 6.5529C330.357 5.12201 327.826 5.12201 325.664 6.5529C323.271 8.16843 322.213 13.7074 322.443 16.4768C322.811 21.0464 323.179 25.6622 323.547 30.278Z" fill="#E9D6B8"/>
<path d="M311.584 37.5711L322.213 30.9705L330.403 33.5092L338.317 32.5399L347.059 36.6941C347.059 36.6941 346.139 40.8021 344.758 53.634C343.286 67.4352 344.206 89.4063 344.206 89.4063L312.505 91.6218C312.551 91.5757 314.713 44.9563 311.584 37.5711Z" fill="#7EB3FF"/>
<path d="M328.148 32.8628L329.851 37.3863L337.443 32.032L334.958 29.6779L328.148 32.8628Z" fill="#3FE0E6"/>
<path d="M323.133 29.2626L328.148 32.8629L325.203 36.7402L321.477 31.4321L323.133 29.2626Z" fill="#3FE0E6"/>
<path d="M328.379 3.27577V0.0908813H327.044H323.593H321.523C319.222 0.0908813 317.336 1.98335 317.336 4.29124V7.47613H318.67H322.121H324.192C326.538 7.47613 328.379 5.58366 328.379 3.27577Z" fill="#163F59"/>
<path d="M335.004 22.662C335.004 24.7391 333.348 26.4007 331.277 26.4007H322.857C320.787 26.4007 319.13 24.7391 319.13 22.662V5.72206C319.13 3.64496 320.787 1.98328 322.857 1.98328H331.277C333.348 1.98328 335.004 3.64496 335.004 5.72206V22.662Z" fill="#E9D6B8"/>
<path d="M328.655 0.0908813C330.127 0.0908813 331.415 0.829406 332.151 1.98335H333.578C335.372 1.98335 336.798 3.4604 336.798 5.2144V13.2458H334.498V9.96865C334.498 8.72239 333.486 7.66076 332.197 7.66076H330.863H327.412H325.342C323.041 7.66076 321.155 5.76829 321.155 3.4604V0.0908813H328.655Z" fill="#163F59"/>
<path d="M333.854 15.3691C333.854 14.2613 334.728 13.3843 335.832 13.3843H336.016C337.12 13.3843 337.995 14.2613 337.995 15.3691V17.7693C337.995 18.8771 337.12 19.7541 336.016 19.7541H335.832C335.004 19.7541 334.314 19.2463 334.038 18.5539" fill="#E9D6B8"/>
<path d="M329.713 54.9264C329.713 54.9264 326.032 69.143 324.053 81.0978C322.075 93.0527 320.648 134.918 320.648 138.333C320.648 141.749 331.415 140.918 335.142 140.041C338.823 139.164 345.356 137.18 345.356 137.18C345.356 137.18 344.206 82.5287 344.482 74.5434C344.758 66.5581 347.059 36.6017 347.059 36.6017L338.501 32.4014L329.713 54.9264Z" fill="#DBE7F3"/>
<path d="M335.832 30.3242L331.691 40.9867L326.906 67.0658L337.672 42.6945L336.522 39.2788L339.375 39.0019L340.709 33.3245L335.832 30.3242Z" fill="#E7F5FE"/>
<path d="M320.511 31.8013L310.572 37.2479C310.572 37.2479 311.999 58.4805 312.229 70.6662C312.459 82.8518 312.229 91.5756 312.229 91.5756L304.361 133.441C304.361 133.441 313.103 136.21 313.931 136.441C314.805 136.672 316.692 137.733 318.394 134.964C320.097 132.194 324.56 88.6216 324.56 88.6216L323.271 65.7735L321.569 38.4481L320.511 31.8013Z" fill="#D1DBEA"/>
<path d="M322.627 29.4471L324.605 51.2336L323.179 76.5743L318.394 45.5562L320.096 41.8636L317.796 41.2635L318.394 32.8628L322.627 29.4471Z" fill="#E7F5FE"/>
<path d="M309.928 94.1605C309.928 94.1605 313.057 112.208 311.538 114.008C310.02 115.808 308.226 106.115 306.615 97.0684C304.959 88.0215 307.811 92.0834 309.928 94.1605Z" fill="#E9D6B8"/>
<path d="M302.843 80.7285C302.152 87.2829 306.892 108.931 306.892 108.931H312.873L310.296 80.3131C310.296 80.2669 303.487 74.4972 302.843 80.7285Z" fill="url(#paint6_linear)"/>
<path d="M317.106 111.885L306.523 111.1L306.201 113.87L316.37 115.024L317.106 111.885Z" fill="#E7F5FE"/>
<path d="M316.508 114.101L306.661 113.593L305.189 128.133C305.189 128.133 311.63 128.871 313.287 127.071C315.265 124.855 316.508 114.101 316.508 114.101Z" fill="#DBE7F3"/>
<path d="M338.823 114.285L329.069 115.808C329.069 115.808 327.78 127.994 330.587 130.348C332.151 131.641 337.028 129.748 338.271 127.625C339.789 125.04 338.823 114.285 338.823 114.285Z" fill="url(#paint7_linear)"/>
<path d="M339.007 112.116L329.022 112.947L329.207 115.716L339.467 114.885L339.007 112.116Z" fill="#E7F5FE"/>
<path d="M351.154 93.2372L331.231 107.269C331.231 107.269 340.019 91.1601 347.197 88.1137C354.328 85.0673 351.154 93.2372 351.154 93.2372Z" fill="#E9D6B8"/>
<path d="M334.774 103.392C334.774 103.392 330.771 102.284 329.851 102.976C328.885 103.669 325.572 106.484 325.572 106.484L324.79 107.269C324.79 107.269 325.158 108.608 327.366 106.715C329.575 104.823 329.023 106.346 329.023 106.346L327.688 108.838L326.262 112.023L325.434 113.362C325.434 113.362 324.928 114.1 324.928 114.377C324.974 115.162 325.572 114.839 325.572 114.839L329.161 109.9L327.09 115.347C327.09 115.347 326.952 116.085 327.274 116.316C327.596 116.501 327.688 116.316 327.688 116.316L331.461 110.731L330.679 113.685C330.679 113.685 330.541 114.424 330.863 114.654C331.185 114.885 331.277 114.977 331.277 114.977L335.786 104.084L334.774 103.392Z" fill="#E9D6B8"/>
<path d="M329.943 110.639L328.701 114.562C328.701 114.562 328.332 115.393 328.378 115.901C328.471 116.454 328.931 116.408 328.931 116.408L331.369 110.685L329.943 110.639Z" fill="#E9D6B8"/>
<path d="M341.97 92.4069L337.183 96.0815L340.51 100.444L345.297 96.7693L341.97 92.4069Z" fill="#E7F5FE"/>
<path d="M343.516 59.3112L350.003 82.7132L338.593 94.4835C338.593 94.4835 341.86 100.761 343.562 100.299C355.387 96.8375 361 83.7749 361 83.7749L354.558 49.295C354.558 49.295 351.338 37.6171 346.139 36.6478C338.731 35.2169 343.286 57.2341 343.516 59.3112Z" fill="#DBE7F3"/>
</g>
<defs>
<linearGradient id="paint0_linear" x1="266.407" y1="62.8178" x2="252.746" y2="67.6327" gradientUnits="userSpaceOnUse">
<stop stop-color="#D1DBEA"/>
<stop offset="1" stop-color="#DBE7F3"/>
</linearGradient>
<linearGradient id="paint1_linear" x1="173.397" y1="48.9123" x2="154.566" y2="48.9123" gradientUnits="userSpaceOnUse">
<stop stop-color="#D1DBEA"/>
<stop offset="1" stop-color="#DBE7F3"/>
</linearGradient>
<linearGradient id="paint2_linear" x1="142.256" y1="76.1921" x2="119.746" y2="76.1921" gradientUnits="userSpaceOnUse">
<stop stop-color="#D1DBEA"/>
<stop offset="1" stop-color="#DBE7F3"/>
</linearGradient>
<linearGradient id="paint3_linear" x1="172.473" y1="77.0387" x2="146.831" y2="77.0387" gradientUnits="userSpaceOnUse">
<stop stop-color="#D1DBEA"/>
<stop offset="1" stop-color="#DBE7F3"/>
</linearGradient>
<linearGradient id="paint4_linear" x1="183.935" y1="56.3069" x2="167.842" y2="56.3069" gradientUnits="userSpaceOnUse">
<stop stop-color="#D1DBEA"/>
<stop offset="1" stop-color="#DBE7F3"/>
</linearGradient>
<linearGradient id="paint5_linear" x1="314.544" y1="65.0201" x2="302.957" y2="65.0201" gradientUnits="userSpaceOnUse">
<stop stop-color="#D1DBEA"/>
<stop offset="1" stop-color="#DBE7F3"/>
</linearGradient>
<linearGradient id="paint6_linear" x1="312.841" y1="93.367" x2="302.772" y2="93.367" gradientUnits="userSpaceOnUse">
<stop stop-color="#DBE7F3"/>
<stop offset="1" stop-color="#D1DBEA"/>
</linearGradient>
<linearGradient id="paint7_linear" x1="340.265" y1="121.271" x2="328.46" y2="123.737" gradientUnits="userSpaceOnUse">
<stop stop-color="#DBE7F3"/>
<stop offset="1" stop-color="#D1DBEA"/>
</linearGradient>
<clipPath id="clip0">
<rect y="0.0908813" width="361" height="229.727" fill="white"/>
</clipPath>
</defs>
</svg>
