<svg width="475" height="831" viewBox="0 0 475 831" fill="none" xmlns="http://www.w3.org/2000/svg">
    <g clip-path="url(#clip0)">
        <path opacity="0.4" d="M391.816 696.184C364.936 694.658 272.792 688.202 208.937 672.004C71.2499 637.142 -62.0944 684.328 30.9884 744.897C55.0514 760.626 -12.2076 819.786 149.191 829.411C265.163 836.336 367.636 810.043 409.541 793.14C448.394 777.529 464.357 756.283 471.752 745.836C478.326 736.915 476.565 700.997 391.816 696.184Z" fill="#ABFBFF"/>
        <path d="M227.131 662.613L231.24 668.834L197.082 679.751C197.082 679.751 194.852 677.52 203.186 673.177C212.928 668.13 227.131 662.613 227.131 662.613Z" fill="#88BDDA"/>
        <path d="M233.235 662.613L229.127 668.834L263.284 679.751C263.284 679.751 265.515 677.52 257.181 673.177C247.438 668.13 233.235 662.613 233.235 662.613Z" fill="#88BDDA"/>
        <path d="M233.822 644.184H226.662V669.539H233.822V644.184Z" fill="#88BDDA"/>
        <path d="M226.662 663.904L230.183 669.773L200.955 680.22C200.955 680.22 198.96 678.107 206.12 673.999C214.454 669.187 226.662 663.904 226.662 663.904Z" fill="#ACD5F4"/>
        <path d="M233.705 663.904L230.183 669.773L259.411 680.22C259.411 680.22 261.406 678.107 254.246 673.999C245.795 669.187 233.705 663.904 233.705 663.904Z" fill="#ACD5F4"/>
        <path d="M204.242 682.685C204.242 684.094 203.186 685.15 201.777 685.15C200.368 685.15 199.312 684.094 199.312 682.685C199.312 681.277 200.368 680.22 201.777 680.22C203.186 680.22 204.242 681.277 204.242 682.685Z" fill="#001F46"/>
        <path d="M260.937 682.685C260.937 684.094 259.88 685.15 258.472 685.15C257.063 685.15 256.007 684.094 256.007 682.685C256.007 681.277 257.063 680.22 258.472 680.22C259.763 680.22 260.937 681.277 260.937 682.685Z" fill="#001F46"/>
        <path d="M198.256 682.685C198.256 684.094 197.199 685.15 195.791 685.15C194.382 685.15 193.326 684.094 193.326 682.685C193.326 681.277 194.382 680.22 195.791 680.22C197.082 680.22 198.256 681.277 198.256 682.685Z" fill="#367082"/>
        <path d="M266.923 682.685C266.923 684.094 265.867 685.15 264.458 685.15C263.05 685.15 261.993 684.094 261.993 682.685C261.993 681.277 263.05 680.22 264.458 680.22C265.75 680.22 266.923 681.277 266.923 682.685Z" fill="#367082"/>
        <path d="M232.648 634.911H227.483V644.067H232.648V634.911Z" fill="#00939B"/>
        <path d="M236.639 630.099C236.639 632.916 234.409 635.146 231.592 635.146H228.775C225.958 635.146 223.727 632.916 223.727 630.099C223.727 627.282 225.958 625.051 228.775 625.051H231.592C234.292 624.934 236.639 627.282 236.639 630.099Z" fill="#00939B"/>
        <path d="M268.919 625.404C269.036 624.817 269.154 621.06 269.154 620.356C269.154 616.248 266.454 612.961 263.167 612.961H197.082C193.795 612.961 191.095 616.248 191.095 620.356C191.095 620.943 191.213 624.817 191.33 625.404H268.919Z" fill="#3FE0E6"/>
        <path d="M190.509 627.399C190.509 628.69 191.213 629.629 192.152 629.629H268.097C269.036 629.629 269.74 628.573 269.74 627.399C269.74 626.108 269.036 625.169 268.097 625.169H192.152C191.213 625.169 190.509 626.108 190.509 627.399Z" fill="#00939B"/>
        <path d="M215.98 612.492C215.98 612.492 256.946 612.609 272.792 612.844C283.709 612.961 284.765 597.35 280.422 595.002C267.276 587.842 226.427 584.203 226.427 584.203L198.608 609.792C198.608 609.675 200.134 609.675 215.98 612.492Z" fill="#194866"/>
        <path d="M168.793 690.902C168.206 691.724 168.676 693.719 168.676 693.719C168.676 693.719 179.71 694.893 183.231 694.071C184.17 693.836 185.696 693.015 187.222 692.193C187.457 692.076 187.926 691.254 188.161 691.019C188.631 690.785 188.865 691.254 189.217 690.902C190.156 690.315 190.861 689.845 190.861 689.728C191.8 684.681 190.509 682.568 190.509 682.568C190.509 682.568 181.118 679.399 179.357 681.629C175.249 686.911 170.202 689.141 168.793 690.902Z" fill="#161711"/>
        <path d="M272.088 685.385L272.91 693.719L281.244 694.541C281.244 694.541 281.831 693.484 282.535 693.484C283.122 693.484 283.826 694.775 284.648 694.893C286.409 695.01 288.404 695.245 289.108 695.362C290.634 695.48 305.894 697.006 305.894 697.006C305.894 697.006 306.481 695.362 306.011 694.658C305.776 694.306 304.485 693.719 303.546 693.367C299.32 691.724 287.348 686.794 285.587 682.451C283.357 677.051 272.088 685.385 272.088 685.385Z" fill="#161711"/>
        <path d="M195.321 597.35C195.321 597.35 192.621 623.173 192.974 636.789C193.326 647.119 193.326 666.722 190.861 683.624C190.743 684.681 177.597 683.859 177.597 683.859C177.597 683.859 172.902 619.887 171.493 609.44C170.084 598.758 174.193 591.246 195.321 597.35Z" fill="#194866"/>
        <path d="M277.957 603.571C277.957 603.571 273.732 610.261 262.111 611.787C257.885 612.374 268.919 686.559 268.919 686.559L286.056 681.042L282.77 598.993L277.957 603.571Z" fill="#163F59"/>
        <path d="M230.653 611.787C230.653 611.787 208.233 614.957 193.208 616.6C187.692 617.187 182.996 601.81 182.292 601.106C178.301 596.88 174.31 597.467 174.428 597.232C177.714 593.711 194.5 590.424 211.989 586.316C229.479 582.207 232.179 584.79 232.179 584.79L230.653 611.787Z" fill="#163F59"/>
        <path d="M192.856 611.67L191.096 661.792L189.452 673.412L189.217 661.792L189.57 654.514L185.579 643.245L183.466 617.187L186.518 618.361L186.166 606.857L192.856 611.67Z" fill="#163F59"/>
        <path d="M277.37 597.35L281.596 598.523L283.122 658.857L274.318 680.455L278.544 665.782L276.783 635.498C276.783 635.498 270.679 650.171 270.679 649.467C270.679 648.762 275.844 617.656 275.844 617.656C275.844 617.656 270.093 622.469 270.679 622.234C271.266 621.765 274.084 600.167 277.37 597.35Z" fill="#194866"/>
        <path d="M212.107 586.433C194.617 590.542 177.714 593.828 174.545 597.35C174.427 597.467 178.301 596.997 182.409 601.223C182.527 601.458 183.583 606.27 184.287 608.149C181.47 602.984 222.671 588.429 231.592 584.672C229.831 583.968 225.018 583.381 212.107 586.433Z" fill="#194866"/>
        <path d="M208.116 526.804C208.116 526.804 192.152 529.504 190.274 532.79C179.358 553.215 171.728 572.465 169.732 578.334C168.206 582.912 164.098 599.697 174.31 600.988C176.071 601.223 183.231 599.462 183.231 599.462L188.278 597.702L186.166 593.711L186.048 590.542C186.048 590.542 192.504 575.047 200.369 560.492C208.116 545.937 208.116 526.804 208.116 526.804Z" fill="#ABFBFF"/>
        <path d="M186.987 596.645C186.987 596.645 196.73 601.106 200.134 606.036C203.655 610.966 204.829 608.97 204.829 608.97L219.971 596.058C219.971 596.058 205.533 590.894 186.987 596.645Z" fill="#E9F6FF"/>
        <path d="M259.294 586.668L274.201 591.598C274.201 591.598 268.215 591.363 263.05 595.589C259.411 598.523 252.133 607.796 252.133 607.796C252.133 607.796 236.17 599.58 233.235 597.115C230.183 594.65 252.016 586.668 259.294 586.668Z" fill="#E9F6FF"/>
        <path d="M249.903 528.799C249.903 528.799 262.463 529.034 265.045 539.598C270.093 560.492 269.388 564.366 270.445 584.203C270.562 586.198 270.328 591.363 258.589 591.598C253.777 591.715 254.012 582.794 254.012 582.794C254.012 582.794 250.96 574.108 247.673 559.436C244.504 544.646 249.903 528.799 249.903 528.799Z" fill="#ABFBFF"/>
        <path d="M259.294 531.03L235.935 521.17L215.511 519.761L193.208 530.208C193.208 530.208 189.687 530.795 190.978 548.402C192.387 566.713 196.73 589.72 196.73 589.72L254.598 591.598C254.598 591.598 253.072 558.144 255.772 543.237C256.711 537.955 256.711 533.964 259.294 531.03Z" fill="#E9F6FF"/>
        <path d="M259.411 579.742L231.122 591.246C231.122 591.246 251.194 594.063 263.637 591.598C272.206 589.837 259.763 579.39 259.411 579.742Z" fill="#E9D6B8"/>
        <path d="M183.348 585.611L212.576 587.137C212.576 587.137 184.405 600.049 183.466 597.819C178.301 585.142 183.348 585.611 183.348 585.611Z" fill="#E9D6B8"/>
        <path d="M199.547 584.673C201.308 583.851 201.073 583.851 201.073 583.851C201.073 583.851 202.599 585.729 204.946 586.081C206.12 586.198 209.759 586.316 209.759 586.316L215.159 586.433L217.623 586.316C217.623 586.316 219.032 586.081 219.384 586.316C220.441 587.02 219.502 587.607 219.502 587.607L209.876 589.016L219.149 590.189C219.149 590.189 220.323 590.542 220.323 591.128C220.323 591.715 219.971 591.715 219.971 591.715L209.172 592.889L213.867 594.063C213.867 594.063 215.041 594.415 215.041 595.002C215.158 595.706 215.159 595.824 215.159 595.824L205.299 594.885C205.299 594.767 197.786 585.494 199.547 584.673Z" fill="#E9D6B8"/>
        <path d="M210.229 590.659L216.684 591.833C216.684 591.833 218.21 591.95 218.797 592.42C219.502 593.007 219.149 593.593 219.149 593.593L209.172 592.772L210.229 590.659Z" fill="#E9D6B8"/>
        <path d="M180.179 599.815C180.179 599.815 170.789 604.979 171.258 586.198C171.376 583.029 183.583 583.968 183.583 583.968L198.021 584.673L202.481 595.589L180.179 599.815Z" fill="#ABFBFF"/>
        <path d="M184.64 591.833L200.251 589.837L198.138 584.673L183.701 583.968C183.701 583.968 182.292 583.499 176.306 585.729C167.267 591.363 184.64 591.833 184.64 591.833Z" fill="#E9F6FF"/>
        <path d="M267.51 591.246C267.51 591.246 270.328 587.372 270.093 586.198C268.919 579.156 260.702 577.864 260.702 577.864L239.104 583.616L244.034 594.532L267.51 591.246Z" fill="#ABFBFF"/>
        <path d="M212.811 524.808C212.811 524.808 236.405 517.648 236.874 525.043C237.344 532.556 233.118 564.366 230.888 569.296C228.657 574.226 220.91 565.305 217.271 549.224C213.515 533.025 212.811 524.808 212.811 524.808Z" fill="#00C6CE"/>
        <path d="M215.863 527.508L221.028 548.871L221.497 566.713L211.285 538.425L213.985 535.725L209.759 535.49C209.759 535.49 209.994 525.278 212.694 522.109C215.393 518.822 220.323 519.174 217.858 521.404C215.511 523.517 215.863 527.508 215.863 527.508Z" fill="#ABFBFF"/>
        <path d="M235.113 521.287C235.113 521.287 238.869 521.052 240.043 524.222C241.334 527.508 242.273 534.903 242.273 534.903L238.517 536.664L241.452 539.364L230.301 570.235C230.301 570.235 231.005 545.35 232.061 540.42C233.118 535.49 235.113 521.287 235.113 521.287Z" fill="#ABFBFF"/>
        <path d="M234.761 527.508C234.409 530.677 231.827 533.377 229.127 533.495C226.545 533.495 224.08 533.495 221.497 533.495C218.797 533.377 216.215 530.677 215.863 527.508C215.276 522.343 214.572 517.179 213.985 512.014C213.515 508.962 215.393 502.741 219.502 500.863C223.258 499.22 227.484 499.22 231.24 500.863C235.348 502.741 237.109 508.962 236.757 512.014C236.052 517.296 235.465 522.343 234.761 527.508Z" fill="#E2C59C"/>
        <path d="M224.197 491.12C222.084 491.12 220.206 492.177 219.032 493.937H216.919C214.337 493.937 212.224 496.05 212.224 498.633V510.371H215.511V505.558C215.511 503.68 217.037 502.271 218.797 502.271H220.793H217.741H219.736C223.141 502.271 225.84 499.572 225.84 496.168V491.12H224.197Z" fill="#163F59"/>
        <path d="M218.21 514.714C218.21 516.357 216.919 517.648 215.276 517.648H215.041C213.398 517.648 212.107 516.357 212.107 514.714V511.192C212.107 509.549 213.398 508.258 215.041 508.258H215.276C216.45 508.258 217.506 508.962 217.976 510.018" fill="#E2C59C"/>
        <path d="M221.615 495.815V491.12H223.493H228.54H231.592C234.996 491.12 237.696 493.82 237.696 497.224V501.919H235.818H230.77H227.718C224.314 501.919 221.615 499.219 221.615 495.815Z" fill="#163F59"/>
        <path d="M236.874 519.174C236.874 521.639 234.996 525.747 231.944 527.039C227.718 528.799 222.788 528.799 218.563 527.039C215.511 525.747 213.633 521.639 213.633 519.174C213.633 512.249 213.633 505.323 213.633 498.515C213.633 496.05 216.098 494.055 219.032 493.937C223.14 493.937 227.249 493.937 231.357 493.937C234.409 493.937 236.757 496.05 236.757 498.515C236.874 505.323 236.874 512.249 236.874 519.174Z" fill="#E9D6B8"/>
        <path d="M227.601 491.12C229.714 491.12 231.592 492.177 232.766 493.937H234.878C237.461 493.937 239.574 496.05 239.574 498.633V510.371H236.287V505.558C236.287 503.68 234.761 502.271 233 502.271H234.174H228.775C225.371 502.271 222.671 499.572 222.671 496.168V491.12H227.601Z" fill="#163F59"/>
        <path d="M233.587 511.192C233.587 509.549 234.879 508.258 236.522 508.258H236.757C238.4 508.258 239.691 509.549 239.691 511.192V514.714C239.691 516.357 238.4 517.648 236.757 517.648H236.522C235.348 517.648 234.292 516.944 233.822 515.887" fill="#E9D6B8"/>
        <path d="M222.554 496.989C222.671 496.637 222.671 496.168 222.671 495.815V491.12H220.793H218.328C214.924 491.12 212.224 493.82 212.224 497.224V501.919H213.515H214.22H216.685C217.154 501.919 217.506 501.919 217.976 501.802C218.328 499.337 220.206 497.459 222.554 496.989Z" fill="#163F59"/>
        <path d="M250.842 595.706C250.842 595.706 250.959 595.706 250.842 595.706V593.828H193.208V595.706C193.208 595.706 193.208 595.706 193.208 595.824L193.443 596.176C194.382 597.819 196.143 598.054 198.256 598.054H246.03C248.025 598.054 249.786 597.819 250.842 596.176V595.706Z" fill="#B6C2C9"/>
        <path d="M241.099 594.298H202.951V595.589H241.099V594.298Z" fill="#879BA6"/>
        <path d="M250.842 594.063L250.96 556.266C250.96 555.327 250.138 554.506 249.199 554.506H195.204C194.147 554.506 193.443 555.327 193.443 556.266L193.326 594.063H250.842Z" fill="#D7DFE2"/>
        <path d="M225.605 574.226C225.605 576.104 224.079 577.747 222.084 577.747C220.206 577.747 218.562 576.221 218.562 574.226C218.562 572.348 220.088 570.704 222.084 570.704C224.079 570.704 225.605 572.348 225.605 574.226Z" fill="#B6C2C9"/>
        <path d="M102.356 173.958C102.356 187.691 91.2048 198.96 77.3539 198.96C63.6203 198.96 52.3518 187.809 52.3518 173.958C52.3518 160.224 63.503 148.956 77.3539 148.956C91.0874 148.956 102.356 160.224 102.356 173.958Z" fill="#3FE0E6"/>
        <path d="M77.4712 199.077C82.7533 199.077 87.6833 198.021 92.0264 196.26L90.97 185.227C90.8526 183.818 88.9745 182.996 86.7443 182.644C80.5231 181.705 74.4193 181.705 68.1981 182.644C65.9679 182.996 64.0898 183.935 63.9724 185.227L62.916 196.26C67.2591 198.138 72.1891 199.077 77.4712 199.077Z" fill="white"/>
        <path d="M77.4712 199.077L73.0107 182.175C71.4848 182.292 69.9588 182.409 68.4329 182.644C68.0807 184.287 67.3765 187.222 67.3765 187.222C67.3765 187.222 69.4893 187.926 69.6067 188.278C69.7241 188.631 68.0807 190.156 68.0807 190.156L70.5457 198.373C72.6586 198.96 75.0062 199.077 77.4712 199.077Z" fill="#D1ECFB"/>
        <path d="M87.0965 187.222C87.0965 187.222 86.3922 184.287 86.0401 182.644C84.5141 182.409 82.9882 182.292 81.5796 182.175L77.1191 199.077C77.2365 199.077 77.3539 199.077 77.4713 199.077C79.7015 199.077 81.9317 198.843 84.162 198.491L86.627 190.156C86.627 190.156 84.9836 188.631 85.101 188.278C84.9836 187.926 87.0965 187.222 87.0965 187.222Z" fill="#D1ECFB"/>
        <path d="M80.4057 199.077C80.5231 199.077 80.6405 199.077 80.8753 199.077C81.6969 196.26 82.4012 192.739 83.1055 188.865C83.4576 186.635 83.575 184.405 83.575 182.292C79.4667 181.94 75.4758 181.94 71.3674 182.292C71.3674 184.405 71.4848 186.635 71.837 188.865C72.4239 192.739 73.2455 196.143 74.0672 199.077C74.1846 199.077 74.3019 199.077 74.5367 199.077C74.8889 199.077 75.241 199.077 75.5931 199.077C76.2974 199.077 76.8843 199.077 77.5886 199.077C78.2929 199.077 78.8798 199.077 79.5841 199.077C79.7015 199.077 80.0536 199.077 80.4057 199.077Z" fill="#0063CB"/>
        <path d="M81.1101 184.757C81.1101 186.987 79.3493 188.748 77.1191 188.748C74.8889 188.748 73.1282 186.987 73.1282 184.757V178.888C73.1282 176.658 74.8889 174.897 77.1191 174.897C79.3493 174.897 81.1101 176.658 81.1101 178.888V184.757Z" fill="#F2EFDC"/>
        <path d="M77.1191 174.897C74.8889 174.897 73.1282 176.658 73.1282 178.888V181.118L79.7015 187.691C80.5232 186.987 81.1101 185.931 81.1101 184.64V178.771C81.1101 176.658 79.232 174.897 77.1191 174.897Z" fill="#C0BEAE"/>
        <path d="M90.0308 175.836C90.5003 177.362 89.2091 178.771 86.9789 178.888C80.4056 179.24 73.8323 179.24 67.3764 178.888C65.1461 178.771 63.8549 177.362 64.3245 175.836C65.8504 171.258 67.3764 166.68 68.7849 162.103C69.2544 160.577 70.663 159.403 71.8368 159.52C75.3582 159.755 76.1799 157.994 79.8187 157.759C80.9925 157.642 85.1008 159.99 85.5703 162.103C87.0963 166.68 88.5048 171.258 90.0308 175.836Z" fill="#2C5871"/>
        <path d="M83.6923 159.638C82.2838 158.581 80.5231 157.759 79.9362 157.759C76.4147 157.994 75.5931 159.638 71.9543 159.52C71.6021 159.52 71.25 159.638 70.7805 159.755C70.0762 165.389 69.3719 171.023 68.6676 176.658C68.5502 177.479 68.5502 178.301 68.6676 179.005C74.4193 179.24 80.0535 179.24 85.8052 179.005C85.9226 178.301 85.9226 177.479 85.8052 176.658C85.1009 170.906 84.3966 165.272 83.6923 159.638Z" fill="#0E303F"/>
        <path d="M83.9271 172.197C82.7533 178.888 79.8187 182.057 76.6495 182.057C73.4802 182.057 70.5457 178.888 69.3719 172.197C68.1981 165.154 72.189 160.459 76.6495 160.811C81.1099 160.577 85.1009 165.272 83.9271 172.197Z" fill="#F2EFDC"/>
        <path d="M69.6067 162.924C68.1981 165.037 67.4938 167.267 67.7286 169.263C70.0762 169.028 72.3064 167.619 73.5976 165.507C75.1235 163.511 75.4757 160.929 74.654 158.698C72.7759 159.168 71.0152 160.811 69.6067 162.924Z" fill="#2C5871"/>
        <path d="M76.6495 160.811C76.5321 160.811 76.2973 160.811 76.1799 160.811V182.057C76.2973 182.057 76.5321 182.057 76.6495 182.057C79.8187 182.057 82.7532 178.888 83.9271 172.197C85.1009 165.272 81.1099 160.577 76.6495 160.811Z" fill="#DCDAC8"/>
        <path d="M76.8843 168.558C80.171 169.967 83.8098 169.967 86.9791 167.972C86.8617 163.042 84.7488 159.285 81.3448 158.229C78.1755 156.586 73.9498 157.525 70.311 160.811C71.1327 164.45 73.5977 167.15 76.8843 168.558Z" fill="#2C5871"/>
        <path d="M77.4713 193.795V188.865L75.241 186.4L73.1282 182.879L73.4803 187.574L75.4758 188.748L77.4713 193.795Z" fill="#007074"/>
        <path d="M73.1281 182.057L75.2409 186.4L72.6585 188.513L72.3064 182.292L73.1281 181.118V182.057Z" fill="#00939B"/>
        <path d="M77.2366 192.387L77.354 188.865L78.7625 186.166L80.9928 182.644L80.6406 187.457L77.7061 188.865L77.2366 192.387Z" fill="#007074"/>
        <path d="M81.1101 182.057L78.7625 186.283L81.4622 188.513L81.8143 182.292L81.1101 181.118V182.057Z" fill="#00939B"/>
        <path d="M102.356 233.705C102.356 247.438 91.2048 258.707 77.3539 258.707C63.6203 258.707 52.3518 247.556 52.3518 233.705C52.3518 219.971 63.503 208.703 77.3539 208.703C91.0874 208.82 102.356 219.971 102.356 233.705Z" fill="#3FE0E6"/>
        <path d="M77.3539 260.585C83.8098 260.585 89.7962 259.411 95.1957 257.416L93.9045 244.856C93.7871 243.33 91.5569 242.039 88.7398 241.921C81.2274 240.395 73.5977 240.395 66.0853 241.921C63.2682 242.156 61.038 243.33 60.9206 244.856L59.6294 257.416C64.9115 259.411 70.8979 260.585 77.3539 260.585Z" fill="#7EB3FF"/>
        <path d="M82.2838 243.447C82.2838 246.03 80.1709 248.142 77.5885 248.142C75.0062 248.142 72.8933 246.03 72.8933 243.447V238.635C72.8933 236.052 75.0062 233.939 77.5885 233.939C80.1709 233.939 82.2838 236.052 82.2838 238.635V243.447Z" fill="#DCDAC8"/>
        <path d="M80.7578 246.382C80.8752 246.499 80.8752 246.499 80.9926 246.617C81.8142 245.795 82.2838 244.621 82.2838 243.447V238.635C82.2838 236.052 80.1709 233.939 77.5885 233.939C75.0062 233.939 73.0107 235.935 72.8933 238.517L80.7578 246.382Z" fill="#C0BEAE"/>
        <path d="M70.6632 231.592C71.0153 233.47 70.7806 234.761 70.3111 234.996C69.8415 235.113 69.1372 234.174 68.5503 232.296C67.9634 230.418 68.0808 228.657 68.7851 228.423C69.4894 228.188 70.3111 229.714 70.6632 231.592Z" fill="#DCDAC8"/>
        <path d="M83.8099 231.827C83.6925 233.705 83.9272 234.996 84.5141 235.113C84.9837 235.231 85.6879 234.174 86.0401 232.296C86.3922 230.418 86.1575 228.54 85.4532 228.423C84.7489 228.305 84.0446 229.948 83.8099 231.827Z" fill="#DCDAC8"/>
        <path d="M77.3539 219.149C72.5413 218.797 68.1982 224.314 69.4894 232.531C69.8416 234.996 70.4285 237.109 71.2501 238.752C71.837 239.691 72.6587 239.808 73.8325 236.991C74.1846 236.287 75.7106 235.818 77.2365 235.818C77.3539 235.818 77.3539 235.818 77.4713 235.818C78.9972 235.818 80.5232 236.404 80.8753 236.991C82.0491 239.808 82.8708 239.691 83.4577 238.752C84.162 237.109 84.7489 234.996 85.2184 232.531C86.5096 224.314 82.0491 218.797 77.3539 219.149Z" fill="#F2EFDC"/>
        <path d="M77.4712 219.149V235.7C78.8798 235.7 80.4057 236.287 80.7578 236.874C81.9316 239.691 82.7533 239.574 83.3402 238.635C84.0445 236.991 84.6314 234.878 85.1009 232.413C86.5095 224.432 82.1664 218.915 77.4712 219.149Z" fill="#DCDAC8"/>
        <path d="M85.2182 232.179C85.2182 232.531 85.1008 232.883 84.9834 233.235C84.6313 234.878 84.0444 236.404 83.3401 237.461C82.7532 238.048 81.9315 238.165 80.7577 236.17C80.4056 235.7 78.8796 235.348 77.4711 235.348C77.3537 235.348 77.3537 235.348 77.2363 235.348C75.8277 235.348 74.3018 235.7 73.9496 236.17C72.7758 238.165 71.9542 238.048 71.3673 237.461C70.663 236.287 70.0761 234.878 69.7239 233.235C69.6066 232.883 69.6066 232.531 69.4892 232.179C69.137 233.235 69.0197 234.526 69.3718 235.818C70.663 240.63 70.663 242.978 77.3537 242.86C84.5139 242.743 84.0444 240.63 85.3356 235.818C85.6877 234.526 85.6877 233.235 85.2182 232.179Z" fill="#2C5871"/>
        <path d="M85.1008 233.235C84.7487 234.878 84.1618 236.404 83.4575 237.461C82.8706 238.048 82.0489 238.165 80.8751 236.17C80.523 235.7 79.2318 235.348 77.8232 235.348V242.743C84.5139 242.508 84.0444 240.395 85.3356 235.7C85.6877 234.292 85.5704 233.118 85.2182 232.061C85.2182 232.531 85.1008 232.883 85.1008 233.235Z" fill="#0E303F"/>
        <path d="M79.1146 237.226H75.7105C75.7105 237.226 75.0063 238.752 75.241 239.104C75.3584 239.456 75.7106 239.456 76.0627 238.869C76.1801 238.635 76.2975 238.4 76.4148 238.282C76.5322 238.282 76.6496 238.282 76.767 238.282H78.0582C78.1755 238.282 78.2929 238.282 78.4103 238.282C78.5277 238.4 78.6451 238.635 78.7624 238.869C79.1146 239.574 79.4667 239.456 79.5841 239.104C79.7015 238.752 79.1146 237.461 79.1146 237.226Z" fill="#F2EFDC"/>
        <path d="M65.968 258.002C65.7333 254.598 64.9116 251.546 63.7378 249.316C63.9726 250.725 64.0899 252.133 64.0899 253.659C64.0899 255.068 63.9726 256.359 63.8552 257.65C64.4421 257.768 65.2637 257.885 65.968 258.002Z" fill="#8FC4D7"/>
        <path d="M69.7241 241.217C67.4938 241.452 65.381 241.804 63.2681 242.273C60.5684 242.508 58.3382 243.682 58.2208 245.091L57.2817 256.242C61.7422 257.65 66.7896 258.472 71.9543 258.589L69.7241 241.217Z" fill="white"/>
        <path d="M73.363 261.054L70.3111 241.452C68.7851 241.569 67.8461 241.687 66.3201 241.921C65.968 243.682 64.7942 246.734 64.7942 246.734C64.7942 246.734 69.1373 247.79 69.2546 248.142C69.372 248.495 65.3811 249.903 65.3811 249.903L67.0244 260.233C69.2546 260.702 67.2592 261.524 69.6068 261.524C69.7242 261.406 72.3065 261.759 73.363 261.054Z" fill="#D1ECFB"/>
        <path d="M73.2455 261.641L70.7805 240.982C69.2546 241.1 67.9634 241.452 66.4374 241.687C66.0853 243.447 65.1462 246.264 65.1462 246.264C65.1462 246.264 69.4893 247.321 69.6067 247.673C69.7241 248.025 65.7331 249.903 65.7331 249.903L67.3765 259.763C69.6067 260.233 67.6112 261.054 69.9588 261.054C70.0762 261.054 72.1891 262.346 73.2455 261.641Z" fill="white"/>
        <path d="M85.2183 240.982C87.4485 241.1 89.5614 241.452 91.7916 241.804C94.6087 242.039 96.7216 243.095 96.9563 244.504L98.2475 255.655C93.7871 257.181 88.8571 258.12 83.575 258.355L85.2183 240.982Z" fill="white"/>
        <path d="M81.8142 260.585L84.8661 240.982C86.3921 241.1 87.3311 241.217 88.857 241.452C89.2092 243.212 90.383 246.264 90.383 246.264C90.383 246.264 86.0399 247.321 85.9225 247.673C85.8051 248.025 89.7961 249.434 89.7961 249.434L88.1528 259.763C85.9225 260.233 87.918 261.054 85.5704 261.054C85.5704 260.937 82.8706 261.289 81.8142 260.585Z" fill="#D1ECFB"/>
        <path d="M81.9316 261.172L84.3966 240.513C85.9226 240.63 87.2138 240.982 88.7397 241.217C89.0918 242.86 90.0309 245.795 90.0309 245.795C90.0309 245.795 85.6878 246.851 85.5704 247.203C85.4531 247.556 89.444 249.434 89.444 249.434L87.8007 259.294C85.5704 259.763 87.5659 260.585 85.2183 260.585C85.1009 260.585 83.1054 261.876 81.9316 261.172Z" fill="white"/>
        <path d="M77.3539 318.923C91.1621 318.923 102.356 307.729 102.356 293.921C102.356 280.113 91.1621 268.919 77.3539 268.919C63.5456 268.919 52.3518 280.113 52.3518 293.921C52.3518 307.729 63.5456 318.923 77.3539 318.923Z" fill="#3FE0E6"/>
        <path d="M68.1982 293.569C68.1982 294.508 68.7851 295.329 69.6068 295.329H69.9589C70.7806 295.329 71.3675 294.508 71.3675 293.569V289.695C71.3675 288.756 70.7806 287.935 69.9589 287.935H69.6068C68.7851 287.935 68.1982 288.756 68.1982 289.695V293.569Z" fill="white"/>
        <path d="M58.1035 311.997L62.4466 302.842L78.1756 300.025L93.0829 302.607L98.4824 309.533L93.7872 314.815L79.3494 321.388L60.2164 315.988L58.1035 311.997Z" fill="white"/>
        <path d="M71.9543 302.842L75.7105 320.449L81.2274 321.271L81.4622 315.636L81.8143 308.007L83.8098 300.729L71.9543 302.842Z" fill="#00C6CE"/>
        <path d="M83.8097 300.142L80.7578 310.237L79.7014 321.505L82.9881 321.388L85.6878 311.763L83.1055 308.946L86.979 307.42L85.1009 301.198L83.8097 300.142Z" fill="#D1ECFB"/>
        <path d="M76.1802 307.654L75.0063 304.485L76.1802 303.311H78.7625L80.0537 304.485L78.7625 307.654H76.1802Z" fill="#0063CB"/>
        <path d="M76.1802 307.772L75.0063 321.74L76.1802 326.787H78.7625L80.0537 321.74L78.7625 307.772H76.1802Z" fill="#0063CB"/>
        <path d="M72.5413 300.964L74.5368 311.058L75.3585 322.092L71.2502 321.74L69.3721 311.293L72.1892 308.946L68.7852 306.128L70.4285 301.785L72.5413 300.964Z" fill="#D1ECFB"/>
        <path d="M84.7488 297.912C85.1009 301.551 81.5795 304.955 76.7669 304.955C71.9543 304.955 68.4329 301.668 68.785 297.912C69.0198 294.743 69.3719 291.573 69.6067 288.404C69.9588 284.765 73.2455 282.065 76.7669 281.948C80.4057 281.948 83.575 284.648 83.9271 288.404C84.2792 291.456 84.514 294.743 84.7488 297.912Z" fill="#F2EFDC"/>
        <path d="M84.7487 297.912C84.514 294.743 84.1618 291.573 83.9271 288.404C83.5749 284.765 80.2883 282.065 76.7668 281.948V304.955C81.5794 304.837 85.1009 301.551 84.7487 297.912Z" fill="#DCDAC8"/>
        <path d="M79.3493 303.781C79.3493 304.837 78.1755 305.659 76.7669 305.659C75.3584 305.659 74.1846 304.837 74.1846 303.781C74.1846 302.724 75.3584 301.903 76.7669 301.903C78.1755 301.785 79.3493 302.724 79.3493 303.781Z" fill="#F2EFDC"/>
        <path d="M79.3493 303.429C79.3493 304.25 78.4103 304.955 77.3539 304.955C76.1801 304.955 75.3584 304.25 75.3584 303.429C75.3584 302.607 76.2974 301.903 77.3539 301.903C78.5277 301.785 79.3493 302.49 79.3493 303.429Z" fill="#DCDAC8"/>
        <path d="M77.3538 291.925C75.4757 292.512 74.0671 294.86 74.0671 297.794C74.0671 298.147 74.0671 298.499 74.1845 298.733H77.4712V291.925H77.3538Z" fill="#DCDAC8"/>
        <path d="M84.6316 288.052H84.2794C83.4578 288.052 82.8708 288.874 82.8708 289.813C82.8708 289.813 84.162 291.808 84.162 292.747V295.329H84.2794H84.6316C85.4532 295.329 86.0401 294.508 86.0401 293.569V289.695C86.0401 288.756 85.3358 288.052 84.6316 288.052Z" fill="white"/>
        <path d="M138.861 173.958H111.394V177.245H138.861V173.958Z" fill="#3FE0E6"/>
        <path d="M169.615 173.958H142.735V177.245H169.615V173.958Z" fill="#3FE0E6"/>
        <path d="M162.807 181.236H111.394V184.522H162.807V181.236Z" fill="#3FE0E6"/>
        <path d="M200.721 173.958H173.841V177.245H200.721V173.958Z" fill="#3FE0E6"/>
        <path d="M197.082 181.236H166.563V184.522H197.082V181.236Z" fill="#3FE0E6"/>
        <path d="M155.764 161.281H111.394V166.328H155.764V161.281Z" fill="#3FE0E6"/>
        <path d="M191.33 161.281H159.403V166.328H191.33V161.281Z" fill="#3FE0E6"/>
        <path d="M138.861 232.531H111.394V235.818H138.861V232.531Z" fill="#3FE0E6"/>
        <path d="M169.615 232.531H142.735V235.818H169.615V232.531Z" fill="#3FE0E6"/>
        <path d="M162.807 239.808H111.394V243.095H162.807V239.808Z" fill="#3FE0E6"/>
        <path d="M200.721 232.531H173.841V235.818H200.721V232.531Z" fill="#3FE0E6"/>
        <path d="M197.082 239.808H166.563V243.095H197.082V239.808Z" fill="#3FE0E6"/>
        <path d="M155.764 219.971H111.394V225.019H155.764V219.971Z" fill="#3FE0E6"/>
        <path d="M191.33 219.971H159.403V225.019H191.33V219.971Z" fill="#3FE0E6"/>
        <path d="M138.861 351.672H111.394V354.959H138.861V351.672Z" fill="#3FE0E6"/>
        <path d="M169.615 351.672H142.735V354.959H169.615V351.672Z" fill="#3FE0E6"/>
        <path d="M162.807 358.95H111.394V362.236H162.807V358.95Z" fill="#3FE0E6"/>
        <path d="M200.721 351.672H173.841V354.959H200.721V351.672Z" fill="#3FE0E6"/>
        <path d="M197.082 358.95H166.563V362.236H197.082V358.95Z" fill="#3FE0E6"/>
        <path d="M155.764 338.995H111.394V344.042H155.764V338.995Z" fill="#3FE0E6"/>
        <path d="M191.33 338.995H159.403V344.042H191.33V338.995Z" fill="#3FE0E6"/>
        <path d="M135.457 295.212H111.394V298.499H135.457V295.212Z" fill="#3FE0E6"/>
        <path d="M162.337 295.212H138.861V298.499H162.337V295.212Z" fill="#3FE0E6"/>
        <path d="M156.468 302.49H111.394V305.776H156.468V302.49Z" fill="#3FE0E6"/>
        <path d="M189.57 295.212H166.094V298.499H189.57V295.212Z" fill="#3FE0E6"/>
        <path d="M186.518 302.49H159.755V305.776H186.518V302.49Z" fill="#3FE0E6"/>
        <path d="M150.247 282.535H111.394V287.582H150.247V282.535Z" fill="#3FE0E6"/>
        <path d="M181.588 282.535H153.534V287.582H181.588V282.535Z" fill="#3FE0E6"/>
        <path d="M102.356 352.024C102.356 365.64 91.3221 376.792 77.5886 376.792C63.8551 376.792 52.8213 365.64 52.8213 352.024C52.8213 338.408 63.8551 327.257 77.5886 327.257C91.3221 327.257 102.356 338.408 102.356 352.024Z" fill="#3FE0E6"/>
        <path d="M85.9227 354.137C85.9227 355.428 85.2185 356.485 84.3968 356.485C83.5751 356.485 82.8708 355.428 82.8708 354.137V351.79C82.8708 350.498 83.5751 349.442 84.3968 349.442C85.2185 349.442 85.9227 350.498 85.9227 351.79V354.137Z" fill="#2C5871"/>
        <path d="M77.5887 376.792C84.5142 376.792 90.8527 373.974 95.3132 369.279C92.3787 366.11 85.5706 363.88 77.5887 363.88C69.6068 363.88 62.7988 366.11 59.8643 369.162C64.3247 373.857 70.5459 376.792 77.5887 376.792Z" fill="#3FE0E6"/>
        <path d="M83.1056 365.288C83.3404 368.34 80.8754 370.923 77.5887 370.923C74.3021 370.923 71.8371 368.223 72.0719 365.288C72.1892 363.293 72.3066 361.415 72.424 359.419C72.6588 356.367 74.889 354.137 77.5887 354.137C80.1711 354.137 82.5187 356.367 82.7535 359.419C82.8709 361.415 82.9883 363.293 83.1056 365.288Z" fill="#2C5871"/>
        <path d="M83.1056 361.649C83.3404 364.701 80.8754 367.284 77.5887 367.284C74.3021 367.284 71.8371 364.584 72.0719 361.649C72.1892 359.654 72.3066 357.776 72.424 355.78C72.6588 352.729 74.889 350.498 77.5887 350.498C80.1711 350.498 82.5187 352.729 82.7535 355.78C82.8709 357.776 82.9883 359.771 83.1056 361.649Z" fill="#0E303F"/>
        <path d="M82.7534 359.419C82.5186 356.485 80.2884 354.137 77.7061 354.137C77.7061 354.254 77.7061 354.372 77.7061 354.489V369.866C77.7061 370.218 77.7061 370.57 77.8234 370.923C80.9927 370.923 83.4577 368.223 83.2229 365.288C82.9882 363.293 82.8708 361.415 82.7534 359.419Z" fill="#0E303F"/>
        <path d="M71.8371 354.137C71.8371 355.428 71.1328 356.485 70.3111 356.485C69.4894 356.485 68.7852 355.428 68.7852 354.137V351.79C68.7852 350.498 69.4894 349.442 70.3111 349.442C71.1328 349.442 71.8371 350.498 71.8371 351.79V354.137Z" fill="#2C5871"/>
        <path d="M69.4895 353.315C69.4895 354.137 70.0764 354.841 70.7807 354.841C71.485 354.841 72.0719 354.137 72.0719 353.315V349.325C72.0719 348.503 71.485 347.799 70.7807 347.799C70.0764 347.799 69.4895 348.503 69.4895 349.325V353.315Z" fill="#0E303F"/>
        <path d="M82.9883 353.315C82.9883 354.137 83.5752 354.841 84.2795 354.841C84.9838 354.841 85.5707 354.137 85.5707 353.315V349.325C85.5707 348.503 84.9838 347.799 84.2795 347.799C83.5752 347.799 82.9883 348.503 82.9883 349.325V353.315Z" fill="#0E303F"/>
        <path d="M86.8618 346.155C86.8618 351.672 82.7535 356.133 77.5887 356.133C72.424 356.133 68.3157 351.672 68.3157 346.155C68.3157 340.638 72.424 336.178 77.5887 336.178C82.7535 336.178 86.8618 340.638 86.8618 346.155Z" fill="#0E303F"/>
        <path d="M85.3358 357.776C85.6879 362.002 82.1665 365.758 77.5886 365.758C73.0108 365.758 69.6068 362.002 69.8415 357.776C69.9589 355.076 70.1937 352.259 70.311 349.559C70.6632 345.334 73.8325 342.164 77.4713 342.164C81.1101 342.164 84.3967 345.334 84.6315 349.559C84.9836 352.259 85.101 354.959 85.3358 357.776Z" fill="#2C5871"/>
        <path d="M84.7488 349.442C84.3967 345.216 81.2274 342.047 77.5886 342.047C77.5886 342.164 77.5886 342.399 77.5886 342.516V364.114C77.5886 364.584 77.5886 365.171 77.706 365.64C82.1665 365.523 85.5705 361.884 85.2184 357.659C85.101 354.959 84.9836 352.259 84.7488 349.442Z" fill="#24495D"/>
        <path d="M84.2794 364.114C86.3922 364.349 88.6224 364.701 90.7353 365.171C93.435 365.406 95.6653 366.579 95.7826 367.988L96.7217 379.139C92.2612 380.548 87.3312 381.369 82.1665 381.487L84.2794 364.114Z" fill="white"/>
        <path d="M80.6406 383.717L83.6925 364.232C85.2185 364.349 86.1575 364.467 87.5661 364.701C87.9182 366.345 89.092 369.397 89.092 369.397C89.092 369.397 84.7489 370.453 84.6316 370.805C84.5142 371.157 88.5051 372.566 88.5051 372.566L86.8618 382.895C84.6316 383.365 86.627 384.186 84.2794 384.186C84.2794 384.069 81.6971 384.421 80.6406 383.717Z" fill="#A6DAE9"/>
        <path d="M80.8755 384.304L83.3405 363.88C84.8664 363.997 86.0402 364.349 87.5662 364.584C87.9183 366.227 88.8574 369.044 88.8574 369.044C88.8574 369.044 84.5143 370.101 84.3969 370.453C84.2795 370.805 88.2705 372.683 88.2705 372.683L86.6271 382.426C84.3969 382.778 86.3924 383.717 84.0448 383.717C83.9274 383.717 81.9319 385.008 80.8755 384.304Z" fill="white"/>
        <path d="M71.1328 364.114C69.0199 364.349 66.7897 364.701 64.6768 365.171C61.9771 365.406 59.7469 366.579 59.6295 367.988L58.6904 379.139C63.1509 380.548 68.0809 381.369 73.2456 381.487L71.1328 364.114Z" fill="white"/>
        <path d="M74.7715 383.717L71.7196 364.232C70.1936 364.349 69.2546 364.467 67.846 364.701C67.4939 366.345 66.3201 369.397 66.3201 369.397C66.3201 369.397 70.6631 370.453 70.7805 370.805C70.8979 371.157 66.907 372.566 66.907 372.566L68.5503 382.895C70.7805 383.365 68.7851 384.186 71.1327 384.186C71.1327 384.069 73.715 384.421 74.7715 383.717Z" fill="#A6DAE9"/>
        <path d="M74.6542 384.304L72.1892 363.88C70.6633 363.997 69.4895 364.349 67.9636 364.584C67.6114 366.227 66.6724 369.044 66.6724 369.044C66.6724 369.044 71.0154 370.101 71.1328 370.453C71.2502 370.805 67.2593 372.683 67.2593 372.683L68.9026 382.426C71.1328 382.778 69.1374 383.717 71.485 383.717C71.485 383.717 73.4804 385.008 74.6542 384.304Z" fill="white"/>
        <path d="M429.378 712.5L429.965 720.012L431.374 726.233L433.956 727.877L435.834 728.464L436.421 729.52L442.994 733.863C444.755 734.685 447.337 735.037 450.272 734.333C451.328 734.098 449.92 731.281 449.45 730.811C447.337 728.346 444.168 725.647 444.168 725.647L439.003 719.308L433.134 711.443L429.378 712.5Z" fill="#161711"/>
        <path d="M370.688 704.283L372.331 707.335L373.27 710.739L373.153 716.139L370.218 716.608L367.988 716.139L366.579 717.195C366.579 717.195 358.245 718.838 355.194 718.956C350.029 719.191 347.212 718.604 346.155 717.665C345.568 717.078 348.033 716.021 348.738 715.904C353.315 715.2 358.128 712.265 358.128 712.265L361.884 707.922L362.588 704.87L370.688 704.283Z" fill="#161711"/>
        <path d="M393.812 540.068L441.468 719.191L429.378 719.895L406.254 662.965L400.62 645.71L373.153 578.334L367.871 541.242L393.812 540.068Z" fill="#007074"/>
        <path d="M372.918 704.87L369.514 635.968L372.566 604.392L376.205 561.079L370.688 532.086L351.79 535.138L349.677 581.855L350.851 626.108L351.79 642.776L358.95 708.509L372.918 704.87Z" fill="#007074"/>
        <path d="M401.442 560.727L408.25 557.44L409.071 556.619L408.132 555.093L406.724 555.21L407.193 550.984L400.385 549.341L396.981 547.463L399.564 559.318" fill="#E9D6B8"/>
        <path d="M422.57 519.292L397.098 546.993C397.098 546.993 397.685 551.219 399.798 549.106C400.033 548.871 398.976 547.932 400.385 547.228C406.371 544.411 420.457 540.185 425.739 535.607C432.782 529.504 437.947 522.226 437.947 522.226L422.57 519.292Z" fill="#E9D6B8"/>
        <path d="M321.153 464.944C321.153 464.944 310.237 462.245 297.677 445.342C293.451 439.59 295.329 445.694 295.682 452.502C296.034 459.427 307.889 471.048 321.623 475.509C335.239 480.204 321.153 464.944 321.153 464.944Z" fill="#E9D6B8"/>
        <path d="M298.499 449.685C298.499 449.685 301.081 442.525 300.025 440.647C298.968 438.768 294.86 432.078 294.86 432.078L293.686 430.434C293.686 430.434 291.339 430.904 294.156 435.364C296.973 439.825 294.508 438.416 294.508 438.416L290.517 435.482L285.352 432.313L283.239 430.552C283.239 430.552 282.066 429.495 281.596 429.495C280.187 429.495 280.657 430.669 280.657 430.669L288.404 438.182L279.483 433.369C279.483 433.369 278.192 432.899 277.84 433.486C277.488 434.073 277.84 434.308 277.84 434.308L286.643 442.29L281.831 440.412C281.831 440.412 280.657 440.06 280.187 440.529C279.718 441.116 279.601 441.233 279.601 441.233L297.325 451.446L298.499 449.685Z" fill="#E9D6B8"/>
        <path d="M301.249 447.869L293.411 453.04L297.612 459.409L305.451 454.237L301.249 447.869Z" fill="#E7F5FE"/>
        <path d="M409.305 533.443L402.537 539.952L408.477 546.129L415.245 539.619L409.305 533.443Z" fill="#E7F5FE"/>
        <path d="M286.996 439.473L280.54 436.421C280.54 436.421 279.131 435.599 278.309 435.599C277.37 435.599 277.253 436.538 277.253 436.538L286.526 442.055L286.996 439.473Z" fill="#E9D6B8"/>
        <path d="M376.674 454.498C376.674 454.498 377.496 460.367 355.428 482.317C342.986 494.642 335.591 502.624 328.313 500.159C315.754 495.933 292.747 461.54 292.747 461.54L304.485 449.098C304.485 449.098 323.149 471.166 331.6 471.048C333.596 471.048 346.273 460.836 358.363 445.929C363.293 439.59 375.383 452.854 376.674 454.498Z" fill="#D1DBEA"/>
        <path d="M348.738 584.32L354.724 595.824L357.072 566.009L364.819 593.241L409.541 587.255C409.541 587.255 400.737 543.12 396.512 525.161L410.832 479.852C410.832 479.852 423.04 447.924 403.085 446.398C383.13 444.872 360.124 443.581 360.124 443.581C360.124 443.581 336.53 525.865 348.738 584.32Z" fill="#DBE7F3"/>
        <path d="M378.552 452.032C378.552 452.032 364.467 483.96 373.153 516.709C373.857 519.292 377.144 520.818 377.144 520.818L381.017 516.592C381.017 516.592 376.44 479.03 378.552 452.032Z" fill="#00939B"/>
        <path d="M379.257 451.211L380.313 458.019L392.286 447.807L392.403 446.163L379.257 451.211Z" fill="#D1DBEA"/>
        <path d="M377.144 444.755L373.27 457.197L377.731 452.15L377.144 444.755Z" fill="#D1DBEA"/>
        <path d="M409.071 478.561L420.105 516.944L404.493 537.133C404.493 537.133 410.597 546.289 413.179 545.233C430.904 537.838 444.872 512.483 444.872 512.483L428.908 460.367C428.908 460.367 422.218 449.215 406.137 446.516C394.399 444.52 408.367 475.391 409.071 478.561Z" fill="#DBE7F3"/>
        <path d="M394.281 438.182C393.694 440.177 392.755 443.346 391.816 445.224C390.408 448.042 378.904 451.211 377.144 451.563C375.383 451.915 378.083 442.877 378.2 440.764C378.318 439.121 379.257 439.708 378.2 437.36L394.281 438.182Z" fill="#E9D6B8"/>
        <path d="M377.378 444.051L373.974 453.558L369.631 489.946L363.41 461.306L368.575 456.376L365.758 451.798L371.862 444.285L377.378 444.051Z" fill="#E7F5FE"/>
        <path d="M357.189 544.294L363.058 561.901L397.685 570.117C397.685 570.117 400.737 543.002 396.511 525.043L410.832 479.734C410.832 479.734 423.039 447.807 403.085 446.281C400.268 446.046 397.451 445.811 394.516 445.694C390.525 445.459 382.895 456.963 381.135 460.367C379.139 463.888 366.579 496.168 366.579 496.168L357.189 544.294Z" fill="url(#paint0_linear)"/>
        <path d="M393.225 444.872L400.855 445.224L394.516 456.258L387.004 460.719V469.287L367.284 497.459L380.196 460.367L393.225 444.872Z" fill="#D1DBEA"/>
        <path d="M393.225 444.872L400.855 445.224L394.516 455.671L387.004 460.014L387.121 468.231L367.401 495.111L380.196 459.662L393.225 444.872Z" fill="#E7F5FE"/>
        <path d="M377.144 451.446L379.257 451.211L379.022 456.258L377.496 457.549L375.5 456.728L377.144 451.446Z" fill="#00939B"/>
        <path d="M369.279 547.345L387.121 548.05L390.408 568.122H378.552C378.552 568.122 372.214 568.122 371.275 562.84C370.218 557.44 369.279 547.345 369.279 547.345Z" fill="#E7F5FE"/>
        <path d="M345.451 563.779L349.794 564.248L350.968 548.05L344.747 547.345C344.747 552.745 344.982 558.262 345.451 563.779Z" fill="#E7F5FE"/>
        <path d="M363.762 503.328C363.762 503.328 356.485 521.287 356.485 549.458C356.485 549.458 361.297 530.325 363.058 524.691C368.81 506.145 374.209 502.741 381.487 495.111C390.643 485.486 370.923 486.542 363.762 503.328Z" fill="#D1DBEA"/>
        <path d="M391.816 477.621C392.403 475.039 395.103 471.987 397.333 472.222L398.038 472.339C400.268 472.574 401.442 474.804 400.855 477.269" stroke="#1B5E8F" stroke-width="1.7562" stroke-miterlimit="10"/>
        <path d="M391.229 459.78L389.234 467.644C387.943 472.574 383.13 476.213 378.435 475.743L373.622 475.274C368.927 474.804 366.227 470.344 367.519 465.414L369.514 457.549" stroke="#1B5E8F" stroke-width="1.784" stroke-miterlimit="10"/>
        <path d="M378.2 442.642C375.618 442.407 372.918 444.403 372.214 447.103L367.753 464.475" stroke="#1B5E8F" stroke-width="1.1893" stroke-miterlimit="10"/>
        <path d="M378.2 442.642C377.496 442.525 376.792 442.642 376.205 442.877" stroke="#1B5E8F" stroke-width="1.784" stroke-miterlimit="10"/>
        <path d="M390.643 444.051C393.225 444.285 394.751 446.75 394.047 449.45L389.586 466.822" stroke="#1B5E8F" stroke-width="1.1893" stroke-miterlimit="10"/>
        <path d="M390.643 444.051C391.347 444.168 391.934 444.285 392.403 444.638" stroke="#1B5E8F" stroke-width="1.784" stroke-miterlimit="10"/>
        <path d="M375.266 433.838C374.914 435.599 375.97 437.36 377.731 437.712L392.168 440.881C393.929 441.233 395.69 440.177 396.042 438.416L400.737 417.053C401.089 415.292 400.033 413.532 398.272 413.18L383.834 410.01C382.074 409.658 380.313 410.715 379.961 412.475L375.266 433.838Z" fill="#E9D6B8"/>
        <path d="M378.904 416.936C378.904 416.936 377.378 414.471 377.378 413.062C377.378 412.358 378.435 410.128 380.313 409.541C382.074 408.954 383.13 410.949 383.13 410.949C383.13 410.949 380.313 411.771 379.961 412.358C379.726 412.827 378.904 416.936 378.904 416.936Z" fill="#163F59"/>
        <path d="M400.15 426.913C400.15 426.913 404.141 419.166 404.259 416.701C404.376 414.236 404.493 412.475 401.559 411.536C397.216 410.128 396.981 411.067 395.103 409.306C393.225 407.545 390.056 403.437 388.882 402.85C386.769 401.794 383.13 401.794 382.191 405.902C381.369 408.954 379.374 409.306 379.374 409.423C379.491 409.775 380.196 410.362 381.487 411.301C385.008 414.236 387.356 415.058 390.643 414.94C393.929 414.823 400.033 414.353 400.15 416.701C400.268 419.166 398.507 425.974 398.742 426.561C398.742 427.383 399.446 427.265 400.15 426.913Z" fill="#194866"/>
        <path d="M394.164 432.43C394.046 433.017 394.399 433.604 394.986 433.721L398.155 434.425C398.742 434.543 399.329 434.191 399.446 433.604L400.737 427.852C400.855 427.265 400.502 426.678 399.916 426.561L396.746 425.857C396.159 425.739 395.572 426.091 395.455 426.678L394.164 432.43Z" fill="#E9D6B8"/>
        <path d="M375.618 428.322C375.5 428.909 375.852 429.495 376.439 429.613L379.609 430.317C380.196 430.434 380.782 430.082 380.9 429.495L382.191 423.744C382.308 423.157 381.956 422.57 381.369 422.453L378.2 421.748C377.613 421.631 377.026 421.983 376.909 422.57L375.618 428.322Z" fill="#E9D6B8"/>
        <path d="M398.39 428.556C398.39 428.556 396.512 437.008 395.925 439.708C395.338 442.29 393.108 447.572 378.787 444.52C370.336 442.642 371.979 436.538 372.449 434.425C372.801 432.899 375.618 428.556 376.674 427.852L375.97 431.374C375.97 431.374 378.435 428.322 382.543 429.261C388.999 430.669 389.703 434.778 392.521 435.364C394.633 435.834 397.098 432.547 398.39 428.556Z" fill="#194866"/>
        <path d="M383.952 435.364L379.491 434.425C378.904 434.308 378.552 433.721 378.67 433.134L378.787 432.547L385.36 433.956L385.243 434.543C385.008 435.13 384.539 435.482 383.952 435.364Z" fill="#E9D6B8"/>
        <path d="M388.96 475.715L388.277 480.361L403.723 482.631L404.406 477.985L388.96 475.715Z" fill="#E7F5FE"/>
        <path d="M392.521 475.861L391.229 479.852L387.825 490.064C386.769 494.289 382.543 497.459 378.552 496.989L377.379 496.872C373.388 496.52 371.04 492.646 372.096 488.42L375.97 475.274" stroke="#1B5E8F" stroke-width="1.784" stroke-miterlimit="10"/>
        <path d="M20.659 657.801C18.7809 657.801 15.9638 657.331 13.3814 655.218C9.74261 652.049 8.21666 646.415 8.68618 638.55C9.03832 633.151 11.1512 627.751 13.3814 622.117C17.1376 612.492 21.3633 601.575 19.133 587.138L23.2414 586.551C25.589 602.045 21.0111 614.018 17.255 623.643C15.0247 629.277 13.1466 634.207 12.7945 638.902C12.325 645.358 13.4988 649.936 15.9638 652.166C18.3114 654.279 21.3633 653.692 21.4807 653.692L22.3023 657.801C22.3023 657.683 21.598 657.801 20.659 657.801Z" fill="#00939B"/>
        <path d="M52.5866 691.019L56.6949 697.24L22.5372 708.157C22.5372 708.157 20.3069 705.927 28.641 701.584C38.3835 696.419 52.5866 691.019 52.5866 691.019Z" fill="#88BDDA"/>
        <path d="M58.6904 691.019L54.582 697.24L88.7398 708.157C88.7398 708.157 90.97 705.927 82.636 701.584C72.8934 696.419 58.6904 691.019 58.6904 691.019Z" fill="#88BDDA"/>
        <path d="M59.2774 672.473H52.1172V697.827H59.2774V672.473Z" fill="#88BDDA"/>
        <path d="M52.117 692.31L55.6384 698.179L26.4106 708.626C26.4106 708.626 24.4152 706.514 31.5754 702.405C40.0268 697.475 52.117 692.31 52.117 692.31Z" fill="#ACD5F4"/>
        <path d="M59.1598 692.31L55.6384 698.179L84.8662 708.626C84.8662 708.626 86.8616 706.514 79.7014 702.405C71.3674 697.475 59.1598 692.31 59.1598 692.31Z" fill="#ACD5F4"/>
        <path d="M29.6973 710.974C29.6973 712.383 28.6409 713.439 27.2323 713.439C25.8238 713.439 24.7673 712.383 24.7673 710.974C24.7673 709.565 25.8238 708.509 27.2323 708.509C28.6409 708.509 29.6973 709.565 29.6973 710.974Z" fill="#001F46"/>
        <path d="M86.3921 710.974C86.3921 712.383 85.3357 713.439 83.9272 713.439C82.5186 713.439 81.4622 712.383 81.4622 710.974C81.4622 709.565 82.5186 708.509 83.9272 708.509C85.3357 708.509 86.3921 709.565 86.3921 710.974Z" fill="#001F46"/>
        <path d="M23.711 710.974C23.711 712.383 22.6546 713.439 21.246 713.439C19.8374 713.439 18.781 712.383 18.781 710.974C18.781 709.565 19.8374 708.509 21.246 708.509C22.6546 708.509 23.711 709.565 23.711 710.974Z" fill="#367082"/>
        <path d="M92.3787 710.974C92.3787 712.383 91.3223 713.439 89.9137 713.439C88.5052 713.439 87.4487 712.383 87.4487 710.974C87.4487 709.565 88.5052 708.509 89.9137 708.509C91.2049 708.509 92.3787 709.565 92.3787 710.974Z" fill="#367082"/>
        <path d="M58.1035 663.2H52.9387V672.356H58.1035V663.2Z" fill="#00939B"/>
        <path d="M62.0942 658.388C62.0942 661.205 59.864 663.435 57.0469 663.435H54.2297C51.4126 663.435 49.1824 661.205 49.1824 658.388C49.1824 655.57 51.4126 653.34 54.2297 653.34H57.0469C59.7466 653.34 62.0942 655.57 62.0942 658.388Z" fill="#00939B"/>
        <path d="M94.3741 653.692C94.4915 653.105 94.6088 649.349 94.6088 648.645C94.6088 644.537 91.9091 641.25 88.6224 641.25H22.5372C19.2505 641.25 16.5508 644.537 16.5508 648.645C16.5508 649.232 16.6682 653.105 16.7855 653.692H94.3741Z" fill="#3FE0E6"/>
        <path d="M15.9639 655.805C15.9639 657.096 16.6681 658.035 17.6072 658.035H93.5524C94.4914 658.035 95.1957 656.979 95.1957 655.805C95.1957 654.514 94.4914 653.575 93.5524 653.575H17.6072C16.6681 653.457 15.9639 654.514 15.9639 655.805Z" fill="#00939B"/>
        <path d="M19.6027 615.544C21.246 615.661 31.5755 615.896 33.3362 615.896C44.7221 616.013 54.4647 613.9 55.0516 611.083C57.2818 599.462 57.3992 587.607 55.4037 575.986C54.9342 573.169 44.9569 571.056 33.4536 571.174C31.5755 571.174 21.0112 571.408 19.3679 571.526C22.8893 585.964 23.0067 601.106 19.6027 615.544Z" fill="#3FE0E6"/>
        <path d="M18.0767 571.526C16.7855 571.526 15.9638 572.113 16.0812 572.817C19.2505 586.433 19.3678 600.519 16.4333 614.135C16.316 614.839 17.1376 615.426 18.4288 615.426C19.72 615.426 20.7764 614.839 21.0112 614.135C23.9457 600.519 23.8283 586.316 20.7764 572.7C20.5417 572.113 19.3678 571.526 18.0767 571.526Z" fill="#00939B"/>
        <path d="M17.607 615.544C17.9592 615.661 20.1894 615.778 20.5415 615.778C23.0065 615.778 25.5889 613.666 26.0584 610.848C28.1713 599.462 28.0539 587.724 25.941 576.221C25.4715 573.521 22.7718 571.291 20.3068 571.291C19.9546 571.291 17.607 571.408 17.2549 571.526C20.7763 585.964 20.8937 601.106 17.607 615.544Z" fill="#00939B"/>
        <path d="M86.3921 582.442C86.3921 582.442 86.5095 585.377 100.478 585.377C114.446 585.377 135.105 581.973 135.105 581.973L102.825 578.921C102.708 578.921 90.2656 578.334 86.3921 582.442Z" fill="#E2C59C"/>
        <path d="M124.071 582.912C130.762 583.147 133.462 586.551 136.044 587.724C138.627 588.898 141.209 590.542 141.209 590.424C139.8 587.49 137.687 587.372 136.631 586.433C135.575 585.494 135.809 585.964 138.274 585.846C139.683 585.846 141.913 588.194 143.556 589.602C144.965 590.776 145.904 590.894 145.904 590.894C145.904 590.894 144.261 588.429 142.148 586.433C139.566 583.968 136.396 581.973 135.575 581.621C134.166 581.034 129.706 580.682 126.536 581.034C122.898 581.503 119.259 582.794 124.071 582.912Z" fill="#E2C59C"/>
        <path d="M135.222 581.738C135.222 581.738 140.27 583.147 141.209 583.851C141.796 584.32 144.378 587.138 144.378 587.138C144.378 587.138 142.5 586.785 141.444 585.729C140.27 584.79 135.222 581.738 135.222 581.738Z" fill="#E2C59C"/>
        <path d="M92.7306 576.573C92.7306 576.573 79.8187 576.925 80.4056 584.672C80.7578 589.016 83.6923 590.659 87.5659 590.424C94.8435 590.072 103.06 589.368 103.06 589.368L107.168 577.63L92.7306 576.573Z" fill="#D9E6F9"/>
        <path d="M90.0309 577.512L78.7624 537.72C78.7624 537.72 77.1191 531.851 73.9498 532.908C69.4893 534.316 71.4848 539.129 71.837 541.946C72.4239 547.698 71.837 550.163 75.4757 564.014C77.706 572.582 79.5841 582.442 81.5795 588.077C82.9881 591.95 85.6879 586.551 89.6788 585.142C96.9564 582.56 90.0309 577.512 90.0309 577.512Z" fill="#D9E6F9"/>
        <path d="M68.0808 524.926C66.0853 533.612 57.3992 539.011 48.5956 537.016C39.7921 535.021 34.1578 526.452 36.0359 517.766C38.0314 509.079 46.7176 503.68 55.5211 505.675C64.442 507.671 70.0763 516.24 68.0808 524.926Z" fill="#282723"/>
        <path d="M83.2229 516.005C81.6969 522.696 75.1236 526.804 68.4329 525.395L66.6722 519.057C59.9815 517.531 55.8732 510.958 57.2818 504.267L58.3382 499.806C59.8642 493.116 66.4375 489.007 73.1281 490.416L76.18 491.12C82.8707 492.646 86.9791 499.219 85.5705 505.91L83.2229 516.005Z" fill="#282723"/>
        <path d="M82.4013 497.224C82.1665 498.28 81.8144 499.454 81.3448 500.511C78.4103 508.023 72.4239 512.836 67.0244 512.366C66.0854 515.887 64.6768 518.822 63.2682 521.287C61.6249 524.104 57.2818 526.569 57.2818 526.569C55.169 531.734 76.0627 549.224 76.8844 548.754C78.7625 547.815 75.3584 535.255 71.9544 531.382C70.3111 529.504 68.6677 527.391 68.6677 526.217C68.5504 521.874 69.9589 521.052 71.9544 519.057C75.5932 516.357 79.7015 517.296 79.7015 517.296C80.0537 517.413 80.5232 517.296 80.7579 517.061C81.2275 516.357 81.4622 515.535 81.697 514.596L83.9272 504.619C84.8663 501.919 84.0446 499.219 82.4013 497.224Z" fill="#E9D6B8"/>
        <path d="M60.8032 608.031C60.8032 608.031 66.0853 612.844 67.6113 613.313C69.6068 613.9 75.241 611.435 75.241 611.435C75.241 611.435 73.7151 586.316 74.302 576.456C74.8889 566.479 77.2365 563.661 77.0017 560.609C76.5322 555.68 80.5232 553.215 79.3493 549.458C78.1755 545.702 75.241 532.321 75.0063 534.199C73.2456 550.045 67.1418 537.838 65.968 535.96C65.2637 534.668 60.8032 608.031 60.8032 608.031Z" fill="#3FE0E6"/>
        <path d="M71.9545 529.856C71.9545 529.856 78.9973 535.021 78.8799 537.486C78.7625 539.833 82.5187 546.993 80.9928 557.558C79.232 569.648 78.6451 577.864 78.9973 585.612C79.3494 593.359 82.8708 600.049 82.9882 609.557C83.1056 617.07 81.3449 617.656 81.3449 617.656C81.3449 617.656 78.0582 618.83 75.2411 616.365C72.424 613.783 73.0109 588.311 73.363 581.855C73.8325 575.4 75.828 560.257 76.2975 555.797C76.8844 550.28 76.0628 544.998 75.7106 543.355C74.7716 537.955 73.5978 534.551 72.7761 532.556C72.6587 532.203 70.7806 530.795 70.6633 530.443C70.3111 529.269 71.3675 529.152 71.9545 529.856Z" fill="white"/>
        <path d="M63.3857 546.759C61.3902 555.797 52.2345 561.431 42.9614 559.436C33.6884 557.323 27.8193 548.402 29.9322 539.246C31.9277 530.208 41.0834 524.574 50.3564 526.569C59.6295 528.682 65.4985 537.72 63.3857 546.759Z" fill="#282723"/>
        <path d="M98.7171 693.836L95.5479 718.369L109.399 724.708L117.028 726.351L103.412 716.139L107.873 693.954L98.7171 693.836Z" fill="#E9D6B8"/>
        <path d="M94.6089 722.125L97.6608 722.947L99.6563 721.186L110.69 726.586L120.55 728.816C120.55 728.816 120.667 727.994 120.315 727.642C119.024 726.116 112.216 722.595 112.216 722.595C112.216 722.595 112.099 724.825 111.16 724.942C110.22 725.06 101.652 720.717 99.7736 719.543C96.3696 717.43 95.7827 716.256 95.5479 716.373C94.7263 716.608 94.6089 722.125 94.6089 722.125Z" fill="#161711"/>
        <path d="M132.171 659.561L143.204 680.572L158.347 679.751L165.976 677.755L149.191 674.938L139.918 657.096L132.171 659.561Z" fill="#E9D6B8"/>
        <path d="M144.026 684.211L147.078 683.507L148.017 680.925L161.633 680.69L169.732 678.812C169.732 678.812 168.793 677.755 168.089 677.521C166.328 676.816 159.872 676.464 159.872 676.464C159.872 676.464 160.577 678.225 159.755 678.812C158.933 679.281 149.543 679.633 147.195 679.516C143.204 679.281 142.148 678.342 141.913 678.694C141.678 679.399 144.026 684.211 144.026 684.211Z" fill="#161711"/>
        <path d="M51.7648 596.997L59.9815 600.519L63.5029 611.201L116.324 602.514C116.324 602.514 121.724 600.871 125.128 609.322C130.058 621.413 142.383 659.092 142.383 659.092L134.518 667.308L109.868 624.817C109.868 624.817 59.3946 648.528 42.7266 643.363C36.388 641.367 31.458 630.099 32.3971 618.713C33.1013 609.792 34.8621 601.575 34.8621 601.575L51.7648 596.997Z" fill="#194866"/>
        <path d="M58.925 643.128L99.304 640.194L95.7825 702.523L107.755 702.875L116.559 629.864C116.559 629.864 114.211 618.948 106.464 620.591C98.717 622.352 80.0535 636.672 58.925 643.128Z" fill="#163F59"/>
        <path d="M41.5528 656.392C41.5528 656.392 59.7468 631.038 63.6204 617.422C68.1982 601.223 65.2637 581.973 65.6158 575.399C66.3201 563.309 66.2027 540.185 66.3201 537.251C66.4375 534.316 64.3246 531.382 64.3246 531.382C64.3246 531.382 62.0944 523.987 57.9861 524.574C54.3473 525.043 48.8304 530.091 45.4264 532.321C42.0223 534.551 42.3745 577.043 42.2571 579.156C41.6702 586.903 36.7402 594.298 33.5709 601.927C26.0586 619.652 26.0586 639.489 26.0586 639.489C26.0586 639.489 29.1105 653.81 41.5528 656.392Z" fill="white"/>
        <path d="M53.7605 588.898C53.7605 588.898 54.23 591.95 70.7807 590.189C87.4487 588.311 111.394 581.973 111.394 581.973L72.6588 582.912C72.7761 582.794 57.9862 583.851 53.7605 588.898Z" fill="#E9D6B8"/>
        <path d="M98.4824 584.438C106.464 583.733 110.103 587.138 113.272 587.959C116.442 588.781 119.728 590.307 119.728 590.189C117.733 587.255 115.15 587.372 113.859 586.433C112.451 585.494 112.92 585.964 115.737 585.612C117.381 585.377 120.315 587.724 122.428 589.016C124.306 590.072 125.363 590.072 125.363 590.072C125.363 590.072 123.132 587.607 120.315 585.729C116.911 583.499 112.92 581.621 111.981 581.386C110.22 580.916 104.938 581.151 101.182 581.973C97.0739 583.029 92.8482 584.907 98.4824 584.438Z" fill="#E9D6B8"/>
        <path d="M111.629 581.738C111.629 581.738 117.85 582.677 118.907 583.264C119.728 583.733 123.015 586.433 123.015 586.433C123.015 586.433 120.785 586.316 119.376 585.259C117.968 584.203 111.629 581.738 111.629 581.738Z" fill="#E9D6B8"/>
        <path d="M66.2027 589.72L45.0742 582.09C45.0742 582.09 46.6002 594.298 47.0697 598.993C47.5392 603.688 46.3654 610.496 50.239 610.966C54.1125 611.435 56.108 610.731 52.4692 613.431C48.8304 616.13 50.0042 618.361 51.7649 620.004C53.5256 621.765 47.8913 640.78 47.8913 640.78C47.8913 640.78 48.4783 641.015 50.1216 641.954C55.4037 633.738 61.8596 624.347 63.8551 617.187C66.3201 608.149 66.4375 597.936 66.2027 589.72Z" fill="#D9E6F9"/>
        <path d="M60.5685 581.738L58.6904 542.533C58.6904 542.533 56.5776 534.316 53.5257 532.438C49.8869 530.208 44.8395 534.316 44.8395 534.316C44.8395 534.316 42.2572 540.42 44.0179 569.413C45.1917 588.781 46.9524 598.758 56.1081 597.35C64.6769 596.058 74.3021 594.063 74.3021 594.063L77.7061 580.799L60.5685 581.738Z" fill="white"/>
        <path d="M93.6697 591.833C93.6697 591.833 93.6697 591.715 93.6697 591.833V590.072H162.689V591.715L162.572 592.067C161.633 593.476 160.107 593.828 158.229 593.828H98.1301C96.252 593.828 94.7261 593.593 93.7871 592.067L93.6697 591.833Z" fill="#D0DEE6"/>
        <path d="M110.22 592.067L110.103 592.42C109.868 592.772 109.516 593.124 109.047 593.241H98.5997C96.839 593.241 95.3131 593.006 94.4914 591.833L94.374 591.598V590.776H110.338V592.067H110.22Z" fill="#B6C2C9"/>
        <path d="M154.121 590.424H119.611V591.598H154.121V590.424Z" fill="#B6C2C9"/>
        <path d="M110.69 590.072L119.611 556.149C119.846 555.21 120.785 554.506 121.606 554.506H169.967C170.906 554.506 171.376 555.21 171.141 556.149L162.22 590.072H110.69Z" fill="#D7DFE2"/>
        <path d="M138.04 572.23C137.57 573.991 138.626 575.399 140.387 575.399C142.148 575.399 143.909 573.991 144.378 572.23C144.848 570.469 143.791 569.061 142.03 569.061C140.27 569.178 138.509 570.469 138.04 572.23Z" fill="#B6C2C9"/>
        <path d="M321.857 729.872H330.191L316.575 598.054H304.603L321.857 729.872Z" fill="#3FE0E6"/>
        <path d="M305.424 604.158L310.589 644.067L316.81 600.988L316.576 598.054H306.129L305.424 604.158Z" fill="#00939B"/>
        <path d="M161.516 729.872H169.733L156.116 598.054H144.144L161.516 729.872Z" fill="#3FE0E6"/>
        <path d="M144.965 604.158L150.247 644.067L156.468 600.988L156.116 598.054H145.669L144.965 604.158Z" fill="#00939B"/>
        <path d="M74.8889 729.872H66.5549L80.1711 598.054H92.1439L74.8889 729.872Z" fill="#3FE0E6"/>
        <path d="M91.4395 604.158L75.3584 644.771L79.9362 600.988L80.171 598.054H90.6179L91.4395 604.158Z" fill="#00939B"/>
        <path d="M168.206 593.711H68.6677V601.458H168.206V593.711Z" fill="#00939B"/>
        <path d="M326.318 593.711H163.511V601.458H326.318V593.711Z" fill="#3FE0E6"/>
        <path d="M60.6857 522.109C60.6857 522.109 66.0852 529.269 67.0242 535.842C67.9633 542.415 65.2635 578.217 65.2635 578.217L63.3854 546.759L64.794 541.946L62.329 541.476C62.329 541.476 60.0988 529.269 58.4554 527.273C56.6947 525.278 56.46 524.574 56.46 524.574L60.6857 522.109Z" fill="#D9E6F9"/>
        <path d="M69.4893 528.212C69.4893 528.212 75.8278 541.946 76.0626 549.81C76.2973 557.675 73.5976 577.512 73.5976 577.512C73.5976 577.512 77.2364 551.336 78.2928 551.336C79.2318 551.336 77.3538 547.463 77.3538 547.463L78.8797 546.289C78.8797 546.289 77.119 534.081 74.4192 531.147C71.7195 527.978 69.4893 528.212 69.4893 528.212Z" fill="#D9E6F9"/>
        <path d="M422.335 0.117371H281.479V159.755H422.335V0.117371Z" stroke="#C1E3FE" stroke-width="0.1096" stroke-miterlimit="10"/>
        <path d="M281.479 136.983H422.335" stroke="#C1E3FE" stroke-width="0.1096" stroke-miterlimit="10"/>
        <path d="M281.479 114.094H422.335" stroke="#C1E3FE" stroke-width="0.1096" stroke-miterlimit="10"/>
        <path d="M281.479 91.3221H422.335" stroke="#C1E3FE" stroke-width="0.1096" stroke-miterlimit="10"/>
        <path d="M281.479 68.5502H422.335" stroke="#C1E3FE" stroke-width="0.1096" stroke-miterlimit="10"/>
        <path d="M281.479 45.661H422.335" stroke="#C1E3FE" stroke-width="0.1096" stroke-miterlimit="10"/>
        <path d="M281.479 22.8892H422.335" stroke="#C1E3FE" stroke-width="0.1096" stroke-miterlimit="10"/>
        <path d="M375.383 0.117371V159.755" stroke="#C1E3FE" stroke-width="0.1096" stroke-miterlimit="10"/>
        <path d="M328.431 0.117371V159.755" stroke="#C1E3FE" stroke-width="0.1096" stroke-miterlimit="10"/>
        <path d="M281.479 0.117371L274.201 7.39496" stroke="#C1E3FE" stroke-width="0.1096" stroke-miterlimit="10"/>
        <path d="M281.479 22.8892L274.201 30.1668" stroke="#C1E3FE" stroke-width="0.1096" stroke-miterlimit="10"/>
        <path d="M281.479 45.661L274.201 52.9386" stroke="#C1E3FE" stroke-width="0.1096" stroke-miterlimit="10"/>
        <path d="M281.479 68.5502L274.201 75.8278" stroke="#C1E3FE" stroke-width="0.1096" stroke-miterlimit="10"/>
        <path d="M281.479 91.3221L274.201 98.5997" stroke="#C1E3FE" stroke-width="0.1096" stroke-miterlimit="10"/>
        <path d="M281.479 114.094L274.201 121.371" stroke="#C1E3FE" stroke-width="0.1096" stroke-miterlimit="10"/>
        <path d="M281.479 136.983L274.201 144.261" stroke="#C1E3FE" stroke-width="0.1096" stroke-miterlimit="10"/>
        <path d="M267.745 144.848L267.041 145.2L266.923 144.73L267.862 144.261H268.332V148.369H267.745V144.848Z" fill="#C1E3FE"/>
        <path d="M272.558 146.374C272.558 147.782 272.088 148.604 271.149 148.604C270.327 148.604 269.74 147.899 269.74 146.491C269.74 145.082 270.327 144.378 271.149 144.378C271.971 144.261 272.558 145.082 272.558 146.374ZM270.21 146.374C270.21 147.43 270.562 148.017 271.032 148.017C271.619 148.017 271.853 147.313 271.853 146.256C271.853 145.2 271.619 144.613 271.032 144.613C270.68 144.73 270.21 145.317 270.21 146.374Z" fill="#C1E3FE"/>
        <path d="M266.454 125.832V125.48L266.923 125.01C267.98 123.954 268.449 123.484 268.449 122.897C268.449 122.428 268.215 122.076 267.628 122.076C267.276 122.076 266.923 122.311 266.806 122.428L266.571 122.076C266.806 121.841 267.276 121.606 267.745 121.606C268.684 121.606 269.036 122.193 269.036 122.78C269.036 123.602 268.449 124.189 267.628 125.01L267.276 125.362H269.154V125.832H266.454Z" fill="#C1E3FE"/>
        <path d="M272.558 123.719C272.558 125.128 272.088 125.949 271.149 125.949C270.327 125.949 269.74 125.245 269.74 123.836C269.74 122.428 270.327 121.724 271.149 121.724C271.971 121.606 272.558 122.428 272.558 123.719ZM270.21 123.719C270.21 124.776 270.562 125.362 271.032 125.362C271.619 125.362 271.853 124.658 271.853 123.602C271.853 122.545 271.619 121.958 271.032 121.958C270.68 122.076 270.21 122.663 270.21 123.719Z" fill="#C1E3FE"/>
        <path d="M266.689 102.473C266.806 102.591 267.276 102.708 267.628 102.708C268.332 102.708 268.567 102.238 268.567 101.886C268.567 101.299 267.98 101.065 267.51 101.065H267.158V100.595H267.51C267.862 100.595 268.449 100.36 268.449 99.8908C268.449 99.5387 268.215 99.3039 267.745 99.3039C267.393 99.3039 267.041 99.4213 266.923 99.5387L266.806 99.1866C267.041 99.0692 267.393 98.8344 267.862 98.8344C268.684 98.8344 269.036 99.3039 269.036 99.7735C269.036 100.243 268.802 100.595 268.215 100.713C268.684 100.83 269.154 101.182 269.154 101.769C269.154 102.473 268.684 103.06 267.628 103.06C267.158 103.06 266.806 102.943 266.571 102.825L266.689 102.473Z" fill="#C1E3FE"/>
        <path d="M272.558 101.065C272.558 102.473 272.088 103.295 271.149 103.295C270.328 103.295 269.741 102.591 269.741 101.182C269.741 99.7734 270.328 99.0692 271.149 99.0692C271.971 98.9518 272.558 99.7734 272.558 101.065ZM270.21 101.065C270.21 102.121 270.562 102.708 271.032 102.708C271.619 102.708 271.854 102.004 271.854 100.947C271.854 99.8908 271.619 99.3039 271.032 99.3039C270.68 99.4213 270.21 100.008 270.21 101.065Z" fill="#C1E3FE"/>
        <path d="M268.215 80.5231V79.3493H266.336V78.9971L268.215 76.2974H268.801V78.8797H269.388V79.3493H268.801V80.5231H268.215ZM268.215 78.9971V77.5885C268.215 77.3538 268.215 77.119 268.215 76.8843C268.097 77.119 267.98 77.3538 267.862 77.4712L266.806 78.8797H268.215V78.9971Z" fill="#C1E3FE"/>
        <path d="M272.558 78.4102C272.558 79.8188 272.088 80.6404 271.149 80.6404C270.327 80.6404 269.74 79.9362 269.74 78.5276C269.74 77.119 270.327 76.4147 271.149 76.4147C271.971 76.2974 272.558 77.119 272.558 78.4102ZM270.21 78.4102C270.21 79.4667 270.562 80.0535 271.032 80.0535C271.619 80.0535 271.853 79.3493 271.853 78.2928C271.853 77.2364 271.619 76.6495 271.032 76.6495C270.68 76.7669 270.21 77.3538 270.21 78.4102Z" fill="#C1E3FE"/>
        <path d="M268.919 54.2298H267.393L267.276 55.2862C267.393 55.2862 267.51 55.2862 267.628 55.2862C267.98 55.2862 268.215 55.4036 268.567 55.521C268.919 55.7558 269.154 56.1079 269.154 56.5774C269.154 57.3991 268.567 57.986 267.628 57.986C267.158 57.986 266.806 57.8686 266.571 57.7512L266.689 57.2817C266.806 57.3991 267.158 57.5165 267.628 57.5165C268.097 57.5165 268.567 57.1643 268.567 56.5774C268.567 55.9905 268.215 55.6384 267.393 55.6384C267.158 55.6384 266.923 55.6384 266.806 55.6384L267.041 53.6429H269.036V54.2298H268.919Z" fill="#C1E3FE"/>
        <path d="M272.558 55.7558C272.558 57.1643 272.088 57.986 271.149 57.986C270.328 57.986 269.741 57.2817 269.741 55.8731C269.741 54.4646 270.328 53.7603 271.149 53.7603C271.971 53.6429 272.558 54.4646 272.558 55.7558ZM270.21 55.8731C270.21 56.9296 270.562 57.5165 271.032 57.5165C271.619 57.5165 271.854 56.8122 271.854 55.7558C271.854 54.6993 271.619 54.1124 271.032 54.1124C270.68 54.1124 270.21 54.6993 270.21 55.8731Z" fill="#C1E3FE"/>
        <path d="M268.801 31.458C268.684 31.458 268.567 31.458 268.332 31.458C267.51 31.5754 267.041 32.2797 266.923 32.9839C267.158 32.7492 267.51 32.5144 267.98 32.5144C268.684 32.5144 269.271 33.1013 269.271 33.8056C269.271 34.5099 268.801 35.2142 267.862 35.2142C266.923 35.2142 266.454 34.5099 266.454 33.4535C266.454 32.6318 266.689 32.0449 267.158 31.5754C267.51 31.2232 267.98 30.9885 268.449 30.9885C268.567 30.9885 268.801 30.9885 268.801 30.9885V31.458ZM268.684 33.923C268.684 33.3361 268.332 32.9839 267.862 32.9839C267.51 32.9839 267.158 33.2187 267.041 33.4535C267.041 33.5708 266.923 33.5708 266.923 33.6882C266.923 34.3925 267.276 34.862 267.862 34.862C268.332 34.862 268.684 34.5099 268.684 33.923Z" fill="#C1E3FE"/>
        <path d="M272.558 33.1013C272.558 34.5099 272.088 35.3315 271.149 35.3315C270.327 35.3315 269.74 34.6273 269.74 33.2187C269.74 31.8101 270.327 31.1058 271.149 31.1058C271.971 30.9885 272.558 31.8101 272.558 33.1013ZM270.21 33.2187C270.21 34.2751 270.562 34.862 271.032 34.862C271.619 34.862 271.853 34.1577 271.853 33.1013C271.853 32.0449 271.619 31.458 271.032 31.458C270.68 31.458 270.21 32.0449 270.21 33.2187Z" fill="#C1E3FE"/>
        <path d="M269.154 8.45139V8.80353L267.393 12.5597H266.806L268.567 8.92091H266.571V8.45139H269.154Z" fill="#C1E3FE"/>
        <path d="M272.558 10.4469C272.558 11.8554 272.088 12.6771 271.149 12.6771C270.328 12.6771 269.741 11.9728 269.741 10.5642C269.741 9.15568 270.328 8.4514 271.149 8.4514C271.971 8.33402 272.558 9.15568 272.558 10.4469ZM270.21 10.5642C270.21 11.6207 270.562 12.2076 271.032 12.2076C271.619 12.2076 271.854 11.5033 271.854 10.4469C271.854 9.39044 271.619 8.80354 271.032 8.80354C270.68 8.80354 270.21 9.39044 270.21 10.5642Z" fill="#C1E3FE"/>
        <path d="M296.269 168.206V167.854L296.738 167.385C297.795 166.328 298.264 165.859 298.264 165.272C298.264 164.802 298.029 164.45 297.442 164.45C297.09 164.45 296.738 164.685 296.621 164.802L296.386 164.45C296.621 164.215 297.09 163.981 297.56 163.981C298.499 163.981 298.851 164.568 298.851 165.154C298.851 165.976 298.264 166.563 297.442 167.385L297.09 167.737H298.968V168.206H296.269Z" fill="#C1E3FE"/>
        <path d="M302.255 166.093C302.255 167.502 301.785 168.324 300.846 168.324C300.025 168.324 299.438 167.619 299.438 166.211C299.438 164.802 300.025 164.098 300.846 164.098C301.785 163.981 302.255 164.685 302.255 166.093ZM300.025 166.093C300.025 167.15 300.377 167.737 300.846 167.737C301.433 167.737 301.668 167.032 301.668 165.976C301.668 164.92 301.433 164.333 300.846 164.333C300.377 164.333 300.025 165.037 300.025 166.093Z" fill="#C1E3FE"/>
        <path d="M304.016 164.568L303.311 164.92L303.194 164.45L304.133 163.981H304.602V168.089H304.016V164.568Z" fill="#C1E3FE"/>
        <path d="M308.828 163.981V164.333L307.067 168.089H306.363L308.124 164.45H306.128V163.981H308.828Z" fill="#C1E3FE"/>
        <path d="M344.16 168.206V167.854L344.629 167.385C345.686 166.328 346.155 165.859 346.155 165.272C346.155 164.802 345.92 164.45 345.333 164.45C344.981 164.45 344.629 164.685 344.512 164.802L344.277 164.45C344.512 164.215 344.981 163.981 345.451 163.981C346.39 163.981 346.742 164.568 346.742 165.154C346.742 165.976 346.155 166.563 345.333 167.385L344.981 167.737H346.859V168.206H344.16Z" fill="#C1E3FE"/>
        <path d="M350.263 166.093C350.263 167.502 349.794 168.324 348.855 168.324C348.033 168.324 347.446 167.619 347.446 166.211C347.446 164.802 348.033 164.098 348.855 164.098C349.677 163.981 350.263 164.685 350.263 166.093ZM347.916 166.093C347.916 167.15 348.268 167.737 348.737 167.737C349.324 167.737 349.559 167.032 349.559 165.976C349.559 164.92 349.324 164.333 348.737 164.333C348.268 164.333 347.916 165.037 347.916 166.093Z" fill="#C1E3FE"/>
        <path d="M351.907 164.568L351.202 164.92L351.085 164.45L352.024 163.981H352.493V168.089H351.907V164.568Z" fill="#C1E3FE"/>
        <path d="M353.902 167.15C353.902 166.68 354.254 166.211 354.724 166.093C354.254 165.859 354.019 165.507 354.019 165.154C354.019 164.45 354.606 164.098 355.311 164.098C356.132 164.098 356.484 164.568 356.484 165.154C356.484 165.507 356.367 165.859 355.78 166.093C356.25 166.328 356.602 166.68 356.602 167.15C356.602 167.854 356.015 168.324 355.193 168.324C354.489 168.206 353.902 167.737 353.902 167.15ZM356.132 167.033C356.132 166.563 355.78 166.328 355.193 166.093C354.724 166.211 354.489 166.563 354.489 166.915C354.489 167.385 354.841 167.737 355.311 167.737C355.898 167.854 356.132 167.502 356.132 167.033ZM354.606 165.037C354.606 165.507 354.959 165.624 355.428 165.859C355.78 165.741 356.015 165.507 356.015 165.154C356.015 164.802 355.78 164.45 355.311 164.45C354.841 164.333 354.606 164.685 354.606 165.037Z" fill="#C1E3FE"/>
        <path d="M392.051 168.206V167.854L392.521 167.385C393.577 166.328 394.047 165.859 394.047 165.272C394.047 164.802 393.812 164.45 393.225 164.45C392.873 164.45 392.521 164.685 392.403 164.802L392.168 164.45C392.403 164.215 392.873 163.981 393.342 163.981C394.281 163.981 394.633 164.568 394.633 165.154C394.633 165.976 394.046 166.563 393.225 167.385L392.873 167.737H394.751V168.206H392.051Z" fill="#C1E3FE"/>
        <path d="M398.155 166.093C398.155 167.502 397.685 168.324 396.746 168.324C395.925 168.324 395.338 167.619 395.338 166.211C395.338 164.802 395.925 164.098 396.746 164.098C397.568 163.981 398.155 164.685 398.155 166.093ZM395.807 166.093C395.807 167.15 396.159 167.737 396.629 167.737C397.216 167.737 397.451 167.032 397.451 165.976C397.451 164.92 397.216 164.333 396.629 164.333C396.159 164.333 395.807 165.037 395.807 166.093Z" fill="#C1E3FE"/>
        <path d="M399.798 164.568L399.094 164.92L398.977 164.45L399.916 163.981H400.385V168.089H399.798V164.568Z" fill="#C1E3FE"/>
        <path d="M402.263 167.737C402.38 167.737 402.498 167.737 402.733 167.737C403.085 167.737 403.319 167.502 403.554 167.385C403.789 167.15 404.024 166.798 404.141 166.328C403.906 166.563 403.554 166.798 403.202 166.798C402.498 166.798 402.028 166.211 402.028 165.507C402.028 164.685 402.615 163.981 403.437 163.981C404.259 163.981 404.845 164.685 404.845 165.741C404.845 166.68 404.493 167.267 404.141 167.737C403.789 168.089 403.437 168.206 402.967 168.324C402.733 168.324 402.615 168.324 402.498 168.324V167.737H402.263ZM402.38 165.389C402.38 165.859 402.733 166.211 403.202 166.211C403.554 166.211 403.906 165.976 404.024 165.741C404.024 165.741 404.024 165.624 404.024 165.507C404.024 164.802 403.789 164.215 403.202 164.215C402.733 164.333 402.38 164.802 402.38 165.389Z" fill="#C1E3FE"/>
        <path opacity="0.34" d="M422.335 22.8892H281.479V45.661H422.335V22.8892Z" fill="white"/>
        <path opacity="0.34" d="M422.335 68.5502H281.479V91.3221H422.335V68.5502Z" fill="white"/>
        <path opacity="0.34" d="M422.335 114.094H281.479V136.866H422.335V114.094Z" fill="white"/>
        <path d="M344.747 22.8892H281.479V26.528H344.747V22.8892Z" fill="#ABFBFF"/>
        <path d="M390.173 32.5144H281.479V36.1532H390.173V32.5144Z" fill="#006064"/>
        <path d="M320.214 42.0222H281.479V45.661H320.214V42.0222Z" fill="#00C6CE"/>
        <path d="M395.69 68.5502H281.479V72.189H395.69V68.5502Z" fill="#ABFBFF"/>
        <path d="M328.431 78.058H281.479V81.6968H328.431V78.058Z" fill="#006064"/>
        <path d="M375.383 87.6833H281.479V91.3221H375.383V87.6833Z" fill="#00C6CE"/>
        <path d="M328.431 114.446H281.479V118.085H328.431V114.446Z" fill="#ABFBFF"/>
        <path d="M375.383 123.954H281.479V127.593H375.383V123.954Z" fill="#006064"/>
        <path d="M358.95 133.579H281.479V137.218H358.95V133.579Z" fill="#00C6CE"/>
        <path d="M121.137 409.776H115.15V415.762H121.137V409.776Z" fill="#C1E3FE"/>
        <path d="M137.922 409.776H131.936V415.762H137.922V409.776Z" fill="#C1E3FE"/>
        <path d="M154.825 409.776H148.839V415.762H154.825V409.776Z" fill="#ABFBFF"/>
        <path d="M171.728 409.776H165.741V415.762H171.728V409.776Z" fill="#ABFBFF"/>
        <path d="M121.137 424.683H115.15V430.669H121.137V424.683Z" fill="#C1E3FE"/>
        <path d="M137.922 424.683H131.936V430.669H137.922V424.683Z" fill="#C1E3FE"/>
        <path d="M154.825 424.683H148.839V430.669H154.825V424.683Z" fill="#ABFBFF"/>
        <path d="M171.728 424.683H165.741V430.669H171.728V424.683Z" fill="#ABFBFF"/>
        <path d="M121.137 439.59H115.15V445.577H121.137V439.59Z" fill="#00C6CE"/>
        <path d="M137.922 439.59H131.936V445.577H137.922V439.59Z" fill="#C1E3FE"/>
        <path d="M154.825 439.59H148.839V445.577H154.825V439.59Z" fill="#ABFBFF"/>
        <path d="M171.728 439.59H165.741V445.577H171.728V439.59Z" fill="#ABFBFF"/>
        <path d="M121.137 454.497H115.15V460.484H121.137V454.497Z" fill="#C1E3FE"/>
        <path d="M137.922 454.497H131.936V460.484H137.922V454.497Z" fill="#C1E3FE"/>
        <path d="M154.825 454.497H148.839V460.484H154.825V454.497Z" fill="#ABFBFF"/>
        <path d="M171.728 454.497H165.741V460.484H171.728V454.497Z" fill="#ABFBFF"/>
        <path d="M121.137 469.405H115.15V475.391H121.137V469.405Z" fill="#C1E3FE"/>
        <path d="M137.922 469.405H131.936V475.391H137.922V469.405Z" fill="#C1E3FE"/>
        <path d="M154.825 469.405H148.839V475.391H154.825V469.405Z" fill="#ABFBFF"/>
        <path d="M171.728 469.405H165.741V475.391H171.728V469.405Z" fill="#ABFBFF"/>
        <path d="M121.137 484.312H115.15V490.299H121.137V484.312Z" fill="#C1E3FE"/>
        <path d="M137.922 484.312H131.936V490.299H137.922V484.312Z" fill="#C1E3FE"/>
        <path d="M154.825 484.312H148.839V490.299H154.825V484.312Z" fill="#C1E3FE"/>
        <path d="M171.728 484.312H165.741V490.299H171.728V484.312Z" fill="#C1E3FE"/>
        <path d="M192.152 5.39951V99.4213" stroke="#C1E3FE" stroke-width="0.1645" stroke-miterlimit="10"/>
        <path d="M153.886 5.39951V99.4213" stroke="#C1E3FE" stroke-width="0.1645" stroke-miterlimit="10"/>
        <path d="M115.62 5.39951V99.4213" stroke="#C1E3FE" stroke-width="0.1645" stroke-miterlimit="10"/>
        <path d="M77.3538 5.39951V99.4213" stroke="#C1E3FE" stroke-width="0.1645" stroke-miterlimit="10"/>
        <path opacity="0.34" d="M192.152 5.39951H115.62V99.3039H192.152V5.39951Z" fill="white"/>
        <path d="M230.535 5.39951H39.0876V99.3039H230.535V5.39951Z" stroke="#C1E3FE" stroke-width="0.1645" stroke-miterlimit="10"/>
        <path d="M230.418 83.6923H39.0876" stroke="#C1E3FE" stroke-width="0.1645" stroke-miterlimit="10"/>
        <path d="M39.0876 68.0807H230.418" stroke="#C1E3FE" stroke-width="0.1645" stroke-miterlimit="10"/>
        <path d="M39.0876 52.3517H230.418" stroke="#C1E3FE" stroke-width="0.1645" stroke-miterlimit="10"/>
        <path d="M39.0876 36.7401H230.418" stroke="#C1E3FE" stroke-width="0.1645" stroke-miterlimit="10"/>
        <path d="M39.0876 21.1285H230.418" stroke="#C1E3FE" stroke-width="0.1645" stroke-miterlimit="10"/>
        <path d="M35.8011 98.4823C35.8011 99.8908 35.3315 100.595 34.3925 100.595C33.5708 100.595 33.1013 99.8908 33.1013 98.4823C33.1013 97.0737 33.6882 96.3694 34.5099 96.3694C35.3315 96.4868 35.8011 97.1911 35.8011 98.4823ZM33.5708 98.5996C33.5708 99.6561 33.923 100.243 34.3925 100.243C34.9794 100.243 35.2142 99.5387 35.2142 98.5996C35.2142 97.5432 34.9794 96.9563 34.3925 96.9563C33.923 96.8389 33.5708 97.4258 33.5708 98.5996Z" fill="#C1E3FE"/>
        <path d="M31.1058 81.3447L30.4016 81.6969L30.2842 81.2273L31.2232 80.7578H31.6927V84.8661H31.1058V81.3447Z" fill="#C1E3FE"/>
        <path d="M35.8011 82.7533C35.8011 84.1619 35.3315 84.8661 34.3925 84.8661C33.5708 84.8661 33.1013 84.1619 33.1013 82.7533C33.1013 81.3447 33.6882 80.6404 34.5099 80.6404C35.3315 80.7578 35.8011 81.4621 35.8011 82.7533ZM33.5708 82.8707C33.5708 83.9271 33.923 84.514 34.3925 84.514C34.9794 84.514 35.2142 83.8097 35.2142 82.8707C35.2142 81.8142 34.9794 81.2273 34.3925 81.2273C33.923 81.11 33.5708 81.6969 33.5708 82.8707Z" fill="#C1E3FE"/>
        <path d="M29.9321 69.1371V68.785L30.4017 68.3155C31.4581 67.3764 31.9276 66.7895 31.9276 66.2026C31.9276 65.7331 31.6928 65.381 31.1059 65.381C30.7538 65.381 30.4016 65.6157 30.2843 65.7331L30.1669 65.381C30.4017 65.1462 30.8712 64.9114 31.3407 64.9114C32.1624 64.9114 32.6319 65.4983 32.6319 66.0852C32.6319 66.7895 32.045 67.4938 31.2233 68.3155L30.8712 68.6676H32.7493V69.1371H29.9321Z" fill="#C1E3FE"/>
        <path d="M35.8013 67.1417C35.8013 68.5502 35.3318 69.2545 34.3927 69.2545C33.5711 69.2545 33.1016 68.5502 33.1016 67.1417C33.1016 65.7331 33.6885 65.0288 34.5101 65.0288C35.3318 65.0288 35.8013 65.8505 35.8013 67.1417ZM33.5711 67.1417C33.5711 68.1981 33.9232 68.785 34.3927 68.785C34.9797 68.785 35.2144 68.0807 35.2144 67.1417C35.2144 66.0852 34.9797 65.4983 34.3927 65.4983C33.9232 65.4983 33.5711 66.0852 33.5711 67.1417Z" fill="#C1E3FE"/>
        <path d="M30.0493 52.8213C30.1667 52.9386 30.5188 53.056 30.9884 53.056C31.6926 53.056 31.9274 52.5865 31.9274 52.2344C31.9274 51.6475 31.4579 51.4127 30.871 51.4127H30.5188V50.9432H30.871C31.2231 50.9432 31.81 50.7084 31.81 50.2389C31.81 49.8867 31.5753 49.652 31.1057 49.652C30.7536 49.652 30.5188 49.7694 30.2841 49.8867L30.1667 49.5346C30.4015 49.4172 30.7536 49.1825 31.2231 49.1825C32.0448 49.1825 32.3969 49.652 32.3969 50.1215C32.3969 50.591 32.1622 50.9432 31.6926 51.0605C32.1622 51.1779 32.6317 51.5301 32.6317 52.117C32.6317 52.8213 32.1622 53.2908 31.1057 53.2908C30.6362 53.2908 30.2841 53.1734 30.0493 53.056V52.8213Z" fill="#C1E3FE"/>
        <path d="M35.8011 51.4127C35.8011 52.8212 35.3315 53.5255 34.3925 53.5255C33.5708 53.5255 33.1013 52.8212 33.1013 51.4127C33.1013 50.0041 33.6882 49.2998 34.5099 49.2998C35.3315 49.2998 35.8011 50.1215 35.8011 51.4127ZM33.5708 51.4127C33.5708 52.4691 33.923 53.056 34.3925 53.056C34.9794 53.056 35.2142 52.3517 35.2142 51.4127C35.2142 50.3563 34.9794 49.7694 34.3925 49.7694C33.923 49.7694 33.5708 50.3563 33.5708 51.4127Z" fill="#C1E3FE"/>
        <path d="M31.5754 37.7965V36.7401H29.6973V36.388L31.458 33.8056H32.0449V36.388H32.6318V36.8575H32.0449V37.9139H31.5754V37.7965ZM31.5754 36.2706V34.862C31.5754 34.6273 31.5754 34.3925 31.5754 34.2751C31.458 34.5099 31.3406 34.7446 31.2232 34.862L30.2842 36.2706H31.5754Z" fill="#C1E3FE"/>
        <path d="M35.8011 35.6837C35.8011 37.0923 35.3315 37.7965 34.3925 37.7965C33.5708 37.7965 33.1013 37.0923 33.1013 35.6837C33.1013 34.2751 33.6882 33.5708 34.5099 33.5708C35.3315 33.5708 35.8011 34.3925 35.8011 35.6837ZM33.5708 35.8011C33.5708 36.8575 33.923 37.4444 34.3925 37.4444C34.9794 37.4444 35.2142 36.7401 35.2142 35.8011C35.2142 34.7446 34.9794 34.1577 34.3925 34.1577C33.923 34.0404 33.5708 34.6273 33.5708 35.8011Z" fill="#C1E3FE"/>
        <path d="M32.2797 18.4288H30.7537L30.6364 19.4852C30.7537 19.4852 30.8711 19.4852 30.9885 19.4852C31.3406 19.4852 31.5754 19.6026 31.8102 19.7199C32.1623 19.9547 32.3971 20.3069 32.3971 20.7764C32.3971 21.598 31.8102 22.1849 30.8711 22.1849C30.4016 22.1849 30.0495 22.0676 29.8147 21.9502L29.9321 21.4807C30.0495 21.598 30.4016 21.7154 30.7537 21.7154C31.2233 21.7154 31.6928 21.3633 31.6928 20.7764C31.6928 20.3069 31.3406 19.8373 30.519 19.8373C30.2842 19.8373 30.0495 19.8373 29.9321 19.8373L30.1668 17.8419H32.1623V18.4288H32.2797Z" fill="#C1E3FE"/>
        <path d="M35.8011 19.9547C35.8011 21.3633 35.3315 22.0676 34.3925 22.0676C33.5708 22.0676 33.1013 21.3633 33.1013 19.9547C33.1013 18.5461 33.6882 17.8419 34.5099 17.8419C35.3315 17.9592 35.8011 18.6635 35.8011 19.9547ZM33.5708 20.0721C33.5708 21.1285 33.923 21.7154 34.3925 21.7154C34.9794 21.7154 35.2142 21.0111 35.2142 20.0721C35.2142 19.0157 34.9794 18.4288 34.3925 18.4288C33.923 18.3114 33.5708 18.8983 33.5708 20.0721Z" fill="#C1E3FE"/>
        <path d="M57.5165 104.586L56.8123 104.938V104.469L57.6339 103.999H58.1034V107.873H57.5165V104.586Z" fill="#C1E3FE"/>
        <path d="M94.7261 107.873V107.521L95.0782 107.168C96.0173 106.229 96.4868 105.76 96.4868 105.173C96.4868 104.821 96.252 104.469 95.7825 104.469C95.4304 104.469 95.1956 104.703 94.9608 104.821L94.8435 104.469C95.0782 104.234 95.4304 104.117 95.8999 104.117C96.7215 104.117 97.0737 104.703 97.0737 105.173C97.0737 105.877 96.6042 106.464 95.7825 107.168L95.4304 107.403H97.1911V107.873H94.7261Z" fill="#C1E3FE"/>
        <path d="M133.11 107.286C133.227 107.403 133.579 107.521 133.931 107.521C134.635 107.521 134.753 107.051 134.753 106.816C134.753 106.229 134.283 105.995 133.814 105.995H133.579V105.642H133.814C134.166 105.642 134.635 105.408 134.635 104.938C134.635 104.586 134.401 104.351 133.931 104.351C133.579 104.351 133.344 104.469 133.11 104.586L132.992 104.234C133.227 104.117 133.579 103.882 134.049 103.882C134.753 103.882 135.105 104.351 135.105 104.821C135.105 105.173 134.87 105.525 134.401 105.76C134.87 105.877 135.222 106.229 135.222 106.699C135.222 107.286 134.753 107.873 133.814 107.873C133.344 107.873 132.992 107.755 132.875 107.638L133.11 107.286Z" fill="#C1E3FE"/>
        <path d="M172.902 107.873V106.816H171.141V106.464L172.902 103.999H173.488V106.347H174.075V106.816H173.488V107.873H172.902ZM172.902 106.464V105.173C172.902 104.938 172.902 104.821 172.902 104.586C172.784 104.821 172.667 104.938 172.549 105.173L171.61 106.464H172.902Z" fill="#C1E3FE"/>
        <path d="M211.872 104.469H210.463L210.346 105.408C210.463 105.408 210.463 105.408 210.698 105.408C211.05 105.408 211.285 105.525 211.52 105.643C211.872 105.76 212.107 106.112 212.107 106.582C212.107 107.286 211.52 107.873 210.698 107.873C210.229 107.873 209.876 107.755 209.759 107.638L209.876 107.286C209.994 107.403 210.346 107.521 210.698 107.521C211.168 107.521 211.637 107.168 211.637 106.699C211.637 106.229 211.285 105.877 210.581 105.877C210.346 105.877 210.229 105.877 209.994 105.877L210.229 103.999H212.107V104.469H211.872Z" fill="#C1E3FE"/>
        <path d="M39.0876 100.008L77.3537 84.3966L115.62 67.6112L153.886 52.117H192.504L230.418 36.7401" stroke="#00939B" stroke-width="0.8855" stroke-miterlimit="10"/>
        <path d="M39.0876 83.6923L77.3537 68.0807L115.62 83.6923L153.886 69.1371L192.152 22.0675L230.418 5.39951" stroke="#3FE0E6" stroke-width="0.9479" stroke-miterlimit="10"/>
        <path d="M194.382 22.0675C194.382 23.2413 193.443 24.2978 192.152 24.2978C190.978 24.2978 189.922 23.3587 189.922 22.0675C189.922 20.8937 190.861 19.8373 192.152 19.8373C193.326 19.8373 194.382 20.8937 194.382 22.0675Z" fill="white" stroke="#3FE0E6" stroke-width="0.9479" stroke-miterlimit="10"/>
        <path d="M156.116 69.1372C156.116 70.311 155.177 71.3674 153.886 71.3674C152.712 71.3674 151.656 70.4283 151.656 69.1372C151.656 67.9633 152.595 66.9069 153.886 66.9069C155.06 67.0243 156.116 67.9633 156.116 69.1372Z" fill="white" stroke="#3FE0E6" stroke-width="0.9479" stroke-miterlimit="10"/>
        <path d="M117.733 83.6923C117.733 84.8661 116.794 85.9226 115.502 85.9226C114.329 85.9226 113.272 84.9835 113.272 83.6923C113.272 82.5185 114.211 81.4621 115.502 81.4621C116.794 81.4621 117.733 82.5185 117.733 83.6923Z" fill="white" stroke="#3FE0E6" stroke-width="0.9479" stroke-miterlimit="10"/>
        <path d="M79.4666 68.0807C79.4666 69.2545 78.5275 70.311 77.2363 70.311C76.0625 70.311 75.0061 69.3719 75.0061 68.0807C75.0061 66.9069 75.9452 65.8505 77.2363 65.8505C78.5275 65.8505 79.4666 66.7895 79.4666 68.0807Z" fill="white" stroke="#3FE0E6" stroke-width="0.9479" stroke-miterlimit="10"/>
        <path d="M155.177 52.3517C155.177 53.5255 154.238 54.5819 152.947 54.5819C151.773 54.5819 150.717 53.6429 150.717 52.3517C150.717 51.1779 151.656 50.1215 152.947 50.1215C154.238 50.1215 155.177 51.0605 155.177 52.3517Z" fill="white" stroke="#00939B" stroke-width="0.8855" stroke-miterlimit="10"/>
        <path d="M194.265 52.3517C194.265 53.5255 193.326 54.5819 192.034 54.5819C190.743 54.5819 189.804 53.6429 189.804 52.3517C189.804 51.1779 190.743 50.1215 192.034 50.1215C193.326 50.1215 194.265 51.0605 194.265 52.3517Z" fill="white" stroke="#00939B" stroke-width="0.8855" stroke-miterlimit="10"/>
        <path d="M255.772 320.566L255.068 320.918L254.95 320.566L255.772 320.097H256.242V323.736H255.772V320.566Z" fill="#C1E3FE"/>
        <path d="M260.115 321.975C260.115 323.266 259.646 323.97 258.824 323.97C258.12 323.97 257.65 323.266 257.65 322.092C257.65 320.801 258.237 320.214 258.941 320.214C259.646 320.097 260.115 320.684 260.115 321.975ZM258.12 321.975C258.12 322.914 258.472 323.501 258.824 323.501C259.293 323.501 259.528 322.914 259.528 321.975C259.528 321.036 259.293 320.449 258.824 320.449C258.354 320.449 258.12 320.918 258.12 321.975Z" fill="#C1E3FE"/>
        <path d="M254.716 304.719V304.367L255.068 304.015C256.007 303.076 256.477 302.606 256.477 302.137C256.477 301.785 256.242 301.432 255.772 301.432C255.42 301.432 255.185 301.55 254.951 301.785L254.833 301.432C255.068 301.198 255.42 301.08 255.89 301.08C256.711 301.08 257.063 301.667 257.063 302.137C257.063 302.841 256.594 303.428 255.772 304.132L255.42 304.367H257.063V304.836H254.716V304.719Z" fill="#C1E3FE"/>
        <path d="M260.115 302.842C260.115 304.133 259.646 304.837 258.824 304.837C258.12 304.837 257.65 304.133 257.65 302.959C257.65 301.668 258.237 301.081 258.942 301.081C259.646 300.964 260.115 301.668 260.115 302.842ZM258.12 302.959C258.12 303.898 258.472 304.485 258.824 304.485C259.294 304.485 259.528 303.898 259.528 302.959C259.528 302.02 259.294 301.433 258.824 301.433C258.355 301.433 258.12 301.903 258.12 302.959Z" fill="#C1E3FE"/>
        <path d="M254.833 285.117C254.951 285.234 255.303 285.351 255.655 285.351C256.242 285.351 256.477 284.999 256.477 284.647C256.477 284.177 256.007 283.943 255.537 283.943H255.303V283.591H255.537C255.89 283.591 256.359 283.356 256.359 283.004C256.359 282.652 256.124 282.417 255.655 282.417C255.303 282.417 255.068 282.534 254.951 282.652L254.833 282.299C255.068 282.182 255.42 282.065 255.772 282.065C256.477 282.065 256.829 282.534 256.829 283.004C256.829 283.356 256.594 283.708 256.124 283.825C256.594 283.943 256.946 284.295 256.946 284.764C256.946 285.351 256.477 285.821 255.655 285.821C255.185 285.821 254.833 285.703 254.716 285.586L254.833 285.117Z" fill="#C1E3FE"/>
        <path d="M260.115 283.826C260.115 285.117 259.646 285.822 258.824 285.822C258.12 285.822 257.65 285.117 257.65 283.944C257.65 282.652 258.237 282.065 258.942 282.065C259.646 281.948 260.115 282.652 260.115 283.826ZM258.12 283.826C258.12 284.765 258.472 285.352 258.824 285.352C259.294 285.352 259.528 284.765 259.528 283.826C259.528 282.887 259.294 282.3 258.824 282.3C258.355 282.3 258.12 282.887 258.12 283.826Z" fill="#C1E3FE"/>
        <path d="M256.242 266.689V265.632H254.481V265.28L256.124 262.932H256.711V265.28H257.181V265.632H256.711V266.689H256.242ZM256.242 265.28V263.989C256.242 263.754 256.242 263.637 256.242 263.402C256.124 263.637 256.007 263.754 255.89 263.989L254.95 265.28H256.242Z" fill="#C1E3FE"/>
        <path d="M260.115 264.811C260.115 266.102 259.646 266.806 258.824 266.806C258.12 266.806 257.65 266.102 257.65 264.928C257.65 263.637 258.237 263.05 258.942 263.05C259.646 262.932 260.115 263.519 260.115 264.811ZM258.12 264.811C258.12 265.75 258.472 266.336 258.824 266.336C259.294 266.336 259.528 265.75 259.528 264.811C259.528 263.871 259.294 263.285 258.824 263.285C258.355 263.285 258.12 263.754 258.12 264.811Z" fill="#C1E3FE"/>
        <path d="M256.946 244.268H255.537L255.42 245.207C255.537 245.207 255.537 245.207 255.772 245.207C256.007 245.207 256.359 245.325 256.594 245.442C256.829 245.559 257.181 245.911 257.181 246.381C257.181 247.085 256.594 247.672 255.772 247.672C255.42 247.672 255.068 247.555 254.833 247.437L254.95 247.085C255.068 247.203 255.42 247.32 255.772 247.32C256.242 247.32 256.594 246.968 256.594 246.498C256.594 246.029 256.242 245.677 255.537 245.677C255.303 245.677 255.185 245.677 255.068 245.677L255.303 243.916H257.063V244.268H256.946Z" fill="#C1E3FE"/>
        <path d="M260.115 245.677C260.115 246.969 259.646 247.673 258.824 247.673C258.12 247.673 257.65 246.969 257.65 245.795C257.65 244.504 258.237 243.917 258.941 243.917C259.646 243.799 260.115 244.504 260.115 245.677ZM258.12 245.795C258.12 246.734 258.472 247.321 258.824 247.321C259.293 247.321 259.528 246.734 259.528 245.795C259.528 244.856 259.293 244.269 258.824 244.269C258.354 244.269 258.12 244.738 258.12 245.795Z" fill="#C1E3FE"/>
        <path d="M256.829 225.136C256.711 225.136 256.594 225.136 256.477 225.136C255.655 225.253 255.303 225.84 255.185 226.427C255.303 226.192 255.655 225.958 256.124 225.958C256.829 225.958 257.181 226.427 257.181 227.131C257.181 227.836 256.711 228.423 256.007 228.423C255.185 228.423 254.716 227.836 254.716 226.897C254.716 226.192 254.951 225.605 255.303 225.253C255.655 224.901 256.007 224.784 256.477 224.666C256.594 224.666 256.711 224.666 256.829 224.666V225.136ZM256.711 227.366C256.711 226.779 256.359 226.544 256.007 226.544C255.655 226.544 255.42 226.779 255.303 227.014C255.303 227.014 255.303 227.131 255.303 227.249C255.303 227.836 255.537 228.305 256.124 228.305C256.359 228.188 256.711 227.836 256.711 227.366Z" fill="#C1E3FE"/>
        <path d="M260.115 226.662C260.115 227.953 259.646 228.657 258.824 228.657C258.12 228.657 257.65 227.953 257.65 226.779C257.65 225.488 258.237 224.901 258.942 224.901C259.646 224.784 260.115 225.488 260.115 226.662ZM258.12 226.662C258.12 227.601 258.472 228.188 258.824 228.188C259.294 228.188 259.528 227.601 259.528 226.662C259.528 225.723 259.294 225.136 258.824 225.136C258.355 225.136 258.12 225.723 258.12 226.662Z" fill="#C1E3FE"/>
        <path d="M277.84 337.234L277.253 337.586L277.135 337.234L277.84 336.882H278.192V340.169H277.722V337.234H277.84Z" fill="#C1E3FE"/>
        <path d="M306.246 340.051V339.817L306.598 339.465C307.42 338.643 307.772 338.291 307.772 337.821C307.772 337.469 307.654 337.234 307.185 337.234C306.95 337.234 306.598 337.352 306.481 337.469L306.363 337.117C306.598 336.882 306.95 336.765 307.302 336.765C308.007 336.765 308.241 337.234 308.241 337.704C308.241 338.291 307.772 338.76 307.185 339.465L306.95 339.699H308.359V340.051H306.246Z" fill="#C1E3FE"/>
        <path d="M335.591 339.582C335.708 339.699 336.06 339.817 336.295 339.817C336.882 339.817 337 339.465 337 339.23C337 338.76 336.53 338.525 336.178 338.525H335.943V338.173H336.178C336.53 338.173 336.882 338.056 336.882 337.586C336.882 337.352 336.765 337.117 336.295 337.117C336.06 337.117 335.826 337.234 335.591 337.352L335.474 337C335.591 336.882 335.943 336.765 336.295 336.765C336.882 336.765 337.234 337.117 337.234 337.586C337.234 337.939 337 338.173 336.647 338.291C337 338.408 337.352 338.643 337.352 339.112C337.352 339.582 337 340.051 336.178 340.051C335.826 340.051 335.474 339.934 335.356 339.817L335.591 339.582Z" fill="#C1E3FE"/>
        <path d="M366.227 340.051V339.23H364.701V338.995L366.11 336.882H366.579V338.878H367.049V339.23H366.579V340.051H366.227ZM366.227 338.878V337.821C366.227 337.704 366.227 337.469 366.227 337.352C366.11 337.586 365.992 337.704 365.992 337.821L365.171 338.878H366.227Z" fill="#C1E3FE"/>
        <path d="M396.159 337.234H394.868L394.751 338.056C394.868 338.056 394.868 338.056 394.985 338.056C395.22 338.056 395.455 338.056 395.69 338.173C395.925 338.291 396.159 338.643 396.159 338.995C396.159 339.582 395.69 340.051 394.985 340.051C394.633 340.051 394.281 339.934 394.164 339.817L394.281 339.465C394.399 339.582 394.633 339.699 394.985 339.699C395.455 339.699 395.807 339.465 395.807 338.995C395.807 338.525 395.572 338.291 394.868 338.291C394.633 338.291 394.516 338.291 394.399 338.291L394.633 336.765H396.159V337.234Z" fill="#C1E3FE"/>
        <path d="M411.419 216.332H263.167V332.891H411.419V216.332Z" stroke="#C1E3FE" stroke-width="0.1867" stroke-miterlimit="10"/>
        <path d="M263.167 313.523H411.301" stroke="#C1E3FE" stroke-width="0.1867" stroke-miterlimit="10"/>
        <path d="M263.167 294.038H411.301" stroke="#C1E3FE" stroke-width="0.1867" stroke-miterlimit="10"/>
        <path d="M263.167 274.67H411.301" stroke="#C1E3FE" stroke-width="0.1867" stroke-miterlimit="10"/>
        <path d="M263.167 255.185H411.301" stroke="#C1E3FE" stroke-width="0.1867" stroke-miterlimit="10"/>
        <path d="M263.167 235.818H411.301" stroke="#C1E3FE" stroke-width="0.1867" stroke-miterlimit="10"/>
        <path d="M381.721 216.332V332.891" stroke="#C1E3FE" stroke-width="0.1867" stroke-miterlimit="10"/>
        <path d="M352.024 216.332V332.891" stroke="#C1E3FE" stroke-width="0.1867" stroke-miterlimit="10"/>
        <path d="M322.444 216.332V332.891" stroke="#C1E3FE" stroke-width="0.1867" stroke-miterlimit="10"/>
        <path d="M292.747 216.332V332.891" stroke="#C1E3FE" stroke-width="0.1867" stroke-miterlimit="10"/>
        <path d="M281.596 283.357H274.436V333.009H281.596V283.357Z" fill="#006064"/>
        <path d="M311.058 283.357H304.016V333.009H311.058V283.357Z" fill="#ABFBFF"/>
        <path d="M340.755 283.357H333.595V333.009H340.755V283.357Z" fill="#00C6CE"/>
        <path d="M370.453 283.357H363.293V333.009H370.453V283.357Z" fill="#006064"/>
        <path d="M400.033 283.357H392.873V333.009H400.033V283.357Z" fill="#00C6CE"/>
        <path d="M281.596 274.67H274.436V283.357H281.596V274.67Z" fill="#006064"/>
        <path d="M311.058 245.091H304.016V283.357H311.058V245.091Z" fill="#ABFBFF"/>
        <path d="M370.453 249.668H363.293V283.239H370.453V249.668Z" fill="#006064"/>
        <path d="M400.033 220.91H392.873V283.239H400.033V220.91Z" fill="#00C6CE"/>
        <path d="M297.442 255.185C297.442 259.646 293.921 263.167 289.46 263.167C285 263.167 281.479 259.646 281.479 255.185C281.479 250.725 285 247.203 289.46 247.203C293.921 247.203 297.442 250.842 297.442 255.185Z" fill="#ABFBFF"/>
        <path d="M287.934 257.533V256.124H285.587V255.655L287.817 252.368H288.521V255.537H289.225V256.124H288.521V257.533H287.934ZM287.934 255.655V254.011C287.934 253.777 287.934 253.425 287.934 253.19C287.817 253.542 287.7 253.659 287.465 253.894L286.174 255.655H287.934Z" fill="#ECF6F8"/>
        <path d="M292.864 253.072H290.986L290.751 254.364C290.869 254.364 290.986 254.364 291.221 254.364C291.573 254.364 292.042 254.481 292.277 254.598C292.629 254.833 292.982 255.303 292.982 255.89C292.982 256.829 292.16 257.65 291.103 257.65C290.517 257.65 290.047 257.533 289.812 257.298L289.93 256.829C290.164 256.946 290.517 257.063 290.986 257.063C291.69 257.063 292.16 256.594 292.16 256.007C292.16 255.303 291.69 254.833 290.751 254.833C290.517 254.833 290.282 254.833 290.047 254.833L290.399 252.368H292.864V253.072Z" fill="#ECF6F8"/>
        <path d="M297.442 255.185H304.015" stroke="#C2DEFF" stroke-width="0.4552" stroke-miterlimit="10"/>
        <path d="M386.417 235.818C386.417 240.278 382.895 243.799 378.435 243.799C373.974 243.799 370.453 240.278 370.453 235.818C370.453 231.357 373.974 227.836 378.435 227.836C382.895 227.836 386.417 231.357 386.417 235.818Z" fill="#00C6CE"/>
        <path d="M377.848 233.587H375.97L375.735 234.878C375.852 234.878 375.97 234.878 376.204 234.878C376.557 234.878 377.026 234.996 377.261 235.113C377.613 235.348 377.965 235.818 377.965 236.404C377.965 237.343 377.144 238.165 376.087 238.165C375.5 238.165 375.031 238.048 374.796 237.813L374.913 237.343C375.148 237.461 375.5 237.578 375.97 237.578C376.674 237.578 377.144 237.109 377.144 236.522C377.144 235.818 376.674 235.348 375.735 235.348C375.5 235.348 375.265 235.348 375.031 235.348L375.383 232.883H377.848V233.587Z" fill="#ECF6F8"/>
        <path d="M378.787 236.874C378.787 236.287 379.139 235.818 379.843 235.465C379.256 235.231 379.022 234.761 379.022 234.292C379.022 233.47 379.726 232.883 380.548 232.883C381.487 232.883 382.073 233.47 382.073 234.174C382.073 234.644 381.839 235.113 381.252 235.348C381.839 235.583 382.308 236.052 382.308 236.639C382.308 237.578 381.604 238.165 380.548 238.165C379.374 238.165 378.787 237.578 378.787 236.874ZM381.487 236.757C381.487 236.17 381.017 235.818 380.313 235.7C379.726 235.818 379.374 236.287 379.374 236.757C379.374 237.226 379.726 237.696 380.43 237.696C381.017 237.696 381.487 237.343 381.487 236.757ZM379.609 234.292C379.609 234.761 379.961 235.113 380.548 235.231C381.017 235.113 381.369 234.761 381.369 234.292C381.369 233.939 381.134 233.47 380.548 233.47C379.843 233.47 379.609 233.822 379.609 234.292Z" fill="#ECF6F8"/>
    </g>
    <defs>
        <linearGradient id="paint0_linear" x1="366.787" y1="497.987" x2="387.847" y2="505.434" gradientUnits="userSpaceOnUse">
            <stop stop-color="#D1DBEA"/>
            <stop offset="1" stop-color="#DBE7F3"/>
        </linearGradient>
        <clipPath id="clip0">
            <rect width="474.1" height="830.585" fill="white"/>
        </clipPath>
    </defs>
</svg>
