<svg width="210" height="312" viewBox="0 0 210 312" fill="none" xmlns="http://www.w3.org/2000/svg">
    <g clip-path="url(#clip0)">
        <path d="M73.4228 183.923C73.4228 183.923 135.686 184.034 159.677 184.369C176.303 184.592 177.865 160.96 171.281 157.393C151.42 146.581 89.2677 141.008 89.2677 141.008L46.9775 179.799C46.9775 179.799 49.3208 179.687 73.4228 183.923Z" fill="#194866"/>
        <path d="M1.89733 302.748C0.893081 303.863 1.67417 306.984 1.67417 306.984C1.67417 306.984 18.4117 308.879 23.7677 307.541C25.2183 307.207 27.5615 305.981 29.7932 304.755C30.1279 304.532 30.7974 303.305 31.2438 303.083C31.9133 302.637 32.248 303.305 32.8059 302.971C34.2565 302.079 35.3724 301.299 35.3724 301.188C36.8229 293.496 34.926 290.375 34.926 290.375C34.926 290.375 20.6433 285.693 17.9653 288.926C11.6051 296.729 4.01742 300.296 1.89733 302.748Z" fill="#161711"/>
        <path d="M158.449 294.388L159.565 306.984L172.286 308.21C172.286 308.21 173.178 306.538 174.182 306.65C175.075 306.761 176.079 308.656 177.307 308.767C179.985 308.99 182.886 309.325 184.113 309.436C186.457 309.659 209.554 311.889 209.554 311.889C209.554 311.889 210.336 309.325 209.778 308.322C209.443 307.876 207.434 306.761 206.095 306.315C199.735 303.863 181.547 296.283 178.869 289.706C175.745 281.792 158.449 294.388 158.449 294.388Z" fill="#161711"/>
        <path d="M42.067 160.96C42.067 160.96 37.9384 200.086 38.4963 220.707C38.9426 236.313 38.9426 266.187 35.2604 291.601C35.0372 293.162 15.0638 291.936 15.0638 291.936C15.0638 291.936 7.92243 195.07 5.80234 179.13C3.79384 163.19 9.93093 151.708 42.067 160.96Z" fill="#194866"/>
        <path d="M167.376 170.435C167.376 170.435 160.904 180.579 143.385 182.92C137.025 183.811 153.651 296.283 153.651 296.283L179.65 287.923L174.629 163.413L167.376 170.435Z" fill="#163F59"/>
        <path d="M95.6273 182.92C95.6273 182.92 61.5944 187.824 38.9429 190.165C30.5742 191.057 23.4328 167.76 22.4286 166.757C16.4031 160.403 10.3776 161.183 10.6007 160.96C15.5104 155.61 40.9514 150.705 67.6199 144.463C94.2883 138.221 98.3053 142.122 98.3053 142.122L95.6273 182.92Z" fill="#163F59"/>
        <path d="M38.2736 182.697L35.7072 258.718L33.0292 276.33L32.806 258.718L33.364 247.683L27.2269 230.628L24.1025 191.057L28.6775 192.729L28.1195 175.451L38.2736 182.697Z" fill="#163F59"/>
        <path d="M166.483 160.96L172.843 162.744L175.186 254.148L161.908 286.808L168.268 264.514L165.702 218.589C165.702 218.589 156.44 240.883 156.44 239.657C156.44 238.542 164.251 191.391 164.251 191.391C164.251 191.391 155.548 198.637 156.44 198.302C157.221 197.968 161.573 165.308 166.483 160.96Z" fill="#194866"/>
        <path d="M67.5085 144.463C40.8401 150.705 15.3991 155.61 10.4894 160.96C10.2662 161.183 16.2918 160.403 22.3173 166.757C22.5404 166.98 24.1026 174.448 25.2184 177.123C20.8667 169.32 83.465 147.25 96.9666 141.565C94.5117 140.785 87.1472 139.893 67.5085 144.463Z" fill="#194866"/>
        <path d="M61.5945 54.1736C61.5945 54.1736 37.2693 58.1865 34.5913 63.314C17.8538 94.1908 6.36068 123.396 3.23634 132.313C0.893089 139.224 -5.35558 164.75 10.1545 166.645C12.8325 166.98 23.6561 164.416 23.6561 164.416L31.2438 161.852L28.0079 155.721L27.7847 150.928C27.7847 150.928 37.4925 127.52 49.4319 105.338C61.5945 83.1554 61.5945 54.1736 61.5945 54.1736Z" fill="#D4EDFF"/>
        <path d="M29.3467 159.846C29.3467 159.846 44.0757 166.645 49.3201 174.114C54.5645 181.693 56.4615 178.684 56.4615 178.684L79.4476 159.065C79.5592 159.065 57.5773 151.151 29.3467 159.846Z" fill="#E9F6FF"/>
        <path d="M139.145 144.797L161.796 152.377C161.796 152.377 152.758 152.043 144.836 158.397C139.257 162.855 128.21 176.9 128.21 176.9C128.21 176.9 104.108 164.416 99.5329 160.737C94.9579 156.836 128.21 144.797 139.145 144.797Z" fill="#E9F6FF"/>
        <path d="M124.862 56.9603C124.862 56.9603 143.943 57.2948 147.849 73.3462C155.548 105.115 154.544 110.8 156.106 141.008C156.217 144.017 155.994 151.82 138.029 152.266C130.776 152.377 131.111 138.89 131.111 138.89C131.111 138.89 126.425 125.736 121.515 103.443C116.605 81.149 124.862 56.9603 124.862 56.9603Z" fill="#D4EDFF"/>
        <path d="M139.145 60.4159L103.661 45.5906L72.6411 43.4727L38.7198 59.3012C38.7198 59.3012 33.2522 60.1929 35.3723 86.8339C37.4924 114.701 44.1874 149.368 44.1874 149.368L132.004 152.154C132.004 152.154 129.66 101.436 133.789 78.8081C135.239 70.8939 135.239 64.9861 139.145 60.4159Z" fill="#E9F6FF"/>
        <path d="M139.256 134.319L96.4082 151.82C96.4082 151.82 126.759 156.167 145.84 152.266C158.672 149.702 139.926 133.762 139.256 134.319Z" fill="#E9D6B8"/>
        <path d="M23.9913 143.125L68.4015 145.466C68.4015 145.466 25.665 165.085 24.2144 161.741C16.1804 142.568 23.9913 143.125 23.9913 143.125Z" fill="#E9D6B8"/>
        <path d="M48.4277 141.788C50.9941 140.562 50.7709 140.562 50.7709 140.562C50.7709 140.562 53.1142 143.348 56.5732 143.906C58.247 144.129 63.8262 144.24 63.8262 144.24L71.9718 144.463L75.7656 144.24C75.7656 144.24 77.8857 143.906 78.4436 144.352C80.1173 145.466 78.6668 146.247 78.6668 146.247L64.0493 148.253L78.1088 150.036C78.1088 150.036 79.8942 150.594 80.0058 151.486C80.1173 152.377 79.4478 152.377 79.4478 152.377L63.0451 154.161L70.1864 155.833C70.1864 155.833 71.8602 156.39 72.0833 157.282C72.1949 158.285 72.3065 158.62 72.3065 158.62L57.2427 157.17C57.2427 157.059 45.8612 143.014 48.4277 141.788Z" fill="#E9D6B8"/>
        <path d="M64.6071 150.817L74.4264 152.6C74.4264 152.6 76.6581 152.712 77.6623 153.492C78.7782 154.272 78.1087 155.275 78.1087 155.275L63.0449 154.049L64.6071 150.817Z" fill="#E9D6B8"/>
        <path d="M19.1926 164.75C19.1926 164.75 4.90996 172.665 5.57946 144.017C5.69105 139.224 24.3255 140.673 24.3255 140.673L46.3074 141.788L53.114 158.397L19.1926 164.75Z" fill="#D4EDFF"/>
        <path d="M25.8876 152.712L49.5433 149.702L46.3073 141.788L24.3254 140.673C24.3254 140.673 22.0937 139.893 13.0555 143.348C-0.446121 151.931 25.8876 152.712 25.8876 152.712Z" fill="#E9F6FF"/>
        <path d="M151.531 151.82C151.531 151.82 155.771 146.024 155.548 144.129C153.874 133.428 141.377 131.421 141.377 131.421L108.571 140.227L116.159 156.836L151.531 151.82Z" fill="#D4EDFF"/>
        <path d="M68.624 50.941C68.624 50.941 104.442 40.0171 105.223 51.2754C106.004 62.5338 99.5326 110.8 96.1851 118.379C92.8376 125.959 81.1214 112.36 75.4306 87.8371C69.7399 63.314 68.624 50.941 68.624 50.941Z" fill="#7DC2F5"/>
        <path d="M73.1987 55.1768L81.0095 87.5027L81.7906 114.589L66.2805 71.6742L70.4091 67.5498L64.0488 67.2154C64.0488 67.2154 64.3836 51.7213 68.6237 46.8167C72.7523 41.9121 80.2284 42.358 76.5462 45.702C72.7523 49.0461 73.1987 55.1768 73.1987 55.1768Z" fill="#D4EDFF"/>
        <path d="M102.546 45.702C102.546 45.702 108.236 45.3676 110.133 50.2722C112.03 55.1768 113.481 66.4352 113.481 66.4352L107.79 69.1104L112.365 73.2347L95.4043 119.94C95.4043 119.94 96.5201 82.2637 98.0823 74.6838C99.5329 67.2154 102.546 45.702 102.546 45.702Z" fill="#D4EDFF"/>
        <path d="M101.988 55.1768C101.43 59.97 97.5247 63.9828 93.3961 64.2058C89.4907 64.2058 85.6969 64.2058 81.7915 64.2058C77.6629 63.9828 73.869 59.8585 73.1995 55.1768C72.3069 47.3741 71.3026 39.5713 70.2984 31.7685C69.6289 27.0868 72.4184 17.612 78.6671 14.9368C84.3579 12.4845 90.8297 12.4845 96.4089 14.9368C102.546 17.7235 105.336 27.0868 104.778 31.7685C103.885 39.5713 102.881 47.3741 101.988 55.1768Z" fill="#E2C59C"/>
        <path d="M85.8082 0C82.5723 0 79.6711 1.67203 77.9974 4.2358H74.7615C70.7445 4.2358 67.6201 7.46838 67.6201 11.4812V29.2047H72.6414V21.9593C72.6414 19.1726 74.873 16.9432 77.6626 16.9432H80.5638H75.8773H79.2248C84.3576 16.9432 88.4862 12.8189 88.4862 7.69132V0H85.8082Z" fill="#163F59"/>
        <path d="M76.882 35.7814C76.882 38.2337 74.8735 40.1286 72.5303 40.1286H72.1955C69.7407 40.1286 67.8438 38.1222 67.8438 35.7814V30.4309C67.8438 27.9786 69.8522 26.0836 72.1955 26.0836H72.5303C74.3156 26.0836 75.8778 27.1983 76.5473 28.7588" fill="#E2C59C"/>
        <path d="M81.9023 7.02251V0H84.8035H92.5028H97.1893C102.322 0 106.451 4.12433 106.451 9.25187V16.2744H103.55H95.8503H91.1638C86.0309 16.2744 81.9023 12.1501 81.9023 7.02251Z" fill="#163F59"/>
        <path d="M105.112 42.4695C105.112 46.1479 102.322 52.3901 97.6356 54.3966C91.2753 57.0718 83.7992 56.9603 77.439 54.3966C72.7525 52.3901 69.9629 46.1479 69.9629 42.4695C69.9629 31.9914 69.9629 21.5134 69.9629 11.0354C69.9629 7.35691 73.6451 4.2358 78.2201 4.12433C84.4687 4.12433 90.7174 4.12433 96.9661 4.12433C101.541 4.2358 105.223 7.35691 105.223 11.0354C105.112 21.5134 105.112 31.9914 105.112 42.4695Z" fill="#E9D6B8"/>
        <path d="M91.0528 0C94.2887 0 97.1899 1.67203 98.8636 4.2358H102.1C106.117 4.2358 109.241 7.46838 109.241 11.4812V29.2047H104.22V21.9593C104.22 19.1726 101.988 16.9432 99.1984 16.9432H100.984H92.6149C87.4821 16.9432 83.3535 12.8189 83.3535 7.69132V0H91.0528Z" fill="#163F59"/>
        <path d="M100.091 30.4309C100.091 27.9786 102.099 26.0836 104.443 26.0836H104.889C107.344 26.0836 109.241 28.09 109.241 30.4309V35.7814C109.241 38.2337 107.232 40.1286 104.889 40.1286H104.554C102.769 40.1286 101.207 39.0139 100.537 37.5648" fill="#E9D6B8"/>
        <path d="M83.3531 8.91747C83.4647 8.36013 83.5763 7.69132 83.5763 7.13398V0H80.6751H76.9929C71.86 0 67.7314 4.12433 67.7314 9.25187V16.2744H69.6284H70.6326H74.3149C74.9844 16.2744 75.6539 16.1629 76.2118 16.0514C76.8813 12.4845 79.7825 9.58628 83.3531 8.91747Z" fill="#163F59"/>
        <path d="M126.425 158.62C126.425 158.508 126.425 158.508 126.425 158.62V155.721H38.9434V158.508V158.62L39.2781 159.177C40.7287 161.629 43.4067 162.075 46.531 162.075H118.949C121.961 162.075 124.639 161.629 126.202 159.177L126.425 158.62Z" fill="#B6C2C9"/>
        <path d="M111.585 156.279H53.6729V158.285H111.585V156.279Z" fill="#879BA6"/>
        <path d="M126.313 155.944L126.536 98.6495C126.536 97.089 125.309 95.8628 123.858 95.8628H41.9561C40.3939 95.8628 39.1665 97.089 39.1665 98.6495L38.9434 155.944H126.313Z" fill="#D7DFE2"/>
        <path d="M88.0399 125.959C88.0399 128.857 85.6966 131.31 82.6839 131.31C79.7827 131.31 77.4395 128.969 77.4395 125.959C77.4395 123.061 79.7827 120.72 82.7954 120.72C85.6966 120.72 88.0399 123.061 88.0399 125.959Z" fill="#B6C2C9"/>
    </g>
    <defs>
        <clipPath id="clip0">
            <rect width="210" height="312" fill="white"/>
        </clipPath>
    </defs>
</svg>
