<svg width="545" height="444" viewBox="0 0 545 444" fill="none" xmlns="http://www.w3.org/2000/svg">
<path d="M475.963 329.265V52.9034C475.963 45.7363 470.129 39.9053 462.958 39.9053H13.9163C6.74521 39.9053 0.911133 45.7363 0.911133 52.9034V329.265H475.963Z" fill="#2F4A60"/>
<path d="M0 329.811V369.777C0 377.491 6.25948 383.686 13.9167 383.686H462.958C470.676 383.686 476.936 377.43 476.936 369.777V329.811H0Z" fill="#ABFBFF"/>
<path d="M320.571 442.542C320.571 442.542 317.107 440.842 313.156 439.323C308.902 437.744 303.798 435.74 300.82 434.282C295.533 431.791 295.107 430.091 293.163 421.527C291.036 412.112 289.03 392.311 288.179 383.686H188.696C187.906 392.311 185.901 412.173 183.713 421.527C181.768 430.152 181.282 431.791 176.056 434.282C173.078 435.679 168.095 437.683 163.841 439.262C159.83 440.781 156.487 441.935 156.487 441.935C156.487 441.935 153.266 443.696 158.432 443.939H318.444C323.245 444.121 320.571 442.542 320.571 442.542Z" fill="#ABFBFF"/>
<path d="M289.212 394.134C288.787 390.003 288.422 386.359 288.179 383.686H188.696C188.453 386.359 188.088 390.003 187.663 394.134H289.212Z" fill="#163F59"/>
<path d="M453.903 62.1964H23.0322V304.726H453.903V62.1964Z" fill="#3FE0E6"/>
<path d="M60.6499 78.5352H51.5342V113.764H60.6499V78.5352Z" fill="white"/>
<path d="M73.6548 91.6547H38.4072V100.766H73.6548V91.6547Z" fill="white"/>
<path d="M356.304 86.1882H103.677V304.726H356.304V86.1882Z" fill="#5177A0"/>
<path d="M349.012 77.0774H96.3838V304.726H349.012V77.0774Z" fill="#E6F3F2"/>
<path d="M308.416 105.625H186.63V110.97H308.416V105.625Z" fill="#9BB6CC"/>
<path d="M258.34 195.761H153.752V199.041H258.34V195.761Z" fill="#9BB6CC"/>
<path d="M134.002 195.761H123.002V199.041H134.002V195.761Z" fill="#9BB6CC"/>
<path d="M317.167 201.774H153.752V205.054H317.167V201.774Z" fill="#B2CDE0"/>
<path d="M219.203 207.848H153.752V211.128H219.203V207.848Z" fill="#B2CDE0"/>
<path d="M228.379 213.861H153.752V217.141H228.379V213.861Z" fill="#B2CDE0"/>
<path d="M215.314 219.874H153.752V223.154H215.314V219.874Z" fill="#B2CDE0"/>
<path d="M225.766 232.872H153.752V236.152H225.766V232.872Z" fill="#9BB6CC"/>
<path d="M134.002 232.872H123.002V236.152H134.002V232.872Z" fill="#9BB6CC"/>
<path d="M246.611 238.885H153.752V242.165H246.611V238.885Z" fill="#B2CDE0"/>
<path d="M219.203 244.899H153.752V248.178H219.203V244.899Z" fill="#B2CDE0"/>
<path d="M228.379 250.912H153.752V254.191H228.379V250.912Z" fill="#B2CDE0"/>
<path d="M296.261 264.639H153.752V267.918H296.261V264.639Z" fill="#9BB6CC"/>
<path d="M134.002 264.639H123.002V267.918H134.002V264.639Z" fill="#9BB6CC"/>
<path d="M317.167 270.652H153.752V273.932H317.167V270.652Z" fill="#B2CDE0"/>
<path d="M307.383 276.665H153.752V279.945H307.383V276.665Z" fill="#B2CDE0"/>
<path d="M296.261 289.359H153.752V292.639H296.261V289.359Z" fill="#9BB6CC"/>
<path d="M134.002 289.359H123.002V292.639H134.002V289.359Z" fill="#9BB6CC"/>
<path d="M146.946 195.761H135.946V199.041H146.946V195.761Z" fill="#9BB6CC"/>
<path d="M146.946 232.872H135.946V236.152H146.946V232.872Z" fill="#9BB6CC"/>
<path d="M146.946 264.639H135.946V267.918H146.946V264.639Z" fill="#9BB6CC"/>
<path d="M146.946 289.359H135.946V292.639H146.946V289.359Z" fill="#9BB6CC"/>
<path d="M317.167 295.372H153.752V298.652H317.167V295.372Z" fill="#B2CDE0"/>
<path d="M307.383 301.385H153.752V304.665H307.383V301.385Z" fill="#B2CDE0"/>
<path d="M177.878 182.824H122.88V188.169H177.878V182.824Z" fill="#9BB6CC"/>
<path d="M239.137 120.445H186.63V123.725H239.137V120.445Z" fill="#B2CDE0"/>
<path d="M237.313 126.458H186.63V129.738H237.313V126.458Z" fill="#B2CDE0"/>
<path d="M299.179 120.445H246.672V123.725H299.179V120.445Z" fill="#B2CDE0"/>
<path d="M297.355 126.458H246.672V129.738H297.355V126.458Z" fill="#B2CDE0"/>
<path d="M305.074 149.721H186.63V153.001H305.074V149.721Z" fill="#B2CDE0"/>
<path d="M271.224 155.734H186.63V159.014H271.224V155.734Z" fill="#B2CDE0"/>
<path d="M250.926 162.233H186.63V165.513H250.926V162.233Z" fill="#B2CDE0"/>
<path d="M175.265 105.625H122.454V171.101H175.265V105.625Z" fill="#3DC7C9"/>
<path d="M148.465 177.296C160.558 177.296 171.984 175.535 182.072 172.437L179.641 153.426C179.337 151.118 175.083 149.478 169.857 148.931C155.575 147.352 141.415 147.352 127.134 148.931C121.908 149.478 119.477 151.118 119.173 153.426L114.919 172.437C126.648 176.021 138.194 177.296 148.465 177.296Z" fill="#5177A0"/>
<path d="M182.072 172.437L179.641 153.426C179.337 151.118 175.083 149.478 169.857 148.931C162.443 148.142 155.089 147.717 147.675 147.777L140.99 157.374L167.487 175.778C172.531 174.927 177.453 173.834 182.072 172.437Z" fill="#325B84"/>
<path d="M157.702 152.272C157.398 156.584 152.962 159.621 147.857 159.621C142.691 159.621 138.316 156.584 138.012 152.272C137.89 150.085 137.769 147.899 137.587 145.651C137.283 141.339 141.841 137.33 147.857 137.33C153.873 137.33 158.431 141.339 158.127 145.651C158.006 147.899 157.884 150.085 157.702 152.272Z" fill="#D6E7E4"/>
<path d="M151.261 137.816C148.769 139.031 147.007 143.222 147.007 148.263C147.007 151.3 147.007 154.398 147.068 157.435C147.068 158.164 147.128 158.893 147.189 159.621C147.432 159.621 147.675 159.621 147.858 159.621C152.962 159.621 157.399 156.584 157.703 152.272C157.763 151.057 157.824 149.903 157.946 148.688C158.128 146.198 157.824 143.829 157.156 141.886C156.001 140.064 153.874 138.545 151.261 137.816Z" fill="#C4D5D5"/>
<path d="M147.918 114.735H147.857C136.857 114.614 134.183 121.781 134.852 134.354C135.095 139.213 136.249 142.918 137.343 145.712C137.708 146.623 143.177 153.122 144.818 153.122C145.547 153.122 146.824 153.426 147.918 153.305C149.011 153.365 150.227 153.122 150.956 153.122C152.597 153.122 158.066 146.623 158.431 145.712C159.525 142.918 160.68 139.213 160.923 134.354C161.53 122.146 157.945 114.492 147.918 114.735Z" fill="#004F86"/>
<path d="M138.012 137.816C138.073 139.152 137.343 140.306 136.493 140.428C135.581 140.549 134.791 139.578 134.73 138.302C134.609 136.176 134.487 134.05 134.426 131.925C134.366 130.588 135.095 129.434 136.006 129.313C136.979 129.191 137.769 130.163 137.83 131.499C137.89 133.564 137.951 135.69 138.012 137.816Z" fill="#D6E7E4"/>
<path d="M160.741 138.241C160.68 139.578 159.89 140.489 158.978 140.367C158.067 140.246 157.398 139.092 157.459 137.755C157.52 135.63 157.641 133.504 157.702 131.378C157.763 130.042 158.553 129.07 159.525 129.191C160.498 129.313 161.166 130.528 161.105 131.803C160.984 134.05 160.862 136.176 160.741 138.241Z" fill="#D6E7E4"/>
<path d="M158.309 131.985C158.066 126.276 158.856 120.992 158.856 120.992C158.917 120.992 153.508 118.198 149.254 118.38C148.829 118.38 148.343 118.501 147.796 118.744C147.249 118.562 146.763 118.441 146.337 118.38C142.144 118.198 136.735 120.992 136.735 120.992C136.735 120.992 137.525 126.276 137.282 131.985C137.039 137.695 136.249 142.675 138.133 144.254C140.078 145.834 143.299 149.539 147.553 149.721C147.613 149.721 147.735 149.721 147.796 149.721C147.857 149.721 147.978 149.721 148.039 149.721C152.354 149.539 155.575 145.894 157.458 144.254C159.342 142.675 158.552 137.695 158.309 131.985Z" fill="#E5F3F0"/>
<path d="M159.89 120.992C159.89 120.992 153.995 118.198 149.377 118.38C149.012 118.38 148.587 118.501 148.222 118.623C148.222 129.009 148.161 139.395 148.161 149.721C152.841 149.478 156.365 145.894 158.432 144.315C160.498 142.736 159.647 137.755 159.343 132.046C159.039 126.276 159.89 120.992 159.89 120.992Z" fill="#D6E7E4"/>
<path d="M135.52 131.682C135.52 131.682 134.426 119.595 133.576 118.38C132.725 117.104 144.089 114.675 147.432 114.614C150.774 114.432 153.813 115.464 155.757 115.889C157.58 116.254 148.404 123.543 148.525 123.664C148.769 122.996 148.951 122.389 149.194 121.72C148.465 122.267 147.796 122.814 147.067 123.36C144.211 122.631 141.294 121.963 138.316 121.356C138.316 122.935 138.377 124.514 138.377 126.094C137.83 126.883 137.222 127.673 136.675 128.523C136.553 129.556 136.432 130.588 136.31 131.682C136.067 131.621 135.763 131.682 135.52 131.682Z" fill="#004F86"/>
<path d="M160.012 131.682C160.012 131.682 161.47 119.595 161.956 118.38C162.503 116.983 151.443 114.675 148.1 114.614C144.758 114.432 141.962 115.464 140.018 115.889C138.802 116.072 149.863 115.525 152.962 117.529C154.056 118.137 149.741 123.36 149.802 123.36C152.233 122.631 154.724 121.963 157.216 121.356C157.216 122.935 157.155 124.514 157.155 126.094C157.702 126.883 158.31 127.673 158.857 128.523C158.978 129.556 159.1 130.588 159.222 131.682C159.525 131.621 159.768 131.682 160.012 131.682Z" fill="#004F86"/>
<path d="M144.636 130.71C141.902 130.042 138.985 130.102 136.311 131.013C136.25 131.256 136.25 131.499 136.25 131.682C136.25 131.985 136.25 132.35 136.189 132.653C136.068 134.779 137.952 136.541 140.322 136.601C140.929 136.601 141.476 136.601 142.084 136.601C144.454 136.48 146.277 134.718 146.156 132.714C146.156 132.41 146.156 132.046 146.095 131.742C146.095 131.196 144.636 130.71 144.636 130.71Z" stroke="#004F86" stroke-width="1.6466"/>
<path d="M158.857 130.71C156.123 130.042 153.206 130.102 150.532 131.013C150.471 131.256 150.471 131.499 150.41 131.682C150.41 131.985 150.41 132.35 150.349 132.653C150.228 134.779 152.112 136.541 154.421 136.601C155.029 136.601 155.576 136.601 156.183 136.601C158.553 136.48 160.377 134.718 160.255 132.714C160.255 132.41 160.255 132.046 160.194 131.742C160.316 131.196 158.857 130.71 158.857 130.71Z" stroke="#004F86" stroke-width="1.6466"/>
<path d="M150.531 131.499H145.791V133.564H150.531V131.499Z" fill="#004F86"/>
<path d="M153.752 142.614C153.205 141.764 151.381 141.035 149.072 141.035C149.072 141.035 148.282 141.582 148.221 141.521C148.161 141.46 147.431 141.035 147.431 141.035C145.122 141.035 143.238 141.764 142.691 142.614C139.288 149.174 137.951 143.343 136.432 141.46C138.984 147.413 141.354 151.786 147.978 152.697C148.039 152.697 148.1 152.697 148.221 152.697C148.282 152.697 150.288 152.454 150.348 152.454C154.42 152.454 157.398 147.413 159.95 141.46C158.431 143.283 157.155 149.114 153.752 142.614Z" fill="#004F86"/>
<path d="M145.426 143.829C145.426 143.951 145.365 144.072 145.365 144.194C145.365 145.044 146.155 145.773 147.188 145.773H149.194C150.166 145.773 151.017 145.044 151.017 144.194C151.017 144.072 151.017 143.951 150.956 143.829H145.426Z" fill="#E5F3F0"/>
<path d="M399.512 305.151C399.512 305.151 433.423 305.212 446.489 305.394C455.544 305.516 456.394 292.639 452.809 290.696C441.992 284.804 408.142 281.767 408.142 281.767L385.109 302.904C385.109 302.904 386.386 302.843 399.512 305.151Z" fill="#194866"/>
<path d="M360.557 369.899C360.011 370.506 360.436 372.207 360.436 372.207C360.436 372.207 369.552 373.239 372.469 372.511C373.259 372.328 374.535 371.66 375.75 370.992C375.933 370.871 376.297 370.202 376.54 370.081C376.905 369.838 377.087 370.202 377.391 370.02C378.181 369.534 378.789 369.109 378.789 369.048C379.579 364.857 378.546 363.157 378.546 363.157C378.546 363.157 370.767 360.606 369.309 362.367C365.845 366.619 361.651 368.502 360.557 369.899Z" fill="#161711"/>
<path d="M445.82 365.343L446.428 372.207L453.356 372.936C453.356 372.936 453.842 372.025 454.389 372.085C454.875 372.146 455.422 373.179 456.091 373.239C457.549 373.361 459.129 373.543 459.798 373.604C461.074 373.725 473.654 374.94 473.654 374.94C473.654 374.94 474.079 373.543 473.775 372.996C473.593 372.753 472.499 372.146 471.77 371.903C468.306 370.567 458.4 366.437 456.942 362.853C455.179 358.48 445.82 365.343 445.82 365.343Z" fill="#161711"/>
<path d="M382.435 292.639C382.435 292.639 380.187 313.958 380.491 325.195C380.734 333.699 380.734 349.976 378.728 363.825C378.607 364.675 367.729 364.007 367.729 364.007C367.729 364.007 363.839 311.225 362.685 302.54C361.53 293.854 364.933 287.598 382.435 292.639Z" fill="#194866"/>
<path d="M450.682 297.802C450.682 297.802 447.157 303.329 437.616 304.605C434.152 305.091 443.207 366.376 443.207 366.376L457.367 361.821L454.632 293.975L450.682 297.802Z" fill="#163F59"/>
<path d="M411.546 304.605C411.546 304.605 393.01 307.277 380.674 308.553C376.116 309.039 372.226 296.344 371.679 295.798C368.398 292.335 365.116 292.761 365.238 292.639C367.912 289.724 381.768 287.051 396.292 283.65C410.816 280.248 413.004 282.374 413.004 282.374L411.546 304.605Z" fill="#163F59"/>
<path d="M380.369 304.483L378.911 345.907L377.513 355.504L377.392 345.907L377.695 339.894L374.353 330.601L372.651 309.039L375.143 309.95L374.839 300.535L380.369 304.483Z" fill="#163F59"/>
<path d="M450.196 292.639L453.66 293.611L454.936 343.417L447.704 361.213L451.168 349.065L449.77 324.041C449.77 324.041 444.726 336.189 444.726 335.521C444.726 334.913 448.98 309.221 448.98 309.221C448.98 309.221 444.24 313.169 444.726 312.987C445.152 312.804 447.522 295.008 450.196 292.639Z" fill="#194866"/>
<path d="M396.292 283.65C381.768 287.051 367.912 289.724 365.238 292.639C365.116 292.761 368.398 292.335 371.679 295.798C371.801 295.919 372.652 299.988 373.26 301.446C370.889 297.195 404.982 285.168 412.336 282.071C410.999 281.645 406.988 281.16 396.292 283.65Z" fill="#194866"/>
<path d="M393.01 234.451C393.01 234.451 379.762 236.638 378.303 239.432C369.248 256.257 362.989 272.17 361.287 277.029C360.011 280.795 356.608 294.704 365.055 295.737C366.513 295.919 372.408 294.522 372.408 294.522L376.541 293.125L374.778 289.784L374.657 287.173C374.657 287.173 379.944 274.418 386.447 262.331C393.01 250.244 393.01 234.451 393.01 234.451Z" fill="#ABFBFF"/>
<path d="M375.508 292.032C375.508 292.032 383.53 295.737 386.386 299.806C389.242 303.937 390.275 302.297 390.275 302.297L402.794 291.607C402.794 291.607 390.883 287.294 375.508 292.032Z" fill="#E9F6FF"/>
<path d="M435.246 283.832L447.583 287.962C447.583 287.962 442.66 287.78 438.345 291.242C435.307 293.672 429.29 301.325 429.29 301.325C429.29 301.325 416.164 294.522 413.672 292.518C411.241 290.392 429.29 283.832 435.246 283.832Z" fill="#E9F6FF"/>
<path d="M427.529 235.97C427.529 235.97 437.92 236.152 440.047 244.898C444.241 262.209 443.694 265.307 444.545 281.767C444.605 283.407 444.484 287.659 434.7 287.902C430.749 287.962 430.932 280.613 430.932 280.613C430.932 280.613 428.379 273.446 425.705 261.298C423.031 249.15 427.529 235.97 427.529 235.97Z" fill="#ABFBFF"/>
<path d="M435.246 237.853L415.981 229.775L399.087 228.621L380.673 237.245C380.673 237.245 377.695 237.731 378.85 252.248C380.005 267.433 383.651 286.322 383.651 286.322L431.478 287.841C431.478 287.841 430.202 260.205 432.451 247.875C433.18 243.562 433.18 240.343 435.246 237.853Z" fill="#E9F6FF"/>
<path d="M435.368 278.123L412.031 287.659C412.031 287.659 428.561 290.027 438.953 287.901C445.942 286.504 435.671 277.819 435.368 278.123Z" fill="#E9D6B8"/>
<path d="M372.591 282.921L396.778 284.196C396.778 284.196 373.502 294.886 372.712 293.064C368.337 282.617 372.591 282.921 372.591 282.921Z" fill="#E9D6B8"/>
<path d="M385.9 282.192C387.298 281.524 387.176 281.524 387.176 281.524C387.176 281.524 388.452 283.042 390.336 283.346C391.248 283.468 394.287 283.528 394.287 283.528L398.723 283.65L400.789 283.528C400.789 283.528 401.944 283.346 402.248 283.589C403.159 284.196 402.369 284.622 402.369 284.622L394.408 285.776L402.065 286.747C402.065 286.747 403.038 287.051 403.098 287.537C403.159 288.023 402.795 288.023 402.795 288.023L393.861 288.995L397.751 289.906C397.751 289.906 398.662 290.21 398.784 290.695C398.844 291.242 398.905 291.424 398.905 291.424L390.701 290.635C390.701 290.513 384.442 282.86 385.9 282.192Z" fill="#E9D6B8"/>
<path d="M394.712 287.112L400.06 288.084C400.06 288.084 401.275 288.144 401.822 288.57C402.43 288.995 402.065 289.541 402.065 289.541L393.861 288.873L394.712 287.112Z" fill="#E9D6B8"/>
<path d="M369.977 294.704C369.977 294.704 362.199 299.017 362.563 283.407C362.624 280.795 372.773 281.585 372.773 281.585L384.745 282.192L388.452 291.242L369.977 294.704Z" fill="#ABFBFF"/>
<path d="M373.623 288.144L386.507 286.505L384.745 282.192L372.773 281.585C372.773 281.585 371.557 281.159 366.635 283.042C359.281 287.719 373.623 288.144 373.623 288.144Z" fill="#E9F6FF"/>
<path d="M442.052 287.659C442.052 287.659 444.362 284.5 444.24 283.468C443.329 277.637 436.522 276.543 436.522 276.543L418.655 281.342L422.788 290.392L442.052 287.659Z" fill="#ABFBFF"/>
<path d="M396.839 232.69C396.839 232.69 416.347 226.738 416.772 232.872C417.197 239.007 413.673 265.307 411.849 269.437C410.026 273.567 403.645 266.157 400.546 252.795C397.447 239.493 396.839 232.69 396.839 232.69Z" fill="#7DC2F5"/>
<path d="M399.391 234.998L403.645 252.612L404.07 267.372L395.623 243.987L397.871 241.74L394.407 241.558C394.407 241.558 394.59 233.115 396.899 230.443C399.147 227.77 403.219 228.013 401.214 229.835C399.087 231.657 399.391 234.998 399.391 234.998Z" fill="#ABFBFF"/>
<path d="M415.313 229.835C415.313 229.835 418.413 229.653 419.446 232.326C420.479 234.998 421.269 241.133 421.269 241.133L418.169 242.59L420.661 244.838L411.424 270.287C411.424 270.287 412.032 249.758 412.882 245.627C413.672 241.558 415.313 229.835 415.313 229.835Z" fill="#ABFBFF"/>
<path d="M415.009 234.998C414.705 237.61 412.578 239.796 410.33 239.918C408.203 239.918 406.137 239.918 404.01 239.918C401.761 239.796 399.695 237.549 399.33 234.998C398.844 230.746 398.297 226.495 397.75 222.243C397.386 219.692 398.905 214.529 402.308 213.071C405.407 211.735 408.932 211.735 411.971 213.071C415.313 214.59 416.832 219.692 416.529 222.243C416.042 226.495 415.556 230.746 415.009 234.998Z" fill="#E2C59C"/>
<path d="M406.258 204.932C404.496 204.932 402.916 205.844 402.004 207.241H400.242C398.054 207.241 396.353 209.002 396.353 211.189V220.846H399.087V216.898C399.087 215.379 400.303 214.165 401.822 214.165H403.402H400.85H402.551C405.347 214.165 407.595 211.917 407.595 209.123V204.993H406.258V204.932Z" fill="#163F59"/>
<path d="M401.397 224.43C401.397 225.766 400.303 226.798 399.027 226.798H398.845C397.508 226.798 396.475 225.705 396.475 224.43V221.514C396.475 220.178 397.568 219.145 398.845 219.145H399.027C399.999 219.145 400.85 219.753 401.215 220.603" fill="#E2C59C"/>
<path d="M404.132 208.759V204.932H405.712H409.905H412.458C415.253 204.932 417.502 207.18 417.502 209.974V213.8H415.922H411.728H409.176C406.38 213.8 404.132 211.553 404.132 208.759Z" fill="#163F59"/>
<path d="M416.772 228.074C416.772 230.078 415.253 233.48 412.7 234.573C409.236 236.031 405.165 235.97 401.701 234.573C399.148 233.48 397.629 230.078 397.629 228.074C397.629 222.364 397.629 216.655 397.629 210.946C397.629 208.941 399.634 207.24 402.126 207.18C405.529 207.18 408.932 207.18 412.336 207.18C414.827 207.24 416.833 208.941 416.833 210.946C416.772 216.655 416.772 222.364 416.772 228.074Z" fill="#E9D6B8"/>
<path d="M409.115 204.932C410.877 204.932 412.457 205.844 413.369 207.241H415.131C417.319 207.241 419.02 209.002 419.02 211.189V220.846H416.286V216.898C416.286 215.379 415.07 214.165 413.551 214.165H414.523H410.087C407.292 214.165 405.043 211.917 405.043 209.123V204.993H409.115V204.932Z" fill="#163F59"/>
<path d="M414.037 221.514C414.037 220.178 415.131 219.145 416.407 219.145H416.59C417.926 219.145 418.96 220.239 418.96 221.514V224.43C418.96 225.766 417.866 226.798 416.59 226.798H416.407C415.435 226.798 414.584 226.191 414.219 225.401" fill="#E9D6B8"/>
<path d="M404.922 209.793C404.983 209.489 405.044 209.125 405.044 208.821V204.994H403.464H401.458C398.663 204.994 396.414 207.242 396.414 210.036V213.862H397.447H397.994H400C400.364 213.862 400.729 213.801 401.033 213.741C401.397 211.736 402.917 210.157 404.922 209.793Z" fill="#163F59"/>
<path d="M428.319 291.303C428.319 291.303 428.379 291.303 428.319 291.303V289.724H380.674V291.242V291.303L380.856 291.607C381.646 292.943 383.105 293.186 384.806 293.186H424.247C425.888 293.186 427.346 292.943 428.197 291.607L428.319 291.303Z" fill="#B6C2C9"/>
<path d="M420.297 290.088H388.757V291.181H420.297V290.088Z" fill="#879BA6"/>
<path d="M428.32 289.906L428.441 258.686C428.441 257.836 427.773 257.168 426.983 257.168H382.376C381.525 257.168 380.857 257.836 380.857 258.686L380.735 289.906H428.32Z" fill="#D7DFE2"/>
<path d="M407.473 273.567C407.473 275.146 406.197 276.483 404.556 276.483C402.976 276.483 401.7 275.207 401.7 273.567C401.7 271.988 402.976 270.712 404.617 270.712C406.197 270.712 407.473 271.988 407.473 273.567Z" fill="#B6C2C9"/>
<path d="M485.505 149.903C485.505 151.361 484.35 152.515 482.892 152.515H396.353C394.894 152.515 393.74 151.361 393.74 149.903V128.584L390.154 124.514L393.74 119.777V116.375C393.74 114.918 394.894 113.764 396.353 113.764H482.892C484.35 113.764 485.505 114.918 485.505 116.375V149.903Z" fill="#ABFBFF"/>
<path d="M420.175 119.898H400.485V123.057H420.175V119.898Z" fill="#163F59"/>
<path d="M446.733 119.898H422.85V123.057H446.733V119.898Z" fill="#163F59"/>
<path d="M458.765 119.898H449.832V123.057H458.765V119.898Z" fill="#163F59"/>
<path d="M431.783 127.491H400.485V130.588H431.783V127.491Z" fill="#163F59"/>
<path d="M439.136 127.491H434.031V130.588H439.136V127.491Z" fill="#163F59"/>
<path d="M478.881 127.491H442.235V130.588H478.881V127.491Z" fill="#163F59"/>
<path d="M408.507 135.083H400.485V138.241H408.507V135.083Z" fill="#163F59"/>
<path d="M442.965 135.083H411.242V138.241H442.965V135.083Z" fill="#163F59"/>
<path d="M464.174 135.083H445.213V138.241H464.174V135.083Z" fill="#163F59"/>
<path d="M439.805 142.675H400.485V145.834H439.805V142.675Z" fill="#163F59"/>
<path d="M451.169 142.675H442.965V145.834H451.169V142.675Z" fill="#163F59"/>
<path d="M475.782 142.675H454.755V145.834H475.782V142.675Z" fill="#163F59"/>
<path d="M404.436 178.207C404.436 179.665 405.59 180.819 407.049 180.819H493.041C494.499 180.819 495.654 179.665 495.654 178.207V174.138L499.239 170.068L495.654 165.331V161.929C495.654 160.472 494.499 159.318 493.041 159.318H407.049C405.59 159.318 404.436 160.472 404.436 161.929V178.207Z" fill="#E9F6FF"/>
<path d="M478.517 168.428H472.926V171.526H478.517V168.428Z" fill="#ABFBFF"/>
<path d="M470.677 168.428H452.811V171.526H470.677V168.428Z" fill="#ABFBFF"/>
<path d="M449.65 168.428H413.005V171.526H449.65V168.428Z" fill="#ABFBFF"/>
<path d="M517.471 157.495C510.786 157.495 505.377 162.901 505.377 169.582C505.377 176.264 510.786 181.669 517.471 181.669C524.155 181.669 529.564 176.264 529.564 169.582C529.564 162.901 524.155 157.495 517.471 157.495Z" fill="#ABFBFF"/>
<path d="M521.968 170.251C520.996 169.765 519.963 169.522 518.929 169.4C518.99 169.157 518.99 168.914 519.051 168.671C519.294 168.55 519.476 168.307 519.476 168.125C519.476 167.882 519.537 167.639 519.537 167.457C519.598 167.457 519.598 167.517 519.659 167.517C519.78 167.517 519.902 167.457 519.902 167.335L520.023 166.242C520.023 166.12 519.963 166.06 519.841 165.999C519.78 165.999 519.78 165.999 519.719 165.999C519.719 165.817 519.78 165.574 519.78 165.391C519.78 165.088 519.963 164.359 519.416 163.873C518.626 163.083 516.924 163.083 516.134 163.873C515.587 164.359 515.709 165.088 515.769 165.391C515.769 165.574 515.83 165.817 515.83 165.999C515.769 165.999 515.769 165.999 515.708 165.999C515.587 165.999 515.526 166.12 515.526 166.242L515.648 167.335C515.648 167.457 515.769 167.517 515.891 167.517C515.952 167.517 516.012 167.457 516.012 167.457C516.012 167.7 516.073 167.943 516.073 168.125C516.073 168.307 516.255 168.55 516.499 168.671C516.559 168.914 516.559 169.157 516.62 169.4C515.587 169.522 514.554 169.825 513.581 170.251C513.278 170.433 513.035 170.858 513.095 171.162C513.156 171.526 513.156 171.891 513.217 172.316C513.278 172.619 513.521 172.984 513.825 173.045C516.499 173.47 519.172 173.47 521.786 173.045C522.09 172.984 522.393 172.68 522.393 172.316C522.454 171.951 522.454 171.587 522.515 171.162C522.515 170.858 522.272 170.433 521.968 170.251Z" fill="#ABFBFF"/>
<path d="M374.779 112.063C368.094 112.063 362.686 117.469 362.686 124.15C362.686 130.831 368.094 136.237 374.779 136.237C381.464 136.237 386.873 130.831 386.873 124.15C386.873 117.529 381.403 112.063 374.779 112.063Z" fill="#ABFBFF"/>
<path d="M379.215 124.879C378.243 124.393 377.21 124.15 376.176 124.028C376.237 123.785 376.237 123.543 376.298 123.3C376.541 123.178 376.723 122.935 376.723 122.753C376.723 122.51 376.784 122.267 376.784 122.085C376.845 122.146 376.845 122.146 376.906 122.146C377.027 122.146 377.088 122.085 377.149 121.963L377.27 120.87C377.27 120.749 377.21 120.688 377.088 120.627C377.027 120.627 377.027 120.627 376.966 120.627C376.966 120.445 377.027 120.202 377.027 120.02C377.027 119.716 377.21 118.987 376.663 118.501C375.873 117.712 374.171 117.712 373.381 118.501C372.834 118.987 372.956 119.716 373.016 120.02C373.016 120.202 373.077 120.445 373.077 120.627C373.016 120.627 373.016 120.627 372.956 120.627C372.834 120.627 372.773 120.749 372.773 120.87L372.895 121.963C372.895 122.085 373.016 122.146 373.138 122.146C373.199 122.146 373.259 122.146 373.259 122.085C373.259 122.328 373.32 122.571 373.32 122.753C373.32 122.935 373.503 123.178 373.746 123.3C373.806 123.543 373.806 123.785 373.867 124.028C372.834 124.15 371.801 124.454 370.829 124.879C370.525 125.061 370.282 125.486 370.342 125.79C370.403 126.154 370.403 126.519 370.464 126.944C370.525 127.248 370.768 127.612 371.072 127.673C373.746 128.098 376.42 128.098 379.033 127.673C379.337 127.612 379.64 127.308 379.64 126.944C379.701 126.579 379.701 126.215 379.762 125.79C379.762 125.425 379.519 125 379.215 124.879Z" fill="#163F59"/>
<path d="M507.625 90.197C505.012 92.9302 500.697 93.0517 497.962 90.4399C495.228 87.8282 495.106 83.5157 497.719 80.7825L510.724 67.0555C513.338 64.3223 517.652 64.2008 520.387 66.8126C523.122 69.4243 523.243 73.7368 520.63 76.47L507.625 90.197Z" fill="#163F59"/>
<path d="M504.283 73.8583L497.719 80.7825C495.106 83.5157 495.228 87.8282 497.962 90.4399C500.697 93.0517 505.012 92.9302 507.625 90.197L514.188 83.2728L504.283 73.8583Z" fill="#ABFBFF"/>
<path d="M489.091 45.1896C487.571 43.7319 487.571 41.3023 489.03 39.8446C490.488 38.3262 492.919 38.3262 494.378 39.7839L501.853 47.1333C503.372 48.591 503.372 51.0205 501.913 52.4783C500.455 53.9967 498.024 53.9967 496.565 52.539L489.091 45.1896Z" fill="#163F59"/>
<path d="M498.207 43.4889L494.439 39.7839C492.92 38.3262 490.55 38.3262 489.091 39.8446C487.633 41.3631 487.633 43.7319 489.152 45.1896L492.92 48.8947L498.207 43.4889Z" fill="#ABFBFF"/>
<path d="M545 12.087H533.028V0H521.785V12.087H509.813V23.3844H521.785V35.4714H533.028V23.3844H545V12.087Z" fill="#ABFBFF"/>
</svg>
