<svg width="360" height="519" viewBox="0 0 360 519" fill="none" xmlns="http://www.w3.org/2000/svg">
    <path d="M331.881 276.172L290.961 277.222L281.868 320.959C281.868 320.959 328.034 322.358 336.777 317.11C345.521 311.862 331.881 276.172 331.881 276.172Z" fill="#B7FBFE"/>
    <path d="M335.868 239.223C343.842 245.941 353.215 279.601 353.215 279.601C353.215 279.601 357.482 302.064 333.629 252.169C327.754 239.783 333.909 237.614 335.868 239.223Z" fill="#E9D6B8"/>
    <path d="M356.852 310.602L359.091 306.683L360 303.184L359.161 297.236C359.161 297.236 357.552 291.078 356.083 288.978C354.614 286.879 352.865 277.642 352.236 276.592C351.676 275.542 345.381 273.093 345.381 273.093C345.381 273.093 350.137 284.36 351.676 288.068C353.215 291.777 353.565 297.866 354.124 299.335C355.104 301.924 356.503 303.744 356.503 303.744C356.503 303.744 355.733 299.615 355.453 298.495C355.104 297.446 356.503 297.656 356.503 297.656C356.503 297.656 358.111 303.254 357.902 304.863C357.692 306.473 356.992 307.872 356.992 307.872L356.852 310.602Z" fill="#E9D6B8"/>
    <path d="M324.606 218.37L335.238 266.305L335.588 269.104L349.367 266.585C339.575 239.013 337.476 233.555 336.637 228.307C336.357 226.417 334.049 210.882 333.909 208.013C333.769 205.144 332.999 197.516 323.906 193.527C315.372 189.748 324.606 218.37 324.606 218.37Z" fill="#E9F6FF"/>
    <path d="M315.092 207.243C304.353 207.243 295.647 198.721 295.647 188.209C295.647 177.697 304.353 169.175 315.092 169.175C325.832 169.175 334.538 177.697 334.538 188.209C334.538 198.721 325.832 207.243 315.092 207.243Z" fill="#163F59"/>
    <path d="M311.176 444.821L310.966 468.124C310.966 468.124 319.29 478.271 322.298 479.88C325.306 481.49 324.956 480.09 324.746 479.251C324.536 478.411 319.5 472.533 318.661 469.314C317.821 466.095 319.64 446.221 319.5 445.171C319.29 444.261 311.176 444.821 311.176 444.821Z" fill="#E9D6B8"/>
    <path d="M289.281 447.27C289.281 447.27 286.273 460.426 286.064 464.905C285.854 469.384 286.693 470.783 285.434 472.183C284.245 473.582 275.711 484.779 273.683 484.779C271.654 484.779 271.654 482.75 271.654 482.75C271.654 482.75 278.369 474.212 279.349 470.993C280.328 467.774 280.538 449.72 280.538 447.9C280.608 446.081 289.281 447.27 289.281 447.27Z" fill="#E9D6B8"/>
    <path d="M286.344 241.812C286.344 241.812 289.632 242.232 287.883 259.727C286.134 277.222 279.699 302.554 279.699 302.554L280.259 261.826C280.259 261.896 281.098 246.291 286.344 241.812Z" fill="#E9D6B8"/>
    <path d="M313.763 283.45L312.434 367.215L309.706 447.55L321.598 448.11C321.598 448.11 329.991 367.005 331.041 359.937C332.09 352.939 344.261 296.396 337.266 282.33C330.271 268.265 313.763 283.45 313.763 283.45Z" fill="#194866"/>
    <path d="M337.266 282.33C337.476 282.75 337.686 283.24 337.826 283.73C330.201 295.556 322.997 305.563 321.388 308.152C320.478 309.622 317.331 314.94 313.064 322.148L313.693 283.38C313.763 283.45 330.271 268.265 337.266 282.33Z" fill="#163F59"/>
    <path d="M286.204 281.561C286.204 281.561 282.706 317.25 282.706 341.603C282.706 365.955 280.258 437.054 280.258 437.054V449.51L289.422 449.23L303.761 358.328L315.652 281.561H286.204Z" fill="#194866"/>
    <path d="M281.867 187.299C281.867 197.796 290.611 206.334 301.313 206.334C312.085 206.334 320.759 197.796 320.759 187.299C320.759 176.803 312.015 168.265 301.313 168.265C290.611 168.265 281.867 176.803 281.867 187.299Z" fill="#163F59"/>
    <path d="M295.367 167.495C295.367 177.572 302.992 185.69 312.365 185.69C321.738 185.69 329.362 177.572 329.362 167.495C329.362 157.418 321.738 149.301 312.365 149.301C302.992 149.301 295.367 157.418 295.367 167.495Z" fill="#163F59"/>
    <path d="M315.373 172.814C315.373 172.814 313.764 182.541 315.093 185.27C316.422 187.999 325.655 194.227 326.984 196.117C328.383 198.006 324.326 212.562 311.036 210.392C297.816 208.223 285.924 199.826 285.924 197.656C285.924 195.487 286.204 193.318 290.541 191.708C294.878 190.099 301.873 188.979 303.761 186.81C305.65 184.64 308.098 179.252 306.699 173.584C305.37 167.985 315.373 172.814 315.373 172.814Z" fill="#E9D6B8"/>
    <path d="M292.569 218.09L287.882 266.935V269.804L273.893 268.964C273.893 268.964 277.95 231.246 278.579 229.426C279.209 227.607 280.608 211.792 280.398 208.923C280.188 206.054 280.818 191.918 290.121 193.317C299.424 194.787 292.569 218.09 292.569 218.09Z" fill="#E9F6FF"/>
    <path d="M308.168 153.43C308.448 153.36 308.728 153.29 309.007 153.22C309.567 156.579 312.225 160.498 316.352 163.647C317.331 164.416 318.38 165.046 319.43 165.606V168.755C319.43 173.374 315.513 177.152 310.616 177.152C305.79 177.152 301.803 173.374 301.803 168.755V161.687C304.251 160.078 306.559 157.139 308.168 153.43Z" fill="#E9D6B8"/>
    <path d="M289.911 284.43H333.489L327.194 247.481L328.593 204.164C328.593 204.164 320.479 207.313 313.414 207.733C308.727 208.013 298.795 204.164 298.795 204.164L289.911 284.43Z" fill="#82D8DC"/>
    <path d="M279.349 303.184C279.349 303.184 280.398 309.692 281.098 310.812C281.587 311.651 284.455 315.08 284.455 315.08C284.455 315.08 284.245 312.701 283.196 311.231C282.077 309.762 279.349 303.184 279.349 303.184Z" fill="#E9D6B8"/>
    <path d="M330.901 199.056C330.901 199.056 329.572 225.857 330.342 235.584C331.181 245.312 336.217 263.016 338.596 282.47C340.134 295.206 340.064 317.04 340.064 317.04C340.064 317.04 336.567 319.209 334.678 319.489C332.79 319.769 329.152 317.95 327.893 311.372C326.354 303.254 322.367 245.731 321.388 240.693C320.059 233.555 321.038 212.771 320.898 209.902C320.829 207.803 319.43 199.265 319.989 197.096C320.549 194.927 320.059 190.168 320.059 190.168C320.059 190.168 328.733 193.947 330.901 199.056Z" fill="#B7FBFE"/>
    <path d="M300.683 188.419C300.683 188.419 302.082 191.568 303.691 192.338C305.299 193.178 304.53 202.065 303.691 203.324C302.851 204.514 301.452 231.946 301.242 238.384C301.033 244.892 297.675 303.394 296.696 308.083C295.716 312.771 296.276 318.23 291.45 320.049C286.553 321.869 280.538 321.869 280.538 321.869C280.538 321.869 285.504 272.883 286.693 267.355C287.882 261.897 291.729 248.671 292.149 240.413C292.569 232.086 291.31 219.56 290.96 212.842C290.54 206.124 286.903 195.417 286.483 194.157C286.064 192.968 299.004 189.049 300.683 188.419Z" fill="#B7FBFE"/>
    <path d="M310.756 466.935C310.756 466.935 309.916 468.334 310.196 469.874C310.406 471.064 311.385 474.632 311.385 474.632L313.623 475.612V474.003C313.623 474.003 317.681 478.901 319.709 480.301C321.738 481.7 326.004 485.269 328.453 484.36C329.082 484.15 329.292 483.38 329.292 483.38C329.292 483.38 325.445 479.111 324.815 478.481C324.186 477.852 322.787 479.111 321.178 478.061C319.569 477.082 314.953 472.603 313.693 471.134C312.015 469.314 310.756 466.935 310.756 466.935Z" fill="#161711"/>
    <path d="M286.133 469.174C286.133 469.174 286.553 470.714 286.343 472.183C286.203 473.373 285.224 475.332 285.224 475.332L283.195 476.452C283.195 476.452 279.418 481.211 277.53 482.61C275.641 484.01 271.724 487.579 269.416 486.669C268.786 486.459 268.646 485.689 268.646 485.689C268.646 485.689 272.213 481.421 272.773 480.791C273.333 480.161 274.662 481.421 276.131 480.371C277.669 479.391 281.936 474.913 283.125 473.443C284.664 471.624 286.133 469.174 286.133 469.174Z" fill="#161711"/>
    <path d="M282.777 288.909C281.798 297.236 285.225 301.225 285.994 304.654C286.764 308.083 288.233 311.582 288.163 311.582C285.155 309.412 285.365 306.683 284.456 305.214C283.546 303.744 284.036 304.164 283.476 307.103C283.197 308.783 285.505 312.002 286.764 314.311C287.813 316.27 287.813 317.46 287.813 317.46C287.813 317.46 285.295 315.011 283.476 312.002C281.238 308.433 279.419 304.094 279.209 303.044C278.79 301.225 279.209 295.627 280.189 291.708C281.308 287.299 283.476 282.96 282.777 288.909Z" fill="#E9D6B8"/>
    <path d="M317.681 187.999C317.681 187.999 317.471 191.008 318.59 200.805C319.5 208.573 320.689 208.503 320.479 221.799C320.269 235.095 323.277 252.38 323.277 252.38C323.277 252.38 324.046 222.219 324.886 213.891C325.375 209.203 325.375 203.605 325.375 203.605L320.689 199.616L325.096 201.015C325.096 201.015 324.186 198.216 323.697 195.417C323.207 192.618 322.088 190.029 322.088 190.029L317.681 187.999Z" fill="#E9F6FF"/>
    <path d="M303.272 186.879L299.215 188.909L299.005 197.796L301.803 198.006L298.515 200.105L300.404 251.89C300.404 251.89 301.103 250 301.313 236.284C301.523 222.499 303.202 206.403 304.601 198.496L303.272 186.879Z" fill="#E9F6FF"/>
    <path d="M4.45086 163.296L8.85762 126.558C8.85762 126.558 18.0209 152.8 14.2437 163.996C10.4664 175.193 4.45086 163.296 4.45086 163.296Z" fill="#E9D6B8"/>
    <path d="M9.76687 134.465C9.76687 134.465 15.083 131.036 15.2229 129.287C15.4327 127.467 15.6426 120.889 15.6426 120.889L15.5027 119.21C15.5027 119.21 13.6141 118.3 13.4742 122.709C13.4042 127.118 12.2151 124.948 12.2151 124.948L10.7462 120.889L8.57776 116.061L7.87827 113.822C7.87827 113.822 7.59848 112.492 7.24874 112.282C6.26945 111.512 6.0596 112.562 6.0596 112.562L7.94822 121.589L3.96114 113.682C3.96114 113.682 3.26166 112.772 2.70207 112.912C2.14248 113.052 2.28237 113.402 2.28237 113.402L4.73058 123.339L2.21242 119.49C2.21242 119.49 1.51294 118.58 0.953353 118.72C0.323814 118.86 0.183891 118.86 0.183891 118.86L7.87827 134.955L9.76687 134.465Z" fill="#E9D6B8"/>
    <path d="M6.479 121.729L3.33133 116.341C3.33133 116.341 2.77173 115.081 2.1422 114.591C1.44272 114.101 0.953091 114.731 0.953091 114.731L4.94013 123.339L6.479 121.729Z" fill="#E9D6B8"/>
    <path d="M7.22031 143.946L15.5176 144.607L14.7901 153.745L6.49282 153.084L7.22031 143.946Z" fill="#E7F5FE"/>
    <path d="M50.337 193.598L17.4611 172.674L15.7823 147.832C15.7823 147.832 5.35992 145.172 4.17079 147.552C-3.94326 164.417 2.28219 191.988 2.28219 191.988L47.6789 219.7C47.6789 219.7 59.7801 223.479 73.2802 215.011C83.1429 208.923 52.995 195.417 50.337 193.598Z" fill="#DBE7F3"/>
    <path d="M30.5415 454.548L29.912 461.896L28.5829 467.984L26.1347 469.594L24.2461 470.154L23.6865 471.203L17.2512 475.472C15.5025 476.242 13.0543 476.592 10.1165 475.892C9.13718 475.682 10.5362 472.883 10.8859 472.463C12.9144 470.084 15.9922 467.495 15.9922 467.495L21.0285 461.336L26.6943 453.639L30.5415 454.548Z" fill="#161711"/>
    <path d="M87.8294 446.501L86.2205 449.44L85.3811 452.729L85.5211 458.047L88.389 458.467L90.5573 458.047L91.9563 459.027C91.9563 459.027 100.07 460.637 103.078 460.777C108.114 460.917 110.912 460.427 111.892 459.447C112.451 458.887 110.073 457.838 109.304 457.698C104.827 456.998 100.14 454.129 100.14 454.129L96.4331 449.93L95.7336 446.991L87.8294 446.501Z" fill="#161711"/>
    <path d="M65.2363 286.25L18.8603 461.057L30.6117 461.756L53.1352 406.193L58.5912 389.398L85.3815 323.618L90.4878 287.439L65.2363 286.25Z" fill="#163F59"/>
    <path d="M85.5914 447.061L88.9489 379.881L86.011 349.09L82.4437 306.823L87.8297 278.552L106.226 281.491L108.325 327.047L107.206 370.294L106.296 386.529L99.3013 450.7L85.5914 447.061Z" fill="#163F59"/>
    <path d="M136.164 213.052C136.164 213.052 146.796 210.392 159.107 193.947C163.234 188.419 161.416 194.297 160.996 201.015C160.646 207.733 149.105 219.07 135.745 223.478C122.314 227.887 136.164 213.052 136.164 213.052Z" fill="#E9D6B8"/>
    <path d="M155.468 196.371L163.117 201.419L159.035 207.611L151.385 202.564L155.468 196.371Z" fill="#E7F5FE"/>
    <path d="M158.267 198.146C158.267 198.146 155.749 191.149 156.728 189.259C157.708 187.44 161.765 180.932 161.765 180.932L162.954 179.392C162.954 179.392 165.262 179.882 162.534 184.151C159.736 188.489 162.184 187.16 162.184 187.16L166.101 184.291L171.138 181.212L173.236 179.532C173.236 179.532 174.355 178.482 174.775 178.482C176.104 178.482 175.615 179.602 175.615 179.602L168.06 186.95L176.734 182.261C176.734 182.261 177.923 181.841 178.343 182.401C178.762 182.961 178.412 183.171 178.412 183.171L169.809 191.009L174.565 189.119C174.565 189.119 175.754 188.769 176.174 189.259C176.664 189.819 176.804 189.959 176.804 189.959L159.526 199.966L158.267 198.146Z" fill="#E9D6B8"/>
    <path d="M169.46 188.21L175.755 185.27C175.755 185.27 177.084 184.431 177.924 184.501C178.903 184.571 178.903 185.48 178.903 185.48L169.879 190.939L169.46 188.21Z" fill="#E9D6B8"/>
    <path d="M81.9536 202.835C81.9536 202.835 81.1142 208.503 102.728 230.056C114.83 242.093 122.104 249.86 129.239 247.481C141.48 243.422 163.934 209.832 163.934 209.832L152.532 197.656C152.532 197.656 134.345 219.21 126.161 219.07C124.273 219 111.822 209.133 100 194.507C94.9641 188.279 83.2826 201.225 81.9536 202.835Z" fill="#D1DBEA"/>
    <path d="M109.234 329.426L103.429 340.623L101.12 311.512L93.5659 338.104L49.9879 332.226C49.9879 332.226 58.5216 289.189 62.7186 271.624L48.7288 227.467C48.7288 227.467 36.8375 196.327 56.2833 194.857C75.729 193.388 98.1126 192.128 98.1126 192.128C98.1126 192.128 121.126 272.464 109.234 329.426Z" fill="#DBE7F3"/>
    <path d="M80.2052 200.455C80.2052 200.455 93.9152 231.666 85.4514 263.506C84.7519 266.025 81.5343 267.495 81.5343 267.495L77.757 263.366C77.757 263.436 82.1638 226.767 80.2052 200.455Z" fill="#00939B"/>
    <path d="M79.5059 199.686L78.4566 206.264L66.7053 196.327L66.6353 194.717L79.5059 199.686Z" fill="#D1DBEA"/>
    <path d="M81.604 193.387L85.3113 205.424L80.9745 200.595L81.604 193.387Z" fill="#D1DBEA"/>
    <path d="M64.816 186.88C65.3756 188.839 66.2849 191.988 67.1942 193.738C68.5932 196.537 79.855 199.546 81.5338 199.896C83.2825 200.176 80.6244 191.358 80.5545 189.329C80.4845 187.79 79.5053 188.349 80.5545 186.04L64.816 186.88Z" fill="#E9D6B8"/>
    <path d="M83.3532 181.352C83.7029 183.101 82.6537 184.781 80.9049 185.131L66.8453 188.21C65.0965 188.559 63.4178 187.51 63.068 185.76L58.5214 164.907C58.1716 163.157 59.2208 161.478 60.9696 161.128L75.0293 158.049C76.778 157.699 78.4567 158.749 78.8065 160.498L83.3532 181.352Z" fill="#E9D6B8"/>
    <path d="M79.7857 164.766C79.7857 164.766 81.2546 162.317 81.3245 161.057C81.3945 160.427 80.2753 158.188 78.4566 157.558C76.7079 156.999 75.7287 158.958 75.7287 158.958C75.7287 158.958 78.5266 159.798 78.7364 160.288C79.0162 160.847 79.7857 164.766 79.7857 164.766Z" fill="#163F59"/>
    <path d="M59.1507 174.633C59.1507 174.633 55.3036 167.076 55.1637 164.696C55.0238 162.247 54.9538 160.568 57.7518 159.728C61.9487 158.398 62.2285 159.308 63.9772 157.559C65.7959 155.809 68.8736 151.82 70.0627 151.26C72.0913 150.281 75.5887 150.281 76.6379 154.27C77.4074 157.209 79.4359 157.559 79.3659 157.699C79.296 158.118 78.5965 158.608 77.3374 159.588C73.84 162.387 71.6016 163.297 68.4539 163.157C65.3062 163.017 59.3606 162.527 59.1507 164.906C59.0108 167.286 60.6896 174.004 60.5497 174.563C60.4798 174.983 59.7103 174.913 59.1507 174.633Z" fill="#194866"/>
    <path d="M64.8864 179.882C65.0263 180.442 64.6765 181.002 64.047 181.142L61.0392 181.772C60.4796 181.911 59.92 181.562 59.7801 180.932L58.591 175.403C58.4511 174.844 58.8008 174.284 59.4303 174.144L62.4382 173.514C62.9978 173.374 63.5573 173.724 63.6972 174.354L64.8864 179.882Z" fill="#E9D6B8"/>
    <path d="M83.0036 175.963C83.1435 176.523 82.7937 177.083 82.1642 177.223L79.1564 177.852C78.5968 177.992 78.0372 177.642 77.8973 177.013L76.7082 171.484C76.5683 170.925 76.918 170.365 77.5476 170.225L80.5554 169.525C81.1149 169.385 81.6745 169.805 81.8144 170.365L83.0036 175.963Z" fill="#E9D6B8"/>
    <path d="M60.8295 176.173C60.8295 176.173 62.5782 184.361 63.2078 187.09C63.7674 189.539 65.9358 194.787 79.8555 191.708C88.1095 189.889 86.5007 183.941 86.081 181.911C85.7312 180.372 83.0732 176.243 81.954 175.543L82.7235 178.902C82.7235 178.902 80.2752 175.963 76.3581 176.803C69.9928 178.202 69.3632 182.191 66.5653 182.751C64.4668 183.241 62.0886 180.092 60.8295 176.173Z" fill="#194866"/>
    <path d="M74.9595 182.821L79.2963 181.911C79.8559 181.771 80.2056 181.211 80.1357 180.652L79.9958 180.022L73.5605 181.421L73.7004 182.051C73.7704 182.541 74.3999 182.961 74.9595 182.821Z" fill="#E9D6B8"/>
    <path d="M81.2544 192.618L84.6119 201.925L88.8788 237.404L94.9644 209.483L89.928 204.654L92.656 200.176L86.6404 192.828L81.2544 192.618Z" fill="#E7F5FE"/>
    <path d="M100.98 290.378L95.3141 307.523L61.5289 315.501C61.5289 315.501 58.5211 289.119 62.6481 271.484L48.6583 227.328C48.6583 227.328 36.7671 196.187 56.2128 194.717C58.9408 194.508 61.7387 194.298 64.5367 194.088C68.4538 193.808 75.7984 205.074 77.5472 208.363C79.4358 211.862 91.7467 243.353 91.7467 243.353L100.98 290.378Z" fill="url(#paint0_linear)"/>
    <path d="M65.7959 193.387L58.3814 193.807L64.5369 204.514L71.9515 208.923L71.8815 217.25L91.1174 244.682L78.5966 208.573L65.7959 193.387Z" fill="#D1DBEA"/>
    <path d="M65.7962 193.387L58.3816 193.807L64.5371 204.024L71.9517 208.223L71.8818 216.201L90.9778 242.443L78.5269 207.873L65.7962 193.387Z" fill="#E7F5FE"/>
    <path d="M81.5342 199.895L79.5057 199.686L79.7156 204.584L81.1845 205.844L83.1431 205.074L81.5342 199.895Z" fill="#00939B"/>
    <path d="M89.228 293.387L71.8108 294.017L68.5931 313.611H80.2046C80.2046 313.611 86.3601 313.611 87.3394 308.433C88.3187 303.184 89.228 293.387 89.228 293.387Z" fill="#E7F5FE"/>
    <path d="M112.452 309.413L108.185 309.902L107.065 294.157L113.081 293.527C113.081 298.706 112.871 304.024 112.452 309.413Z" fill="#E7F5FE"/>
    <path d="M94.6146 250.49C94.6146 250.49 101.679 268.055 101.679 295.487C101.679 295.487 96.9929 276.802 95.3141 271.344C89.7182 253.289 84.4021 250 77.3373 242.513C68.3839 232.996 87.5498 234.115 94.6146 250.49Z" fill="#D1DBEA"/>
    <path d="M229.616 277.642C229.616 277.642 226.328 278.061 228.147 295.836C229.965 313.541 236.68 339.153 236.68 339.153L235.911 297.865C235.911 297.865 234.932 282.12 229.616 277.642Z" fill="#E9D6B8"/>
    <path d="M234.092 325.367C234.722 333.834 231.154 337.683 230.245 341.112C229.336 344.541 227.727 348.04 227.797 348.04C230.944 345.941 230.804 343.211 231.784 341.742C232.763 340.272 232.203 340.692 232.693 343.701C232.973 345.381 230.455 348.6 229.056 350.909C227.867 352.869 227.867 354.058 227.867 354.058C227.867 354.058 230.455 351.679 232.483 348.74C234.931 345.171 236.89 340.902 237.17 339.853C237.659 338.033 237.45 332.365 236.61 328.376C235.631 323.757 233.602 319.209 234.092 325.367Z" fill="#E9D6B8"/>
    <path d="M228.147 490.167L229.196 513.4L243.745 514.59L250.25 513.75L237.38 509.692L235.911 490.377L228.147 490.167Z" fill="#E9D6B8"/>
    <path d="M230.315 516.41L233.463 516.829L234.022 515.92L246.124 516.06L251.999 514.52C251.999 514.52 252.209 513.47 251.719 513.191C250.041 512.281 243.815 511.721 243.815 511.721C243.815 511.721 244.655 512.911 243.955 513.4C243.326 513.89 235.281 513.61 233.253 513.33C229.825 512.771 228.706 511.721 228.636 512.001C228.357 512.771 230.315 516.41 230.315 516.41Z" fill="#1D7074"/>
    <path d="M227.867 320.818L234.582 409.622L240.528 495.835L227.378 496.885C227.378 496.885 215.067 410.041 213.598 402.554C212.129 395.066 196.53 334.814 203.805 319.419C211.08 303.954 227.867 320.818 227.867 320.818Z" fill="#194866"/>
    <path d="M181.071 272.953C173.726 281.84 170.019 318.299 170.019 318.299C170.019 318.299 172.467 332.295 185.967 285.409C190.024 271.344 182.89 270.784 181.071 272.953Z" fill="#E9D6B8"/>
    <path d="M173.097 349.86L170.019 346.501L168.34 343.142L167.851 337.124C167.851 337.124 168.13 330.686 169.11 328.307C170.089 325.928 169.879 316.34 170.229 315.221C170.579 314.031 176.594 312.632 176.594 312.632C176.594 312.632 173.936 322.499 173.237 326.557C172.537 330.546 173.517 336.634 173.237 338.244C172.887 340.973 171.838 343.072 171.838 343.072C171.838 343.072 171.698 338.804 171.768 337.684C171.838 336.564 170.579 337.054 170.579 337.054C170.579 337.054 170.159 342.932 170.719 344.542C171.278 346.081 172.327 347.341 172.327 347.341L173.097 349.86Z" fill="#E9D6B8"/>
    <path d="M220.312 252.519L225.069 301.994V304.863L239.198 304.024C239.198 304.024 235.071 265.815 234.512 263.996C233.882 262.176 232.483 246.151 232.693 243.282C232.903 240.413 232.273 225.997 222.83 227.467C213.317 228.866 220.312 252.519 220.312 252.519Z" fill="#B7FBFE"/>
    <path d="M189.675 252.519L184.989 301.994V304.864L170.789 304.024C177.155 275.053 178.623 269.314 178.833 263.996C178.903 262.037 179.253 246.151 179.043 243.282C178.833 240.413 178.623 232.575 187.227 227.467C195.411 222.568 189.675 252.519 189.675 252.519Z" fill="#B7FBFE"/>
    <path d="M204.924 487.508L204.714 517.319L192.403 512.98C192.403 512.98 187.227 509.202 191.704 509.692C198.279 510.391 196.95 507.662 197.16 502.274C197.369 496.955 196.32 486.668 196.32 486.668L204.924 487.508Z" fill="#E9D6B8"/>
    <path d="M190.794 509.692C190.794 509.692 192.193 511.021 193.662 511.931C195.131 512.841 199.258 514.87 200.867 515.22C202.895 515.64 204.854 515.43 204.854 515.43C204.854 515.43 205.763 518.509 203.735 518.299C201.706 518.089 191.424 513.54 189.955 512.561C188.556 511.581 188.346 509.902 190.794 509.692Z" fill="#1D7074"/>
    <path d="M202.196 323.408L203.735 403.953L205.204 489.328L194.781 488.768C194.781 488.768 184.289 402.834 183.38 395.206C182.47 387.578 169.949 337.054 178.343 322.288C186.807 307.593 202.196 323.408 202.196 323.408Z" fill="#194866"/>
    <path d="M204.224 223.618C204.224 223.618 220.383 224.738 224.23 226.347C228.077 228.027 227.238 246.921 224.789 260.847C222.341 274.843 224.719 290.028 226.958 299.195C232.554 321.798 234.512 365.675 234.512 365.675C234.512 365.675 176.805 376.872 175.825 372.883C165.823 330.826 189.465 289.048 189.465 275.682C189.465 262.246 185.898 231.596 186.178 228.587C186.457 225.508 200.727 223.618 204.224 223.618Z" fill="#E9F6FF"/>
    <path d="M228.566 218.16L228.636 218.09C225.139 213.821 223.11 209.063 223.11 202.065C223.11 199.126 223.39 198.006 223.46 193.597C223.46 193.177 223.53 192.757 223.53 192.338V187.019C223.53 179.182 217.165 172.813 209.33 172.813H205.763C197.929 172.813 191.564 179.182 191.564 187.019V197.516C191.564 197.516 191.564 197.516 191.494 197.516C191.494 197.866 191.564 198.146 191.564 198.496V199.056C191.424 207.453 187.297 214.801 180.861 219.489C176.385 221.659 173.237 226.277 173.237 231.596C173.237 238.314 178.203 243.912 184.709 244.892C187.367 252.449 194.711 257.908 203.315 257.908C210.799 257.908 217.235 253.849 220.592 247.831C227.727 244.962 232.693 238.034 232.693 229.986C232.693 225.578 231.154 221.449 228.566 218.16Z" fill="#163F59"/>
    <g clip-path="url(#clip0)">
        <path d="M176 104.5C202.234 104.5 223.5 83.2335 223.5 57C223.5 30.7665 202.234 9.5 176 9.5C149.766 9.5 128.5 30.7665 128.5 57C128.5 83.2335 149.766 104.5 176 104.5Z" stroke="#34C6CD" stroke-width="5" stroke-linecap="round" stroke-linejoin="round"/>
        <path d="M162.178 42.75C163.294 39.5754 165.499 36.8985 168.4 35.1934C171.301 33.4883 174.712 32.865 178.029 33.4339C181.346 34.0028 184.355 35.7273 186.522 38.3018C188.689 40.8763 189.875 44.1348 189.87 47.5C189.87 57 175.62 61.75 175.62 61.75" stroke="#34C6CD" stroke-width="5" stroke-linecap="round" stroke-linejoin="round"/>
        <path d="M176 80.75H176.048" stroke="#34C6CD" stroke-width="5" stroke-linecap="round" stroke-linejoin="round"/>
    </g>
    <defs>
        <linearGradient id="paint0_linear" x1="91.627" y1="245.269" x2="71.0896" y2="252.527" gradientUnits="userSpaceOnUse">
            <stop stop-color="#D1DBEA"/>
            <stop offset="1" stop-color="#DBE7F3"/>
        </linearGradient>
        <clipPath id="clip0">
            <rect width="114" height="114" fill="white" transform="translate(119)"/>
        </clipPath>
    </defs>
</svg>
