<svg width="391" height="622" viewBox="0 0 391 622" fill="none" xmlns="http://www.w3.org/2000/svg">
    <g clip-path="url(#clip0)">
        <path d="M176.142 154.585C171.736 148.863 167.424 143.048 163.018 137.326C162.174 136.2 161.05 135.074 160.3 134.512C160.018 134.23 159.737 134.043 159.456 133.949C154.488 132.073 150.457 132.073 145.582 133.949C145.395 134.043 145.207 134.136 145.02 134.23C144.27 134.605 142.957 135.919 141.832 137.326C137.426 143.048 133.114 148.863 128.708 154.585C127.583 155.992 127.021 157.399 127.396 157.681C128.615 158.619 129.833 159.557 131.146 160.495C131.521 160.776 132.646 159.744 133.77 158.337C135.364 156.18 136.958 154.022 138.551 151.865C137.051 157.493 135.458 163.215 133.77 168.843C133.021 171.282 134.708 173.815 137.614 174.284C138.176 174.377 138.833 174.471 139.395 174.565C139.676 180.85 139.864 187.228 140.051 193.513C140.145 195.295 141.551 197.453 143.238 198.015C143.988 198.203 144.738 198.391 145.488 198.578C146.426 192.856 147.457 187.041 148.301 181.319C148.582 179.536 149.332 177.567 149.8 177.098C151.769 175.503 153.269 175.503 155.144 177.098C155.706 177.567 156.362 179.536 156.644 181.319C157.487 187.134 158.518 192.856 159.456 198.578C160.206 198.391 160.956 198.203 161.612 198.015C163.299 197.453 164.705 195.389 164.799 193.513C165.08 187.228 165.268 180.85 165.455 174.565C166.112 174.471 166.674 174.377 167.33 174.284C170.236 173.815 171.924 171.282 171.174 168.843C169.58 163.309 167.986 157.774 166.487 152.146C167.986 154.21 169.486 156.274 170.986 158.337C172.017 159.838 173.236 160.776 173.611 160.495C174.83 159.557 176.048 158.619 177.361 157.681C177.829 157.399 177.173 155.992 176.142 154.585Z" fill="#ABFBFF"/>
        <path d="M152.425 131.322C157.112 131.322 160.956 127.477 160.956 122.786C160.956 118.096 157.112 114.25 152.425 114.25C147.738 114.25 143.895 118.096 143.895 122.786C143.895 127.477 147.738 131.322 152.425 131.322Z" fill="#ABFBFF"/>
        <path d="M193.578 269.493C184.86 264.615 182.61 264.427 170.424 267.523C168.549 267.992 166.955 268.273 165.549 268.461C164.049 268.273 162.456 267.992 160.675 267.523C148.488 264.427 146.238 264.615 137.52 269.493C129.927 273.432 125.521 284.689 127.677 297.352C130.208 311.985 136.02 313.017 136.02 328.869C136.02 344.628 141.926 352.507 146.707 352.507C151.488 352.507 153.831 347.067 159.081 333.559C162.643 324.273 167.986 322.772 172.111 333.559C177.361 347.067 179.704 352.507 184.485 352.507C189.266 352.507 195.172 344.628 195.172 328.869C195.172 313.017 200.984 312.172 203.515 297.352C205.671 284.595 201.265 273.339 193.578 269.493Z" fill="#ABFBFF"/>
        <path d="M376.47 259.362L379.188 256.642C389.125 246.699 389.125 230.471 379.188 220.528L378.813 220.153C368.877 210.21 352.659 210.21 342.723 220.153L340.004 222.873L337.286 220.153C327.349 210.21 311.131 210.21 301.195 220.153L300.82 220.528C290.883 230.471 290.883 246.699 300.82 256.642L303.538 259.362L340.004 295.851L376.47 259.362Z" fill="#ABFBFF"/>
        <path d="M287.602 39.2091C287.602 32.0801 284.79 25.4202 279.822 20.3549C274.76 15.2896 268.104 12.5693 260.979 12.5693C253.855 12.5693 247.199 15.3834 242.137 20.3549L220.576 41.9293L194.797 67.5372C184.392 77.9492 184.392 94.8335 194.797 105.246C199.859 110.311 206.515 113.031 213.639 113.031C215.421 113.031 217.202 112.844 218.889 112.562C219.733 112.374 220.576 112.187 221.42 111.905C221.795 111.812 222.264 111.624 222.639 111.53C226.295 110.217 229.669 108.06 232.482 105.246L258.167 79.5439L279.728 57.9694C284.79 52.9979 287.602 46.2442 287.602 39.2091ZM254.605 75.9794L224.139 45.4938L245.699 23.9194C249.73 19.8859 255.167 17.6346 260.979 17.6346C266.698 17.6346 272.135 19.8859 276.259 23.9194C280.29 27.9528 282.54 33.3933 282.54 39.2091C282.54 45.0248 280.29 50.3715 276.259 54.4988L254.605 75.9794Z" fill="#ABFBFF"/>
        <path d="M90.3679 207.114C90.3679 229.815 75.7441 256.642 46.0277 256.829C16.3113 256.548 1.6875 229.721 1.6875 207.114C1.6875 175.128 48.5588 134.418 46.0277 133.386C43.4029 134.418 90.3679 175.128 90.3679 207.114Z" fill="#ABFBFF"/>
        <path d="M154.394 8.62966C151.863 11.1623 149.707 13.7888 147.738 16.6966L197.047 66.0364C201.078 70.0699 207.64 70.0699 211.671 66.0364C215.702 62.0029 215.702 55.4368 211.671 51.4033L162.456 1.96973C159.55 3.93957 156.925 6.09701 154.394 8.62966Z" stroke="#1D7074" stroke-width="3.2715" stroke-miterlimit="10"/>
        <path d="M162.55 2.53247C163.018 3.00148 160.206 6.56595 156.269 10.5056C152.332 14.4453 148.769 17.2594 148.301 16.7904" stroke="#1D7074" stroke-width="3.2715" stroke-miterlimit="10"/>
        <path d="M162.831 13.5074L168.268 8.06689" stroke="#1D7074" stroke-width="3.2715" stroke-miterlimit="10"/>
        <path d="M167.893 18.5726L173.33 13.1321" stroke="#1D7074" stroke-width="3.2715" stroke-miterlimit="10"/>
        <path d="M172.955 23.5442L178.298 18.1975" stroke="#1D7074" stroke-width="3.2715" stroke-miterlimit="10"/>
        <path d="M178.017 28.6094L183.36 23.2627" stroke="#1D7074" stroke-width="3.2715" stroke-miterlimit="10"/>
        <path d="M182.986 33.6749L188.423 28.2344" stroke="#1D7074" stroke-width="3.2715" stroke-miterlimit="10"/>
        <path d="M188.048 38.7401L193.485 33.2996" stroke="#1D7074" stroke-width="3.2715" stroke-miterlimit="10"/>
        <path d="M193.11 43.7117L198.453 38.365" stroke="#1D7074" stroke-width="3.2715" stroke-miterlimit="10"/>
        <path d="M198.172 48.7769L203.515 43.4302" stroke="#1D7074" stroke-width="3.2715" stroke-miterlimit="10"/>
        <path d="M203.14 53.8421L208.577 48.4954" stroke="#1D7074" stroke-width="3.2715" stroke-miterlimit="10"/>
        <path d="M157.769 63.3161H126.459V32.0801H85.5869V63.3161H54.3706V104.307H85.5869V135.544H126.459V104.307H157.769V63.3161Z" fill="#ABFBFF"/>
        <path d="M333.817 99.0547V135.075H295.289V99.0547H264.448V201.862H295.289V165.842H333.817V201.862H364.565V99.0547H333.817Z" fill="#ABFBFF"/>
        <path d="M210.64 310.953V297.821" stroke="#1D7074" stroke-width="3.2715" stroke-miterlimit="10"/>
        <path d="M211.39 285.72C213.827 291.255 212.702 297.07 208.952 298.759C205.203 300.447 200.14 297.258 197.703 291.724C195.266 286.189 196.391 280.374 200.14 278.685C203.89 276.997 208.952 280.186 211.39 285.72Z" stroke="#1D7074" stroke-width="3.2715" stroke-miterlimit="10"/>
        <path d="M214.295 284.407C211.858 278.873 206.89 275.683 203.046 277.372C202.578 277.559 202.109 277.935 201.734 278.216C205.202 277.841 209.233 280.843 211.389 285.72C213.452 290.504 212.983 295.569 210.358 297.914C210.921 297.821 211.389 297.727 211.952 297.539C215.608 295.851 216.733 290.035 214.295 284.407Z" stroke="#1D7074" stroke-width="3.2715" stroke-miterlimit="10"/>
        <path d="M210.265 311.61C209.515 311.61 208.765 311.891 208.671 312.172C208.109 314.611 207.64 317.05 207.078 319.489H214.015C213.452 317.05 212.983 314.611 212.421 312.172C212.327 311.891 211.671 311.61 210.827 311.61C210.734 311.61 210.452 311.61 210.265 311.61Z" stroke="#1D7074" stroke-width="3.2715" stroke-miterlimit="10"/>
        <path d="M213.827 319.395H207.359C206.984 319.958 206.703 320.614 206.703 321.365V383.649C206.703 385.432 208.109 386.839 209.89 386.839H211.296C213.077 386.839 214.483 385.432 214.483 383.649V321.271C214.483 320.614 214.202 319.958 213.827 319.395Z" stroke="#1D7074" stroke-width="3.2715" stroke-miterlimit="10"/>
        <path d="M233.325 323.241V307.201" stroke="#1D7074" stroke-width="3.2715" stroke-miterlimit="10"/>
        <path d="M232.95 323.241C232.2 323.241 231.451 323.522 231.357 323.804C230.794 326.243 230.326 328.681 229.763 331.12H236.7C236.138 328.681 235.669 326.243 235.107 323.804C235.013 323.522 234.357 323.241 233.513 323.241C233.419 323.241 233.232 323.241 232.95 323.241Z" stroke="#1D7074" stroke-width="3.2715" stroke-miterlimit="10"/>
        <path d="M232.482 294.913L238.294 299.697C239.138 300.541 239.138 301.854 238.294 302.698L233.044 307.951" stroke="#1D7074" stroke-width="3.2715" stroke-miterlimit="10"/>
        <path d="M236.513 331.12H230.044C229.669 331.683 229.388 332.34 229.388 333.09V383.743C229.388 385.525 230.794 386.932 232.575 386.932H233.982C235.763 386.932 237.169 385.525 237.169 383.743V333.09C237.169 332.34 236.981 331.589 236.513 331.12Z" stroke="#1D7074" stroke-width="3.2715" stroke-miterlimit="10"/>
        <path d="M179.517 306.732L183.642 307.013" stroke="#1D7074" stroke-width="3.2715" stroke-miterlimit="10"/>
        <path d="M189.454 363.107C189.454 364.139 187.579 364.983 185.142 364.983H183.267C180.923 364.983 178.955 364.139 178.955 363.107V333.465C178.955 332.434 180.829 331.589 183.267 331.589H185.142C187.485 331.589 189.454 332.434 189.454 333.465V363.107Z" stroke="#1D7074" stroke-width="3.2715" stroke-miterlimit="10"/>
        <path d="M192.922 311.516C192.735 312.641 191.61 313.392 190.391 313.204L184.673 312.079C183.548 311.891 182.798 310.765 182.986 309.546L183.642 306.169C183.829 305.043 184.954 304.293 186.173 304.481L191.891 305.606C193.016 305.794 193.766 306.919 193.579 308.139L192.922 311.516Z" stroke="#1D7074" stroke-width="3.2715" stroke-miterlimit="10"/>
        <path d="M183.267 331.589H185.142C186.361 331.589 187.486 331.777 188.236 332.152C189.079 325.774 189.923 319.489 190.673 313.11C190.579 313.11 190.392 313.11 190.298 313.11L186.173 312.266C184.392 318.645 182.517 324.929 180.736 331.308C180.643 331.495 180.549 331.777 180.455 331.964C181.205 331.777 182.236 331.589 183.267 331.589Z" stroke="#1D7074" stroke-width="3.2715" stroke-miterlimit="10"/>
        <path d="M185.142 364.983H183.267C182.142 364.983 181.111 364.795 180.361 364.514V383.649C180.361 385.432 181.767 386.839 183.548 386.839H184.954C186.735 386.839 188.141 385.432 188.141 383.649V364.42C187.392 364.795 186.36 364.983 185.142 364.983Z" stroke="#1D7074" stroke-width="3.2715" stroke-miterlimit="10"/>
        <path d="M318.35 75.9793C318.35 80.2004 321.818 83.6711 326.036 83.6711C330.255 83.6711 333.723 80.2004 333.723 75.9793C333.723 71.7583 330.255 68.2876 326.036 68.2876C321.724 68.3814 318.35 71.7583 318.35 75.9793Z" stroke="#1D7074" stroke-width="3.2715" stroke-linecap="round" stroke-linejoin="round"/>
        <path d="M301.851 127.664C301.851 129.822 302.132 131.885 302.695 133.855C305.413 144.173 314.788 151.771 326.037 151.771C339.348 151.771 350.128 140.984 350.128 127.664C350.128 122.13 348.254 116.971 345.066 112.937" stroke="#1D7074" stroke-width="3.2715" stroke-linecap="round" stroke-linejoin="round"/>
        <path d="M320.131 114.626C320.131 119.128 323.131 122.786 326.787 122.786H328.474C332.13 122.786 335.13 119.128 335.13 114.626V102.056C335.13 97.5538 332.13 93.8955 328.474 93.8955H326.787C323.131 93.8955 320.131 97.5538 320.131 102.056V114.626Z" stroke="#1D7074" stroke-width="3.2715" stroke-linecap="round" stroke-linejoin="round"/>
        <path d="M325.755 122.786H302.695L288.446 147.362" stroke="#1D7074" stroke-width="3.2715" stroke-linecap="round" stroke-linejoin="round"/>
        <path d="M325.755 111.155H305.413" stroke="#1D7074" stroke-width="3.2715" stroke-linecap="round" stroke-linejoin="round"/>
        <path d="M251.043 113.406C251.043 99.3361 239.7 87.9861 225.638 87.9861C211.577 87.9861 200.234 99.3361 200.234 113.406C200.234 113.782 200.234 114.157 200.234 114.532L196.672 120.723L191.985 128.79H197.891V138.827C197.891 142.579 200.984 145.674 204.734 145.674H215.608V158.806H243.543V131.323C248.23 126.82 251.043 120.442 251.043 113.406Z" stroke="#1D7074" stroke-width="3.2715" stroke-miterlimit="10"/>
        <path d="M221.982 100.837C221.982 109.091 228.638 115.751 236.887 115.751C245.137 115.751 251.793 109.091 251.793 100.837C251.793 92.5823 245.137 85.9224 236.887 85.9224C228.638 85.9224 221.982 92.5823 221.982 100.837Z" stroke="#3FE0E6" stroke-width="3.2715" stroke-miterlimit="10"/>
        <path d="M226.669 100.837C226.669 106.465 231.263 111.061 236.887 111.061C242.512 111.061 247.105 106.465 247.105 100.837C247.105 95.2088 242.512 90.6125 236.887 90.6125C231.169 90.6125 226.669 95.2088 226.669 100.837Z" stroke="#3FE0E6" stroke-width="2.181" stroke-miterlimit="10"/>
        <path d="M230.794 100.837C230.794 104.214 233.513 106.934 236.888 106.934C240.262 106.934 242.981 104.214 242.981 100.837C242.981 97.46 240.262 94.7397 236.888 94.7397C233.513 94.7397 230.794 97.46 230.794 100.837Z" stroke="#3FE0E6" stroke-width="1.6358" stroke-miterlimit="10"/>
        <path d="M284.883 25.9829C274.759 29.6412 267.447 39.3028 267.447 50.7466C267.447 62.1904 274.665 71.852 284.883 75.5103C295.008 71.852 302.319 62.1904 302.319 50.7466C302.226 39.3966 295.008 29.735 284.883 25.9829Z" stroke="#1D7074" stroke-width="3.2715" stroke-linecap="round" stroke-linejoin="round"/>
        <path d="M284.883 25.9829V74.1033" stroke="#1D7074" stroke-width="3.2715" stroke-linecap="round" stroke-linejoin="round"/>
        <path d="M284.883 75.698V81.0447" stroke="#1D7074" stroke-width="3.2715" stroke-linecap="round" stroke-linejoin="round"/>
        <path d="M297.257 38.0833L285.446 48.7767" stroke="#1D7074" stroke-width="3.2715" stroke-linecap="round" stroke-linejoin="round"/>
        <path d="M301.57 49.6208L285.446 64.3477" stroke="#1D7074" stroke-width="3.2715" stroke-linecap="round" stroke-linejoin="round"/>
        <path d="M272.416 38.0833L284.227 48.8705" stroke="#1D7074" stroke-width="3.2715" stroke-linecap="round" stroke-linejoin="round"/>
        <path d="M268.104 49.6208L284.227 64.3477" stroke="#1D7074" stroke-width="3.2715" stroke-linecap="round" stroke-linejoin="round"/>
        <path d="M143.708 161.245V266.491C143.708 284.876 128.803 299.697 110.523 299.697H104.992C86.6184 299.697 71.8071 284.782 71.8071 266.491V227.751" stroke="#1D7074" stroke-width="3.2715" stroke-miterlimit="10"/>
        <path d="M143.989 219.027V158.337C143.989 147.738 152.613 139.202 163.112 139.202H166.299C176.892 139.202 185.423 147.832 185.423 158.337V219.871" stroke="#1D7074" stroke-width="3.2715" stroke-miterlimit="10"/>
        <path d="M207.359 240.883C207.359 252.702 197.797 262.364 185.892 262.364C174.08 262.364 164.425 252.796 164.425 240.883C164.425 229.064 173.987 219.402 185.892 219.402C197.797 219.402 207.359 229.064 207.359 240.883Z" fill="#ABFBFF"/>
        <path d="M196.297 240.883C196.297 246.605 191.61 251.295 185.892 251.295C180.173 251.295 175.486 246.605 175.486 240.883C175.486 235.161 180.173 230.471 185.892 230.471C191.704 230.471 196.297 235.161 196.297 240.883Z" fill="white" stroke="#1D7074" stroke-width="3.2715" stroke-miterlimit="10"/>
        <path d="M44.1531 90.2373C32.2478 90.2373 22.686 99.8989 22.686 111.718V186.853" stroke="#1D7074" stroke-width="3.2715" stroke-miterlimit="10"/>
        <path d="M101.148 90.5188C112.96 90.5188 122.615 100.18 122.615 111.999V187.229" stroke="#1D7074" stroke-width="3.2715" stroke-miterlimit="10"/>
        <path d="M71.8071 266.491V227.751" stroke="#1D7074" stroke-width="5.4525" stroke-miterlimit="10"/>
        <path d="M122.334 156.649V190.793C122.334 212.18 104.992 229.533 83.6187 229.533H61.4017C40.0284 229.533 22.686 212.18 22.686 190.793V156.649" stroke="#1D7074" stroke-width="5.4525" stroke-miterlimit="10"/>
        <path d="M44.1531 90.2373C41.0596 90.2373 38.0598 90.8939 35.3413 92.1133" stroke="#1D7074" stroke-width="5.4525" stroke-miterlimit="10"/>
        <path d="M101.148 90.5188C104.148 90.5188 107.054 91.1754 109.679 92.301" stroke="#1D7074" stroke-width="5.4525" stroke-miterlimit="10"/>
        <path d="M196.203 202.143H208.296H220.014L226.294 186.947L234.45 221.935L241.575 200.361H255.073L261.354 179.724L268.291 221.935L276.915 186.947L281.134 200.361H326.036" stroke="#3FE0E6" stroke-width="3.2715" stroke-miterlimit="10"/>
        <path d="M79.1189 162.934C86.8995 170.719 86.8995 183.382 79.1189 191.168C71.3382 198.954 58.683 198.954 50.9024 191.168C43.1217 183.382 43.1217 170.719 50.9024 162.934C58.683 155.148 71.3382 155.148 79.1189 162.934Z" stroke="#3FE0E6" stroke-width="3.2715"/>
        <path d="M93.0863 148.957L79.3062 162.746" stroke="#3FE0E6" stroke-width="3.2715" stroke-linecap="round" stroke-linejoin="round"/>
        <path d="M77.3379 148.582H93.3679V164.716" stroke="#3FE0E6" stroke-width="3.2715" stroke-linecap="round" stroke-linejoin="round"/>
        <path d="M296.133 293.318C276.165 293.318 258.823 304.293 249.73 320.615C258.823 336.842 276.259 347.911 296.133 347.911C316.1 347.911 333.442 336.936 342.535 320.615C333.442 304.293 316.006 293.318 296.133 293.318Z" stroke="#1D7074" stroke-width="3.2715" stroke-linejoin="round"/>
        <path d="M319.193 320.146C319.193 332.903 308.881 343.221 296.132 343.221C283.383 343.221 273.072 332.903 273.072 320.146C273.072 307.388 283.383 297.07 296.132 297.07C308.881 297.07 319.193 307.482 319.193 320.146Z" fill="#ABFBFF"/>
        <path d="M309.725 320.146C309.725 327.65 303.632 333.747 296.133 333.747C288.633 333.747 282.54 327.65 282.54 320.146C282.54 312.642 288.633 306.544 296.133 306.544C303.632 306.544 309.725 312.642 309.725 320.146Z" fill="#1D7074"/>
        <path d="M294.539 312.079C294.539 315.362 291.914 318.082 288.54 318.082C285.259 318.082 282.54 315.456 282.54 312.079C282.54 308.796 285.165 306.075 288.54 306.075C291.821 306.075 294.539 308.796 294.539 312.079Z" fill="white"/>
        <path d="M302.132 314.236C302.132 315.737 300.913 316.956 299.413 316.956C297.913 316.956 296.695 315.737 296.695 314.236C296.695 312.735 297.913 311.516 299.413 311.516C300.913 311.516 302.132 312.735 302.132 314.236Z" fill="white"/>
        <path d="M313.287 244.635H271.666V262.645H313.287V244.635Z" fill="#ABFBFF"/>
        <path d="M325.005 250.169H313.288V257.205H325.005V250.169Z" stroke="#1D7074" stroke-width="3.2715" stroke-miterlimit="10"/>
        <path d="M313.381 244.635H249.824V262.645H313.381V244.635Z" stroke="#1D7074" stroke-width="3.2715" stroke-miterlimit="10"/>
        <path d="M244.293 248.762H225.076V258.612H244.293V248.762Z" stroke="#1D7074" stroke-width="3.2715" stroke-miterlimit="10"/>
        <path d="M248.98 238.257H244.48V269.024H248.98V238.257Z" stroke="#1D7074" stroke-width="3.2715" stroke-miterlimit="10"/>
        <path d="M224.982 241.352V266.022" stroke="#1D7074" stroke-width="3.2715" stroke-miterlimit="10"/>
        <path d="M324.255 253.734H347.41" stroke="#1D7074" stroke-width="3.2715" stroke-miterlimit="10"/>
        <path d="M258.448 255.516V243.979" stroke="#1D7074" stroke-width="3.2715" stroke-miterlimit="10"/>
        <path d="M264.635 253.077V243.979" stroke="#1D7074" stroke-width="3.2715" stroke-miterlimit="10"/>
        <path d="M270.916 253.077V243.979" stroke="#1D7074" stroke-width="3.2715" stroke-miterlimit="10"/>
        <path d="M277.197 255.516L277.103 243.979" stroke="#1D7074" stroke-width="3.2715" stroke-miterlimit="10"/>
        <path d="M283.384 253.077V243.979" stroke="#1D7074" stroke-width="3.2715" stroke-miterlimit="10"/>
        <path d="M289.665 253.077V243.979" stroke="#1D7074" stroke-width="3.2715" stroke-miterlimit="10"/>
        <path d="M295.852 255.516V243.979" stroke="#1D7074" stroke-width="3.2715" stroke-miterlimit="10"/>
        <path d="M302.132 253.077V243.979" stroke="#1D7074" stroke-width="3.2715" stroke-miterlimit="10"/>
        <path d="M308.319 253.077V243.979" stroke="#1D7074" stroke-width="3.2715" stroke-miterlimit="10"/>
        <path d="M147.738 38.0834C148.02 38.4586 148.395 38.8338 148.863 39.3028C154.769 45.869 168.737 61.2525 168.737 72.9777C168.737 78.8872 166.768 84.7029 163.393 89.1116C160.675 92.5823 155.8 96.8034 147.738 96.8034C139.676 96.7096 134.802 92.5823 132.083 89.1116C128.709 84.7029 126.74 78.7934 126.74 72.9777C126.74 61.2525 140.708 45.869 146.613 39.3028C146.988 38.8338 147.363 38.4586 147.738 38.0834ZM147.738 32.9243C147.645 32.9243 147.645 33.0181 147.738 33.2057C147.738 33.1119 147.738 33.0181 147.738 32.9243ZM147.738 33.2057C146.426 35.8322 123.74 56.4686 123.74 72.8839C123.74 85.1719 131.708 99.7112 147.738 99.805C163.862 99.7112 171.736 85.1719 171.736 72.8839C171.736 56.4686 148.957 35.8322 147.738 33.2057Z" fill="#3FE0E6"/>
        <path d="M353.878 228.971C352.378 230.472 349.941 230.472 348.535 228.971L336.723 217.152C335.223 215.651 335.223 213.212 336.723 211.805L371.127 177.38C372.626 175.879 375.064 175.879 376.47 177.38L388.281 189.199C389.781 190.7 389.781 193.138 388.281 194.545L353.878 228.971Z" stroke="#3FE0E6" stroke-width="3.2715" stroke-miterlimit="10"/>
        <path d="M373.095 182.913C372.814 182.913 372.533 183.007 372.345 183.195C371.97 183.57 371.97 184.227 372.345 184.602C372.533 184.789 372.814 184.883 373.095 184.883C373.376 184.883 373.658 184.789 373.845 184.602C374.22 184.227 374.22 183.57 373.845 183.195C373.564 183.007 373.376 182.913 373.095 182.913Z" fill="#3FE0E6"/>
        <path d="M376.001 185.821C375.72 185.821 375.438 185.915 375.251 186.103C374.876 186.478 374.876 187.135 375.251 187.51C375.438 187.697 375.72 187.791 376.001 187.791C376.282 187.791 376.563 187.697 376.751 187.51C377.126 187.135 377.126 186.478 376.751 186.103C376.47 185.915 376.188 185.821 376.001 185.821Z" fill="#3FE0E6"/>
        <path d="M378.907 188.635C378.626 188.635 378.345 188.729 378.157 188.917C377.782 189.292 377.782 189.948 378.157 190.324C378.345 190.511 378.626 190.605 378.907 190.605C379.188 190.605 379.47 190.511 379.657 190.324C380.032 189.948 380.032 189.292 379.657 188.917C379.376 188.729 379.095 188.635 378.907 188.635Z" fill="#3FE0E6"/>
        <path d="M381.72 191.543C381.438 191.543 381.157 191.637 380.97 191.824C380.595 192.2 380.595 192.856 380.97 193.231C381.157 193.419 381.438 193.513 381.72 193.513C382.001 193.513 382.282 193.419 382.47 193.231C382.845 192.856 382.845 192.2 382.47 191.824C382.282 191.637 382.001 191.543 381.72 191.543Z" fill="#3FE0E6"/>
        <path d="M370.377 185.634C370.096 185.634 369.814 185.727 369.627 185.915C369.252 186.29 369.252 186.947 369.627 187.322C369.814 187.51 370.096 187.603 370.377 187.603C370.658 187.603 370.939 187.51 371.127 187.322C371.502 186.947 371.502 186.29 371.127 185.915C370.846 185.727 370.658 185.634 370.377 185.634Z" fill="#3FE0E6"/>
        <path d="M373.283 188.448C373.002 188.448 372.721 188.541 372.533 188.729C372.158 189.104 372.158 189.761 372.533 190.136C372.721 190.324 373.002 190.417 373.283 190.417C373.564 190.417 373.846 190.324 374.033 190.136C374.408 189.761 374.408 189.104 374.033 188.729C373.752 188.635 373.564 188.448 373.283 188.448Z" fill="#3FE0E6"/>
        <path d="M376.189 191.355C375.908 191.355 375.626 191.449 375.439 191.637C375.064 192.012 375.064 192.669 375.439 193.044C375.626 193.232 375.908 193.325 376.189 193.325C376.47 193.325 376.751 193.232 376.939 193.044C377.314 192.669 377.314 192.012 376.939 191.637C376.658 191.449 376.376 191.355 376.189 191.355Z" fill="#3FE0E6"/>
        <path d="M379.001 194.263C378.72 194.263 378.439 194.357 378.251 194.545C377.876 194.92 377.876 195.577 378.251 195.952C378.439 196.139 378.72 196.233 379.001 196.233C379.283 196.233 379.564 196.139 379.751 195.952C380.126 195.577 380.126 194.92 379.751 194.545C379.564 194.357 379.283 194.263 379.001 194.263Z" fill="#3FE0E6"/>
        <path d="M367.658 188.354C367.377 188.354 367.096 188.448 366.908 188.635C366.533 189.01 366.533 189.667 366.908 190.042C367.096 190.23 367.377 190.324 367.658 190.324C367.939 190.324 368.221 190.23 368.408 190.042C368.783 189.667 368.783 189.01 368.408 188.635C368.221 188.448 367.939 188.354 367.658 188.354Z" fill="#3FE0E6"/>
        <path d="M370.564 191.168C370.283 191.168 370.002 191.262 369.814 191.449C369.439 191.824 369.439 192.481 369.814 192.856C370.002 193.044 370.283 193.138 370.564 193.138C370.846 193.138 371.127 193.044 371.314 192.856C371.689 192.481 371.689 191.824 371.314 191.449C371.033 191.262 370.846 191.168 370.564 191.168Z" fill="#3FE0E6"/>
        <path d="M373.47 194.076C373.189 194.076 372.908 194.169 372.72 194.357C372.345 194.732 372.345 195.389 372.72 195.764C372.908 195.952 373.189 196.046 373.47 196.046C373.751 196.046 374.033 195.952 374.22 195.764C374.595 195.389 374.595 194.732 374.22 194.357C373.939 194.169 373.658 194.076 373.47 194.076Z" fill="#3FE0E6"/>
        <path d="M376.376 196.983C376.095 196.983 375.814 197.077 375.626 197.265C375.251 197.64 375.251 198.297 375.626 198.672C375.814 198.859 376.095 198.953 376.376 198.953C376.658 198.953 376.939 198.859 377.126 198.672C377.501 198.297 377.501 197.64 377.126 197.265C376.845 197.077 376.564 196.983 376.376 196.983Z" fill="#3FE0E6"/>
        <path d="M364.939 190.98C364.658 190.98 364.377 191.074 364.189 191.262C363.814 191.637 363.814 192.293 364.189 192.669C364.377 192.856 364.658 192.95 364.939 192.95C365.221 192.95 365.502 192.856 365.689 192.669C366.064 192.293 366.064 191.637 365.689 191.262C365.502 191.168 365.221 190.98 364.939 190.98Z" fill="#3FE0E6"/>
        <path d="M367.846 193.888C367.564 193.888 367.283 193.982 367.096 194.17C366.721 194.545 366.721 195.201 367.096 195.577C367.283 195.764 367.564 195.858 367.846 195.858C368.127 195.858 368.408 195.764 368.596 195.577C368.971 195.201 368.971 194.545 368.596 194.17C368.314 193.982 368.127 193.888 367.846 193.888Z" fill="#3FE0E6"/>
        <path d="M370.751 196.796C370.47 196.796 370.189 196.89 370.001 197.077C369.626 197.453 369.626 198.109 370.001 198.484C370.189 198.672 370.47 198.766 370.751 198.766C371.033 198.766 371.314 198.672 371.501 198.484C371.876 198.109 371.876 197.453 371.501 197.077C371.22 196.89 371.033 196.796 370.751 196.796Z" fill="#3FE0E6"/>
        <path d="M373.658 199.704C373.376 199.704 373.095 199.798 372.908 199.985C372.533 200.36 372.533 201.017 372.908 201.392C373.095 201.58 373.376 201.674 373.658 201.674C373.939 201.674 374.22 201.58 374.408 201.392C374.783 201.017 374.783 200.36 374.408 199.985C374.126 199.798 373.845 199.704 373.658 199.704Z" fill="#3FE0E6"/>
        <path d="M348.722 207.302C348.441 207.302 348.16 207.396 347.972 207.583C347.597 207.958 347.597 208.615 347.972 208.99C348.16 209.178 348.441 209.272 348.722 209.272C349.003 209.272 349.285 209.178 349.472 208.99C349.847 208.615 349.847 207.958 349.472 207.583C349.191 207.396 348.91 207.302 348.722 207.302Z" fill="#3FE0E6"/>
        <path d="M351.535 210.21C351.253 210.21 350.972 210.304 350.785 210.491C350.41 210.866 350.41 211.523 350.785 211.898C350.972 212.086 351.253 212.18 351.535 212.18C351.816 212.18 352.097 212.086 352.285 211.898C352.659 211.523 352.659 210.866 352.285 210.491C352.097 210.304 351.816 210.21 351.535 210.21Z" fill="#3FE0E6"/>
        <path d="M354.44 213.117C354.159 213.117 353.878 213.211 353.69 213.399C353.315 213.774 353.315 214.431 353.69 214.806C353.878 214.993 354.159 215.087 354.44 215.087C354.722 215.087 355.003 214.993 355.19 214.806C355.565 214.431 355.565 213.774 355.19 213.399C355.003 213.211 354.722 213.117 354.44 213.117Z" fill="#3FE0E6"/>
        <path d="M357.347 215.932C357.065 215.932 356.784 216.025 356.597 216.213C356.222 216.588 356.222 217.245 356.597 217.62C356.784 217.808 357.065 217.901 357.347 217.901C357.628 217.901 357.909 217.808 358.097 217.62C358.472 217.245 358.472 216.588 358.097 216.213C357.909 216.119 357.628 215.932 357.347 215.932Z" fill="#3FE0E6"/>
        <path d="M346.004 210.022C345.723 210.022 345.441 210.116 345.254 210.303C344.879 210.679 344.879 211.335 345.254 211.71C345.441 211.898 345.723 211.992 346.004 211.992C346.285 211.992 346.566 211.898 346.754 211.71C347.129 211.335 347.129 210.679 346.754 210.303C346.473 210.116 346.191 210.022 346.004 210.022Z" fill="#3FE0E6"/>
        <path d="M348.91 212.93C348.628 212.93 348.347 213.024 348.16 213.211C347.785 213.587 347.785 214.243 348.16 214.618C348.347 214.806 348.628 214.9 348.91 214.9C349.191 214.9 349.472 214.806 349.66 214.618C350.035 214.243 350.035 213.587 349.66 213.211C349.378 213.024 349.097 212.93 348.91 212.93Z" fill="#3FE0E6"/>
        <path d="M351.722 215.838C351.441 215.838 351.16 215.931 350.972 216.119C350.597 216.494 350.597 217.151 350.972 217.526C351.16 217.714 351.441 217.807 351.722 217.807C352.003 217.807 352.285 217.714 352.472 217.526C352.847 217.151 352.847 216.494 352.472 216.119C352.285 215.931 352.003 215.838 351.722 215.838Z" fill="#3FE0E6"/>
        <path d="M354.628 218.652C354.347 218.652 354.066 218.746 353.878 218.933C353.503 219.308 353.503 219.965 353.878 220.34C354.066 220.528 354.347 220.622 354.628 220.622C354.91 220.622 355.191 220.528 355.378 220.34C355.753 219.965 355.753 219.308 355.378 218.933C355.191 218.746 354.91 218.652 354.628 218.652Z" fill="#3FE0E6"/>
        <path d="M343.285 212.742C343.004 212.742 342.723 212.836 342.535 213.024C342.16 213.399 342.16 214.056 342.535 214.431C342.723 214.618 343.004 214.712 343.285 214.712C343.566 214.712 343.848 214.618 344.035 214.431C344.41 214.056 344.41 213.399 344.035 213.024C343.754 212.836 343.566 212.742 343.285 212.742Z" fill="#3FE0E6"/>
        <path d="M346.191 215.65C345.91 215.65 345.629 215.744 345.441 215.932C345.066 216.307 345.066 216.964 345.441 217.339C345.629 217.526 345.91 217.62 346.191 217.62C346.473 217.62 346.754 217.526 346.941 217.339C347.316 216.964 347.316 216.307 346.941 215.932C346.66 215.744 346.379 215.65 346.191 215.65Z" fill="#3FE0E6"/>
        <path d="M349.003 218.464C348.722 218.464 348.441 218.558 348.253 218.746C347.878 219.121 347.878 219.778 348.253 220.153C348.441 220.34 348.722 220.434 349.003 220.434C349.285 220.434 349.566 220.34 349.753 220.153C350.128 219.778 350.128 219.121 349.753 218.746C349.566 218.652 349.285 218.464 349.003 218.464Z" fill="#3FE0E6"/>
        <path d="M351.91 221.372C351.628 221.372 351.347 221.466 351.16 221.653C350.785 222.029 350.785 222.685 351.16 223.061C351.347 223.248 351.628 223.342 351.91 223.342C352.191 223.342 352.472 223.248 352.66 223.061C353.034 222.685 353.034 222.029 352.66 221.653C352.472 221.466 352.191 221.372 351.91 221.372Z" fill="#3FE0E6"/>
        <path d="M381.72 212.742C381.438 212.742 381.157 212.836 380.97 213.024C380.595 213.399 380.595 214.055 380.97 214.431C381.157 214.618 381.438 214.712 381.72 214.712C382.001 214.712 382.282 214.618 382.47 214.431C382.845 214.055 382.845 213.399 382.47 213.024C382.282 212.836 382.001 212.742 381.72 212.742Z" fill="#3FE0E6"/>
        <path d="M378.907 215.65C378.626 215.65 378.345 215.744 378.157 215.932C377.782 216.307 377.782 216.963 378.157 217.339C378.345 217.526 378.626 217.62 378.907 217.62C379.188 217.62 379.47 217.526 379.657 217.339C380.032 216.963 380.032 216.307 379.657 215.932C379.376 215.744 379.095 215.65 378.907 215.65Z" fill="#3FE0E6"/>
        <path d="M376.001 218.464C375.72 218.464 375.438 218.558 375.251 218.746C374.876 219.121 374.876 219.777 375.251 220.153C375.438 220.34 375.72 220.434 376.001 220.434C376.282 220.434 376.563 220.34 376.751 220.153C377.126 219.777 377.126 219.121 376.751 218.746C376.47 218.652 376.188 218.464 376.001 218.464Z" fill="#3FE0E6"/>
        <path d="M373.095 221.372C372.814 221.372 372.533 221.466 372.345 221.653C371.97 222.029 371.97 222.685 372.345 223.061C372.533 223.248 372.814 223.342 373.095 223.342C373.376 223.342 373.658 223.248 373.845 223.061C374.22 222.685 374.22 222.029 373.845 221.653C373.564 221.466 373.376 221.372 373.095 221.372Z" fill="#3FE0E6"/>
        <path d="M379.001 210.022C378.72 210.022 378.439 210.116 378.251 210.303C377.876 210.679 377.876 211.335 378.251 211.71C378.439 211.898 378.72 211.992 379.001 211.992C379.283 211.992 379.564 211.898 379.751 211.71C380.126 211.335 380.126 210.679 379.751 210.303C379.564 210.116 379.283 210.022 379.001 210.022Z" fill="#3FE0E6"/>
        <path d="M376.189 212.93C375.908 212.93 375.626 213.024 375.439 213.211C375.064 213.587 375.064 214.243 375.439 214.618C375.626 214.806 375.908 214.9 376.189 214.9C376.47 214.9 376.751 214.806 376.939 214.618C377.314 214.243 377.314 213.587 376.939 213.211C376.658 213.024 376.376 212.93 376.189 212.93Z" fill="#3FE0E6"/>
        <path d="M373.283 215.838C373.002 215.838 372.721 215.931 372.533 216.119C372.158 216.494 372.158 217.151 372.533 217.526C372.721 217.714 373.002 217.807 373.283 217.807C373.564 217.807 373.846 217.714 374.033 217.526C374.408 217.151 374.408 216.494 374.033 216.119C373.752 215.931 373.564 215.838 373.283 215.838Z" fill="#3FE0E6"/>
        <path d="M370.377 218.652C370.096 218.652 369.814 218.746 369.627 218.933C369.252 219.308 369.252 219.965 369.627 220.34C369.814 220.528 370.096 220.622 370.377 220.622C370.658 220.622 370.939 220.528 371.127 220.34C371.502 219.965 371.502 219.308 371.127 218.933C370.939 218.746 370.658 218.652 370.377 218.652Z" fill="#3FE0E6"/>
        <path d="M376.376 207.302C376.095 207.302 375.814 207.396 375.626 207.583C375.251 207.958 375.251 208.615 375.626 208.99C375.814 209.178 376.095 209.272 376.376 209.272C376.658 209.272 376.939 209.178 377.126 208.99C377.501 208.615 377.501 207.958 377.126 207.583C376.845 207.396 376.564 207.302 376.376 207.302Z" fill="#3FE0E6"/>
        <path d="M373.47 210.21C373.189 210.21 372.908 210.304 372.72 210.491C372.345 210.866 372.345 211.523 372.72 211.898C372.908 212.086 373.189 212.18 373.47 212.18C373.751 212.18 374.033 212.086 374.22 211.898C374.595 211.523 374.595 210.866 374.22 210.491C373.939 210.304 373.658 210.21 373.47 210.21Z" fill="#3FE0E6"/>
        <path d="M370.564 213.117C370.283 213.117 370.002 213.211 369.814 213.399C369.439 213.774 369.439 214.431 369.814 214.806C370.002 214.993 370.283 215.087 370.564 215.087C370.846 215.087 371.127 214.993 371.314 214.806C371.689 214.431 371.689 213.774 371.314 213.399C371.033 213.211 370.846 213.117 370.564 213.117Z" fill="#3FE0E6"/>
        <path d="M367.658 215.932C367.377 215.932 367.096 216.025 366.908 216.213C366.533 216.588 366.533 217.245 366.908 217.62C367.096 217.808 367.377 217.901 367.658 217.901C367.939 217.901 368.221 217.808 368.408 217.62C368.783 217.245 368.783 216.588 368.408 216.213C368.221 216.119 367.939 215.932 367.658 215.932Z" fill="#3FE0E6"/>
        <path d="M357.347 188.354C357.065 188.354 356.784 188.448 356.597 188.635C356.222 189.01 356.222 189.667 356.597 190.042C356.784 190.23 357.065 190.324 357.347 190.324C357.628 190.324 357.909 190.23 358.097 190.042C358.472 189.667 358.472 189.01 358.097 188.635C357.909 188.448 357.628 188.354 357.347 188.354Z" fill="#3FE0E6"/>
        <path d="M354.44 191.168C354.159 191.168 353.878 191.262 353.69 191.449C353.315 191.824 353.315 192.481 353.69 192.856C353.878 193.044 354.159 193.138 354.44 193.138C354.722 193.138 355.003 193.044 355.19 192.856C355.565 192.481 355.565 191.824 355.19 191.449C355.003 191.262 354.722 191.168 354.44 191.168Z" fill="#3FE0E6"/>
        <path d="M351.535 194.076C351.253 194.076 350.972 194.169 350.785 194.357C350.41 194.732 350.41 195.389 350.785 195.764C350.972 195.952 351.253 196.046 351.535 196.046C351.816 196.046 352.097 195.952 352.285 195.764C352.659 195.389 352.659 194.732 352.285 194.357C352.097 194.169 351.816 194.076 351.535 194.076Z" fill="#3FE0E6"/>
        <path d="M348.722 196.983C348.441 196.983 348.16 197.077 347.972 197.265C347.597 197.64 347.597 198.297 347.972 198.672C348.16 198.859 348.441 198.953 348.722 198.953C349.003 198.953 349.285 198.859 349.472 198.672C349.847 198.297 349.847 197.64 349.472 197.265C349.191 197.077 348.91 196.983 348.722 196.983Z" fill="#3FE0E6"/>
        <path d="M354.628 185.634C354.347 185.634 354.066 185.727 353.878 185.915C353.503 186.29 353.503 186.947 353.878 187.322C354.066 187.51 354.347 187.603 354.628 187.603C354.91 187.603 355.191 187.51 355.378 187.322C355.753 186.947 355.753 186.29 355.378 185.915C355.191 185.727 354.91 185.634 354.628 185.634Z" fill="#3FE0E6"/>
        <path d="M351.722 188.448C351.441 188.448 351.16 188.541 350.972 188.729C350.597 189.104 350.597 189.761 350.972 190.136C351.16 190.324 351.441 190.417 351.722 190.417C352.003 190.417 352.285 190.324 352.472 190.136C352.847 189.761 352.847 189.104 352.472 188.729C352.285 188.635 352.003 188.448 351.722 188.448Z" fill="#3FE0E6"/>
        <path d="M348.91 191.355C348.628 191.355 348.347 191.449 348.16 191.637C347.785 192.012 347.785 192.669 348.16 193.044C348.347 193.231 348.628 193.325 348.91 193.325C349.191 193.325 349.472 193.231 349.66 193.044C350.035 192.669 350.035 192.012 349.66 191.637C349.378 191.449 349.097 191.355 348.91 191.355Z" fill="#3FE0E6"/>
        <path d="M346.004 194.263C345.723 194.263 345.441 194.357 345.254 194.545C344.879 194.92 344.879 195.577 345.254 195.952C345.441 196.139 345.723 196.233 346.004 196.233C346.285 196.233 346.566 196.139 346.754 195.952C347.129 195.577 347.129 194.92 346.754 194.545C346.473 194.357 346.191 194.263 346.004 194.263Z" fill="#3FE0E6"/>
        <path d="M351.91 182.913C351.628 182.913 351.347 183.007 351.16 183.195C350.785 183.57 350.785 184.227 351.16 184.602C351.347 184.789 351.628 184.883 351.91 184.883C352.191 184.883 352.472 184.789 352.66 184.602C353.034 184.227 353.034 183.57 352.66 183.195C352.472 183.007 352.191 182.913 351.91 182.913Z" fill="#3FE0E6"/>
        <path d="M349.003 185.821C348.722 185.821 348.441 185.915 348.253 186.103C347.878 186.478 347.878 187.135 348.253 187.51C348.441 187.697 348.722 187.791 349.003 187.791C349.285 187.791 349.566 187.697 349.753 187.51C350.128 187.135 350.128 186.478 349.753 186.103C349.566 185.915 349.285 185.821 349.003 185.821Z" fill="#3FE0E6"/>
        <path d="M346.191 188.635C345.91 188.635 345.629 188.729 345.441 188.917C345.066 189.292 345.066 189.948 345.441 190.324C345.629 190.511 345.91 190.605 346.191 190.605C346.473 190.605 346.754 190.511 346.941 190.324C347.316 189.948 347.316 189.292 346.941 188.917C346.66 188.729 346.379 188.635 346.191 188.635Z" fill="#3FE0E6"/>
        <path d="M343.285 191.543C343.004 191.543 342.723 191.637 342.535 191.824C342.16 192.2 342.16 192.856 342.535 193.231C342.723 193.419 343.004 193.513 343.285 193.513C343.566 193.513 343.848 193.419 344.035 193.231C344.41 192.856 344.41 192.2 344.035 191.824C343.754 191.637 343.566 191.543 343.285 191.543Z" fill="#3FE0E6"/>
        <path d="M345.348 203.175L362.596 185.915L353.972 177.285C352.472 175.784 350.035 175.784 348.629 177.285L336.817 189.104C335.317 190.605 335.317 193.044 336.817 194.451L345.348 203.175Z" stroke="#3FE0E6" stroke-width="3.2715" stroke-miterlimit="10"/>
        <path d="M379.751 203.175L362.502 220.434L371.126 229.064C372.626 230.565 375.063 230.565 376.47 229.064L388.281 217.245C389.781 215.744 389.781 213.305 388.281 211.898L379.751 203.175Z" stroke="#3FE0E6" stroke-width="3.2715" stroke-miterlimit="10"/>
        <path d="M103.117 59.7517L103.867 59.0013L94.4926 49.6211L93.7426 50.3715C89.4305 49.1521 84.5559 50.1839 81.0874 53.5608L66.2761 68.3815L65.4324 69.2257L63.0888 71.5707C62.5264 72.1335 62.5264 73.1654 63.0888 73.7282L79.775 90.4249C80.3375 90.9877 81.3686 90.9877 81.9311 90.4249L84.2746 88.0799L85.1183 87.2356L99.9296 72.4149C103.304 68.9443 104.429 64.0666 103.117 59.7517Z" stroke="#1D7074" stroke-width="3.2715" stroke-miterlimit="10"/>
        <path d="M104.992 60.0332L93.4614 48.4017L98.9922 42.8674L110.523 54.4989L104.992 60.0332Z" stroke="#1D7074" stroke-width="3.2715" stroke-miterlimit="10"/>
        <path d="M100.024 43.8992L95.3364 48.6831" stroke="#1D7074" stroke-width="3.2715" stroke-miterlimit="10"/>
        <path d="M101.336 45.3062L96.6489 49.9962" stroke="#1D7074" stroke-width="3.2715" stroke-miterlimit="10"/>
        <path d="M102.742 46.6194L98.0552 51.3095" stroke="#1D7074" stroke-width="3.2715" stroke-miterlimit="10"/>
        <path d="M104.054 48.0264L99.3672 52.7165" stroke="#1D7074" stroke-width="3.2715" stroke-miterlimit="10"/>
        <path d="M105.461 49.3396L100.773 54.0297" stroke="#1D7074" stroke-width="3.2715" stroke-miterlimit="10"/>
        <path d="M106.773 50.7466L102.086 55.4367" stroke="#1D7074" stroke-width="3.2715" stroke-miterlimit="10"/>
        <path d="M108.179 52.0598L103.492 56.7499" stroke="#1D7074" stroke-width="3.2715" stroke-miterlimit="10"/>
        <path d="M109.491 53.467L104.804 58.1571" stroke="#1D7074" stroke-width="3.2715" stroke-miterlimit="10"/>
        <path d="M90.8368 74.2911C87.6495 77.4804 82.4937 77.4804 79.3064 74.2911C76.1192 71.1019 76.1192 65.9428 79.3064 62.7535C82.4937 59.5643 87.6495 59.5643 90.8368 62.7535C94.024 65.9428 94.024 71.1019 90.8368 74.2911Z" stroke="#3FE0E6" stroke-width="3.2715" stroke-linecap="round" stroke-linejoin="round"/>
        <path d="M86.8994 64.1604L85.0245 66.0364L83.1497 64.1604L80.6187 66.5992L82.4935 68.5691L80.6187 70.4451L83.1497 72.9778L85.0245 71.0079L86.8994 72.9778L89.4305 70.4451L87.5556 68.5691L89.4305 66.5992L86.8994 64.1604Z" fill="#1D7074"/>
        <path d="M211.296 17.447L204.265 24.4822L211.296 31.5173" stroke="#3FE0E6" stroke-width="3.2715" stroke-linecap="round" stroke-linejoin="round"/>
        <path d="M206.14 24.4822H231.638" stroke="#3FE0E6" stroke-width="3.2715" stroke-linecap="round" stroke-linejoin="round"/>
        <path d="M224.607 17.0717L231.638 10.0366L224.607 3.00146" stroke="#3FE0E6" stroke-width="3.2715" stroke-linecap="round" stroke-linejoin="round"/>
        <path d="M229.763 10.0366H204.265" stroke="#3FE0E6" stroke-width="3.2715" stroke-linecap="round" stroke-linejoin="round"/>
        <path d="M29.7164 318.926C29.7164 318.926 38.4345 319.677 41.153 316.393C43.8715 313.11 35.9034 314.142 39.4656 316.581C43.0279 318.926 51.0897 314.705 48.9336 310.672C46.7775 306.638 43.4028 304.95 40.1218 307.295C36.8408 309.64 39.5594 310.953 40.778 308.702C41.9967 306.45 37.0283 300.822 32.9037 308.796C28.6852 316.769 31.0288 317.332 32.4349 312.079C33.8411 306.826 30.5601 303.449 28.029 309.64C25.5917 315.831 29.3414 318.926 30.2789 316.112C31.2163 313.298 23.1544 307.482 22.4982 312.829C21.842 318.082 21.3733 324.46 25.4043 324.554C29.4352 324.648 20.0609 310.765 16.405 322.115C12.749 333.465 20.1547 329.995 20.4359 327.462C20.7171 324.929 6.93698 329.62 17.6236 333.372C28.3103 337.124 24.2793 332.527 25.2168 329.995C26.1542 327.368 16.2175 334.216 21.5608 339.75C26.9041 345.284 32.06 344.253 31.0288 338.437C29.9976 332.715 23.9044 335.717 25.873 340.501C27.8416 345.284 24.8418 348.099 23.7169 348.568C22.592 349.037 31.1226 352.601 32.7162 348.005C34.2161 343.221 36.4659 320.521 29.7164 318.926Z" fill="#163F59"/>
        <path d="M42.7464 314.799L47.7148 321.177L47.6211 323.616L51.9332 329.432L50.0584 332.715L50.9958 342.846C50.9958 342.846 51.7457 348.286 46.5899 346.316C41.4341 344.346 41.4341 344.346 41.4341 344.346C41.4341 344.346 37.1219 357.948 40.1217 360.387C43.1214 362.825 45.1838 365.546 43.9651 367.046C42.8402 368.453 39.9342 367.422 36.9344 367.046C31.5911 366.484 28.0289 367.422 25.7791 367.609C24.0917 367.703 26.4353 366.671 26.904 363.294C27.3727 359.917 30.185 339.844 30.185 339.844C30.185 339.844 29.2475 340.219 28.0289 339.656C26.7165 339.094 21.0919 334.779 22.9668 332.246C24.8416 329.713 28.9663 330.839 30.3724 333.278C31.7786 335.717 34.2159 333.09 33.6534 327.931C33.091 322.678 22.5918 319.677 34.4971 318.082C42.3715 316.862 42.7464 314.799 42.7464 314.799Z" fill="#E9D6B8"/>
        <path d="M86.1494 371.549L113.428 346.598C113.428 346.598 115.21 348.755 114.553 350.819C112.679 356.259 105.085 364.326 100.867 369.016C95.0549 375.301 87.6493 380.366 87.6493 380.366L86.1494 371.549Z" fill="#E9D6B8"/>
        <path d="M113.522 353.352L116.99 350.444C116.99 350.444 118.678 349.13 120.084 346.973C121.49 344.816 120.646 342.658 118.865 340.876C116.99 339.094 115.678 338.906 115.678 338.906C115.678 338.906 112.678 340.219 113.053 342.846C113.428 345.472 110.803 351.382 111.741 351.757C112.772 352.226 113.522 353.352 113.522 353.352Z" fill="#E9D6B8"/>
        <path d="M114.366 339.375L117.74 335.717L121.115 332.434L121.49 333.372L119.522 336.092L118.397 341.626L117.084 340.876L114.366 339.375Z" fill="#E9D6B8"/>
        <path d="M120.646 337.405L124.396 335.529L125.052 336.279L121.771 338.812L119.334 342.658L117.084 340.876L120.646 337.405Z" fill="#E9D6B8"/>
        <path d="M125.708 337.968L122.709 339.281L120.553 339.938L119.053 341.907L120.459 343.877L121.959 341.72L125.615 339.187L125.708 337.968Z" fill="#E9D6B8"/>
        <path d="M126.365 341.251L120.553 342.752L119.615 344.159L120.459 345.566L122.896 343.971L125.99 342.189L126.365 341.251Z" fill="#E9D6B8"/>
        <path d="M110.054 353.258C111.928 351.382 111.553 348.474 111.553 348.474C111.553 348.474 110.71 341.345 111.741 340.219C112.772 339.093 113.428 335.998 113.428 335.998C113.428 335.998 114.272 334.872 114.741 337.78C115.022 339.656 114.647 341.345 114.647 341.345C114.647 341.345 116.522 345.191 116.428 346.504C116.147 349.13 111.46 353.633 111.46 353.633C111.46 353.633 109.772 353.539 110.054 353.258Z" fill="#E9D6B8"/>
        <path d="M53.5269 364.42L66.1822 367.516L78.0875 369.767L107.616 349.975L114.46 361.794L80.431 389.465L40.5905 384.306C40.5905 384.306 34.3097 374.551 31.31 362.732C28.9664 354.102 50.9959 364.139 53.5269 364.42Z" fill="#ABFBFF"/>
        <path d="M56.2454 412.728L90.4614 413.76C90.4614 413.76 65.1509 429.05 55.9641 421.358C46.6836 413.572 56.2454 412.728 56.2454 412.728Z" fill="#E9D6B8"/>
        <path d="M19.4047 618.717L18.2798 622L0 615.996L2.43731 606.991L13.5927 610.275C13.6864 610.275 17.8111 617.685 19.4047 618.717Z" fill="#161711"/>
        <path d="M26.1542 452.594C26.1542 452.594 34.966 510.001 44.8089 535.421C53.527 557.839 64.9636 529.136 64.9636 529.136L50.1523 432.708L22.4045 429.988C22.4045 429.988 20.4359 430.644 26.1542 452.594Z" fill="#007074"/>
        <path d="M44.3404 435.053L46.9652 472.011L42.0906 474.731C42.0906 474.731 38.1534 529.511 37.1222 532.232C31.5914 547.99 18.28 538.141 16.5926 532.888C14.9053 527.541 12.6554 488.332 13.8741 459.817C15.0927 431.301 15.0927 431.301 15.0927 431.301L44.3404 435.053Z" fill="#1D7074"/>
        <path d="M37.1222 521.913C37.1222 521.913 37.0285 531.95 32.3413 549.773C29.4353 561.123 21.0922 590.952 13.5928 612.901C13.1241 614.214 2.15625 610.556 2.15625 610.556C2.15625 610.556 12.8429 536.077 15.5614 521.82C16.4989 517.599 30.5602 509.719 37.1222 521.913Z" fill="#1D7074"/>
        <path d="M40.028 358.698L38.6219 360.105L28.029 354.008L12.6552 365.17C12.6552 365.17 9.74917 375.489 9.56168 396.219C9.46794 416.855 11.249 491.334 11.249 491.334L50.8084 494.523L55.0268 466.195L57.9328 491.615L62.7137 487.77C62.6199 487.77 51.9333 368.078 40.028 358.698Z" fill="#ABFBFF"/>
        <path d="M60.2766 527.729C60.2766 527.729 56.9956 528.761 46.7777 528.855C36.5598 529.042 58.2143 611.776 58.2143 611.776L72.8381 606.71L64.1201 523.602L60.2766 527.729Z" fill="#007074"/>
        <path d="M59.3389 610.931L60.5575 618.154L67.8694 618.342C67.8694 618.342 73.4002 618.435 74.8064 618.529C76.2125 618.529 84.4619 618.717 84.4619 618.717L84.5556 616.09C84.5556 616.09 73.119 611.869 70.9629 607.367C68.7131 602.864 59.3389 610.931 59.3389 610.931Z" fill="#161711"/>
        <path d="M100.961 419.388L97.6796 420.607L84.2744 416.105L89.524 406.725L91.3051 409.445L95.9922 409.257L101.898 417.512L100.961 419.388Z" fill="#E9D6B8"/>
        <path d="M34.685 359.448L40.0283 358.698L45.4653 365.452L46.2153 385.15L40.497 374.926L33.3726 363.67L34.685 359.448Z" fill="#D1DBEA"/>
        <path d="M38.9032 359.073L39.6531 365.827L24.9355 357.573L26.6229 352.695L38.9032 359.073Z" fill="#ABFBFF"/>
        <path d="M39.6533 357.104L38.9033 359.073L41.8093 365.358L42.0906 359.824L39.6533 357.104Z" fill="#ABFBFF"/>
        <path d="M25.9665 353.351L39.4655 368.453L46.2149 385.15L52.9644 416.011L37.2156 376.427L38.8093 375.113L36.2782 373.519C36.2782 373.519 31.1224 366.108 26.9977 362.262C22.7793 358.417 22.7793 357.76 22.7793 357.76L25.9665 353.351Z" fill="#E9F6FF"/>
        <path d="M17.7173 364.326C17.7173 364.326 9.74917 368.453 13.5926 380.272C20.1546 400.534 33.7472 417.137 36.2783 420.513C38.8093 423.89 47.4337 430.832 53.8081 429.237C57.8391 428.299 79.3998 427.267 79.3998 427.267L80.3373 412.822L56.2454 412.728L53.9019 412.259C53.9019 412.259 45.6525 399.127 38.7156 386.276C31.7787 373.519 17.7173 364.326 17.7173 364.326Z" fill="#E9F6FF"/>
        <path d="M43.9652 380.366C43.9652 380.366 42.3715 360.011 41.2466 358.792C40.1217 357.572 44.2464 361.137 44.2464 361.137L45.3713 365.546L46.7774 370.798L49.6835 403.629L43.9652 380.366Z" fill="#E9F6FF"/>
        <path d="M47.6211 461.13H28.7788V465.257H47.6211V461.13Z" fill="#E9F6FF"/>
    </g>
    <defs>
        <clipPath id="clip0">
            <rect width="391" height="622" fill="white"/>
        </clipPath>
    </defs>
</svg>
