<svg width="259" height="292" viewBox="0 0 259 292" fill="none" xmlns="http://www.w3.org/2000/svg">
<path d="M237.885 117.675L208.555 118.428L202.037 149.777C202.037 149.777 235.128 150.781 241.395 147.019C247.662 143.257 237.885 117.675 237.885 117.675Z" fill="#B7FBFE"/>
<path d="M240.743 91.1912C246.459 96.0065 253.177 120.133 253.177 120.133C253.177 120.133 256.236 136.234 239.139 100.471C234.927 91.5925 239.339 90.0376 240.743 91.1912Z" fill="#E9D6B8"/>
<path d="M255.784 142.354L257.389 139.545L258.041 137.037L257.439 132.773C257.439 132.773 256.286 128.359 255.233 126.855C254.18 125.35 252.926 118.729 252.475 117.976C252.074 117.224 247.562 115.468 247.562 115.468C247.562 115.468 250.971 123.544 252.074 126.202C253.177 128.861 253.428 133.225 253.829 134.278C254.531 136.134 255.534 137.438 255.534 137.438C255.534 137.438 254.982 134.479 254.782 133.676C254.531 132.924 255.534 133.074 255.534 133.074C255.534 133.074 256.687 137.087 256.536 138.241C256.386 139.394 255.885 140.398 255.885 140.398L255.784 142.354Z" fill="#E9D6B8"/>
<path d="M232.671 76.2438L240.292 110.603L240.542 112.609L250.419 110.804C243.4 91.0408 241.896 87.1283 241.294 83.3664C241.094 82.0121 239.439 70.8767 239.339 68.8202C239.239 66.7637 238.687 61.2963 232.169 58.4372C226.052 55.7286 232.671 76.2438 232.671 76.2438Z" fill="#E9F6FF"/>
<path d="M225.852 68.2685C218.154 68.2685 211.913 62.1602 211.913 54.6252C211.913 47.0901 218.154 40.9818 225.852 40.9818C233.55 40.9818 239.79 47.0901 239.79 54.6252C239.79 62.1602 233.55 68.2685 225.852 68.2685Z" fill="#163F59"/>
<path d="M223.044 238.559L222.894 255.262C222.894 255.262 228.86 262.536 231.016 263.689C233.172 264.843 232.922 263.84 232.771 263.238C232.621 262.636 229.011 258.423 228.409 256.115C227.808 253.808 229.111 239.563 229.011 238.81C228.86 238.158 223.044 238.559 223.044 238.559Z" fill="#E9D6B8"/>
<path d="M207.351 240.315C207.351 240.315 205.195 249.745 205.045 252.955C204.894 256.165 205.496 257.168 204.593 258.172C203.741 259.175 197.624 267.2 196.17 267.2C194.716 267.2 194.716 265.746 194.716 265.746C194.716 265.746 199.53 259.626 200.232 257.319C200.933 255.012 201.084 242.071 201.084 240.766C201.134 239.462 207.351 240.315 207.351 240.315Z" fill="#E9D6B8"/>
<path d="M205.245 93.0471C205.245 93.0471 207.602 93.3481 206.348 105.888C205.095 118.428 200.482 136.585 200.482 136.585L200.883 107.393C200.883 107.443 201.485 96.2573 205.245 93.0471Z" fill="#E9D6B8"/>
<path d="M224.899 122.892L223.947 182.933L221.991 240.516L230.515 240.917C230.515 240.917 236.531 182.782 237.283 177.716C238.035 172.7 246.759 132.171 241.745 122.089C236.732 112.007 224.899 122.892 224.899 122.892Z" fill="#194866"/>
<path d="M241.745 122.089C241.896 122.39 242.046 122.741 242.146 123.093C236.681 131.57 231.517 138.742 230.364 140.598C229.712 141.652 227.456 145.464 224.398 150.63L224.849 122.842C224.899 122.892 236.732 112.007 241.745 122.089Z" fill="#163F59"/>
<path d="M205.145 121.538C205.145 121.538 202.638 147.119 202.638 164.574C202.638 182.03 200.883 232.992 200.883 232.992V241.92L207.451 241.72L217.73 176.563L226.253 121.538H205.145Z" fill="#194866"/>
<path d="M202.036 53.9731C202.036 61.497 208.304 67.6164 215.975 67.6164C223.696 67.6164 229.913 61.497 229.913 53.9731C229.913 46.4492 223.646 40.3297 215.975 40.3297C208.304 40.3297 202.036 46.4492 202.036 53.9731Z" fill="#163F59"/>
<path d="M211.713 39.7779C211.713 47.0008 217.178 52.8193 223.897 52.8193C230.615 52.8193 236.08 47.0008 236.08 39.7779C236.08 32.5549 230.615 26.7365 223.897 26.7365C217.178 26.7365 211.713 32.5549 211.713 39.7779Z" fill="#163F59"/>
<path d="M226.053 43.59C226.053 43.59 224.899 50.5622 225.852 52.5184C226.805 54.4746 233.423 58.9388 234.376 60.2931C235.378 61.6474 232.47 72.0805 222.944 70.5256C213.468 68.9707 204.945 62.9515 204.945 61.3966C204.945 59.8417 205.145 58.2867 208.254 57.1331C211.362 55.9794 216.376 55.1768 217.73 53.6219C219.083 52.067 220.838 48.2047 219.836 44.1418C218.883 40.129 226.053 43.59 226.053 43.59Z" fill="#E9D6B8"/>
<path d="M209.707 76.0431L206.348 111.054V113.111L196.321 112.509C196.321 112.509 199.229 85.4731 199.68 84.1689C200.131 82.8648 201.134 71.5288 200.983 69.4722C200.833 67.4157 201.284 57.2835 207.952 58.2867C214.621 59.34 209.707 76.0431 209.707 76.0431Z" fill="#E9F6FF"/>
<path d="M220.888 29.6959C221.089 29.6457 221.289 29.5956 221.49 29.5454C221.891 31.9531 223.796 34.762 226.754 37.0192C227.456 37.5709 228.208 38.0223 228.96 38.4236V40.6808C228.96 43.9913 226.153 46.6999 222.643 46.6999C219.184 46.6999 216.326 43.9913 216.326 40.6808V35.6147C218.081 34.461 219.735 32.3543 220.888 29.6959Z" fill="#E9D6B8"/>
<path d="M207.802 123.594H239.038L234.526 97.1101L235.528 66.0614C235.528 66.0614 229.712 68.3186 224.649 68.6195C221.289 68.8202 214.17 66.0614 214.17 66.0614L207.802 123.594Z" fill="#82D8DC"/>
<path d="M200.232 137.037C200.232 137.037 200.984 141.702 201.485 142.504C201.836 143.106 203.892 145.564 203.892 145.564C203.892 145.564 203.741 143.859 202.989 142.805C202.187 141.752 200.232 137.037 200.232 137.037Z" fill="#E9D6B8"/>
<path d="M237.183 62.3998C237.183 62.3998 236.23 81.6108 236.782 88.583C237.384 95.5551 240.994 108.245 242.698 122.19C243.801 131.319 243.751 146.968 243.751 146.968C243.751 146.968 241.244 148.523 239.891 148.724C238.537 148.925 235.93 147.621 235.027 142.906C233.924 137.087 231.066 95.8561 230.364 92.2446C229.412 87.1283 230.114 72.231 230.013 70.1745C229.963 68.6697 228.96 62.5503 229.362 60.9953C229.763 59.4404 229.412 56.0295 229.412 56.0295C229.412 56.0295 235.629 58.7381 237.183 62.3998Z" fill="#B7FBFE"/>
<path d="M215.524 54.7756C215.524 54.7756 216.526 57.0328 217.679 57.5846C218.833 58.1865 218.281 64.5567 217.679 65.4596C217.078 66.3123 216.075 85.9747 215.925 90.5894C215.774 95.2542 213.368 137.187 212.666 140.548C211.964 143.909 212.365 147.821 208.905 149.125C205.396 150.43 201.084 150.43 201.084 150.43C201.084 150.43 204.644 115.318 205.496 111.355C206.348 107.443 209.106 97.9628 209.407 92.044C209.708 86.0751 208.805 77.0965 208.554 72.2812C208.254 67.4659 205.646 59.7916 205.346 58.8887C205.045 58.036 214.32 55.2271 215.524 54.7756Z" fill="#B7FBFE"/>
<path d="M222.743 254.41C222.743 254.41 222.142 255.413 222.342 256.516C222.493 257.369 223.195 259.927 223.195 259.927L224.799 260.63V259.476C224.799 259.476 227.707 262.987 229.161 263.99C230.615 264.993 233.673 267.552 235.428 266.899C235.879 266.749 236.03 266.197 236.03 266.197C236.03 266.197 233.272 263.138 232.821 262.686C232.37 262.235 231.367 263.138 230.214 262.385C229.061 261.683 225.752 258.473 224.849 257.419C223.646 256.115 222.743 254.41 222.743 254.41Z" fill="#161711"/>
<path d="M205.095 256.015C205.095 256.015 205.395 257.119 205.245 258.172C205.145 259.025 204.443 260.429 204.443 260.429L202.989 261.232C202.989 261.232 200.281 264.642 198.928 265.646C197.574 266.649 194.766 269.207 193.112 268.555C192.66 268.404 192.56 267.853 192.56 267.853C192.56 267.853 195.117 264.793 195.518 264.341C195.919 263.89 196.872 264.793 197.925 264.04C199.028 263.338 202.086 260.128 202.939 259.075C204.042 257.771 205.095 256.015 205.095 256.015Z" fill="#161711"/>
<path d="M202.688 126.804C201.987 132.773 204.443 135.633 204.995 138.09C205.546 140.548 206.599 143.056 206.549 143.056C204.393 141.501 204.544 139.545 203.892 138.492C203.24 137.438 203.591 137.739 203.19 139.846C202.989 141.05 204.644 143.357 205.546 145.012C206.298 146.417 206.298 147.27 206.298 147.27C206.298 147.27 204.493 145.514 203.19 143.357C201.585 140.799 200.282 137.689 200.131 136.937C199.831 135.633 200.131 131.62 200.833 128.811C201.636 125.651 203.19 122.541 202.688 126.804Z" fill="#E9D6B8"/>
<path d="M227.707 54.4746C227.707 54.4746 227.557 56.6315 228.359 63.6538C229.011 69.2215 229.863 69.1713 229.713 78.7016C229.562 88.2319 231.718 100.621 231.718 100.621C231.718 100.621 232.27 79.0025 232.871 73.0336C233.222 69.6729 233.222 65.6601 233.222 65.6601L229.863 62.8011L233.022 63.8043C233.022 63.8043 232.37 61.7979 232.019 59.7915C231.668 57.7851 230.866 55.9292 230.866 55.9292L227.707 54.4746Z" fill="#E9F6FF"/>
<path d="M217.379 53.6721L214.471 55.1267L214.321 61.497L216.326 61.6475L213.97 63.1522L215.323 100.27C215.323 100.27 215.825 98.9159 215.975 89.0846C216.125 79.2032 217.329 67.6666 218.332 61.9986L217.379 53.6721Z" fill="#E9F6FF"/>
<path d="M3.19051 36.7684L6.34918 10.4347C6.34918 10.4347 12.9172 29.2444 10.2098 37.2699C7.50235 45.2954 3.19051 36.7684 3.19051 36.7684Z" fill="#E9D6B8"/>
<path d="M7.00082 16.1027C7.00082 16.1027 10.8113 13.6449 10.9116 12.3909C11.062 11.0868 11.2124 6.37179 11.2124 6.37179L11.1121 5.16797C11.1121 5.16797 9.7584 4.51589 9.65813 7.67593C9.60799 10.836 8.75564 9.28103 8.75564 9.28103L7.70276 6.37179L6.14849 2.91079L5.64711 1.3057C5.64711 1.3057 5.44656 0.352667 5.19587 0.202189C4.49394 -0.349564 4.34352 0.402827 4.34352 0.402827L5.69725 6.87338L2.83939 1.20538C2.83939 1.20538 2.33802 0.553305 1.93692 0.653623C1.53581 0.753942 1.63609 1.00474 1.63609 1.00474L3.39091 8.12737L1.58595 5.3686C1.58595 5.3686 1.08457 4.71653 0.683472 4.81685C0.232232 4.91717 0.131938 4.91717 0.131938 4.91717L5.64711 16.4538L7.00082 16.1027Z" fill="#E9D6B8"/>
<path d="M4.64453 6.97372L2.38834 3.11144C2.38834 3.11144 1.98724 2.20858 1.536 1.85746C1.03463 1.50634 0.683673 1.95778 0.683673 1.95778L3.5415 8.12738L4.64453 6.97372Z" fill="#E9D6B8"/>
<path d="M5.17525 22.8984L11.1226 23.3723L10.6011 29.9222L4.6538 29.4483L5.17525 22.8984Z" fill="#E7F5FE"/>
<path d="M36.0806 58.4874L12.5158 43.4898L11.3125 25.6832C11.3125 25.6832 3.84198 23.7771 2.98964 25.4825C-2.82635 37.571 1.63593 57.3337 1.63593 57.3337L34.1754 77.1969C34.1754 77.1969 42.8492 79.9055 52.5258 73.8362C59.5952 69.4723 37.9858 59.7915 36.0806 58.4874Z" fill="#DBE7F3"/>
<path d="M21.8916 245.532L21.4404 250.798L20.4877 255.162L18.7329 256.316L17.3792 256.717L16.9781 257.47L12.3654 260.529C11.112 261.081 9.35715 261.332 7.25136 260.83C6.54943 260.68 7.55219 258.673 7.80288 258.372C9.25687 256.667 11.4629 254.811 11.4629 254.811L15.0729 250.397L19.134 244.88L21.8916 245.532Z" fill="#161711"/>
<path d="M62.9543 239.763L61.8012 241.87L61.1995 244.227L61.2998 248.04L63.3554 248.341L64.9097 248.04L65.9125 248.742C65.9125 248.742 71.7285 249.895 73.8844 249.996C77.4943 250.096 79.4998 249.745 80.2017 249.043C80.6028 248.642 78.8982 247.889 78.3466 247.789C75.1378 247.287 71.7786 245.231 71.7786 245.231L69.1213 242.221L68.6199 240.114L62.9543 239.763Z" fill="#161711"/>
<path d="M46.7601 124.898L13.5188 250.197L21.9419 250.698L38.0863 210.872L41.997 198.833L61.1998 151.684L64.8599 125.751L46.7601 124.898Z" fill="#163F59"/>
<path d="M61.3502 240.165L63.7568 192.012L61.651 169.941L59.094 139.645L62.9546 119.381L76.1409 121.488L77.645 154.141L76.8428 185.14L76.191 196.777L71.1772 242.773L61.3502 240.165Z" fill="#163F59"/>
<path d="M97.5996 72.4317C97.5996 72.4317 105.221 70.5256 114.045 58.7382C117.003 54.7756 115.699 58.989 115.399 63.8043C115.148 68.6196 106.875 76.7454 97.2988 79.9054C87.6723 83.0655 97.5996 72.4317 97.5996 72.4317Z" fill="#E9D6B8"/>
<path d="M111.436 60.4756L116.919 64.0935L113.993 68.532L108.51 64.9141L111.436 60.4756Z" fill="#E7F5FE"/>
<path d="M113.443 61.7479C113.443 61.7479 111.638 56.7319 112.34 55.3776C113.042 54.0735 115.95 49.4087 115.95 49.4087L116.802 48.3051C116.802 48.3051 118.457 48.6563 116.501 51.716C114.496 54.8259 116.251 53.8728 116.251 53.8728L119.058 51.8163L122.668 49.6093L124.172 48.4055C124.172 48.4055 124.975 47.6531 125.275 47.6531C126.228 47.6531 125.877 48.4556 125.877 48.4556L120.462 53.7224L126.679 50.3617C126.679 50.3617 127.532 50.0607 127.832 50.462C128.133 50.8633 127.883 51.0138 127.883 51.0138L121.716 56.6316L125.125 55.2773C125.125 55.2773 125.977 55.0265 126.278 55.3776C126.629 55.7789 126.729 55.8792 126.729 55.8792L114.345 63.052L113.443 61.7479Z" fill="#E9D6B8"/>
<path d="M121.465 54.6252L125.978 52.5185C125.978 52.5185 126.93 51.9166 127.532 51.9667C128.234 52.0169 128.234 52.6689 128.234 52.6689L121.766 56.5814L121.465 54.6252Z" fill="#E9D6B8"/>
<path d="M58.7429 65.1084C58.7429 65.1084 58.1412 69.1713 73.6338 84.6204C82.3076 93.2478 87.522 98.8155 92.636 97.1101C101.41 94.2008 117.504 70.1243 117.504 70.1243L109.332 61.3966C109.332 61.3966 96.2961 76.8457 90.43 76.7454C89.0762 76.6952 80.1517 69.6228 71.6784 59.1395C68.0685 54.6753 59.6955 63.9547 58.7429 65.1084Z" fill="#D1DBEA"/>
<path d="M78.2969 155.847L74.1354 163.872L72.4809 143.006L67.066 162.067L35.8302 157.853C35.8302 157.853 41.947 127.005 44.9552 114.415L34.9277 82.7646C34.9277 82.7646 26.4043 60.4436 40.3426 59.3903C54.2809 58.337 70.325 57.4341 70.325 57.4341C70.325 57.4341 86.8203 115.017 78.2969 155.847Z" fill="#DBE7F3"/>
<path d="M57.4896 63.403C57.4896 63.403 67.3166 85.774 61.2499 108.597C60.7485 110.402 58.4422 111.456 58.4422 111.456L55.7348 108.496C55.7348 108.546 58.8934 82.2629 57.4896 63.403Z" fill="#00939B"/>
<path d="M56.9883 62.8512L56.2362 67.5662L47.8131 60.4436L47.7629 59.2899L56.9883 62.8512Z" fill="#D1DBEA"/>
<path d="M58.4921 58.3369L61.1494 66.9643L58.0409 63.5033L58.4921 58.3369Z" fill="#D1DBEA"/>
<path d="M46.459 53.6721C46.8601 55.0766 47.5119 57.3337 48.1637 58.5877C49.1664 60.5941 57.2386 62.751 58.4419 63.0017C59.6954 63.2024 57.7901 56.8823 57.74 55.4277C57.6899 54.3242 56.9879 54.7255 57.74 53.0702L46.459 53.6721Z" fill="#E9D6B8"/>
<path d="M59.7459 49.7095C59.9966 50.9635 59.2445 52.1673 57.9911 52.4181L47.9134 54.6251C46.6599 54.8759 45.4566 54.1235 45.206 52.8695L41.947 37.922C41.6963 36.6681 42.4484 35.4642 43.7018 35.2134L53.7795 33.0064C55.033 32.7556 56.2363 33.508 56.487 34.762L59.7459 49.7095Z" fill="#E9D6B8"/>
<path d="M57.1887 37.8217C57.1887 37.8217 58.2416 36.0661 58.2917 35.1632C58.3419 34.7118 57.5397 33.1067 56.2361 32.6552C54.9826 32.254 54.2807 33.6584 54.2807 33.6584C54.2807 33.6584 56.2862 34.2603 56.4366 34.6115C56.6372 35.0127 57.1887 37.8217 57.1887 37.8217Z" fill="#163F59"/>
<path d="M42.3981 44.8942C42.3981 44.8942 39.6405 39.477 39.5402 37.7716C39.44 36.016 39.3898 34.8122 41.3953 34.2103C44.4036 33.2572 44.6041 33.9093 45.8576 32.6553C47.1612 31.4013 49.3672 28.5422 50.2196 28.141C51.6736 27.4387 54.1805 27.4387 54.9325 30.2978C55.484 32.4045 56.938 32.6553 56.8879 32.7556C56.8378 33.0566 56.3364 33.4077 55.4339 34.1099C52.927 36.1163 51.3226 36.7684 49.0664 36.6681C46.8102 36.5677 42.5485 36.2166 42.3981 37.922C42.2978 39.6275 43.5011 44.4428 43.4008 44.844C43.3507 45.145 42.7992 45.0948 42.3981 44.8942Z" fill="#194866"/>
<path d="M46.5093 48.6562C46.6096 49.0574 46.3589 49.4587 45.9076 49.559L43.7517 50.0105C43.3506 50.1108 42.9495 49.86 42.8492 49.4086L41.9969 45.446C41.8966 45.0447 42.1473 44.6434 42.5985 44.5431L44.7545 44.0917C45.1556 43.9913 45.5567 44.2421 45.657 44.6936L46.5093 48.6562Z" fill="#E9D6B8"/>
<path d="M59.4951 45.8472C59.5954 46.2485 59.3447 46.6498 58.8935 46.7501L56.7376 47.2016C56.3365 47.3019 55.9354 47.0511 55.8351 46.5996L54.9827 42.637C54.8825 42.2358 55.1332 41.8345 55.5844 41.7342L57.7403 41.2326C58.1414 41.1323 58.5425 41.4332 58.6428 41.8345L59.4951 45.8472Z" fill="#E9D6B8"/>
<path d="M43.6013 45.9977C43.6013 45.9977 44.8548 51.8663 45.306 53.8226C45.7071 55.5781 47.2614 59.3401 57.2388 57.1331C63.1551 55.8289 62.0019 51.5654 61.7011 50.1108C61.4504 49.0073 59.5452 46.0479 58.743 45.5463L59.2945 47.9539C59.2945 47.9539 57.5396 45.8472 54.7319 46.4491C50.1694 47.4523 49.7182 50.3114 47.7126 50.7127C46.2085 51.0638 44.5038 48.8066 43.6013 45.9977Z" fill="#194866"/>
<path d="M53.7293 50.7629L56.8378 50.1108C57.2389 50.0105 57.4896 49.6092 57.4394 49.2079L57.3392 48.7565L52.7265 49.7597L52.8268 50.2111C52.8769 50.5622 53.3282 50.8632 53.7293 50.7629Z" fill="#E9D6B8"/>
<path d="M58.2413 57.7852L60.6479 64.4564L63.7064 89.8872L68.0684 69.8736L64.4584 66.4126L66.4138 63.2024L62.102 57.9356L58.2413 57.7852Z" fill="#E7F5FE"/>
<path d="M72.3804 127.858L68.3192 140.147L44.1026 145.865C44.1026 145.865 41.9467 126.955 44.9049 114.315L34.8773 82.6642C34.8773 82.6642 26.3539 60.3433 40.2922 59.2899C42.2476 59.1395 44.2531 58.989 46.2586 58.8385C49.0663 58.6379 54.3308 66.7135 55.5842 69.071C56.9379 71.579 65.7622 94.1507 65.7622 94.1507L72.3804 127.858Z" fill="url(#paint0_linear)"/>
<path d="M47.1611 58.3369L41.8465 58.6379L46.2586 66.3123L51.5733 69.4723L51.5231 75.4413L65.311 95.1037L56.3364 69.2215L47.1611 58.3369Z" fill="#D1DBEA"/>
<path d="M47.1613 58.3369L41.8467 58.6379L46.2588 65.9611L51.5735 68.9707L51.5233 74.6889L65.2109 93.4986L56.2864 68.7199L47.1613 58.3369Z" fill="#E7F5FE"/>
<path d="M58.442 63.0017L56.988 62.8512L57.1384 66.3623L58.1913 67.2652L59.5952 66.7135L58.442 63.0017Z" fill="#00939B"/>
<path d="M63.957 130.015L51.4727 130.466L49.1664 144.511H57.4892C57.4892 144.511 61.9014 144.511 62.6033 140.799C63.3052 137.037 63.957 130.015 63.957 130.015Z" fill="#E7F5FE"/>
<path d="M80.603 141.501L77.5445 141.852L76.7423 130.566L81.0542 130.115C81.0542 133.827 80.9038 137.639 80.603 141.501Z" fill="#E7F5FE"/>
<path d="M67.8179 99.267C67.8179 99.267 72.8818 111.857 72.8818 131.519C72.8818 131.519 69.5226 118.127 68.3193 114.214C64.3083 101.273 60.4978 98.9159 55.4339 93.5488C49.0163 86.7271 62.754 87.5297 67.8179 99.267Z" fill="#D1DBEA"/>
<path d="M164.584 118.729C164.584 118.729 162.227 119.03 163.531 131.77C164.834 144.461 169.647 162.819 169.647 162.819L169.096 133.225C169.096 133.225 168.394 121.939 164.584 118.729Z" fill="#E9D6B8"/>
<path d="M167.792 152.937C168.243 159.007 165.686 161.765 165.034 164.223C164.383 166.681 163.23 169.189 163.28 169.189C165.536 167.684 165.436 165.728 166.137 164.675C166.839 163.621 166.438 163.922 166.789 166.079C166.99 167.283 165.185 169.59 164.182 171.246C163.33 172.65 163.33 173.503 163.33 173.503C163.33 173.503 165.185 171.797 166.639 169.691C168.394 167.132 169.798 164.073 169.998 163.32C170.349 162.016 170.199 157.953 169.597 155.094C168.895 151.784 167.441 148.523 167.792 152.937Z" fill="#E9D6B8"/>
<path d="M163.53 271.063L164.283 287.716L174.711 288.568L179.374 287.966L170.149 285.057L169.096 271.213L163.53 271.063Z" fill="#E9D6B8"/>
<path d="M165.085 289.873L167.341 290.173L167.742 289.521L176.416 289.622L180.628 288.518C180.628 288.518 180.778 287.766 180.427 287.565C179.224 286.913 174.761 286.512 174.761 286.512C174.761 286.512 175.363 287.365 174.862 287.716C174.411 288.067 168.645 287.866 167.191 287.665C164.734 287.264 163.932 286.512 163.882 286.712C163.681 287.264 165.085 289.873 165.085 289.873Z" fill="#1D7074"/>
<path d="M163.33 149.677L168.144 213.329L172.405 275.126L162.979 275.878C162.979 275.878 154.155 213.63 153.102 208.263C152.049 202.896 140.869 159.709 146.083 148.674C151.297 137.589 163.33 149.677 163.33 149.677Z" fill="#194866"/>
<path d="M129.788 115.368C124.523 121.738 121.866 147.871 121.866 147.871C121.866 147.871 123.621 157.903 133.297 124.296C136.205 114.214 131.091 113.813 129.788 115.368Z" fill="#E9D6B8"/>
<path d="M124.072 170.493L121.866 168.086L120.663 165.678L120.312 161.364C120.312 161.364 120.512 156.75 121.214 155.044C121.916 153.339 121.766 146.467 122.017 145.664C122.267 144.812 126.579 143.808 126.579 143.808C126.579 143.808 124.674 150.881 124.172 153.79C123.671 156.649 124.373 161.013 124.172 162.167C123.922 164.123 123.17 165.628 123.17 165.628C123.17 165.628 123.069 162.568 123.12 161.766C123.17 160.963 122.267 161.314 122.267 161.314C122.267 161.314 121.966 165.527 122.368 166.681C122.769 167.785 123.521 168.688 123.521 168.688L124.072 170.493Z" fill="#E9D6B8"/>
<path d="M157.915 100.722L161.324 136.184V138.241L171.452 137.639C171.452 137.639 168.494 110.252 168.093 108.948C167.642 107.644 166.639 96.157 166.789 94.1005C166.94 92.044 166.489 81.7111 159.72 82.7645C152.901 83.7677 157.915 100.722 157.915 100.722Z" fill="#B7FBFE"/>
<path d="M135.955 100.721L132.596 136.184V138.241L122.418 137.639C126.98 116.873 128.033 112.76 128.184 108.948C128.234 107.543 128.485 96.157 128.334 94.1005C128.184 92.0439 128.033 86.4261 134.2 82.7644C140.066 79.2533 135.955 100.721 135.955 100.721Z" fill="#B7FBFE"/>
<path d="M146.885 269.157L146.734 290.525L137.91 287.415C137.91 287.415 134.2 284.706 137.409 285.057C142.122 285.559 141.169 283.603 141.319 279.74C141.47 275.928 140.718 268.555 140.718 268.555L146.885 269.157Z" fill="#E9D6B8"/>
<path d="M136.757 285.057C136.757 285.057 137.76 286.01 138.813 286.662C139.866 287.314 142.824 288.769 143.977 289.02C145.431 289.321 146.835 289.17 146.835 289.17C146.835 289.17 147.487 291.377 146.033 291.227C144.579 291.076 137.208 287.816 136.155 287.114C135.153 286.412 135.002 285.208 136.757 285.057Z" fill="#1D7074"/>
<path d="M144.93 151.533L146.033 209.266L147.085 270.461L139.615 270.059C139.615 270.059 132.094 208.464 131.442 202.996C130.791 197.529 121.816 161.314 127.833 150.73C133.899 140.197 144.93 151.533 144.93 151.533Z" fill="#194866"/>
<path d="M146.384 80.0057C146.384 80.0057 157.965 80.8083 160.723 81.9619C163.481 83.1658 162.879 96.7088 161.124 106.691C159.369 116.722 161.074 127.607 162.678 134.178C166.689 150.379 168.093 181.829 168.093 181.829C168.093 181.829 126.73 189.855 126.028 186.996C118.858 156.85 135.805 126.905 135.805 117.324C135.805 107.694 133.247 85.7239 133.448 83.567C133.649 81.36 143.877 80.0057 146.384 80.0057Z" fill="#E9F6FF"/>
<path d="M163.831 76.0932L163.882 76.0431C161.375 72.9834 159.921 69.5725 159.921 64.5566C159.921 62.4499 160.121 61.6473 160.171 58.4873C160.171 58.1863 160.221 57.8854 160.221 57.5844V53.7723C160.221 48.1545 155.659 43.59 150.044 43.59H147.486C141.871 43.59 137.309 48.1545 137.309 53.7723V61.2962C137.309 61.2962 137.309 61.2962 137.258 61.2962C137.258 61.547 137.309 61.7477 137.309 61.9985V62.3997C137.208 68.4189 134.25 73.6856 129.637 77.0463C126.429 78.6012 124.172 81.9117 124.172 85.7238C124.172 90.5391 127.732 94.5519 132.395 95.2541C134.3 100.671 139.565 104.584 145.732 104.584C151.096 104.584 155.709 101.675 158.116 97.3608C163.23 95.3043 166.79 90.3385 166.79 84.5702C166.79 81.4101 165.687 78.4507 163.831 76.0932Z" fill="#163F59"/>
<defs>
<linearGradient id="paint0_linear" x1="65.6764" y1="95.524" x2="50.9555" y2="100.727" gradientUnits="userSpaceOnUse">
<stop stop-color="#D1DBEA"/>
<stop offset="1" stop-color="#DBE7F3"/>
</linearGradient>
</defs>
</svg>
