<svg width="354" height="264" viewBox="0 0 354 264" fill="none" xmlns="http://www.w3.org/2000/svg">
<path d="M13.2061 184.683C11.2193 184.683 8.06381 184.216 5.25892 181.763C1.28533 178.259 -0.46772 172.067 0.116631 163.423C0.467242 157.582 2.80465 151.625 5.25892 145.317C9.34938 134.687 14.0242 122.655 11.5699 106.768L16.1279 106.067C18.8159 123.122 13.6736 136.322 9.46625 146.952C7.01198 153.143 4.90831 158.517 4.5577 163.774C4.09022 170.782 5.25892 175.922 8.06381 178.375C10.7518 180.712 14.0242 180.128 14.1411 180.128L15.076 184.683C15.1929 184.45 14.3748 184.683 13.2061 184.683Z" fill="#00939B"/>
<path d="M48.5011 221.129L52.9422 227.905L15.3099 239.936C15.3099 239.936 12.8556 237.483 21.9715 232.694C32.8405 227.087 48.5011 221.129 48.5011 221.129Z" fill="#88BDDA"/>
<path d="M55.1627 221.129L50.7217 227.905L88.3539 239.936C88.3539 239.936 90.8082 237.483 81.6923 232.694C70.8234 227.087 55.1627 221.129 55.1627 221.129Z" fill="#88BDDA"/>
<path d="M55.7468 200.804H47.9165V228.722H55.7468V200.804Z" fill="#88BDDA"/>
<path d="M47.9165 222.531L51.7733 229.073L19.6339 240.52C19.6339 240.52 17.5303 238.184 25.3606 233.628C34.5933 228.255 47.9165 222.531 47.9165 222.531Z" fill="#ACD5F4"/>
<path d="M55.6302 222.531L51.7734 229.073L83.9128 240.52C83.9128 240.52 86.0164 238.184 78.1861 233.628C69.0702 228.255 55.6302 222.531 55.6302 222.531Z" fill="#ACD5F4"/>
<path d="M23.2569 243.09C23.2569 244.609 22.0882 245.777 20.5689 245.777C19.0496 245.777 17.8809 244.609 17.8809 243.09C17.8809 241.572 19.0496 240.404 20.5689 240.404C21.9713 240.404 23.2569 241.572 23.2569 243.09Z" fill="#001F46"/>
<path d="M85.5489 243.09C85.5489 244.609 84.3802 245.777 82.8609 245.777C81.3416 245.777 80.1729 244.609 80.1729 243.09C80.1729 241.572 81.3416 240.404 82.8609 240.404C84.3802 240.404 85.5489 241.572 85.5489 243.09Z" fill="#001F46"/>
<path d="M16.5953 243.09C16.5953 244.609 15.4266 245.777 13.9073 245.777C12.3879 245.777 11.2192 244.609 11.2192 243.09C11.2192 241.572 12.3879 240.404 13.9073 240.404C15.4266 240.404 16.5953 241.572 16.5953 243.09Z" fill="#367082"/>
<path d="M92.2105 243.09C92.2105 244.609 91.0418 245.777 89.5225 245.777C88.0032 245.777 86.8345 244.609 86.8345 243.09C86.8345 241.572 88.0032 240.404 89.5225 240.404C90.9249 240.404 92.2105 241.572 92.2105 243.09Z" fill="#367082"/>
<path d="M54.5782 190.524H48.8516V200.57H54.5782V190.524Z" fill="#00939B"/>
<path d="M58.9024 185.267C58.9024 188.305 56.4481 190.874 53.2926 190.874H50.1371C47.0985 190.874 44.5273 188.421 44.5273 185.267C44.5273 182.23 46.9816 179.66 50.1371 179.66H53.2926C56.3312 179.66 58.9024 182.113 58.9024 185.267Z" fill="#00939B"/>
<path d="M94.431 180.128C94.5479 179.427 94.6648 175.338 94.6648 174.637C94.6648 170.082 91.743 166.46 88.12 166.46H15.3099C11.6869 166.46 8.76514 170.082 8.76514 174.637C8.76514 175.338 8.88201 179.427 8.99888 180.128H94.431Z" fill="#3FE0E6"/>
<path d="M8.06396 182.347C8.06396 183.749 8.88206 184.8 9.81702 184.8H93.4961C94.548 184.8 95.2492 183.632 95.2492 182.347C95.2492 180.945 94.4311 179.894 93.4961 179.894H9.93389C8.88206 179.777 8.06396 180.945 8.06396 182.347Z" fill="#00939B"/>
<path d="M12.1542 138.074C13.9072 138.191 25.3605 138.425 27.3473 138.425C39.8524 138.542 50.6045 136.205 51.1888 133.168C53.6431 120.436 53.76 107.236 51.5394 94.5028C50.9551 91.4656 40.0861 89.1293 27.3473 89.2461C25.3605 89.2461 13.6735 89.4798 11.9204 89.5966C15.7771 105.6 15.894 122.188 12.1542 138.074Z" fill="#3FE0E6"/>
<path d="M10.4013 89.5966C8.99883 89.5966 8.06387 90.2974 8.18074 91.1151C11.6868 106.067 11.8037 121.604 8.53135 136.673C8.29761 137.49 9.34944 138.191 10.635 138.191C12.0375 138.191 13.323 137.607 13.4399 136.789C16.7123 121.72 16.5954 106.184 13.0893 91.1151C13.0893 90.2974 11.8037 89.5966 10.4013 89.5966Z" fill="#00939B"/>
<path d="M9.93362 138.074C10.2842 138.191 12.7385 138.308 13.206 138.308C15.894 138.308 18.6989 135.972 19.2832 132.935C21.5038 120.319 21.5038 107.469 19.1664 94.8532C18.582 91.816 15.7771 89.4797 12.9722 89.4797C12.5048 89.4797 10.0505 89.5966 9.58301 89.7134C13.4397 105.6 13.5566 122.188 9.93362 138.074Z" fill="#00939B"/>
<path d="M85.6655 101.745C85.6655 101.745 85.7824 104.899 101.209 104.899C116.636 104.899 139.309 101.161 139.309 101.161L103.664 97.7735C103.664 97.7735 89.9897 97.0726 85.6655 101.745Z" fill="#E2C59C"/>
<path d="M127.038 102.212C134.4 102.446 137.439 106.184 140.244 107.469C143.166 108.754 145.971 110.506 145.971 110.506C144.451 107.352 142.114 107.119 140.945 106.067C139.776 105.016 140.127 105.483 142.698 105.366C144.218 105.25 146.672 108.053 148.542 109.455C150.178 110.74 151.113 110.857 151.113 110.857C151.113 110.857 149.243 108.17 146.906 105.95C144.101 103.264 140.478 101.044 139.66 100.694C138.14 99.9929 133.232 99.7593 129.726 100.11C125.869 100.577 121.778 102.096 127.038 102.212Z" fill="#E2C59C"/>
<path d="M139.426 100.927C139.426 100.927 145.036 102.563 145.971 103.264C146.672 103.848 149.36 106.885 149.36 106.885C149.36 106.885 147.256 106.535 146.087 105.25C144.919 104.198 139.426 100.927 139.426 100.927Z" fill="#E2C59C"/>
<path d="M92.561 95.2036C92.561 95.2036 78.3028 95.5541 79.004 104.081C79.3547 108.871 82.627 110.623 86.8344 110.506C94.7815 110.156 103.897 109.338 103.897 109.338L108.338 96.3718L92.561 95.2036Z" fill="#D9E6F9"/>
<path d="M89.6393 96.255L77.1342 52.4497C77.1342 52.4497 75.2643 46.0249 71.875 47.0762C66.9665 48.5948 69.187 53.8514 69.5376 57.0054C70.2388 63.3134 69.5376 66.0001 73.5112 81.3028C75.9655 90.7647 77.9523 101.512 80.1728 107.82C81.6921 112.142 84.7307 106.184 89.0549 104.549C97.2359 101.745 89.6393 96.255 89.6393 96.255Z" fill="#D9E6F9"/>
<path d="M65.564 38.3151C63.3435 47.8939 53.7601 53.8514 44.0599 51.632C34.3597 49.4125 28.1656 39.9505 30.2692 30.3718C32.3729 20.793 42.0731 14.8355 51.7733 17.055C61.4736 19.2744 67.6677 28.8532 65.564 38.3151Z" fill="#282723"/>
<path d="M82.1596 28.6196C80.5234 35.9789 73.2775 40.5346 65.9147 38.8992L64.0447 31.8904C56.6819 30.255 52.124 23.0125 53.7601 15.6532L54.9289 10.6302C56.565 3.27092 63.811 -1.28483 71.1738 0.350566L74.4462 1.05145C81.809 2.68685 86.3669 9.92933 84.7308 17.2886L82.1596 28.6196Z" fill="#282723"/>
<path d="M81.2245 7.94348C80.9907 9.11162 80.5233 10.3966 80.0558 11.5647C76.7834 19.7417 70.2387 25.1152 64.3952 24.6479C63.3433 28.5028 61.824 31.7736 60.1878 34.4603C58.4348 37.6143 53.6431 40.301 53.6431 40.301C51.3057 46.0249 74.3291 65.1824 75.2641 64.7152C77.3678 63.6638 73.6279 49.8798 69.8881 45.5576C68.135 43.5718 66.382 41.2355 66.2651 39.8337C66.1482 35.1612 67.6675 34.1099 69.8881 31.8904C73.8617 28.8532 78.4196 29.9045 78.4196 29.9045C78.8871 30.0214 79.3546 29.9045 79.7052 29.6709C80.1727 28.8532 80.5233 27.9187 80.757 26.9842L83.2113 16.0037C83.9125 13.0833 83.0944 10.163 81.2245 7.94348Z" fill="#E9D6B8"/>
<path d="M57.3828 129.781C57.3828 129.781 63.2263 135.154 64.8625 135.621C67.083 136.205 73.2772 133.635 73.2772 133.635C73.2772 133.635 71.5241 106.067 72.2253 95.0868C72.8097 84.1063 75.3808 80.9523 75.1471 77.5647C74.6796 72.1912 79.0038 69.3877 77.7182 65.2992C76.4327 61.2107 73.1603 46.3753 72.9266 48.478C71.0566 66.0001 64.2782 52.4496 62.9926 50.347C62.4082 49.1789 57.3828 129.781 57.3828 129.781Z" fill="#3FE0E6"/>
<path d="M69.7712 43.6886C69.7712 43.6886 77.6015 49.4125 77.4846 51.9824C77.3678 54.6691 81.4582 62.3789 79.822 74.0603C77.9521 87.3771 77.2509 96.3718 77.6015 104.899C77.9521 113.427 81.9257 120.786 82.0426 131.299C82.1594 139.476 80.2895 140.294 80.2895 140.294C80.2895 140.294 76.6665 141.696 73.6279 138.775C70.5893 135.972 71.1736 107.82 71.5242 100.811C71.9917 93.6851 74.2123 77.0975 74.6797 72.1913C75.2641 66.1169 74.3291 60.2762 74.0954 58.524C73.0435 52.5665 71.758 48.8284 70.823 46.609C70.7061 46.2585 68.6025 44.6231 68.4856 44.2727C67.9013 43.2213 69.07 42.9877 69.7712 43.6886Z" fill="white"/>
<path d="M60.4217 62.3788C58.2011 72.308 48.1503 78.4992 37.9826 76.2797C27.8149 74.0603 21.387 64.131 23.6075 54.085C25.8281 44.1558 35.8789 37.8479 46.0466 40.1841C56.2143 42.5204 62.6422 52.4496 60.4217 62.3788Z" fill="#282723"/>
<path d="M99.2224 224.167L95.7163 251.267L110.909 258.276L119.441 260.028L104.365 248.814L109.273 224.4L99.2224 224.167Z" fill="#E9D6B8"/>
<path d="M94.6646 255.356L97.9369 256.174L100.157 254.188L112.312 260.145L123.064 262.598C123.064 262.598 123.181 261.781 122.83 261.313C121.428 259.561 113.948 255.823 113.948 255.823C113.948 255.823 113.831 258.276 112.779 258.393C111.728 258.51 102.378 253.721 100.157 252.436C96.4176 250.216 95.7164 248.698 95.4826 248.931C94.7814 249.282 94.6646 255.356 94.6646 255.356Z" fill="#161711"/>
<path d="M136.037 186.552L148.191 209.682L164.904 208.864L173.201 206.528L154.736 203.49L144.685 183.749L136.037 186.552Z" fill="#E9D6B8"/>
<path d="M149.126 213.77L152.516 212.952L153.567 210.149L168.644 209.915L177.643 207.929C177.643 207.929 176.591 206.761 175.89 206.528C173.903 205.71 166.774 205.359 166.774 205.359C166.774 205.359 167.475 207.345 166.54 207.929C165.605 208.513 155.32 208.864 152.749 208.63C148.425 208.28 147.14 207.345 147.023 207.696C146.555 208.28 149.126 213.77 149.126 213.77Z" fill="#161711"/>
<path d="M47.449 117.632L56.448 121.604L60.4216 133.402L118.623 123.823C118.623 123.823 124.583 121.954 128.323 131.299C133.699 144.616 147.373 185.968 147.373 185.968L138.725 194.963L111.611 148.237C111.611 148.237 55.9805 174.287 37.6319 168.68C30.6197 166.577 25.2437 154.078 26.1786 141.579C26.9967 131.766 28.9835 122.772 28.9835 122.772L47.449 117.632Z" fill="#194866"/>
<path d="M55.2793 168.446L99.8069 165.292L95.9501 233.862L109.04 234.329L118.74 153.961C118.74 153.961 116.169 142.046 107.637 143.798C99.2225 145.551 78.6533 161.32 55.2793 168.446Z" fill="#163F59"/>
<path d="M36.3463 183.048C36.3463 183.048 56.3311 155.129 60.6553 140.177C65.6807 122.305 62.4083 101.161 62.8758 93.9187C63.6939 80.7187 63.4602 55.1364 63.6939 51.9824C63.9276 48.8285 61.4734 45.5577 61.4734 45.5577C61.4734 45.5577 59.0191 37.4975 54.4611 38.0815C50.4876 38.6656 44.4103 44.0391 40.6705 46.609C36.9306 49.0621 37.3981 95.7877 37.1644 98.124C36.4631 106.651 31.0871 114.828 27.581 123.122C19.2832 142.63 19.2832 164.474 19.2832 164.474C19.2832 164.474 22.5556 180.128 36.3463 183.048Z" fill="white"/>
<path d="M49.7861 108.754C49.7861 108.754 50.2536 112.142 68.6022 110.156C86.9509 108.17 113.247 101.044 113.247 101.044L70.7059 102.096C70.589 102.096 54.3441 103.264 49.7861 108.754Z" fill="#E9D6B8"/>
<path d="M98.9886 103.848C107.754 103.147 111.727 106.768 115.35 107.703C118.857 108.637 122.48 110.273 122.48 110.273C120.259 107.002 117.454 107.119 115.935 106.184C114.415 105.25 114.883 105.717 117.922 105.25C119.675 105.016 122.947 107.586 125.401 108.988C127.388 110.156 128.674 110.156 128.674 110.156C128.674 110.156 126.219 107.469 123.181 105.367C119.441 102.913 115 100.928 113.948 100.577C112.078 100.11 106.235 100.344 102.027 101.161C97.3524 102.213 92.6776 104.315 98.9886 103.848Z" fill="#E9D6B8"/>
<path d="M113.364 100.811C113.364 100.811 120.142 101.862 121.428 102.563C122.246 103.03 125.986 106.067 125.986 106.067C125.986 106.067 123.415 105.951 121.895 104.782C120.376 103.614 113.364 100.811 113.364 100.811Z" fill="#E9D6B8"/>
<path d="M63.3431 109.689L40.0859 101.395C40.0859 101.395 41.7221 114.828 42.1896 119.968C42.774 125.108 41.3715 132.701 45.6957 133.168C50.0199 133.752 52.1236 132.935 48.15 135.855C44.0595 138.775 45.462 141.228 47.3319 143.097C49.2018 144.966 43.0077 165.993 43.0077 165.993C43.0077 165.993 43.592 166.343 45.462 167.395C51.1886 158.283 58.3177 148.004 60.5382 140.177C63.46 130.014 63.6937 118.8 63.3431 109.689Z" fill="#D9E6F9"/>
<path d="M57.2661 100.811L55.2794 57.5895C55.2794 57.5895 52.942 48.5948 49.5527 46.4922C45.5791 44.0391 39.9693 48.5948 39.9693 48.5948C39.9693 48.5948 37.1645 55.3701 39.0344 87.1435C40.32 108.404 42.3068 119.501 52.3576 117.866C61.8241 116.464 72.4593 114.361 72.4593 114.361L76.1991 99.8763L57.2661 100.811Z" fill="white"/>
<path d="M93.6128 111.908V110.039H169.578V111.908L169.345 112.258C168.41 113.894 166.657 114.127 164.67 114.127H98.5213C96.5346 114.127 94.7815 113.894 93.8465 112.258L93.6128 111.908Z" fill="#D0DEE6"/>
<path d="M111.962 112.258L111.728 112.609C111.377 113.076 111.027 113.31 110.559 113.543H98.9889C97.0021 113.543 95.366 113.31 94.431 112.025L94.1973 111.791V110.857H111.845V112.258H111.962Z" fill="#B6C2C9"/>
<path d="M160.112 110.506H122.129V111.791H160.112V110.506Z" fill="#B6C2C9"/>
<path d="M112.312 110.039L122.129 72.7753C122.363 71.8408 123.415 71.0231 124.35 71.0231H177.642C178.577 71.0231 179.162 71.8408 178.928 72.7753L169.111 110.039H112.312Z" fill="#D7DFE2"/>
<path d="M142.465 90.4142C141.997 92.2832 143.049 93.9186 145.036 93.9186C146.906 93.9186 148.892 92.4001 149.36 90.4142C149.827 88.5452 148.776 86.9098 146.789 86.9098C144.919 87.0266 142.932 88.5452 142.465 90.4142Z" fill="#B6C2C9"/>
<path d="M344.884 264H354L339.04 118.8H325.834L344.884 264Z" fill="#3FE0E6"/>
<path d="M326.769 125.575L332.496 169.497L339.391 122.071L339.04 118.8H327.47L326.769 125.575Z" fill="#00939B"/>
<path d="M168.293 264H177.409L162.45 118.8H149.243L168.293 264Z" fill="#3FE0E6"/>
<path d="M150.178 125.575L155.905 169.497L162.8 122.071L162.45 118.8H150.879L150.178 125.575Z" fill="#00939B"/>
<path d="M72.9269 264H63.811L78.8873 118.8H91.9768L72.9269 264Z" fill="#3FE0E6"/>
<path d="M91.1586 125.575L73.5112 170.315L78.5366 122.071L78.8873 118.8H90.3405L91.1586 125.575Z" fill="#00939B"/>
<path d="M175.656 114.127H66.1484V122.655H175.656V114.127Z" fill="#00939B"/>
<path d="M349.909 114.127H170.63V122.655H349.909V114.127Z" fill="#3FE0E6"/>
<path d="M57.383 35.278C57.383 35.278 63.3433 43.1045 64.3952 50.347C65.447 57.5895 62.5253 96.9558 62.5253 96.9558L60.4216 62.3788L62.0578 57.1222L59.3698 56.5381C59.3698 56.5381 56.9155 43.1045 55.0456 40.885C53.1756 38.7824 52.9419 37.9647 52.9419 37.9647L57.383 35.278Z" fill="#D9E6F9"/>
<path d="M67.0835 41.9364C67.0835 41.9364 74.0957 57.0054 74.3295 65.6497C74.5632 74.2939 71.6414 96.1382 71.6414 96.1382C71.6414 96.1382 75.7319 67.2851 76.7837 67.2851C77.8356 67.2851 75.7319 62.9629 75.7319 62.9629L77.3681 61.5612C77.3681 61.5612 75.4982 48.1275 72.4595 44.8567C69.5378 41.7028 67.0835 41.9364 67.0835 41.9364Z" fill="#D9E6F9"/>
</svg>
