<svg width="266" height="110" viewBox="0 0 266 110" fill="none" xmlns="http://www.w3.org/2000/svg">
<g clip-path="url(#clip0)">
<path d="M217.058 102.55H243.339V71.9978H217.058C214.748 71.9978 212.875 73.876 212.875 76.1924V98.3552C212.875 100.672 214.748 102.55 217.058 102.55Z" fill="#B7FBFE"/>
<path d="M227.732 110H266.062V64.4849H227.732C223.862 64.4849 220.678 67.6778 220.678 71.5594V102.863C220.678 106.807 223.862 110 227.732 110Z" fill="#00939B"/>
<path d="M212.875 76.3802C209.941 76.3802 207.569 74.0011 207.569 71.0586V5.69721C207.569 2.56688 205.009 0 201.888 0C198.767 0 196.207 2.56688 196.207 5.69721V58.0364C196.207 59.226 195.208 60.2277 194.022 60.2277C192.836 60.2277 191.837 59.226 191.837 58.0364V41.7587C191.837 38.8162 189.465 36.4371 186.531 36.4371C183.597 36.4371 181.225 38.8162 181.225 41.7587V82.3278C181.225 91.7188 188.841 99.3569 198.205 99.3569H212.875V76.3802Z" fill="#E9D6B8"/>
<path d="M124.978 50.8366H117.362V56.1582H111.869V50.8366H106.188V46.3289H111.869V43.6994H106.188V39.1917H111.869V21.6619H125.54C129.411 21.6619 132.532 22.6636 134.779 24.667C137.089 26.6704 138.213 29.3625 138.213 32.6806C138.213 35.9362 137.089 38.5657 134.842 40.5691C132.594 42.5725 129.598 43.6368 125.852 43.6994H117.362V46.3289H124.978V50.8366ZM117.362 39.1917H125.54C127.788 39.1917 129.536 38.6283 130.847 37.4388C132.157 36.2492 132.782 34.6841 132.782 32.7433C132.782 30.7398 132.157 29.1747 130.847 27.9851C129.536 26.7956 127.788 26.1695 125.603 26.1695H117.362V39.1917Z" fill="#00939B"/>
<path d="M145.842 64.0048C159.47 50.3377 159.47 28.1789 145.842 14.5118C132.215 0.844718 110.12 0.844717 96.4917 14.5118C82.8639 28.1789 82.8639 50.3377 96.4917 64.0048C110.12 77.6719 132.215 77.6719 145.842 64.0048Z" stroke="#82D8DC" stroke-width="3.2715" stroke-miterlimit="10"/>
<path d="M46.0082 90.7798H21.4121V61.9807H46.0082C48.318 61.9807 50.1908 63.8589 50.1908 66.1754V86.6478C50.1284 88.9016 48.318 90.7798 46.0082 90.7798Z" fill="#B7FBFE"/>
<path d="M35.7705 97.8543H0V54.9061H35.7705C39.6409 54.9061 42.8247 58.0991 42.8247 61.9807V90.7798C42.8247 94.6614 39.6409 97.8543 35.7705 97.8543Z" fill="#82D8DC"/>
<path d="M50.1284 66.3631H58.119C58.119 62.1685 61.5525 58.7251 65.7351 58.7251H112.93C116.051 58.7251 118.61 61.292 118.61 64.4223C118.61 67.5526 116.051 70.1195 112.93 70.1195H98.3218C97.0108 70.1195 96.012 71.1838 96.012 72.436C96.012 73.7507 97.0733 74.7524 98.3218 74.7524H140.647L157.065 67.6779C160.124 66.3631 163.683 67.8657 164.869 70.996C165.992 73.9385 164.619 77.3193 161.685 78.5714L141.396 87.2111H50.1284V66.3631Z" fill="#E9D6B8"/>
</g>
<defs>
<clipPath id="clip0">
<rect width="266" height="110" fill="white"/>
</clipPath>
</defs>
</svg>
