<?xml version="1.0" standalone="no"?>
<!DOCTYPE svg PUBLIC "-//W3C//DTD SVG 20010904//EN"
 "http://www.w3.org/TR/2001/REC-SVG-20010904/DTD/svg10.dtd">
<svg version="1.0" xmlns="http://www.w3.org/2000/svg"
 width="513.000000pt" height="513.000000pt" viewBox="0 0 513.000000 513.000000"
 preserveAspectRatio="xMidYMid meet">
<metadata>
Created by potrace 1.11, written by Peter Selinger 2001-2013
</metadata>
<g transform="translate(0.000000,513.000000) scale(0.100000,-0.100000)"
fill="#000000" stroke="none">
<path d="M2258 5105 c-985 -119 -1812 -797 -2123 -1740 -164 -497 -167 -1075
-9 -1576 275 -867 1012 -1537 1897 -1724 348 -74 736 -74 1084 0 804 170 1490
738 1816 1506 266 625 264 1373 -5 1999 -362 845 -1143 1428 -2057 1535 -152
18 -454 18 -603 0z m1742 -850 l0 -55 55 0 55 0 0 -265 0 -265 -55 0 -55 0 0
-55 0 -55 -160 0 -160 0 0 -635 0 -635 55 0 55 0 0 -110 0 -110 55 0 55 0 0
-160 0 -160 -55 0 -55 0 0 -160 0 -160 -55 0 -55 0 0 -425 0 -425 -105 0 -105
0 0 55 0 55 -55 0 -55 0 0 105 0 105 -50 0 -50 0 0 -55 0 -55 -55 0 -55 0 0
-50 0 -50 -55 0 -55 0 0 -55 0 -55 -105 0 -105 0 0 265 0 265 -800 0 -800 0 0
55 0 55 -105 0 -105 0 0 265 0 265 55 0 55 0 0 55 0 55 160 0 160 0 0 1120 0
1120 50 0 50 0 0 50 0 50 55 0 55 0 0 55 0 55 1170 0 1170 0 0 -55z"/>
<path d="M1770 4045 l0 -55 -55 0 -55 0 0 -1330 0 -1330 585 0 585 0 0 160 0
160 -50 0 -50 0 0 105 0 105 -55 0 -55 0 0 55 0 55 55 0 55 0 0 50 0 50 50 0
50 0 0 160 0 160 160 0 160 0 0 55 0 55 160 0 160 0 0 530 0 530 -850 0 -850
0 0 110 0 110 105 0 105 0 0 160 0 160 -105 0 -105 0 0 -55z m1490 -800 l0
-105 -695 0 -695 0 0 105 0 105 695 0 695 0 0 -105z m0 -480 l0 -55 -55 0 -55
0 0 -55 0 -55 -585 0 -585 0 0 55 0 55 -55 0 -55 0 0 55 0 55 695 0 695 0 0
-55z m-750 -480 l0 -105 -320 0 -320 0 0 105 0 105 320 0 320 0 0 -105z"/>
<path d="M2190 3940 l0 -160 855 0 855 0 0 50 0 50 50 0 50 0 0 55 0 55 -50 0
-50 0 0 55 0 55 -855 0 -855 0 0 -160z"/>
<path d="M3260 2235 l0 -55 -110 0 -110 0 0 -105 0 -105 -50 0 -50 0 0 -110 0
-110 50 0 50 0 0 -50 0 -50 55 0 55 0 0 -55 0 -55 105 0 105 0 0 55 0 55 110
0 110 0 0 105 0 105 50 0 50 0 0 55 0 55 -50 0 -50 0 0 105 0 105 -110 0 -110
0 0 55 0 55 -50 0 -50 0 0 -55z m100 -375 l0 -110 -50 0 -50 0 0 55 0 55 -55
0 -55 0 0 55 0 55 105 0 105 0 0 -110z"/>
<path d="M1340 1700 l0 -50 -105 0 -105 0 0 -110 0 -110 50 0 50 0 0 -50 0
-50 55 0 55 0 0 50 0 50 55 0 55 0 0 160 0 160 -55 0 -55 0 0 -50z"/>
<path d="M3040 1220 l0 -110 110 0 110 0 0 110 0 110 -110 0 -110 0 0 -110z"/>
<path d="M3360 1220 l0 -110 55 0 55 0 0 110 0 110 -55 0 -55 0 0 -110z"/>
</g>
</svg>
